G04 #@! TF.GenerationSoftware,KiCad,Pcbnew,(5.1.10)-1*
G04 #@! TF.CreationDate,2022-01-11T02:43:02-06:00*
G04 #@! TF.ProjectId,arrow,6172726f-772e-46b6-9963-61645f706362,rev?*
G04 #@! TF.SameCoordinates,Original*
G04 #@! TF.FileFunction,Soldermask,Top*
G04 #@! TF.FilePolarity,Negative*
%FSLAX46Y46*%
G04 Gerber Fmt 4.6, Leading zero omitted, Abs format (unit mm)*
G04 Created by KiCad (PCBNEW (5.1.10)-1) date 2022-01-11 02:43:02*
%MOMM*%
%LPD*%
G01*
G04 APERTURE LIST*
%ADD10C,1.752600*%
%ADD11C,3.980180*%
%ADD12C,2.950000*%
%ADD13C,1.700000*%
%ADD14O,1.700000X1.700000*%
%ADD15R,1.700000X1.700000*%
G04 APERTURE END LIST*
D10*
X227040000Y-128641250D03*
X227040000Y-131181250D03*
X227040000Y-133721250D03*
X227040000Y-136261250D03*
X227040000Y-138801250D03*
X227040000Y-141341250D03*
X227040000Y-143881250D03*
X227040000Y-146421250D03*
X227040000Y-148961250D03*
X211800000Y-151501250D03*
X211800000Y-148961250D03*
X211800000Y-146421250D03*
X211800000Y-143881250D03*
X211800000Y-141341250D03*
X211800000Y-138801250D03*
X211800000Y-136261250D03*
X211800000Y-133721250D03*
X211800000Y-131181250D03*
X211800000Y-123561250D03*
D11*
X238470000Y-149520000D03*
D12*
X235930000Y-154600000D03*
X242280000Y-152060000D03*
D13*
X233390000Y-149520000D03*
X243550000Y-149520000D03*
D11*
X219420000Y-149520000D03*
D12*
X216880000Y-154600000D03*
X223230000Y-152060000D03*
D13*
X214340000Y-149520000D03*
X224500000Y-149520000D03*
D11*
X219420000Y-130470000D03*
D12*
X221960000Y-125390000D03*
X215610000Y-127930000D03*
D13*
X224500000Y-130470000D03*
X214340000Y-130470000D03*
D11*
X200370000Y-149520000D03*
D12*
X197830000Y-154600000D03*
X204180000Y-152060000D03*
D13*
X195290000Y-149520000D03*
X205450000Y-149520000D03*
D14*
X246520000Y-149430000D03*
X246520000Y-146890000D03*
D15*
X246520000Y-144350000D03*
M02*
