M48
; DRILL file {KiCad (5.1.10)-1} date 01/11/22 02:43:07
; FORMAT={-:-/ absolute / metric / decimal}
; #@! TF.CreationDate,2022-01-11T02:43:07-06:00
; #@! TF.GenerationSoftware,Kicad,Pcbnew,(5.1.10)-1
; #@! TF.FileFunction,Plated,1,2,PTH
FMAT,2
METRIC
T1C1.000
T2C1.092
%
G90
G05
T1
X246.52Y-144.35
X246.52Y-146.89
X246.52Y-149.43
T2
X211.8Y-123.561
X211.8Y-131.181
X211.8Y-133.721
X211.8Y-136.261
X211.8Y-138.801
X211.8Y-141.341
X211.8Y-143.881
X211.8Y-146.421
X211.8Y-148.961
X211.8Y-151.501
X227.04Y-128.641
X227.04Y-131.181
X227.04Y-133.721
X227.04Y-136.261
X227.04Y-138.801
X227.04Y-141.341
X227.04Y-143.881
X227.04Y-146.421
X227.04Y-148.961
T0
M30
