G04 #@! TF.GenerationSoftware,KiCad,Pcbnew,(5.1.10)-1*
G04 #@! TF.CreationDate,2022-01-11T02:43:02-06:00*
G04 #@! TF.ProjectId,arrow,6172726f-772e-46b6-9963-61645f706362,rev?*
G04 #@! TF.SameCoordinates,Original*
G04 #@! TF.FileFunction,Legend,Top*
G04 #@! TF.FilePolarity,Positive*
%FSLAX46Y46*%
G04 Gerber Fmt 4.6, Leading zero omitted, Abs format (unit mm)*
G04 Created by KiCad (PCBNEW (5.1.10)-1) date 2022-01-11 02:43:02*
%MOMM*%
%LPD*%
G01*
G04 APERTURE LIST*
%ADD10C,0.381000*%
%ADD11C,0.120000*%
%ADD12C,0.150000*%
%ADD13C,1.752600*%
%ADD14C,3.980180*%
%ADD15C,2.950000*%
%ADD16C,1.700000*%
%ADD17O,1.700000X1.700000*%
%ADD18R,1.700000X1.700000*%
G04 APERTURE END LIST*
D10*
X230850000Y-143900000D02*
X230850000Y-141900000D01*
X244090000Y-157140000D02*
X246090000Y-157140000D01*
X246090000Y-143900000D02*
X246090000Y-141900000D01*
X244090000Y-141900000D02*
X246090000Y-141900000D01*
X230850000Y-157140000D02*
X232850000Y-157140000D01*
X246090000Y-157140000D02*
X246090000Y-155140000D01*
X230850000Y-141900000D02*
X232850000Y-141900000D01*
X230850000Y-155140000D02*
X230850000Y-157140000D01*
D11*
X228945000Y-159045000D02*
X247995000Y-159045000D01*
X247995000Y-159045000D02*
X247995000Y-139995000D01*
X247995000Y-139995000D02*
X228945000Y-139995000D01*
X228945000Y-139995000D02*
X228945000Y-159045000D01*
D10*
X211800000Y-143900000D02*
X211800000Y-141900000D01*
X225040000Y-157140000D02*
X227040000Y-157140000D01*
X227040000Y-143900000D02*
X227040000Y-141900000D01*
X225040000Y-141900000D02*
X227040000Y-141900000D01*
X211800000Y-157140000D02*
X213800000Y-157140000D01*
X227040000Y-157140000D02*
X227040000Y-155140000D01*
X211800000Y-141900000D02*
X213800000Y-141900000D01*
X211800000Y-155140000D02*
X211800000Y-157140000D01*
D11*
X209895000Y-159045000D02*
X228945000Y-159045000D01*
X228945000Y-159045000D02*
X228945000Y-139995000D01*
X228945000Y-139995000D02*
X209895000Y-139995000D01*
X209895000Y-139995000D02*
X209895000Y-159045000D01*
D10*
X227040000Y-136090000D02*
X227040000Y-138090000D01*
X213800000Y-122850000D02*
X211800000Y-122850000D01*
X211800000Y-136090000D02*
X211800000Y-138090000D01*
X213800000Y-138090000D02*
X211800000Y-138090000D01*
X227040000Y-122850000D02*
X225040000Y-122850000D01*
X211800000Y-122850000D02*
X211800000Y-124850000D01*
X227040000Y-138090000D02*
X225040000Y-138090000D01*
X227040000Y-124850000D02*
X227040000Y-122850000D01*
D11*
X228945000Y-120945000D02*
X209895000Y-120945000D01*
X209895000Y-120945000D02*
X209895000Y-139995000D01*
X209895000Y-139995000D02*
X228945000Y-139995000D01*
X228945000Y-139995000D02*
X228945000Y-120945000D01*
D10*
X192750000Y-143900000D02*
X192750000Y-141900000D01*
X205990000Y-157140000D02*
X207990000Y-157140000D01*
X207990000Y-143900000D02*
X207990000Y-141900000D01*
X205990000Y-141900000D02*
X207990000Y-141900000D01*
X192750000Y-157140000D02*
X194750000Y-157140000D01*
X207990000Y-157140000D02*
X207990000Y-155140000D01*
X192750000Y-141900000D02*
X194750000Y-141900000D01*
X192750000Y-155140000D02*
X192750000Y-157140000D01*
D11*
X190845000Y-159045000D02*
X209895000Y-159045000D01*
X209895000Y-159045000D02*
X209895000Y-139995000D01*
X209895000Y-139995000D02*
X190845000Y-139995000D01*
X190845000Y-139995000D02*
X190845000Y-159045000D01*
X245190000Y-143020000D02*
X246520000Y-143020000D01*
X245190000Y-144350000D02*
X245190000Y-143020000D01*
X245190000Y-145620000D02*
X247850000Y-145620000D01*
X247850000Y-145620000D02*
X247850000Y-150760000D01*
X245190000Y-145620000D02*
X245190000Y-150760000D01*
X245190000Y-150760000D02*
X247850000Y-150760000D01*
D12*
X224290523Y-136623154D02*
X224290523Y-135823154D01*
X224481000Y-135823154D01*
X224595285Y-135861250D01*
X224671476Y-135937440D01*
X224709571Y-136013630D01*
X224747666Y-136166011D01*
X224747666Y-136280297D01*
X224709571Y-136432678D01*
X224671476Y-136508869D01*
X224595285Y-136585059D01*
X224481000Y-136623154D01*
X224290523Y-136623154D01*
X225242904Y-135823154D02*
X225319095Y-135823154D01*
X225395285Y-135861250D01*
X225433380Y-135899345D01*
X225471476Y-135975535D01*
X225509571Y-136127916D01*
X225509571Y-136318392D01*
X225471476Y-136470773D01*
X225433380Y-136546964D01*
X225395285Y-136585059D01*
X225319095Y-136623154D01*
X225242904Y-136623154D01*
X225166714Y-136585059D01*
X225128619Y-136546964D01*
X225090523Y-136470773D01*
X225052428Y-136318392D01*
X225052428Y-136127916D01*
X225090523Y-135975535D01*
X225128619Y-135899345D01*
X225166714Y-135861250D01*
X225242904Y-135823154D01*
X224290523Y-134083154D02*
X224290523Y-133283154D01*
X224481000Y-133283154D01*
X224595285Y-133321250D01*
X224671476Y-133397440D01*
X224709571Y-133473630D01*
X224747666Y-133626011D01*
X224747666Y-133740297D01*
X224709571Y-133892678D01*
X224671476Y-133968869D01*
X224595285Y-134045059D01*
X224481000Y-134083154D01*
X224290523Y-134083154D01*
X225509571Y-134083154D02*
X225052428Y-134083154D01*
X225281000Y-134083154D02*
X225281000Y-133283154D01*
X225204809Y-133397440D01*
X225128619Y-133473630D01*
X225052428Y-133511726D01*
X224271476Y-130781250D02*
X224195285Y-130743154D01*
X224081000Y-130743154D01*
X223966714Y-130781250D01*
X223890523Y-130857440D01*
X223852428Y-130933630D01*
X223814333Y-131086011D01*
X223814333Y-131200297D01*
X223852428Y-131352678D01*
X223890523Y-131428869D01*
X223966714Y-131505059D01*
X224081000Y-131543154D01*
X224157190Y-131543154D01*
X224271476Y-131505059D01*
X224309571Y-131466964D01*
X224309571Y-131200297D01*
X224157190Y-131200297D01*
X224652428Y-131543154D02*
X224652428Y-130743154D01*
X225109571Y-131543154D01*
X225109571Y-130743154D01*
X225490523Y-131543154D02*
X225490523Y-130743154D01*
X225681000Y-130743154D01*
X225795285Y-130781250D01*
X225871476Y-130857440D01*
X225909571Y-130933630D01*
X225947666Y-131086011D01*
X225947666Y-131200297D01*
X225909571Y-131352678D01*
X225871476Y-131428869D01*
X225795285Y-131505059D01*
X225681000Y-131543154D01*
X225490523Y-131543154D01*
X224271476Y-128241250D02*
X224195285Y-128203154D01*
X224081000Y-128203154D01*
X223966714Y-128241250D01*
X223890523Y-128317440D01*
X223852428Y-128393630D01*
X223814333Y-128546011D01*
X223814333Y-128660297D01*
X223852428Y-128812678D01*
X223890523Y-128888869D01*
X223966714Y-128965059D01*
X224081000Y-129003154D01*
X224157190Y-129003154D01*
X224271476Y-128965059D01*
X224309571Y-128926964D01*
X224309571Y-128660297D01*
X224157190Y-128660297D01*
X224652428Y-129003154D02*
X224652428Y-128203154D01*
X225109571Y-129003154D01*
X225109571Y-128203154D01*
X225490523Y-129003154D02*
X225490523Y-128203154D01*
X225681000Y-128203154D01*
X225795285Y-128241250D01*
X225871476Y-128317440D01*
X225909571Y-128393630D01*
X225947666Y-128546011D01*
X225947666Y-128660297D01*
X225909571Y-128812678D01*
X225871476Y-128888869D01*
X225795285Y-128965059D01*
X225681000Y-129003154D01*
X225490523Y-129003154D01*
X224290523Y-139163154D02*
X224290523Y-138363154D01*
X224481000Y-138363154D01*
X224595285Y-138401250D01*
X224671476Y-138477440D01*
X224709571Y-138553630D01*
X224747666Y-138706011D01*
X224747666Y-138820297D01*
X224709571Y-138972678D01*
X224671476Y-139048869D01*
X224595285Y-139125059D01*
X224481000Y-139163154D01*
X224290523Y-139163154D01*
X225433380Y-138629821D02*
X225433380Y-139163154D01*
X225242904Y-138325059D02*
X225052428Y-138896488D01*
X225547666Y-138896488D01*
X224747666Y-141626964D02*
X224709571Y-141665059D01*
X224595285Y-141703154D01*
X224519095Y-141703154D01*
X224404809Y-141665059D01*
X224328619Y-141588869D01*
X224290523Y-141512678D01*
X224252428Y-141360297D01*
X224252428Y-141246011D01*
X224290523Y-141093630D01*
X224328619Y-141017440D01*
X224404809Y-140941250D01*
X224519095Y-140903154D01*
X224595285Y-140903154D01*
X224709571Y-140941250D01*
X224747666Y-140979345D01*
X225433380Y-140903154D02*
X225281000Y-140903154D01*
X225204809Y-140941250D01*
X225166714Y-140979345D01*
X225090523Y-141093630D01*
X225052428Y-141246011D01*
X225052428Y-141550773D01*
X225090523Y-141626964D01*
X225128619Y-141665059D01*
X225204809Y-141703154D01*
X225357190Y-141703154D01*
X225433380Y-141665059D01*
X225471476Y-141626964D01*
X225509571Y-141550773D01*
X225509571Y-141360297D01*
X225471476Y-141284107D01*
X225433380Y-141246011D01*
X225357190Y-141207916D01*
X225204809Y-141207916D01*
X225128619Y-141246011D01*
X225090523Y-141284107D01*
X225052428Y-141360297D01*
X224290523Y-144243154D02*
X224290523Y-143443154D01*
X224481000Y-143443154D01*
X224595285Y-143481250D01*
X224671476Y-143557440D01*
X224709571Y-143633630D01*
X224747666Y-143786011D01*
X224747666Y-143900297D01*
X224709571Y-144052678D01*
X224671476Y-144128869D01*
X224595285Y-144205059D01*
X224481000Y-144243154D01*
X224290523Y-144243154D01*
X225014333Y-143443154D02*
X225547666Y-143443154D01*
X225204809Y-144243154D01*
X224328619Y-146364107D02*
X224595285Y-146364107D01*
X224709571Y-146783154D02*
X224328619Y-146783154D01*
X224328619Y-145983154D01*
X224709571Y-145983154D01*
X225395285Y-145983154D02*
X225242904Y-145983154D01*
X225166714Y-146021250D01*
X225128619Y-146059345D01*
X225052428Y-146173630D01*
X225014333Y-146326011D01*
X225014333Y-146630773D01*
X225052428Y-146706964D01*
X225090523Y-146745059D01*
X225166714Y-146783154D01*
X225319095Y-146783154D01*
X225395285Y-146745059D01*
X225433380Y-146706964D01*
X225471476Y-146630773D01*
X225471476Y-146440297D01*
X225433380Y-146364107D01*
X225395285Y-146326011D01*
X225319095Y-146287916D01*
X225166714Y-146287916D01*
X225090523Y-146326011D01*
X225052428Y-146364107D01*
X225014333Y-146440297D01*
X224557190Y-148904107D02*
X224671476Y-148942202D01*
X224709571Y-148980297D01*
X224747666Y-149056488D01*
X224747666Y-149170773D01*
X224709571Y-149246964D01*
X224671476Y-149285059D01*
X224595285Y-149323154D01*
X224290523Y-149323154D01*
X224290523Y-148523154D01*
X224557190Y-148523154D01*
X224633380Y-148561250D01*
X224671476Y-148599345D01*
X224709571Y-148675535D01*
X224709571Y-148751726D01*
X224671476Y-148827916D01*
X224633380Y-148866011D01*
X224557190Y-148904107D01*
X224290523Y-148904107D01*
X225433380Y-148789821D02*
X225433380Y-149323154D01*
X225242904Y-148485059D02*
X225052428Y-149056488D01*
X225547666Y-149056488D01*
X213635190Y-151444107D02*
X213749476Y-151482202D01*
X213787571Y-151520297D01*
X213825666Y-151596488D01*
X213825666Y-151710773D01*
X213787571Y-151786964D01*
X213749476Y-151825059D01*
X213673285Y-151863154D01*
X213368523Y-151863154D01*
X213368523Y-151063154D01*
X213635190Y-151063154D01*
X213711380Y-151101250D01*
X213749476Y-151139345D01*
X213787571Y-151215535D01*
X213787571Y-151291726D01*
X213749476Y-151367916D01*
X213711380Y-151406011D01*
X213635190Y-151444107D01*
X213368523Y-151444107D01*
X214511380Y-151063154D02*
X214359000Y-151063154D01*
X214282809Y-151101250D01*
X214244714Y-151139345D01*
X214168523Y-151253630D01*
X214130428Y-151406011D01*
X214130428Y-151710773D01*
X214168523Y-151786964D01*
X214206619Y-151825059D01*
X214282809Y-151863154D01*
X214435190Y-151863154D01*
X214511380Y-151825059D01*
X214549476Y-151786964D01*
X214587571Y-151710773D01*
X214587571Y-151520297D01*
X214549476Y-151444107D01*
X214511380Y-151406011D01*
X214435190Y-151367916D01*
X214282809Y-151367916D01*
X214206619Y-151406011D01*
X214168523Y-151444107D01*
X214130428Y-151520297D01*
X213635190Y-146364107D02*
X213749476Y-146402202D01*
X213787571Y-146440297D01*
X213825666Y-146516488D01*
X213825666Y-146630773D01*
X213787571Y-146706964D01*
X213749476Y-146745059D01*
X213673285Y-146783154D01*
X213368523Y-146783154D01*
X213368523Y-145983154D01*
X213635190Y-145983154D01*
X213711380Y-146021250D01*
X213749476Y-146059345D01*
X213787571Y-146135535D01*
X213787571Y-146211726D01*
X213749476Y-146287916D01*
X213711380Y-146326011D01*
X213635190Y-146364107D01*
X213368523Y-146364107D01*
X214092333Y-145983154D02*
X214587571Y-145983154D01*
X214320904Y-146287916D01*
X214435190Y-146287916D01*
X214511380Y-146326011D01*
X214549476Y-146364107D01*
X214587571Y-146440297D01*
X214587571Y-146630773D01*
X214549476Y-146706964D01*
X214511380Y-146745059D01*
X214435190Y-146783154D01*
X214206619Y-146783154D01*
X214130428Y-146745059D01*
X214092333Y-146706964D01*
X213635190Y-143824107D02*
X213749476Y-143862202D01*
X213787571Y-143900297D01*
X213825666Y-143976488D01*
X213825666Y-144090773D01*
X213787571Y-144166964D01*
X213749476Y-144205059D01*
X213673285Y-144243154D01*
X213368523Y-144243154D01*
X213368523Y-143443154D01*
X213635190Y-143443154D01*
X213711380Y-143481250D01*
X213749476Y-143519345D01*
X213787571Y-143595535D01*
X213787571Y-143671726D01*
X213749476Y-143747916D01*
X213711380Y-143786011D01*
X213635190Y-143824107D01*
X213368523Y-143824107D01*
X214587571Y-144243154D02*
X214130428Y-144243154D01*
X214359000Y-144243154D02*
X214359000Y-143443154D01*
X214282809Y-143557440D01*
X214206619Y-143633630D01*
X214130428Y-143671726D01*
X213692333Y-133664107D02*
X213425666Y-133664107D01*
X213425666Y-134083154D02*
X213425666Y-133283154D01*
X213806619Y-133283154D01*
X214454238Y-133549821D02*
X214454238Y-134083154D01*
X214263761Y-133245059D02*
X214073285Y-133816488D01*
X214568523Y-133816488D01*
X212892333Y-130743154D02*
X213159000Y-131543154D01*
X213425666Y-130743154D01*
X214149476Y-131466964D02*
X214111380Y-131505059D01*
X213997095Y-131543154D01*
X213920904Y-131543154D01*
X213806619Y-131505059D01*
X213730428Y-131428869D01*
X213692333Y-131352678D01*
X213654238Y-131200297D01*
X213654238Y-131086011D01*
X213692333Y-130933630D01*
X213730428Y-130857440D01*
X213806619Y-130781250D01*
X213920904Y-130743154D01*
X213997095Y-130743154D01*
X214111380Y-130781250D01*
X214149476Y-130819345D01*
X214949476Y-131466964D02*
X214911380Y-131505059D01*
X214797095Y-131543154D01*
X214720904Y-131543154D01*
X214606619Y-131505059D01*
X214530428Y-131428869D01*
X214492333Y-131352678D01*
X214454238Y-131200297D01*
X214454238Y-131086011D01*
X214492333Y-130933630D01*
X214530428Y-130857440D01*
X214606619Y-130781250D01*
X214720904Y-130743154D01*
X214797095Y-130743154D01*
X214911380Y-130781250D01*
X214949476Y-130819345D01*
X213406619Y-123923154D02*
X213139952Y-123542202D01*
X212949476Y-123923154D02*
X212949476Y-123123154D01*
X213254238Y-123123154D01*
X213330428Y-123161250D01*
X213368523Y-123199345D01*
X213406619Y-123275535D01*
X213406619Y-123389821D01*
X213368523Y-123466011D01*
X213330428Y-123504107D01*
X213254238Y-123542202D01*
X212949476Y-123542202D01*
X213711380Y-123694583D02*
X214092333Y-123694583D01*
X213635190Y-123923154D02*
X213901857Y-123123154D01*
X214168523Y-123923154D01*
X214359000Y-123123154D02*
X214549476Y-123923154D01*
X214701857Y-123351726D01*
X214854238Y-123923154D01*
X215044714Y-123123154D01*
X213692333Y-136204107D02*
X213425666Y-136204107D01*
X213425666Y-136623154D02*
X213425666Y-135823154D01*
X213806619Y-135823154D01*
X214492333Y-135823154D02*
X214111380Y-135823154D01*
X214073285Y-136204107D01*
X214111380Y-136166011D01*
X214187571Y-136127916D01*
X214378047Y-136127916D01*
X214454238Y-136166011D01*
X214492333Y-136204107D01*
X214530428Y-136280297D01*
X214530428Y-136470773D01*
X214492333Y-136546964D01*
X214454238Y-136585059D01*
X214378047Y-136623154D01*
X214187571Y-136623154D01*
X214111380Y-136585059D01*
X214073285Y-136546964D01*
X213692333Y-138744107D02*
X213425666Y-138744107D01*
X213425666Y-139163154D02*
X213425666Y-138363154D01*
X213806619Y-138363154D01*
X214454238Y-138363154D02*
X214301857Y-138363154D01*
X214225666Y-138401250D01*
X214187571Y-138439345D01*
X214111380Y-138553630D01*
X214073285Y-138706011D01*
X214073285Y-139010773D01*
X214111380Y-139086964D01*
X214149476Y-139125059D01*
X214225666Y-139163154D01*
X214378047Y-139163154D01*
X214454238Y-139125059D01*
X214492333Y-139086964D01*
X214530428Y-139010773D01*
X214530428Y-138820297D01*
X214492333Y-138744107D01*
X214454238Y-138706011D01*
X214378047Y-138667916D01*
X214225666Y-138667916D01*
X214149476Y-138706011D01*
X214111380Y-138744107D01*
X214073285Y-138820297D01*
X213692333Y-141284107D02*
X213425666Y-141284107D01*
X213425666Y-141703154D02*
X213425666Y-140903154D01*
X213806619Y-140903154D01*
X214035190Y-140903154D02*
X214568523Y-140903154D01*
X214225666Y-141703154D01*
X213635190Y-148904107D02*
X213749476Y-148942202D01*
X213787571Y-148980297D01*
X213825666Y-149056488D01*
X213825666Y-149170773D01*
X213787571Y-149246964D01*
X213749476Y-149285059D01*
X213673285Y-149323154D01*
X213368523Y-149323154D01*
X213368523Y-148523154D01*
X213635190Y-148523154D01*
X213711380Y-148561250D01*
X213749476Y-148599345D01*
X213787571Y-148675535D01*
X213787571Y-148751726D01*
X213749476Y-148827916D01*
X213711380Y-148866011D01*
X213635190Y-148904107D01*
X213368523Y-148904107D01*
X214130428Y-148599345D02*
X214168523Y-148561250D01*
X214244714Y-148523154D01*
X214435190Y-148523154D01*
X214511380Y-148561250D01*
X214549476Y-148599345D01*
X214587571Y-148675535D01*
X214587571Y-148751726D01*
X214549476Y-148866011D01*
X214092333Y-149323154D01*
X214587571Y-149323154D01*
X246186666Y-141472380D02*
X246186666Y-142186666D01*
X246139047Y-142329523D01*
X246043809Y-142424761D01*
X245900952Y-142472380D01*
X245805714Y-142472380D01*
X247186666Y-142472380D02*
X246615238Y-142472380D01*
X246900952Y-142472380D02*
X246900952Y-141472380D01*
X246805714Y-141615238D01*
X246710476Y-141710476D01*
X246615238Y-141758095D01*
%LPC*%
D13*
X227040000Y-128641250D03*
X227040000Y-131181250D03*
X227040000Y-133721250D03*
X227040000Y-136261250D03*
X227040000Y-138801250D03*
X227040000Y-141341250D03*
X227040000Y-143881250D03*
X227040000Y-146421250D03*
X227040000Y-148961250D03*
X211800000Y-151501250D03*
X211800000Y-148961250D03*
X211800000Y-146421250D03*
X211800000Y-143881250D03*
X211800000Y-141341250D03*
X211800000Y-138801250D03*
X211800000Y-136261250D03*
X211800000Y-133721250D03*
X211800000Y-131181250D03*
X211800000Y-123561250D03*
D14*
X238470000Y-149520000D03*
D15*
X235930000Y-154600000D03*
X242280000Y-152060000D03*
D16*
X233390000Y-149520000D03*
X243550000Y-149520000D03*
D14*
X219420000Y-149520000D03*
D15*
X216880000Y-154600000D03*
X223230000Y-152060000D03*
D16*
X214340000Y-149520000D03*
X224500000Y-149520000D03*
D14*
X219420000Y-130470000D03*
D15*
X221960000Y-125390000D03*
X215610000Y-127930000D03*
D16*
X224500000Y-130470000D03*
X214340000Y-130470000D03*
D14*
X200370000Y-149520000D03*
D15*
X197830000Y-154600000D03*
X204180000Y-152060000D03*
D16*
X195290000Y-149520000D03*
X205450000Y-149520000D03*
D17*
X246520000Y-149430000D03*
X246520000Y-146890000D03*
D18*
X246520000Y-144350000D03*
M02*
