M48
; DRILL file {KiCad (5.1.10)-1} date 01/11/22 02:43:07
; FORMAT={-:-/ absolute / metric / decimal}
; #@! TF.CreationDate,2022-01-11T02:43:07-06:00
; #@! TF.GenerationSoftware,Kicad,Pcbnew,(5.1.10)-1
; #@! TF.FileFunction,NonPlated,1,2,NPTH
FMAT,2
METRIC
T1C1.700
T2C2.950
T3C3.980
%
G90
G05
T1
X195.29Y-149.52
X205.45Y-149.52
X214.34Y-130.47
X214.34Y-149.52
X224.5Y-130.47
X224.5Y-149.52
X233.39Y-149.52
X243.55Y-149.52
T2
X197.83Y-154.6
X204.18Y-152.06
X215.61Y-127.93
X216.88Y-154.6
X221.96Y-125.39
X223.23Y-152.06
X235.93Y-154.6
X242.28Y-152.06
T3
X200.37Y-149.52
X219.42Y-130.47
X219.42Y-149.52
X238.47Y-149.52
T0
M30
