M48
; DRILL file {KiCad (5.1.10)-1} date 10/22/21 01:43:08
; FORMAT={-:-/ absolute / metric / decimal}
; #@! TF.CreationDate,2021-10-22T01:43:08-05:00
; #@! TF.GenerationSoftware,Kicad,Pcbnew,(5.1.10)-1
; #@! TF.FileFunction,NonPlated,1,2,NPTH
FMAT,2
METRIC
T1C1.700
T2C2.950
T3C3.980
%
G90
G05
T1
X44.92Y-50.0
X44.92Y-69.05
X44.92Y-88.1
X44.92Y-107.15
X44.92Y-126.2
X55.08Y-50.0
X55.08Y-69.05
X55.08Y-88.1
X55.08Y-107.15
X55.08Y-126.2
X63.97Y-50.0
X63.97Y-69.05
X63.97Y-88.1
X63.97Y-107.15
X63.97Y-126.2
X74.13Y-50.0
X74.13Y-69.05
X74.13Y-88.1
X74.13Y-107.15
X74.13Y-126.2
X83.02Y-50.0
X83.02Y-69.05
X83.02Y-88.1
X83.02Y-107.15
X83.02Y-126.2
X93.18Y-50.0
X93.18Y-69.05
X93.18Y-88.1
X93.18Y-107.15
X93.18Y-126.2
X102.07Y-50.0
X102.07Y-69.05
X102.07Y-88.1
X102.07Y-107.15
X102.07Y-126.2
X112.23Y-50.0
X112.23Y-69.05
X112.23Y-88.1
X112.23Y-107.15
X112.23Y-126.2
X121.12Y-50.0
X121.12Y-69.05
X121.12Y-88.1
X121.12Y-107.15
X121.12Y-126.2
X131.28Y-50.0
X131.28Y-69.05
X131.28Y-88.1
X131.28Y-107.15
X131.28Y-126.2
X140.17Y-50.0
X140.17Y-69.05
X140.17Y-88.1
X140.17Y-107.15
X150.33Y-50.0
X150.33Y-69.05
X150.33Y-88.1
X150.33Y-107.15
X159.22Y-69.05
X159.22Y-88.1
X159.22Y-107.15
X159.22Y-126.2
X169.38Y-69.05
X169.38Y-88.1
X169.38Y-107.15
X169.38Y-126.2
X178.27Y-69.05
X178.27Y-88.1
X178.27Y-107.15
X178.27Y-126.2
X188.43Y-69.05
X188.43Y-88.1
X188.43Y-107.15
X188.43Y-126.2
X197.32Y-69.05
X197.32Y-88.1
X197.32Y-107.15
X197.32Y-126.2
X207.48Y-69.05
X207.48Y-88.1
X207.48Y-107.15
X207.48Y-126.2
X216.37Y-69.05
X216.37Y-88.1
X216.37Y-107.15
X216.37Y-126.2
X226.53Y-69.05
X226.53Y-88.1
X226.53Y-107.15
X226.53Y-126.2
X235.42Y-69.05
X235.42Y-88.1
X235.42Y-107.15
X235.42Y-126.2
X245.58Y-69.05
X245.58Y-88.1
X245.58Y-107.15
X245.58Y-126.2
T2
X47.46Y-55.08
X47.46Y-74.13
X47.46Y-93.18
X47.46Y-112.23
X47.46Y-131.28
X53.81Y-52.54
X53.81Y-71.59
X53.81Y-90.64
X53.81Y-109.69
X53.81Y-128.74
X66.51Y-55.08
X66.51Y-74.13
X66.51Y-93.18
X66.51Y-112.23
X66.51Y-131.28
X72.86Y-52.54
X72.86Y-71.59
X72.86Y-90.64
X72.86Y-109.69
X72.86Y-128.74
X85.56Y-55.08
X85.56Y-74.13
X85.56Y-93.18
X85.56Y-112.23
X85.56Y-131.28
X91.91Y-52.54
X91.91Y-71.59
X91.91Y-90.64
X91.91Y-109.69
X91.91Y-128.74
X104.61Y-55.08
X104.61Y-74.13
X104.61Y-93.18
X104.61Y-112.23
X104.61Y-131.28
X110.96Y-52.54
X110.96Y-71.59
X110.96Y-90.64
X110.96Y-109.69
X110.96Y-128.74
X122.39Y-47.46
X123.66Y-74.13
X123.66Y-93.18
X123.66Y-112.23
X123.66Y-131.28
X128.74Y-44.92
X130.01Y-71.59
X130.01Y-90.64
X130.01Y-109.69
X130.01Y-128.74
X141.44Y-47.46
X142.71Y-74.13
X142.71Y-93.18
X142.71Y-112.23
X147.79Y-44.92
X149.06Y-71.59
X149.06Y-90.64
X149.06Y-109.69
X161.76Y-74.13
X161.76Y-93.18
X161.76Y-112.23
X161.76Y-131.28
X168.11Y-71.59
X168.11Y-90.64
X168.11Y-109.69
X168.11Y-128.74
X180.81Y-74.13
X180.81Y-93.18
X180.81Y-112.23
X180.81Y-131.28
X187.16Y-71.59
X187.16Y-90.64
X187.16Y-109.69
X187.16Y-128.74
X199.86Y-74.13
X199.86Y-93.18
X199.86Y-112.23
X199.86Y-131.28
X206.21Y-71.59
X206.21Y-90.64
X206.21Y-109.69
X206.21Y-128.74
X218.91Y-74.13
X218.91Y-93.18
X218.91Y-112.23
X218.91Y-131.28
X225.26Y-71.59
X225.26Y-90.64
X225.26Y-109.69
X225.26Y-128.74
X237.96Y-74.13
X237.96Y-93.18
X237.96Y-112.23
X237.96Y-131.28
X244.31Y-71.59
X244.31Y-90.64
X244.31Y-109.69
X244.31Y-128.74
T3
X50.0Y-50.0
X50.0Y-69.05
X50.0Y-88.1
X50.0Y-107.15
X50.0Y-126.2
X69.05Y-50.0
X69.05Y-69.05
X69.05Y-88.1
X69.05Y-107.15
X69.05Y-126.2
X88.1Y-50.0
X88.1Y-69.05
X88.1Y-88.1
X88.1Y-107.15
X88.1Y-126.2
X107.15Y-50.0
X107.15Y-69.05
X107.15Y-88.1
X107.15Y-107.15
X107.15Y-126.2
X126.2Y-50.0
X126.2Y-69.05
X126.2Y-88.1
X126.2Y-107.15
X126.2Y-126.2
X145.25Y-50.0
X145.25Y-69.05
X145.25Y-88.1
X145.25Y-107.15
X164.3Y-69.05
X164.3Y-88.1
X164.3Y-107.15
X164.3Y-126.2
X183.35Y-69.05
X183.35Y-88.1
X183.35Y-107.15
X183.35Y-126.2
X202.4Y-69.05
X202.4Y-88.1
X202.4Y-107.15
X202.4Y-126.2
X221.45Y-69.05
X221.45Y-88.1
X221.45Y-107.15
X221.45Y-126.2
X240.5Y-69.05
X240.5Y-88.1
X240.5Y-107.15
X240.5Y-126.2
T0
M30
