G04 #@! TF.GenerationSoftware,KiCad,Pcbnew,(5.1.10)-1*
G04 #@! TF.CreationDate,2021-10-22T01:42:52-05:00*
G04 #@! TF.ProjectId,DTM,44544d2e-6b69-4636-9164-5f7063625858,rev?*
G04 #@! TF.SameCoordinates,Original*
G04 #@! TF.FileFunction,Paste,Bot*
G04 #@! TF.FilePolarity,Positive*
%FSLAX46Y46*%
G04 Gerber Fmt 4.6, Leading zero omitted, Abs format (unit mm)*
G04 Created by KiCad (PCBNEW (5.1.10)-1) date 2021-10-22 01:42:52*
%MOMM*%
%LPD*%
G01*
G04 APERTURE LIST*
%ADD10R,2.550000X2.500000*%
G04 APERTURE END LIST*
D10*
X76410000Y-52540000D03*
X62960000Y-55080000D03*
X57360000Y-52540000D03*
X43910000Y-55080000D03*
X76410000Y-90640000D03*
X62960000Y-93180000D03*
X247860000Y-128740000D03*
X234410000Y-131280000D03*
X247860000Y-109690000D03*
X234410000Y-112230000D03*
X247860000Y-90640000D03*
X234410000Y-93180000D03*
X247860000Y-71590000D03*
X234410000Y-74130000D03*
X228810000Y-128740000D03*
X215360000Y-131280000D03*
X228810000Y-109690000D03*
X215360000Y-112230000D03*
X228810000Y-90640000D03*
X215360000Y-93180000D03*
X228810000Y-71590000D03*
X215360000Y-74130000D03*
X209760000Y-128740000D03*
X196310000Y-131280000D03*
X209760000Y-109690000D03*
X196310000Y-112230000D03*
X209760000Y-90640000D03*
X196310000Y-93180000D03*
X209760000Y-71590000D03*
X196310000Y-74130000D03*
X190710000Y-128740000D03*
X177260000Y-131280000D03*
X190710000Y-109690000D03*
X177260000Y-112230000D03*
X190710000Y-90640000D03*
X177260000Y-93180000D03*
X190710000Y-71590000D03*
X177260000Y-74130000D03*
X171660000Y-128740000D03*
X158210000Y-131280000D03*
X171660000Y-109690000D03*
X158210000Y-112230000D03*
X171660000Y-90640000D03*
X158210000Y-93180000D03*
X171660000Y-71590000D03*
X158210000Y-74130000D03*
X152610000Y-109690000D03*
X139160000Y-112230000D03*
X152610000Y-90640000D03*
X139160000Y-93180000D03*
X152610000Y-71590000D03*
X139160000Y-74130000D03*
X137890000Y-47460000D03*
X151340000Y-44920000D03*
X133560000Y-128740000D03*
X120110000Y-131280000D03*
X133560000Y-109690000D03*
X120110000Y-112230000D03*
X133560000Y-90640000D03*
X120110000Y-93180000D03*
X133560000Y-71590000D03*
X120110000Y-74130000D03*
X118840000Y-47460000D03*
X132290000Y-44920000D03*
X114510000Y-128740000D03*
X101060000Y-131280000D03*
X114510000Y-109690000D03*
X101060000Y-112230000D03*
X114510000Y-90640000D03*
X101060000Y-93180000D03*
X114510000Y-71590000D03*
X101060000Y-74130000D03*
X114510000Y-52540000D03*
X101060000Y-55080000D03*
X95460000Y-128740000D03*
X82010000Y-131280000D03*
X95460000Y-109690000D03*
X82010000Y-112230000D03*
X95460000Y-90640000D03*
X82010000Y-93180000D03*
X95460000Y-71590000D03*
X82010000Y-74130000D03*
X95460000Y-52540000D03*
X82010000Y-55080000D03*
X76410000Y-128740000D03*
X62960000Y-131280000D03*
X76410000Y-109690000D03*
X62960000Y-112230000D03*
X76410000Y-71590000D03*
X62960000Y-74130000D03*
X57360000Y-128740000D03*
X43910000Y-131280000D03*
X57360000Y-109690000D03*
X43910000Y-112230000D03*
X57360000Y-90640000D03*
X43910000Y-93180000D03*
X57360000Y-71590000D03*
X43910000Y-74130000D03*
M02*
