G04 #@! TF.GenerationSoftware,KiCad,Pcbnew,(5.1.10)-1*
G04 #@! TF.CreationDate,2021-10-22T01:42:52-05:00*
G04 #@! TF.ProjectId,DTM,44544d2e-6b69-4636-9164-5f7063625858,rev?*
G04 #@! TF.SameCoordinates,Original*
G04 #@! TF.FileFunction,Legend,Top*
G04 #@! TF.FilePolarity,Positive*
%FSLAX46Y46*%
G04 Gerber Fmt 4.6, Leading zero omitted, Abs format (unit mm)*
G04 Created by KiCad (PCBNEW (5.1.10)-1) date 2021-10-22 01:42:52*
%MOMM*%
%LPD*%
G01*
G04 APERTURE LIST*
%ADD10C,0.381000*%
%ADD11C,0.120000*%
%ADD12C,0.150000*%
%ADD13C,4.000000*%
%ADD14C,3.980180*%
%ADD15C,2.950000*%
%ADD16C,1.700000*%
%ADD17R,1.651000X1.651000*%
%ADD18C,1.651000*%
%ADD19C,1.800000*%
%ADD20C,1.752600*%
%ADD21R,1.752600X1.752600*%
G04 APERTURE END LIST*
D10*
X61430000Y-44380000D02*
X61430000Y-42380000D01*
X74670000Y-57620000D02*
X76670000Y-57620000D01*
X76670000Y-44380000D02*
X76670000Y-42380000D01*
X74670000Y-42380000D02*
X76670000Y-42380000D01*
X61430000Y-57620000D02*
X63430000Y-57620000D01*
X76670000Y-57620000D02*
X76670000Y-55620000D01*
X61430000Y-42380000D02*
X63430000Y-42380000D01*
X61430000Y-55620000D02*
X61430000Y-57620000D01*
D11*
X59525000Y-59525000D02*
X78575000Y-59525000D01*
X78575000Y-59525000D02*
X78575000Y-40475000D01*
X78575000Y-40475000D02*
X59525000Y-40475000D01*
X59525000Y-40475000D02*
X59525000Y-59525000D01*
D10*
X42380000Y-44380000D02*
X42380000Y-42380000D01*
X55620000Y-57620000D02*
X57620000Y-57620000D01*
X57620000Y-44380000D02*
X57620000Y-42380000D01*
X55620000Y-42380000D02*
X57620000Y-42380000D01*
X42380000Y-57620000D02*
X44380000Y-57620000D01*
X57620000Y-57620000D02*
X57620000Y-55620000D01*
X42380000Y-42380000D02*
X44380000Y-42380000D01*
X42380000Y-55620000D02*
X42380000Y-57620000D01*
D11*
X40475000Y-59525000D02*
X59525000Y-59525000D01*
X59525000Y-59525000D02*
X59525000Y-40475000D01*
X59525000Y-40475000D02*
X40475000Y-40475000D01*
X40475000Y-40475000D02*
X40475000Y-59525000D01*
D10*
X61430000Y-82480000D02*
X61430000Y-80480000D01*
X74670000Y-95720000D02*
X76670000Y-95720000D01*
X76670000Y-82480000D02*
X76670000Y-80480000D01*
X74670000Y-80480000D02*
X76670000Y-80480000D01*
X61430000Y-95720000D02*
X63430000Y-95720000D01*
X76670000Y-95720000D02*
X76670000Y-93720000D01*
X61430000Y-80480000D02*
X63430000Y-80480000D01*
X61430000Y-93720000D02*
X61430000Y-95720000D01*
D11*
X59525000Y-97625000D02*
X78575000Y-97625000D01*
X78575000Y-97625000D02*
X78575000Y-78575000D01*
X78575000Y-78575000D02*
X59525000Y-78575000D01*
X59525000Y-78575000D02*
X59525000Y-97625000D01*
D10*
X232880000Y-120580000D02*
X232880000Y-118580000D01*
X246120000Y-133820000D02*
X248120000Y-133820000D01*
X248120000Y-120580000D02*
X248120000Y-118580000D01*
X246120000Y-118580000D02*
X248120000Y-118580000D01*
X232880000Y-133820000D02*
X234880000Y-133820000D01*
X248120000Y-133820000D02*
X248120000Y-131820000D01*
X232880000Y-118580000D02*
X234880000Y-118580000D01*
X232880000Y-131820000D02*
X232880000Y-133820000D01*
D11*
X230975000Y-135725000D02*
X250025000Y-135725000D01*
X250025000Y-135725000D02*
X250025000Y-116675000D01*
X250025000Y-116675000D02*
X230975000Y-116675000D01*
X230975000Y-116675000D02*
X230975000Y-135725000D01*
D10*
X232880000Y-101530000D02*
X232880000Y-99530000D01*
X246120000Y-114770000D02*
X248120000Y-114770000D01*
X248120000Y-101530000D02*
X248120000Y-99530000D01*
X246120000Y-99530000D02*
X248120000Y-99530000D01*
X232880000Y-114770000D02*
X234880000Y-114770000D01*
X248120000Y-114770000D02*
X248120000Y-112770000D01*
X232880000Y-99530000D02*
X234880000Y-99530000D01*
X232880000Y-112770000D02*
X232880000Y-114770000D01*
D11*
X230975000Y-116675000D02*
X250025000Y-116675000D01*
X250025000Y-116675000D02*
X250025000Y-97625000D01*
X250025000Y-97625000D02*
X230975000Y-97625000D01*
X230975000Y-97625000D02*
X230975000Y-116675000D01*
D10*
X232880000Y-82480000D02*
X232880000Y-80480000D01*
X246120000Y-95720000D02*
X248120000Y-95720000D01*
X248120000Y-82480000D02*
X248120000Y-80480000D01*
X246120000Y-80480000D02*
X248120000Y-80480000D01*
X232880000Y-95720000D02*
X234880000Y-95720000D01*
X248120000Y-95720000D02*
X248120000Y-93720000D01*
X232880000Y-80480000D02*
X234880000Y-80480000D01*
X232880000Y-93720000D02*
X232880000Y-95720000D01*
D11*
X230975000Y-97625000D02*
X250025000Y-97625000D01*
X250025000Y-97625000D02*
X250025000Y-78575000D01*
X250025000Y-78575000D02*
X230975000Y-78575000D01*
X230975000Y-78575000D02*
X230975000Y-97625000D01*
D10*
X232880000Y-63430000D02*
X232880000Y-61430000D01*
X246120000Y-76670000D02*
X248120000Y-76670000D01*
X248120000Y-63430000D02*
X248120000Y-61430000D01*
X246120000Y-61430000D02*
X248120000Y-61430000D01*
X232880000Y-76670000D02*
X234880000Y-76670000D01*
X248120000Y-76670000D02*
X248120000Y-74670000D01*
X232880000Y-61430000D02*
X234880000Y-61430000D01*
X232880000Y-74670000D02*
X232880000Y-76670000D01*
D11*
X230975000Y-78575000D02*
X250025000Y-78575000D01*
X250025000Y-78575000D02*
X250025000Y-59525000D01*
X250025000Y-59525000D02*
X230975000Y-59525000D01*
X230975000Y-59525000D02*
X230975000Y-78575000D01*
D10*
X213830000Y-120580000D02*
X213830000Y-118580000D01*
X227070000Y-133820000D02*
X229070000Y-133820000D01*
X229070000Y-120580000D02*
X229070000Y-118580000D01*
X227070000Y-118580000D02*
X229070000Y-118580000D01*
X213830000Y-133820000D02*
X215830000Y-133820000D01*
X229070000Y-133820000D02*
X229070000Y-131820000D01*
X213830000Y-118580000D02*
X215830000Y-118580000D01*
X213830000Y-131820000D02*
X213830000Y-133820000D01*
D11*
X211925000Y-135725000D02*
X230975000Y-135725000D01*
X230975000Y-135725000D02*
X230975000Y-116675000D01*
X230975000Y-116675000D02*
X211925000Y-116675000D01*
X211925000Y-116675000D02*
X211925000Y-135725000D01*
D10*
X213830000Y-101530000D02*
X213830000Y-99530000D01*
X227070000Y-114770000D02*
X229070000Y-114770000D01*
X229070000Y-101530000D02*
X229070000Y-99530000D01*
X227070000Y-99530000D02*
X229070000Y-99530000D01*
X213830000Y-114770000D02*
X215830000Y-114770000D01*
X229070000Y-114770000D02*
X229070000Y-112770000D01*
X213830000Y-99530000D02*
X215830000Y-99530000D01*
X213830000Y-112770000D02*
X213830000Y-114770000D01*
D11*
X211925000Y-116675000D02*
X230975000Y-116675000D01*
X230975000Y-116675000D02*
X230975000Y-97625000D01*
X230975000Y-97625000D02*
X211925000Y-97625000D01*
X211925000Y-97625000D02*
X211925000Y-116675000D01*
D10*
X213830000Y-82480000D02*
X213830000Y-80480000D01*
X227070000Y-95720000D02*
X229070000Y-95720000D01*
X229070000Y-82480000D02*
X229070000Y-80480000D01*
X227070000Y-80480000D02*
X229070000Y-80480000D01*
X213830000Y-95720000D02*
X215830000Y-95720000D01*
X229070000Y-95720000D02*
X229070000Y-93720000D01*
X213830000Y-80480000D02*
X215830000Y-80480000D01*
X213830000Y-93720000D02*
X213830000Y-95720000D01*
D11*
X211925000Y-97625000D02*
X230975000Y-97625000D01*
X230975000Y-97625000D02*
X230975000Y-78575000D01*
X230975000Y-78575000D02*
X211925000Y-78575000D01*
X211925000Y-78575000D02*
X211925000Y-97625000D01*
D10*
X213830000Y-63430000D02*
X213830000Y-61430000D01*
X227070000Y-76670000D02*
X229070000Y-76670000D01*
X229070000Y-63430000D02*
X229070000Y-61430000D01*
X227070000Y-61430000D02*
X229070000Y-61430000D01*
X213830000Y-76670000D02*
X215830000Y-76670000D01*
X229070000Y-76670000D02*
X229070000Y-74670000D01*
X213830000Y-61430000D02*
X215830000Y-61430000D01*
X213830000Y-74670000D02*
X213830000Y-76670000D01*
D11*
X211925000Y-78575000D02*
X230975000Y-78575000D01*
X230975000Y-78575000D02*
X230975000Y-59525000D01*
X230975000Y-59525000D02*
X211925000Y-59525000D01*
X211925000Y-59525000D02*
X211925000Y-78575000D01*
D10*
X194780000Y-120580000D02*
X194780000Y-118580000D01*
X208020000Y-133820000D02*
X210020000Y-133820000D01*
X210020000Y-120580000D02*
X210020000Y-118580000D01*
X208020000Y-118580000D02*
X210020000Y-118580000D01*
X194780000Y-133820000D02*
X196780000Y-133820000D01*
X210020000Y-133820000D02*
X210020000Y-131820000D01*
X194780000Y-118580000D02*
X196780000Y-118580000D01*
X194780000Y-131820000D02*
X194780000Y-133820000D01*
D11*
X192875000Y-135725000D02*
X211925000Y-135725000D01*
X211925000Y-135725000D02*
X211925000Y-116675000D01*
X211925000Y-116675000D02*
X192875000Y-116675000D01*
X192875000Y-116675000D02*
X192875000Y-135725000D01*
D10*
X194780000Y-101530000D02*
X194780000Y-99530000D01*
X208020000Y-114770000D02*
X210020000Y-114770000D01*
X210020000Y-101530000D02*
X210020000Y-99530000D01*
X208020000Y-99530000D02*
X210020000Y-99530000D01*
X194780000Y-114770000D02*
X196780000Y-114770000D01*
X210020000Y-114770000D02*
X210020000Y-112770000D01*
X194780000Y-99530000D02*
X196780000Y-99530000D01*
X194780000Y-112770000D02*
X194780000Y-114770000D01*
D11*
X192875000Y-116675000D02*
X211925000Y-116675000D01*
X211925000Y-116675000D02*
X211925000Y-97625000D01*
X211925000Y-97625000D02*
X192875000Y-97625000D01*
X192875000Y-97625000D02*
X192875000Y-116675000D01*
D10*
X194780000Y-82480000D02*
X194780000Y-80480000D01*
X208020000Y-95720000D02*
X210020000Y-95720000D01*
X210020000Y-82480000D02*
X210020000Y-80480000D01*
X208020000Y-80480000D02*
X210020000Y-80480000D01*
X194780000Y-95720000D02*
X196780000Y-95720000D01*
X210020000Y-95720000D02*
X210020000Y-93720000D01*
X194780000Y-80480000D02*
X196780000Y-80480000D01*
X194780000Y-93720000D02*
X194780000Y-95720000D01*
D11*
X192875000Y-97625000D02*
X211925000Y-97625000D01*
X211925000Y-97625000D02*
X211925000Y-78575000D01*
X211925000Y-78575000D02*
X192875000Y-78575000D01*
X192875000Y-78575000D02*
X192875000Y-97625000D01*
D10*
X194780000Y-63430000D02*
X194780000Y-61430000D01*
X208020000Y-76670000D02*
X210020000Y-76670000D01*
X210020000Y-63430000D02*
X210020000Y-61430000D01*
X208020000Y-61430000D02*
X210020000Y-61430000D01*
X194780000Y-76670000D02*
X196780000Y-76670000D01*
X210020000Y-76670000D02*
X210020000Y-74670000D01*
X194780000Y-61430000D02*
X196780000Y-61430000D01*
X194780000Y-74670000D02*
X194780000Y-76670000D01*
D11*
X192875000Y-78575000D02*
X211925000Y-78575000D01*
X211925000Y-78575000D02*
X211925000Y-59525000D01*
X211925000Y-59525000D02*
X192875000Y-59525000D01*
X192875000Y-59525000D02*
X192875000Y-78575000D01*
D10*
X175730000Y-120580000D02*
X175730000Y-118580000D01*
X188970000Y-133820000D02*
X190970000Y-133820000D01*
X190970000Y-120580000D02*
X190970000Y-118580000D01*
X188970000Y-118580000D02*
X190970000Y-118580000D01*
X175730000Y-133820000D02*
X177730000Y-133820000D01*
X190970000Y-133820000D02*
X190970000Y-131820000D01*
X175730000Y-118580000D02*
X177730000Y-118580000D01*
X175730000Y-131820000D02*
X175730000Y-133820000D01*
D11*
X173825000Y-135725000D02*
X192875000Y-135725000D01*
X192875000Y-135725000D02*
X192875000Y-116675000D01*
X192875000Y-116675000D02*
X173825000Y-116675000D01*
X173825000Y-116675000D02*
X173825000Y-135725000D01*
D10*
X175730000Y-101530000D02*
X175730000Y-99530000D01*
X188970000Y-114770000D02*
X190970000Y-114770000D01*
X190970000Y-101530000D02*
X190970000Y-99530000D01*
X188970000Y-99530000D02*
X190970000Y-99530000D01*
X175730000Y-114770000D02*
X177730000Y-114770000D01*
X190970000Y-114770000D02*
X190970000Y-112770000D01*
X175730000Y-99530000D02*
X177730000Y-99530000D01*
X175730000Y-112770000D02*
X175730000Y-114770000D01*
D11*
X173825000Y-116675000D02*
X192875000Y-116675000D01*
X192875000Y-116675000D02*
X192875000Y-97625000D01*
X192875000Y-97625000D02*
X173825000Y-97625000D01*
X173825000Y-97625000D02*
X173825000Y-116675000D01*
D10*
X175730000Y-82480000D02*
X175730000Y-80480000D01*
X188970000Y-95720000D02*
X190970000Y-95720000D01*
X190970000Y-82480000D02*
X190970000Y-80480000D01*
X188970000Y-80480000D02*
X190970000Y-80480000D01*
X175730000Y-95720000D02*
X177730000Y-95720000D01*
X190970000Y-95720000D02*
X190970000Y-93720000D01*
X175730000Y-80480000D02*
X177730000Y-80480000D01*
X175730000Y-93720000D02*
X175730000Y-95720000D01*
D11*
X173825000Y-97625000D02*
X192875000Y-97625000D01*
X192875000Y-97625000D02*
X192875000Y-78575000D01*
X192875000Y-78575000D02*
X173825000Y-78575000D01*
X173825000Y-78575000D02*
X173825000Y-97625000D01*
D10*
X175730000Y-63430000D02*
X175730000Y-61430000D01*
X188970000Y-76670000D02*
X190970000Y-76670000D01*
X190970000Y-63430000D02*
X190970000Y-61430000D01*
X188970000Y-61430000D02*
X190970000Y-61430000D01*
X175730000Y-76670000D02*
X177730000Y-76670000D01*
X190970000Y-76670000D02*
X190970000Y-74670000D01*
X175730000Y-61430000D02*
X177730000Y-61430000D01*
X175730000Y-74670000D02*
X175730000Y-76670000D01*
D11*
X173825000Y-78575000D02*
X192875000Y-78575000D01*
X192875000Y-78575000D02*
X192875000Y-59525000D01*
X192875000Y-59525000D02*
X173825000Y-59525000D01*
X173825000Y-59525000D02*
X173825000Y-78575000D01*
D10*
X156680000Y-120580000D02*
X156680000Y-118580000D01*
X169920000Y-133820000D02*
X171920000Y-133820000D01*
X171920000Y-120580000D02*
X171920000Y-118580000D01*
X169920000Y-118580000D02*
X171920000Y-118580000D01*
X156680000Y-133820000D02*
X158680000Y-133820000D01*
X171920000Y-133820000D02*
X171920000Y-131820000D01*
X156680000Y-118580000D02*
X158680000Y-118580000D01*
X156680000Y-131820000D02*
X156680000Y-133820000D01*
D11*
X154775000Y-135725000D02*
X173825000Y-135725000D01*
X173825000Y-135725000D02*
X173825000Y-116675000D01*
X173825000Y-116675000D02*
X154775000Y-116675000D01*
X154775000Y-116675000D02*
X154775000Y-135725000D01*
D10*
X156680000Y-101530000D02*
X156680000Y-99530000D01*
X169920000Y-114770000D02*
X171920000Y-114770000D01*
X171920000Y-101530000D02*
X171920000Y-99530000D01*
X169920000Y-99530000D02*
X171920000Y-99530000D01*
X156680000Y-114770000D02*
X158680000Y-114770000D01*
X171920000Y-114770000D02*
X171920000Y-112770000D01*
X156680000Y-99530000D02*
X158680000Y-99530000D01*
X156680000Y-112770000D02*
X156680000Y-114770000D01*
D11*
X154775000Y-116675000D02*
X173825000Y-116675000D01*
X173825000Y-116675000D02*
X173825000Y-97625000D01*
X173825000Y-97625000D02*
X154775000Y-97625000D01*
X154775000Y-97625000D02*
X154775000Y-116675000D01*
D10*
X156680000Y-82480000D02*
X156680000Y-80480000D01*
X169920000Y-95720000D02*
X171920000Y-95720000D01*
X171920000Y-82480000D02*
X171920000Y-80480000D01*
X169920000Y-80480000D02*
X171920000Y-80480000D01*
X156680000Y-95720000D02*
X158680000Y-95720000D01*
X171920000Y-95720000D02*
X171920000Y-93720000D01*
X156680000Y-80480000D02*
X158680000Y-80480000D01*
X156680000Y-93720000D02*
X156680000Y-95720000D01*
D11*
X154775000Y-97625000D02*
X173825000Y-97625000D01*
X173825000Y-97625000D02*
X173825000Y-78575000D01*
X173825000Y-78575000D02*
X154775000Y-78575000D01*
X154775000Y-78575000D02*
X154775000Y-97625000D01*
D10*
X156680000Y-63430000D02*
X156680000Y-61430000D01*
X169920000Y-76670000D02*
X171920000Y-76670000D01*
X171920000Y-63430000D02*
X171920000Y-61430000D01*
X169920000Y-61430000D02*
X171920000Y-61430000D01*
X156680000Y-76670000D02*
X158680000Y-76670000D01*
X171920000Y-76670000D02*
X171920000Y-74670000D01*
X156680000Y-61430000D02*
X158680000Y-61430000D01*
X156680000Y-74670000D02*
X156680000Y-76670000D01*
D11*
X154775000Y-78575000D02*
X173825000Y-78575000D01*
X173825000Y-78575000D02*
X173825000Y-59525000D01*
X173825000Y-59525000D02*
X154775000Y-59525000D01*
X154775000Y-59525000D02*
X154775000Y-78575000D01*
D10*
X137630000Y-101530000D02*
X137630000Y-99530000D01*
X150870000Y-114770000D02*
X152870000Y-114770000D01*
X152870000Y-101530000D02*
X152870000Y-99530000D01*
X150870000Y-99530000D02*
X152870000Y-99530000D01*
X137630000Y-114770000D02*
X139630000Y-114770000D01*
X152870000Y-114770000D02*
X152870000Y-112770000D01*
X137630000Y-99530000D02*
X139630000Y-99530000D01*
X137630000Y-112770000D02*
X137630000Y-114770000D01*
D11*
X135725000Y-116675000D02*
X154775000Y-116675000D01*
X154775000Y-116675000D02*
X154775000Y-97625000D01*
X154775000Y-97625000D02*
X135725000Y-97625000D01*
X135725000Y-97625000D02*
X135725000Y-116675000D01*
D10*
X137630000Y-82480000D02*
X137630000Y-80480000D01*
X150870000Y-95720000D02*
X152870000Y-95720000D01*
X152870000Y-82480000D02*
X152870000Y-80480000D01*
X150870000Y-80480000D02*
X152870000Y-80480000D01*
X137630000Y-95720000D02*
X139630000Y-95720000D01*
X152870000Y-95720000D02*
X152870000Y-93720000D01*
X137630000Y-80480000D02*
X139630000Y-80480000D01*
X137630000Y-93720000D02*
X137630000Y-95720000D01*
D11*
X135725000Y-97625000D02*
X154775000Y-97625000D01*
X154775000Y-97625000D02*
X154775000Y-78575000D01*
X154775000Y-78575000D02*
X135725000Y-78575000D01*
X135725000Y-78575000D02*
X135725000Y-97625000D01*
D10*
X137630000Y-63430000D02*
X137630000Y-61430000D01*
X150870000Y-76670000D02*
X152870000Y-76670000D01*
X152870000Y-63430000D02*
X152870000Y-61430000D01*
X150870000Y-61430000D02*
X152870000Y-61430000D01*
X137630000Y-76670000D02*
X139630000Y-76670000D01*
X152870000Y-76670000D02*
X152870000Y-74670000D01*
X137630000Y-61430000D02*
X139630000Y-61430000D01*
X137630000Y-74670000D02*
X137630000Y-76670000D01*
D11*
X135725000Y-78575000D02*
X154775000Y-78575000D01*
X154775000Y-78575000D02*
X154775000Y-59525000D01*
X154775000Y-59525000D02*
X135725000Y-59525000D01*
X135725000Y-59525000D02*
X135725000Y-78575000D01*
D10*
X152870000Y-55620000D02*
X152870000Y-57620000D01*
X139630000Y-42380000D02*
X137630000Y-42380000D01*
X137630000Y-55620000D02*
X137630000Y-57620000D01*
X139630000Y-57620000D02*
X137630000Y-57620000D01*
X152870000Y-42380000D02*
X150870000Y-42380000D01*
X137630000Y-42380000D02*
X137630000Y-44380000D01*
X152870000Y-57620000D02*
X150870000Y-57620000D01*
X152870000Y-44380000D02*
X152870000Y-42380000D01*
D11*
X154775000Y-40475000D02*
X135725000Y-40475000D01*
X135725000Y-40475000D02*
X135725000Y-59525000D01*
X135725000Y-59525000D02*
X154775000Y-59525000D01*
X154775000Y-59525000D02*
X154775000Y-40475000D01*
D10*
X118580000Y-120580000D02*
X118580000Y-118580000D01*
X131820000Y-133820000D02*
X133820000Y-133820000D01*
X133820000Y-120580000D02*
X133820000Y-118580000D01*
X131820000Y-118580000D02*
X133820000Y-118580000D01*
X118580000Y-133820000D02*
X120580000Y-133820000D01*
X133820000Y-133820000D02*
X133820000Y-131820000D01*
X118580000Y-118580000D02*
X120580000Y-118580000D01*
X118580000Y-131820000D02*
X118580000Y-133820000D01*
D11*
X116675000Y-135725000D02*
X135725000Y-135725000D01*
X135725000Y-135725000D02*
X135725000Y-116675000D01*
X135725000Y-116675000D02*
X116675000Y-116675000D01*
X116675000Y-116675000D02*
X116675000Y-135725000D01*
D10*
X118580000Y-101530000D02*
X118580000Y-99530000D01*
X131820000Y-114770000D02*
X133820000Y-114770000D01*
X133820000Y-101530000D02*
X133820000Y-99530000D01*
X131820000Y-99530000D02*
X133820000Y-99530000D01*
X118580000Y-114770000D02*
X120580000Y-114770000D01*
X133820000Y-114770000D02*
X133820000Y-112770000D01*
X118580000Y-99530000D02*
X120580000Y-99530000D01*
X118580000Y-112770000D02*
X118580000Y-114770000D01*
D11*
X116675000Y-116675000D02*
X135725000Y-116675000D01*
X135725000Y-116675000D02*
X135725000Y-97625000D01*
X135725000Y-97625000D02*
X116675000Y-97625000D01*
X116675000Y-97625000D02*
X116675000Y-116675000D01*
D10*
X118580000Y-82480000D02*
X118580000Y-80480000D01*
X131820000Y-95720000D02*
X133820000Y-95720000D01*
X133820000Y-82480000D02*
X133820000Y-80480000D01*
X131820000Y-80480000D02*
X133820000Y-80480000D01*
X118580000Y-95720000D02*
X120580000Y-95720000D01*
X133820000Y-95720000D02*
X133820000Y-93720000D01*
X118580000Y-80480000D02*
X120580000Y-80480000D01*
X118580000Y-93720000D02*
X118580000Y-95720000D01*
D11*
X116675000Y-97625000D02*
X135725000Y-97625000D01*
X135725000Y-97625000D02*
X135725000Y-78575000D01*
X135725000Y-78575000D02*
X116675000Y-78575000D01*
X116675000Y-78575000D02*
X116675000Y-97625000D01*
D10*
X118580000Y-63430000D02*
X118580000Y-61430000D01*
X131820000Y-76670000D02*
X133820000Y-76670000D01*
X133820000Y-63430000D02*
X133820000Y-61430000D01*
X131820000Y-61430000D02*
X133820000Y-61430000D01*
X118580000Y-76670000D02*
X120580000Y-76670000D01*
X133820000Y-76670000D02*
X133820000Y-74670000D01*
X118580000Y-61430000D02*
X120580000Y-61430000D01*
X118580000Y-74670000D02*
X118580000Y-76670000D01*
D11*
X116675000Y-78575000D02*
X135725000Y-78575000D01*
X135725000Y-78575000D02*
X135725000Y-59525000D01*
X135725000Y-59525000D02*
X116675000Y-59525000D01*
X116675000Y-59525000D02*
X116675000Y-78575000D01*
D10*
X133820000Y-55620000D02*
X133820000Y-57620000D01*
X120580000Y-42380000D02*
X118580000Y-42380000D01*
X118580000Y-55620000D02*
X118580000Y-57620000D01*
X120580000Y-57620000D02*
X118580000Y-57620000D01*
X133820000Y-42380000D02*
X131820000Y-42380000D01*
X118580000Y-42380000D02*
X118580000Y-44380000D01*
X133820000Y-57620000D02*
X131820000Y-57620000D01*
X133820000Y-44380000D02*
X133820000Y-42380000D01*
D11*
X135725000Y-40475000D02*
X116675000Y-40475000D01*
X116675000Y-40475000D02*
X116675000Y-59525000D01*
X116675000Y-59525000D02*
X135725000Y-59525000D01*
X135725000Y-59525000D02*
X135725000Y-40475000D01*
D10*
X99530000Y-120580000D02*
X99530000Y-118580000D01*
X112770000Y-133820000D02*
X114770000Y-133820000D01*
X114770000Y-120580000D02*
X114770000Y-118580000D01*
X112770000Y-118580000D02*
X114770000Y-118580000D01*
X99530000Y-133820000D02*
X101530000Y-133820000D01*
X114770000Y-133820000D02*
X114770000Y-131820000D01*
X99530000Y-118580000D02*
X101530000Y-118580000D01*
X99530000Y-131820000D02*
X99530000Y-133820000D01*
D11*
X97625000Y-135725000D02*
X116675000Y-135725000D01*
X116675000Y-135725000D02*
X116675000Y-116675000D01*
X116675000Y-116675000D02*
X97625000Y-116675000D01*
X97625000Y-116675000D02*
X97625000Y-135725000D01*
D10*
X99530000Y-101530000D02*
X99530000Y-99530000D01*
X112770000Y-114770000D02*
X114770000Y-114770000D01*
X114770000Y-101530000D02*
X114770000Y-99530000D01*
X112770000Y-99530000D02*
X114770000Y-99530000D01*
X99530000Y-114770000D02*
X101530000Y-114770000D01*
X114770000Y-114770000D02*
X114770000Y-112770000D01*
X99530000Y-99530000D02*
X101530000Y-99530000D01*
X99530000Y-112770000D02*
X99530000Y-114770000D01*
D11*
X97625000Y-116675000D02*
X116675000Y-116675000D01*
X116675000Y-116675000D02*
X116675000Y-97625000D01*
X116675000Y-97625000D02*
X97625000Y-97625000D01*
X97625000Y-97625000D02*
X97625000Y-116675000D01*
D10*
X99530000Y-82480000D02*
X99530000Y-80480000D01*
X112770000Y-95720000D02*
X114770000Y-95720000D01*
X114770000Y-82480000D02*
X114770000Y-80480000D01*
X112770000Y-80480000D02*
X114770000Y-80480000D01*
X99530000Y-95720000D02*
X101530000Y-95720000D01*
X114770000Y-95720000D02*
X114770000Y-93720000D01*
X99530000Y-80480000D02*
X101530000Y-80480000D01*
X99530000Y-93720000D02*
X99530000Y-95720000D01*
D11*
X97625000Y-97625000D02*
X116675000Y-97625000D01*
X116675000Y-97625000D02*
X116675000Y-78575000D01*
X116675000Y-78575000D02*
X97625000Y-78575000D01*
X97625000Y-78575000D02*
X97625000Y-97625000D01*
D10*
X99530000Y-63430000D02*
X99530000Y-61430000D01*
X112770000Y-76670000D02*
X114770000Y-76670000D01*
X114770000Y-63430000D02*
X114770000Y-61430000D01*
X112770000Y-61430000D02*
X114770000Y-61430000D01*
X99530000Y-76670000D02*
X101530000Y-76670000D01*
X114770000Y-76670000D02*
X114770000Y-74670000D01*
X99530000Y-61430000D02*
X101530000Y-61430000D01*
X99530000Y-74670000D02*
X99530000Y-76670000D01*
D11*
X97625000Y-78575000D02*
X116675000Y-78575000D01*
X116675000Y-78575000D02*
X116675000Y-59525000D01*
X116675000Y-59525000D02*
X97625000Y-59525000D01*
X97625000Y-59525000D02*
X97625000Y-78575000D01*
D10*
X99530000Y-44380000D02*
X99530000Y-42380000D01*
X112770000Y-57620000D02*
X114770000Y-57620000D01*
X114770000Y-44380000D02*
X114770000Y-42380000D01*
X112770000Y-42380000D02*
X114770000Y-42380000D01*
X99530000Y-57620000D02*
X101530000Y-57620000D01*
X114770000Y-57620000D02*
X114770000Y-55620000D01*
X99530000Y-42380000D02*
X101530000Y-42380000D01*
X99530000Y-55620000D02*
X99530000Y-57620000D01*
D11*
X97625000Y-59525000D02*
X116675000Y-59525000D01*
X116675000Y-59525000D02*
X116675000Y-40475000D01*
X116675000Y-40475000D02*
X97625000Y-40475000D01*
X97625000Y-40475000D02*
X97625000Y-59525000D01*
D10*
X80480000Y-120580000D02*
X80480000Y-118580000D01*
X93720000Y-133820000D02*
X95720000Y-133820000D01*
X95720000Y-120580000D02*
X95720000Y-118580000D01*
X93720000Y-118580000D02*
X95720000Y-118580000D01*
X80480000Y-133820000D02*
X82480000Y-133820000D01*
X95720000Y-133820000D02*
X95720000Y-131820000D01*
X80480000Y-118580000D02*
X82480000Y-118580000D01*
X80480000Y-131820000D02*
X80480000Y-133820000D01*
D11*
X78575000Y-135725000D02*
X97625000Y-135725000D01*
X97625000Y-135725000D02*
X97625000Y-116675000D01*
X97625000Y-116675000D02*
X78575000Y-116675000D01*
X78575000Y-116675000D02*
X78575000Y-135725000D01*
D10*
X80480000Y-101530000D02*
X80480000Y-99530000D01*
X93720000Y-114770000D02*
X95720000Y-114770000D01*
X95720000Y-101530000D02*
X95720000Y-99530000D01*
X93720000Y-99530000D02*
X95720000Y-99530000D01*
X80480000Y-114770000D02*
X82480000Y-114770000D01*
X95720000Y-114770000D02*
X95720000Y-112770000D01*
X80480000Y-99530000D02*
X82480000Y-99530000D01*
X80480000Y-112770000D02*
X80480000Y-114770000D01*
D11*
X78575000Y-116675000D02*
X97625000Y-116675000D01*
X97625000Y-116675000D02*
X97625000Y-97625000D01*
X97625000Y-97625000D02*
X78575000Y-97625000D01*
X78575000Y-97625000D02*
X78575000Y-116675000D01*
D10*
X80480000Y-82480000D02*
X80480000Y-80480000D01*
X93720000Y-95720000D02*
X95720000Y-95720000D01*
X95720000Y-82480000D02*
X95720000Y-80480000D01*
X93720000Y-80480000D02*
X95720000Y-80480000D01*
X80480000Y-95720000D02*
X82480000Y-95720000D01*
X95720000Y-95720000D02*
X95720000Y-93720000D01*
X80480000Y-80480000D02*
X82480000Y-80480000D01*
X80480000Y-93720000D02*
X80480000Y-95720000D01*
D11*
X78575000Y-97625000D02*
X97625000Y-97625000D01*
X97625000Y-97625000D02*
X97625000Y-78575000D01*
X97625000Y-78575000D02*
X78575000Y-78575000D01*
X78575000Y-78575000D02*
X78575000Y-97625000D01*
D10*
X80480000Y-63430000D02*
X80480000Y-61430000D01*
X93720000Y-76670000D02*
X95720000Y-76670000D01*
X95720000Y-63430000D02*
X95720000Y-61430000D01*
X93720000Y-61430000D02*
X95720000Y-61430000D01*
X80480000Y-76670000D02*
X82480000Y-76670000D01*
X95720000Y-76670000D02*
X95720000Y-74670000D01*
X80480000Y-61430000D02*
X82480000Y-61430000D01*
X80480000Y-74670000D02*
X80480000Y-76670000D01*
D11*
X78575000Y-78575000D02*
X97625000Y-78575000D01*
X97625000Y-78575000D02*
X97625000Y-59525000D01*
X97625000Y-59525000D02*
X78575000Y-59525000D01*
X78575000Y-59525000D02*
X78575000Y-78575000D01*
D10*
X80480000Y-44380000D02*
X80480000Y-42380000D01*
X93720000Y-57620000D02*
X95720000Y-57620000D01*
X95720000Y-44380000D02*
X95720000Y-42380000D01*
X93720000Y-42380000D02*
X95720000Y-42380000D01*
X80480000Y-57620000D02*
X82480000Y-57620000D01*
X95720000Y-57620000D02*
X95720000Y-55620000D01*
X80480000Y-42380000D02*
X82480000Y-42380000D01*
X80480000Y-55620000D02*
X80480000Y-57620000D01*
D11*
X78575000Y-59525000D02*
X97625000Y-59525000D01*
X97625000Y-59525000D02*
X97625000Y-40475000D01*
X97625000Y-40475000D02*
X78575000Y-40475000D01*
X78575000Y-40475000D02*
X78575000Y-59525000D01*
D10*
X61430000Y-120580000D02*
X61430000Y-118580000D01*
X74670000Y-133820000D02*
X76670000Y-133820000D01*
X76670000Y-120580000D02*
X76670000Y-118580000D01*
X74670000Y-118580000D02*
X76670000Y-118580000D01*
X61430000Y-133820000D02*
X63430000Y-133820000D01*
X76670000Y-133820000D02*
X76670000Y-131820000D01*
X61430000Y-118580000D02*
X63430000Y-118580000D01*
X61430000Y-131820000D02*
X61430000Y-133820000D01*
D11*
X59525000Y-135725000D02*
X78575000Y-135725000D01*
X78575000Y-135725000D02*
X78575000Y-116675000D01*
X78575000Y-116675000D02*
X59525000Y-116675000D01*
X59525000Y-116675000D02*
X59525000Y-135725000D01*
D10*
X61430000Y-101530000D02*
X61430000Y-99530000D01*
X74670000Y-114770000D02*
X76670000Y-114770000D01*
X76670000Y-101530000D02*
X76670000Y-99530000D01*
X74670000Y-99530000D02*
X76670000Y-99530000D01*
X61430000Y-114770000D02*
X63430000Y-114770000D01*
X76670000Y-114770000D02*
X76670000Y-112770000D01*
X61430000Y-99530000D02*
X63430000Y-99530000D01*
X61430000Y-112770000D02*
X61430000Y-114770000D01*
D11*
X59525000Y-116675000D02*
X78575000Y-116675000D01*
X78575000Y-116675000D02*
X78575000Y-97625000D01*
X78575000Y-97625000D02*
X59525000Y-97625000D01*
X59525000Y-97625000D02*
X59525000Y-116675000D01*
D10*
X61430000Y-63430000D02*
X61430000Y-61430000D01*
X74670000Y-76670000D02*
X76670000Y-76670000D01*
X76670000Y-63430000D02*
X76670000Y-61430000D01*
X74670000Y-61430000D02*
X76670000Y-61430000D01*
X61430000Y-76670000D02*
X63430000Y-76670000D01*
X76670000Y-76670000D02*
X76670000Y-74670000D01*
X61430000Y-61430000D02*
X63430000Y-61430000D01*
X61430000Y-74670000D02*
X61430000Y-76670000D01*
D11*
X59525000Y-78575000D02*
X78575000Y-78575000D01*
X78575000Y-78575000D02*
X78575000Y-59525000D01*
X78575000Y-59525000D02*
X59525000Y-59525000D01*
X59525000Y-59525000D02*
X59525000Y-78575000D01*
D10*
X42380000Y-120580000D02*
X42380000Y-118580000D01*
X55620000Y-133820000D02*
X57620000Y-133820000D01*
X57620000Y-120580000D02*
X57620000Y-118580000D01*
X55620000Y-118580000D02*
X57620000Y-118580000D01*
X42380000Y-133820000D02*
X44380000Y-133820000D01*
X57620000Y-133820000D02*
X57620000Y-131820000D01*
X42380000Y-118580000D02*
X44380000Y-118580000D01*
X42380000Y-131820000D02*
X42380000Y-133820000D01*
D11*
X40475000Y-135725000D02*
X59525000Y-135725000D01*
X59525000Y-135725000D02*
X59525000Y-116675000D01*
X59525000Y-116675000D02*
X40475000Y-116675000D01*
X40475000Y-116675000D02*
X40475000Y-135725000D01*
D10*
X42380000Y-101530000D02*
X42380000Y-99530000D01*
X55620000Y-114770000D02*
X57620000Y-114770000D01*
X57620000Y-101530000D02*
X57620000Y-99530000D01*
X55620000Y-99530000D02*
X57620000Y-99530000D01*
X42380000Y-114770000D02*
X44380000Y-114770000D01*
X57620000Y-114770000D02*
X57620000Y-112770000D01*
X42380000Y-99530000D02*
X44380000Y-99530000D01*
X42380000Y-112770000D02*
X42380000Y-114770000D01*
D11*
X40475000Y-116675000D02*
X59525000Y-116675000D01*
X59525000Y-116675000D02*
X59525000Y-97625000D01*
X59525000Y-97625000D02*
X40475000Y-97625000D01*
X40475000Y-97625000D02*
X40475000Y-116675000D01*
D10*
X42380000Y-82480000D02*
X42380000Y-80480000D01*
X55620000Y-95720000D02*
X57620000Y-95720000D01*
X57620000Y-82480000D02*
X57620000Y-80480000D01*
X55620000Y-80480000D02*
X57620000Y-80480000D01*
X42380000Y-95720000D02*
X44380000Y-95720000D01*
X57620000Y-95720000D02*
X57620000Y-93720000D01*
X42380000Y-80480000D02*
X44380000Y-80480000D01*
X42380000Y-93720000D02*
X42380000Y-95720000D01*
D11*
X40475000Y-97625000D02*
X59525000Y-97625000D01*
X59525000Y-97625000D02*
X59525000Y-78575000D01*
X59525000Y-78575000D02*
X40475000Y-78575000D01*
X40475000Y-78575000D02*
X40475000Y-97625000D01*
D10*
X42380000Y-63430000D02*
X42380000Y-61430000D01*
X55620000Y-76670000D02*
X57620000Y-76670000D01*
X57620000Y-63430000D02*
X57620000Y-61430000D01*
X55620000Y-61430000D02*
X57620000Y-61430000D01*
X42380000Y-76670000D02*
X44380000Y-76670000D01*
X57620000Y-76670000D02*
X57620000Y-74670000D01*
X42380000Y-61430000D02*
X44380000Y-61430000D01*
X42380000Y-74670000D02*
X42380000Y-76670000D01*
D11*
X40475000Y-78575000D02*
X59525000Y-78575000D01*
X59525000Y-78575000D02*
X59525000Y-59525000D01*
X59525000Y-59525000D02*
X40475000Y-59525000D01*
X40475000Y-59525000D02*
X40475000Y-78575000D01*
X146520000Y-124930000D02*
X143980000Y-124930000D01*
X143980000Y-124930000D02*
X143980000Y-127470000D01*
X143980000Y-127470000D02*
X146520000Y-127470000D01*
X146520000Y-127470000D02*
X146520000Y-124930000D01*
X148842102Y-126200000D02*
G75*
G03*
X148842102Y-126200000I-3592102J0D01*
G01*
X150330000Y-121120000D02*
X140170000Y-121120000D01*
X140170000Y-121120000D02*
X140170000Y-131280000D01*
X140170000Y-131280000D02*
X150330000Y-131280000D01*
X150330000Y-131280000D02*
X150330000Y-121120000D01*
X154775000Y-116675000D02*
X154775000Y-135725000D01*
X154775000Y-135725000D02*
X135725000Y-135725000D01*
X135725000Y-135725000D02*
X135725000Y-116675000D01*
X135725000Y-116675000D02*
X154775000Y-116675000D01*
D10*
X149650000Y-54850000D02*
X149650000Y-57390000D01*
X152190000Y-54850000D02*
X149650000Y-54850000D01*
D12*
G36*
X145900970Y-42455365D02*
G01*
X145800970Y-42455365D01*
X145800970Y-42355365D01*
X145900970Y-42355365D01*
X145900970Y-42455365D01*
G37*
X145900970Y-42455365D02*
X145800970Y-42455365D01*
X145800970Y-42355365D01*
X145900970Y-42355365D01*
X145900970Y-42455365D01*
G36*
X146300970Y-42255365D02*
G01*
X145500970Y-42255365D01*
X145500970Y-42155365D01*
X146300970Y-42155365D01*
X146300970Y-42255365D01*
G37*
X146300970Y-42255365D02*
X145500970Y-42255365D01*
X145500970Y-42155365D01*
X146300970Y-42155365D01*
X146300970Y-42255365D01*
G36*
X145700970Y-42655365D02*
G01*
X145500970Y-42655365D01*
X145500970Y-42555365D01*
X145700970Y-42555365D01*
X145700970Y-42655365D01*
G37*
X145700970Y-42655365D02*
X145500970Y-42655365D01*
X145500970Y-42555365D01*
X145700970Y-42555365D01*
X145700970Y-42655365D01*
G36*
X146300970Y-42655365D02*
G01*
X146000970Y-42655365D01*
X146000970Y-42555365D01*
X146300970Y-42555365D01*
X146300970Y-42655365D01*
G37*
X146300970Y-42655365D02*
X146000970Y-42655365D01*
X146000970Y-42555365D01*
X146300970Y-42555365D01*
X146300970Y-42655365D01*
G36*
X146300970Y-42655365D02*
G01*
X146200970Y-42655365D01*
X146200970Y-42155365D01*
X146300970Y-42155365D01*
X146300970Y-42655365D01*
G37*
X146300970Y-42655365D02*
X146200970Y-42655365D01*
X146200970Y-42155365D01*
X146300970Y-42155365D01*
X146300970Y-42655365D01*
D10*
X121710000Y-39610000D02*
X154730000Y-39610000D01*
X121710000Y-57390000D02*
X121710000Y-39610000D01*
X154730000Y-57390000D02*
X121710000Y-57390000D01*
X154730000Y-39610000D02*
X154730000Y-57390000D01*
X152190000Y-54850000D02*
X152190000Y-57390000D01*
D12*
X146183809Y-43993333D02*
X146221904Y-43879047D01*
X146221904Y-43688571D01*
X146183809Y-43612380D01*
X146145714Y-43574285D01*
X146069523Y-43536190D01*
X145993333Y-43536190D01*
X145917142Y-43574285D01*
X145879047Y-43612380D01*
X145840952Y-43688571D01*
X145802857Y-43840952D01*
X145764761Y-43917142D01*
X145726666Y-43955238D01*
X145650476Y-43993333D01*
X145574285Y-43993333D01*
X145498095Y-43955238D01*
X145460000Y-43917142D01*
X145421904Y-43840952D01*
X145421904Y-43650476D01*
X145460000Y-43536190D01*
X145421904Y-43307619D02*
X145421904Y-42850476D01*
X146221904Y-43079047D02*
X145421904Y-43079047D01*
X150481904Y-54262348D02*
X150481904Y-53805205D01*
X151281904Y-54033776D02*
X150481904Y-54033776D01*
X150481904Y-53614729D02*
X151281904Y-53081395D01*
X150481904Y-53081395D02*
X151281904Y-53614729D01*
X150481904Y-52624252D02*
X150481904Y-52548062D01*
X150520000Y-52471872D01*
X150558095Y-52433776D01*
X150634285Y-52395681D01*
X150786666Y-52357586D01*
X150977142Y-52357586D01*
X151129523Y-52395681D01*
X151205714Y-52433776D01*
X151243809Y-52471872D01*
X151281904Y-52548062D01*
X151281904Y-52624252D01*
X151243809Y-52700443D01*
X151205714Y-52738538D01*
X151129523Y-52776633D01*
X150977142Y-52814729D01*
X150786666Y-52814729D01*
X150634285Y-52776633D01*
X150558095Y-52738538D01*
X150520000Y-52700443D01*
X150481904Y-52624252D01*
X150443809Y-51443300D02*
X151472380Y-52129014D01*
X151281904Y-51176633D02*
X150481904Y-51176633D01*
X150481904Y-50986157D01*
X150520000Y-50871872D01*
X150596190Y-50795681D01*
X150672380Y-50757586D01*
X150824761Y-50719491D01*
X150939047Y-50719491D01*
X151091428Y-50757586D01*
X151167619Y-50795681D01*
X151243809Y-50871872D01*
X151281904Y-50986157D01*
X151281904Y-51176633D01*
X150481904Y-50452824D02*
X150481904Y-49957586D01*
X150786666Y-50224252D01*
X150786666Y-50109967D01*
X150824761Y-50033776D01*
X150862857Y-49995681D01*
X150939047Y-49957586D01*
X151129523Y-49957586D01*
X151205714Y-49995681D01*
X151243809Y-50033776D01*
X151281904Y-50109967D01*
X151281904Y-50338538D01*
X151243809Y-50414729D01*
X151205714Y-50452824D01*
X125462857Y-43362809D02*
X125500952Y-43248523D01*
X125539047Y-43210428D01*
X125615238Y-43172333D01*
X125729523Y-43172333D01*
X125805714Y-43210428D01*
X125843809Y-43248523D01*
X125881904Y-43324714D01*
X125881904Y-43629476D01*
X125081904Y-43629476D01*
X125081904Y-43362809D01*
X125120000Y-43286619D01*
X125158095Y-43248523D01*
X125234285Y-43210428D01*
X125310476Y-43210428D01*
X125386666Y-43248523D01*
X125424761Y-43286619D01*
X125462857Y-43362809D01*
X125462857Y-43629476D01*
X125158095Y-42867571D02*
X125120000Y-42829476D01*
X125081904Y-42753285D01*
X125081904Y-42562809D01*
X125120000Y-42486619D01*
X125158095Y-42448523D01*
X125234285Y-42410428D01*
X125310476Y-42410428D01*
X125424761Y-42448523D01*
X125881904Y-42905666D01*
X125881904Y-42410428D01*
X133082857Y-43305666D02*
X133082857Y-43572333D01*
X133501904Y-43572333D02*
X132701904Y-43572333D01*
X132701904Y-43191380D01*
X132701904Y-42962809D02*
X132701904Y-42429476D01*
X133501904Y-42772333D01*
X135622857Y-43305666D02*
X135622857Y-43572333D01*
X136041904Y-43572333D02*
X135241904Y-43572333D01*
X135241904Y-43191380D01*
X135241904Y-42543761D02*
X135241904Y-42696142D01*
X135280000Y-42772333D01*
X135318095Y-42810428D01*
X135432380Y-42886619D01*
X135584761Y-42924714D01*
X135889523Y-42924714D01*
X135965714Y-42886619D01*
X136003809Y-42848523D01*
X136041904Y-42772333D01*
X136041904Y-42619952D01*
X136003809Y-42543761D01*
X135965714Y-42505666D01*
X135889523Y-42467571D01*
X135699047Y-42467571D01*
X135622857Y-42505666D01*
X135584761Y-42543761D01*
X135546666Y-42619952D01*
X135546666Y-42772333D01*
X135584761Y-42848523D01*
X135622857Y-42886619D01*
X135699047Y-42924714D01*
X138162857Y-43305666D02*
X138162857Y-43572333D01*
X138581904Y-43572333D02*
X137781904Y-43572333D01*
X137781904Y-43191380D01*
X137781904Y-42505666D02*
X137781904Y-42886619D01*
X138162857Y-42924714D01*
X138124761Y-42886619D01*
X138086666Y-42810428D01*
X138086666Y-42619952D01*
X138124761Y-42543761D01*
X138162857Y-42505666D01*
X138239047Y-42467571D01*
X138429523Y-42467571D01*
X138505714Y-42505666D01*
X138543809Y-42543761D01*
X138581904Y-42619952D01*
X138581904Y-42810428D01*
X138543809Y-42886619D01*
X138505714Y-42924714D01*
X151281904Y-43591380D02*
X150900952Y-43858047D01*
X151281904Y-44048523D02*
X150481904Y-44048523D01*
X150481904Y-43743761D01*
X150520000Y-43667571D01*
X150558095Y-43629476D01*
X150634285Y-43591380D01*
X150748571Y-43591380D01*
X150824761Y-43629476D01*
X150862857Y-43667571D01*
X150900952Y-43743761D01*
X150900952Y-44048523D01*
X151053333Y-43286619D02*
X151053333Y-42905666D01*
X151281904Y-43362809D02*
X150481904Y-43096142D01*
X151281904Y-42829476D01*
X150481904Y-42639000D02*
X151281904Y-42448523D01*
X150710476Y-42296142D01*
X151281904Y-42143761D01*
X150481904Y-41953285D01*
X147980000Y-43648523D02*
X147941904Y-43724714D01*
X147941904Y-43839000D01*
X147980000Y-43953285D01*
X148056190Y-44029476D01*
X148132380Y-44067571D01*
X148284761Y-44105666D01*
X148399047Y-44105666D01*
X148551428Y-44067571D01*
X148627619Y-44029476D01*
X148703809Y-43953285D01*
X148741904Y-43839000D01*
X148741904Y-43762809D01*
X148703809Y-43648523D01*
X148665714Y-43610428D01*
X148399047Y-43610428D01*
X148399047Y-43762809D01*
X148741904Y-43267571D02*
X147941904Y-43267571D01*
X148741904Y-42810428D01*
X147941904Y-42810428D01*
X148741904Y-42429476D02*
X147941904Y-42429476D01*
X147941904Y-42239000D01*
X147980000Y-42124714D01*
X148056190Y-42048523D01*
X148132380Y-42010428D01*
X148284761Y-41972333D01*
X148399047Y-41972333D01*
X148551428Y-42010428D01*
X148627619Y-42048523D01*
X148703809Y-42124714D01*
X148741904Y-42239000D01*
X148741904Y-42429476D01*
X142861904Y-44105666D02*
X143661904Y-43839000D01*
X142861904Y-43572333D01*
X143585714Y-42848523D02*
X143623809Y-42886619D01*
X143661904Y-43000904D01*
X143661904Y-43077095D01*
X143623809Y-43191380D01*
X143547619Y-43267571D01*
X143471428Y-43305666D01*
X143319047Y-43343761D01*
X143204761Y-43343761D01*
X143052380Y-43305666D01*
X142976190Y-43267571D01*
X142900000Y-43191380D01*
X142861904Y-43077095D01*
X142861904Y-43000904D01*
X142900000Y-42886619D01*
X142938095Y-42848523D01*
X143585714Y-42048523D02*
X143623809Y-42086619D01*
X143661904Y-42200904D01*
X143661904Y-42277095D01*
X143623809Y-42391380D01*
X143547619Y-42467571D01*
X143471428Y-42505666D01*
X143319047Y-42543761D01*
X143204761Y-42543761D01*
X143052380Y-42505666D01*
X142976190Y-42467571D01*
X142900000Y-42391380D01*
X142861904Y-42277095D01*
X142861904Y-42200904D01*
X142900000Y-42086619D01*
X142938095Y-42048523D01*
X140702857Y-43305666D02*
X140702857Y-43572333D01*
X141121904Y-43572333D02*
X140321904Y-43572333D01*
X140321904Y-43191380D01*
X140588571Y-42543761D02*
X141121904Y-42543761D01*
X140283809Y-42734238D02*
X140855238Y-42924714D01*
X140855238Y-42429476D01*
X130542857Y-43362809D02*
X130580952Y-43248523D01*
X130619047Y-43210428D01*
X130695238Y-43172333D01*
X130809523Y-43172333D01*
X130885714Y-43210428D01*
X130923809Y-43248523D01*
X130961904Y-43324714D01*
X130961904Y-43629476D01*
X130161904Y-43629476D01*
X130161904Y-43362809D01*
X130200000Y-43286619D01*
X130238095Y-43248523D01*
X130314285Y-43210428D01*
X130390476Y-43210428D01*
X130466666Y-43248523D01*
X130504761Y-43286619D01*
X130542857Y-43362809D01*
X130542857Y-43629476D01*
X130961904Y-42410428D02*
X130961904Y-42867571D01*
X130961904Y-42639000D02*
X130161904Y-42639000D01*
X130276190Y-42715190D01*
X130352380Y-42791380D01*
X130390476Y-42867571D01*
X128002857Y-43362809D02*
X128040952Y-43248523D01*
X128079047Y-43210428D01*
X128155238Y-43172333D01*
X128269523Y-43172333D01*
X128345714Y-43210428D01*
X128383809Y-43248523D01*
X128421904Y-43324714D01*
X128421904Y-43629476D01*
X127621904Y-43629476D01*
X127621904Y-43362809D01*
X127660000Y-43286619D01*
X127698095Y-43248523D01*
X127774285Y-43210428D01*
X127850476Y-43210428D01*
X127926666Y-43248523D01*
X127964761Y-43286619D01*
X128002857Y-43362809D01*
X128002857Y-43629476D01*
X127621904Y-42905666D02*
X127621904Y-42410428D01*
X127926666Y-42677095D01*
X127926666Y-42562809D01*
X127964761Y-42486619D01*
X128002857Y-42448523D01*
X128079047Y-42410428D01*
X128269523Y-42410428D01*
X128345714Y-42448523D01*
X128383809Y-42486619D01*
X128421904Y-42562809D01*
X128421904Y-42791380D01*
X128383809Y-42867571D01*
X128345714Y-42905666D01*
X122922857Y-43362809D02*
X122960952Y-43248523D01*
X122999047Y-43210428D01*
X123075238Y-43172333D01*
X123189523Y-43172333D01*
X123265714Y-43210428D01*
X123303809Y-43248523D01*
X123341904Y-43324714D01*
X123341904Y-43629476D01*
X122541904Y-43629476D01*
X122541904Y-43362809D01*
X122580000Y-43286619D01*
X122618095Y-43248523D01*
X122694285Y-43210428D01*
X122770476Y-43210428D01*
X122846666Y-43248523D01*
X122884761Y-43286619D01*
X122922857Y-43362809D01*
X122922857Y-43629476D01*
X122541904Y-42486619D02*
X122541904Y-42639000D01*
X122580000Y-42715190D01*
X122618095Y-42753285D01*
X122732380Y-42829476D01*
X122884761Y-42867571D01*
X123189523Y-42867571D01*
X123265714Y-42829476D01*
X123303809Y-42791380D01*
X123341904Y-42715190D01*
X123341904Y-42562809D01*
X123303809Y-42486619D01*
X123265714Y-42448523D01*
X123189523Y-42410428D01*
X122999047Y-42410428D01*
X122922857Y-42448523D01*
X122884761Y-42486619D01*
X122846666Y-42562809D01*
X122846666Y-42715190D01*
X122884761Y-42791380D01*
X122922857Y-42829476D01*
X122999047Y-42867571D01*
X122922857Y-54284809D02*
X122960952Y-54170523D01*
X122999047Y-54132428D01*
X123075238Y-54094333D01*
X123189523Y-54094333D01*
X123265714Y-54132428D01*
X123303809Y-54170523D01*
X123341904Y-54246714D01*
X123341904Y-54551476D01*
X122541904Y-54551476D01*
X122541904Y-54284809D01*
X122580000Y-54208619D01*
X122618095Y-54170523D01*
X122694285Y-54132428D01*
X122770476Y-54132428D01*
X122846666Y-54170523D01*
X122884761Y-54208619D01*
X122922857Y-54284809D01*
X122922857Y-54551476D01*
X122541904Y-53370523D02*
X122541904Y-53751476D01*
X122922857Y-53789571D01*
X122884761Y-53751476D01*
X122846666Y-53675285D01*
X122846666Y-53484809D01*
X122884761Y-53408619D01*
X122922857Y-53370523D01*
X122999047Y-53332428D01*
X123189523Y-53332428D01*
X123265714Y-53370523D01*
X123303809Y-53408619D01*
X123341904Y-53484809D01*
X123341904Y-53675285D01*
X123303809Y-53751476D01*
X123265714Y-53789571D01*
X125462857Y-54284809D02*
X125500952Y-54170523D01*
X125539047Y-54132428D01*
X125615238Y-54094333D01*
X125729523Y-54094333D01*
X125805714Y-54132428D01*
X125843809Y-54170523D01*
X125881904Y-54246714D01*
X125881904Y-54551476D01*
X125081904Y-54551476D01*
X125081904Y-54284809D01*
X125120000Y-54208619D01*
X125158095Y-54170523D01*
X125234285Y-54132428D01*
X125310476Y-54132428D01*
X125386666Y-54170523D01*
X125424761Y-54208619D01*
X125462857Y-54284809D01*
X125462857Y-54551476D01*
X125348571Y-53408619D02*
X125881904Y-53408619D01*
X125043809Y-53599095D02*
X125615238Y-53789571D01*
X125615238Y-53294333D01*
X128002857Y-54513380D02*
X128002857Y-54246714D01*
X128421904Y-54132428D02*
X128421904Y-54513380D01*
X127621904Y-54513380D01*
X127621904Y-54132428D01*
X127621904Y-53446714D02*
X127621904Y-53599095D01*
X127660000Y-53675285D01*
X127698095Y-53713380D01*
X127812380Y-53789571D01*
X127964761Y-53827666D01*
X128269523Y-53827666D01*
X128345714Y-53789571D01*
X128383809Y-53751476D01*
X128421904Y-53675285D01*
X128421904Y-53522904D01*
X128383809Y-53446714D01*
X128345714Y-53408619D01*
X128269523Y-53370523D01*
X128079047Y-53370523D01*
X128002857Y-53408619D01*
X127964761Y-53446714D01*
X127926666Y-53522904D01*
X127926666Y-53675285D01*
X127964761Y-53751476D01*
X128002857Y-53789571D01*
X128079047Y-53827666D01*
X130961904Y-54551476D02*
X130161904Y-54551476D01*
X130161904Y-54361000D01*
X130200000Y-54246714D01*
X130276190Y-54170523D01*
X130352380Y-54132428D01*
X130504761Y-54094333D01*
X130619047Y-54094333D01*
X130771428Y-54132428D01*
X130847619Y-54170523D01*
X130923809Y-54246714D01*
X130961904Y-54361000D01*
X130961904Y-54551476D01*
X130161904Y-53827666D02*
X130161904Y-53294333D01*
X130961904Y-53637190D01*
X133425714Y-54094333D02*
X133463809Y-54132428D01*
X133501904Y-54246714D01*
X133501904Y-54322904D01*
X133463809Y-54437190D01*
X133387619Y-54513380D01*
X133311428Y-54551476D01*
X133159047Y-54589571D01*
X133044761Y-54589571D01*
X132892380Y-54551476D01*
X132816190Y-54513380D01*
X132740000Y-54437190D01*
X132701904Y-54322904D01*
X132701904Y-54246714D01*
X132740000Y-54132428D01*
X132778095Y-54094333D01*
X132701904Y-53408619D02*
X132701904Y-53561000D01*
X132740000Y-53637190D01*
X132778095Y-53675285D01*
X132892380Y-53751476D01*
X133044761Y-53789571D01*
X133349523Y-53789571D01*
X133425714Y-53751476D01*
X133463809Y-53713380D01*
X133501904Y-53637190D01*
X133501904Y-53484809D01*
X133463809Y-53408619D01*
X133425714Y-53370523D01*
X133349523Y-53332428D01*
X133159047Y-53332428D01*
X133082857Y-53370523D01*
X133044761Y-53408619D01*
X133006666Y-53484809D01*
X133006666Y-53637190D01*
X133044761Y-53713380D01*
X133082857Y-53751476D01*
X133159047Y-53789571D01*
X136041904Y-54551476D02*
X135241904Y-54551476D01*
X135241904Y-54361000D01*
X135280000Y-54246714D01*
X135356190Y-54170523D01*
X135432380Y-54132428D01*
X135584761Y-54094333D01*
X135699047Y-54094333D01*
X135851428Y-54132428D01*
X135927619Y-54170523D01*
X136003809Y-54246714D01*
X136041904Y-54361000D01*
X136041904Y-54551476D01*
X135508571Y-53408619D02*
X136041904Y-53408619D01*
X135203809Y-53599095D02*
X135775238Y-53789571D01*
X135775238Y-53294333D01*
X145440000Y-54570523D02*
X145401904Y-54646714D01*
X145401904Y-54761000D01*
X145440000Y-54875285D01*
X145516190Y-54951476D01*
X145592380Y-54989571D01*
X145744761Y-55027666D01*
X145859047Y-55027666D01*
X146011428Y-54989571D01*
X146087619Y-54951476D01*
X146163809Y-54875285D01*
X146201904Y-54761000D01*
X146201904Y-54684809D01*
X146163809Y-54570523D01*
X146125714Y-54532428D01*
X145859047Y-54532428D01*
X145859047Y-54684809D01*
X146201904Y-54189571D02*
X145401904Y-54189571D01*
X146201904Y-53732428D01*
X145401904Y-53732428D01*
X146201904Y-53351476D02*
X145401904Y-53351476D01*
X145401904Y-53161000D01*
X145440000Y-53046714D01*
X145516190Y-52970523D01*
X145592380Y-52932428D01*
X145744761Y-52894333D01*
X145859047Y-52894333D01*
X146011428Y-52932428D01*
X146087619Y-52970523D01*
X146163809Y-53046714D01*
X146201904Y-53161000D01*
X146201904Y-53351476D01*
X142900000Y-54570523D02*
X142861904Y-54646714D01*
X142861904Y-54761000D01*
X142900000Y-54875285D01*
X142976190Y-54951476D01*
X143052380Y-54989571D01*
X143204761Y-55027666D01*
X143319047Y-55027666D01*
X143471428Y-54989571D01*
X143547619Y-54951476D01*
X143623809Y-54875285D01*
X143661904Y-54761000D01*
X143661904Y-54684809D01*
X143623809Y-54570523D01*
X143585714Y-54532428D01*
X143319047Y-54532428D01*
X143319047Y-54684809D01*
X143661904Y-54189571D02*
X142861904Y-54189571D01*
X143661904Y-53732428D01*
X142861904Y-53732428D01*
X143661904Y-53351476D02*
X142861904Y-53351476D01*
X142861904Y-53161000D01*
X142900000Y-53046714D01*
X142976190Y-52970523D01*
X143052380Y-52932428D01*
X143204761Y-52894333D01*
X143319047Y-52894333D01*
X143471428Y-52932428D01*
X143547619Y-52970523D01*
X143623809Y-53046714D01*
X143661904Y-53161000D01*
X143661904Y-53351476D01*
X141121904Y-54551476D02*
X140321904Y-54551476D01*
X140321904Y-54361000D01*
X140360000Y-54246714D01*
X140436190Y-54170523D01*
X140512380Y-54132428D01*
X140664761Y-54094333D01*
X140779047Y-54094333D01*
X140931428Y-54132428D01*
X141007619Y-54170523D01*
X141083809Y-54246714D01*
X141121904Y-54361000D01*
X141121904Y-54551476D01*
X141121904Y-53332428D02*
X141121904Y-53789571D01*
X141121904Y-53561000D02*
X140321904Y-53561000D01*
X140436190Y-53637190D01*
X140512380Y-53713380D01*
X140550476Y-53789571D01*
X138581904Y-54551476D02*
X137781904Y-54551476D01*
X137781904Y-54361000D01*
X137820000Y-54246714D01*
X137896190Y-54170523D01*
X137972380Y-54132428D01*
X138124761Y-54094333D01*
X138239047Y-54094333D01*
X138391428Y-54132428D01*
X138467619Y-54170523D01*
X138543809Y-54246714D01*
X138581904Y-54361000D01*
X138581904Y-54551476D01*
X137781904Y-53599095D02*
X137781904Y-53522904D01*
X137820000Y-53446714D01*
X137858095Y-53408619D01*
X137934285Y-53370523D01*
X138086666Y-53332428D01*
X138277142Y-53332428D01*
X138429523Y-53370523D01*
X138505714Y-53408619D01*
X138543809Y-53446714D01*
X138581904Y-53522904D01*
X138581904Y-53599095D01*
X138543809Y-53675285D01*
X138505714Y-53713380D01*
X138429523Y-53751476D01*
X138277142Y-53789571D01*
X138086666Y-53789571D01*
X137934285Y-53751476D01*
X137858095Y-53713380D01*
X137820000Y-53675285D01*
X137781904Y-53599095D01*
X148741904Y-54551476D02*
X147941904Y-54551476D01*
X147941904Y-54361000D01*
X147980000Y-54246714D01*
X148056190Y-54170523D01*
X148132380Y-54132428D01*
X148284761Y-54094333D01*
X148399047Y-54094333D01*
X148551428Y-54132428D01*
X148627619Y-54170523D01*
X148703809Y-54246714D01*
X148741904Y-54361000D01*
X148741904Y-54551476D01*
X148018095Y-53789571D02*
X147980000Y-53751476D01*
X147941904Y-53675285D01*
X147941904Y-53484809D01*
X147980000Y-53408619D01*
X148018095Y-53370523D01*
X148094285Y-53332428D01*
X148170476Y-53332428D01*
X148284761Y-53370523D01*
X148741904Y-53827666D01*
X148741904Y-53332428D01*
%LPC*%
D13*
X88100000Y-59525000D03*
X202400000Y-116675000D03*
X88100000Y-116675000D03*
X202400000Y-78575000D03*
D14*
X69050000Y-50000000D03*
D15*
X66510000Y-55080000D03*
X72860000Y-52540000D03*
D16*
X63970000Y-50000000D03*
X74130000Y-50000000D03*
D17*
X236690000Y-122200000D03*
D18*
X244310000Y-122200000D03*
D17*
X236690000Y-103150000D03*
D18*
X244310000Y-103150000D03*
D17*
X236690000Y-84100000D03*
D18*
X244310000Y-84100000D03*
D17*
X236690000Y-65050000D03*
D18*
X244310000Y-65050000D03*
D17*
X217640000Y-122200000D03*
D18*
X225260000Y-122200000D03*
D17*
X217640000Y-103150000D03*
D18*
X225260000Y-103150000D03*
D17*
X217640000Y-84100000D03*
D18*
X225260000Y-84100000D03*
D17*
X217640000Y-65050000D03*
D18*
X225260000Y-65050000D03*
D17*
X198590000Y-122200000D03*
D18*
X206210000Y-122200000D03*
D17*
X198590000Y-103150000D03*
D18*
X206210000Y-103150000D03*
D17*
X198590000Y-84100000D03*
D18*
X206210000Y-84100000D03*
D17*
X198590000Y-65050000D03*
D18*
X206210000Y-65050000D03*
D17*
X179540000Y-122200000D03*
D18*
X187160000Y-122200000D03*
D17*
X179540000Y-103150000D03*
D18*
X187160000Y-103150000D03*
D17*
X179540000Y-84100000D03*
D18*
X187160000Y-84100000D03*
D17*
X179540000Y-65050000D03*
D18*
X187160000Y-65050000D03*
D17*
X160490000Y-122200000D03*
D18*
X168110000Y-122200000D03*
D17*
X160490000Y-103150000D03*
D18*
X168110000Y-103150000D03*
D17*
X160490000Y-84100000D03*
D18*
X168110000Y-84100000D03*
D17*
X160490000Y-65050000D03*
D18*
X168110000Y-65050000D03*
D17*
X141600000Y-119750000D03*
D18*
X149220000Y-119750000D03*
D17*
X141440000Y-103150000D03*
D18*
X149060000Y-103150000D03*
D17*
X141440000Y-84100000D03*
D18*
X149060000Y-84100000D03*
D17*
X141440000Y-65050000D03*
D18*
X149060000Y-65050000D03*
D17*
X149060000Y-62000000D03*
D18*
X141440000Y-62000000D03*
D17*
X122390000Y-122200000D03*
D18*
X130010000Y-122200000D03*
D17*
X122390000Y-103150000D03*
D18*
X130010000Y-103150000D03*
D17*
X122390000Y-84100000D03*
D18*
X130010000Y-84100000D03*
D17*
X122390000Y-65050000D03*
D18*
X130010000Y-65050000D03*
D17*
X130010000Y-62000000D03*
D18*
X122390000Y-62000000D03*
D17*
X103340000Y-122200000D03*
D18*
X110960000Y-122200000D03*
D17*
X103340000Y-103150000D03*
D18*
X110960000Y-103150000D03*
D17*
X103340000Y-84100000D03*
D18*
X110960000Y-84100000D03*
D17*
X103340000Y-65050000D03*
D18*
X110960000Y-65050000D03*
D17*
X103340000Y-46000000D03*
D18*
X110960000Y-46000000D03*
D17*
X84290000Y-122200000D03*
D18*
X91910000Y-122200000D03*
D17*
X84290000Y-103150000D03*
D18*
X91910000Y-103150000D03*
D17*
X84290000Y-84100000D03*
D18*
X91910000Y-84100000D03*
D17*
X84290000Y-65050000D03*
D18*
X91910000Y-65050000D03*
D17*
X84290000Y-46000000D03*
D18*
X91910000Y-46000000D03*
D17*
X65240000Y-122200000D03*
D18*
X72860000Y-122200000D03*
D17*
X65240000Y-103150000D03*
D18*
X72860000Y-103150000D03*
D17*
X65240000Y-84100000D03*
D18*
X72860000Y-84100000D03*
D17*
X65240000Y-65050000D03*
D18*
X72860000Y-65050000D03*
D17*
X65240000Y-46000000D03*
D18*
X72860000Y-46000000D03*
D17*
X46190000Y-122200000D03*
D18*
X53810000Y-122200000D03*
D17*
X46190000Y-103150000D03*
D18*
X53810000Y-103150000D03*
D17*
X46190000Y-84100000D03*
D18*
X53810000Y-84100000D03*
D17*
X46190000Y-65050000D03*
D18*
X53810000Y-65050000D03*
D17*
X46190000Y-46000000D03*
D18*
X53810000Y-46000000D03*
D14*
X50000000Y-50000000D03*
D15*
X47460000Y-55080000D03*
X53810000Y-52540000D03*
D16*
X44920000Y-50000000D03*
X55080000Y-50000000D03*
D14*
X69050000Y-88100000D03*
D15*
X66510000Y-93180000D03*
X72860000Y-90640000D03*
D16*
X63970000Y-88100000D03*
X74130000Y-88100000D03*
D14*
X240500000Y-126200000D03*
D15*
X237960000Y-131280000D03*
X244310000Y-128740000D03*
D16*
X235420000Y-126200000D03*
X245580000Y-126200000D03*
D14*
X240500000Y-107150000D03*
D15*
X237960000Y-112230000D03*
X244310000Y-109690000D03*
D16*
X235420000Y-107150000D03*
X245580000Y-107150000D03*
D14*
X240500000Y-88100000D03*
D15*
X237960000Y-93180000D03*
X244310000Y-90640000D03*
D16*
X235420000Y-88100000D03*
X245580000Y-88100000D03*
D14*
X240500000Y-69050000D03*
D15*
X237960000Y-74130000D03*
X244310000Y-71590000D03*
D16*
X235420000Y-69050000D03*
X245580000Y-69050000D03*
D14*
X221450000Y-126200000D03*
D15*
X218910000Y-131280000D03*
X225260000Y-128740000D03*
D16*
X216370000Y-126200000D03*
X226530000Y-126200000D03*
D14*
X221450000Y-107150000D03*
D15*
X218910000Y-112230000D03*
X225260000Y-109690000D03*
D16*
X216370000Y-107150000D03*
X226530000Y-107150000D03*
D14*
X221450000Y-88100000D03*
D15*
X218910000Y-93180000D03*
X225260000Y-90640000D03*
D16*
X216370000Y-88100000D03*
X226530000Y-88100000D03*
D14*
X221450000Y-69050000D03*
D15*
X218910000Y-74130000D03*
X225260000Y-71590000D03*
D16*
X216370000Y-69050000D03*
X226530000Y-69050000D03*
D14*
X202400000Y-126200000D03*
D15*
X199860000Y-131280000D03*
X206210000Y-128740000D03*
D16*
X197320000Y-126200000D03*
X207480000Y-126200000D03*
D14*
X202400000Y-107150000D03*
D15*
X199860000Y-112230000D03*
X206210000Y-109690000D03*
D16*
X197320000Y-107150000D03*
X207480000Y-107150000D03*
D14*
X202400000Y-88100000D03*
D15*
X199860000Y-93180000D03*
X206210000Y-90640000D03*
D16*
X197320000Y-88100000D03*
X207480000Y-88100000D03*
D14*
X202400000Y-69050000D03*
D15*
X199860000Y-74130000D03*
X206210000Y-71590000D03*
D16*
X197320000Y-69050000D03*
X207480000Y-69050000D03*
D14*
X183350000Y-126200000D03*
D15*
X180810000Y-131280000D03*
X187160000Y-128740000D03*
D16*
X178270000Y-126200000D03*
X188430000Y-126200000D03*
D14*
X183350000Y-107150000D03*
D15*
X180810000Y-112230000D03*
X187160000Y-109690000D03*
D16*
X178270000Y-107150000D03*
X188430000Y-107150000D03*
D14*
X183350000Y-88100000D03*
D15*
X180810000Y-93180000D03*
X187160000Y-90640000D03*
D16*
X178270000Y-88100000D03*
X188430000Y-88100000D03*
D14*
X183350000Y-69050000D03*
D15*
X180810000Y-74130000D03*
X187160000Y-71590000D03*
D16*
X178270000Y-69050000D03*
X188430000Y-69050000D03*
D14*
X164300000Y-126200000D03*
D15*
X161760000Y-131280000D03*
X168110000Y-128740000D03*
D16*
X159220000Y-126200000D03*
X169380000Y-126200000D03*
D14*
X164300000Y-107150000D03*
D15*
X161760000Y-112230000D03*
X168110000Y-109690000D03*
D16*
X159220000Y-107150000D03*
X169380000Y-107150000D03*
D14*
X164300000Y-88100000D03*
D15*
X161760000Y-93180000D03*
X168110000Y-90640000D03*
D16*
X159220000Y-88100000D03*
X169380000Y-88100000D03*
D14*
X164300000Y-69050000D03*
D15*
X161760000Y-74130000D03*
X168110000Y-71590000D03*
D16*
X159220000Y-69050000D03*
X169380000Y-69050000D03*
D14*
X145250000Y-107150000D03*
D15*
X142710000Y-112230000D03*
X149060000Y-109690000D03*
D16*
X140170000Y-107150000D03*
X150330000Y-107150000D03*
D14*
X145250000Y-88100000D03*
D15*
X142710000Y-93180000D03*
X149060000Y-90640000D03*
D16*
X140170000Y-88100000D03*
X150330000Y-88100000D03*
D14*
X145250000Y-69050000D03*
D15*
X142710000Y-74130000D03*
X149060000Y-71590000D03*
D16*
X140170000Y-69050000D03*
X150330000Y-69050000D03*
D14*
X145250000Y-50000000D03*
D15*
X147790000Y-44920000D03*
X141440000Y-47460000D03*
D16*
X150330000Y-50000000D03*
X140170000Y-50000000D03*
D14*
X126200000Y-126200000D03*
D15*
X123660000Y-131280000D03*
X130010000Y-128740000D03*
D16*
X121120000Y-126200000D03*
X131280000Y-126200000D03*
D14*
X126200000Y-107150000D03*
D15*
X123660000Y-112230000D03*
X130010000Y-109690000D03*
D16*
X121120000Y-107150000D03*
X131280000Y-107150000D03*
D14*
X126200000Y-88100000D03*
D15*
X123660000Y-93180000D03*
X130010000Y-90640000D03*
D16*
X121120000Y-88100000D03*
X131280000Y-88100000D03*
D14*
X126200000Y-69050000D03*
D15*
X123660000Y-74130000D03*
X130010000Y-71590000D03*
D16*
X121120000Y-69050000D03*
X131280000Y-69050000D03*
D14*
X126200000Y-50000000D03*
D15*
X128740000Y-44920000D03*
X122390000Y-47460000D03*
D16*
X131280000Y-50000000D03*
X121120000Y-50000000D03*
D14*
X107150000Y-126200000D03*
D15*
X104610000Y-131280000D03*
X110960000Y-128740000D03*
D16*
X102070000Y-126200000D03*
X112230000Y-126200000D03*
D14*
X107150000Y-107150000D03*
D15*
X104610000Y-112230000D03*
X110960000Y-109690000D03*
D16*
X102070000Y-107150000D03*
X112230000Y-107150000D03*
D14*
X107150000Y-88100000D03*
D15*
X104610000Y-93180000D03*
X110960000Y-90640000D03*
D16*
X102070000Y-88100000D03*
X112230000Y-88100000D03*
D14*
X107150000Y-69050000D03*
D15*
X104610000Y-74130000D03*
X110960000Y-71590000D03*
D16*
X102070000Y-69050000D03*
X112230000Y-69050000D03*
D14*
X107150000Y-50000000D03*
D15*
X104610000Y-55080000D03*
X110960000Y-52540000D03*
D16*
X102070000Y-50000000D03*
X112230000Y-50000000D03*
D14*
X88100000Y-126200000D03*
D15*
X85560000Y-131280000D03*
X91910000Y-128740000D03*
D16*
X83020000Y-126200000D03*
X93180000Y-126200000D03*
D14*
X88100000Y-107150000D03*
D15*
X85560000Y-112230000D03*
X91910000Y-109690000D03*
D16*
X83020000Y-107150000D03*
X93180000Y-107150000D03*
D14*
X88100000Y-88100000D03*
D15*
X85560000Y-93180000D03*
X91910000Y-90640000D03*
D16*
X83020000Y-88100000D03*
X93180000Y-88100000D03*
D14*
X88100000Y-69050000D03*
D15*
X85560000Y-74130000D03*
X91910000Y-71590000D03*
D16*
X83020000Y-69050000D03*
X93180000Y-69050000D03*
D14*
X88100000Y-50000000D03*
D15*
X85560000Y-55080000D03*
X91910000Y-52540000D03*
D16*
X83020000Y-50000000D03*
X93180000Y-50000000D03*
D14*
X69050000Y-126200000D03*
D15*
X66510000Y-131280000D03*
X72860000Y-128740000D03*
D16*
X63970000Y-126200000D03*
X74130000Y-126200000D03*
D14*
X69050000Y-107150000D03*
D15*
X66510000Y-112230000D03*
X72860000Y-109690000D03*
D16*
X63970000Y-107150000D03*
X74130000Y-107150000D03*
D14*
X69050000Y-69050000D03*
D15*
X66510000Y-74130000D03*
X72860000Y-71590000D03*
D16*
X63970000Y-69050000D03*
X74130000Y-69050000D03*
D14*
X50000000Y-126200000D03*
D15*
X47460000Y-131280000D03*
X53810000Y-128740000D03*
D16*
X44920000Y-126200000D03*
X55080000Y-126200000D03*
D14*
X50000000Y-107150000D03*
D15*
X47460000Y-112230000D03*
X53810000Y-109690000D03*
D16*
X44920000Y-107150000D03*
X55080000Y-107150000D03*
D14*
X50000000Y-88100000D03*
D15*
X47460000Y-93180000D03*
X53810000Y-90640000D03*
D16*
X44920000Y-88100000D03*
X55080000Y-88100000D03*
D14*
X50000000Y-69050000D03*
D15*
X47460000Y-74130000D03*
X53810000Y-71590000D03*
D16*
X44920000Y-69050000D03*
X55080000Y-69050000D03*
D19*
X140100000Y-125750000D03*
X150400000Y-125750000D03*
X150400000Y-129450000D03*
X150400000Y-122950000D03*
X140100000Y-129450000D03*
X140100000Y-122950000D03*
D20*
X150920000Y-40880000D03*
X122980000Y-56120000D03*
X148380000Y-40880000D03*
X145840000Y-40880000D03*
X143300000Y-40880000D03*
X140760000Y-40880000D03*
X138220000Y-40880000D03*
X135680000Y-40880000D03*
X133140000Y-40880000D03*
X130600000Y-40880000D03*
X128060000Y-40880000D03*
X125520000Y-40880000D03*
X122980000Y-40880000D03*
X125520000Y-56120000D03*
X128060000Y-56120000D03*
X130600000Y-56120000D03*
X133140000Y-56120000D03*
X135680000Y-56120000D03*
X138220000Y-56120000D03*
X140760000Y-56120000D03*
X143300000Y-56120000D03*
X145840000Y-56120000D03*
X148380000Y-56120000D03*
D21*
X150920000Y-56120000D03*
M02*
