%FSLAX45Y45*%
G04 Gerber Fmt 4.5, Leading zero omitted, Abs format (unit mm)*
G04 Created by KiCad (PCBNEW (5.1.10)-1) date 2021-10-22 01:43:09*
%MOMM*%
%LPD*%
G01*
G04 APERTURE LIST*
%TA.AperFunction,Profile*%
%ADD10C,0.050000*%
%TD*%
%ADD11C,0.200000*%
%ADD12C,0.300000*%
G04 APERTURE END LIST*
D10*
X15642500Y-5825000D02*
X25000000Y-5825000D01*
X15600000Y-5782500D02*
X15600000Y-4050000D01*
X15642500Y-5825000D02*
G75*
G02*
X15600000Y-5782500I0J42500D01*
G01*
X25000000Y-5824975D02*
G75*
G02*
X25127500Y-5950000I0J-127525D01*
G01*
X25125000Y-13575000D02*
G75*
G02*
X25000000Y-13700000I-125000J0D01*
G01*
X15475000Y-3925000D02*
G75*
G02*
X15600000Y-4050000I0J-125000D01*
G01*
X4050000Y-13700000D02*
G75*
G02*
X3925000Y-13575000I0J125000D01*
G01*
X3925000Y-4050000D02*
G75*
G02*
X4050000Y-3925000I125000J0D01*
G01*
X3925000Y-4050000D02*
X3925000Y-13575000D01*
X15475000Y-3925000D02*
X4050000Y-3925000D01*
X25125000Y-13575000D02*
X25127500Y-5950000D01*
X4050000Y-13700000D02*
X25000000Y-13700000D01*
D11*
X4407000Y-4915000D02*
X4577000Y-5085000D01*
X4577000Y-4915000D02*
X4407000Y-5085000D01*
X4407000Y-6820000D02*
X4577000Y-6990000D01*
X4577000Y-6820000D02*
X4407000Y-6990000D01*
X4407000Y-8725000D02*
X4577000Y-8895000D01*
X4577000Y-8725000D02*
X4407000Y-8895000D01*
X4407000Y-10630000D02*
X4577000Y-10800000D01*
X4577000Y-10630000D02*
X4407000Y-10800000D01*
X4407000Y-12535000D02*
X4577000Y-12705000D01*
X4577000Y-12535000D02*
X4407000Y-12705000D01*
X5423000Y-4915000D02*
X5593000Y-5085000D01*
X5593000Y-4915000D02*
X5423000Y-5085000D01*
X5423000Y-6820000D02*
X5593000Y-6990000D01*
X5593000Y-6820000D02*
X5423000Y-6990000D01*
X5423000Y-8725000D02*
X5593000Y-8895000D01*
X5593000Y-8725000D02*
X5423000Y-8895000D01*
X5423000Y-10630000D02*
X5593000Y-10800000D01*
X5593000Y-10630000D02*
X5423000Y-10800000D01*
X5423000Y-12535000D02*
X5593000Y-12705000D01*
X5593000Y-12535000D02*
X5423000Y-12705000D01*
X6312000Y-4915000D02*
X6482000Y-5085000D01*
X6482000Y-4915000D02*
X6312000Y-5085000D01*
X6312000Y-6820000D02*
X6482000Y-6990000D01*
X6482000Y-6820000D02*
X6312000Y-6990000D01*
X6312000Y-8725000D02*
X6482000Y-8895000D01*
X6482000Y-8725000D02*
X6312000Y-8895000D01*
X6312000Y-10630000D02*
X6482000Y-10800000D01*
X6482000Y-10630000D02*
X6312000Y-10800000D01*
X6312000Y-12535000D02*
X6482000Y-12705000D01*
X6482000Y-12535000D02*
X6312000Y-12705000D01*
X7328000Y-4915000D02*
X7498000Y-5085000D01*
X7498000Y-4915000D02*
X7328000Y-5085000D01*
X7328000Y-6820000D02*
X7498000Y-6990000D01*
X7498000Y-6820000D02*
X7328000Y-6990000D01*
X7328000Y-8725000D02*
X7498000Y-8895000D01*
X7498000Y-8725000D02*
X7328000Y-8895000D01*
X7328000Y-10630000D02*
X7498000Y-10800000D01*
X7498000Y-10630000D02*
X7328000Y-10800000D01*
X7328000Y-12535000D02*
X7498000Y-12705000D01*
X7498000Y-12535000D02*
X7328000Y-12705000D01*
X8217000Y-4915000D02*
X8387000Y-5085000D01*
X8387000Y-4915000D02*
X8217000Y-5085000D01*
X8217000Y-6820000D02*
X8387000Y-6990000D01*
X8387000Y-6820000D02*
X8217000Y-6990000D01*
X8217000Y-8725000D02*
X8387000Y-8895000D01*
X8387000Y-8725000D02*
X8217000Y-8895000D01*
X8217000Y-10630000D02*
X8387000Y-10800000D01*
X8387000Y-10630000D02*
X8217000Y-10800000D01*
X8217000Y-12535000D02*
X8387000Y-12705000D01*
X8387000Y-12535000D02*
X8217000Y-12705000D01*
X9233000Y-4915000D02*
X9403000Y-5085000D01*
X9403000Y-4915000D02*
X9233000Y-5085000D01*
X9233000Y-6820000D02*
X9403000Y-6990000D01*
X9403000Y-6820000D02*
X9233000Y-6990000D01*
X9233000Y-8725000D02*
X9403000Y-8895000D01*
X9403000Y-8725000D02*
X9233000Y-8895000D01*
X9233000Y-10630000D02*
X9403000Y-10800000D01*
X9403000Y-10630000D02*
X9233000Y-10800000D01*
X9233000Y-12535000D02*
X9403000Y-12705000D01*
X9403000Y-12535000D02*
X9233000Y-12705000D01*
X10122000Y-4915000D02*
X10292000Y-5085000D01*
X10292000Y-4915000D02*
X10122000Y-5085000D01*
X10122000Y-6820000D02*
X10292000Y-6990000D01*
X10292000Y-6820000D02*
X10122000Y-6990000D01*
X10122000Y-8725000D02*
X10292000Y-8895000D01*
X10292000Y-8725000D02*
X10122000Y-8895000D01*
X10122000Y-10630000D02*
X10292000Y-10800000D01*
X10292000Y-10630000D02*
X10122000Y-10800000D01*
X10122000Y-12535000D02*
X10292000Y-12705000D01*
X10292000Y-12535000D02*
X10122000Y-12705000D01*
X11138000Y-4915000D02*
X11308000Y-5085000D01*
X11308000Y-4915000D02*
X11138000Y-5085000D01*
X11138000Y-6820000D02*
X11308000Y-6990000D01*
X11308000Y-6820000D02*
X11138000Y-6990000D01*
X11138000Y-8725000D02*
X11308000Y-8895000D01*
X11308000Y-8725000D02*
X11138000Y-8895000D01*
X11138000Y-10630000D02*
X11308000Y-10800000D01*
X11308000Y-10630000D02*
X11138000Y-10800000D01*
X11138000Y-12535000D02*
X11308000Y-12705000D01*
X11308000Y-12535000D02*
X11138000Y-12705000D01*
X12027000Y-4915000D02*
X12197000Y-5085000D01*
X12197000Y-4915000D02*
X12027000Y-5085000D01*
X12027000Y-6820000D02*
X12197000Y-6990000D01*
X12197000Y-6820000D02*
X12027000Y-6990000D01*
X12027000Y-8725000D02*
X12197000Y-8895000D01*
X12197000Y-8725000D02*
X12027000Y-8895000D01*
X12027000Y-10630000D02*
X12197000Y-10800000D01*
X12197000Y-10630000D02*
X12027000Y-10800000D01*
X12027000Y-12535000D02*
X12197000Y-12705000D01*
X12197000Y-12535000D02*
X12027000Y-12705000D01*
X13043000Y-4915000D02*
X13213000Y-5085000D01*
X13213000Y-4915000D02*
X13043000Y-5085000D01*
X13043000Y-6820000D02*
X13213000Y-6990000D01*
X13213000Y-6820000D02*
X13043000Y-6990000D01*
X13043000Y-8725000D02*
X13213000Y-8895000D01*
X13213000Y-8725000D02*
X13043000Y-8895000D01*
X13043000Y-10630000D02*
X13213000Y-10800000D01*
X13213000Y-10630000D02*
X13043000Y-10800000D01*
X13043000Y-12535000D02*
X13213000Y-12705000D01*
X13213000Y-12535000D02*
X13043000Y-12705000D01*
X13932000Y-4915000D02*
X14102000Y-5085000D01*
X14102000Y-4915000D02*
X13932000Y-5085000D01*
X13932000Y-6820000D02*
X14102000Y-6990000D01*
X14102000Y-6820000D02*
X13932000Y-6990000D01*
X13932000Y-8725000D02*
X14102000Y-8895000D01*
X14102000Y-8725000D02*
X13932000Y-8895000D01*
X13932000Y-10630000D02*
X14102000Y-10800000D01*
X14102000Y-10630000D02*
X13932000Y-10800000D01*
X14948000Y-4915000D02*
X15118000Y-5085000D01*
X15118000Y-4915000D02*
X14948000Y-5085000D01*
X14948000Y-6820000D02*
X15118000Y-6990000D01*
X15118000Y-6820000D02*
X14948000Y-6990000D01*
X14948000Y-8725000D02*
X15118000Y-8895000D01*
X15118000Y-8725000D02*
X14948000Y-8895000D01*
X14948000Y-10630000D02*
X15118000Y-10800000D01*
X15118000Y-10630000D02*
X14948000Y-10800000D01*
X15837000Y-6820000D02*
X16007000Y-6990000D01*
X16007000Y-6820000D02*
X15837000Y-6990000D01*
X15837000Y-8725000D02*
X16007000Y-8895000D01*
X16007000Y-8725000D02*
X15837000Y-8895000D01*
X15837000Y-10630000D02*
X16007000Y-10800000D01*
X16007000Y-10630000D02*
X15837000Y-10800000D01*
X15837000Y-12535000D02*
X16007000Y-12705000D01*
X16007000Y-12535000D02*
X15837000Y-12705000D01*
X16853000Y-6820000D02*
X17023000Y-6990000D01*
X17023000Y-6820000D02*
X16853000Y-6990000D01*
X16853000Y-8725000D02*
X17023000Y-8895000D01*
X17023000Y-8725000D02*
X16853000Y-8895000D01*
X16853000Y-10630000D02*
X17023000Y-10800000D01*
X17023000Y-10630000D02*
X16853000Y-10800000D01*
X16853000Y-12535000D02*
X17023000Y-12705000D01*
X17023000Y-12535000D02*
X16853000Y-12705000D01*
X17742000Y-6820000D02*
X17912000Y-6990000D01*
X17912000Y-6820000D02*
X17742000Y-6990000D01*
X17742000Y-8725000D02*
X17912000Y-8895000D01*
X17912000Y-8725000D02*
X17742000Y-8895000D01*
X17742000Y-10630000D02*
X17912000Y-10800000D01*
X17912000Y-10630000D02*
X17742000Y-10800000D01*
X17742000Y-12535000D02*
X17912000Y-12705000D01*
X17912000Y-12535000D02*
X17742000Y-12705000D01*
X18758000Y-6820000D02*
X18928000Y-6990000D01*
X18928000Y-6820000D02*
X18758000Y-6990000D01*
X18758000Y-8725000D02*
X18928000Y-8895000D01*
X18928000Y-8725000D02*
X18758000Y-8895000D01*
X18758000Y-10630000D02*
X18928000Y-10800000D01*
X18928000Y-10630000D02*
X18758000Y-10800000D01*
X18758000Y-12535000D02*
X18928000Y-12705000D01*
X18928000Y-12535000D02*
X18758000Y-12705000D01*
X19647000Y-6820000D02*
X19817000Y-6990000D01*
X19817000Y-6820000D02*
X19647000Y-6990000D01*
X19647000Y-8725000D02*
X19817000Y-8895000D01*
X19817000Y-8725000D02*
X19647000Y-8895000D01*
X19647000Y-10630000D02*
X19817000Y-10800000D01*
X19817000Y-10630000D02*
X19647000Y-10800000D01*
X19647000Y-12535000D02*
X19817000Y-12705000D01*
X19817000Y-12535000D02*
X19647000Y-12705000D01*
X20663000Y-6820000D02*
X20833000Y-6990000D01*
X20833000Y-6820000D02*
X20663000Y-6990000D01*
X20663000Y-8725000D02*
X20833000Y-8895000D01*
X20833000Y-8725000D02*
X20663000Y-8895000D01*
X20663000Y-10630000D02*
X20833000Y-10800000D01*
X20833000Y-10630000D02*
X20663000Y-10800000D01*
X20663000Y-12535000D02*
X20833000Y-12705000D01*
X20833000Y-12535000D02*
X20663000Y-12705000D01*
X21552000Y-6820000D02*
X21722000Y-6990000D01*
X21722000Y-6820000D02*
X21552000Y-6990000D01*
X21552000Y-8725000D02*
X21722000Y-8895000D01*
X21722000Y-8725000D02*
X21552000Y-8895000D01*
X21552000Y-10630000D02*
X21722000Y-10800000D01*
X21722000Y-10630000D02*
X21552000Y-10800000D01*
X21552000Y-12535000D02*
X21722000Y-12705000D01*
X21722000Y-12535000D02*
X21552000Y-12705000D01*
X22568000Y-6820000D02*
X22738000Y-6990000D01*
X22738000Y-6820000D02*
X22568000Y-6990000D01*
X22568000Y-8725000D02*
X22738000Y-8895000D01*
X22738000Y-8725000D02*
X22568000Y-8895000D01*
X22568000Y-10630000D02*
X22738000Y-10800000D01*
X22738000Y-10630000D02*
X22568000Y-10800000D01*
X22568000Y-12535000D02*
X22738000Y-12705000D01*
X22738000Y-12535000D02*
X22568000Y-12705000D01*
X23457000Y-6820000D02*
X23627000Y-6990000D01*
X23627000Y-6820000D02*
X23457000Y-6990000D01*
X23457000Y-8725000D02*
X23627000Y-8895000D01*
X23627000Y-8725000D02*
X23457000Y-8895000D01*
X23457000Y-10630000D02*
X23627000Y-10800000D01*
X23627000Y-10630000D02*
X23457000Y-10800000D01*
X23457000Y-12535000D02*
X23627000Y-12705000D01*
X23627000Y-12535000D02*
X23457000Y-12705000D01*
X24473000Y-6820000D02*
X24643000Y-6990000D01*
X24643000Y-6820000D02*
X24473000Y-6990000D01*
X24473000Y-8725000D02*
X24643000Y-8895000D01*
X24643000Y-8725000D02*
X24473000Y-8895000D01*
X24473000Y-10630000D02*
X24643000Y-10800000D01*
X24643000Y-10630000D02*
X24473000Y-10800000D01*
X24473000Y-12535000D02*
X24643000Y-12705000D01*
X24643000Y-12535000D02*
X24473000Y-12705000D01*
X4893500Y-5508000D02*
G75*
G03*
X4893500Y-5508000I-147500J0D01*
G01*
X4893500Y-7413000D02*
G75*
G03*
X4893500Y-7413000I-147500J0D01*
G01*
X4893500Y-9318000D02*
G75*
G03*
X4893500Y-9318000I-147500J0D01*
G01*
X4893500Y-11223000D02*
G75*
G03*
X4893500Y-11223000I-147500J0D01*
G01*
X4893500Y-13128000D02*
G75*
G03*
X4893500Y-13128000I-147500J0D01*
G01*
X5528500Y-5254000D02*
G75*
G03*
X5528500Y-5254000I-147500J0D01*
G01*
X5528500Y-7159000D02*
G75*
G03*
X5528500Y-7159000I-147500J0D01*
G01*
X5528500Y-9064000D02*
G75*
G03*
X5528500Y-9064000I-147500J0D01*
G01*
X5528500Y-10969000D02*
G75*
G03*
X5528500Y-10969000I-147500J0D01*
G01*
X5528500Y-12874000D02*
G75*
G03*
X5528500Y-12874000I-147500J0D01*
G01*
X6798500Y-5508000D02*
G75*
G03*
X6798500Y-5508000I-147500J0D01*
G01*
X6798500Y-7413000D02*
G75*
G03*
X6798500Y-7413000I-147500J0D01*
G01*
X6798500Y-9318000D02*
G75*
G03*
X6798500Y-9318000I-147500J0D01*
G01*
X6798500Y-11223000D02*
G75*
G03*
X6798500Y-11223000I-147500J0D01*
G01*
X6798500Y-13128000D02*
G75*
G03*
X6798500Y-13128000I-147500J0D01*
G01*
X7433500Y-5254000D02*
G75*
G03*
X7433500Y-5254000I-147500J0D01*
G01*
X7433500Y-7159000D02*
G75*
G03*
X7433500Y-7159000I-147500J0D01*
G01*
X7433500Y-9064000D02*
G75*
G03*
X7433500Y-9064000I-147500J0D01*
G01*
X7433500Y-10969000D02*
G75*
G03*
X7433500Y-10969000I-147500J0D01*
G01*
X7433500Y-12874000D02*
G75*
G03*
X7433500Y-12874000I-147500J0D01*
G01*
X8703500Y-5508000D02*
G75*
G03*
X8703500Y-5508000I-147500J0D01*
G01*
X8703500Y-7413000D02*
G75*
G03*
X8703500Y-7413000I-147500J0D01*
G01*
X8703500Y-9318000D02*
G75*
G03*
X8703500Y-9318000I-147500J0D01*
G01*
X8703500Y-11223000D02*
G75*
G03*
X8703500Y-11223000I-147500J0D01*
G01*
X8703500Y-13128000D02*
G75*
G03*
X8703500Y-13128000I-147500J0D01*
G01*
X9338500Y-5254000D02*
G75*
G03*
X9338500Y-5254000I-147500J0D01*
G01*
X9338500Y-7159000D02*
G75*
G03*
X9338500Y-7159000I-147500J0D01*
G01*
X9338500Y-9064000D02*
G75*
G03*
X9338500Y-9064000I-147500J0D01*
G01*
X9338500Y-10969000D02*
G75*
G03*
X9338500Y-10969000I-147500J0D01*
G01*
X9338500Y-12874000D02*
G75*
G03*
X9338500Y-12874000I-147500J0D01*
G01*
X10608500Y-5508000D02*
G75*
G03*
X10608500Y-5508000I-147500J0D01*
G01*
X10608500Y-7413000D02*
G75*
G03*
X10608500Y-7413000I-147500J0D01*
G01*
X10608500Y-9318000D02*
G75*
G03*
X10608500Y-9318000I-147500J0D01*
G01*
X10608500Y-11223000D02*
G75*
G03*
X10608500Y-11223000I-147500J0D01*
G01*
X10608500Y-13128000D02*
G75*
G03*
X10608500Y-13128000I-147500J0D01*
G01*
X11243500Y-5254000D02*
G75*
G03*
X11243500Y-5254000I-147500J0D01*
G01*
X11243500Y-7159000D02*
G75*
G03*
X11243500Y-7159000I-147500J0D01*
G01*
X11243500Y-9064000D02*
G75*
G03*
X11243500Y-9064000I-147500J0D01*
G01*
X11243500Y-10969000D02*
G75*
G03*
X11243500Y-10969000I-147500J0D01*
G01*
X11243500Y-12874000D02*
G75*
G03*
X11243500Y-12874000I-147500J0D01*
G01*
X12386500Y-4746000D02*
G75*
G03*
X12386500Y-4746000I-147500J0D01*
G01*
X12513500Y-7413000D02*
G75*
G03*
X12513500Y-7413000I-147500J0D01*
G01*
X12513500Y-9318000D02*
G75*
G03*
X12513500Y-9318000I-147500J0D01*
G01*
X12513500Y-11223000D02*
G75*
G03*
X12513500Y-11223000I-147500J0D01*
G01*
X12513500Y-13128000D02*
G75*
G03*
X12513500Y-13128000I-147500J0D01*
G01*
X13021500Y-4492000D02*
G75*
G03*
X13021500Y-4492000I-147500J0D01*
G01*
X13148500Y-7159000D02*
G75*
G03*
X13148500Y-7159000I-147500J0D01*
G01*
X13148500Y-9064000D02*
G75*
G03*
X13148500Y-9064000I-147500J0D01*
G01*
X13148500Y-10969000D02*
G75*
G03*
X13148500Y-10969000I-147500J0D01*
G01*
X13148500Y-12874000D02*
G75*
G03*
X13148500Y-12874000I-147500J0D01*
G01*
X14291500Y-4746000D02*
G75*
G03*
X14291500Y-4746000I-147500J0D01*
G01*
X14418500Y-7413000D02*
G75*
G03*
X14418500Y-7413000I-147500J0D01*
G01*
X14418500Y-9318000D02*
G75*
G03*
X14418500Y-9318000I-147500J0D01*
G01*
X14418500Y-11223000D02*
G75*
G03*
X14418500Y-11223000I-147500J0D01*
G01*
X14926500Y-4492000D02*
G75*
G03*
X14926500Y-4492000I-147500J0D01*
G01*
X15053500Y-7159000D02*
G75*
G03*
X15053500Y-7159000I-147500J0D01*
G01*
X15053500Y-9064000D02*
G75*
G03*
X15053500Y-9064000I-147500J0D01*
G01*
X15053500Y-10969000D02*
G75*
G03*
X15053500Y-10969000I-147500J0D01*
G01*
X16323500Y-7413000D02*
G75*
G03*
X16323500Y-7413000I-147500J0D01*
G01*
X16323500Y-9318000D02*
G75*
G03*
X16323500Y-9318000I-147500J0D01*
G01*
X16323500Y-11223000D02*
G75*
G03*
X16323500Y-11223000I-147500J0D01*
G01*
X16323500Y-13128000D02*
G75*
G03*
X16323500Y-13128000I-147500J0D01*
G01*
X16958500Y-7159000D02*
G75*
G03*
X16958500Y-7159000I-147500J0D01*
G01*
X16958500Y-9064000D02*
G75*
G03*
X16958500Y-9064000I-147500J0D01*
G01*
X16958500Y-10969000D02*
G75*
G03*
X16958500Y-10969000I-147500J0D01*
G01*
X16958500Y-12874000D02*
G75*
G03*
X16958500Y-12874000I-147500J0D01*
G01*
X18228500Y-7413000D02*
G75*
G03*
X18228500Y-7413000I-147500J0D01*
G01*
X18228500Y-9318000D02*
G75*
G03*
X18228500Y-9318000I-147500J0D01*
G01*
X18228500Y-11223000D02*
G75*
G03*
X18228500Y-11223000I-147500J0D01*
G01*
X18228500Y-13128000D02*
G75*
G03*
X18228500Y-13128000I-147500J0D01*
G01*
X18863500Y-7159000D02*
G75*
G03*
X18863500Y-7159000I-147500J0D01*
G01*
X18863500Y-9064000D02*
G75*
G03*
X18863500Y-9064000I-147500J0D01*
G01*
X18863500Y-10969000D02*
G75*
G03*
X18863500Y-10969000I-147500J0D01*
G01*
X18863500Y-12874000D02*
G75*
G03*
X18863500Y-12874000I-147500J0D01*
G01*
X20133500Y-7413000D02*
G75*
G03*
X20133500Y-7413000I-147500J0D01*
G01*
X20133500Y-9318000D02*
G75*
G03*
X20133500Y-9318000I-147500J0D01*
G01*
X20133500Y-11223000D02*
G75*
G03*
X20133500Y-11223000I-147500J0D01*
G01*
X20133500Y-13128000D02*
G75*
G03*
X20133500Y-13128000I-147500J0D01*
G01*
X20768500Y-7159000D02*
G75*
G03*
X20768500Y-7159000I-147500J0D01*
G01*
X20768500Y-9064000D02*
G75*
G03*
X20768500Y-9064000I-147500J0D01*
G01*
X20768500Y-10969000D02*
G75*
G03*
X20768500Y-10969000I-147500J0D01*
G01*
X20768500Y-12874000D02*
G75*
G03*
X20768500Y-12874000I-147500J0D01*
G01*
X22038500Y-7413000D02*
G75*
G03*
X22038500Y-7413000I-147500J0D01*
G01*
X22038500Y-9318000D02*
G75*
G03*
X22038500Y-9318000I-147500J0D01*
G01*
X22038500Y-11223000D02*
G75*
G03*
X22038500Y-11223000I-147500J0D01*
G01*
X22038500Y-13128000D02*
G75*
G03*
X22038500Y-13128000I-147500J0D01*
G01*
X22673500Y-7159000D02*
G75*
G03*
X22673500Y-7159000I-147500J0D01*
G01*
X22673500Y-9064000D02*
G75*
G03*
X22673500Y-9064000I-147500J0D01*
G01*
X22673500Y-10969000D02*
G75*
G03*
X22673500Y-10969000I-147500J0D01*
G01*
X22673500Y-12874000D02*
G75*
G03*
X22673500Y-12874000I-147500J0D01*
G01*
X23943500Y-7413000D02*
G75*
G03*
X23943500Y-7413000I-147500J0D01*
G01*
X23943500Y-9318000D02*
G75*
G03*
X23943500Y-9318000I-147500J0D01*
G01*
X23943500Y-11223000D02*
G75*
G03*
X23943500Y-11223000I-147500J0D01*
G01*
X23943500Y-13128000D02*
G75*
G03*
X23943500Y-13128000I-147500J0D01*
G01*
X24578500Y-7159000D02*
G75*
G03*
X24578500Y-7159000I-147500J0D01*
G01*
X24578500Y-9064000D02*
G75*
G03*
X24578500Y-9064000I-147500J0D01*
G01*
X24578500Y-10969000D02*
G75*
G03*
X24578500Y-10969000I-147500J0D01*
G01*
X24578500Y-12874000D02*
G75*
G03*
X24578500Y-12874000I-147500J0D01*
G01*
X5000000Y-4800991D02*
X5000000Y-5199009D01*
X4800991Y-5000000D02*
X5199009Y-5000000D01*
X5000000Y-6705991D02*
X5000000Y-7104009D01*
X4800991Y-6905000D02*
X5199009Y-6905000D01*
X5000000Y-8610991D02*
X5000000Y-9009009D01*
X4800991Y-8810000D02*
X5199009Y-8810000D01*
X5000000Y-10515991D02*
X5000000Y-10914009D01*
X4800991Y-10715000D02*
X5199009Y-10715000D01*
X5000000Y-12420991D02*
X5000000Y-12819009D01*
X4800991Y-12620000D02*
X5199009Y-12620000D01*
X6905000Y-4800991D02*
X6905000Y-5199009D01*
X6705991Y-5000000D02*
X7104009Y-5000000D01*
X6905000Y-6705991D02*
X6905000Y-7104009D01*
X6705991Y-6905000D02*
X7104009Y-6905000D01*
X6905000Y-8610991D02*
X6905000Y-9009009D01*
X6705991Y-8810000D02*
X7104009Y-8810000D01*
X6905000Y-10515991D02*
X6905000Y-10914009D01*
X6705991Y-10715000D02*
X7104009Y-10715000D01*
X6905000Y-12420991D02*
X6905000Y-12819009D01*
X6705991Y-12620000D02*
X7104009Y-12620000D01*
X8810000Y-4800991D02*
X8810000Y-5199009D01*
X8610991Y-5000000D02*
X9009009Y-5000000D01*
X8810000Y-6705991D02*
X8810000Y-7104009D01*
X8610991Y-6905000D02*
X9009009Y-6905000D01*
X8810000Y-8610991D02*
X8810000Y-9009009D01*
X8610991Y-8810000D02*
X9009009Y-8810000D01*
X8810000Y-10515991D02*
X8810000Y-10914009D01*
X8610991Y-10715000D02*
X9009009Y-10715000D01*
X8810000Y-12420991D02*
X8810000Y-12819009D01*
X8610991Y-12620000D02*
X9009009Y-12620000D01*
X10715000Y-4800991D02*
X10715000Y-5199009D01*
X10515991Y-5000000D02*
X10914009Y-5000000D01*
X10715000Y-6705991D02*
X10715000Y-7104009D01*
X10515991Y-6905000D02*
X10914009Y-6905000D01*
X10715000Y-8610991D02*
X10715000Y-9009009D01*
X10515991Y-8810000D02*
X10914009Y-8810000D01*
X10715000Y-10515991D02*
X10715000Y-10914009D01*
X10515991Y-10715000D02*
X10914009Y-10715000D01*
X10715000Y-12420991D02*
X10715000Y-12819009D01*
X10515991Y-12620000D02*
X10914009Y-12620000D01*
X12620000Y-4800991D02*
X12620000Y-5199009D01*
X12420991Y-5000000D02*
X12819009Y-5000000D01*
X12620000Y-6705991D02*
X12620000Y-7104009D01*
X12420991Y-6905000D02*
X12819009Y-6905000D01*
X12620000Y-8610991D02*
X12620000Y-9009009D01*
X12420991Y-8810000D02*
X12819009Y-8810000D01*
X12620000Y-10515991D02*
X12620000Y-10914009D01*
X12420991Y-10715000D02*
X12819009Y-10715000D01*
X12620000Y-12420991D02*
X12620000Y-12819009D01*
X12420991Y-12620000D02*
X12819009Y-12620000D01*
X14525000Y-4800991D02*
X14525000Y-5199009D01*
X14325991Y-5000000D02*
X14724009Y-5000000D01*
X14525000Y-6705991D02*
X14525000Y-7104009D01*
X14325991Y-6905000D02*
X14724009Y-6905000D01*
X14525000Y-8610991D02*
X14525000Y-9009009D01*
X14325991Y-8810000D02*
X14724009Y-8810000D01*
X14525000Y-10515991D02*
X14525000Y-10914009D01*
X14325991Y-10715000D02*
X14724009Y-10715000D01*
X16430000Y-6705991D02*
X16430000Y-7104009D01*
X16230991Y-6905000D02*
X16629009Y-6905000D01*
X16430000Y-8610991D02*
X16430000Y-9009009D01*
X16230991Y-8810000D02*
X16629009Y-8810000D01*
X16430000Y-10515991D02*
X16430000Y-10914009D01*
X16230991Y-10715000D02*
X16629009Y-10715000D01*
X16430000Y-12420991D02*
X16430000Y-12819009D01*
X16230991Y-12620000D02*
X16629009Y-12620000D01*
X18335000Y-6705991D02*
X18335000Y-7104009D01*
X18135991Y-6905000D02*
X18534009Y-6905000D01*
X18335000Y-8610991D02*
X18335000Y-9009009D01*
X18135991Y-8810000D02*
X18534009Y-8810000D01*
X18335000Y-10515991D02*
X18335000Y-10914009D01*
X18135991Y-10715000D02*
X18534009Y-10715000D01*
X18335000Y-12420991D02*
X18335000Y-12819009D01*
X18135991Y-12620000D02*
X18534009Y-12620000D01*
X20240000Y-6705991D02*
X20240000Y-7104009D01*
X20040991Y-6905000D02*
X20439009Y-6905000D01*
X20240000Y-8610991D02*
X20240000Y-9009009D01*
X20040991Y-8810000D02*
X20439009Y-8810000D01*
X20240000Y-10515991D02*
X20240000Y-10914009D01*
X20040991Y-10715000D02*
X20439009Y-10715000D01*
X20240000Y-12420991D02*
X20240000Y-12819009D01*
X20040991Y-12620000D02*
X20439009Y-12620000D01*
X22145000Y-6705991D02*
X22145000Y-7104009D01*
X21945991Y-6905000D02*
X22344009Y-6905000D01*
X22145000Y-8610991D02*
X22145000Y-9009009D01*
X21945991Y-8810000D02*
X22344009Y-8810000D01*
X22145000Y-10515991D02*
X22145000Y-10914009D01*
X21945991Y-10715000D02*
X22344009Y-10715000D01*
X22145000Y-12420991D02*
X22145000Y-12819009D01*
X21945991Y-12620000D02*
X22344009Y-12620000D01*
X24050000Y-6705991D02*
X24050000Y-7104009D01*
X23850991Y-6905000D02*
X24249009Y-6905000D01*
X24050000Y-8610991D02*
X24050000Y-9009009D01*
X23850991Y-8810000D02*
X24249009Y-8810000D01*
X24050000Y-10515991D02*
X24050000Y-10914009D01*
X23850991Y-10715000D02*
X24249009Y-10715000D01*
X24050000Y-12420991D02*
X24050000Y-12819009D01*
X23850991Y-12620000D02*
X24249009Y-12620000D01*
D12*
X4208928Y-14168214D02*
X4208928Y-13868214D01*
X4280357Y-13868214D01*
X4323214Y-13882500D01*
X4351786Y-13911071D01*
X4366071Y-13939643D01*
X4380357Y-13996786D01*
X4380357Y-14039643D01*
X4366071Y-14096786D01*
X4351786Y-14125357D01*
X4323214Y-14153929D01*
X4280357Y-14168214D01*
X4208928Y-14168214D01*
X4508928Y-14168214D02*
X4508928Y-13968214D01*
X4508928Y-14025357D02*
X4523214Y-13996786D01*
X4537500Y-13982500D01*
X4566071Y-13968214D01*
X4594643Y-13968214D01*
X4694643Y-14168214D02*
X4694643Y-13968214D01*
X4694643Y-13868214D02*
X4680357Y-13882500D01*
X4694643Y-13896786D01*
X4708928Y-13882500D01*
X4694643Y-13868214D01*
X4694643Y-13896786D01*
X4880357Y-14168214D02*
X4851786Y-14153929D01*
X4837500Y-14125357D01*
X4837500Y-13868214D01*
X5037500Y-14168214D02*
X5008928Y-14153929D01*
X4994643Y-14125357D01*
X4994643Y-13868214D01*
X5380357Y-14168214D02*
X5380357Y-13868214D01*
X5480357Y-14082500D01*
X5580357Y-13868214D01*
X5580357Y-14168214D01*
X5851786Y-14168214D02*
X5851786Y-14011071D01*
X5837500Y-13982500D01*
X5808928Y-13968214D01*
X5751786Y-13968214D01*
X5723214Y-13982500D01*
X5851786Y-14153929D02*
X5823214Y-14168214D01*
X5751786Y-14168214D01*
X5723214Y-14153929D01*
X5708928Y-14125357D01*
X5708928Y-14096786D01*
X5723214Y-14068214D01*
X5751786Y-14053929D01*
X5823214Y-14053929D01*
X5851786Y-14039643D01*
X5994643Y-13968214D02*
X5994643Y-14268214D01*
X5994643Y-13982500D02*
X6023214Y-13968214D01*
X6080357Y-13968214D01*
X6108928Y-13982500D01*
X6123214Y-13996786D01*
X6137500Y-14025357D01*
X6137500Y-14111071D01*
X6123214Y-14139643D01*
X6108928Y-14153929D01*
X6080357Y-14168214D01*
X6023214Y-14168214D01*
X5994643Y-14153929D01*
X6266071Y-14139643D02*
X6280357Y-14153929D01*
X6266071Y-14168214D01*
X6251786Y-14153929D01*
X6266071Y-14139643D01*
X6266071Y-14168214D01*
X6266071Y-13982500D02*
X6280357Y-13996786D01*
X6266071Y-14011071D01*
X6251786Y-13996786D01*
X6266071Y-13982500D01*
X6266071Y-14011071D01*
X3752500Y-14577500D02*
X3922500Y-14747500D01*
X3922500Y-14577500D02*
X3752500Y-14747500D01*
X4366071Y-14798214D02*
X4194643Y-14798214D01*
X4280357Y-14798214D02*
X4280357Y-14498214D01*
X4251786Y-14541071D01*
X4223214Y-14569643D01*
X4194643Y-14583929D01*
X4494643Y-14769643D02*
X4508928Y-14783929D01*
X4494643Y-14798214D01*
X4480357Y-14783929D01*
X4494643Y-14769643D01*
X4494643Y-14798214D01*
X4608928Y-14498214D02*
X4808928Y-14498214D01*
X4680357Y-14798214D01*
X4980357Y-14498214D02*
X5008928Y-14498214D01*
X5037500Y-14512500D01*
X5051786Y-14526786D01*
X5066071Y-14555357D01*
X5080357Y-14612500D01*
X5080357Y-14683929D01*
X5066071Y-14741071D01*
X5051786Y-14769643D01*
X5037500Y-14783929D01*
X5008928Y-14798214D01*
X4980357Y-14798214D01*
X4951786Y-14783929D01*
X4937500Y-14769643D01*
X4923214Y-14741071D01*
X4908928Y-14683929D01*
X4908928Y-14612500D01*
X4923214Y-14555357D01*
X4937500Y-14526786D01*
X4951786Y-14512500D01*
X4980357Y-14498214D01*
X5266071Y-14498214D02*
X5294643Y-14498214D01*
X5323214Y-14512500D01*
X5337500Y-14526786D01*
X5351786Y-14555357D01*
X5366071Y-14612500D01*
X5366071Y-14683929D01*
X5351786Y-14741071D01*
X5337500Y-14769643D01*
X5323214Y-14783929D01*
X5294643Y-14798214D01*
X5266071Y-14798214D01*
X5237500Y-14783929D01*
X5223214Y-14769643D01*
X5208928Y-14741071D01*
X5194643Y-14683929D01*
X5194643Y-14612500D01*
X5208928Y-14555357D01*
X5223214Y-14526786D01*
X5237500Y-14512500D01*
X5266071Y-14498214D01*
X5494643Y-14798214D02*
X5494643Y-14598214D01*
X5494643Y-14626786D02*
X5508928Y-14612500D01*
X5537500Y-14598214D01*
X5580357Y-14598214D01*
X5608928Y-14612500D01*
X5623214Y-14641071D01*
X5623214Y-14798214D01*
X5623214Y-14641071D02*
X5637500Y-14612500D01*
X5666071Y-14598214D01*
X5708928Y-14598214D01*
X5737500Y-14612500D01*
X5751786Y-14641071D01*
X5751786Y-14798214D01*
X5894643Y-14798214D02*
X5894643Y-14598214D01*
X5894643Y-14626786D02*
X5908928Y-14612500D01*
X5937500Y-14598214D01*
X5980357Y-14598214D01*
X6008928Y-14612500D01*
X6023214Y-14641071D01*
X6023214Y-14798214D01*
X6023214Y-14641071D02*
X6037500Y-14612500D01*
X6066071Y-14598214D01*
X6108928Y-14598214D01*
X6137500Y-14612500D01*
X6151786Y-14641071D01*
X6151786Y-14798214D01*
X6737500Y-14483929D02*
X6480357Y-14869643D01*
X7123214Y-14498214D02*
X7151786Y-14498214D01*
X7180357Y-14512500D01*
X7194643Y-14526786D01*
X7208928Y-14555357D01*
X7223214Y-14612500D01*
X7223214Y-14683929D01*
X7208928Y-14741071D01*
X7194643Y-14769643D01*
X7180357Y-14783929D01*
X7151786Y-14798214D01*
X7123214Y-14798214D01*
X7094643Y-14783929D01*
X7080357Y-14769643D01*
X7066071Y-14741071D01*
X7051786Y-14683929D01*
X7051786Y-14612500D01*
X7066071Y-14555357D01*
X7080357Y-14526786D01*
X7094643Y-14512500D01*
X7123214Y-14498214D01*
X7351786Y-14769643D02*
X7366071Y-14783929D01*
X7351786Y-14798214D01*
X7337500Y-14783929D01*
X7351786Y-14769643D01*
X7351786Y-14798214D01*
X7551786Y-14498214D02*
X7580357Y-14498214D01*
X7608928Y-14512500D01*
X7623214Y-14526786D01*
X7637500Y-14555357D01*
X7651786Y-14612500D01*
X7651786Y-14683929D01*
X7637500Y-14741071D01*
X7623214Y-14769643D01*
X7608928Y-14783929D01*
X7580357Y-14798214D01*
X7551786Y-14798214D01*
X7523214Y-14783929D01*
X7508928Y-14769643D01*
X7494643Y-14741071D01*
X7480357Y-14683929D01*
X7480357Y-14612500D01*
X7494643Y-14555357D01*
X7508928Y-14526786D01*
X7523214Y-14512500D01*
X7551786Y-14498214D01*
X7908928Y-14498214D02*
X7851786Y-14498214D01*
X7823214Y-14512500D01*
X7808928Y-14526786D01*
X7780357Y-14569643D01*
X7766071Y-14626786D01*
X7766071Y-14741071D01*
X7780357Y-14769643D01*
X7794643Y-14783929D01*
X7823214Y-14798214D01*
X7880357Y-14798214D01*
X7908928Y-14783929D01*
X7923214Y-14769643D01*
X7937500Y-14741071D01*
X7937500Y-14669643D01*
X7923214Y-14641071D01*
X7908928Y-14626786D01*
X7880357Y-14612500D01*
X7823214Y-14612500D01*
X7794643Y-14626786D01*
X7780357Y-14641071D01*
X7766071Y-14669643D01*
X8194643Y-14498214D02*
X8137500Y-14498214D01*
X8108928Y-14512500D01*
X8094643Y-14526786D01*
X8066071Y-14569643D01*
X8051786Y-14626786D01*
X8051786Y-14741071D01*
X8066071Y-14769643D01*
X8080357Y-14783929D01*
X8108928Y-14798214D01*
X8166071Y-14798214D01*
X8194643Y-14783929D01*
X8208928Y-14769643D01*
X8223214Y-14741071D01*
X8223214Y-14669643D01*
X8208928Y-14641071D01*
X8194643Y-14626786D01*
X8166071Y-14612500D01*
X8108928Y-14612500D01*
X8080357Y-14626786D01*
X8066071Y-14641071D01*
X8051786Y-14669643D01*
X8366071Y-14798214D02*
X8423214Y-14798214D01*
X8451786Y-14783929D01*
X8466071Y-14769643D01*
X8494643Y-14726786D01*
X8508928Y-14669643D01*
X8508928Y-14555357D01*
X8494643Y-14526786D01*
X8480357Y-14512500D01*
X8451786Y-14498214D01*
X8394643Y-14498214D01*
X8366071Y-14512500D01*
X8351786Y-14526786D01*
X8337500Y-14555357D01*
X8337500Y-14626786D01*
X8351786Y-14655357D01*
X8366071Y-14669643D01*
X8394643Y-14683929D01*
X8451786Y-14683929D01*
X8480357Y-14669643D01*
X8494643Y-14655357D01*
X8508928Y-14626786D01*
X8623214Y-14498214D02*
X8623214Y-14555357D01*
X8737500Y-14498214D02*
X8737500Y-14555357D01*
X9180357Y-14912500D02*
X9166071Y-14898214D01*
X9137500Y-14855357D01*
X9123214Y-14826786D01*
X9108928Y-14783929D01*
X9094643Y-14712500D01*
X9094643Y-14655357D01*
X9108928Y-14583929D01*
X9123214Y-14541071D01*
X9137500Y-14512500D01*
X9166071Y-14469643D01*
X9180357Y-14455357D01*
X9308928Y-14798214D02*
X9366071Y-14798214D01*
X9394643Y-14783929D01*
X9408928Y-14769643D01*
X9437500Y-14726786D01*
X9451786Y-14669643D01*
X9451786Y-14555357D01*
X9437500Y-14526786D01*
X9423214Y-14512500D01*
X9394643Y-14498214D01*
X9337500Y-14498214D01*
X9308928Y-14512500D01*
X9294643Y-14526786D01*
X9280357Y-14555357D01*
X9280357Y-14626786D01*
X9294643Y-14655357D01*
X9308928Y-14669643D01*
X9337500Y-14683929D01*
X9394643Y-14683929D01*
X9423214Y-14669643D01*
X9437500Y-14655357D01*
X9451786Y-14626786D01*
X9623214Y-14626786D02*
X9594643Y-14612500D01*
X9580357Y-14598214D01*
X9566071Y-14569643D01*
X9566071Y-14555357D01*
X9580357Y-14526786D01*
X9594643Y-14512500D01*
X9623214Y-14498214D01*
X9680357Y-14498214D01*
X9708928Y-14512500D01*
X9723214Y-14526786D01*
X9737500Y-14555357D01*
X9737500Y-14569643D01*
X9723214Y-14598214D01*
X9708928Y-14612500D01*
X9680357Y-14626786D01*
X9623214Y-14626786D01*
X9594643Y-14641071D01*
X9580357Y-14655357D01*
X9566071Y-14683929D01*
X9566071Y-14741071D01*
X9580357Y-14769643D01*
X9594643Y-14783929D01*
X9623214Y-14798214D01*
X9680357Y-14798214D01*
X9708928Y-14783929D01*
X9723214Y-14769643D01*
X9737500Y-14741071D01*
X9737500Y-14683929D01*
X9723214Y-14655357D01*
X9708928Y-14641071D01*
X9680357Y-14626786D01*
X10094643Y-14798214D02*
X10094643Y-14498214D01*
X10223214Y-14798214D02*
X10223214Y-14641071D01*
X10208928Y-14612500D01*
X10180357Y-14598214D01*
X10137500Y-14598214D01*
X10108928Y-14612500D01*
X10094643Y-14626786D01*
X10408928Y-14798214D02*
X10380357Y-14783929D01*
X10366071Y-14769643D01*
X10351786Y-14741071D01*
X10351786Y-14655357D01*
X10366071Y-14626786D01*
X10380357Y-14612500D01*
X10408928Y-14598214D01*
X10451786Y-14598214D01*
X10480357Y-14612500D01*
X10494643Y-14626786D01*
X10508928Y-14655357D01*
X10508928Y-14741071D01*
X10494643Y-14769643D01*
X10480357Y-14783929D01*
X10451786Y-14798214D01*
X10408928Y-14798214D01*
X10680357Y-14798214D02*
X10651786Y-14783929D01*
X10637500Y-14755357D01*
X10637500Y-14498214D01*
X10908928Y-14783929D02*
X10880357Y-14798214D01*
X10823214Y-14798214D01*
X10794643Y-14783929D01*
X10780357Y-14755357D01*
X10780357Y-14641071D01*
X10794643Y-14612500D01*
X10823214Y-14598214D01*
X10880357Y-14598214D01*
X10908928Y-14612500D01*
X10923214Y-14641071D01*
X10923214Y-14669643D01*
X10780357Y-14698214D01*
X11037500Y-14783929D02*
X11066071Y-14798214D01*
X11123214Y-14798214D01*
X11151786Y-14783929D01*
X11166071Y-14755357D01*
X11166071Y-14741071D01*
X11151786Y-14712500D01*
X11123214Y-14698214D01*
X11080357Y-14698214D01*
X11051786Y-14683929D01*
X11037500Y-14655357D01*
X11037500Y-14641071D01*
X11051786Y-14612500D01*
X11080357Y-14598214D01*
X11123214Y-14598214D01*
X11151786Y-14612500D01*
X11266071Y-14912500D02*
X11280357Y-14898214D01*
X11308928Y-14855357D01*
X11323214Y-14826786D01*
X11337500Y-14783929D01*
X11351786Y-14712500D01*
X11351786Y-14655357D01*
X11337500Y-14583929D01*
X11323214Y-14541071D01*
X11308928Y-14512500D01*
X11280357Y-14469643D01*
X11266071Y-14455357D01*
X11808928Y-14912500D02*
X11794643Y-14898214D01*
X11766071Y-14855357D01*
X11751786Y-14826786D01*
X11737500Y-14783929D01*
X11723214Y-14712500D01*
X11723214Y-14655357D01*
X11737500Y-14583929D01*
X11751786Y-14541071D01*
X11766071Y-14512500D01*
X11794643Y-14469643D01*
X11808928Y-14455357D01*
X11923214Y-14598214D02*
X11923214Y-14798214D01*
X11923214Y-14626786D02*
X11937500Y-14612500D01*
X11966071Y-14598214D01*
X12008928Y-14598214D01*
X12037500Y-14612500D01*
X12051786Y-14641071D01*
X12051786Y-14798214D01*
X12237500Y-14798214D02*
X12208928Y-14783929D01*
X12194643Y-14769643D01*
X12180357Y-14741071D01*
X12180357Y-14655357D01*
X12194643Y-14626786D01*
X12208928Y-14612500D01*
X12237500Y-14598214D01*
X12280357Y-14598214D01*
X12308928Y-14612500D01*
X12323214Y-14626786D01*
X12337500Y-14655357D01*
X12337500Y-14741071D01*
X12323214Y-14769643D01*
X12308928Y-14783929D01*
X12280357Y-14798214D01*
X12237500Y-14798214D01*
X12423214Y-14598214D02*
X12537500Y-14598214D01*
X12466071Y-14498214D02*
X12466071Y-14755357D01*
X12480357Y-14783929D01*
X12508928Y-14798214D01*
X12537500Y-14798214D01*
X12866071Y-14598214D02*
X12866071Y-14898214D01*
X12866071Y-14612500D02*
X12894643Y-14598214D01*
X12951786Y-14598214D01*
X12980357Y-14612500D01*
X12994643Y-14626786D01*
X13008928Y-14655357D01*
X13008928Y-14741071D01*
X12994643Y-14769643D01*
X12980357Y-14783929D01*
X12951786Y-14798214D01*
X12894643Y-14798214D01*
X12866071Y-14783929D01*
X13180357Y-14798214D02*
X13151786Y-14783929D01*
X13137500Y-14755357D01*
X13137500Y-14498214D01*
X13423214Y-14798214D02*
X13423214Y-14641071D01*
X13408928Y-14612500D01*
X13380357Y-14598214D01*
X13323214Y-14598214D01*
X13294643Y-14612500D01*
X13423214Y-14783929D02*
X13394643Y-14798214D01*
X13323214Y-14798214D01*
X13294643Y-14783929D01*
X13280357Y-14755357D01*
X13280357Y-14726786D01*
X13294643Y-14698214D01*
X13323214Y-14683929D01*
X13394643Y-14683929D01*
X13423214Y-14669643D01*
X13523214Y-14598214D02*
X13637500Y-14598214D01*
X13566071Y-14498214D02*
X13566071Y-14755357D01*
X13580357Y-14783929D01*
X13608928Y-14798214D01*
X13637500Y-14798214D01*
X13851786Y-14783929D02*
X13823214Y-14798214D01*
X13766071Y-14798214D01*
X13737500Y-14783929D01*
X13723214Y-14755357D01*
X13723214Y-14641071D01*
X13737500Y-14612500D01*
X13766071Y-14598214D01*
X13823214Y-14598214D01*
X13851786Y-14612500D01*
X13866071Y-14641071D01*
X13866071Y-14669643D01*
X13723214Y-14698214D01*
X14123214Y-14798214D02*
X14123214Y-14498214D01*
X14123214Y-14783929D02*
X14094643Y-14798214D01*
X14037500Y-14798214D01*
X14008928Y-14783929D01*
X13994643Y-14769643D01*
X13980357Y-14741071D01*
X13980357Y-14655357D01*
X13994643Y-14626786D01*
X14008928Y-14612500D01*
X14037500Y-14598214D01*
X14094643Y-14598214D01*
X14123214Y-14612500D01*
X14237500Y-14912500D02*
X14251786Y-14898214D01*
X14280357Y-14855357D01*
X14294643Y-14826786D01*
X14308928Y-14783929D01*
X14323214Y-14712500D01*
X14323214Y-14655357D01*
X14308928Y-14583929D01*
X14294643Y-14541071D01*
X14280357Y-14512500D01*
X14251786Y-14469643D01*
X14237500Y-14455357D01*
X3922500Y-15058500D02*
G75*
G03*
X3922500Y-15058500I-147500J0D01*
G01*
X4194643Y-14922786D02*
X4208928Y-14908500D01*
X4237500Y-14894214D01*
X4308928Y-14894214D01*
X4337500Y-14908500D01*
X4351786Y-14922786D01*
X4366071Y-14951357D01*
X4366071Y-14979929D01*
X4351786Y-15022786D01*
X4180357Y-15194214D01*
X4366071Y-15194214D01*
X4494643Y-15165643D02*
X4508928Y-15179929D01*
X4494643Y-15194214D01*
X4480357Y-15179929D01*
X4494643Y-15165643D01*
X4494643Y-15194214D01*
X4651786Y-15194214D02*
X4708928Y-15194214D01*
X4737500Y-15179929D01*
X4751786Y-15165643D01*
X4780357Y-15122786D01*
X4794643Y-15065643D01*
X4794643Y-14951357D01*
X4780357Y-14922786D01*
X4766071Y-14908500D01*
X4737500Y-14894214D01*
X4680357Y-14894214D01*
X4651786Y-14908500D01*
X4637500Y-14922786D01*
X4623214Y-14951357D01*
X4623214Y-15022786D01*
X4637500Y-15051357D01*
X4651786Y-15065643D01*
X4680357Y-15079929D01*
X4737500Y-15079929D01*
X4766071Y-15065643D01*
X4780357Y-15051357D01*
X4794643Y-15022786D01*
X5066071Y-14894214D02*
X4923214Y-14894214D01*
X4908928Y-15037071D01*
X4923214Y-15022786D01*
X4951786Y-15008500D01*
X5023214Y-15008500D01*
X5051786Y-15022786D01*
X5066071Y-15037071D01*
X5080357Y-15065643D01*
X5080357Y-15137071D01*
X5066071Y-15165643D01*
X5051786Y-15179929D01*
X5023214Y-15194214D01*
X4951786Y-15194214D01*
X4923214Y-15179929D01*
X4908928Y-15165643D01*
X5266071Y-14894214D02*
X5294643Y-14894214D01*
X5323214Y-14908500D01*
X5337500Y-14922786D01*
X5351786Y-14951357D01*
X5366071Y-15008500D01*
X5366071Y-15079929D01*
X5351786Y-15137071D01*
X5337500Y-15165643D01*
X5323214Y-15179929D01*
X5294643Y-15194214D01*
X5266071Y-15194214D01*
X5237500Y-15179929D01*
X5223214Y-15165643D01*
X5208928Y-15137071D01*
X5194643Y-15079929D01*
X5194643Y-15008500D01*
X5208928Y-14951357D01*
X5223214Y-14922786D01*
X5237500Y-14908500D01*
X5266071Y-14894214D01*
X5494643Y-15194214D02*
X5494643Y-14994214D01*
X5494643Y-15022786D02*
X5508928Y-15008500D01*
X5537500Y-14994214D01*
X5580357Y-14994214D01*
X5608928Y-15008500D01*
X5623214Y-15037071D01*
X5623214Y-15194214D01*
X5623214Y-15037071D02*
X5637500Y-15008500D01*
X5666071Y-14994214D01*
X5708928Y-14994214D01*
X5737500Y-15008500D01*
X5751786Y-15037071D01*
X5751786Y-15194214D01*
X5894643Y-15194214D02*
X5894643Y-14994214D01*
X5894643Y-15022786D02*
X5908928Y-15008500D01*
X5937500Y-14994214D01*
X5980357Y-14994214D01*
X6008928Y-15008500D01*
X6023214Y-15037071D01*
X6023214Y-15194214D01*
X6023214Y-15037071D02*
X6037500Y-15008500D01*
X6066071Y-14994214D01*
X6108928Y-14994214D01*
X6137500Y-15008500D01*
X6151786Y-15037071D01*
X6151786Y-15194214D01*
X6737500Y-14879929D02*
X6480357Y-15265643D01*
X7123214Y-14894214D02*
X7151786Y-14894214D01*
X7180357Y-14908500D01*
X7194643Y-14922786D01*
X7208928Y-14951357D01*
X7223214Y-15008500D01*
X7223214Y-15079929D01*
X7208928Y-15137071D01*
X7194643Y-15165643D01*
X7180357Y-15179929D01*
X7151786Y-15194214D01*
X7123214Y-15194214D01*
X7094643Y-15179929D01*
X7080357Y-15165643D01*
X7066071Y-15137071D01*
X7051786Y-15079929D01*
X7051786Y-15008500D01*
X7066071Y-14951357D01*
X7080357Y-14922786D01*
X7094643Y-14908500D01*
X7123214Y-14894214D01*
X7351786Y-15165643D02*
X7366071Y-15179929D01*
X7351786Y-15194214D01*
X7337500Y-15179929D01*
X7351786Y-15165643D01*
X7351786Y-15194214D01*
X7651786Y-15194214D02*
X7480357Y-15194214D01*
X7566071Y-15194214D02*
X7566071Y-14894214D01*
X7537500Y-14937071D01*
X7508928Y-14965643D01*
X7480357Y-14979929D01*
X7937500Y-15194214D02*
X7766071Y-15194214D01*
X7851786Y-15194214D02*
X7851786Y-14894214D01*
X7823214Y-14937071D01*
X7794643Y-14965643D01*
X7766071Y-14979929D01*
X8194643Y-14894214D02*
X8137500Y-14894214D01*
X8108928Y-14908500D01*
X8094643Y-14922786D01*
X8066071Y-14965643D01*
X8051786Y-15022786D01*
X8051786Y-15137071D01*
X8066071Y-15165643D01*
X8080357Y-15179929D01*
X8108928Y-15194214D01*
X8166071Y-15194214D01*
X8194643Y-15179929D01*
X8208928Y-15165643D01*
X8223214Y-15137071D01*
X8223214Y-15065643D01*
X8208928Y-15037071D01*
X8194643Y-15022786D01*
X8166071Y-15008500D01*
X8108928Y-15008500D01*
X8080357Y-15022786D01*
X8066071Y-15037071D01*
X8051786Y-15065643D01*
X8508928Y-15194214D02*
X8337500Y-15194214D01*
X8423214Y-15194214D02*
X8423214Y-14894214D01*
X8394643Y-14937071D01*
X8366071Y-14965643D01*
X8337500Y-14979929D01*
X8623214Y-14894214D02*
X8623214Y-14951357D01*
X8737500Y-14894214D02*
X8737500Y-14951357D01*
X9180357Y-15308500D02*
X9166071Y-15294214D01*
X9137500Y-15251357D01*
X9123214Y-15222786D01*
X9108928Y-15179929D01*
X9094643Y-15108500D01*
X9094643Y-15051357D01*
X9108928Y-14979929D01*
X9123214Y-14937071D01*
X9137500Y-14908500D01*
X9166071Y-14865643D01*
X9180357Y-14851357D01*
X9308928Y-15194214D02*
X9366071Y-15194214D01*
X9394643Y-15179929D01*
X9408928Y-15165643D01*
X9437500Y-15122786D01*
X9451786Y-15065643D01*
X9451786Y-14951357D01*
X9437500Y-14922786D01*
X9423214Y-14908500D01*
X9394643Y-14894214D01*
X9337500Y-14894214D01*
X9308928Y-14908500D01*
X9294643Y-14922786D01*
X9280357Y-14951357D01*
X9280357Y-15022786D01*
X9294643Y-15051357D01*
X9308928Y-15065643D01*
X9337500Y-15079929D01*
X9394643Y-15079929D01*
X9423214Y-15065643D01*
X9437500Y-15051357D01*
X9451786Y-15022786D01*
X9623214Y-15022786D02*
X9594643Y-15008500D01*
X9580357Y-14994214D01*
X9566071Y-14965643D01*
X9566071Y-14951357D01*
X9580357Y-14922786D01*
X9594643Y-14908500D01*
X9623214Y-14894214D01*
X9680357Y-14894214D01*
X9708928Y-14908500D01*
X9723214Y-14922786D01*
X9737500Y-14951357D01*
X9737500Y-14965643D01*
X9723214Y-14994214D01*
X9708928Y-15008500D01*
X9680357Y-15022786D01*
X9623214Y-15022786D01*
X9594643Y-15037071D01*
X9580357Y-15051357D01*
X9566071Y-15079929D01*
X9566071Y-15137071D01*
X9580357Y-15165643D01*
X9594643Y-15179929D01*
X9623214Y-15194214D01*
X9680357Y-15194214D01*
X9708928Y-15179929D01*
X9723214Y-15165643D01*
X9737500Y-15137071D01*
X9737500Y-15079929D01*
X9723214Y-15051357D01*
X9708928Y-15037071D01*
X9680357Y-15022786D01*
X10094643Y-15194214D02*
X10094643Y-14894214D01*
X10223214Y-15194214D02*
X10223214Y-15037071D01*
X10208928Y-15008500D01*
X10180357Y-14994214D01*
X10137500Y-14994214D01*
X10108928Y-15008500D01*
X10094643Y-15022786D01*
X10408928Y-15194214D02*
X10380357Y-15179929D01*
X10366071Y-15165643D01*
X10351786Y-15137071D01*
X10351786Y-15051357D01*
X10366071Y-15022786D01*
X10380357Y-15008500D01*
X10408928Y-14994214D01*
X10451786Y-14994214D01*
X10480357Y-15008500D01*
X10494643Y-15022786D01*
X10508928Y-15051357D01*
X10508928Y-15137071D01*
X10494643Y-15165643D01*
X10480357Y-15179929D01*
X10451786Y-15194214D01*
X10408928Y-15194214D01*
X10680357Y-15194214D02*
X10651786Y-15179929D01*
X10637500Y-15151357D01*
X10637500Y-14894214D01*
X10908928Y-15179929D02*
X10880357Y-15194214D01*
X10823214Y-15194214D01*
X10794643Y-15179929D01*
X10780357Y-15151357D01*
X10780357Y-15037071D01*
X10794643Y-15008500D01*
X10823214Y-14994214D01*
X10880357Y-14994214D01*
X10908928Y-15008500D01*
X10923214Y-15037071D01*
X10923214Y-15065643D01*
X10780357Y-15094214D01*
X11037500Y-15179929D02*
X11066071Y-15194214D01*
X11123214Y-15194214D01*
X11151786Y-15179929D01*
X11166071Y-15151357D01*
X11166071Y-15137071D01*
X11151786Y-15108500D01*
X11123214Y-15094214D01*
X11080357Y-15094214D01*
X11051786Y-15079929D01*
X11037500Y-15051357D01*
X11037500Y-15037071D01*
X11051786Y-15008500D01*
X11080357Y-14994214D01*
X11123214Y-14994214D01*
X11151786Y-15008500D01*
X11266071Y-15308500D02*
X11280357Y-15294214D01*
X11308928Y-15251357D01*
X11323214Y-15222786D01*
X11337500Y-15179929D01*
X11351786Y-15108500D01*
X11351786Y-15051357D01*
X11337500Y-14979929D01*
X11323214Y-14937071D01*
X11308928Y-14908500D01*
X11280357Y-14865643D01*
X11266071Y-14851357D01*
X11808928Y-15308500D02*
X11794643Y-15294214D01*
X11766071Y-15251357D01*
X11751786Y-15222786D01*
X11737500Y-15179929D01*
X11723214Y-15108500D01*
X11723214Y-15051357D01*
X11737500Y-14979929D01*
X11751786Y-14937071D01*
X11766071Y-14908500D01*
X11794643Y-14865643D01*
X11808928Y-14851357D01*
X11923214Y-14994214D02*
X11923214Y-15194214D01*
X11923214Y-15022786D02*
X11937500Y-15008500D01*
X11966071Y-14994214D01*
X12008928Y-14994214D01*
X12037500Y-15008500D01*
X12051786Y-15037071D01*
X12051786Y-15194214D01*
X12237500Y-15194214D02*
X12208928Y-15179929D01*
X12194643Y-15165643D01*
X12180357Y-15137071D01*
X12180357Y-15051357D01*
X12194643Y-15022786D01*
X12208928Y-15008500D01*
X12237500Y-14994214D01*
X12280357Y-14994214D01*
X12308928Y-15008500D01*
X12323214Y-15022786D01*
X12337500Y-15051357D01*
X12337500Y-15137071D01*
X12323214Y-15165643D01*
X12308928Y-15179929D01*
X12280357Y-15194214D01*
X12237500Y-15194214D01*
X12423214Y-14994214D02*
X12537500Y-14994214D01*
X12466071Y-14894214D02*
X12466071Y-15151357D01*
X12480357Y-15179929D01*
X12508928Y-15194214D01*
X12537500Y-15194214D01*
X12866071Y-14994214D02*
X12866071Y-15294214D01*
X12866071Y-15008500D02*
X12894643Y-14994214D01*
X12951786Y-14994214D01*
X12980357Y-15008500D01*
X12994643Y-15022786D01*
X13008928Y-15051357D01*
X13008928Y-15137071D01*
X12994643Y-15165643D01*
X12980357Y-15179929D01*
X12951786Y-15194214D01*
X12894643Y-15194214D01*
X12866071Y-15179929D01*
X13180357Y-15194214D02*
X13151786Y-15179929D01*
X13137500Y-15151357D01*
X13137500Y-14894214D01*
X13423214Y-15194214D02*
X13423214Y-15037071D01*
X13408928Y-15008500D01*
X13380357Y-14994214D01*
X13323214Y-14994214D01*
X13294643Y-15008500D01*
X13423214Y-15179929D02*
X13394643Y-15194214D01*
X13323214Y-15194214D01*
X13294643Y-15179929D01*
X13280357Y-15151357D01*
X13280357Y-15122786D01*
X13294643Y-15094214D01*
X13323214Y-15079929D01*
X13394643Y-15079929D01*
X13423214Y-15065643D01*
X13523214Y-14994214D02*
X13637500Y-14994214D01*
X13566071Y-14894214D02*
X13566071Y-15151357D01*
X13580357Y-15179929D01*
X13608928Y-15194214D01*
X13637500Y-15194214D01*
X13851786Y-15179929D02*
X13823214Y-15194214D01*
X13766071Y-15194214D01*
X13737500Y-15179929D01*
X13723214Y-15151357D01*
X13723214Y-15037071D01*
X13737500Y-15008500D01*
X13766071Y-14994214D01*
X13823214Y-14994214D01*
X13851786Y-15008500D01*
X13866071Y-15037071D01*
X13866071Y-15065643D01*
X13723214Y-15094214D01*
X14123214Y-15194214D02*
X14123214Y-14894214D01*
X14123214Y-15179929D02*
X14094643Y-15194214D01*
X14037500Y-15194214D01*
X14008928Y-15179929D01*
X13994643Y-15165643D01*
X13980357Y-15137071D01*
X13980357Y-15051357D01*
X13994643Y-15022786D01*
X14008928Y-15008500D01*
X14037500Y-14994214D01*
X14094643Y-14994214D01*
X14123214Y-15008500D01*
X14237500Y-15308500D02*
X14251786Y-15294214D01*
X14280357Y-15251357D01*
X14294643Y-15222786D01*
X14308928Y-15179929D01*
X14323214Y-15108500D01*
X14323214Y-15051357D01*
X14308928Y-14979929D01*
X14294643Y-14937071D01*
X14280357Y-14908500D01*
X14251786Y-14865643D01*
X14237500Y-14851357D01*
X3723491Y-15284491D02*
X3723491Y-15682509D01*
X3524482Y-15483500D02*
X3922500Y-15483500D01*
X4180357Y-15319214D02*
X4366071Y-15319214D01*
X4266071Y-15433500D01*
X4308928Y-15433500D01*
X4337500Y-15447786D01*
X4351786Y-15462071D01*
X4366071Y-15490643D01*
X4366071Y-15562071D01*
X4351786Y-15590643D01*
X4337500Y-15604929D01*
X4308928Y-15619214D01*
X4223214Y-15619214D01*
X4194643Y-15604929D01*
X4180357Y-15590643D01*
X4494643Y-15590643D02*
X4508928Y-15604929D01*
X4494643Y-15619214D01*
X4480357Y-15604929D01*
X4494643Y-15590643D01*
X4494643Y-15619214D01*
X4651786Y-15619214D02*
X4708928Y-15619214D01*
X4737500Y-15604929D01*
X4751786Y-15590643D01*
X4780357Y-15547786D01*
X4794643Y-15490643D01*
X4794643Y-15376357D01*
X4780357Y-15347786D01*
X4766071Y-15333500D01*
X4737500Y-15319214D01*
X4680357Y-15319214D01*
X4651786Y-15333500D01*
X4637500Y-15347786D01*
X4623214Y-15376357D01*
X4623214Y-15447786D01*
X4637500Y-15476357D01*
X4651786Y-15490643D01*
X4680357Y-15504929D01*
X4737500Y-15504929D01*
X4766071Y-15490643D01*
X4780357Y-15476357D01*
X4794643Y-15447786D01*
X4966071Y-15447786D02*
X4937500Y-15433500D01*
X4923214Y-15419214D01*
X4908928Y-15390643D01*
X4908928Y-15376357D01*
X4923214Y-15347786D01*
X4937500Y-15333500D01*
X4966071Y-15319214D01*
X5023214Y-15319214D01*
X5051786Y-15333500D01*
X5066071Y-15347786D01*
X5080357Y-15376357D01*
X5080357Y-15390643D01*
X5066071Y-15419214D01*
X5051786Y-15433500D01*
X5023214Y-15447786D01*
X4966071Y-15447786D01*
X4937500Y-15462071D01*
X4923214Y-15476357D01*
X4908928Y-15504929D01*
X4908928Y-15562071D01*
X4923214Y-15590643D01*
X4937500Y-15604929D01*
X4966071Y-15619214D01*
X5023214Y-15619214D01*
X5051786Y-15604929D01*
X5066071Y-15590643D01*
X5080357Y-15562071D01*
X5080357Y-15504929D01*
X5066071Y-15476357D01*
X5051786Y-15462071D01*
X5023214Y-15447786D01*
X5266071Y-15319214D02*
X5294643Y-15319214D01*
X5323214Y-15333500D01*
X5337500Y-15347786D01*
X5351786Y-15376357D01*
X5366071Y-15433500D01*
X5366071Y-15504929D01*
X5351786Y-15562071D01*
X5337500Y-15590643D01*
X5323214Y-15604929D01*
X5294643Y-15619214D01*
X5266071Y-15619214D01*
X5237500Y-15604929D01*
X5223214Y-15590643D01*
X5208928Y-15562071D01*
X5194643Y-15504929D01*
X5194643Y-15433500D01*
X5208928Y-15376357D01*
X5223214Y-15347786D01*
X5237500Y-15333500D01*
X5266071Y-15319214D01*
X5494643Y-15619214D02*
X5494643Y-15419214D01*
X5494643Y-15447786D02*
X5508928Y-15433500D01*
X5537500Y-15419214D01*
X5580357Y-15419214D01*
X5608928Y-15433500D01*
X5623214Y-15462071D01*
X5623214Y-15619214D01*
X5623214Y-15462071D02*
X5637500Y-15433500D01*
X5666071Y-15419214D01*
X5708928Y-15419214D01*
X5737500Y-15433500D01*
X5751786Y-15462071D01*
X5751786Y-15619214D01*
X5894643Y-15619214D02*
X5894643Y-15419214D01*
X5894643Y-15447786D02*
X5908928Y-15433500D01*
X5937500Y-15419214D01*
X5980357Y-15419214D01*
X6008928Y-15433500D01*
X6023214Y-15462071D01*
X6023214Y-15619214D01*
X6023214Y-15462071D02*
X6037500Y-15433500D01*
X6066071Y-15419214D01*
X6108928Y-15419214D01*
X6137500Y-15433500D01*
X6151786Y-15462071D01*
X6151786Y-15619214D01*
X6737500Y-15304929D02*
X6480357Y-15690643D01*
X7123214Y-15319214D02*
X7151786Y-15319214D01*
X7180357Y-15333500D01*
X7194643Y-15347786D01*
X7208928Y-15376357D01*
X7223214Y-15433500D01*
X7223214Y-15504929D01*
X7208928Y-15562071D01*
X7194643Y-15590643D01*
X7180357Y-15604929D01*
X7151786Y-15619214D01*
X7123214Y-15619214D01*
X7094643Y-15604929D01*
X7080357Y-15590643D01*
X7066071Y-15562071D01*
X7051786Y-15504929D01*
X7051786Y-15433500D01*
X7066071Y-15376357D01*
X7080357Y-15347786D01*
X7094643Y-15333500D01*
X7123214Y-15319214D01*
X7351786Y-15590643D02*
X7366071Y-15604929D01*
X7351786Y-15619214D01*
X7337500Y-15604929D01*
X7351786Y-15590643D01*
X7351786Y-15619214D01*
X7651786Y-15619214D02*
X7480357Y-15619214D01*
X7566071Y-15619214D02*
X7566071Y-15319214D01*
X7537500Y-15362071D01*
X7508928Y-15390643D01*
X7480357Y-15404929D01*
X7923214Y-15319214D02*
X7780357Y-15319214D01*
X7766071Y-15462071D01*
X7780357Y-15447786D01*
X7808928Y-15433500D01*
X7880357Y-15433500D01*
X7908928Y-15447786D01*
X7923214Y-15462071D01*
X7937500Y-15490643D01*
X7937500Y-15562071D01*
X7923214Y-15590643D01*
X7908928Y-15604929D01*
X7880357Y-15619214D01*
X7808928Y-15619214D01*
X7780357Y-15604929D01*
X7766071Y-15590643D01*
X8194643Y-15319214D02*
X8137500Y-15319214D01*
X8108928Y-15333500D01*
X8094643Y-15347786D01*
X8066071Y-15390643D01*
X8051786Y-15447786D01*
X8051786Y-15562071D01*
X8066071Y-15590643D01*
X8080357Y-15604929D01*
X8108928Y-15619214D01*
X8166071Y-15619214D01*
X8194643Y-15604929D01*
X8208928Y-15590643D01*
X8223214Y-15562071D01*
X8223214Y-15490643D01*
X8208928Y-15462071D01*
X8194643Y-15447786D01*
X8166071Y-15433500D01*
X8108928Y-15433500D01*
X8080357Y-15447786D01*
X8066071Y-15462071D01*
X8051786Y-15490643D01*
X8323214Y-15319214D02*
X8523214Y-15319214D01*
X8394643Y-15619214D01*
X8623214Y-15319214D02*
X8623214Y-15376357D01*
X8737500Y-15319214D02*
X8737500Y-15376357D01*
X9180357Y-15733500D02*
X9166071Y-15719214D01*
X9137500Y-15676357D01*
X9123214Y-15647786D01*
X9108928Y-15604929D01*
X9094643Y-15533500D01*
X9094643Y-15476357D01*
X9108928Y-15404929D01*
X9123214Y-15362071D01*
X9137500Y-15333500D01*
X9166071Y-15290643D01*
X9180357Y-15276357D01*
X9423214Y-15419214D02*
X9423214Y-15619214D01*
X9351786Y-15304929D02*
X9280357Y-15519214D01*
X9466071Y-15519214D01*
X9594643Y-15619214D02*
X9651786Y-15619214D01*
X9680357Y-15604929D01*
X9694643Y-15590643D01*
X9723214Y-15547786D01*
X9737500Y-15490643D01*
X9737500Y-15376357D01*
X9723214Y-15347786D01*
X9708928Y-15333500D01*
X9680357Y-15319214D01*
X9623214Y-15319214D01*
X9594643Y-15333500D01*
X9580357Y-15347786D01*
X9566071Y-15376357D01*
X9566071Y-15447786D01*
X9580357Y-15476357D01*
X9594643Y-15490643D01*
X9623214Y-15504929D01*
X9680357Y-15504929D01*
X9708928Y-15490643D01*
X9723214Y-15476357D01*
X9737500Y-15447786D01*
X10094643Y-15619214D02*
X10094643Y-15319214D01*
X10223214Y-15619214D02*
X10223214Y-15462071D01*
X10208928Y-15433500D01*
X10180357Y-15419214D01*
X10137500Y-15419214D01*
X10108928Y-15433500D01*
X10094643Y-15447786D01*
X10408928Y-15619214D02*
X10380357Y-15604929D01*
X10366071Y-15590643D01*
X10351786Y-15562071D01*
X10351786Y-15476357D01*
X10366071Y-15447786D01*
X10380357Y-15433500D01*
X10408928Y-15419214D01*
X10451786Y-15419214D01*
X10480357Y-15433500D01*
X10494643Y-15447786D01*
X10508928Y-15476357D01*
X10508928Y-15562071D01*
X10494643Y-15590643D01*
X10480357Y-15604929D01*
X10451786Y-15619214D01*
X10408928Y-15619214D01*
X10680357Y-15619214D02*
X10651786Y-15604929D01*
X10637500Y-15576357D01*
X10637500Y-15319214D01*
X10908928Y-15604929D02*
X10880357Y-15619214D01*
X10823214Y-15619214D01*
X10794643Y-15604929D01*
X10780357Y-15576357D01*
X10780357Y-15462071D01*
X10794643Y-15433500D01*
X10823214Y-15419214D01*
X10880357Y-15419214D01*
X10908928Y-15433500D01*
X10923214Y-15462071D01*
X10923214Y-15490643D01*
X10780357Y-15519214D01*
X11037500Y-15604929D02*
X11066071Y-15619214D01*
X11123214Y-15619214D01*
X11151786Y-15604929D01*
X11166071Y-15576357D01*
X11166071Y-15562071D01*
X11151786Y-15533500D01*
X11123214Y-15519214D01*
X11080357Y-15519214D01*
X11051786Y-15504929D01*
X11037500Y-15476357D01*
X11037500Y-15462071D01*
X11051786Y-15433500D01*
X11080357Y-15419214D01*
X11123214Y-15419214D01*
X11151786Y-15433500D01*
X11266071Y-15733500D02*
X11280357Y-15719214D01*
X11308928Y-15676357D01*
X11323214Y-15647786D01*
X11337500Y-15604929D01*
X11351786Y-15533500D01*
X11351786Y-15476357D01*
X11337500Y-15404929D01*
X11323214Y-15362071D01*
X11308928Y-15333500D01*
X11280357Y-15290643D01*
X11266071Y-15276357D01*
X11808928Y-15733500D02*
X11794643Y-15719214D01*
X11766071Y-15676357D01*
X11751786Y-15647786D01*
X11737500Y-15604929D01*
X11723214Y-15533500D01*
X11723214Y-15476357D01*
X11737500Y-15404929D01*
X11751786Y-15362071D01*
X11766071Y-15333500D01*
X11794643Y-15290643D01*
X11808928Y-15276357D01*
X11923214Y-15419214D02*
X11923214Y-15619214D01*
X11923214Y-15447786D02*
X11937500Y-15433500D01*
X11966071Y-15419214D01*
X12008928Y-15419214D01*
X12037500Y-15433500D01*
X12051786Y-15462071D01*
X12051786Y-15619214D01*
X12237500Y-15619214D02*
X12208928Y-15604929D01*
X12194643Y-15590643D01*
X12180357Y-15562071D01*
X12180357Y-15476357D01*
X12194643Y-15447786D01*
X12208928Y-15433500D01*
X12237500Y-15419214D01*
X12280357Y-15419214D01*
X12308928Y-15433500D01*
X12323214Y-15447786D01*
X12337500Y-15476357D01*
X12337500Y-15562071D01*
X12323214Y-15590643D01*
X12308928Y-15604929D01*
X12280357Y-15619214D01*
X12237500Y-15619214D01*
X12423214Y-15419214D02*
X12537500Y-15419214D01*
X12466071Y-15319214D02*
X12466071Y-15576357D01*
X12480357Y-15604929D01*
X12508928Y-15619214D01*
X12537500Y-15619214D01*
X12866071Y-15419214D02*
X12866071Y-15719214D01*
X12866071Y-15433500D02*
X12894643Y-15419214D01*
X12951786Y-15419214D01*
X12980357Y-15433500D01*
X12994643Y-15447786D01*
X13008928Y-15476357D01*
X13008928Y-15562071D01*
X12994643Y-15590643D01*
X12980357Y-15604929D01*
X12951786Y-15619214D01*
X12894643Y-15619214D01*
X12866071Y-15604929D01*
X13180357Y-15619214D02*
X13151786Y-15604929D01*
X13137500Y-15576357D01*
X13137500Y-15319214D01*
X13423214Y-15619214D02*
X13423214Y-15462071D01*
X13408928Y-15433500D01*
X13380357Y-15419214D01*
X13323214Y-15419214D01*
X13294643Y-15433500D01*
X13423214Y-15604929D02*
X13394643Y-15619214D01*
X13323214Y-15619214D01*
X13294643Y-15604929D01*
X13280357Y-15576357D01*
X13280357Y-15547786D01*
X13294643Y-15519214D01*
X13323214Y-15504929D01*
X13394643Y-15504929D01*
X13423214Y-15490643D01*
X13523214Y-15419214D02*
X13637500Y-15419214D01*
X13566071Y-15319214D02*
X13566071Y-15576357D01*
X13580357Y-15604929D01*
X13608928Y-15619214D01*
X13637500Y-15619214D01*
X13851786Y-15604929D02*
X13823214Y-15619214D01*
X13766071Y-15619214D01*
X13737500Y-15604929D01*
X13723214Y-15576357D01*
X13723214Y-15462071D01*
X13737500Y-15433500D01*
X13766071Y-15419214D01*
X13823214Y-15419214D01*
X13851786Y-15433500D01*
X13866071Y-15462071D01*
X13866071Y-15490643D01*
X13723214Y-15519214D01*
X14123214Y-15619214D02*
X14123214Y-15319214D01*
X14123214Y-15604929D02*
X14094643Y-15619214D01*
X14037500Y-15619214D01*
X14008928Y-15604929D01*
X13994643Y-15590643D01*
X13980357Y-15562071D01*
X13980357Y-15476357D01*
X13994643Y-15447786D01*
X14008928Y-15433500D01*
X14037500Y-15419214D01*
X14094643Y-15419214D01*
X14123214Y-15433500D01*
X14237500Y-15733500D02*
X14251786Y-15719214D01*
X14280357Y-15676357D01*
X14294643Y-15647786D01*
X14308928Y-15604929D01*
X14323214Y-15533500D01*
X14323214Y-15476357D01*
X14308928Y-15404929D01*
X14294643Y-15362071D01*
X14280357Y-15333500D01*
X14251786Y-15290643D01*
X14237500Y-15276357D01*
M02*
