%FSLAX45Y45*%
G04 Gerber Fmt 4.5, Leading zero omitted, Abs format (unit mm)*
G04 Created by KiCad (PCBNEW (5.1.10)-1) date 2021-10-22 01:43:09*
%MOMM*%
%LPD*%
G01*
G04 APERTURE LIST*
%TA.AperFunction,Profile*%
%ADD10C,0.050000*%
%TD*%
%ADD11C,0.200000*%
%ADD12C,0.300000*%
G04 APERTURE END LIST*
D10*
X15642500Y-5825000D02*
X25000000Y-5825000D01*
X15600000Y-5782500D02*
X15600000Y-4050000D01*
X15642500Y-5825000D02*
G75*
G02*
X15600000Y-5782500I0J42500D01*
G01*
X25000000Y-5824975D02*
G75*
G02*
X25127500Y-5950000I0J-127525D01*
G01*
X25125000Y-13575000D02*
G75*
G02*
X25000000Y-13700000I-125000J0D01*
G01*
X15475000Y-3925000D02*
G75*
G02*
X15600000Y-4050000I0J-125000D01*
G01*
X4050000Y-13700000D02*
G75*
G02*
X3925000Y-13575000I0J125000D01*
G01*
X3925000Y-4050000D02*
G75*
G02*
X4050000Y-3925000I125000J0D01*
G01*
X3925000Y-4050000D02*
X3925000Y-13575000D01*
X15475000Y-3925000D02*
X4050000Y-3925000D01*
X25125000Y-13575000D02*
X25127500Y-5950000D01*
X4050000Y-13700000D02*
X25000000Y-13700000D01*
D11*
X11605000Y-8255000D02*
X11645000Y-8295000D01*
X11645000Y-8255000D02*
X11605000Y-8295000D01*
X11679950Y-10179950D02*
X11719950Y-10219950D01*
X11719950Y-10179950D02*
X11679950Y-10219950D01*
X11755000Y-12080000D02*
X11795000Y-12120000D01*
X11795000Y-12080000D02*
X11755000Y-12120000D01*
X15126746Y-6105868D02*
X15166746Y-6145868D01*
X15166746Y-6105868D02*
X15126746Y-6145868D01*
X15223370Y-6080097D02*
X15263370Y-6120097D01*
X15263370Y-6080097D02*
X15223370Y-6120097D01*
X15321913Y-6063086D02*
X15361913Y-6103086D01*
X15361913Y-6063086D02*
X15321913Y-6103086D01*
X4668530Y-4600000D02*
G75*
G03*
X4668530Y-4600000I-49530J0D01*
G01*
X4668530Y-6505000D02*
G75*
G03*
X4668530Y-6505000I-49530J0D01*
G01*
X4668530Y-8410000D02*
G75*
G03*
X4668530Y-8410000I-49530J0D01*
G01*
X4668530Y-10315000D02*
G75*
G03*
X4668530Y-10315000I-49530J0D01*
G01*
X4668530Y-12220000D02*
G75*
G03*
X4668530Y-12220000I-49530J0D01*
G01*
X5430530Y-4600000D02*
G75*
G03*
X5430530Y-4600000I-49530J0D01*
G01*
X5430530Y-6505000D02*
G75*
G03*
X5430530Y-6505000I-49530J0D01*
G01*
X5430530Y-8410000D02*
G75*
G03*
X5430530Y-8410000I-49530J0D01*
G01*
X5430530Y-10315000D02*
G75*
G03*
X5430530Y-10315000I-49530J0D01*
G01*
X5430530Y-12220000D02*
G75*
G03*
X5430530Y-12220000I-49530J0D01*
G01*
X6573530Y-4600000D02*
G75*
G03*
X6573530Y-4600000I-49530J0D01*
G01*
X6573530Y-6505000D02*
G75*
G03*
X6573530Y-6505000I-49530J0D01*
G01*
X6573530Y-8410000D02*
G75*
G03*
X6573530Y-8410000I-49530J0D01*
G01*
X6573530Y-10315000D02*
G75*
G03*
X6573530Y-10315000I-49530J0D01*
G01*
X6573530Y-12220000D02*
G75*
G03*
X6573530Y-12220000I-49530J0D01*
G01*
X7335530Y-4600000D02*
G75*
G03*
X7335530Y-4600000I-49530J0D01*
G01*
X7335530Y-6505000D02*
G75*
G03*
X7335530Y-6505000I-49530J0D01*
G01*
X7335530Y-8410000D02*
G75*
G03*
X7335530Y-8410000I-49530J0D01*
G01*
X7335530Y-10315000D02*
G75*
G03*
X7335530Y-10315000I-49530J0D01*
G01*
X7335530Y-12220000D02*
G75*
G03*
X7335530Y-12220000I-49530J0D01*
G01*
X8478530Y-4600000D02*
G75*
G03*
X8478530Y-4600000I-49530J0D01*
G01*
X8478530Y-6505000D02*
G75*
G03*
X8478530Y-6505000I-49530J0D01*
G01*
X8478530Y-8410000D02*
G75*
G03*
X8478530Y-8410000I-49530J0D01*
G01*
X8478530Y-10315000D02*
G75*
G03*
X8478530Y-10315000I-49530J0D01*
G01*
X8478530Y-12220000D02*
G75*
G03*
X8478530Y-12220000I-49530J0D01*
G01*
X9240530Y-4600000D02*
G75*
G03*
X9240530Y-4600000I-49530J0D01*
G01*
X9240530Y-6505000D02*
G75*
G03*
X9240530Y-6505000I-49530J0D01*
G01*
X9240530Y-8410000D02*
G75*
G03*
X9240530Y-8410000I-49530J0D01*
G01*
X9240530Y-10315000D02*
G75*
G03*
X9240530Y-10315000I-49530J0D01*
G01*
X9240530Y-12220000D02*
G75*
G03*
X9240530Y-12220000I-49530J0D01*
G01*
X10383530Y-4600000D02*
G75*
G03*
X10383530Y-4600000I-49530J0D01*
G01*
X10383530Y-6505000D02*
G75*
G03*
X10383530Y-6505000I-49530J0D01*
G01*
X10383530Y-8410000D02*
G75*
G03*
X10383530Y-8410000I-49530J0D01*
G01*
X10383530Y-10315000D02*
G75*
G03*
X10383530Y-10315000I-49530J0D01*
G01*
X10383530Y-12220000D02*
G75*
G03*
X10383530Y-12220000I-49530J0D01*
G01*
X11145530Y-4600000D02*
G75*
G03*
X11145530Y-4600000I-49530J0D01*
G01*
X11145530Y-6505000D02*
G75*
G03*
X11145530Y-6505000I-49530J0D01*
G01*
X11145530Y-8410000D02*
G75*
G03*
X11145530Y-8410000I-49530J0D01*
G01*
X11145530Y-10315000D02*
G75*
G03*
X11145530Y-10315000I-49530J0D01*
G01*
X11145530Y-12220000D02*
G75*
G03*
X11145530Y-12220000I-49530J0D01*
G01*
X12288530Y-6200000D02*
G75*
G03*
X12288530Y-6200000I-49530J0D01*
G01*
X12288530Y-6505000D02*
G75*
G03*
X12288530Y-6505000I-49530J0D01*
G01*
X12288530Y-8410000D02*
G75*
G03*
X12288530Y-8410000I-49530J0D01*
G01*
X12288530Y-10315000D02*
G75*
G03*
X12288530Y-10315000I-49530J0D01*
G01*
X12288530Y-12220000D02*
G75*
G03*
X12288530Y-12220000I-49530J0D01*
G01*
X13050530Y-6200000D02*
G75*
G03*
X13050530Y-6200000I-49530J0D01*
G01*
X13050530Y-6505000D02*
G75*
G03*
X13050530Y-6505000I-49530J0D01*
G01*
X13050530Y-8410000D02*
G75*
G03*
X13050530Y-8410000I-49530J0D01*
G01*
X13050530Y-10315000D02*
G75*
G03*
X13050530Y-10315000I-49530J0D01*
G01*
X13050530Y-12220000D02*
G75*
G03*
X13050530Y-12220000I-49530J0D01*
G01*
X14193530Y-6200000D02*
G75*
G03*
X14193530Y-6200000I-49530J0D01*
G01*
X14193530Y-6505000D02*
G75*
G03*
X14193530Y-6505000I-49530J0D01*
G01*
X14193530Y-8410000D02*
G75*
G03*
X14193530Y-8410000I-49530J0D01*
G01*
X14193530Y-10315000D02*
G75*
G03*
X14193530Y-10315000I-49530J0D01*
G01*
X14209530Y-11975000D02*
G75*
G03*
X14209530Y-11975000I-49530J0D01*
G01*
X14955530Y-6200000D02*
G75*
G03*
X14955530Y-6200000I-49530J0D01*
G01*
X14955530Y-6505000D02*
G75*
G03*
X14955530Y-6505000I-49530J0D01*
G01*
X14955530Y-8410000D02*
G75*
G03*
X14955530Y-8410000I-49530J0D01*
G01*
X14955530Y-10315000D02*
G75*
G03*
X14955530Y-10315000I-49530J0D01*
G01*
X14971530Y-11975000D02*
G75*
G03*
X14971530Y-11975000I-49530J0D01*
G01*
X16098530Y-6505000D02*
G75*
G03*
X16098530Y-6505000I-49530J0D01*
G01*
X16098530Y-8410000D02*
G75*
G03*
X16098530Y-8410000I-49530J0D01*
G01*
X16098530Y-10315000D02*
G75*
G03*
X16098530Y-10315000I-49530J0D01*
G01*
X16098530Y-12220000D02*
G75*
G03*
X16098530Y-12220000I-49530J0D01*
G01*
X16860530Y-6505000D02*
G75*
G03*
X16860530Y-6505000I-49530J0D01*
G01*
X16860530Y-8410000D02*
G75*
G03*
X16860530Y-8410000I-49530J0D01*
G01*
X16860530Y-10315000D02*
G75*
G03*
X16860530Y-10315000I-49530J0D01*
G01*
X16860530Y-12220000D02*
G75*
G03*
X16860530Y-12220000I-49530J0D01*
G01*
X18003530Y-6505000D02*
G75*
G03*
X18003530Y-6505000I-49530J0D01*
G01*
X18003530Y-8410000D02*
G75*
G03*
X18003530Y-8410000I-49530J0D01*
G01*
X18003530Y-10315000D02*
G75*
G03*
X18003530Y-10315000I-49530J0D01*
G01*
X18003530Y-12220000D02*
G75*
G03*
X18003530Y-12220000I-49530J0D01*
G01*
X18765530Y-6505000D02*
G75*
G03*
X18765530Y-6505000I-49530J0D01*
G01*
X18765530Y-8410000D02*
G75*
G03*
X18765530Y-8410000I-49530J0D01*
G01*
X18765530Y-10315000D02*
G75*
G03*
X18765530Y-10315000I-49530J0D01*
G01*
X18765530Y-12220000D02*
G75*
G03*
X18765530Y-12220000I-49530J0D01*
G01*
X19908530Y-6505000D02*
G75*
G03*
X19908530Y-6505000I-49530J0D01*
G01*
X19908530Y-8410000D02*
G75*
G03*
X19908530Y-8410000I-49530J0D01*
G01*
X19908530Y-10315000D02*
G75*
G03*
X19908530Y-10315000I-49530J0D01*
G01*
X19908530Y-12220000D02*
G75*
G03*
X19908530Y-12220000I-49530J0D01*
G01*
X20670530Y-6505000D02*
G75*
G03*
X20670530Y-6505000I-49530J0D01*
G01*
X20670530Y-8410000D02*
G75*
G03*
X20670530Y-8410000I-49530J0D01*
G01*
X20670530Y-10315000D02*
G75*
G03*
X20670530Y-10315000I-49530J0D01*
G01*
X20670530Y-12220000D02*
G75*
G03*
X20670530Y-12220000I-49530J0D01*
G01*
X21813530Y-6505000D02*
G75*
G03*
X21813530Y-6505000I-49530J0D01*
G01*
X21813530Y-8410000D02*
G75*
G03*
X21813530Y-8410000I-49530J0D01*
G01*
X21813530Y-10315000D02*
G75*
G03*
X21813530Y-10315000I-49530J0D01*
G01*
X21813530Y-12220000D02*
G75*
G03*
X21813530Y-12220000I-49530J0D01*
G01*
X22575530Y-6505000D02*
G75*
G03*
X22575530Y-6505000I-49530J0D01*
G01*
X22575530Y-8410000D02*
G75*
G03*
X22575530Y-8410000I-49530J0D01*
G01*
X22575530Y-10315000D02*
G75*
G03*
X22575530Y-10315000I-49530J0D01*
G01*
X22575530Y-12220000D02*
G75*
G03*
X22575530Y-12220000I-49530J0D01*
G01*
X23718530Y-6505000D02*
G75*
G03*
X23718530Y-6505000I-49530J0D01*
G01*
X23718530Y-8410000D02*
G75*
G03*
X23718530Y-8410000I-49530J0D01*
G01*
X23718530Y-10315000D02*
G75*
G03*
X23718530Y-10315000I-49530J0D01*
G01*
X23718530Y-12220000D02*
G75*
G03*
X23718530Y-12220000I-49530J0D01*
G01*
X24480530Y-6505000D02*
G75*
G03*
X24480530Y-6505000I-49530J0D01*
G01*
X24480530Y-8410000D02*
G75*
G03*
X24480530Y-8410000I-49530J0D01*
G01*
X24480530Y-10315000D02*
G75*
G03*
X24480530Y-10315000I-49530J0D01*
G01*
X24480530Y-12220000D02*
G75*
G03*
X24480530Y-12220000I-49530J0D01*
G01*
X12298000Y-4033390D02*
X12298000Y-4142610D01*
X12243390Y-4088000D02*
X12352610Y-4088000D01*
X12298000Y-5557390D02*
X12298000Y-5666610D01*
X12243390Y-5612000D02*
X12352610Y-5612000D01*
X12552000Y-4033390D02*
X12552000Y-4142610D01*
X12497390Y-4088000D02*
X12606610Y-4088000D01*
X12552000Y-5557390D02*
X12552000Y-5666610D01*
X12497390Y-5612000D02*
X12606610Y-5612000D01*
X12806000Y-4033390D02*
X12806000Y-4142610D01*
X12751390Y-4088000D02*
X12860610Y-4088000D01*
X12806000Y-5557390D02*
X12806000Y-5666610D01*
X12751390Y-5612000D02*
X12860610Y-5612000D01*
X13060000Y-4033390D02*
X13060000Y-4142610D01*
X13005390Y-4088000D02*
X13114610Y-4088000D01*
X13060000Y-5557390D02*
X13060000Y-5666610D01*
X13005390Y-5612000D02*
X13114610Y-5612000D01*
X13314000Y-4033390D02*
X13314000Y-4142610D01*
X13259390Y-4088000D02*
X13368610Y-4088000D01*
X13314000Y-5557390D02*
X13314000Y-5666610D01*
X13259390Y-5612000D02*
X13368610Y-5612000D01*
X13568000Y-4033390D02*
X13568000Y-4142610D01*
X13513390Y-4088000D02*
X13622610Y-4088000D01*
X13568000Y-5557390D02*
X13568000Y-5666610D01*
X13513390Y-5612000D02*
X13622610Y-5612000D01*
X13822000Y-4033390D02*
X13822000Y-4142610D01*
X13767390Y-4088000D02*
X13876610Y-4088000D01*
X13822000Y-5557390D02*
X13822000Y-5666610D01*
X13767390Y-5612000D02*
X13876610Y-5612000D01*
X14076000Y-4033390D02*
X14076000Y-4142610D01*
X14021390Y-4088000D02*
X14130610Y-4088000D01*
X14076000Y-5557390D02*
X14076000Y-5666610D01*
X14021390Y-5612000D02*
X14130610Y-5612000D01*
X14330000Y-4033390D02*
X14330000Y-4142610D01*
X14275390Y-4088000D02*
X14384610Y-4088000D01*
X14330000Y-5557390D02*
X14330000Y-5666610D01*
X14275390Y-5612000D02*
X14384610Y-5612000D01*
X14584000Y-4033390D02*
X14584000Y-4142610D01*
X14529390Y-4088000D02*
X14638610Y-4088000D01*
X14584000Y-5557390D02*
X14584000Y-5666610D01*
X14529390Y-5612000D02*
X14638610Y-5612000D01*
X14838000Y-4033390D02*
X14838000Y-4142610D01*
X14783390Y-4088000D02*
X14892610Y-4088000D01*
X14838000Y-5557390D02*
X14838000Y-5666610D01*
X14783390Y-5612000D02*
X14892610Y-5612000D01*
X15092000Y-4033390D02*
X15092000Y-4142610D01*
X15037390Y-4088000D02*
X15146610Y-4088000D01*
X15092000Y-5557390D02*
X15092000Y-5666610D01*
X15037390Y-5612000D02*
X15146610Y-5612000D01*
X14052427Y-12337427D02*
X14052427Y-12252573D01*
X13967573Y-12252573D01*
X13967573Y-12337427D01*
X14052427Y-12337427D01*
X14052427Y-12617427D02*
X14052427Y-12532573D01*
X13967573Y-12532573D01*
X13967573Y-12617427D01*
X14052427Y-12617427D01*
X14052427Y-12987427D02*
X14052427Y-12902573D01*
X13967573Y-12902573D01*
X13967573Y-12987427D01*
X14052427Y-12987427D01*
X15082427Y-12337427D02*
X15082427Y-12252573D01*
X14997573Y-12252573D01*
X14997573Y-12337427D01*
X15082427Y-12337427D01*
X15082427Y-12617427D02*
X15082427Y-12532573D01*
X14997573Y-12532573D01*
X14997573Y-12617427D01*
X15082427Y-12617427D01*
X15082427Y-12987427D02*
X15082427Y-12902573D01*
X14997573Y-12902573D01*
X14997573Y-12987427D01*
X15082427Y-12987427D01*
X8810000Y-6112500D02*
X8970000Y-5952500D01*
X8810000Y-5792500D01*
X8650000Y-5952500D01*
X8810000Y-6112500D01*
X8810000Y-11827500D02*
X8970000Y-11667500D01*
X8810000Y-11507500D01*
X8650000Y-11667500D01*
X8810000Y-11827500D01*
X20240000Y-8017500D02*
X20400000Y-7857500D01*
X20240000Y-7697500D01*
X20080000Y-7857500D01*
X20240000Y-8017500D01*
X20240000Y-11827500D02*
X20400000Y-11667500D01*
X20240000Y-11507500D01*
X20080000Y-11667500D01*
X20240000Y-11827500D01*
D12*
X4208928Y-14168214D02*
X4208928Y-13868214D01*
X4280357Y-13868214D01*
X4323214Y-13882500D01*
X4351786Y-13911071D01*
X4366071Y-13939643D01*
X4380357Y-13996786D01*
X4380357Y-14039643D01*
X4366071Y-14096786D01*
X4351786Y-14125357D01*
X4323214Y-14153929D01*
X4280357Y-14168214D01*
X4208928Y-14168214D01*
X4508928Y-14168214D02*
X4508928Y-13968214D01*
X4508928Y-14025357D02*
X4523214Y-13996786D01*
X4537500Y-13982500D01*
X4566071Y-13968214D01*
X4594643Y-13968214D01*
X4694643Y-14168214D02*
X4694643Y-13968214D01*
X4694643Y-13868214D02*
X4680357Y-13882500D01*
X4694643Y-13896786D01*
X4708928Y-13882500D01*
X4694643Y-13868214D01*
X4694643Y-13896786D01*
X4880357Y-14168214D02*
X4851786Y-14153929D01*
X4837500Y-14125357D01*
X4837500Y-13868214D01*
X5037500Y-14168214D02*
X5008928Y-14153929D01*
X4994643Y-14125357D01*
X4994643Y-13868214D01*
X5380357Y-14168214D02*
X5380357Y-13868214D01*
X5480357Y-14082500D01*
X5580357Y-13868214D01*
X5580357Y-14168214D01*
X5851786Y-14168214D02*
X5851786Y-14011071D01*
X5837500Y-13982500D01*
X5808928Y-13968214D01*
X5751786Y-13968214D01*
X5723214Y-13982500D01*
X5851786Y-14153929D02*
X5823214Y-14168214D01*
X5751786Y-14168214D01*
X5723214Y-14153929D01*
X5708928Y-14125357D01*
X5708928Y-14096786D01*
X5723214Y-14068214D01*
X5751786Y-14053929D01*
X5823214Y-14053929D01*
X5851786Y-14039643D01*
X5994643Y-13968214D02*
X5994643Y-14268214D01*
X5994643Y-13982500D02*
X6023214Y-13968214D01*
X6080357Y-13968214D01*
X6108928Y-13982500D01*
X6123214Y-13996786D01*
X6137500Y-14025357D01*
X6137500Y-14111071D01*
X6123214Y-14139643D01*
X6108928Y-14153929D01*
X6080357Y-14168214D01*
X6023214Y-14168214D01*
X5994643Y-14153929D01*
X6266071Y-14139643D02*
X6280357Y-14153929D01*
X6266071Y-14168214D01*
X6251786Y-14153929D01*
X6266071Y-14139643D01*
X6266071Y-14168214D01*
X6266071Y-13982500D02*
X6280357Y-13996786D01*
X6266071Y-14011071D01*
X6251786Y-13996786D01*
X6266071Y-13982500D01*
X6266071Y-14011071D01*
X3882500Y-14642500D02*
X3922500Y-14682500D01*
X3922500Y-14642500D02*
X3882500Y-14682500D01*
X4266071Y-14498214D02*
X4294643Y-14498214D01*
X4323214Y-14512500D01*
X4337500Y-14526786D01*
X4351786Y-14555357D01*
X4366071Y-14612500D01*
X4366071Y-14683929D01*
X4351786Y-14741071D01*
X4337500Y-14769643D01*
X4323214Y-14783929D01*
X4294643Y-14798214D01*
X4266071Y-14798214D01*
X4237500Y-14783929D01*
X4223214Y-14769643D01*
X4208928Y-14741071D01*
X4194643Y-14683929D01*
X4194643Y-14612500D01*
X4208928Y-14555357D01*
X4223214Y-14526786D01*
X4237500Y-14512500D01*
X4266071Y-14498214D01*
X4494643Y-14769643D02*
X4508928Y-14783929D01*
X4494643Y-14798214D01*
X4480357Y-14783929D01*
X4494643Y-14769643D01*
X4494643Y-14798214D01*
X4766071Y-14598214D02*
X4766071Y-14798214D01*
X4694643Y-14483929D02*
X4623214Y-14698214D01*
X4808928Y-14698214D01*
X4980357Y-14498214D02*
X5008928Y-14498214D01*
X5037500Y-14512500D01*
X5051786Y-14526786D01*
X5066071Y-14555357D01*
X5080357Y-14612500D01*
X5080357Y-14683929D01*
X5066071Y-14741071D01*
X5051786Y-14769643D01*
X5037500Y-14783929D01*
X5008928Y-14798214D01*
X4980357Y-14798214D01*
X4951786Y-14783929D01*
X4937500Y-14769643D01*
X4923214Y-14741071D01*
X4908928Y-14683929D01*
X4908928Y-14612500D01*
X4923214Y-14555357D01*
X4937500Y-14526786D01*
X4951786Y-14512500D01*
X4980357Y-14498214D01*
X5266071Y-14498214D02*
X5294643Y-14498214D01*
X5323214Y-14512500D01*
X5337500Y-14526786D01*
X5351786Y-14555357D01*
X5366071Y-14612500D01*
X5366071Y-14683929D01*
X5351786Y-14741071D01*
X5337500Y-14769643D01*
X5323214Y-14783929D01*
X5294643Y-14798214D01*
X5266071Y-14798214D01*
X5237500Y-14783929D01*
X5223214Y-14769643D01*
X5208928Y-14741071D01*
X5194643Y-14683929D01*
X5194643Y-14612500D01*
X5208928Y-14555357D01*
X5223214Y-14526786D01*
X5237500Y-14512500D01*
X5266071Y-14498214D01*
X5494643Y-14798214D02*
X5494643Y-14598214D01*
X5494643Y-14626786D02*
X5508928Y-14612500D01*
X5537500Y-14598214D01*
X5580357Y-14598214D01*
X5608928Y-14612500D01*
X5623214Y-14641071D01*
X5623214Y-14798214D01*
X5623214Y-14641071D02*
X5637500Y-14612500D01*
X5666071Y-14598214D01*
X5708928Y-14598214D01*
X5737500Y-14612500D01*
X5751786Y-14641071D01*
X5751786Y-14798214D01*
X5894643Y-14798214D02*
X5894643Y-14598214D01*
X5894643Y-14626786D02*
X5908928Y-14612500D01*
X5937500Y-14598214D01*
X5980357Y-14598214D01*
X6008928Y-14612500D01*
X6023214Y-14641071D01*
X6023214Y-14798214D01*
X6023214Y-14641071D02*
X6037500Y-14612500D01*
X6066071Y-14598214D01*
X6108928Y-14598214D01*
X6137500Y-14612500D01*
X6151786Y-14641071D01*
X6151786Y-14798214D01*
X6737500Y-14483929D02*
X6480357Y-14869643D01*
X7123214Y-14498214D02*
X7151786Y-14498214D01*
X7180357Y-14512500D01*
X7194643Y-14526786D01*
X7208928Y-14555357D01*
X7223214Y-14612500D01*
X7223214Y-14683929D01*
X7208928Y-14741071D01*
X7194643Y-14769643D01*
X7180357Y-14783929D01*
X7151786Y-14798214D01*
X7123214Y-14798214D01*
X7094643Y-14783929D01*
X7080357Y-14769643D01*
X7066071Y-14741071D01*
X7051786Y-14683929D01*
X7051786Y-14612500D01*
X7066071Y-14555357D01*
X7080357Y-14526786D01*
X7094643Y-14512500D01*
X7123214Y-14498214D01*
X7351786Y-14769643D02*
X7366071Y-14783929D01*
X7351786Y-14798214D01*
X7337500Y-14783929D01*
X7351786Y-14769643D01*
X7351786Y-14798214D01*
X7551786Y-14498214D02*
X7580357Y-14498214D01*
X7608928Y-14512500D01*
X7623214Y-14526786D01*
X7637500Y-14555357D01*
X7651786Y-14612500D01*
X7651786Y-14683929D01*
X7637500Y-14741071D01*
X7623214Y-14769643D01*
X7608928Y-14783929D01*
X7580357Y-14798214D01*
X7551786Y-14798214D01*
X7523214Y-14783929D01*
X7508928Y-14769643D01*
X7494643Y-14741071D01*
X7480357Y-14683929D01*
X7480357Y-14612500D01*
X7494643Y-14555357D01*
X7508928Y-14526786D01*
X7523214Y-14512500D01*
X7551786Y-14498214D01*
X7937500Y-14798214D02*
X7766071Y-14798214D01*
X7851786Y-14798214D02*
X7851786Y-14498214D01*
X7823214Y-14541071D01*
X7794643Y-14569643D01*
X7766071Y-14583929D01*
X8208928Y-14498214D02*
X8066071Y-14498214D01*
X8051786Y-14641071D01*
X8066071Y-14626786D01*
X8094643Y-14612500D01*
X8166071Y-14612500D01*
X8194643Y-14626786D01*
X8208928Y-14641071D01*
X8223214Y-14669643D01*
X8223214Y-14741071D01*
X8208928Y-14769643D01*
X8194643Y-14783929D01*
X8166071Y-14798214D01*
X8094643Y-14798214D01*
X8066071Y-14783929D01*
X8051786Y-14769643D01*
X8323214Y-14498214D02*
X8523214Y-14498214D01*
X8394643Y-14798214D01*
X8623214Y-14498214D02*
X8623214Y-14555357D01*
X8737500Y-14498214D02*
X8737500Y-14555357D01*
X9180357Y-14912500D02*
X9166071Y-14898214D01*
X9137500Y-14855357D01*
X9123214Y-14826786D01*
X9108928Y-14783929D01*
X9094643Y-14712500D01*
X9094643Y-14655357D01*
X9108928Y-14583929D01*
X9123214Y-14541071D01*
X9137500Y-14512500D01*
X9166071Y-14469643D01*
X9180357Y-14455357D01*
X9423214Y-14498214D02*
X9366071Y-14498214D01*
X9337500Y-14512500D01*
X9323214Y-14526786D01*
X9294643Y-14569643D01*
X9280357Y-14626786D01*
X9280357Y-14741071D01*
X9294643Y-14769643D01*
X9308928Y-14783929D01*
X9337500Y-14798214D01*
X9394643Y-14798214D01*
X9423214Y-14783929D01*
X9437500Y-14769643D01*
X9451786Y-14741071D01*
X9451786Y-14669643D01*
X9437500Y-14641071D01*
X9423214Y-14626786D01*
X9394643Y-14612500D01*
X9337500Y-14612500D01*
X9308928Y-14626786D01*
X9294643Y-14641071D01*
X9280357Y-14669643D01*
X9808928Y-14798214D02*
X9808928Y-14498214D01*
X9937500Y-14798214D02*
X9937500Y-14641071D01*
X9923214Y-14612500D01*
X9894643Y-14598214D01*
X9851786Y-14598214D01*
X9823214Y-14612500D01*
X9808928Y-14626786D01*
X10123214Y-14798214D02*
X10094643Y-14783929D01*
X10080357Y-14769643D01*
X10066071Y-14741071D01*
X10066071Y-14655357D01*
X10080357Y-14626786D01*
X10094643Y-14612500D01*
X10123214Y-14598214D01*
X10166071Y-14598214D01*
X10194643Y-14612500D01*
X10208928Y-14626786D01*
X10223214Y-14655357D01*
X10223214Y-14741071D01*
X10208928Y-14769643D01*
X10194643Y-14783929D01*
X10166071Y-14798214D01*
X10123214Y-14798214D01*
X10394643Y-14798214D02*
X10366071Y-14783929D01*
X10351786Y-14755357D01*
X10351786Y-14498214D01*
X10623214Y-14783929D02*
X10594643Y-14798214D01*
X10537500Y-14798214D01*
X10508928Y-14783929D01*
X10494643Y-14755357D01*
X10494643Y-14641071D01*
X10508928Y-14612500D01*
X10537500Y-14598214D01*
X10594643Y-14598214D01*
X10623214Y-14612500D01*
X10637500Y-14641071D01*
X10637500Y-14669643D01*
X10494643Y-14698214D01*
X10751786Y-14783929D02*
X10780357Y-14798214D01*
X10837500Y-14798214D01*
X10866071Y-14783929D01*
X10880357Y-14755357D01*
X10880357Y-14741071D01*
X10866071Y-14712500D01*
X10837500Y-14698214D01*
X10794643Y-14698214D01*
X10766071Y-14683929D01*
X10751786Y-14655357D01*
X10751786Y-14641071D01*
X10766071Y-14612500D01*
X10794643Y-14598214D01*
X10837500Y-14598214D01*
X10866071Y-14612500D01*
X10980357Y-14912500D02*
X10994643Y-14898214D01*
X11023214Y-14855357D01*
X11037500Y-14826786D01*
X11051786Y-14783929D01*
X11066071Y-14712500D01*
X11066071Y-14655357D01*
X11051786Y-14583929D01*
X11037500Y-14541071D01*
X11023214Y-14512500D01*
X10994643Y-14469643D01*
X10980357Y-14455357D01*
X3922500Y-15058500D02*
G75*
G03*
X3922500Y-15058500I-49530J0D01*
G01*
X4266071Y-14894214D02*
X4294643Y-14894214D01*
X4323214Y-14908500D01*
X4337500Y-14922786D01*
X4351786Y-14951357D01*
X4366071Y-15008500D01*
X4366071Y-15079929D01*
X4351786Y-15137071D01*
X4337500Y-15165643D01*
X4323214Y-15179929D01*
X4294643Y-15194214D01*
X4266071Y-15194214D01*
X4237500Y-15179929D01*
X4223214Y-15165643D01*
X4208928Y-15137071D01*
X4194643Y-15079929D01*
X4194643Y-15008500D01*
X4208928Y-14951357D01*
X4223214Y-14922786D01*
X4237500Y-14908500D01*
X4266071Y-14894214D01*
X4494643Y-15165643D02*
X4508928Y-15179929D01*
X4494643Y-15194214D01*
X4480357Y-15179929D01*
X4494643Y-15165643D01*
X4494643Y-15194214D01*
X4651786Y-15194214D02*
X4708928Y-15194214D01*
X4737500Y-15179929D01*
X4751786Y-15165643D01*
X4780357Y-15122786D01*
X4794643Y-15065643D01*
X4794643Y-14951357D01*
X4780357Y-14922786D01*
X4766071Y-14908500D01*
X4737500Y-14894214D01*
X4680357Y-14894214D01*
X4651786Y-14908500D01*
X4637500Y-14922786D01*
X4623214Y-14951357D01*
X4623214Y-15022786D01*
X4637500Y-15051357D01*
X4651786Y-15065643D01*
X4680357Y-15079929D01*
X4737500Y-15079929D01*
X4766071Y-15065643D01*
X4780357Y-15051357D01*
X4794643Y-15022786D01*
X4937500Y-15194214D02*
X4994643Y-15194214D01*
X5023214Y-15179929D01*
X5037500Y-15165643D01*
X5066071Y-15122786D01*
X5080357Y-15065643D01*
X5080357Y-14951357D01*
X5066071Y-14922786D01*
X5051786Y-14908500D01*
X5023214Y-14894214D01*
X4966071Y-14894214D01*
X4937500Y-14908500D01*
X4923214Y-14922786D01*
X4908928Y-14951357D01*
X4908928Y-15022786D01*
X4923214Y-15051357D01*
X4937500Y-15065643D01*
X4966071Y-15079929D01*
X5023214Y-15079929D01*
X5051786Y-15065643D01*
X5066071Y-15051357D01*
X5080357Y-15022786D01*
X5366071Y-15194214D02*
X5194643Y-15194214D01*
X5280357Y-15194214D02*
X5280357Y-14894214D01*
X5251786Y-14937071D01*
X5223214Y-14965643D01*
X5194643Y-14979929D01*
X5494643Y-15194214D02*
X5494643Y-14994214D01*
X5494643Y-15022786D02*
X5508928Y-15008500D01*
X5537500Y-14994214D01*
X5580357Y-14994214D01*
X5608928Y-15008500D01*
X5623214Y-15037071D01*
X5623214Y-15194214D01*
X5623214Y-15037071D02*
X5637500Y-15008500D01*
X5666071Y-14994214D01*
X5708928Y-14994214D01*
X5737500Y-15008500D01*
X5751786Y-15037071D01*
X5751786Y-15194214D01*
X5894643Y-15194214D02*
X5894643Y-14994214D01*
X5894643Y-15022786D02*
X5908928Y-15008500D01*
X5937500Y-14994214D01*
X5980357Y-14994214D01*
X6008928Y-15008500D01*
X6023214Y-15037071D01*
X6023214Y-15194214D01*
X6023214Y-15037071D02*
X6037500Y-15008500D01*
X6066071Y-14994214D01*
X6108928Y-14994214D01*
X6137500Y-15008500D01*
X6151786Y-15037071D01*
X6151786Y-15194214D01*
X6737500Y-14879929D02*
X6480357Y-15265643D01*
X7123214Y-14894214D02*
X7151786Y-14894214D01*
X7180357Y-14908500D01*
X7194643Y-14922786D01*
X7208928Y-14951357D01*
X7223214Y-15008500D01*
X7223214Y-15079929D01*
X7208928Y-15137071D01*
X7194643Y-15165643D01*
X7180357Y-15179929D01*
X7151786Y-15194214D01*
X7123214Y-15194214D01*
X7094643Y-15179929D01*
X7080357Y-15165643D01*
X7066071Y-15137071D01*
X7051786Y-15079929D01*
X7051786Y-15008500D01*
X7066071Y-14951357D01*
X7080357Y-14922786D01*
X7094643Y-14908500D01*
X7123214Y-14894214D01*
X7351786Y-15165643D02*
X7366071Y-15179929D01*
X7351786Y-15194214D01*
X7337500Y-15179929D01*
X7351786Y-15165643D01*
X7351786Y-15194214D01*
X7551786Y-14894214D02*
X7580357Y-14894214D01*
X7608928Y-14908500D01*
X7623214Y-14922786D01*
X7637500Y-14951357D01*
X7651786Y-15008500D01*
X7651786Y-15079929D01*
X7637500Y-15137071D01*
X7623214Y-15165643D01*
X7608928Y-15179929D01*
X7580357Y-15194214D01*
X7551786Y-15194214D01*
X7523214Y-15179929D01*
X7508928Y-15165643D01*
X7494643Y-15137071D01*
X7480357Y-15079929D01*
X7480357Y-15008500D01*
X7494643Y-14951357D01*
X7508928Y-14922786D01*
X7523214Y-14908500D01*
X7551786Y-14894214D01*
X7751786Y-14894214D02*
X7937500Y-14894214D01*
X7837500Y-15008500D01*
X7880357Y-15008500D01*
X7908928Y-15022786D01*
X7923214Y-15037071D01*
X7937500Y-15065643D01*
X7937500Y-15137071D01*
X7923214Y-15165643D01*
X7908928Y-15179929D01*
X7880357Y-15194214D01*
X7794643Y-15194214D01*
X7766071Y-15179929D01*
X7751786Y-15165643D01*
X8080357Y-15194214D02*
X8137500Y-15194214D01*
X8166071Y-15179929D01*
X8180357Y-15165643D01*
X8208928Y-15122786D01*
X8223214Y-15065643D01*
X8223214Y-14951357D01*
X8208928Y-14922786D01*
X8194643Y-14908500D01*
X8166071Y-14894214D01*
X8108928Y-14894214D01*
X8080357Y-14908500D01*
X8066071Y-14922786D01*
X8051786Y-14951357D01*
X8051786Y-15022786D01*
X8066071Y-15051357D01*
X8080357Y-15065643D01*
X8108928Y-15079929D01*
X8166071Y-15079929D01*
X8194643Y-15065643D01*
X8208928Y-15051357D01*
X8223214Y-15022786D01*
X8408928Y-14894214D02*
X8437500Y-14894214D01*
X8466071Y-14908500D01*
X8480357Y-14922786D01*
X8494643Y-14951357D01*
X8508928Y-15008500D01*
X8508928Y-15079929D01*
X8494643Y-15137071D01*
X8480357Y-15165643D01*
X8466071Y-15179929D01*
X8437500Y-15194214D01*
X8408928Y-15194214D01*
X8380357Y-15179929D01*
X8366071Y-15165643D01*
X8351786Y-15137071D01*
X8337500Y-15079929D01*
X8337500Y-15008500D01*
X8351786Y-14951357D01*
X8366071Y-14922786D01*
X8380357Y-14908500D01*
X8408928Y-14894214D01*
X8623214Y-14894214D02*
X8623214Y-14951357D01*
X8737500Y-14894214D02*
X8737500Y-14951357D01*
X9180357Y-15308500D02*
X9166071Y-15294214D01*
X9137500Y-15251357D01*
X9123214Y-15222786D01*
X9108928Y-15179929D01*
X9094643Y-15108500D01*
X9094643Y-15051357D01*
X9108928Y-14979929D01*
X9123214Y-14937071D01*
X9137500Y-14908500D01*
X9166071Y-14865643D01*
X9180357Y-14851357D01*
X9451786Y-15194214D02*
X9280357Y-15194214D01*
X9366071Y-15194214D02*
X9366071Y-14894214D01*
X9337500Y-14937071D01*
X9308928Y-14965643D01*
X9280357Y-14979929D01*
X9637500Y-14894214D02*
X9666071Y-14894214D01*
X9694643Y-14908500D01*
X9708928Y-14922786D01*
X9723214Y-14951357D01*
X9737500Y-15008500D01*
X9737500Y-15079929D01*
X9723214Y-15137071D01*
X9708928Y-15165643D01*
X9694643Y-15179929D01*
X9666071Y-15194214D01*
X9637500Y-15194214D01*
X9608928Y-15179929D01*
X9594643Y-15165643D01*
X9580357Y-15137071D01*
X9566071Y-15079929D01*
X9566071Y-15008500D01*
X9580357Y-14951357D01*
X9594643Y-14922786D01*
X9608928Y-14908500D01*
X9637500Y-14894214D01*
X9923214Y-14894214D02*
X9951786Y-14894214D01*
X9980357Y-14908500D01*
X9994643Y-14922786D01*
X10008928Y-14951357D01*
X10023214Y-15008500D01*
X10023214Y-15079929D01*
X10008928Y-15137071D01*
X9994643Y-15165643D01*
X9980357Y-15179929D01*
X9951786Y-15194214D01*
X9923214Y-15194214D01*
X9894643Y-15179929D01*
X9880357Y-15165643D01*
X9866071Y-15137071D01*
X9851786Y-15079929D01*
X9851786Y-15008500D01*
X9866071Y-14951357D01*
X9880357Y-14922786D01*
X9894643Y-14908500D01*
X9923214Y-14894214D01*
X10380357Y-15194214D02*
X10380357Y-14894214D01*
X10508928Y-15194214D02*
X10508928Y-15037071D01*
X10494643Y-15008500D01*
X10466071Y-14994214D01*
X10423214Y-14994214D01*
X10394643Y-15008500D01*
X10380357Y-15022786D01*
X10694643Y-15194214D02*
X10666071Y-15179929D01*
X10651786Y-15165643D01*
X10637500Y-15137071D01*
X10637500Y-15051357D01*
X10651786Y-15022786D01*
X10666071Y-15008500D01*
X10694643Y-14994214D01*
X10737500Y-14994214D01*
X10766071Y-15008500D01*
X10780357Y-15022786D01*
X10794643Y-15051357D01*
X10794643Y-15137071D01*
X10780357Y-15165643D01*
X10766071Y-15179929D01*
X10737500Y-15194214D01*
X10694643Y-15194214D01*
X10966071Y-15194214D02*
X10937500Y-15179929D01*
X10923214Y-15151357D01*
X10923214Y-14894214D01*
X11194643Y-15179929D02*
X11166071Y-15194214D01*
X11108928Y-15194214D01*
X11080357Y-15179929D01*
X11066071Y-15151357D01*
X11066071Y-15037071D01*
X11080357Y-15008500D01*
X11108928Y-14994214D01*
X11166071Y-14994214D01*
X11194643Y-15008500D01*
X11208928Y-15037071D01*
X11208928Y-15065643D01*
X11066071Y-15094214D01*
X11323214Y-15179929D02*
X11351786Y-15194214D01*
X11408928Y-15194214D01*
X11437500Y-15179929D01*
X11451786Y-15151357D01*
X11451786Y-15137071D01*
X11437500Y-15108500D01*
X11408928Y-15094214D01*
X11366071Y-15094214D01*
X11337500Y-15079929D01*
X11323214Y-15051357D01*
X11323214Y-15037071D01*
X11337500Y-15008500D01*
X11366071Y-14994214D01*
X11408928Y-14994214D01*
X11437500Y-15008500D01*
X11551786Y-15308500D02*
X11566071Y-15294214D01*
X11594643Y-15251357D01*
X11608928Y-15222786D01*
X11623214Y-15179929D01*
X11637500Y-15108500D01*
X11637500Y-15051357D01*
X11623214Y-14979929D01*
X11608928Y-14937071D01*
X11594643Y-14908500D01*
X11566071Y-14865643D01*
X11551786Y-14851357D01*
X3867890Y-15399890D02*
X3867890Y-15509110D01*
X3813280Y-15454500D02*
X3922500Y-15454500D01*
X4366071Y-15590214D02*
X4194643Y-15590214D01*
X4280357Y-15590214D02*
X4280357Y-15290214D01*
X4251786Y-15333071D01*
X4223214Y-15361643D01*
X4194643Y-15375929D01*
X4494643Y-15561643D02*
X4508928Y-15575929D01*
X4494643Y-15590214D01*
X4480357Y-15575929D01*
X4494643Y-15561643D01*
X4494643Y-15590214D01*
X4694643Y-15290214D02*
X4723214Y-15290214D01*
X4751786Y-15304500D01*
X4766071Y-15318786D01*
X4780357Y-15347357D01*
X4794643Y-15404500D01*
X4794643Y-15475929D01*
X4780357Y-15533071D01*
X4766071Y-15561643D01*
X4751786Y-15575929D01*
X4723214Y-15590214D01*
X4694643Y-15590214D01*
X4666071Y-15575929D01*
X4651786Y-15561643D01*
X4637500Y-15533071D01*
X4623214Y-15475929D01*
X4623214Y-15404500D01*
X4637500Y-15347357D01*
X4651786Y-15318786D01*
X4666071Y-15304500D01*
X4694643Y-15290214D01*
X4937500Y-15590214D02*
X4994643Y-15590214D01*
X5023214Y-15575929D01*
X5037500Y-15561643D01*
X5066071Y-15518786D01*
X5080357Y-15461643D01*
X5080357Y-15347357D01*
X5066071Y-15318786D01*
X5051786Y-15304500D01*
X5023214Y-15290214D01*
X4966071Y-15290214D01*
X4937500Y-15304500D01*
X4923214Y-15318786D01*
X4908928Y-15347357D01*
X4908928Y-15418786D01*
X4923214Y-15447357D01*
X4937500Y-15461643D01*
X4966071Y-15475929D01*
X5023214Y-15475929D01*
X5051786Y-15461643D01*
X5066071Y-15447357D01*
X5080357Y-15418786D01*
X5194643Y-15318786D02*
X5208928Y-15304500D01*
X5237500Y-15290214D01*
X5308928Y-15290214D01*
X5337500Y-15304500D01*
X5351786Y-15318786D01*
X5366071Y-15347357D01*
X5366071Y-15375929D01*
X5351786Y-15418786D01*
X5180357Y-15590214D01*
X5366071Y-15590214D01*
X5494643Y-15590214D02*
X5494643Y-15390214D01*
X5494643Y-15418786D02*
X5508928Y-15404500D01*
X5537500Y-15390214D01*
X5580357Y-15390214D01*
X5608928Y-15404500D01*
X5623214Y-15433071D01*
X5623214Y-15590214D01*
X5623214Y-15433071D02*
X5637500Y-15404500D01*
X5666071Y-15390214D01*
X5708928Y-15390214D01*
X5737500Y-15404500D01*
X5751786Y-15433071D01*
X5751786Y-15590214D01*
X5894643Y-15590214D02*
X5894643Y-15390214D01*
X5894643Y-15418786D02*
X5908928Y-15404500D01*
X5937500Y-15390214D01*
X5980357Y-15390214D01*
X6008928Y-15404500D01*
X6023214Y-15433071D01*
X6023214Y-15590214D01*
X6023214Y-15433071D02*
X6037500Y-15404500D01*
X6066071Y-15390214D01*
X6108928Y-15390214D01*
X6137500Y-15404500D01*
X6151786Y-15433071D01*
X6151786Y-15590214D01*
X6737500Y-15275929D02*
X6480357Y-15661643D01*
X7123214Y-15290214D02*
X7151786Y-15290214D01*
X7180357Y-15304500D01*
X7194643Y-15318786D01*
X7208928Y-15347357D01*
X7223214Y-15404500D01*
X7223214Y-15475929D01*
X7208928Y-15533071D01*
X7194643Y-15561643D01*
X7180357Y-15575929D01*
X7151786Y-15590214D01*
X7123214Y-15590214D01*
X7094643Y-15575929D01*
X7080357Y-15561643D01*
X7066071Y-15533071D01*
X7051786Y-15475929D01*
X7051786Y-15404500D01*
X7066071Y-15347357D01*
X7080357Y-15318786D01*
X7094643Y-15304500D01*
X7123214Y-15290214D01*
X7351786Y-15561643D02*
X7366071Y-15575929D01*
X7351786Y-15590214D01*
X7337500Y-15575929D01*
X7351786Y-15561643D01*
X7351786Y-15590214D01*
X7551786Y-15290214D02*
X7580357Y-15290214D01*
X7608928Y-15304500D01*
X7623214Y-15318786D01*
X7637500Y-15347357D01*
X7651786Y-15404500D01*
X7651786Y-15475929D01*
X7637500Y-15533071D01*
X7623214Y-15561643D01*
X7608928Y-15575929D01*
X7580357Y-15590214D01*
X7551786Y-15590214D01*
X7523214Y-15575929D01*
X7508928Y-15561643D01*
X7494643Y-15533071D01*
X7480357Y-15475929D01*
X7480357Y-15404500D01*
X7494643Y-15347357D01*
X7508928Y-15318786D01*
X7523214Y-15304500D01*
X7551786Y-15290214D01*
X7908928Y-15390214D02*
X7908928Y-15590214D01*
X7837500Y-15275929D02*
X7766071Y-15490214D01*
X7951786Y-15490214D01*
X8037500Y-15290214D02*
X8223214Y-15290214D01*
X8123214Y-15404500D01*
X8166071Y-15404500D01*
X8194643Y-15418786D01*
X8208928Y-15433071D01*
X8223214Y-15461643D01*
X8223214Y-15533071D01*
X8208928Y-15561643D01*
X8194643Y-15575929D01*
X8166071Y-15590214D01*
X8080357Y-15590214D01*
X8051786Y-15575929D01*
X8037500Y-15561643D01*
X8408928Y-15290214D02*
X8437500Y-15290214D01*
X8466071Y-15304500D01*
X8480357Y-15318786D01*
X8494643Y-15347357D01*
X8508928Y-15404500D01*
X8508928Y-15475929D01*
X8494643Y-15533071D01*
X8480357Y-15561643D01*
X8466071Y-15575929D01*
X8437500Y-15590214D01*
X8408928Y-15590214D01*
X8380357Y-15575929D01*
X8366071Y-15561643D01*
X8351786Y-15533071D01*
X8337500Y-15475929D01*
X8337500Y-15404500D01*
X8351786Y-15347357D01*
X8366071Y-15318786D01*
X8380357Y-15304500D01*
X8408928Y-15290214D01*
X8623214Y-15290214D02*
X8623214Y-15347357D01*
X8737500Y-15290214D02*
X8737500Y-15347357D01*
X9180357Y-15704500D02*
X9166071Y-15690214D01*
X9137500Y-15647357D01*
X9123214Y-15618786D01*
X9108928Y-15575929D01*
X9094643Y-15504500D01*
X9094643Y-15447357D01*
X9108928Y-15375929D01*
X9123214Y-15333071D01*
X9137500Y-15304500D01*
X9166071Y-15261643D01*
X9180357Y-15247357D01*
X9280357Y-15318786D02*
X9294643Y-15304500D01*
X9323214Y-15290214D01*
X9394643Y-15290214D01*
X9423214Y-15304500D01*
X9437500Y-15318786D01*
X9451786Y-15347357D01*
X9451786Y-15375929D01*
X9437500Y-15418786D01*
X9266071Y-15590214D01*
X9451786Y-15590214D01*
X9708928Y-15390214D02*
X9708928Y-15590214D01*
X9637500Y-15275929D02*
X9566071Y-15490214D01*
X9751786Y-15490214D01*
X10094643Y-15590214D02*
X10094643Y-15290214D01*
X10223214Y-15590214D02*
X10223214Y-15433071D01*
X10208928Y-15404500D01*
X10180357Y-15390214D01*
X10137500Y-15390214D01*
X10108928Y-15404500D01*
X10094643Y-15418786D01*
X10408928Y-15590214D02*
X10380357Y-15575929D01*
X10366071Y-15561643D01*
X10351786Y-15533071D01*
X10351786Y-15447357D01*
X10366071Y-15418786D01*
X10380357Y-15404500D01*
X10408928Y-15390214D01*
X10451786Y-15390214D01*
X10480357Y-15404500D01*
X10494643Y-15418786D01*
X10508928Y-15447357D01*
X10508928Y-15533071D01*
X10494643Y-15561643D01*
X10480357Y-15575929D01*
X10451786Y-15590214D01*
X10408928Y-15590214D01*
X10680357Y-15590214D02*
X10651786Y-15575929D01*
X10637500Y-15547357D01*
X10637500Y-15290214D01*
X10908928Y-15575929D02*
X10880357Y-15590214D01*
X10823214Y-15590214D01*
X10794643Y-15575929D01*
X10780357Y-15547357D01*
X10780357Y-15433071D01*
X10794643Y-15404500D01*
X10823214Y-15390214D01*
X10880357Y-15390214D01*
X10908928Y-15404500D01*
X10923214Y-15433071D01*
X10923214Y-15461643D01*
X10780357Y-15490214D01*
X11037500Y-15575929D02*
X11066071Y-15590214D01*
X11123214Y-15590214D01*
X11151786Y-15575929D01*
X11166071Y-15547357D01*
X11166071Y-15533071D01*
X11151786Y-15504500D01*
X11123214Y-15490214D01*
X11080357Y-15490214D01*
X11051786Y-15475929D01*
X11037500Y-15447357D01*
X11037500Y-15433071D01*
X11051786Y-15404500D01*
X11080357Y-15390214D01*
X11123214Y-15390214D01*
X11151786Y-15404500D01*
X11266071Y-15704500D02*
X11280357Y-15690214D01*
X11308928Y-15647357D01*
X11323214Y-15618786D01*
X11337500Y-15575929D01*
X11351786Y-15504500D01*
X11351786Y-15447357D01*
X11337500Y-15375929D01*
X11323214Y-15333071D01*
X11308928Y-15304500D01*
X11280357Y-15261643D01*
X11266071Y-15247357D01*
X3904927Y-15892927D02*
X3904927Y-15808073D01*
X3820073Y-15808073D01*
X3820073Y-15892927D01*
X3904927Y-15892927D01*
X4366071Y-15986214D02*
X4194643Y-15986214D01*
X4280357Y-15986214D02*
X4280357Y-15686214D01*
X4251786Y-15729071D01*
X4223214Y-15757643D01*
X4194643Y-15771929D01*
X4494643Y-15957643D02*
X4508928Y-15971929D01*
X4494643Y-15986214D01*
X4480357Y-15971929D01*
X4494643Y-15957643D01*
X4494643Y-15986214D01*
X4623214Y-15714786D02*
X4637500Y-15700500D01*
X4666071Y-15686214D01*
X4737500Y-15686214D01*
X4766071Y-15700500D01*
X4780357Y-15714786D01*
X4794643Y-15743357D01*
X4794643Y-15771929D01*
X4780357Y-15814786D01*
X4608928Y-15986214D01*
X4794643Y-15986214D01*
X4980357Y-15686214D02*
X5008928Y-15686214D01*
X5037500Y-15700500D01*
X5051786Y-15714786D01*
X5066071Y-15743357D01*
X5080357Y-15800500D01*
X5080357Y-15871929D01*
X5066071Y-15929071D01*
X5051786Y-15957643D01*
X5037500Y-15971929D01*
X5008928Y-15986214D01*
X4980357Y-15986214D01*
X4951786Y-15971929D01*
X4937500Y-15957643D01*
X4923214Y-15929071D01*
X4908928Y-15871929D01*
X4908928Y-15800500D01*
X4923214Y-15743357D01*
X4937500Y-15714786D01*
X4951786Y-15700500D01*
X4980357Y-15686214D01*
X5266071Y-15686214D02*
X5294643Y-15686214D01*
X5323214Y-15700500D01*
X5337500Y-15714786D01*
X5351786Y-15743357D01*
X5366071Y-15800500D01*
X5366071Y-15871929D01*
X5351786Y-15929071D01*
X5337500Y-15957643D01*
X5323214Y-15971929D01*
X5294643Y-15986214D01*
X5266071Y-15986214D01*
X5237500Y-15971929D01*
X5223214Y-15957643D01*
X5208928Y-15929071D01*
X5194643Y-15871929D01*
X5194643Y-15800500D01*
X5208928Y-15743357D01*
X5223214Y-15714786D01*
X5237500Y-15700500D01*
X5266071Y-15686214D01*
X5494643Y-15986214D02*
X5494643Y-15786214D01*
X5494643Y-15814786D02*
X5508928Y-15800500D01*
X5537500Y-15786214D01*
X5580357Y-15786214D01*
X5608928Y-15800500D01*
X5623214Y-15829071D01*
X5623214Y-15986214D01*
X5623214Y-15829071D02*
X5637500Y-15800500D01*
X5666071Y-15786214D01*
X5708928Y-15786214D01*
X5737500Y-15800500D01*
X5751786Y-15829071D01*
X5751786Y-15986214D01*
X5894643Y-15986214D02*
X5894643Y-15786214D01*
X5894643Y-15814786D02*
X5908928Y-15800500D01*
X5937500Y-15786214D01*
X5980357Y-15786214D01*
X6008928Y-15800500D01*
X6023214Y-15829071D01*
X6023214Y-15986214D01*
X6023214Y-15829071D02*
X6037500Y-15800500D01*
X6066071Y-15786214D01*
X6108928Y-15786214D01*
X6137500Y-15800500D01*
X6151786Y-15829071D01*
X6151786Y-15986214D01*
X6737500Y-15671929D02*
X6480357Y-16057643D01*
X7123214Y-15686214D02*
X7151786Y-15686214D01*
X7180357Y-15700500D01*
X7194643Y-15714786D01*
X7208928Y-15743357D01*
X7223214Y-15800500D01*
X7223214Y-15871929D01*
X7208928Y-15929071D01*
X7194643Y-15957643D01*
X7180357Y-15971929D01*
X7151786Y-15986214D01*
X7123214Y-15986214D01*
X7094643Y-15971929D01*
X7080357Y-15957643D01*
X7066071Y-15929071D01*
X7051786Y-15871929D01*
X7051786Y-15800500D01*
X7066071Y-15743357D01*
X7080357Y-15714786D01*
X7094643Y-15700500D01*
X7123214Y-15686214D01*
X7351786Y-15957643D02*
X7366071Y-15971929D01*
X7351786Y-15986214D01*
X7337500Y-15971929D01*
X7351786Y-15957643D01*
X7351786Y-15986214D01*
X7551786Y-15686214D02*
X7580357Y-15686214D01*
X7608928Y-15700500D01*
X7623214Y-15714786D01*
X7637500Y-15743357D01*
X7651786Y-15800500D01*
X7651786Y-15871929D01*
X7637500Y-15929071D01*
X7623214Y-15957643D01*
X7608928Y-15971929D01*
X7580357Y-15986214D01*
X7551786Y-15986214D01*
X7523214Y-15971929D01*
X7508928Y-15957643D01*
X7494643Y-15929071D01*
X7480357Y-15871929D01*
X7480357Y-15800500D01*
X7494643Y-15743357D01*
X7508928Y-15714786D01*
X7523214Y-15700500D01*
X7551786Y-15686214D01*
X7908928Y-15786214D02*
X7908928Y-15986214D01*
X7837500Y-15671929D02*
X7766071Y-15886214D01*
X7951786Y-15886214D01*
X8037500Y-15686214D02*
X8237500Y-15686214D01*
X8108928Y-15986214D01*
X8337500Y-15714786D02*
X8351786Y-15700500D01*
X8380357Y-15686214D01*
X8451786Y-15686214D01*
X8480357Y-15700500D01*
X8494643Y-15714786D01*
X8508928Y-15743357D01*
X8508928Y-15771929D01*
X8494643Y-15814786D01*
X8323214Y-15986214D01*
X8508928Y-15986214D01*
X8623214Y-15686214D02*
X8623214Y-15743357D01*
X8737500Y-15686214D02*
X8737500Y-15743357D01*
X9180357Y-16100500D02*
X9166071Y-16086214D01*
X9137500Y-16043357D01*
X9123214Y-16014786D01*
X9108928Y-15971929D01*
X9094643Y-15900500D01*
X9094643Y-15843357D01*
X9108928Y-15771929D01*
X9123214Y-15729071D01*
X9137500Y-15700500D01*
X9166071Y-15657643D01*
X9180357Y-15643357D01*
X9423214Y-15686214D02*
X9366071Y-15686214D01*
X9337500Y-15700500D01*
X9323214Y-15714786D01*
X9294643Y-15757643D01*
X9280357Y-15814786D01*
X9280357Y-15929071D01*
X9294643Y-15957643D01*
X9308928Y-15971929D01*
X9337500Y-15986214D01*
X9394643Y-15986214D01*
X9423214Y-15971929D01*
X9437500Y-15957643D01*
X9451786Y-15929071D01*
X9451786Y-15857643D01*
X9437500Y-15829071D01*
X9423214Y-15814786D01*
X9394643Y-15800500D01*
X9337500Y-15800500D01*
X9308928Y-15814786D01*
X9294643Y-15829071D01*
X9280357Y-15857643D01*
X9808928Y-15986214D02*
X9808928Y-15686214D01*
X9937500Y-15986214D02*
X9937500Y-15829071D01*
X9923214Y-15800500D01*
X9894643Y-15786214D01*
X9851786Y-15786214D01*
X9823214Y-15800500D01*
X9808928Y-15814786D01*
X10123214Y-15986214D02*
X10094643Y-15971929D01*
X10080357Y-15957643D01*
X10066071Y-15929071D01*
X10066071Y-15843357D01*
X10080357Y-15814786D01*
X10094643Y-15800500D01*
X10123214Y-15786214D01*
X10166071Y-15786214D01*
X10194643Y-15800500D01*
X10208928Y-15814786D01*
X10223214Y-15843357D01*
X10223214Y-15929071D01*
X10208928Y-15957643D01*
X10194643Y-15971929D01*
X10166071Y-15986214D01*
X10123214Y-15986214D01*
X10394643Y-15986214D02*
X10366071Y-15971929D01*
X10351786Y-15943357D01*
X10351786Y-15686214D01*
X10623214Y-15971929D02*
X10594643Y-15986214D01*
X10537500Y-15986214D01*
X10508928Y-15971929D01*
X10494643Y-15943357D01*
X10494643Y-15829071D01*
X10508928Y-15800500D01*
X10537500Y-15786214D01*
X10594643Y-15786214D01*
X10623214Y-15800500D01*
X10637500Y-15829071D01*
X10637500Y-15857643D01*
X10494643Y-15886214D01*
X10751786Y-15971929D02*
X10780357Y-15986214D01*
X10837500Y-15986214D01*
X10866071Y-15971929D01*
X10880357Y-15943357D01*
X10880357Y-15929071D01*
X10866071Y-15900500D01*
X10837500Y-15886214D01*
X10794643Y-15886214D01*
X10766071Y-15871929D01*
X10751786Y-15843357D01*
X10751786Y-15829071D01*
X10766071Y-15800500D01*
X10794643Y-15786214D01*
X10837500Y-15786214D01*
X10866071Y-15800500D01*
X10980357Y-16100500D02*
X10994643Y-16086214D01*
X11023214Y-16043357D01*
X11037500Y-16014786D01*
X11051786Y-15971929D01*
X11066071Y-15900500D01*
X11066071Y-15843357D01*
X11051786Y-15771929D01*
X11037500Y-15729071D01*
X11023214Y-15700500D01*
X10994643Y-15657643D01*
X10980357Y-15643357D01*
X3762500Y-16406500D02*
X3922500Y-16246500D01*
X3762500Y-16086500D01*
X3602500Y-16246500D01*
X3762500Y-16406500D01*
X4180357Y-16082214D02*
X4366071Y-16082214D01*
X4266071Y-16196500D01*
X4308928Y-16196500D01*
X4337500Y-16210786D01*
X4351786Y-16225071D01*
X4366071Y-16253643D01*
X4366071Y-16325071D01*
X4351786Y-16353643D01*
X4337500Y-16367929D01*
X4308928Y-16382214D01*
X4223214Y-16382214D01*
X4194643Y-16367929D01*
X4180357Y-16353643D01*
X4494643Y-16353643D02*
X4508928Y-16367929D01*
X4494643Y-16382214D01*
X4480357Y-16367929D01*
X4494643Y-16353643D01*
X4494643Y-16382214D01*
X4623214Y-16110786D02*
X4637500Y-16096500D01*
X4666071Y-16082214D01*
X4737500Y-16082214D01*
X4766071Y-16096500D01*
X4780357Y-16110786D01*
X4794643Y-16139357D01*
X4794643Y-16167929D01*
X4780357Y-16210786D01*
X4608928Y-16382214D01*
X4794643Y-16382214D01*
X4980357Y-16082214D02*
X5008928Y-16082214D01*
X5037500Y-16096500D01*
X5051786Y-16110786D01*
X5066071Y-16139357D01*
X5080357Y-16196500D01*
X5080357Y-16267929D01*
X5066071Y-16325071D01*
X5051786Y-16353643D01*
X5037500Y-16367929D01*
X5008928Y-16382214D01*
X4980357Y-16382214D01*
X4951786Y-16367929D01*
X4937500Y-16353643D01*
X4923214Y-16325071D01*
X4908928Y-16267929D01*
X4908928Y-16196500D01*
X4923214Y-16139357D01*
X4937500Y-16110786D01*
X4951786Y-16096500D01*
X4980357Y-16082214D01*
X5266071Y-16082214D02*
X5294643Y-16082214D01*
X5323214Y-16096500D01*
X5337500Y-16110786D01*
X5351786Y-16139357D01*
X5366071Y-16196500D01*
X5366071Y-16267929D01*
X5351786Y-16325071D01*
X5337500Y-16353643D01*
X5323214Y-16367929D01*
X5294643Y-16382214D01*
X5266071Y-16382214D01*
X5237500Y-16367929D01*
X5223214Y-16353643D01*
X5208928Y-16325071D01*
X5194643Y-16267929D01*
X5194643Y-16196500D01*
X5208928Y-16139357D01*
X5223214Y-16110786D01*
X5237500Y-16096500D01*
X5266071Y-16082214D01*
X5494643Y-16382214D02*
X5494643Y-16182214D01*
X5494643Y-16210786D02*
X5508928Y-16196500D01*
X5537500Y-16182214D01*
X5580357Y-16182214D01*
X5608928Y-16196500D01*
X5623214Y-16225071D01*
X5623214Y-16382214D01*
X5623214Y-16225071D02*
X5637500Y-16196500D01*
X5666071Y-16182214D01*
X5708928Y-16182214D01*
X5737500Y-16196500D01*
X5751786Y-16225071D01*
X5751786Y-16382214D01*
X5894643Y-16382214D02*
X5894643Y-16182214D01*
X5894643Y-16210786D02*
X5908928Y-16196500D01*
X5937500Y-16182214D01*
X5980357Y-16182214D01*
X6008928Y-16196500D01*
X6023214Y-16225071D01*
X6023214Y-16382214D01*
X6023214Y-16225071D02*
X6037500Y-16196500D01*
X6066071Y-16182214D01*
X6108928Y-16182214D01*
X6137500Y-16196500D01*
X6151786Y-16225071D01*
X6151786Y-16382214D01*
X6737500Y-16067929D02*
X6480357Y-16453643D01*
X7123214Y-16082214D02*
X7151786Y-16082214D01*
X7180357Y-16096500D01*
X7194643Y-16110786D01*
X7208928Y-16139357D01*
X7223214Y-16196500D01*
X7223214Y-16267929D01*
X7208928Y-16325071D01*
X7194643Y-16353643D01*
X7180357Y-16367929D01*
X7151786Y-16382214D01*
X7123214Y-16382214D01*
X7094643Y-16367929D01*
X7080357Y-16353643D01*
X7066071Y-16325071D01*
X7051786Y-16267929D01*
X7051786Y-16196500D01*
X7066071Y-16139357D01*
X7080357Y-16110786D01*
X7094643Y-16096500D01*
X7123214Y-16082214D01*
X7351786Y-16353643D02*
X7366071Y-16367929D01*
X7351786Y-16382214D01*
X7337500Y-16367929D01*
X7351786Y-16353643D01*
X7351786Y-16382214D01*
X7651786Y-16382214D02*
X7480357Y-16382214D01*
X7566071Y-16382214D02*
X7566071Y-16082214D01*
X7537500Y-16125071D01*
X7508928Y-16153643D01*
X7480357Y-16167929D01*
X7766071Y-16110786D02*
X7780357Y-16096500D01*
X7808928Y-16082214D01*
X7880357Y-16082214D01*
X7908928Y-16096500D01*
X7923214Y-16110786D01*
X7937500Y-16139357D01*
X7937500Y-16167929D01*
X7923214Y-16210786D01*
X7751786Y-16382214D01*
X7937500Y-16382214D01*
X8194643Y-16082214D02*
X8137500Y-16082214D01*
X8108928Y-16096500D01*
X8094643Y-16110786D01*
X8066071Y-16153643D01*
X8051786Y-16210786D01*
X8051786Y-16325071D01*
X8066071Y-16353643D01*
X8080357Y-16367929D01*
X8108928Y-16382214D01*
X8166071Y-16382214D01*
X8194643Y-16367929D01*
X8208928Y-16353643D01*
X8223214Y-16325071D01*
X8223214Y-16253643D01*
X8208928Y-16225071D01*
X8194643Y-16210786D01*
X8166071Y-16196500D01*
X8108928Y-16196500D01*
X8080357Y-16210786D01*
X8066071Y-16225071D01*
X8051786Y-16253643D01*
X8408928Y-16082214D02*
X8437500Y-16082214D01*
X8466071Y-16096500D01*
X8480357Y-16110786D01*
X8494643Y-16139357D01*
X8508928Y-16196500D01*
X8508928Y-16267929D01*
X8494643Y-16325071D01*
X8480357Y-16353643D01*
X8466071Y-16367929D01*
X8437500Y-16382214D01*
X8408928Y-16382214D01*
X8380357Y-16367929D01*
X8366071Y-16353643D01*
X8351786Y-16325071D01*
X8337500Y-16267929D01*
X8337500Y-16196500D01*
X8351786Y-16139357D01*
X8366071Y-16110786D01*
X8380357Y-16096500D01*
X8408928Y-16082214D01*
X8623214Y-16082214D02*
X8623214Y-16139357D01*
X8737500Y-16082214D02*
X8737500Y-16139357D01*
X9180357Y-16496500D02*
X9166071Y-16482214D01*
X9137500Y-16439357D01*
X9123214Y-16410786D01*
X9108928Y-16367929D01*
X9094643Y-16296500D01*
X9094643Y-16239357D01*
X9108928Y-16167929D01*
X9123214Y-16125071D01*
X9137500Y-16096500D01*
X9166071Y-16053643D01*
X9180357Y-16039357D01*
X9423214Y-16182214D02*
X9423214Y-16382214D01*
X9351786Y-16067929D02*
X9280357Y-16282214D01*
X9466071Y-16282214D01*
X9808928Y-16382214D02*
X9808928Y-16082214D01*
X9937500Y-16382214D02*
X9937500Y-16225071D01*
X9923214Y-16196500D01*
X9894643Y-16182214D01*
X9851786Y-16182214D01*
X9823214Y-16196500D01*
X9808928Y-16210786D01*
X10123214Y-16382214D02*
X10094643Y-16367929D01*
X10080357Y-16353643D01*
X10066071Y-16325071D01*
X10066071Y-16239357D01*
X10080357Y-16210786D01*
X10094643Y-16196500D01*
X10123214Y-16182214D01*
X10166071Y-16182214D01*
X10194643Y-16196500D01*
X10208928Y-16210786D01*
X10223214Y-16239357D01*
X10223214Y-16325071D01*
X10208928Y-16353643D01*
X10194643Y-16367929D01*
X10166071Y-16382214D01*
X10123214Y-16382214D01*
X10394643Y-16382214D02*
X10366071Y-16367929D01*
X10351786Y-16339357D01*
X10351786Y-16082214D01*
X10623214Y-16367929D02*
X10594643Y-16382214D01*
X10537500Y-16382214D01*
X10508928Y-16367929D01*
X10494643Y-16339357D01*
X10494643Y-16225071D01*
X10508928Y-16196500D01*
X10537500Y-16182214D01*
X10594643Y-16182214D01*
X10623214Y-16196500D01*
X10637500Y-16225071D01*
X10637500Y-16253643D01*
X10494643Y-16282214D01*
X10751786Y-16367929D02*
X10780357Y-16382214D01*
X10837500Y-16382214D01*
X10866071Y-16367929D01*
X10880357Y-16339357D01*
X10880357Y-16325071D01*
X10866071Y-16296500D01*
X10837500Y-16282214D01*
X10794643Y-16282214D01*
X10766071Y-16267929D01*
X10751786Y-16239357D01*
X10751786Y-16225071D01*
X10766071Y-16196500D01*
X10794643Y-16182214D01*
X10837500Y-16182214D01*
X10866071Y-16196500D01*
X10980357Y-16496500D02*
X10994643Y-16482214D01*
X11023214Y-16439357D01*
X11037500Y-16410786D01*
X11051786Y-16367929D01*
X11066071Y-16296500D01*
X11066071Y-16239357D01*
X11051786Y-16167929D01*
X11037500Y-16125071D01*
X11023214Y-16096500D01*
X10994643Y-16053643D01*
X10980357Y-16039357D01*
M02*
