G04 #@! TF.GenerationSoftware,KiCad,Pcbnew,(5.1.10)-1*
G04 #@! TF.CreationDate,2021-10-22T01:42:52-05:00*
G04 #@! TF.ProjectId,DTM,44544d2e-6b69-4636-9164-5f7063625858,rev?*
G04 #@! TF.SameCoordinates,Original*
G04 #@! TF.FileFunction,Soldermask,Top*
G04 #@! TF.FilePolarity,Negative*
%FSLAX46Y46*%
G04 Gerber Fmt 4.6, Leading zero omitted, Abs format (unit mm)*
G04 Created by KiCad (PCBNEW (5.1.10)-1) date 2021-10-22 01:42:52*
%MOMM*%
%LPD*%
G01*
G04 APERTURE LIST*
%ADD10C,4.000000*%
%ADD11C,3.980180*%
%ADD12C,2.950000*%
%ADD13C,1.700000*%
%ADD14R,1.651000X1.651000*%
%ADD15C,1.651000*%
%ADD16C,1.800000*%
%ADD17C,1.752600*%
%ADD18R,1.752600X1.752600*%
G04 APERTURE END LIST*
D10*
X88100000Y-59525000D03*
X202400000Y-116675000D03*
X88100000Y-116675000D03*
X202400000Y-78575000D03*
D11*
X69050000Y-50000000D03*
D12*
X66510000Y-55080000D03*
X72860000Y-52540000D03*
D13*
X63970000Y-50000000D03*
X74130000Y-50000000D03*
D14*
X236690000Y-122200000D03*
D15*
X244310000Y-122200000D03*
D14*
X236690000Y-103150000D03*
D15*
X244310000Y-103150000D03*
D14*
X236690000Y-84100000D03*
D15*
X244310000Y-84100000D03*
D14*
X236690000Y-65050000D03*
D15*
X244310000Y-65050000D03*
D14*
X217640000Y-122200000D03*
D15*
X225260000Y-122200000D03*
D14*
X217640000Y-103150000D03*
D15*
X225260000Y-103150000D03*
D14*
X217640000Y-84100000D03*
D15*
X225260000Y-84100000D03*
D14*
X217640000Y-65050000D03*
D15*
X225260000Y-65050000D03*
D14*
X198590000Y-122200000D03*
D15*
X206210000Y-122200000D03*
D14*
X198590000Y-103150000D03*
D15*
X206210000Y-103150000D03*
D14*
X198590000Y-84100000D03*
D15*
X206210000Y-84100000D03*
D14*
X198590000Y-65050000D03*
D15*
X206210000Y-65050000D03*
D14*
X179540000Y-122200000D03*
D15*
X187160000Y-122200000D03*
D14*
X179540000Y-103150000D03*
D15*
X187160000Y-103150000D03*
D14*
X179540000Y-84100000D03*
D15*
X187160000Y-84100000D03*
D14*
X179540000Y-65050000D03*
D15*
X187160000Y-65050000D03*
D14*
X160490000Y-122200000D03*
D15*
X168110000Y-122200000D03*
D14*
X160490000Y-103150000D03*
D15*
X168110000Y-103150000D03*
D14*
X160490000Y-84100000D03*
D15*
X168110000Y-84100000D03*
D14*
X160490000Y-65050000D03*
D15*
X168110000Y-65050000D03*
D14*
X141600000Y-119750000D03*
D15*
X149220000Y-119750000D03*
D14*
X141440000Y-103150000D03*
D15*
X149060000Y-103150000D03*
D14*
X141440000Y-84100000D03*
D15*
X149060000Y-84100000D03*
D14*
X141440000Y-65050000D03*
D15*
X149060000Y-65050000D03*
D14*
X149060000Y-62000000D03*
D15*
X141440000Y-62000000D03*
D14*
X122390000Y-122200000D03*
D15*
X130010000Y-122200000D03*
D14*
X122390000Y-103150000D03*
D15*
X130010000Y-103150000D03*
D14*
X122390000Y-84100000D03*
D15*
X130010000Y-84100000D03*
D14*
X122390000Y-65050000D03*
D15*
X130010000Y-65050000D03*
D14*
X130010000Y-62000000D03*
D15*
X122390000Y-62000000D03*
D14*
X103340000Y-122200000D03*
D15*
X110960000Y-122200000D03*
D14*
X103340000Y-103150000D03*
D15*
X110960000Y-103150000D03*
D14*
X103340000Y-84100000D03*
D15*
X110960000Y-84100000D03*
D14*
X103340000Y-65050000D03*
D15*
X110960000Y-65050000D03*
D14*
X103340000Y-46000000D03*
D15*
X110960000Y-46000000D03*
D14*
X84290000Y-122200000D03*
D15*
X91910000Y-122200000D03*
D14*
X84290000Y-103150000D03*
D15*
X91910000Y-103150000D03*
D14*
X84290000Y-84100000D03*
D15*
X91910000Y-84100000D03*
D14*
X84290000Y-65050000D03*
D15*
X91910000Y-65050000D03*
D14*
X84290000Y-46000000D03*
D15*
X91910000Y-46000000D03*
D14*
X65240000Y-122200000D03*
D15*
X72860000Y-122200000D03*
D14*
X65240000Y-103150000D03*
D15*
X72860000Y-103150000D03*
D14*
X65240000Y-84100000D03*
D15*
X72860000Y-84100000D03*
D14*
X65240000Y-65050000D03*
D15*
X72860000Y-65050000D03*
D14*
X65240000Y-46000000D03*
D15*
X72860000Y-46000000D03*
D14*
X46190000Y-122200000D03*
D15*
X53810000Y-122200000D03*
D14*
X46190000Y-103150000D03*
D15*
X53810000Y-103150000D03*
D14*
X46190000Y-84100000D03*
D15*
X53810000Y-84100000D03*
D14*
X46190000Y-65050000D03*
D15*
X53810000Y-65050000D03*
D14*
X46190000Y-46000000D03*
D15*
X53810000Y-46000000D03*
D11*
X50000000Y-50000000D03*
D12*
X47460000Y-55080000D03*
X53810000Y-52540000D03*
D13*
X44920000Y-50000000D03*
X55080000Y-50000000D03*
D11*
X69050000Y-88100000D03*
D12*
X66510000Y-93180000D03*
X72860000Y-90640000D03*
D13*
X63970000Y-88100000D03*
X74130000Y-88100000D03*
D11*
X240500000Y-126200000D03*
D12*
X237960000Y-131280000D03*
X244310000Y-128740000D03*
D13*
X235420000Y-126200000D03*
X245580000Y-126200000D03*
D11*
X240500000Y-107150000D03*
D12*
X237960000Y-112230000D03*
X244310000Y-109690000D03*
D13*
X235420000Y-107150000D03*
X245580000Y-107150000D03*
D11*
X240500000Y-88100000D03*
D12*
X237960000Y-93180000D03*
X244310000Y-90640000D03*
D13*
X235420000Y-88100000D03*
X245580000Y-88100000D03*
D11*
X240500000Y-69050000D03*
D12*
X237960000Y-74130000D03*
X244310000Y-71590000D03*
D13*
X235420000Y-69050000D03*
X245580000Y-69050000D03*
D11*
X221450000Y-126200000D03*
D12*
X218910000Y-131280000D03*
X225260000Y-128740000D03*
D13*
X216370000Y-126200000D03*
X226530000Y-126200000D03*
D11*
X221450000Y-107150000D03*
D12*
X218910000Y-112230000D03*
X225260000Y-109690000D03*
D13*
X216370000Y-107150000D03*
X226530000Y-107150000D03*
D11*
X221450000Y-88100000D03*
D12*
X218910000Y-93180000D03*
X225260000Y-90640000D03*
D13*
X216370000Y-88100000D03*
X226530000Y-88100000D03*
D11*
X221450000Y-69050000D03*
D12*
X218910000Y-74130000D03*
X225260000Y-71590000D03*
D13*
X216370000Y-69050000D03*
X226530000Y-69050000D03*
D11*
X202400000Y-126200000D03*
D12*
X199860000Y-131280000D03*
X206210000Y-128740000D03*
D13*
X197320000Y-126200000D03*
X207480000Y-126200000D03*
D11*
X202400000Y-107150000D03*
D12*
X199860000Y-112230000D03*
X206210000Y-109690000D03*
D13*
X197320000Y-107150000D03*
X207480000Y-107150000D03*
D11*
X202400000Y-88100000D03*
D12*
X199860000Y-93180000D03*
X206210000Y-90640000D03*
D13*
X197320000Y-88100000D03*
X207480000Y-88100000D03*
D11*
X202400000Y-69050000D03*
D12*
X199860000Y-74130000D03*
X206210000Y-71590000D03*
D13*
X197320000Y-69050000D03*
X207480000Y-69050000D03*
D11*
X183350000Y-126200000D03*
D12*
X180810000Y-131280000D03*
X187160000Y-128740000D03*
D13*
X178270000Y-126200000D03*
X188430000Y-126200000D03*
D11*
X183350000Y-107150000D03*
D12*
X180810000Y-112230000D03*
X187160000Y-109690000D03*
D13*
X178270000Y-107150000D03*
X188430000Y-107150000D03*
D11*
X183350000Y-88100000D03*
D12*
X180810000Y-93180000D03*
X187160000Y-90640000D03*
D13*
X178270000Y-88100000D03*
X188430000Y-88100000D03*
D11*
X183350000Y-69050000D03*
D12*
X180810000Y-74130000D03*
X187160000Y-71590000D03*
D13*
X178270000Y-69050000D03*
X188430000Y-69050000D03*
D11*
X164300000Y-126200000D03*
D12*
X161760000Y-131280000D03*
X168110000Y-128740000D03*
D13*
X159220000Y-126200000D03*
X169380000Y-126200000D03*
D11*
X164300000Y-107150000D03*
D12*
X161760000Y-112230000D03*
X168110000Y-109690000D03*
D13*
X159220000Y-107150000D03*
X169380000Y-107150000D03*
D11*
X164300000Y-88100000D03*
D12*
X161760000Y-93180000D03*
X168110000Y-90640000D03*
D13*
X159220000Y-88100000D03*
X169380000Y-88100000D03*
D11*
X164300000Y-69050000D03*
D12*
X161760000Y-74130000D03*
X168110000Y-71590000D03*
D13*
X159220000Y-69050000D03*
X169380000Y-69050000D03*
D11*
X145250000Y-107150000D03*
D12*
X142710000Y-112230000D03*
X149060000Y-109690000D03*
D13*
X140170000Y-107150000D03*
X150330000Y-107150000D03*
D11*
X145250000Y-88100000D03*
D12*
X142710000Y-93180000D03*
X149060000Y-90640000D03*
D13*
X140170000Y-88100000D03*
X150330000Y-88100000D03*
D11*
X145250000Y-69050000D03*
D12*
X142710000Y-74130000D03*
X149060000Y-71590000D03*
D13*
X140170000Y-69050000D03*
X150330000Y-69050000D03*
D11*
X145250000Y-50000000D03*
D12*
X147790000Y-44920000D03*
X141440000Y-47460000D03*
D13*
X150330000Y-50000000D03*
X140170000Y-50000000D03*
D11*
X126200000Y-126200000D03*
D12*
X123660000Y-131280000D03*
X130010000Y-128740000D03*
D13*
X121120000Y-126200000D03*
X131280000Y-126200000D03*
D11*
X126200000Y-107150000D03*
D12*
X123660000Y-112230000D03*
X130010000Y-109690000D03*
D13*
X121120000Y-107150000D03*
X131280000Y-107150000D03*
D11*
X126200000Y-88100000D03*
D12*
X123660000Y-93180000D03*
X130010000Y-90640000D03*
D13*
X121120000Y-88100000D03*
X131280000Y-88100000D03*
D11*
X126200000Y-69050000D03*
D12*
X123660000Y-74130000D03*
X130010000Y-71590000D03*
D13*
X121120000Y-69050000D03*
X131280000Y-69050000D03*
D11*
X126200000Y-50000000D03*
D12*
X128740000Y-44920000D03*
X122390000Y-47460000D03*
D13*
X131280000Y-50000000D03*
X121120000Y-50000000D03*
D11*
X107150000Y-126200000D03*
D12*
X104610000Y-131280000D03*
X110960000Y-128740000D03*
D13*
X102070000Y-126200000D03*
X112230000Y-126200000D03*
D11*
X107150000Y-107150000D03*
D12*
X104610000Y-112230000D03*
X110960000Y-109690000D03*
D13*
X102070000Y-107150000D03*
X112230000Y-107150000D03*
D11*
X107150000Y-88100000D03*
D12*
X104610000Y-93180000D03*
X110960000Y-90640000D03*
D13*
X102070000Y-88100000D03*
X112230000Y-88100000D03*
D11*
X107150000Y-69050000D03*
D12*
X104610000Y-74130000D03*
X110960000Y-71590000D03*
D13*
X102070000Y-69050000D03*
X112230000Y-69050000D03*
D11*
X107150000Y-50000000D03*
D12*
X104610000Y-55080000D03*
X110960000Y-52540000D03*
D13*
X102070000Y-50000000D03*
X112230000Y-50000000D03*
D11*
X88100000Y-126200000D03*
D12*
X85560000Y-131280000D03*
X91910000Y-128740000D03*
D13*
X83020000Y-126200000D03*
X93180000Y-126200000D03*
D11*
X88100000Y-107150000D03*
D12*
X85560000Y-112230000D03*
X91910000Y-109690000D03*
D13*
X83020000Y-107150000D03*
X93180000Y-107150000D03*
D11*
X88100000Y-88100000D03*
D12*
X85560000Y-93180000D03*
X91910000Y-90640000D03*
D13*
X83020000Y-88100000D03*
X93180000Y-88100000D03*
D11*
X88100000Y-69050000D03*
D12*
X85560000Y-74130000D03*
X91910000Y-71590000D03*
D13*
X83020000Y-69050000D03*
X93180000Y-69050000D03*
D11*
X88100000Y-50000000D03*
D12*
X85560000Y-55080000D03*
X91910000Y-52540000D03*
D13*
X83020000Y-50000000D03*
X93180000Y-50000000D03*
D11*
X69050000Y-126200000D03*
D12*
X66510000Y-131280000D03*
X72860000Y-128740000D03*
D13*
X63970000Y-126200000D03*
X74130000Y-126200000D03*
D11*
X69050000Y-107150000D03*
D12*
X66510000Y-112230000D03*
X72860000Y-109690000D03*
D13*
X63970000Y-107150000D03*
X74130000Y-107150000D03*
D11*
X69050000Y-69050000D03*
D12*
X66510000Y-74130000D03*
X72860000Y-71590000D03*
D13*
X63970000Y-69050000D03*
X74130000Y-69050000D03*
D11*
X50000000Y-126200000D03*
D12*
X47460000Y-131280000D03*
X53810000Y-128740000D03*
D13*
X44920000Y-126200000D03*
X55080000Y-126200000D03*
D11*
X50000000Y-107150000D03*
D12*
X47460000Y-112230000D03*
X53810000Y-109690000D03*
D13*
X44920000Y-107150000D03*
X55080000Y-107150000D03*
D11*
X50000000Y-88100000D03*
D12*
X47460000Y-93180000D03*
X53810000Y-90640000D03*
D13*
X44920000Y-88100000D03*
X55080000Y-88100000D03*
D11*
X50000000Y-69050000D03*
D12*
X47460000Y-74130000D03*
X53810000Y-71590000D03*
D13*
X44920000Y-69050000D03*
X55080000Y-69050000D03*
D16*
X140100000Y-125750000D03*
X150400000Y-125750000D03*
X150400000Y-129450000D03*
X150400000Y-122950000D03*
X140100000Y-129450000D03*
X140100000Y-122950000D03*
D17*
X150920000Y-40880000D03*
X122980000Y-56120000D03*
X148380000Y-40880000D03*
X145840000Y-40880000D03*
X143300000Y-40880000D03*
X140760000Y-40880000D03*
X138220000Y-40880000D03*
X135680000Y-40880000D03*
X133140000Y-40880000D03*
X130600000Y-40880000D03*
X128060000Y-40880000D03*
X125520000Y-40880000D03*
X122980000Y-40880000D03*
X125520000Y-56120000D03*
X128060000Y-56120000D03*
X130600000Y-56120000D03*
X133140000Y-56120000D03*
X135680000Y-56120000D03*
X138220000Y-56120000D03*
X140760000Y-56120000D03*
X143300000Y-56120000D03*
X145840000Y-56120000D03*
X148380000Y-56120000D03*
D18*
X150920000Y-56120000D03*
M02*
