M48
; DRILL file {KiCad (5.1.10)-1} date 10/22/21 01:43:08
; FORMAT={-:-/ absolute / metric / decimal}
; #@! TF.CreationDate,2021-10-22T01:43:08-05:00
; #@! TF.GenerationSoftware,Kicad,Pcbnew,(5.1.10)-1
; #@! TF.FileFunction,Plated,1,2,PTH
FMAT,2
METRIC
T1C0.400
T2C0.991
T3C1.092
T4C1.200
T5C3.200
%
G90
G05
T1
X116.25Y-82.75
X116.999Y-101.999
X117.75Y-121.0
X151.467Y-61.259
X152.434Y-61.001
X153.419Y-60.831
T2
X46.19Y-46.0
X46.19Y-65.05
X46.19Y-84.1
X46.19Y-103.15
X46.19Y-122.2
X53.81Y-46.0
X53.81Y-65.05
X53.81Y-84.1
X53.81Y-103.15
X53.81Y-122.2
X65.24Y-46.0
X65.24Y-65.05
X65.24Y-84.1
X65.24Y-103.15
X65.24Y-122.2
X72.86Y-46.0
X72.86Y-65.05
X72.86Y-84.1
X72.86Y-103.15
X72.86Y-122.2
X84.29Y-46.0
X84.29Y-65.05
X84.29Y-84.1
X84.29Y-103.15
X84.29Y-122.2
X91.91Y-46.0
X91.91Y-65.05
X91.91Y-84.1
X91.91Y-103.15
X91.91Y-122.2
X103.34Y-46.0
X103.34Y-65.05
X103.34Y-84.1
X103.34Y-103.15
X103.34Y-122.2
X110.96Y-46.0
X110.96Y-65.05
X110.96Y-84.1
X110.96Y-103.15
X110.96Y-122.2
X122.39Y-62.0
X122.39Y-65.05
X122.39Y-84.1
X122.39Y-103.15
X122.39Y-122.2
X130.01Y-62.0
X130.01Y-65.05
X130.01Y-84.1
X130.01Y-103.15
X130.01Y-122.2
X141.44Y-62.0
X141.44Y-65.05
X141.44Y-84.1
X141.44Y-103.15
X141.6Y-119.75
X149.06Y-62.0
X149.06Y-65.05
X149.06Y-84.1
X149.06Y-103.15
X149.22Y-119.75
X160.49Y-65.05
X160.49Y-84.1
X160.49Y-103.15
X160.49Y-122.2
X168.11Y-65.05
X168.11Y-84.1
X168.11Y-103.15
X168.11Y-122.2
X179.54Y-65.05
X179.54Y-84.1
X179.54Y-103.15
X179.54Y-122.2
X187.16Y-65.05
X187.16Y-84.1
X187.16Y-103.15
X187.16Y-122.2
X198.59Y-65.05
X198.59Y-84.1
X198.59Y-103.15
X198.59Y-122.2
X206.21Y-65.05
X206.21Y-84.1
X206.21Y-103.15
X206.21Y-122.2
X217.64Y-65.05
X217.64Y-84.1
X217.64Y-103.15
X217.64Y-122.2
X225.26Y-65.05
X225.26Y-84.1
X225.26Y-103.15
X225.26Y-122.2
X236.69Y-65.05
X236.69Y-84.1
X236.69Y-103.15
X236.69Y-122.2
X244.31Y-65.05
X244.31Y-84.1
X244.31Y-103.15
X244.31Y-122.2
T3
X122.98Y-40.88
X122.98Y-56.12
X125.52Y-40.88
X125.52Y-56.12
X128.06Y-40.88
X128.06Y-56.12
X130.6Y-40.88
X130.6Y-56.12
X133.14Y-40.88
X133.14Y-56.12
X135.68Y-40.88
X135.68Y-56.12
X138.22Y-40.88
X138.22Y-56.12
X140.76Y-40.88
X140.76Y-56.12
X143.3Y-40.88
X143.3Y-56.12
X145.84Y-40.88
X145.84Y-56.12
X148.38Y-40.88
X148.38Y-56.12
X150.92Y-40.88
X150.92Y-56.12
T4
X140.1Y-122.95
X140.1Y-125.75
X140.1Y-129.45
X150.4Y-122.95
X150.4Y-125.75
X150.4Y-129.45
T5
X88.1Y-59.525
X88.1Y-116.675
X202.4Y-78.575
X202.4Y-116.675
T0
M30
