G04 #@! TF.GenerationSoftware,KiCad,Pcbnew,(5.1.10)-1*
G04 #@! TF.CreationDate,2022-01-11T02:36:13-06:00*
G04 #@! TF.ProjectId,O'Shambles,4f275368-616d-4626-9c65-732e6b696361,rev?*
G04 #@! TF.SameCoordinates,Original*
G04 #@! TF.FileFunction,Paste,Bot*
G04 #@! TF.FilePolarity,Positive*
%FSLAX46Y46*%
G04 Gerber Fmt 4.6, Leading zero omitted, Abs format (unit mm)*
G04 Created by KiCad (PCBNEW (5.1.10)-1) date 2022-01-11 02:36:13*
%MOMM*%
%LPD*%
G01*
G04 APERTURE LIST*
%ADD10R,2.550000X2.500000*%
%ADD11R,1.200000X1.200000*%
G04 APERTURE END LIST*
D10*
X260315000Y-61547500D03*
X273765000Y-59007500D03*
X241265000Y-61547500D03*
X254715000Y-59007500D03*
X22190000Y-104410000D03*
X35640000Y-101870000D03*
X22190000Y-142510000D03*
X35640000Y-139970000D03*
X271383750Y-139970000D03*
X257933750Y-142510000D03*
X247571250Y-139970000D03*
X234121250Y-142510000D03*
X226140000Y-139970000D03*
X212690000Y-142510000D03*
X207090000Y-139970000D03*
X193640000Y-142510000D03*
X188040000Y-139970000D03*
X174590000Y-142510000D03*
X168990000Y-139970000D03*
X155540000Y-142510000D03*
X149940000Y-139970000D03*
X136490000Y-142510000D03*
X128508750Y-139970000D03*
X115058750Y-142510000D03*
X104696250Y-139970000D03*
X91246250Y-142510000D03*
X73740000Y-139970000D03*
X60290000Y-142510000D03*
X54690000Y-139970000D03*
X41240000Y-142510000D03*
X260315000Y-123460000D03*
X273765000Y-120920000D03*
X241265000Y-123460000D03*
X254715000Y-120920000D03*
X222215000Y-123460000D03*
X235665000Y-120920000D03*
X203165000Y-123460000D03*
X216615000Y-120920000D03*
X184115000Y-123460000D03*
X197565000Y-120920000D03*
X165065000Y-123460000D03*
X178515000Y-120920000D03*
X146015000Y-123460000D03*
X159465000Y-120920000D03*
X126965000Y-123460000D03*
X140415000Y-120920000D03*
X107915000Y-123460000D03*
X121365000Y-120920000D03*
X88865000Y-123460000D03*
X102315000Y-120920000D03*
X60290000Y-123460000D03*
X73740000Y-120920000D03*
X41240000Y-123460000D03*
X54690000Y-120920000D03*
X22190000Y-123460000D03*
X35640000Y-120920000D03*
X260315000Y-104410000D03*
X273765000Y-101870000D03*
X241265000Y-104410000D03*
X254715000Y-101870000D03*
X222215000Y-104410000D03*
X235665000Y-101870000D03*
X203165000Y-104410000D03*
X216615000Y-101870000D03*
X184115000Y-104410000D03*
X197565000Y-101870000D03*
X165065000Y-104410000D03*
X178515000Y-101870000D03*
X146015000Y-104410000D03*
X159465000Y-101870000D03*
X126965000Y-104410000D03*
X140415000Y-101870000D03*
X107915000Y-104410000D03*
X121365000Y-101870000D03*
X88865000Y-104410000D03*
X102315000Y-101870000D03*
X60290000Y-104410000D03*
X73740000Y-101870000D03*
X41240000Y-104410000D03*
X54690000Y-101870000D03*
X260315000Y-85360000D03*
X273765000Y-82820000D03*
X241265000Y-85360000D03*
X254715000Y-82820000D03*
X222215000Y-85360000D03*
X235665000Y-82820000D03*
X203165000Y-85360000D03*
X216615000Y-82820000D03*
X184115000Y-85360000D03*
X197565000Y-82820000D03*
X165065000Y-85360000D03*
X178515000Y-82820000D03*
X146015000Y-85360000D03*
X159465000Y-82820000D03*
X126965000Y-85360000D03*
X140415000Y-82820000D03*
X107915000Y-85360000D03*
X121365000Y-82820000D03*
X88865000Y-85360000D03*
X102315000Y-82820000D03*
X60290000Y-85360000D03*
X73740000Y-82820000D03*
X41240000Y-85360000D03*
X54690000Y-82820000D03*
X22190000Y-85360000D03*
X35640000Y-82820000D03*
X222215000Y-61547500D03*
X235665000Y-59007500D03*
X193640000Y-61547500D03*
X207090000Y-59007500D03*
X174590000Y-61547500D03*
X188040000Y-59007500D03*
X155540000Y-61547500D03*
X168990000Y-59007500D03*
X126965000Y-61547500D03*
X140415000Y-59007500D03*
X107915000Y-61547500D03*
X121365000Y-59007500D03*
X88865000Y-61547500D03*
X102315000Y-59007500D03*
X60290000Y-61547500D03*
X73740000Y-59007500D03*
X41240000Y-61547500D03*
X54690000Y-59007500D03*
X22190000Y-61547500D03*
X35640000Y-59007500D03*
D11*
X256643750Y-148450000D03*
X256643750Y-145650000D03*
X232831250Y-148450000D03*
X232831250Y-145650000D03*
X211400000Y-148450000D03*
X211400000Y-145650000D03*
X192350000Y-148450000D03*
X192350000Y-145650000D03*
X173300000Y-148450000D03*
X173300000Y-145650000D03*
X154250000Y-148450000D03*
X154250000Y-145650000D03*
X135200000Y-148450000D03*
X135200000Y-145650000D03*
X113768750Y-148450000D03*
X113768750Y-145650000D03*
X89956250Y-148450000D03*
X89956250Y-145650000D03*
X61525000Y-136400000D03*
X58725000Y-136400000D03*
X42475000Y-136400000D03*
X39675000Y-136400000D03*
X20625000Y-136400000D03*
X23425000Y-136400000D03*
X259025000Y-129400000D03*
X259025000Y-126600000D03*
X239975000Y-129400000D03*
X239975000Y-126600000D03*
X220925000Y-129400000D03*
X220925000Y-126600000D03*
X201875000Y-129400000D03*
X201875000Y-126600000D03*
X182825000Y-129400000D03*
X182825000Y-126600000D03*
X163775000Y-129400000D03*
X163775000Y-126600000D03*
X144725000Y-129400000D03*
X144725000Y-126600000D03*
X125675000Y-129400000D03*
X125675000Y-126600000D03*
X106625000Y-129400000D03*
X106625000Y-126600000D03*
X87575000Y-129400000D03*
X87575000Y-126600000D03*
X61525000Y-117350000D03*
X58725000Y-117350000D03*
X39675000Y-117350000D03*
X42475000Y-117350000D03*
X20625000Y-117350000D03*
X23425000Y-117350000D03*
X259025000Y-110350000D03*
X259025000Y-107550000D03*
X239975000Y-110350000D03*
X239975000Y-107550000D03*
X220925000Y-110350000D03*
X220925000Y-107550000D03*
X201875000Y-110350000D03*
X201875000Y-107550000D03*
X182825000Y-110350000D03*
X182825000Y-107550000D03*
X163775000Y-110350000D03*
X163775000Y-107550000D03*
X144725000Y-110350000D03*
X144725000Y-107550000D03*
X125675000Y-110350000D03*
X125675000Y-107550000D03*
X106625000Y-110350000D03*
X106625000Y-107550000D03*
X87575000Y-110350000D03*
X87575000Y-107550000D03*
X61525000Y-98300000D03*
X58725000Y-98300000D03*
X35500000Y-98300000D03*
X38300000Y-98300000D03*
X20625000Y-98300000D03*
X23425000Y-98300000D03*
X259025000Y-91300000D03*
X259025000Y-88500000D03*
X239975000Y-91300000D03*
X239975000Y-88500000D03*
X220925000Y-91300000D03*
X220925000Y-88500000D03*
X201875000Y-91300000D03*
X201875000Y-88500000D03*
X182825000Y-91300000D03*
X182825000Y-88500000D03*
X163775000Y-91300000D03*
X163775000Y-88500000D03*
X144725000Y-91300000D03*
X144725000Y-88500000D03*
X125675000Y-91300000D03*
X125675000Y-88500000D03*
X106625000Y-91300000D03*
X106625000Y-88500000D03*
X87575000Y-91300000D03*
X87575000Y-88500000D03*
X58725000Y-79250000D03*
X61525000Y-79250000D03*
X39675000Y-79250000D03*
X42475000Y-79250000D03*
X20625000Y-79250000D03*
X23425000Y-79250000D03*
X259025000Y-67487500D03*
X259025000Y-64687500D03*
X239975000Y-67487500D03*
X239975000Y-64687500D03*
X220925000Y-67487500D03*
X220925000Y-64687500D03*
X192350000Y-67487500D03*
X192350000Y-64687500D03*
X173300000Y-67487500D03*
X173300000Y-64687500D03*
X154250000Y-67487500D03*
X154250000Y-64687500D03*
X125675000Y-67487500D03*
X125675000Y-64687500D03*
X106625000Y-67487500D03*
X106625000Y-64687500D03*
X87575000Y-67487500D03*
X87575000Y-64687500D03*
X58725000Y-72737500D03*
X61525000Y-72737500D03*
X39675000Y-72737500D03*
X42475000Y-72737500D03*
X20625000Y-72737500D03*
X23425000Y-72737500D03*
M02*
