G04 #@! TF.GenerationSoftware,KiCad,Pcbnew,(5.1.10)-1*
G04 #@! TF.CreationDate,2022-01-11T02:36:13-06:00*
G04 #@! TF.ProjectId,O'Shambles,4f275368-616d-4626-9c65-732e6b696361,rev?*
G04 #@! TF.SameCoordinates,Original*
G04 #@! TF.FileFunction,Copper,L2,Bot*
G04 #@! TF.FilePolarity,Positive*
%FSLAX46Y46*%
G04 Gerber Fmt 4.6, Leading zero omitted, Abs format (unit mm)*
G04 Created by KiCad (PCBNEW (5.1.10)-1) date 2022-01-11 02:36:13*
%MOMM*%
%LPD*%
G01*
G04 APERTURE LIST*
G04 #@! TA.AperFunction,ComponentPad*
%ADD10R,2.000000X2.000000*%
G04 #@! TD*
G04 #@! TA.AperFunction,ComponentPad*
%ADD11C,2.000000*%
G04 #@! TD*
G04 #@! TA.AperFunction,WasherPad*
%ADD12R,2.000000X3.200000*%
G04 #@! TD*
G04 #@! TA.AperFunction,ComponentPad*
%ADD13R,1.752600X1.752600*%
G04 #@! TD*
G04 #@! TA.AperFunction,ComponentPad*
%ADD14C,1.752600*%
G04 #@! TD*
G04 #@! TA.AperFunction,SMDPad,CuDef*
%ADD15R,2.550000X2.500000*%
G04 #@! TD*
G04 #@! TA.AperFunction,WasherPad*
%ADD16R,3.200000X2.000000*%
G04 #@! TD*
G04 #@! TA.AperFunction,SMDPad,CuDef*
%ADD17R,1.200000X1.200000*%
G04 #@! TD*
G04 #@! TA.AperFunction,ViaPad*
%ADD18C,0.800000*%
G04 #@! TD*
G04 #@! TA.AperFunction,Conductor*
%ADD19C,0.250000*%
G04 #@! TD*
G04 APERTURE END LIST*
D10*
X27050000Y-71587500D03*
D11*
X29550000Y-71587500D03*
X32050000Y-71587500D03*
D12*
X23950000Y-64087500D03*
X35150000Y-64087500D03*
D11*
X27050000Y-57087500D03*
X32050000Y-57087500D03*
D13*
X274645000Y-37417500D03*
D14*
X272105000Y-37417500D03*
X269565000Y-37417500D03*
X267025000Y-37417500D03*
X264485000Y-37417500D03*
X261945000Y-37417500D03*
X259405000Y-37417500D03*
X256865000Y-37417500D03*
X254325000Y-37417500D03*
X251785000Y-37417500D03*
X249245000Y-37417500D03*
X246705000Y-52657500D03*
X249245000Y-52657500D03*
X251785000Y-52657500D03*
X254325000Y-52657500D03*
X256865000Y-52657500D03*
X259405000Y-52657500D03*
X261945000Y-52657500D03*
X264485000Y-52657500D03*
X267025000Y-52657500D03*
X269565000Y-52657500D03*
X272105000Y-52657500D03*
X246705000Y-37417500D03*
X274645000Y-52657500D03*
X22580000Y-52657500D03*
X50520000Y-37417500D03*
X25120000Y-52657500D03*
X27660000Y-52657500D03*
X30200000Y-52657500D03*
X32740000Y-52657500D03*
X35280000Y-52657500D03*
X37820000Y-52657500D03*
X40360000Y-52657500D03*
X42900000Y-52657500D03*
X45440000Y-52657500D03*
X47980000Y-52657500D03*
X50520000Y-52657500D03*
X47980000Y-37417500D03*
X45440000Y-37417500D03*
X42900000Y-37417500D03*
X40360000Y-37417500D03*
X37820000Y-37417500D03*
X35280000Y-37417500D03*
X32740000Y-37417500D03*
X30200000Y-37417500D03*
X27660000Y-37417500D03*
X25120000Y-37417500D03*
D13*
X22580000Y-37417500D03*
D15*
X260315000Y-61547500D03*
X273765000Y-59007500D03*
X241265000Y-61547500D03*
X254715000Y-59007500D03*
X22190000Y-104410000D03*
X35640000Y-101870000D03*
D10*
X56100000Y-96355000D03*
D11*
X56100000Y-93855000D03*
X56100000Y-91355000D03*
D16*
X48600000Y-99455000D03*
X48600000Y-88255000D03*
D11*
X41600000Y-96355000D03*
X41600000Y-91355000D03*
D15*
X22190000Y-142510000D03*
X35640000Y-139970000D03*
X271383750Y-139970000D03*
X257933750Y-142510000D03*
X247571250Y-139970000D03*
X234121250Y-142510000D03*
X226140000Y-139970000D03*
X212690000Y-142510000D03*
X207090000Y-139970000D03*
X193640000Y-142510000D03*
X188040000Y-139970000D03*
X174590000Y-142510000D03*
X168990000Y-139970000D03*
X155540000Y-142510000D03*
X149940000Y-139970000D03*
X136490000Y-142510000D03*
X128508750Y-139970000D03*
X115058750Y-142510000D03*
X104696250Y-139970000D03*
X91246250Y-142510000D03*
X73740000Y-139970000D03*
X60290000Y-142510000D03*
X54690000Y-139970000D03*
X41240000Y-142510000D03*
X260315000Y-123460000D03*
X273765000Y-120920000D03*
X241265000Y-123460000D03*
X254715000Y-120920000D03*
X222215000Y-123460000D03*
X235665000Y-120920000D03*
X203165000Y-123460000D03*
X216615000Y-120920000D03*
X184115000Y-123460000D03*
X197565000Y-120920000D03*
X165065000Y-123460000D03*
X178515000Y-120920000D03*
X146015000Y-123460000D03*
X159465000Y-120920000D03*
X126965000Y-123460000D03*
X140415000Y-120920000D03*
X107915000Y-123460000D03*
X121365000Y-120920000D03*
X88865000Y-123460000D03*
X102315000Y-120920000D03*
X60290000Y-123460000D03*
X73740000Y-120920000D03*
X41240000Y-123460000D03*
X54690000Y-120920000D03*
X22190000Y-123460000D03*
X35640000Y-120920000D03*
X260315000Y-104410000D03*
X273765000Y-101870000D03*
X241265000Y-104410000D03*
X254715000Y-101870000D03*
X222215000Y-104410000D03*
X235665000Y-101870000D03*
X203165000Y-104410000D03*
X216615000Y-101870000D03*
X184115000Y-104410000D03*
X197565000Y-101870000D03*
X165065000Y-104410000D03*
X178515000Y-101870000D03*
X146015000Y-104410000D03*
X159465000Y-101870000D03*
X126965000Y-104410000D03*
X140415000Y-101870000D03*
X107915000Y-104410000D03*
X121365000Y-101870000D03*
X88865000Y-104410000D03*
X102315000Y-101870000D03*
X60290000Y-104410000D03*
X73740000Y-101870000D03*
X41240000Y-104410000D03*
X54690000Y-101870000D03*
X260315000Y-85360000D03*
X273765000Y-82820000D03*
X241265000Y-85360000D03*
X254715000Y-82820000D03*
X222215000Y-85360000D03*
X235665000Y-82820000D03*
X203165000Y-85360000D03*
X216615000Y-82820000D03*
X184115000Y-85360000D03*
X197565000Y-82820000D03*
X165065000Y-85360000D03*
X178515000Y-82820000D03*
X146015000Y-85360000D03*
X159465000Y-82820000D03*
X126965000Y-85360000D03*
X140415000Y-82820000D03*
X107915000Y-85360000D03*
X121365000Y-82820000D03*
X88865000Y-85360000D03*
X102315000Y-82820000D03*
X60290000Y-85360000D03*
X73740000Y-82820000D03*
X41240000Y-85360000D03*
X54690000Y-82820000D03*
X22190000Y-85360000D03*
X35640000Y-82820000D03*
X222215000Y-61547500D03*
X235665000Y-59007500D03*
X193640000Y-61547500D03*
X207090000Y-59007500D03*
X174590000Y-61547500D03*
X188040000Y-59007500D03*
X155540000Y-61547500D03*
X168990000Y-59007500D03*
X126965000Y-61547500D03*
X140415000Y-59007500D03*
X107915000Y-61547500D03*
X121365000Y-59007500D03*
X88865000Y-61547500D03*
X102315000Y-59007500D03*
X60290000Y-61547500D03*
X73740000Y-59007500D03*
X41240000Y-61547500D03*
X54690000Y-59007500D03*
X22190000Y-61547500D03*
X35640000Y-59007500D03*
D17*
X256643750Y-148450000D03*
X256643750Y-145650000D03*
X232831250Y-148450000D03*
X232831250Y-145650000D03*
X211400000Y-148450000D03*
X211400000Y-145650000D03*
X192350000Y-148450000D03*
X192350000Y-145650000D03*
X173300000Y-148450000D03*
X173300000Y-145650000D03*
X154250000Y-148450000D03*
X154250000Y-145650000D03*
X135200000Y-148450000D03*
X135200000Y-145650000D03*
X113768750Y-148450000D03*
X113768750Y-145650000D03*
X89956250Y-148450000D03*
X89956250Y-145650000D03*
X61525000Y-136400000D03*
X58725000Y-136400000D03*
X42475000Y-136400000D03*
X39675000Y-136400000D03*
X20625000Y-136400000D03*
X23425000Y-136400000D03*
X259025000Y-129400000D03*
X259025000Y-126600000D03*
X239975000Y-129400000D03*
X239975000Y-126600000D03*
X220925000Y-129400000D03*
X220925000Y-126600000D03*
X201875000Y-129400000D03*
X201875000Y-126600000D03*
X182825000Y-129400000D03*
X182825000Y-126600000D03*
X163775000Y-129400000D03*
X163775000Y-126600000D03*
X144725000Y-129400000D03*
X144725000Y-126600000D03*
X125675000Y-129400000D03*
X125675000Y-126600000D03*
X106625000Y-129400000D03*
X106625000Y-126600000D03*
X87575000Y-129400000D03*
X87575000Y-126600000D03*
X61525000Y-117350000D03*
X58725000Y-117350000D03*
X39675000Y-117350000D03*
X42475000Y-117350000D03*
X20625000Y-117350000D03*
X23425000Y-117350000D03*
X259025000Y-110350000D03*
X259025000Y-107550000D03*
X239975000Y-110350000D03*
X239975000Y-107550000D03*
X220925000Y-110350000D03*
X220925000Y-107550000D03*
X201875000Y-110350000D03*
X201875000Y-107550000D03*
X182825000Y-110350000D03*
X182825000Y-107550000D03*
X163775000Y-110350000D03*
X163775000Y-107550000D03*
X144725000Y-110350000D03*
X144725000Y-107550000D03*
X125675000Y-110350000D03*
X125675000Y-107550000D03*
X106625000Y-110350000D03*
X106625000Y-107550000D03*
X87575000Y-110350000D03*
X87575000Y-107550000D03*
X61525000Y-98300000D03*
X58725000Y-98300000D03*
X35500000Y-98300000D03*
X38300000Y-98300000D03*
X20625000Y-98300000D03*
X23425000Y-98300000D03*
X259025000Y-91300000D03*
X259025000Y-88500000D03*
X239975000Y-91300000D03*
X239975000Y-88500000D03*
X220925000Y-91300000D03*
X220925000Y-88500000D03*
X201875000Y-91300000D03*
X201875000Y-88500000D03*
X182825000Y-91300000D03*
X182825000Y-88500000D03*
X163775000Y-91300000D03*
X163775000Y-88500000D03*
X144725000Y-91300000D03*
X144725000Y-88500000D03*
X125675000Y-91300000D03*
X125675000Y-88500000D03*
X106625000Y-91300000D03*
X106625000Y-88500000D03*
X87575000Y-91300000D03*
X87575000Y-88500000D03*
X58725000Y-79250000D03*
X61525000Y-79250000D03*
X39675000Y-79250000D03*
X42475000Y-79250000D03*
X20625000Y-79250000D03*
X23425000Y-79250000D03*
X259025000Y-67487500D03*
X259025000Y-64687500D03*
X239975000Y-67487500D03*
X239975000Y-64687500D03*
X220925000Y-67487500D03*
X220925000Y-64687500D03*
X192350000Y-67487500D03*
X192350000Y-64687500D03*
X173300000Y-67487500D03*
X173300000Y-64687500D03*
X154250000Y-67487500D03*
X154250000Y-64687500D03*
X125675000Y-67487500D03*
X125675000Y-64687500D03*
X106625000Y-67487500D03*
X106625000Y-64687500D03*
X87575000Y-67487500D03*
X87575000Y-64687500D03*
X58725000Y-72737500D03*
X61525000Y-72737500D03*
X39675000Y-72737500D03*
X42475000Y-72737500D03*
X20625000Y-72737500D03*
X23425000Y-72737500D03*
D18*
X41062500Y-72750000D03*
X87562500Y-66187500D03*
X47718750Y-57187500D03*
X67687116Y-57130583D03*
X218874957Y-67500000D03*
X219800000Y-53382510D03*
X96252253Y-56837253D03*
X115302253Y-56837253D03*
X217150000Y-91300000D03*
X220875000Y-53382510D03*
X134352253Y-56837253D03*
X162927253Y-56837253D03*
X181977253Y-56837253D03*
X201027253Y-56837253D03*
X229602253Y-56837253D03*
X247781260Y-57093740D03*
X267656242Y-56906250D03*
X48627253Y-80649753D03*
X67677253Y-80649753D03*
X96252253Y-80649753D03*
X115302253Y-80649753D03*
X134352253Y-80649753D03*
X153402253Y-80649753D03*
X172452253Y-80649753D03*
X191502253Y-80649753D03*
X210552253Y-80649753D03*
X229602253Y-80649753D03*
X248652253Y-80649753D03*
X267702253Y-80649753D03*
X29577253Y-99699753D03*
X67677253Y-99699753D03*
X94637340Y-99912660D03*
X115302253Y-99699753D03*
X134352253Y-99699753D03*
X153402253Y-99699753D03*
X172452253Y-99699753D03*
X191502253Y-99699753D03*
X210552253Y-99699753D03*
X229602253Y-99699753D03*
X248652253Y-99699753D03*
X267702253Y-99699753D03*
X48627253Y-118749753D03*
X67677253Y-118749753D03*
X96252253Y-118749753D03*
X115302253Y-118749753D03*
X134122383Y-119200011D03*
X153402253Y-118749753D03*
X172452253Y-118749753D03*
X191502253Y-118749753D03*
X210552253Y-118749753D03*
X229602253Y-118749753D03*
X248652253Y-118749753D03*
X267702253Y-118749753D03*
X29577253Y-137799753D03*
X48627253Y-137799753D03*
X67677253Y-137799753D03*
X98633503Y-137799753D03*
X122446003Y-137799753D03*
X143877253Y-137799753D03*
X162927253Y-137799753D03*
X181977253Y-137799753D03*
X201027253Y-137799753D03*
X220077253Y-137799753D03*
X241508503Y-137799753D03*
X265321003Y-137799753D03*
X115274998Y-55837500D03*
X115274998Y-98700000D03*
X122418748Y-136800000D03*
X134324998Y-79650000D03*
X134324998Y-98700000D03*
X134324998Y-117750000D03*
X97400004Y-98700000D03*
X58125000Y-53625000D03*
X96224998Y-55837500D03*
X134324998Y-55837500D03*
X143849998Y-136800000D03*
X153374998Y-79650000D03*
X153374998Y-98700000D03*
X153374998Y-117750000D03*
X96224998Y-79650000D03*
X115274998Y-79650000D03*
X58125004Y-52593750D03*
X96224998Y-117750000D03*
X98606248Y-136800000D03*
X115274998Y-117750000D03*
X162899998Y-136800000D03*
X162899998Y-55837500D03*
X172424998Y-79650000D03*
X172424998Y-98700000D03*
X172424998Y-117750000D03*
X58125000Y-54656250D03*
X181949998Y-55837500D03*
X191474998Y-79650000D03*
X191474998Y-98700000D03*
X191474998Y-117750000D03*
X181949998Y-136800000D03*
X67676409Y-98673589D03*
X29576409Y-98673589D03*
X58125000Y-57750000D03*
X200999998Y-55837500D03*
X210524998Y-79650000D03*
X210524998Y-98700000D03*
X210524998Y-117750000D03*
X200999998Y-136800000D03*
X48626409Y-79623589D03*
X67676409Y-79623589D03*
X229574998Y-55837500D03*
X229574998Y-79650000D03*
X229574998Y-98700000D03*
X229574998Y-117750000D03*
X220049998Y-136800000D03*
X67676409Y-117723589D03*
X48626409Y-117723589D03*
X29576409Y-117723589D03*
X58125000Y-56718750D03*
X248624998Y-79650000D03*
X248624998Y-98700000D03*
X248624998Y-117750000D03*
X241481248Y-136800000D03*
X67649998Y-56131260D03*
X48593042Y-56473514D03*
X250031250Y-56343750D03*
X267674998Y-79650000D03*
X267674998Y-98700000D03*
X267674998Y-117750000D03*
X265293748Y-136800000D03*
X67676409Y-136773589D03*
X48626409Y-136773589D03*
X29576409Y-136773589D03*
X267663967Y-55906267D03*
X58125000Y-55687496D03*
X29577253Y-118749753D03*
X219600000Y-110350000D03*
X222019734Y-53382510D03*
X219400000Y-129399982D03*
X223102551Y-53382510D03*
X205750000Y-148550000D03*
X224184678Y-53382510D03*
X266085000Y-40897500D03*
X29577253Y-80649753D03*
X48206574Y-96920098D03*
X29576409Y-79623589D03*
X29250000Y-54562500D03*
X57749992Y-75000000D03*
X56290001Y-74209999D03*
X49350000Y-97800000D03*
X31312500Y-55312500D03*
D19*
X20589999Y-136364999D02*
X20625000Y-136400000D01*
X20589999Y-72772501D02*
X20589999Y-136364999D01*
X20625000Y-72737500D02*
X20589999Y-72772501D01*
X105500000Y-128275000D02*
X106625000Y-129400000D01*
X106625000Y-91300000D02*
X105500000Y-92425000D01*
X105500000Y-111500000D02*
X105500000Y-128275000D01*
X105500000Y-92425000D02*
X105500000Y-111500000D01*
X106625000Y-110375000D02*
X105500000Y-111500000D01*
X106625000Y-110350000D02*
X106625000Y-110375000D01*
X20625000Y-79250000D02*
X21437500Y-79250000D01*
X26400000Y-51377500D02*
X40360000Y-37417500D01*
X26400000Y-54227498D02*
X26400000Y-51377500D01*
X20589999Y-60037499D02*
X26400000Y-54227498D01*
X20589999Y-72702499D02*
X20589999Y-60037499D01*
X20625000Y-72737500D02*
X20589999Y-72702499D01*
X106625000Y-141275000D02*
X106625000Y-129400000D01*
X26019998Y-149450000D02*
X98450000Y-149450000D01*
X98450000Y-149450000D02*
X106625000Y-141275000D01*
X20589999Y-144020001D02*
X26019998Y-149450000D01*
X20589999Y-136435001D02*
X20589999Y-144020001D01*
X20625000Y-136400000D02*
X20589999Y-136435001D01*
X39675000Y-72737500D02*
X39675000Y-79250000D01*
X39500000Y-116900000D02*
X39700000Y-117100000D01*
X35500000Y-98300000D02*
X39639999Y-102439999D01*
X39639999Y-117314999D02*
X39675000Y-117350000D01*
X39639999Y-102439999D02*
X39639999Y-117314999D01*
X39639999Y-94160001D02*
X35500000Y-98300000D01*
X39639999Y-79285001D02*
X39639999Y-94160001D01*
X39675000Y-79250000D02*
X39639999Y-79285001D01*
X39639999Y-136364999D02*
X39675000Y-136400000D01*
X39639999Y-117385001D02*
X39639999Y-136364999D01*
X39675000Y-117350000D02*
X39639999Y-117385001D01*
X42475000Y-62782500D02*
X41240000Y-61547500D01*
X42475000Y-72737500D02*
X42475000Y-62782500D01*
X86300000Y-92575000D02*
X87575000Y-91300000D01*
X87575000Y-129400000D02*
X86300000Y-128125000D01*
X86300000Y-111700000D02*
X86300000Y-92575000D01*
X86300000Y-128125000D02*
X86300000Y-111700000D01*
X87575000Y-110425000D02*
X86300000Y-111700000D01*
X87575000Y-110350000D02*
X87575000Y-110425000D01*
X86300000Y-111700000D02*
X86300000Y-111700000D01*
X87575000Y-67487500D02*
X87550000Y-67487500D01*
X87575000Y-67487500D02*
X87575000Y-66200000D01*
X41050000Y-72737500D02*
X41062500Y-72750000D01*
X39675000Y-72737500D02*
X41050000Y-72737500D01*
X41240000Y-61547500D02*
X41240000Y-60047500D01*
X44100000Y-57187500D02*
X47718750Y-57187500D01*
X41240000Y-60047500D02*
X44100000Y-57187500D01*
X61525000Y-62782500D02*
X60290000Y-61547500D01*
X61525000Y-72737500D02*
X61525000Y-62782500D01*
X60290000Y-60065158D02*
X63224575Y-57130583D01*
X63224575Y-57130583D02*
X67687116Y-57130583D01*
X60290000Y-61547500D02*
X60290000Y-60065158D01*
X218887457Y-67487500D02*
X218874957Y-67500000D01*
X106625000Y-67487500D02*
X218862457Y-67487500D01*
X259025000Y-67487500D02*
X218887457Y-67487500D01*
X218862457Y-67487500D02*
X218874957Y-67500000D01*
X87575000Y-62837500D02*
X88865000Y-61547500D01*
X87575000Y-64687500D02*
X87575000Y-62837500D01*
X106625000Y-62837500D02*
X107915000Y-61547500D01*
X106625000Y-64687500D02*
X106625000Y-62837500D01*
X107915000Y-61547500D02*
X107915000Y-60047500D01*
X111125247Y-56837253D02*
X115302253Y-56837253D01*
X107915000Y-60047500D02*
X111125247Y-56837253D01*
X39639999Y-72702499D02*
X39675000Y-72737500D01*
X39100000Y-57917502D02*
X39639999Y-58457501D01*
X39639999Y-58457501D02*
X39639999Y-72702499D01*
X39100000Y-41217500D02*
X39100000Y-57917502D01*
X42900000Y-37417500D02*
X39100000Y-41217500D01*
X89956250Y-148450000D02*
X89456239Y-148950011D01*
X44570009Y-148950011D02*
X39639999Y-144020001D01*
X89456239Y-148950011D02*
X44570009Y-148950011D01*
X39639999Y-144020001D02*
X39639999Y-136435001D01*
X39639999Y-136435001D02*
X39675000Y-136400000D01*
X259025000Y-91300000D02*
X217150000Y-91300000D01*
X217150000Y-91300000D02*
X125675000Y-91300000D01*
X125675000Y-62837500D02*
X126965000Y-61547500D01*
X125675000Y-64687500D02*
X125675000Y-62837500D01*
X126965000Y-61547500D02*
X126965000Y-60047500D01*
X130175247Y-56837253D02*
X134352253Y-56837253D01*
X126965000Y-60047500D02*
X130175247Y-56837253D01*
X154250000Y-62837500D02*
X155540000Y-61547500D01*
X154250000Y-64687500D02*
X154250000Y-62837500D01*
X155540000Y-61547500D02*
X155540000Y-60047500D01*
X158750247Y-56837253D02*
X162927253Y-56837253D01*
X155540000Y-60047500D02*
X158750247Y-56837253D01*
X173300000Y-62837500D02*
X174590000Y-61547500D01*
X173300000Y-64687500D02*
X173300000Y-62837500D01*
X174590000Y-61547500D02*
X174590000Y-60047500D01*
X177800247Y-56837253D02*
X181977253Y-56837253D01*
X174590000Y-60047500D02*
X177800247Y-56837253D01*
X192350000Y-62837500D02*
X193640000Y-61547500D01*
X192350000Y-64687500D02*
X192350000Y-62837500D01*
X193640000Y-61547500D02*
X193640000Y-60047500D01*
X196850247Y-56837253D02*
X201027253Y-56837253D01*
X193640000Y-60047500D02*
X196850247Y-56837253D01*
X220925000Y-62837500D02*
X222215000Y-61547500D01*
X220925000Y-64687500D02*
X220925000Y-62837500D01*
X222215000Y-61547500D02*
X222215000Y-60047500D01*
X225425247Y-56837253D02*
X229602253Y-56837253D01*
X222215000Y-60047500D02*
X225425247Y-56837253D01*
X239975000Y-62837500D02*
X241265000Y-61547500D01*
X239975000Y-64687500D02*
X239975000Y-62837500D01*
X244218760Y-57093740D02*
X247781260Y-57093740D01*
X241265000Y-60047500D02*
X244218760Y-57093740D01*
X241265000Y-61547500D02*
X241265000Y-60047500D01*
X259025000Y-62837500D02*
X260315000Y-61547500D01*
X259025000Y-64687500D02*
X259025000Y-62837500D01*
X260315000Y-61547500D02*
X260315000Y-60047500D01*
X263456250Y-56906250D02*
X267656242Y-56906250D01*
X260315000Y-60047500D02*
X263456250Y-56906250D01*
X23425000Y-79250000D02*
X24000494Y-79250000D01*
X41240000Y-85360000D02*
X41240000Y-83860000D01*
X41240000Y-83860000D02*
X44450247Y-80649753D01*
X44450247Y-80649753D02*
X48627253Y-80649753D01*
X47227500Y-79250000D02*
X48627253Y-80649753D01*
X42475000Y-79250000D02*
X47227500Y-79250000D01*
X60290000Y-85360000D02*
X60290000Y-83860000D01*
X63500247Y-80649753D02*
X67677253Y-80649753D01*
X60290000Y-83860000D02*
X63500247Y-80649753D01*
X61525000Y-79250000D02*
X66277500Y-79250000D01*
X66277500Y-79250000D02*
X67677253Y-80649753D01*
X87575000Y-86650000D02*
X88865000Y-85360000D01*
X87575000Y-88500000D02*
X87575000Y-86650000D01*
X88865000Y-85360000D02*
X88865000Y-83860000D01*
X88865000Y-83860000D02*
X92075247Y-80649753D01*
X92075247Y-80649753D02*
X96252253Y-80649753D01*
X106625000Y-86650000D02*
X107915000Y-85360000D01*
X106625000Y-88500000D02*
X106625000Y-86650000D01*
X111125247Y-80649753D02*
X115302253Y-80649753D01*
X107915000Y-83860000D02*
X111125247Y-80649753D01*
X107915000Y-85360000D02*
X107915000Y-83860000D01*
X125675000Y-86650000D02*
X126965000Y-85360000D01*
X125675000Y-88500000D02*
X125675000Y-86650000D01*
X126965000Y-85360000D02*
X126965000Y-83860000D01*
X130175247Y-80649753D02*
X134352253Y-80649753D01*
X126965000Y-83860000D02*
X130175247Y-80649753D01*
X144725000Y-86650000D02*
X146015000Y-85360000D01*
X144725000Y-88500000D02*
X144725000Y-86650000D01*
X146015000Y-85360000D02*
X146015000Y-83860000D01*
X149225247Y-80649753D02*
X153402253Y-80649753D01*
X146015000Y-83860000D02*
X149225247Y-80649753D01*
X163775000Y-86650000D02*
X165065000Y-85360000D01*
X163775000Y-88500000D02*
X163775000Y-86650000D01*
X165065000Y-85360000D02*
X165065000Y-83860000D01*
X168275247Y-80649753D02*
X172452253Y-80649753D01*
X165065000Y-83860000D02*
X168275247Y-80649753D01*
X182825000Y-86650000D02*
X184115000Y-85360000D01*
X182825000Y-88500000D02*
X182825000Y-86650000D01*
X184115000Y-85360000D02*
X184115000Y-83860000D01*
X187325247Y-80649753D02*
X191502253Y-80649753D01*
X184115000Y-83860000D02*
X187325247Y-80649753D01*
X201875000Y-86650000D02*
X203165000Y-85360000D01*
X201875000Y-88500000D02*
X201875000Y-86650000D01*
X203165000Y-85360000D02*
X203165000Y-83860000D01*
X206375247Y-80649753D02*
X210552253Y-80649753D01*
X203165000Y-83860000D02*
X206375247Y-80649753D01*
X220925000Y-86650000D02*
X222215000Y-85360000D01*
X220925000Y-88500000D02*
X220925000Y-86650000D01*
X222215000Y-85360000D02*
X222215000Y-83860000D01*
X225425247Y-80649753D02*
X229602253Y-80649753D01*
X222215000Y-83860000D02*
X225425247Y-80649753D01*
X239975000Y-86650000D02*
X241265000Y-85360000D01*
X239975000Y-88500000D02*
X239975000Y-86650000D01*
X241265000Y-85360000D02*
X241265000Y-83860000D01*
X244475247Y-80649753D02*
X248652253Y-80649753D01*
X241265000Y-83860000D02*
X244475247Y-80649753D01*
X259025000Y-86650000D02*
X260315000Y-85360000D01*
X259025000Y-88500000D02*
X259025000Y-86650000D01*
X260315000Y-85360000D02*
X260315000Y-83860000D01*
X263525247Y-80649753D02*
X267702253Y-80649753D01*
X260315000Y-83860000D02*
X263525247Y-80649753D01*
X22190000Y-104410000D02*
X22190000Y-102910000D01*
X25400247Y-99699753D02*
X29577253Y-99699753D01*
X22190000Y-102910000D02*
X25400247Y-99699753D01*
X23425000Y-98300000D02*
X24000494Y-98300000D01*
X23425000Y-98300000D02*
X28177500Y-98300000D01*
X28177500Y-98300000D02*
X29577253Y-99699753D01*
X60290000Y-104410000D02*
X60290000Y-102910000D01*
X63500247Y-99699753D02*
X67677253Y-99699753D01*
X60290000Y-102910000D02*
X63500247Y-99699753D01*
X61525000Y-98300000D02*
X62100494Y-98300000D01*
X66277500Y-98300000D02*
X67677253Y-99699753D01*
X61525000Y-98300000D02*
X66277500Y-98300000D01*
X87575000Y-105700000D02*
X88865000Y-104410000D01*
X87575000Y-107550000D02*
X87575000Y-105700000D01*
X91862340Y-99912660D02*
X94637340Y-99912660D01*
X88865000Y-104410000D02*
X88865000Y-102910000D01*
X88865000Y-102910000D02*
X91862340Y-99912660D01*
X106625000Y-105700000D02*
X107915000Y-104410000D01*
X106625000Y-107550000D02*
X106625000Y-105700000D01*
X107915000Y-104410000D02*
X107915000Y-102910000D01*
X111125247Y-99699753D02*
X115302253Y-99699753D01*
X107915000Y-102910000D02*
X111125247Y-99699753D01*
X125675000Y-105700000D02*
X126965000Y-104410000D01*
X125675000Y-107550000D02*
X125675000Y-105700000D01*
X126965000Y-104410000D02*
X126965000Y-102910000D01*
X130175247Y-99699753D02*
X134352253Y-99699753D01*
X126965000Y-102910000D02*
X130175247Y-99699753D01*
X144725000Y-105700000D02*
X146015000Y-104410000D01*
X144725000Y-107550000D02*
X144725000Y-105700000D01*
X146015000Y-104410000D02*
X146015000Y-102910000D01*
X149225247Y-99699753D02*
X153402253Y-99699753D01*
X146015000Y-102910000D02*
X149225247Y-99699753D01*
X163775000Y-105700000D02*
X165065000Y-104410000D01*
X163775000Y-107550000D02*
X163775000Y-105700000D01*
X165065000Y-104410000D02*
X165065000Y-102910000D01*
X168275247Y-99699753D02*
X172452253Y-99699753D01*
X165065000Y-102910000D02*
X168275247Y-99699753D01*
X182825000Y-105700000D02*
X184115000Y-104410000D01*
X182825000Y-107550000D02*
X182825000Y-105700000D01*
X184115000Y-104410000D02*
X184115000Y-102910000D01*
X187325247Y-99699753D02*
X191502253Y-99699753D01*
X184115000Y-102910000D02*
X187325247Y-99699753D01*
X201875000Y-105700000D02*
X203165000Y-104410000D01*
X201875000Y-107550000D02*
X201875000Y-105700000D01*
X203165000Y-104410000D02*
X203165000Y-102910000D01*
X206375247Y-99699753D02*
X210552253Y-99699753D01*
X203165000Y-102910000D02*
X206375247Y-99699753D01*
X220925000Y-105700000D02*
X222215000Y-104410000D01*
X220925000Y-107550000D02*
X220925000Y-105700000D01*
X222215000Y-104410000D02*
X222215000Y-102910000D01*
X225425247Y-99699753D02*
X229602253Y-99699753D01*
X222215000Y-102910000D02*
X225425247Y-99699753D01*
X239975000Y-105700000D02*
X241265000Y-104410000D01*
X239975000Y-107550000D02*
X239975000Y-105700000D01*
X241265000Y-104410000D02*
X241265000Y-102910000D01*
X244475247Y-99699753D02*
X248652253Y-99699753D01*
X241265000Y-102910000D02*
X244475247Y-99699753D01*
X259025000Y-105700000D02*
X260315000Y-104410000D01*
X259025000Y-107550000D02*
X259025000Y-105700000D01*
X260315000Y-104410000D02*
X260315000Y-102910000D01*
X263525247Y-99699753D02*
X267702253Y-99699753D01*
X260315000Y-102910000D02*
X263525247Y-99699753D01*
X41240000Y-123460000D02*
X41240000Y-121960000D01*
X44450247Y-118749753D02*
X48627253Y-118749753D01*
X41240000Y-121960000D02*
X44450247Y-118749753D01*
X42475000Y-117350000D02*
X43050494Y-117350000D01*
X47227500Y-117350000D02*
X48627253Y-118749753D01*
X42475000Y-117350000D02*
X47227500Y-117350000D01*
X60290000Y-123460000D02*
X60290000Y-121960000D01*
X63500247Y-118749753D02*
X67677253Y-118749753D01*
X60290000Y-121960000D02*
X63500247Y-118749753D01*
X66277500Y-117350000D02*
X67677253Y-118749753D01*
X61525000Y-117350000D02*
X66277500Y-117350000D01*
X87575000Y-124750000D02*
X88865000Y-123460000D01*
X87575000Y-126600000D02*
X87575000Y-124750000D01*
X88865000Y-123460000D02*
X88865000Y-121960000D01*
X92075247Y-118749753D02*
X96252253Y-118749753D01*
X88865000Y-121960000D02*
X92075247Y-118749753D01*
X106625000Y-124750000D02*
X107915000Y-123460000D01*
X106625000Y-126600000D02*
X106625000Y-124750000D01*
X107915000Y-123460000D02*
X107915000Y-121960000D01*
X111125247Y-118749753D02*
X115302253Y-118749753D01*
X107915000Y-121960000D02*
X111125247Y-118749753D01*
X125675000Y-124750000D02*
X126965000Y-123460000D01*
X125675000Y-126600000D02*
X125675000Y-124750000D01*
X126965000Y-121960000D02*
X129999988Y-118925012D01*
X133847384Y-118925012D02*
X134122383Y-119200011D01*
X129999988Y-118925012D02*
X133847384Y-118925012D01*
X126965000Y-123460000D02*
X126965000Y-121960000D01*
X146015000Y-123460000D02*
X146015000Y-121960000D01*
X149225247Y-118749753D02*
X153402253Y-118749753D01*
X146015000Y-121960000D02*
X149225247Y-118749753D01*
X144725000Y-126600000D02*
X144725000Y-124750000D01*
X144725000Y-124750000D02*
X146015000Y-123460000D01*
X163775000Y-124750000D02*
X165065000Y-123460000D01*
X163775000Y-126600000D02*
X163775000Y-124750000D01*
X165065000Y-123460000D02*
X165065000Y-121960000D01*
X168275247Y-118749753D02*
X172452253Y-118749753D01*
X165065000Y-121960000D02*
X168275247Y-118749753D01*
X182825000Y-124750000D02*
X184115000Y-123460000D01*
X182825000Y-126600000D02*
X182825000Y-124750000D01*
X184115000Y-123460000D02*
X184115000Y-121960000D01*
X187325247Y-118749753D02*
X191502253Y-118749753D01*
X184115000Y-121960000D02*
X187325247Y-118749753D01*
X201875000Y-124750000D02*
X203165000Y-123460000D01*
X201875000Y-126600000D02*
X201875000Y-124750000D01*
X203165000Y-123460000D02*
X203165000Y-121960000D01*
X206375247Y-118749753D02*
X210552253Y-118749753D01*
X203165000Y-121960000D02*
X206375247Y-118749753D01*
X220925000Y-124750000D02*
X222215000Y-123460000D01*
X220925000Y-126600000D02*
X220925000Y-124750000D01*
X222215000Y-123460000D02*
X222215000Y-121960000D01*
X225425247Y-118749753D02*
X229602253Y-118749753D01*
X222215000Y-121960000D02*
X225425247Y-118749753D01*
X239975000Y-124750000D02*
X241265000Y-123460000D01*
X239975000Y-126600000D02*
X239975000Y-124750000D01*
X241265000Y-123460000D02*
X241265000Y-121960000D01*
X244475247Y-118749753D02*
X248652253Y-118749753D01*
X241265000Y-121960000D02*
X244475247Y-118749753D01*
X259025000Y-124750000D02*
X260315000Y-123460000D01*
X259025000Y-126600000D02*
X259025000Y-124750000D01*
X260315000Y-123460000D02*
X260315000Y-121960000D01*
X263525247Y-118749753D02*
X267702253Y-118749753D01*
X260315000Y-121960000D02*
X263525247Y-118749753D01*
X22190000Y-142510000D02*
X22190000Y-141010000D01*
X25400247Y-137799753D02*
X29577253Y-137799753D01*
X22190000Y-141010000D02*
X25400247Y-137799753D01*
X23425000Y-136400000D02*
X24000494Y-136400000D01*
X28177500Y-136400000D02*
X29577253Y-137799753D01*
X23425000Y-136400000D02*
X28177500Y-136400000D01*
X41240000Y-142510000D02*
X41240000Y-141010000D01*
X44450247Y-137799753D02*
X48627253Y-137799753D01*
X41240000Y-141010000D02*
X44450247Y-137799753D01*
X42475000Y-136400000D02*
X43050494Y-136400000D01*
X47227500Y-136400000D02*
X48627253Y-137799753D01*
X42475000Y-136400000D02*
X47227500Y-136400000D01*
X60290000Y-142510000D02*
X60290000Y-141010000D01*
X63500247Y-137799753D02*
X67677253Y-137799753D01*
X60290000Y-141010000D02*
X63500247Y-137799753D01*
X61525000Y-136400000D02*
X62100494Y-136400000D01*
X66277500Y-136400000D02*
X67677253Y-137799753D01*
X61525000Y-136400000D02*
X66277500Y-136400000D01*
X89956250Y-143800000D02*
X91246250Y-142510000D01*
X89956250Y-145650000D02*
X89956250Y-143800000D01*
X91246250Y-142510000D02*
X91246250Y-141010000D01*
X94456497Y-137799753D02*
X98633503Y-137799753D01*
X91246250Y-141010000D02*
X94456497Y-137799753D01*
X113768750Y-143800000D02*
X115058750Y-142510000D01*
X113768750Y-145650000D02*
X113768750Y-143800000D01*
X115058750Y-142510000D02*
X115058750Y-141010000D01*
X118268997Y-137799753D02*
X122446003Y-137799753D01*
X115058750Y-141010000D02*
X118268997Y-137799753D01*
X135200000Y-143800000D02*
X136490000Y-142510000D01*
X135200000Y-145650000D02*
X135200000Y-143800000D01*
X136490000Y-142510000D02*
X136490000Y-141010000D01*
X139700247Y-137799753D02*
X143877253Y-137799753D01*
X136490000Y-141010000D02*
X139700247Y-137799753D01*
X154250000Y-143800000D02*
X155540000Y-142510000D01*
X154250000Y-145650000D02*
X154250000Y-143800000D01*
X155540000Y-142510000D02*
X155540000Y-141010000D01*
X158750247Y-137799753D02*
X162927253Y-137799753D01*
X155540000Y-141010000D02*
X158750247Y-137799753D01*
X173300000Y-143800000D02*
X174590000Y-142510000D01*
X173300000Y-145650000D02*
X173300000Y-143800000D01*
X174590000Y-142510000D02*
X174590000Y-141010000D01*
X177800247Y-137799753D02*
X181977253Y-137799753D01*
X174590000Y-141010000D02*
X177800247Y-137799753D01*
X192350000Y-143800000D02*
X193640000Y-142510000D01*
X192350000Y-145650000D02*
X192350000Y-143800000D01*
X193640000Y-142510000D02*
X193640000Y-141010000D01*
X196850247Y-137799753D02*
X201027253Y-137799753D01*
X193640000Y-141010000D02*
X196850247Y-137799753D01*
X211400000Y-143800000D02*
X212690000Y-142510000D01*
X211400000Y-145650000D02*
X211400000Y-143800000D01*
X212690000Y-142510000D02*
X212690000Y-141010000D01*
X215900247Y-137799753D02*
X220077253Y-137799753D01*
X212690000Y-141010000D02*
X215900247Y-137799753D01*
X232831250Y-143800000D02*
X234121250Y-142510000D01*
X232831250Y-145650000D02*
X232831250Y-143800000D01*
X234121250Y-142510000D02*
X234121250Y-141010000D01*
X237331497Y-137799753D02*
X241508503Y-137799753D01*
X234121250Y-141010000D02*
X237331497Y-137799753D01*
X256643750Y-143800000D02*
X257933750Y-142510000D01*
X256643750Y-145650000D02*
X256643750Y-143800000D01*
X257933750Y-142510000D02*
X257933750Y-141010000D01*
X261143997Y-137799753D02*
X265321003Y-137799753D01*
X257933750Y-141010000D02*
X261143997Y-137799753D01*
X121365000Y-59007500D02*
X118195000Y-55837500D01*
X121365000Y-101870000D02*
X118195000Y-98700000D01*
X128508750Y-139970000D02*
X125338750Y-136800000D01*
X118195000Y-55837500D02*
X115274998Y-55837500D01*
X118195000Y-98700000D02*
X115274998Y-98700000D01*
X125338750Y-136800000D02*
X122418748Y-136800000D01*
X140415000Y-82820000D02*
X137245000Y-79650000D01*
X140415000Y-101870000D02*
X137245000Y-98700000D01*
X140415000Y-120920000D02*
X137245000Y-117750000D01*
X137245000Y-79650000D02*
X134324998Y-79650000D01*
X137245000Y-98700000D02*
X134324998Y-98700000D01*
X137245000Y-117750000D02*
X134324998Y-117750000D01*
X102315000Y-101870000D02*
X99145000Y-98700000D01*
X99145000Y-98700000D02*
X97400004Y-98700000D01*
X102315000Y-59007500D02*
X99145000Y-55837500D01*
X99145000Y-55837500D02*
X96224998Y-55837500D01*
X140415000Y-59007500D02*
X137245000Y-55837500D01*
X149940000Y-139970000D02*
X146770000Y-136800000D01*
X137245000Y-55837500D02*
X134324998Y-55837500D01*
X146770000Y-136800000D02*
X143849998Y-136800000D01*
X159465000Y-82820000D02*
X156295000Y-79650000D01*
X159465000Y-101870000D02*
X156295000Y-98700000D01*
X159465000Y-120920000D02*
X156295000Y-117750000D01*
X156295000Y-79650000D02*
X153374998Y-79650000D01*
X156295000Y-98700000D02*
X153374998Y-98700000D01*
X156295000Y-117750000D02*
X153374998Y-117750000D01*
X102315000Y-82820000D02*
X99145000Y-79650000D01*
X99145000Y-79650000D02*
X96224998Y-79650000D01*
X121365000Y-82820000D02*
X118195000Y-79650000D01*
X118195000Y-79650000D02*
X115274998Y-79650000D01*
X102315000Y-120920000D02*
X99145000Y-117750000D01*
X104696250Y-139970000D02*
X101526250Y-136800000D01*
X99145000Y-117750000D02*
X96224998Y-117750000D01*
X101526250Y-136800000D02*
X98606248Y-136800000D01*
X121365000Y-120920000D02*
X118195000Y-117750000D01*
X118195000Y-117750000D02*
X115274998Y-117750000D01*
X168990000Y-139970000D02*
X165820000Y-136800000D01*
X165820000Y-136800000D02*
X162899998Y-136800000D01*
X168990000Y-59007500D02*
X165820000Y-55837500D01*
X178515000Y-82820000D02*
X175345000Y-79650000D01*
X178515000Y-101870000D02*
X175345000Y-98700000D01*
X178515000Y-120920000D02*
X175345000Y-117750000D01*
X165820000Y-55837500D02*
X162899998Y-55837500D01*
X175345000Y-79650000D02*
X172424998Y-79650000D01*
X175345000Y-98700000D02*
X172424998Y-98700000D01*
X175345000Y-117750000D02*
X172424998Y-117750000D01*
X101900000Y-121335000D02*
X102315000Y-120920000D01*
X101900000Y-133506248D02*
X101900000Y-121335000D01*
X98606248Y-136800000D02*
X101900000Y-133506248D01*
X162899998Y-55837500D02*
X162937500Y-55799998D01*
X188040000Y-59007500D02*
X184870000Y-55837500D01*
X197565000Y-82820000D02*
X194395000Y-79650000D01*
X197565000Y-101870000D02*
X194395000Y-98700000D01*
X197565000Y-120920000D02*
X194395000Y-117750000D01*
X188040000Y-139970000D02*
X184870000Y-136800000D01*
X184870000Y-55837500D02*
X181949998Y-55837500D01*
X194395000Y-79650000D02*
X191474998Y-79650000D01*
X194395000Y-98700000D02*
X191474998Y-98700000D01*
X194395000Y-117750000D02*
X191474998Y-117750000D01*
X184870000Y-136800000D02*
X181949998Y-136800000D01*
X73740000Y-101870000D02*
X70543589Y-98673589D01*
X70543589Y-98673589D02*
X67676409Y-98673589D01*
X35640000Y-101870000D02*
X32443589Y-98673589D01*
X32443589Y-98673589D02*
X29576409Y-98673589D01*
X181949998Y-55837500D02*
X181968750Y-55818748D01*
X207090000Y-59007500D02*
X203920000Y-55837500D01*
X216615000Y-82820000D02*
X213445000Y-79650000D01*
X216615000Y-101870000D02*
X213445000Y-98700000D01*
X216615000Y-120920000D02*
X213445000Y-117750000D01*
X207090000Y-139970000D02*
X203920000Y-136800000D01*
X203920000Y-55837500D02*
X200999998Y-55837500D01*
X213445000Y-79650000D02*
X210524998Y-79650000D01*
X213445000Y-98700000D02*
X210524998Y-98700000D01*
X213445000Y-117750000D02*
X210524998Y-117750000D01*
X203920000Y-136800000D02*
X200999998Y-136800000D01*
X51493589Y-79623589D02*
X48626409Y-79623589D01*
X54690000Y-82820000D02*
X51493589Y-79623589D01*
X73740000Y-82820000D02*
X70543589Y-79623589D01*
X70543589Y-79623589D02*
X67676409Y-79623589D01*
X35280000Y-52657500D02*
X35280000Y-54733912D01*
X35280000Y-54733912D02*
X37240001Y-56693913D01*
X37240001Y-56693913D02*
X37240001Y-81219999D01*
X37240001Y-81219999D02*
X35640000Y-82820000D01*
X235665000Y-59007500D02*
X232495000Y-55837500D01*
X235665000Y-82820000D02*
X232495000Y-79650000D01*
X235665000Y-101870000D02*
X232495000Y-98700000D01*
X235665000Y-120920000D02*
X232495000Y-117750000D01*
X226140000Y-139970000D02*
X222970000Y-136800000D01*
X232495000Y-55837500D02*
X229574998Y-55837500D01*
X232495000Y-79650000D02*
X229574998Y-79650000D01*
X232495000Y-98700000D02*
X229574998Y-98700000D01*
X232495000Y-117750000D02*
X229574998Y-117750000D01*
X222970000Y-136800000D02*
X220049998Y-136800000D01*
X73740000Y-120920000D02*
X70543589Y-117723589D01*
X70543589Y-117723589D02*
X67676409Y-117723589D01*
X51493589Y-117723589D02*
X48626409Y-117723589D01*
X54690000Y-120920000D02*
X51493589Y-117723589D01*
X32443589Y-117723589D02*
X29576409Y-117723589D01*
X35640000Y-120920000D02*
X32443589Y-117723589D01*
X255428750Y-54093750D02*
X256865000Y-52657500D01*
X240578750Y-54093750D02*
X255428750Y-54093750D01*
X235665000Y-59007500D02*
X240578750Y-54093750D01*
X254715000Y-82820000D02*
X251545000Y-79650000D01*
X254715000Y-101870000D02*
X251545000Y-98700000D01*
X254715000Y-120920000D02*
X251545000Y-117750000D01*
X247571250Y-139970000D02*
X244401250Y-136800000D01*
X251545000Y-79650000D02*
X248624998Y-79650000D01*
X251545000Y-98700000D02*
X248624998Y-98700000D01*
X251545000Y-117750000D02*
X248624998Y-117750000D01*
X244401250Y-136800000D02*
X241481248Y-136800000D01*
X254715000Y-59007500D02*
X258135000Y-59007500D01*
X32740000Y-52657500D02*
X32493750Y-52903750D01*
X258135000Y-59007500D02*
X264485000Y-52657500D01*
X73740000Y-57507500D02*
X72363760Y-56131260D01*
X72363760Y-56131260D02*
X67649998Y-56131260D01*
X73740000Y-59007500D02*
X73740000Y-57507500D01*
X52156014Y-56473514D02*
X48593042Y-56473514D01*
X54690000Y-59007500D02*
X52156014Y-56473514D01*
X252051250Y-56343750D02*
X250031250Y-56343750D01*
X254715000Y-59007500D02*
X252051250Y-56343750D01*
X273765000Y-82820000D02*
X270595000Y-79650000D01*
X273765000Y-101870000D02*
X270595000Y-98700000D01*
X273765000Y-120920000D02*
X270595000Y-117750000D01*
X271383750Y-139970000D02*
X268213750Y-136800000D01*
X270595000Y-79650000D02*
X267674998Y-79650000D01*
X270595000Y-98700000D02*
X267674998Y-98700000D01*
X270595000Y-117750000D02*
X267674998Y-117750000D01*
X268213750Y-136800000D02*
X265293748Y-136800000D01*
X73740000Y-139970000D02*
X70543589Y-136773589D01*
X70543589Y-136773589D02*
X67676409Y-136773589D01*
X54690000Y-139970000D02*
X51493589Y-136773589D01*
X51493589Y-136773589D02*
X48626409Y-136773589D01*
X35640000Y-139970000D02*
X32443589Y-136773589D01*
X32443589Y-136773589D02*
X29576409Y-136773589D01*
X273765000Y-59007500D02*
X270663767Y-55906267D01*
X270663767Y-55906267D02*
X267663967Y-55906267D01*
X22190000Y-123460000D02*
X22190000Y-121960000D01*
X25400247Y-118749753D02*
X29577253Y-118749753D01*
X22190000Y-121960000D02*
X25400247Y-118749753D01*
X23425000Y-117350000D02*
X24000494Y-117350000D01*
X28177500Y-117350000D02*
X29577253Y-118749753D01*
X23425000Y-117350000D02*
X28177500Y-117350000D01*
X259050000Y-110350000D02*
X259100000Y-110400000D01*
X125675000Y-110350000D02*
X219600000Y-110350000D01*
X219600000Y-110350000D02*
X259025000Y-110350000D01*
X222019734Y-53363484D02*
X222019734Y-53382510D01*
X259025000Y-129400000D02*
X219350000Y-129400000D01*
X219350000Y-129400000D02*
X125675000Y-129400000D01*
X231816252Y-148450000D02*
X256643750Y-148450000D01*
X113768750Y-148450000D02*
X230000000Y-148450000D01*
X230000000Y-148450000D02*
X231816252Y-148450000D01*
X272105000Y-46917500D02*
X272105000Y-52657500D01*
X266085000Y-40897500D02*
X272105000Y-46917500D01*
X58756252Y-72768752D02*
X58725000Y-72737500D01*
X58689999Y-72835005D02*
X58756252Y-72768752D01*
X58689999Y-136364999D02*
X58689999Y-72835005D01*
X58725000Y-136400000D02*
X58689999Y-136364999D01*
X50520000Y-42645000D02*
X50520000Y-37417500D01*
X58725000Y-72737500D02*
X57190023Y-71202523D01*
X57190023Y-71202523D02*
X57190023Y-49315023D01*
X57190023Y-49315023D02*
X50520000Y-42645000D01*
X58689999Y-136435001D02*
X58725000Y-136400000D01*
X62100000Y-148500000D02*
X58689999Y-145089999D01*
X58689999Y-145089999D02*
X58689999Y-136435001D01*
X87575000Y-146325000D02*
X85400000Y-148500000D01*
X85400000Y-148500000D02*
X62100000Y-148500000D01*
X87575000Y-129400000D02*
X87575000Y-146325000D01*
X259405000Y-41251250D02*
X259405000Y-37417500D01*
X251256250Y-49400000D02*
X259405000Y-41251250D01*
X223782510Y-49400000D02*
X251256250Y-49400000D01*
X219800000Y-53382510D02*
X223782510Y-49400000D01*
X261945000Y-39347661D02*
X261945000Y-37417500D01*
X224407499Y-49850011D02*
X251442650Y-49850011D01*
X251442650Y-49850011D02*
X261945000Y-39347661D01*
X220875000Y-53382510D02*
X224407499Y-49850011D01*
X88865000Y-61547500D02*
X88865000Y-60071410D01*
X88865000Y-60071410D02*
X92099157Y-56837253D01*
X92099157Y-56837253D02*
X96252253Y-56837253D01*
X22190000Y-83860000D02*
X25400247Y-80649753D01*
X22190000Y-85360000D02*
X22190000Y-83860000D01*
X28177500Y-79250000D02*
X29577253Y-80649753D01*
X23425000Y-79250000D02*
X28177500Y-79250000D01*
X25400247Y-80649753D02*
X29577253Y-80649753D01*
X58524999Y-53225001D02*
X58125000Y-53625000D01*
X78749989Y-58352167D02*
X73622822Y-53225001D01*
X86186410Y-89750000D02*
X78749989Y-82313579D01*
X88450004Y-89750000D02*
X86186410Y-89750000D01*
X78749989Y-82313579D02*
X78749989Y-58352167D01*
X73622822Y-53225001D02*
X58524999Y-53225001D01*
X97400004Y-98700000D02*
X88450004Y-89750000D01*
X92462500Y-55837500D02*
X96224998Y-55837500D01*
X76871731Y-55837500D02*
X92462500Y-55837500D01*
X73627981Y-52593750D02*
X76871731Y-55837500D01*
X58125004Y-52593750D02*
X73627981Y-52593750D01*
X161999998Y-135900000D02*
X162899998Y-136800000D01*
X127050000Y-135900000D02*
X161999998Y-135900000D01*
X121365000Y-130215000D02*
X127050000Y-135900000D01*
X121365000Y-120920000D02*
X121365000Y-130215000D01*
X58818728Y-53962522D02*
X58125000Y-54656250D01*
X73723933Y-53962522D02*
X58818728Y-53962522D01*
X78299978Y-58538567D02*
X73723933Y-53962522D01*
X86000011Y-90200011D02*
X78299978Y-82499978D01*
X78299978Y-82499978D02*
X78299978Y-58538567D01*
X93700000Y-115225002D02*
X93700000Y-105850000D01*
X93700000Y-105850000D02*
X96150000Y-103400000D01*
X96150000Y-103400000D02*
X96150000Y-98089998D01*
X96224998Y-117750000D02*
X93700000Y-115225002D01*
X96150000Y-98089998D02*
X88260013Y-90200011D01*
X88260013Y-90200011D02*
X86000011Y-90200011D01*
X73740000Y-101870000D02*
X76949945Y-98660055D01*
X76949945Y-98660055D02*
X76949945Y-59211355D01*
X76949945Y-59211355D02*
X73144840Y-55406250D01*
X73144840Y-55406250D02*
X60468750Y-55406250D01*
X60468750Y-55406250D02*
X58125000Y-57750000D01*
X188040000Y-62390000D02*
X188040000Y-59007500D01*
X242537500Y-66562500D02*
X192212500Y-66562500D01*
X192212500Y-66562500D02*
X188040000Y-62390000D01*
X248718750Y-60381250D02*
X242537500Y-66562500D01*
X248718750Y-56489498D02*
X248718750Y-60381250D01*
X250645748Y-54562500D02*
X248718750Y-56489498D01*
X257500000Y-54562500D02*
X250645748Y-54562500D01*
X259405000Y-52657500D02*
X257500000Y-54562500D01*
X54690000Y-101870000D02*
X49740098Y-96920098D01*
X49740098Y-96920098D02*
X48206574Y-96920098D01*
X32443589Y-79623589D02*
X29576409Y-79623589D01*
X35640000Y-82820000D02*
X32443589Y-79623589D01*
X73740000Y-120920000D02*
X77399956Y-117260044D01*
X73331240Y-54956239D02*
X59887511Y-54956239D01*
X77399956Y-59024955D02*
X73331240Y-54956239D01*
X59887511Y-54956239D02*
X58125000Y-56718750D01*
X77399956Y-117260044D02*
X77399956Y-59024955D01*
X32695000Y-54562500D02*
X29250000Y-54562500D01*
X32740000Y-54517500D02*
X32695000Y-54562500D01*
X32740000Y-52657500D02*
X32740000Y-54517500D01*
X32718750Y-54562500D02*
X32695000Y-54562500D01*
X35640000Y-57483750D02*
X32718750Y-54562500D01*
X35640000Y-59007500D02*
X35640000Y-57483750D01*
X77849967Y-58724967D02*
X73568751Y-54443751D01*
X73568751Y-54443751D02*
X59368745Y-54443751D01*
X77849967Y-135860033D02*
X77849967Y-58724967D01*
X59368745Y-54443751D02*
X58125000Y-55687496D01*
X73740000Y-139970000D02*
X77849967Y-135860033D01*
X251629050Y-50300022D02*
X225102222Y-50300022D01*
X264485000Y-37444072D02*
X251629050Y-50300022D01*
X225102222Y-50300022D02*
X222019734Y-53382510D01*
X264485000Y-37417500D02*
X264485000Y-37444072D01*
X223102551Y-53382510D02*
X225735028Y-50750033D01*
X263640494Y-38924989D02*
X270597511Y-38924989D01*
X270597511Y-38924989D02*
X272105000Y-37417500D01*
X225735028Y-50750033D02*
X251815450Y-50750033D01*
X251815450Y-50750033D02*
X263640494Y-38924989D01*
X226367144Y-51200044D02*
X224184678Y-53382510D01*
X252001850Y-51200044D02*
X226367144Y-51200044D01*
X263826894Y-39375000D02*
X252001850Y-51200044D01*
X274645000Y-37417500D02*
X272687500Y-39375000D01*
X272687500Y-39375000D02*
X263826894Y-39375000D01*
X25120000Y-52021090D02*
X25120000Y-52657500D01*
X30200000Y-46941090D02*
X25120000Y-52021090D01*
X30200000Y-37417500D02*
X30200000Y-46941090D01*
X57749992Y-72399992D02*
X57749992Y-75000000D01*
X56740014Y-71390014D02*
X57749992Y-72399992D01*
X56740014Y-49501424D02*
X56740014Y-71390014D01*
X47980000Y-40741410D02*
X56740014Y-49501424D01*
X47980000Y-37417500D02*
X47980000Y-40741410D01*
X57749992Y-94703133D02*
X57749992Y-75000000D01*
X56100000Y-96353125D02*
X57749992Y-94703133D01*
X56290001Y-49687822D02*
X56290001Y-74209999D01*
X45440000Y-37417500D02*
X45440000Y-38837821D01*
X45440000Y-38837821D02*
X56290001Y-49687822D01*
X56290001Y-91164999D02*
X56100000Y-91355000D01*
X56290001Y-74209999D02*
X56290001Y-91164999D01*
X41222500Y-104410000D02*
X41240000Y-104410000D01*
X41250000Y-104382500D02*
X41222500Y-104410000D01*
X41250000Y-103400000D02*
X41250000Y-104382500D01*
X38300000Y-100450000D02*
X41250000Y-103400000D01*
X38300000Y-98300000D02*
X38300000Y-100450000D01*
X38300000Y-96136410D02*
X38300000Y-98300000D01*
X41600000Y-92836410D02*
X38300000Y-96136410D01*
X41600000Y-91353125D02*
X41600000Y-92836410D01*
X41240000Y-102910000D02*
X46350000Y-97800000D01*
X46350000Y-97800000D02*
X49350000Y-97800000D01*
X41240000Y-104410000D02*
X41240000Y-102910000D01*
X22190000Y-61547500D02*
X22190000Y-59986498D01*
X22190000Y-59986498D02*
X26863998Y-55312500D01*
X26863998Y-55312500D02*
X31312500Y-55312500D01*
X31312500Y-56350000D02*
X32050000Y-57087500D01*
X31312500Y-55312500D02*
X31312500Y-56350000D01*
X22218750Y-61576250D02*
X22190000Y-61547500D01*
X22218750Y-71531250D02*
X22218750Y-61576250D01*
X23425000Y-72737500D02*
X22218750Y-71531250D01*
M02*
