G04 #@! TF.GenerationSoftware,KiCad,Pcbnew,(5.1.10)-1*
G04 #@! TF.CreationDate,2022-01-11T02:36:13-06:00*
G04 #@! TF.ProjectId,O'Shambles,4f275368-616d-4626-9c65-732e6b696361,rev?*
G04 #@! TF.SameCoordinates,Original*
G04 #@! TF.FileFunction,Paste,Top*
G04 #@! TF.FilePolarity,Positive*
%FSLAX46Y46*%
G04 Gerber Fmt 4.6, Leading zero omitted, Abs format (unit mm)*
G04 Created by KiCad (PCBNEW (5.1.10)-1) date 2022-01-11 02:36:13*
%MOMM*%
%LPD*%
G01*
G04 APERTURE LIST*
%ADD10R,2.550000X2.500000*%
G04 APERTURE END LIST*
D10*
X261585000Y-59007500D03*
X275035000Y-61547500D03*
X242535000Y-59007500D03*
X255985000Y-61547500D03*
X23460000Y-101870000D03*
X36910000Y-104410000D03*
X23460000Y-139970000D03*
X36910000Y-142510000D03*
X272653750Y-142510000D03*
X259203750Y-139970000D03*
X248841250Y-142510000D03*
X235391250Y-139970000D03*
X227410000Y-142510000D03*
X213960000Y-139970000D03*
X208360000Y-142510000D03*
X194910000Y-139970000D03*
X189310000Y-142510000D03*
X175860000Y-139970000D03*
X170260000Y-142510000D03*
X156810000Y-139970000D03*
X151210000Y-142510000D03*
X137760000Y-139970000D03*
X129778750Y-142510000D03*
X116328750Y-139970000D03*
X105966250Y-142510000D03*
X92516250Y-139970000D03*
X75010000Y-142510000D03*
X61560000Y-139970000D03*
X55960000Y-142510000D03*
X42510000Y-139970000D03*
X261585000Y-120920000D03*
X275035000Y-123460000D03*
X242535000Y-120920000D03*
X255985000Y-123460000D03*
X223485000Y-120920000D03*
X236935000Y-123460000D03*
X204435000Y-120920000D03*
X217885000Y-123460000D03*
X185385000Y-120920000D03*
X198835000Y-123460000D03*
X166335000Y-120920000D03*
X179785000Y-123460000D03*
X147285000Y-120920000D03*
X160735000Y-123460000D03*
X128235000Y-120920000D03*
X141685000Y-123460000D03*
X109185000Y-120920000D03*
X122635000Y-123460000D03*
X90135000Y-120920000D03*
X103585000Y-123460000D03*
X61560000Y-120920000D03*
X75010000Y-123460000D03*
X42510000Y-120920000D03*
X55960000Y-123460000D03*
X23460000Y-120920000D03*
X36910000Y-123460000D03*
X261585000Y-101870000D03*
X275035000Y-104410000D03*
X242535000Y-101870000D03*
X255985000Y-104410000D03*
X223485000Y-101870000D03*
X236935000Y-104410000D03*
X204435000Y-101870000D03*
X217885000Y-104410000D03*
X185385000Y-101870000D03*
X198835000Y-104410000D03*
X166335000Y-101870000D03*
X179785000Y-104410000D03*
X147285000Y-101870000D03*
X160735000Y-104410000D03*
X128235000Y-101870000D03*
X141685000Y-104410000D03*
X109185000Y-101870000D03*
X122635000Y-104410000D03*
X90135000Y-101870000D03*
X103585000Y-104410000D03*
X61560000Y-101870000D03*
X75010000Y-104410000D03*
X42510000Y-101870000D03*
X55960000Y-104410000D03*
X261585000Y-82820000D03*
X275035000Y-85360000D03*
X242535000Y-82820000D03*
X255985000Y-85360000D03*
X223485000Y-82820000D03*
X236935000Y-85360000D03*
X204435000Y-82820000D03*
X217885000Y-85360000D03*
X185385000Y-82820000D03*
X198835000Y-85360000D03*
X166335000Y-82820000D03*
X179785000Y-85360000D03*
X147285000Y-82820000D03*
X160735000Y-85360000D03*
X128235000Y-82820000D03*
X141685000Y-85360000D03*
X109185000Y-82820000D03*
X122635000Y-85360000D03*
X90135000Y-82820000D03*
X103585000Y-85360000D03*
X61560000Y-82820000D03*
X75010000Y-85360000D03*
X42510000Y-82820000D03*
X55960000Y-85360000D03*
X23460000Y-82820000D03*
X36910000Y-85360000D03*
X223485000Y-59007500D03*
X236935000Y-61547500D03*
X194910000Y-59007500D03*
X208360000Y-61547500D03*
X175860000Y-59007500D03*
X189310000Y-61547500D03*
X156810000Y-59007500D03*
X170260000Y-61547500D03*
X128235000Y-59007500D03*
X141685000Y-61547500D03*
X109185000Y-59007500D03*
X122635000Y-61547500D03*
X90135000Y-59007500D03*
X103585000Y-61547500D03*
X61560000Y-59007500D03*
X75010000Y-61547500D03*
X42510000Y-59007500D03*
X55960000Y-61547500D03*
X23460000Y-59007500D03*
X36910000Y-61547500D03*
M02*
