M48
; DRILL file {KiCad (5.1.10)-1} date 01/11/22 02:36:17
; FORMAT={-:-/ absolute / metric / decimal}
; #@! TF.CreationDate,2022-01-11T02:36:17-06:00
; #@! TF.GenerationSoftware,Kicad,Pcbnew,(5.1.10)-1
; #@! TF.FileFunction,Plated,1,2,PTH
FMAT,2
METRIC
T1C0.400
T2C1.000
T3C1.092
%
G90
G05
T1
X29.25Y-54.562
X29.576Y-79.624
X29.576Y-98.674
X29.576Y-117.724
X29.576Y-136.774
X29.577Y-80.65
X29.577Y-99.7
X29.577Y-118.75
X29.577Y-137.8
X31.312Y-55.312
X41.062Y-72.75
X47.719Y-57.188
X48.207Y-96.92
X48.593Y-56.474
X48.626Y-79.624
X48.626Y-117.724
X48.626Y-136.774
X48.627Y-80.65
X48.627Y-118.75
X48.627Y-137.8
X49.35Y-97.8
X56.29Y-74.21
X57.75Y-75.0
X58.125Y-53.625
X58.125Y-54.656
X58.125Y-55.687
X58.125Y-56.719
X58.125Y-57.75
X58.125Y-52.594
X67.65Y-56.131
X67.676Y-79.624
X67.676Y-98.674
X67.676Y-117.724
X67.676Y-136.774
X67.677Y-80.65
X67.677Y-99.7
X67.677Y-118.75
X67.677Y-137.8
X67.687Y-57.131
X87.562Y-66.188
X94.637Y-99.913
X96.225Y-55.837
X96.225Y-79.65
X96.225Y-117.75
X96.252Y-56.837
X96.252Y-80.65
X96.252Y-118.75
X97.4Y-98.7
X98.606Y-136.8
X98.634Y-137.8
X115.275Y-55.837
X115.275Y-79.65
X115.275Y-98.7
X115.275Y-117.75
X115.302Y-56.837
X115.302Y-80.65
X115.302Y-99.7
X115.302Y-118.75
X122.419Y-136.8
X122.446Y-137.8
X134.122Y-119.2
X134.325Y-55.837
X134.325Y-79.65
X134.325Y-98.7
X134.325Y-117.75
X134.352Y-56.837
X134.352Y-80.65
X134.352Y-99.7
X143.85Y-136.8
X143.877Y-137.8
X153.375Y-79.65
X153.375Y-98.7
X153.375Y-117.75
X153.402Y-80.65
X153.402Y-99.7
X153.402Y-118.75
X162.9Y-55.837
X162.9Y-136.8
X162.927Y-56.837
X162.927Y-137.8
X172.425Y-79.65
X172.425Y-98.7
X172.425Y-117.75
X172.452Y-80.65
X172.452Y-99.7
X172.452Y-118.75
X181.95Y-55.837
X181.95Y-136.8
X181.977Y-56.837
X181.977Y-137.8
X191.475Y-79.65
X191.475Y-98.7
X191.475Y-117.75
X191.502Y-80.65
X191.502Y-99.7
X191.502Y-118.75
X201.0Y-55.837
X201.0Y-136.8
X201.027Y-56.837
X201.027Y-137.8
X205.75Y-148.55
X210.525Y-79.65
X210.525Y-98.7
X210.525Y-117.75
X210.552Y-80.65
X210.552Y-99.7
X210.552Y-118.75
X217.15Y-91.3
X218.875Y-67.5
X219.4Y-129.4
X219.6Y-110.35
X219.8Y-53.383
X220.05Y-136.8
X220.077Y-137.8
X220.875Y-53.383
X222.02Y-53.383
X223.103Y-53.383
X224.185Y-53.383
X229.575Y-55.837
X229.575Y-79.65
X229.575Y-98.7
X229.575Y-117.75
X229.602Y-56.837
X229.602Y-80.65
X229.602Y-99.7
X229.602Y-118.75
X241.481Y-136.8
X241.509Y-137.8
X247.781Y-57.094
X248.625Y-79.65
X248.625Y-98.7
X248.625Y-117.75
X248.652Y-80.65
X248.652Y-99.7
X248.652Y-118.75
X250.031Y-56.344
X265.294Y-136.8
X265.321Y-137.8
X266.085Y-40.898
X267.656Y-56.906
X267.664Y-55.906
X267.675Y-79.65
X267.675Y-98.7
X267.675Y-117.75
X267.702Y-80.65
X267.702Y-99.7
X267.702Y-118.75
T2
X27.05Y-57.087
X27.05Y-71.587
X29.55Y-71.587
X32.05Y-57.087
X32.05Y-71.587
X41.6Y-91.355
X41.6Y-96.355
X56.1Y-91.355
X56.1Y-93.855
X56.1Y-96.355
T3
X22.58Y-37.417
X22.58Y-52.657
X25.12Y-37.417
X25.12Y-52.657
X27.66Y-37.417
X27.66Y-52.657
X30.2Y-37.417
X30.2Y-52.657
X32.74Y-37.417
X32.74Y-52.657
X35.28Y-37.417
X35.28Y-52.657
X37.82Y-37.417
X37.82Y-52.657
X40.36Y-37.417
X40.36Y-52.657
X42.9Y-37.417
X42.9Y-52.657
X45.44Y-37.417
X45.44Y-52.657
X47.98Y-37.417
X47.98Y-52.657
X50.52Y-37.417
X50.52Y-52.657
X246.705Y-37.417
X246.705Y-52.657
X249.245Y-37.417
X249.245Y-52.657
X251.785Y-37.417
X251.785Y-52.657
X254.325Y-37.417
X254.325Y-52.657
X256.865Y-37.417
X256.865Y-52.657
X259.405Y-37.417
X259.405Y-52.657
X261.945Y-37.417
X261.945Y-52.657
X264.485Y-37.417
X264.485Y-52.657
X267.025Y-37.417
X267.025Y-52.657
X269.565Y-37.417
X269.565Y-52.657
X272.105Y-37.417
X272.105Y-52.657
X274.645Y-37.417
X274.645Y-52.657
T0
M30
