G04 #@! TF.GenerationSoftware,KiCad,Pcbnew,(5.1.10)-1*
G04 #@! TF.CreationDate,2022-01-11T02:36:13-06:00*
G04 #@! TF.ProjectId,O'Shambles,4f275368-616d-4626-9c65-732e6b696361,rev?*
G04 #@! TF.SameCoordinates,Original*
G04 #@! TF.FileFunction,Soldermask,Bot*
G04 #@! TF.FilePolarity,Negative*
%FSLAX46Y46*%
G04 Gerber Fmt 4.6, Leading zero omitted, Abs format (unit mm)*
G04 Created by KiCad (PCBNEW (5.1.10)-1) date 2022-01-11 02:36:13*
%MOMM*%
%LPD*%
G01*
G04 APERTURE LIST*
%ADD10R,2.000000X2.000000*%
%ADD11C,2.000000*%
%ADD12R,2.000000X3.200000*%
%ADD13R,1.752600X1.752600*%
%ADD14C,1.752600*%
%ADD15R,2.550000X2.500000*%
%ADD16C,3.980180*%
%ADD17C,2.950000*%
%ADD18R,3.200000X2.000000*%
%ADD19R,1.200000X1.200000*%
G04 APERTURE END LIST*
D10*
X27050000Y-71587500D03*
D11*
X29550000Y-71587500D03*
X32050000Y-71587500D03*
D12*
X23950000Y-64087500D03*
X35150000Y-64087500D03*
D11*
X27050000Y-57087500D03*
X32050000Y-57087500D03*
D13*
X274645000Y-37417500D03*
D14*
X272105000Y-37417500D03*
X269565000Y-37417500D03*
X267025000Y-37417500D03*
X264485000Y-37417500D03*
X261945000Y-37417500D03*
X259405000Y-37417500D03*
X256865000Y-37417500D03*
X254325000Y-37417500D03*
X251785000Y-37417500D03*
X249245000Y-37417500D03*
X246705000Y-52657500D03*
X249245000Y-52657500D03*
X251785000Y-52657500D03*
X254325000Y-52657500D03*
X256865000Y-52657500D03*
X259405000Y-52657500D03*
X261945000Y-52657500D03*
X264485000Y-52657500D03*
X267025000Y-52657500D03*
X269565000Y-52657500D03*
X272105000Y-52657500D03*
X246705000Y-37417500D03*
X274645000Y-52657500D03*
X22580000Y-52657500D03*
X50520000Y-37417500D03*
X25120000Y-52657500D03*
X27660000Y-52657500D03*
X30200000Y-52657500D03*
X32740000Y-52657500D03*
X35280000Y-52657500D03*
X37820000Y-52657500D03*
X40360000Y-52657500D03*
X42900000Y-52657500D03*
X45440000Y-52657500D03*
X47980000Y-52657500D03*
X50520000Y-52657500D03*
X47980000Y-37417500D03*
X45440000Y-37417500D03*
X42900000Y-37417500D03*
X40360000Y-37417500D03*
X37820000Y-37417500D03*
X35280000Y-37417500D03*
X32740000Y-37417500D03*
X30200000Y-37417500D03*
X27660000Y-37417500D03*
X25120000Y-37417500D03*
D13*
X22580000Y-37417500D03*
D15*
X260315000Y-61547500D03*
D16*
X267675000Y-64087500D03*
D17*
X270215000Y-59007500D03*
X263865000Y-61547500D03*
D15*
X273765000Y-59007500D03*
D17*
X271485000Y-61547500D03*
X265135000Y-59007500D03*
D15*
X241265000Y-61547500D03*
D16*
X248625000Y-64087500D03*
D17*
X251165000Y-59007500D03*
X244815000Y-61547500D03*
D15*
X254715000Y-59007500D03*
D17*
X252435000Y-61547500D03*
X246085000Y-59007500D03*
D15*
X22190000Y-104410000D03*
D16*
X29550000Y-106950000D03*
D17*
X32090000Y-101870000D03*
X25740000Y-104410000D03*
D15*
X35640000Y-101870000D03*
D17*
X33360000Y-104410000D03*
X27010000Y-101870000D03*
D10*
X56100000Y-96355000D03*
D11*
X56100000Y-93855000D03*
X56100000Y-91355000D03*
D18*
X48600000Y-99455000D03*
X48600000Y-88255000D03*
D11*
X41600000Y-96355000D03*
X41600000Y-91355000D03*
D15*
X22190000Y-142510000D03*
D16*
X29550000Y-145050000D03*
D17*
X32090000Y-139970000D03*
X25740000Y-142510000D03*
D15*
X35640000Y-139970000D03*
D17*
X33360000Y-142510000D03*
X27010000Y-139970000D03*
X262753750Y-139970000D03*
X269103750Y-142510000D03*
D15*
X271383750Y-139970000D03*
D17*
X261483750Y-142510000D03*
X267833750Y-139970000D03*
D16*
X265293750Y-145050000D03*
D15*
X257933750Y-142510000D03*
D17*
X238941250Y-139970000D03*
X245291250Y-142510000D03*
D15*
X247571250Y-139970000D03*
D17*
X237671250Y-142510000D03*
X244021250Y-139970000D03*
D16*
X241481250Y-145050000D03*
D15*
X234121250Y-142510000D03*
D17*
X217510000Y-139970000D03*
X223860000Y-142510000D03*
D15*
X226140000Y-139970000D03*
D17*
X216240000Y-142510000D03*
X222590000Y-139970000D03*
D16*
X220050000Y-145050000D03*
D15*
X212690000Y-142510000D03*
D17*
X198460000Y-139970000D03*
X204810000Y-142510000D03*
D15*
X207090000Y-139970000D03*
D17*
X197190000Y-142510000D03*
X203540000Y-139970000D03*
D16*
X201000000Y-145050000D03*
D15*
X193640000Y-142510000D03*
D17*
X179410000Y-139970000D03*
X185760000Y-142510000D03*
D15*
X188040000Y-139970000D03*
D17*
X178140000Y-142510000D03*
X184490000Y-139970000D03*
D16*
X181950000Y-145050000D03*
D15*
X174590000Y-142510000D03*
D17*
X160360000Y-139970000D03*
X166710000Y-142510000D03*
D15*
X168990000Y-139970000D03*
D17*
X159090000Y-142510000D03*
X165440000Y-139970000D03*
D16*
X162900000Y-145050000D03*
D15*
X155540000Y-142510000D03*
D17*
X141310000Y-139970000D03*
X147660000Y-142510000D03*
D15*
X149940000Y-139970000D03*
D17*
X140040000Y-142510000D03*
X146390000Y-139970000D03*
D16*
X143850000Y-145050000D03*
D15*
X136490000Y-142510000D03*
D17*
X119878750Y-139970000D03*
X126228750Y-142510000D03*
D15*
X128508750Y-139970000D03*
D17*
X118608750Y-142510000D03*
X124958750Y-139970000D03*
D16*
X122418750Y-145050000D03*
D15*
X115058750Y-142510000D03*
D17*
X96066250Y-139970000D03*
X102416250Y-142510000D03*
D15*
X104696250Y-139970000D03*
D17*
X94796250Y-142510000D03*
X101146250Y-139970000D03*
D16*
X98606250Y-145050000D03*
D15*
X91246250Y-142510000D03*
D17*
X65110000Y-139970000D03*
X71460000Y-142510000D03*
D15*
X73740000Y-139970000D03*
D17*
X63840000Y-142510000D03*
X70190000Y-139970000D03*
D16*
X67650000Y-145050000D03*
D15*
X60290000Y-142510000D03*
D17*
X46060000Y-139970000D03*
X52410000Y-142510000D03*
D15*
X54690000Y-139970000D03*
D17*
X44790000Y-142510000D03*
X51140000Y-139970000D03*
D16*
X48600000Y-145050000D03*
D15*
X41240000Y-142510000D03*
X260315000Y-123460000D03*
D16*
X267675000Y-126000000D03*
D17*
X270215000Y-120920000D03*
X263865000Y-123460000D03*
D15*
X273765000Y-120920000D03*
D17*
X271485000Y-123460000D03*
X265135000Y-120920000D03*
D15*
X241265000Y-123460000D03*
D16*
X248625000Y-126000000D03*
D17*
X251165000Y-120920000D03*
X244815000Y-123460000D03*
D15*
X254715000Y-120920000D03*
D17*
X252435000Y-123460000D03*
X246085000Y-120920000D03*
D15*
X222215000Y-123460000D03*
D16*
X229575000Y-126000000D03*
D17*
X232115000Y-120920000D03*
X225765000Y-123460000D03*
D15*
X235665000Y-120920000D03*
D17*
X233385000Y-123460000D03*
X227035000Y-120920000D03*
D15*
X203165000Y-123460000D03*
D16*
X210525000Y-126000000D03*
D17*
X213065000Y-120920000D03*
X206715000Y-123460000D03*
D15*
X216615000Y-120920000D03*
D17*
X214335000Y-123460000D03*
X207985000Y-120920000D03*
D15*
X184115000Y-123460000D03*
D16*
X191475000Y-126000000D03*
D17*
X194015000Y-120920000D03*
X187665000Y-123460000D03*
D15*
X197565000Y-120920000D03*
D17*
X195285000Y-123460000D03*
X188935000Y-120920000D03*
D15*
X165065000Y-123460000D03*
D16*
X172425000Y-126000000D03*
D17*
X174965000Y-120920000D03*
X168615000Y-123460000D03*
D15*
X178515000Y-120920000D03*
D17*
X176235000Y-123460000D03*
X169885000Y-120920000D03*
D15*
X146015000Y-123460000D03*
D16*
X153375000Y-126000000D03*
D17*
X155915000Y-120920000D03*
X149565000Y-123460000D03*
D15*
X159465000Y-120920000D03*
D17*
X157185000Y-123460000D03*
X150835000Y-120920000D03*
D15*
X126965000Y-123460000D03*
D16*
X134325000Y-126000000D03*
D17*
X136865000Y-120920000D03*
X130515000Y-123460000D03*
D15*
X140415000Y-120920000D03*
D17*
X138135000Y-123460000D03*
X131785000Y-120920000D03*
D15*
X107915000Y-123460000D03*
D16*
X115275000Y-126000000D03*
D17*
X117815000Y-120920000D03*
X111465000Y-123460000D03*
D15*
X121365000Y-120920000D03*
D17*
X119085000Y-123460000D03*
X112735000Y-120920000D03*
D15*
X88865000Y-123460000D03*
D16*
X96225000Y-126000000D03*
D17*
X98765000Y-120920000D03*
X92415000Y-123460000D03*
D15*
X102315000Y-120920000D03*
D17*
X100035000Y-123460000D03*
X93685000Y-120920000D03*
D15*
X60290000Y-123460000D03*
D16*
X67650000Y-126000000D03*
D17*
X70190000Y-120920000D03*
X63840000Y-123460000D03*
D15*
X73740000Y-120920000D03*
D17*
X71460000Y-123460000D03*
X65110000Y-120920000D03*
D15*
X41240000Y-123460000D03*
D16*
X48600000Y-126000000D03*
D17*
X51140000Y-120920000D03*
X44790000Y-123460000D03*
D15*
X54690000Y-120920000D03*
D17*
X52410000Y-123460000D03*
X46060000Y-120920000D03*
D15*
X22190000Y-123460000D03*
D16*
X29550000Y-126000000D03*
D17*
X32090000Y-120920000D03*
X25740000Y-123460000D03*
D15*
X35640000Y-120920000D03*
D17*
X33360000Y-123460000D03*
X27010000Y-120920000D03*
D15*
X260315000Y-104410000D03*
D16*
X267675000Y-106950000D03*
D17*
X270215000Y-101870000D03*
X263865000Y-104410000D03*
D15*
X273765000Y-101870000D03*
D17*
X271485000Y-104410000D03*
X265135000Y-101870000D03*
D15*
X241265000Y-104410000D03*
D16*
X248625000Y-106950000D03*
D17*
X251165000Y-101870000D03*
X244815000Y-104410000D03*
D15*
X254715000Y-101870000D03*
D17*
X252435000Y-104410000D03*
X246085000Y-101870000D03*
D15*
X222215000Y-104410000D03*
D16*
X229575000Y-106950000D03*
D17*
X232115000Y-101870000D03*
X225765000Y-104410000D03*
D15*
X235665000Y-101870000D03*
D17*
X233385000Y-104410000D03*
X227035000Y-101870000D03*
D15*
X203165000Y-104410000D03*
D16*
X210525000Y-106950000D03*
D17*
X213065000Y-101870000D03*
X206715000Y-104410000D03*
D15*
X216615000Y-101870000D03*
D17*
X214335000Y-104410000D03*
X207985000Y-101870000D03*
D15*
X184115000Y-104410000D03*
D16*
X191475000Y-106950000D03*
D17*
X194015000Y-101870000D03*
X187665000Y-104410000D03*
D15*
X197565000Y-101870000D03*
D17*
X195285000Y-104410000D03*
X188935000Y-101870000D03*
D15*
X165065000Y-104410000D03*
D16*
X172425000Y-106950000D03*
D17*
X174965000Y-101870000D03*
X168615000Y-104410000D03*
D15*
X178515000Y-101870000D03*
D17*
X176235000Y-104410000D03*
X169885000Y-101870000D03*
D15*
X146015000Y-104410000D03*
D16*
X153375000Y-106950000D03*
D17*
X155915000Y-101870000D03*
X149565000Y-104410000D03*
D15*
X159465000Y-101870000D03*
D17*
X157185000Y-104410000D03*
X150835000Y-101870000D03*
D15*
X126965000Y-104410000D03*
D16*
X134325000Y-106950000D03*
D17*
X136865000Y-101870000D03*
X130515000Y-104410000D03*
D15*
X140415000Y-101870000D03*
D17*
X138135000Y-104410000D03*
X131785000Y-101870000D03*
D15*
X107915000Y-104410000D03*
D16*
X115275000Y-106950000D03*
D17*
X117815000Y-101870000D03*
X111465000Y-104410000D03*
D15*
X121365000Y-101870000D03*
D17*
X119085000Y-104410000D03*
X112735000Y-101870000D03*
D15*
X88865000Y-104410000D03*
D16*
X96225000Y-106950000D03*
D17*
X98765000Y-101870000D03*
X92415000Y-104410000D03*
D15*
X102315000Y-101870000D03*
D17*
X100035000Y-104410000D03*
X93685000Y-101870000D03*
D15*
X60290000Y-104410000D03*
D16*
X67650000Y-106950000D03*
D17*
X70190000Y-101870000D03*
X63840000Y-104410000D03*
D15*
X73740000Y-101870000D03*
D17*
X71460000Y-104410000D03*
X65110000Y-101870000D03*
D15*
X41240000Y-104410000D03*
D16*
X48600000Y-106950000D03*
D17*
X51140000Y-101870000D03*
X44790000Y-104410000D03*
D15*
X54690000Y-101870000D03*
D17*
X52410000Y-104410000D03*
X46060000Y-101870000D03*
D15*
X260315000Y-85360000D03*
D16*
X267675000Y-87900000D03*
D17*
X270215000Y-82820000D03*
X263865000Y-85360000D03*
D15*
X273765000Y-82820000D03*
D17*
X271485000Y-85360000D03*
X265135000Y-82820000D03*
D15*
X241265000Y-85360000D03*
D16*
X248625000Y-87900000D03*
D17*
X251165000Y-82820000D03*
X244815000Y-85360000D03*
D15*
X254715000Y-82820000D03*
D17*
X252435000Y-85360000D03*
X246085000Y-82820000D03*
D15*
X222215000Y-85360000D03*
D16*
X229575000Y-87900000D03*
D17*
X232115000Y-82820000D03*
X225765000Y-85360000D03*
D15*
X235665000Y-82820000D03*
D17*
X233385000Y-85360000D03*
X227035000Y-82820000D03*
D15*
X203165000Y-85360000D03*
D16*
X210525000Y-87900000D03*
D17*
X213065000Y-82820000D03*
X206715000Y-85360000D03*
D15*
X216615000Y-82820000D03*
D17*
X214335000Y-85360000D03*
X207985000Y-82820000D03*
D15*
X184115000Y-85360000D03*
D16*
X191475000Y-87900000D03*
D17*
X194015000Y-82820000D03*
X187665000Y-85360000D03*
D15*
X197565000Y-82820000D03*
D17*
X195285000Y-85360000D03*
X188935000Y-82820000D03*
D15*
X165065000Y-85360000D03*
D16*
X172425000Y-87900000D03*
D17*
X174965000Y-82820000D03*
X168615000Y-85360000D03*
D15*
X178515000Y-82820000D03*
D17*
X176235000Y-85360000D03*
X169885000Y-82820000D03*
D15*
X146015000Y-85360000D03*
D16*
X153375000Y-87900000D03*
D17*
X155915000Y-82820000D03*
X149565000Y-85360000D03*
D15*
X159465000Y-82820000D03*
D17*
X157185000Y-85360000D03*
X150835000Y-82820000D03*
D15*
X126965000Y-85360000D03*
D16*
X134325000Y-87900000D03*
D17*
X136865000Y-82820000D03*
X130515000Y-85360000D03*
D15*
X140415000Y-82820000D03*
D17*
X138135000Y-85360000D03*
X131785000Y-82820000D03*
D15*
X107915000Y-85360000D03*
D16*
X115275000Y-87900000D03*
D17*
X117815000Y-82820000D03*
X111465000Y-85360000D03*
D15*
X121365000Y-82820000D03*
D17*
X119085000Y-85360000D03*
X112735000Y-82820000D03*
D15*
X88865000Y-85360000D03*
D16*
X96225000Y-87900000D03*
D17*
X98765000Y-82820000D03*
X92415000Y-85360000D03*
D15*
X102315000Y-82820000D03*
D17*
X100035000Y-85360000D03*
X93685000Y-82820000D03*
D15*
X60290000Y-85360000D03*
D16*
X67650000Y-87900000D03*
D17*
X70190000Y-82820000D03*
X63840000Y-85360000D03*
D15*
X73740000Y-82820000D03*
D17*
X71460000Y-85360000D03*
X65110000Y-82820000D03*
D15*
X41240000Y-85360000D03*
D16*
X48600000Y-87900000D03*
D17*
X51140000Y-82820000D03*
X44790000Y-85360000D03*
D15*
X54690000Y-82820000D03*
D17*
X52410000Y-85360000D03*
X46060000Y-82820000D03*
D15*
X22190000Y-85360000D03*
D16*
X29550000Y-87900000D03*
D17*
X32090000Y-82820000D03*
X25740000Y-85360000D03*
D15*
X35640000Y-82820000D03*
D17*
X33360000Y-85360000D03*
X27010000Y-82820000D03*
D15*
X222215000Y-61547500D03*
D16*
X229575000Y-64087500D03*
D17*
X232115000Y-59007500D03*
X225765000Y-61547500D03*
D15*
X235665000Y-59007500D03*
D17*
X233385000Y-61547500D03*
X227035000Y-59007500D03*
D15*
X193640000Y-61547500D03*
D16*
X201000000Y-64087500D03*
D17*
X203540000Y-59007500D03*
X197190000Y-61547500D03*
D15*
X207090000Y-59007500D03*
D17*
X204810000Y-61547500D03*
X198460000Y-59007500D03*
D15*
X174590000Y-61547500D03*
D16*
X181950000Y-64087500D03*
D17*
X184490000Y-59007500D03*
X178140000Y-61547500D03*
D15*
X188040000Y-59007500D03*
D17*
X185760000Y-61547500D03*
X179410000Y-59007500D03*
D15*
X155540000Y-61547500D03*
D16*
X162900000Y-64087500D03*
D17*
X165440000Y-59007500D03*
X159090000Y-61547500D03*
D15*
X168990000Y-59007500D03*
D17*
X166710000Y-61547500D03*
X160360000Y-59007500D03*
D15*
X126965000Y-61547500D03*
D16*
X134325000Y-64087500D03*
D17*
X136865000Y-59007500D03*
X130515000Y-61547500D03*
D15*
X140415000Y-59007500D03*
D17*
X138135000Y-61547500D03*
X131785000Y-59007500D03*
D15*
X107915000Y-61547500D03*
D16*
X115275000Y-64087500D03*
D17*
X117815000Y-59007500D03*
X111465000Y-61547500D03*
D15*
X121365000Y-59007500D03*
D17*
X119085000Y-61547500D03*
X112735000Y-59007500D03*
D15*
X88865000Y-61547500D03*
D16*
X96225000Y-64087500D03*
D17*
X98765000Y-59007500D03*
X92415000Y-61547500D03*
D15*
X102315000Y-59007500D03*
D17*
X100035000Y-61547500D03*
X93685000Y-59007500D03*
D15*
X60290000Y-61547500D03*
D16*
X67650000Y-64087500D03*
D17*
X70190000Y-59007500D03*
X63840000Y-61547500D03*
D15*
X73740000Y-59007500D03*
D17*
X71460000Y-61547500D03*
X65110000Y-59007500D03*
D15*
X41240000Y-61547500D03*
D16*
X48600000Y-64087500D03*
D17*
X51140000Y-59007500D03*
X44790000Y-61547500D03*
D15*
X54690000Y-59007500D03*
D17*
X52410000Y-61547500D03*
X46060000Y-59007500D03*
D15*
X22190000Y-61547500D03*
D16*
X29550000Y-64087500D03*
D17*
X32090000Y-59007500D03*
X25740000Y-61547500D03*
D15*
X35640000Y-59007500D03*
D17*
X33360000Y-61547500D03*
X27010000Y-59007500D03*
D19*
X256643750Y-148450000D03*
X256643750Y-145650000D03*
X232831250Y-148450000D03*
X232831250Y-145650000D03*
X211400000Y-148450000D03*
X211400000Y-145650000D03*
X192350000Y-148450000D03*
X192350000Y-145650000D03*
X173300000Y-148450000D03*
X173300000Y-145650000D03*
X154250000Y-148450000D03*
X154250000Y-145650000D03*
X135200000Y-148450000D03*
X135200000Y-145650000D03*
X113768750Y-148450000D03*
X113768750Y-145650000D03*
X89956250Y-148450000D03*
X89956250Y-145650000D03*
X61525000Y-136400000D03*
X58725000Y-136400000D03*
X42475000Y-136400000D03*
X39675000Y-136400000D03*
X20625000Y-136400000D03*
X23425000Y-136400000D03*
X259025000Y-129400000D03*
X259025000Y-126600000D03*
X239975000Y-129400000D03*
X239975000Y-126600000D03*
X220925000Y-129400000D03*
X220925000Y-126600000D03*
X201875000Y-129400000D03*
X201875000Y-126600000D03*
X182825000Y-129400000D03*
X182825000Y-126600000D03*
X163775000Y-129400000D03*
X163775000Y-126600000D03*
X144725000Y-129400000D03*
X144725000Y-126600000D03*
X125675000Y-129400000D03*
X125675000Y-126600000D03*
X106625000Y-129400000D03*
X106625000Y-126600000D03*
X87575000Y-129400000D03*
X87575000Y-126600000D03*
X61525000Y-117350000D03*
X58725000Y-117350000D03*
X39675000Y-117350000D03*
X42475000Y-117350000D03*
X20625000Y-117350000D03*
X23425000Y-117350000D03*
X259025000Y-110350000D03*
X259025000Y-107550000D03*
X239975000Y-110350000D03*
X239975000Y-107550000D03*
X220925000Y-110350000D03*
X220925000Y-107550000D03*
X201875000Y-110350000D03*
X201875000Y-107550000D03*
X182825000Y-110350000D03*
X182825000Y-107550000D03*
X163775000Y-110350000D03*
X163775000Y-107550000D03*
X144725000Y-110350000D03*
X144725000Y-107550000D03*
X125675000Y-110350000D03*
X125675000Y-107550000D03*
X106625000Y-110350000D03*
X106625000Y-107550000D03*
X87575000Y-110350000D03*
X87575000Y-107550000D03*
X61525000Y-98300000D03*
X58725000Y-98300000D03*
X35500000Y-98300000D03*
X38300000Y-98300000D03*
X20625000Y-98300000D03*
X23425000Y-98300000D03*
X259025000Y-91300000D03*
X259025000Y-88500000D03*
X239975000Y-91300000D03*
X239975000Y-88500000D03*
X220925000Y-91300000D03*
X220925000Y-88500000D03*
X201875000Y-91300000D03*
X201875000Y-88500000D03*
X182825000Y-91300000D03*
X182825000Y-88500000D03*
X163775000Y-91300000D03*
X163775000Y-88500000D03*
X144725000Y-91300000D03*
X144725000Y-88500000D03*
X125675000Y-91300000D03*
X125675000Y-88500000D03*
X106625000Y-91300000D03*
X106625000Y-88500000D03*
X87575000Y-91300000D03*
X87575000Y-88500000D03*
X58725000Y-79250000D03*
X61525000Y-79250000D03*
X39675000Y-79250000D03*
X42475000Y-79250000D03*
X20625000Y-79250000D03*
X23425000Y-79250000D03*
X259025000Y-67487500D03*
X259025000Y-64687500D03*
X239975000Y-67487500D03*
X239975000Y-64687500D03*
X220925000Y-67487500D03*
X220925000Y-64687500D03*
X192350000Y-67487500D03*
X192350000Y-64687500D03*
X173300000Y-67487500D03*
X173300000Y-64687500D03*
X154250000Y-67487500D03*
X154250000Y-64687500D03*
X125675000Y-67487500D03*
X125675000Y-64687500D03*
X106625000Y-67487500D03*
X106625000Y-64687500D03*
X87575000Y-67487500D03*
X87575000Y-64687500D03*
X58725000Y-72737500D03*
X61525000Y-72737500D03*
X39675000Y-72737500D03*
X42475000Y-72737500D03*
X20625000Y-72737500D03*
X23425000Y-72737500D03*
M02*
