M48
; DRILL file {KiCad (5.1.10)-1} date 01/11/22 02:36:17
; FORMAT={-:-/ absolute / metric / decimal}
; #@! TF.CreationDate,2022-01-11T02:36:17-06:00
; #@! TF.GenerationSoftware,Kicad,Pcbnew,(5.1.10)-1
; #@! TF.FileFunction,NonPlated,1,2,NPTH
FMAT,2
METRIC
T1C1.500
T2C2.950
T3C3.980
%
G90
G05
T2
X25.74Y-61.547
X25.74Y-85.36
X25.74Y-104.41
X25.74Y-123.46
X25.74Y-142.51
X27.01Y-59.008
X27.01Y-82.82
X27.01Y-101.87
X27.01Y-120.92
X27.01Y-139.97
X32.09Y-59.008
X32.09Y-82.82
X32.09Y-101.87
X32.09Y-120.92
X32.09Y-139.97
X33.36Y-61.547
X33.36Y-85.36
X33.36Y-104.41
X33.36Y-123.46
X33.36Y-142.51
X44.79Y-61.547
X44.79Y-85.36
X44.79Y-104.41
X44.79Y-123.46
X44.79Y-142.51
X46.06Y-59.008
X46.06Y-82.82
X46.06Y-101.87
X46.06Y-120.92
X46.06Y-139.97
X51.14Y-59.008
X51.14Y-82.82
X51.14Y-101.87
X51.14Y-120.92
X51.14Y-139.97
X52.41Y-61.547
X52.41Y-85.36
X52.41Y-104.41
X52.41Y-123.46
X52.41Y-142.51
X63.84Y-61.547
X63.84Y-85.36
X63.84Y-104.41
X63.84Y-123.46
X63.84Y-142.51
X65.11Y-59.008
X65.11Y-82.82
X65.11Y-101.87
X65.11Y-120.92
X65.11Y-139.97
X70.19Y-59.008
X70.19Y-82.82
X70.19Y-101.87
X70.19Y-120.92
X70.19Y-139.97
X71.46Y-61.547
X71.46Y-85.36
X71.46Y-104.41
X71.46Y-123.46
X71.46Y-142.51
X92.415Y-61.547
X92.415Y-85.36
X92.415Y-104.41
X92.415Y-123.46
X93.685Y-59.008
X93.685Y-82.82
X93.685Y-101.87
X93.685Y-120.92
X94.796Y-142.51
X96.066Y-139.97
X98.765Y-59.008
X98.765Y-82.82
X98.765Y-101.87
X98.765Y-120.92
X100.035Y-61.547
X100.035Y-85.36
X100.035Y-104.41
X100.035Y-123.46
X101.146Y-139.97
X102.416Y-142.51
X111.465Y-61.547
X111.465Y-85.36
X111.465Y-104.41
X111.465Y-123.46
X112.735Y-59.008
X112.735Y-82.82
X112.735Y-101.87
X112.735Y-120.92
X117.815Y-59.008
X117.815Y-82.82
X117.815Y-101.87
X117.815Y-120.92
X118.609Y-142.51
X119.085Y-61.547
X119.085Y-85.36
X119.085Y-104.41
X119.085Y-123.46
X119.879Y-139.97
X124.959Y-139.97
X126.229Y-142.51
X130.515Y-61.547
X130.515Y-85.36
X130.515Y-104.41
X130.515Y-123.46
X131.785Y-59.008
X131.785Y-82.82
X131.785Y-101.87
X131.785Y-120.92
X136.865Y-59.008
X136.865Y-82.82
X136.865Y-101.87
X136.865Y-120.92
X138.135Y-61.547
X138.135Y-85.36
X138.135Y-104.41
X138.135Y-123.46
X140.04Y-142.51
X141.31Y-139.97
X146.39Y-139.97
X147.66Y-142.51
X149.565Y-85.36
X149.565Y-104.41
X149.565Y-123.46
X150.835Y-82.82
X150.835Y-101.87
X150.835Y-120.92
X155.915Y-82.82
X155.915Y-101.87
X155.915Y-120.92
X157.185Y-85.36
X157.185Y-104.41
X157.185Y-123.46
X159.09Y-61.547
X159.09Y-142.51
X160.36Y-59.008
X160.36Y-139.97
X165.44Y-59.008
X165.44Y-139.97
X166.71Y-61.547
X166.71Y-142.51
X168.615Y-85.36
X168.615Y-104.41
X168.615Y-123.46
X169.885Y-82.82
X169.885Y-101.87
X169.885Y-120.92
X174.965Y-82.82
X174.965Y-101.87
X174.965Y-120.92
X176.235Y-85.36
X176.235Y-104.41
X176.235Y-123.46
X178.14Y-61.547
X178.14Y-142.51
X179.41Y-59.008
X179.41Y-139.97
X184.49Y-59.008
X184.49Y-139.97
X185.76Y-61.547
X185.76Y-142.51
X187.665Y-85.36
X187.665Y-104.41
X187.665Y-123.46
X188.935Y-82.82
X188.935Y-101.87
X188.935Y-120.92
X194.015Y-82.82
X194.015Y-101.87
X194.015Y-120.92
X195.285Y-85.36
X195.285Y-104.41
X195.285Y-123.46
X197.19Y-61.547
X197.19Y-142.51
X198.46Y-59.008
X198.46Y-139.97
X203.54Y-59.008
X203.54Y-139.97
X204.81Y-61.547
X204.81Y-142.51
X206.715Y-85.36
X206.715Y-104.41
X206.715Y-123.46
X207.985Y-82.82
X207.985Y-101.87
X207.985Y-120.92
X213.065Y-82.82
X213.065Y-101.87
X213.065Y-120.92
X214.335Y-85.36
X214.335Y-104.41
X214.335Y-123.46
X216.24Y-142.51
X217.51Y-139.97
X222.59Y-139.97
X223.86Y-142.51
X225.765Y-61.547
X225.765Y-85.36
X225.765Y-104.41
X225.765Y-123.46
X227.035Y-59.008
X227.035Y-82.82
X227.035Y-101.87
X227.035Y-120.92
X232.115Y-59.008
X232.115Y-82.82
X232.115Y-101.87
X232.115Y-120.92
X233.385Y-61.547
X233.385Y-85.36
X233.385Y-104.41
X233.385Y-123.46
X237.671Y-142.51
X238.941Y-139.97
X244.021Y-139.97
X244.815Y-61.547
X244.815Y-85.36
X244.815Y-104.41
X244.815Y-123.46
X245.291Y-142.51
X246.085Y-59.008
X246.085Y-82.82
X246.085Y-101.87
X246.085Y-120.92
X251.165Y-59.008
X251.165Y-82.82
X251.165Y-101.87
X251.165Y-120.92
X252.435Y-61.547
X252.435Y-85.36
X252.435Y-104.41
X252.435Y-123.46
X261.484Y-142.51
X262.754Y-139.97
X263.865Y-61.547
X263.865Y-85.36
X263.865Y-104.41
X263.865Y-123.46
X265.135Y-59.008
X265.135Y-82.82
X265.135Y-101.87
X265.135Y-120.92
X267.834Y-139.97
X269.104Y-142.51
X270.215Y-59.008
X270.215Y-82.82
X270.215Y-101.87
X270.215Y-120.92
X271.485Y-61.547
X271.485Y-85.36
X271.485Y-104.41
X271.485Y-123.46
T3
X29.55Y-64.087
X29.55Y-87.9
X29.55Y-106.95
X29.55Y-126.0
X29.55Y-145.05
X48.6Y-64.087
X48.6Y-87.9
X48.6Y-106.95
X48.6Y-126.0
X48.6Y-145.05
X67.65Y-64.087
X67.65Y-87.9
X67.65Y-106.95
X67.65Y-126.0
X67.65Y-145.05
X96.225Y-64.087
X96.225Y-87.9
X96.225Y-106.95
X96.225Y-126.0
X98.606Y-145.05
X115.275Y-64.087
X115.275Y-87.9
X115.275Y-106.95
X115.275Y-126.0
X122.419Y-145.05
X134.325Y-64.087
X134.325Y-87.9
X134.325Y-106.95
X134.325Y-126.0
X143.85Y-145.05
X153.375Y-87.9
X153.375Y-106.95
X153.375Y-126.0
X162.9Y-64.087
X162.9Y-145.05
X172.425Y-87.9
X172.425Y-106.95
X172.425Y-126.0
X181.95Y-64.087
X181.95Y-145.05
X191.475Y-87.9
X191.475Y-106.95
X191.475Y-126.0
X201.0Y-64.087
X201.0Y-145.05
X210.525Y-87.9
X210.525Y-106.95
X210.525Y-126.0
X220.05Y-145.05
X229.575Y-64.087
X229.575Y-87.9
X229.575Y-106.95
X229.575Y-126.0
X241.481Y-145.05
X248.625Y-64.087
X248.625Y-87.9
X248.625Y-106.95
X248.625Y-126.0
X265.294Y-145.05
X267.675Y-64.087
X267.675Y-87.9
X267.675Y-106.95
X267.675Y-126.0
T1
X23.95Y-64.737G85X23.95Y-63.438
G05
X35.15Y-64.737G85X35.15Y-63.438
G05
X49.25Y-88.255G85X47.95Y-88.255
G05
X49.25Y-99.455G85X47.95Y-99.455
G05
T0
M30
