%TF.GenerationSoftware,KiCad,Pcbnew,(5.1.10)-1*%
%TF.CreationDate,2021-10-22T01:43:44-05:00*%
%TF.ProjectId,qwahtrohio,71776168-7472-46f6-9869-6f2e6b696361,rev?*%
%TF.SameCoordinates,Original*%
%TF.FileFunction,Copper,L1,Top*%
%TF.FilePolarity,Positive*%
%FSLAX46Y46*%
G04 Gerber Fmt 4.6, Leading zero omitted, Abs format (unit mm)*
G04 Created by KiCad (PCBNEW (5.1.10)-1) date 2021-10-22 01:43:44*
%MOMM*%
%LPD*%
G01*
G04 APERTURE LIST*
%TA.AperFunction,ComponentPad*%
%ADD10C,1.752600*%
%TD*%
%TA.AperFunction,ComponentPad*%
%ADD11R,2.000000X2.000000*%
%TD*%
%TA.AperFunction,ComponentPad*%
%ADD12C,2.000000*%
%TD*%
%TA.AperFunction,WasherPad*%
%ADD13R,2.000000X3.200000*%
%TD*%
%TA.AperFunction,ComponentPad*%
%ADD14C,4.000000*%
%TD*%
%TA.AperFunction,ComponentPad*%
%ADD15R,1.651000X1.651000*%
%TD*%
%TA.AperFunction,ComponentPad*%
%ADD16C,1.651000*%
%TD*%
%TA.AperFunction,ViaPad*%
%ADD17C,0.800000*%
%TD*%
%TA.AperFunction,Conductor*%
%ADD18C,0.250000*%
%TD*%
G04 APERTURE END LIST*
D10*
X163082500Y-81935000D03*
X163082500Y-84475000D03*
X163082500Y-87015000D03*
X163082500Y-89555000D03*
X163082500Y-92095000D03*
X163082500Y-94635000D03*
X163082500Y-97175000D03*
X163082500Y-99715000D03*
X163082500Y-102255000D03*
X147842500Y-104795000D03*
X147842500Y-102255000D03*
X147842500Y-99715000D03*
X147842500Y-97175000D03*
X147842500Y-94635000D03*
X147842500Y-92095000D03*
X147842500Y-89555000D03*
X147842500Y-87015000D03*
X147842500Y-84475000D03*
X147842500Y-76855000D03*
D11*
X119900000Y-76200000D03*
D12*
X117400000Y-76200000D03*
X114900000Y-76200000D03*
D13*
X123000000Y-83700000D03*
X111800000Y-83700000D03*
D12*
X119900000Y-90700000D03*
X114900000Y-90700000D03*
D11*
X196100000Y-76200000D03*
D12*
X193600000Y-76200000D03*
X191100000Y-76200000D03*
D13*
X199200000Y-83700000D03*
X188000000Y-83700000D03*
D12*
X196100000Y-90700000D03*
X191100000Y-90700000D03*
D14*
X126925000Y-93225000D03*
X155500000Y-121800000D03*
X184075000Y-93225000D03*
D15*
X180487500Y-123610000D03*
D16*
X180487500Y-115990000D03*
D15*
X185250000Y-104560000D03*
D16*
X185250000Y-96940000D03*
D15*
X197410000Y-93225000D03*
D16*
X189790000Y-93225000D03*
D15*
X159056250Y-123610000D03*
D16*
X159056250Y-115990000D03*
D15*
X166200000Y-104560000D03*
D16*
X166200000Y-96940000D03*
D15*
X166200000Y-85510000D03*
D16*
X166200000Y-77890000D03*
D15*
X151690000Y-98225000D03*
D16*
X159310000Y-98225000D03*
D15*
X159310000Y-88225000D03*
D16*
X151690000Y-88225000D03*
D15*
X135243750Y-123610000D03*
D16*
X135243750Y-115990000D03*
D15*
X128100000Y-104560000D03*
D16*
X128100000Y-96940000D03*
D15*
X128100000Y-85510000D03*
D16*
X128100000Y-77890000D03*
D15*
X113812500Y-123610000D03*
D16*
X113812500Y-115990000D03*
D15*
X109050000Y-104560000D03*
D16*
X109050000Y-96940000D03*
D15*
X121210000Y-93225000D03*
D16*
X113590000Y-93225000D03*
D17*
X124599999Y-98244999D03*
X181749999Y-100040000D03*
X200960000Y-98284998D03*
D18*
X155560000Y-92095000D02*
X151690000Y-88225000D01*
X163082500Y-92095000D02*
X155560000Y-92095000D01*
X166200000Y-80214998D02*
X166200000Y-77890000D01*
X164974998Y-90202502D02*
X164974998Y-81440000D01*
X164974998Y-81440000D02*
X166200000Y-80214998D01*
X163082500Y-92095000D02*
X164974998Y-90202502D01*
X189790000Y-91351002D02*
X189790000Y-93225000D01*
X176328998Y-77890000D02*
X189790000Y-91351002D01*
X166200000Y-77890000D02*
X176328998Y-77890000D01*
X149339999Y-85874999D02*
X151690000Y-88225000D01*
X149141301Y-85676301D02*
X149339999Y-85874999D01*
X137824998Y-77890000D02*
X145611299Y-85676301D01*
X145611299Y-85676301D02*
X149141301Y-85676301D01*
X128100000Y-77890000D02*
X137824998Y-77890000D01*
X113524998Y-77890000D02*
X128100000Y-77890000D01*
X109974998Y-81440000D02*
X113524998Y-77890000D01*
X109974998Y-89609998D02*
X109974998Y-81440000D01*
X113590000Y-93225000D02*
X109974998Y-89609998D01*
X109050000Y-96940000D02*
X128100000Y-96940000D01*
X165857500Y-96940000D02*
X166200000Y-96940000D01*
X157695000Y-99840000D02*
X159310000Y-98225000D01*
X151068998Y-99840000D02*
X157695000Y-99840000D01*
X149668998Y-98440000D02*
X151068998Y-99840000D01*
X144663910Y-98440000D02*
X149668998Y-98440000D01*
X143163910Y-96940000D02*
X144663910Y-98440000D01*
X128100000Y-96940000D02*
X143163910Y-96940000D01*
X163895000Y-94635000D02*
X163082500Y-94635000D01*
X166200000Y-96940000D02*
X163895000Y-94635000D01*
X159492500Y-98225000D02*
X159310000Y-98225000D01*
X163082500Y-94635000D02*
X159492500Y-98225000D01*
X166200000Y-96940000D02*
X185250000Y-96940000D01*
X113812500Y-115990000D02*
X180487500Y-115990000D01*
X149174998Y-101047498D02*
X147842500Y-99715000D01*
X149174998Y-107276181D02*
X149174998Y-101047498D01*
X157888817Y-115990000D02*
X149174998Y-107276181D01*
X159056250Y-115990000D02*
X157888817Y-115990000D01*
X147842500Y-102255000D02*
X143977500Y-98390000D01*
X143832499Y-98244999D02*
X143977500Y-98390000D01*
X124599999Y-98244999D02*
X143832499Y-98244999D01*
X163407500Y-100040000D02*
X181749999Y-100040000D01*
X163082500Y-99715000D02*
X163407500Y-100040000D01*
X164147500Y-98240000D02*
X163082500Y-97175000D01*
X200915002Y-98240000D02*
X164147500Y-98240000D01*
X200960000Y-98284998D02*
X200915002Y-98240000D01*
X164524987Y-88112513D02*
X163082500Y-89555000D01*
X164524987Y-77290011D02*
X164524987Y-88112513D01*
X165974998Y-75840000D02*
X164524987Y-77290011D01*
X186774998Y-75840000D02*
X165974998Y-75840000D01*
X188974998Y-78040000D02*
X186774998Y-75840000D01*
X194260000Y-78040000D02*
X188974998Y-78040000D01*
X196100000Y-76200000D02*
X194260000Y-78040000D01*
X158574998Y-85047498D02*
X163082500Y-89555000D01*
X147174998Y-78840000D02*
X154574998Y-78840000D01*
X154574998Y-78840000D02*
X158574998Y-82840000D01*
X144534998Y-76200000D02*
X147174998Y-78840000D01*
X158574998Y-82840000D02*
X158574998Y-85047498D01*
X119900000Y-76200000D02*
X144534998Y-76200000D01*
X189140000Y-74240000D02*
X191100000Y-76200000D01*
X114900000Y-76200000D02*
X116860000Y-74240000D01*
X161881199Y-75533799D02*
X163174998Y-74240000D01*
X163082500Y-87015000D02*
X161881199Y-85813699D01*
X163174998Y-74240000D02*
X189140000Y-74240000D01*
X161881199Y-85813699D02*
X161881199Y-75533799D01*
X116860000Y-74240000D02*
X163174998Y-74240000D01*
M02*
