%TF.GenerationSoftware,KiCad,Pcbnew,(5.1.10)-1*%
%TF.CreationDate,2021-10-22T01:43:44-05:00*%
%TF.ProjectId,qwahtrohio,71776168-7472-46f6-9869-6f2e6b696361,rev?*%
%TF.SameCoordinates,Original*%
%TF.FileFunction,Legend,Bot*%
%TF.FilePolarity,Positive*%
%FSLAX46Y46*%
G04 Gerber Fmt 4.6, Leading zero omitted, Abs format (unit mm)*
G04 Created by KiCad (PCBNEW (5.1.10)-1) date 2021-10-22 01:43:44*
%MOMM*%
%LPD*%
G01*
G04 APERTURE LIST*
%ADD10C,0.150000*%
%ADD11C,0.381000*%
%ADD12C,0.203200*%
%ADD13C,1.752600*%
%ADD14R,2.000000X2.000000*%
%ADD15C,2.000000*%
%ADD16R,2.000000X3.200000*%
%ADD17C,1.700000*%
%ADD18R,2.550000X2.500000*%
%ADD19C,2.950000*%
%ADD20C,3.980180*%
%ADD21C,4.000000*%
%ADD22R,1.651000X1.651000*%
%ADD23C,1.651000*%
G04 APERTURE END LIST*
D10*
X191241664Y-112011428D02*
X191241664Y-114011428D01*
X191241664Y-113249523D02*
X191432140Y-113344761D01*
X191813093Y-113344761D01*
X192003569Y-113249523D01*
X192098807Y-113154285D01*
X192194045Y-112963809D01*
X192194045Y-112392380D01*
X192098807Y-112201904D01*
X192003569Y-112106666D01*
X191813093Y-112011428D01*
X191432140Y-112011428D01*
X191241664Y-112106666D01*
X190479759Y-112011428D02*
X190098807Y-113344761D01*
X189717855Y-112392380D01*
X189336902Y-113344761D01*
X188955950Y-112011428D01*
X187336902Y-113344761D02*
X187336902Y-112297142D01*
X187432140Y-112106666D01*
X187622617Y-112011428D01*
X188003569Y-112011428D01*
X188194045Y-112106666D01*
X187336902Y-113249523D02*
X187527378Y-113344761D01*
X188003569Y-113344761D01*
X188194045Y-113249523D01*
X188289283Y-113059047D01*
X188289283Y-112868571D01*
X188194045Y-112678095D01*
X188003569Y-112582857D01*
X187527378Y-112582857D01*
X187336902Y-112487619D01*
X186384521Y-113344761D02*
X186384521Y-111344761D01*
X185527378Y-113344761D02*
X185527378Y-112297142D01*
X185622617Y-112106666D01*
X185813093Y-112011428D01*
X186098807Y-112011428D01*
X186289283Y-112106666D01*
X186384521Y-112201904D01*
X184860712Y-112011428D02*
X184098807Y-112011428D01*
X184574998Y-111344761D02*
X184574998Y-113059047D01*
X184479759Y-113249523D01*
X184289283Y-113344761D01*
X184098807Y-113344761D01*
X183432140Y-113344761D02*
X183432140Y-112011428D01*
X183432140Y-112392380D02*
X183336902Y-112201904D01*
X183241664Y-112106666D01*
X183051188Y-112011428D01*
X182860712Y-112011428D01*
X181908331Y-113344761D02*
X182098807Y-113249523D01*
X182194045Y-113154285D01*
X182289283Y-112963809D01*
X182289283Y-112392380D01*
X182194045Y-112201904D01*
X182098807Y-112106666D01*
X181908331Y-112011428D01*
X181622617Y-112011428D01*
X181432140Y-112106666D01*
X181336902Y-112201904D01*
X181241664Y-112392380D01*
X181241664Y-112963809D01*
X181336902Y-113154285D01*
X181432140Y-113249523D01*
X181622617Y-113344761D01*
X181908331Y-113344761D01*
X180384521Y-113344761D02*
X180384521Y-111344761D01*
X179527378Y-113344761D02*
X179527378Y-112297142D01*
X179622617Y-112106666D01*
X179813093Y-112011428D01*
X180098807Y-112011428D01*
X180289283Y-112106666D01*
X180384521Y-112201904D01*
X178574998Y-113154285D02*
X178479759Y-113249523D01*
X178574998Y-113344761D01*
X178670236Y-113249523D01*
X178574998Y-113154285D01*
X178574998Y-113344761D01*
X177622617Y-113344761D02*
X177622617Y-112011428D01*
X177622617Y-111344761D02*
X177717855Y-111440000D01*
X177622617Y-111535238D01*
X177527378Y-111440000D01*
X177622617Y-111344761D01*
X177622617Y-111535238D01*
X176384521Y-113344761D02*
X176574998Y-113249523D01*
X176670236Y-113154285D01*
X176765474Y-112963809D01*
X176765474Y-112392380D01*
X176670236Y-112201904D01*
X176574998Y-112106666D01*
X176384521Y-112011428D01*
X176098807Y-112011428D01*
X175908331Y-112106666D01*
X175813093Y-112201904D01*
X175717855Y-112392380D01*
X175717855Y-112963809D01*
X175813093Y-113154285D01*
X175908331Y-113249523D01*
X176098807Y-113344761D01*
X176384521Y-113344761D01*
X171908331Y-111249523D02*
X173622617Y-113820952D01*
X169813093Y-111249523D02*
X171527378Y-113820952D01*
X167717855Y-113249523D02*
X167527378Y-113344761D01*
X167146426Y-113344761D01*
X166955950Y-113249523D01*
X166860712Y-113059047D01*
X166860712Y-112963809D01*
X166955950Y-112773333D01*
X167146426Y-112678095D01*
X167432140Y-112678095D01*
X167622617Y-112582857D01*
X167717855Y-112392380D01*
X167717855Y-112297142D01*
X167622617Y-112106666D01*
X167432140Y-112011428D01*
X167146426Y-112011428D01*
X166955950Y-112106666D01*
X165717855Y-113344761D02*
X165908331Y-113249523D01*
X166003569Y-113154285D01*
X166098807Y-112963809D01*
X166098807Y-112392380D01*
X166003569Y-112201904D01*
X165908331Y-112106666D01*
X165717855Y-112011428D01*
X165432140Y-112011428D01*
X165241664Y-112106666D01*
X165146426Y-112201904D01*
X165051188Y-112392380D01*
X165051188Y-112963809D01*
X165146426Y-113154285D01*
X165241664Y-113249523D01*
X165432140Y-113344761D01*
X165717855Y-113344761D01*
X164194045Y-112011428D02*
X164194045Y-113344761D01*
X164194045Y-112201904D02*
X164098807Y-112106666D01*
X163908331Y-112011428D01*
X163622617Y-112011428D01*
X163432140Y-112106666D01*
X163336902Y-112297142D01*
X163336902Y-113344761D01*
X160574998Y-113344761D02*
X160765474Y-113249523D01*
X160860712Y-113154285D01*
X160955950Y-112963809D01*
X160955950Y-112392380D01*
X160860712Y-112201904D01*
X160765474Y-112106666D01*
X160574998Y-112011428D01*
X160289283Y-112011428D01*
X160098807Y-112106666D01*
X160003569Y-112201904D01*
X159908331Y-112392380D01*
X159908331Y-112963809D01*
X160003569Y-113154285D01*
X160098807Y-113249523D01*
X160289283Y-113344761D01*
X160574998Y-113344761D01*
X159336902Y-112011428D02*
X158574998Y-112011428D01*
X159051188Y-113344761D02*
X159051188Y-111630476D01*
X158955950Y-111440000D01*
X158765474Y-111344761D01*
X158574998Y-111344761D01*
X155527378Y-113344761D02*
X155527378Y-112297142D01*
X155622617Y-112106666D01*
X155813093Y-112011428D01*
X156194045Y-112011428D01*
X156384521Y-112106666D01*
X155527378Y-113249523D02*
X155717855Y-113344761D01*
X156194045Y-113344761D01*
X156384521Y-113249523D01*
X156479759Y-113059047D01*
X156479759Y-112868571D01*
X156384521Y-112678095D01*
X156194045Y-112582857D01*
X155717855Y-112582857D01*
X155527378Y-112487619D01*
X154574998Y-113344761D02*
X154574998Y-112011428D01*
X154574998Y-112392380D02*
X154479759Y-112201904D01*
X154384521Y-112106666D01*
X154194045Y-112011428D01*
X154003569Y-112011428D01*
X153622617Y-112011428D02*
X152860712Y-112011428D01*
X153336902Y-111344761D02*
X153336902Y-113059047D01*
X153241664Y-113249523D01*
X153051188Y-113344761D01*
X152860712Y-113344761D01*
X152289283Y-113249523D02*
X152098807Y-113344761D01*
X151717855Y-113344761D01*
X151527378Y-113249523D01*
X151432140Y-113059047D01*
X151432140Y-112963809D01*
X151527378Y-112773333D01*
X151717855Y-112678095D01*
X152003569Y-112678095D01*
X152194045Y-112582857D01*
X152289283Y-112392380D01*
X152289283Y-112297142D01*
X152194045Y-112106666D01*
X152003569Y-112011428D01*
X151717855Y-112011428D01*
X151527378Y-112106666D01*
X149813093Y-113249523D02*
X150003569Y-113344761D01*
X150384521Y-113344761D01*
X150574998Y-113249523D01*
X150670236Y-113059047D01*
X150670236Y-112297142D01*
X150574998Y-112106666D01*
X150384521Y-112011428D01*
X150003569Y-112011428D01*
X149813093Y-112106666D01*
X149717855Y-112297142D01*
X149717855Y-112487619D01*
X150670236Y-112678095D01*
X149051188Y-112011428D02*
X148574998Y-113344761D01*
X148098807Y-112011428D02*
X148574998Y-113344761D01*
X148765474Y-113820952D01*
X148860712Y-113916190D01*
X149051188Y-114011428D01*
X147336902Y-113154285D02*
X147241664Y-113249523D01*
X147336902Y-113344761D01*
X147432140Y-113249523D01*
X147336902Y-113154285D01*
X147336902Y-113344761D01*
X146384521Y-113344761D02*
X146384521Y-112011428D01*
X146384521Y-111344761D02*
X146479759Y-111440000D01*
X146384521Y-111535238D01*
X146289283Y-111440000D01*
X146384521Y-111344761D01*
X146384521Y-111535238D01*
X145146426Y-113344761D02*
X145336902Y-113249523D01*
X145432140Y-113154285D01*
X145527378Y-112963809D01*
X145527378Y-112392380D01*
X145432140Y-112201904D01*
X145336902Y-112106666D01*
X145146426Y-112011428D01*
X144860712Y-112011428D01*
X144670236Y-112106666D01*
X144574998Y-112201904D01*
X144479759Y-112392380D01*
X144479759Y-112963809D01*
X144574998Y-113154285D01*
X144670236Y-113249523D01*
X144860712Y-113344761D01*
X145146426Y-113344761D01*
X140670236Y-111249523D02*
X142384521Y-113820952D01*
X138574998Y-111249523D02*
X140289283Y-113820952D01*
X136574998Y-112011428D02*
X136098807Y-113344761D01*
X135622617Y-112011428D01*
X133813093Y-113344761D02*
X134955950Y-113344761D01*
X134384521Y-113344761D02*
X134384521Y-111344761D01*
X134574998Y-111630476D01*
X134765474Y-111820952D01*
X134955950Y-111916190D01*
X130003569Y-111249523D02*
X131717855Y-113820952D01*
X127908331Y-111249523D02*
X129622617Y-113820952D01*
X125813093Y-111535238D02*
X125717855Y-111440000D01*
X125527378Y-111344761D01*
X125051188Y-111344761D01*
X124860712Y-111440000D01*
X124765474Y-111535238D01*
X124670236Y-111725714D01*
X124670236Y-111916190D01*
X124765474Y-112201904D01*
X125908331Y-113344761D01*
X124670236Y-113344761D01*
X123432140Y-111344761D02*
X123241664Y-111344761D01*
X123051188Y-111440000D01*
X122955950Y-111535238D01*
X122860712Y-111725714D01*
X122765474Y-112106666D01*
X122765474Y-112582857D01*
X122860712Y-112963809D01*
X122955950Y-113154285D01*
X123051188Y-113249523D01*
X123241664Y-113344761D01*
X123432140Y-113344761D01*
X123622617Y-113249523D01*
X123717855Y-113154285D01*
X123813093Y-112963809D01*
X123908331Y-112582857D01*
X123908331Y-112106666D01*
X123813093Y-111725714D01*
X123717855Y-111535238D01*
X123622617Y-111440000D01*
X123432140Y-111344761D01*
X122003569Y-111535238D02*
X121908331Y-111440000D01*
X121717855Y-111344761D01*
X121241664Y-111344761D01*
X121051188Y-111440000D01*
X120955950Y-111535238D01*
X120860712Y-111725714D01*
X120860712Y-111916190D01*
X120955950Y-112201904D01*
X122098807Y-113344761D01*
X120860712Y-113344761D01*
X118955950Y-113344761D02*
X120098807Y-113344761D01*
X119527378Y-113344761D02*
X119527378Y-111344761D01*
X119717855Y-111630476D01*
X119908331Y-111820952D01*
X120098807Y-111916190D01*
D11*
X164352500Y-75585000D02*
X164352500Y-106065000D01*
X164352500Y-106065000D02*
X146572500Y-106065000D01*
X146572500Y-106065000D02*
X146572500Y-75585000D01*
X161812500Y-75585000D02*
X161812500Y-78125000D01*
X161812500Y-78125000D02*
X164352500Y-78125000D01*
X146572500Y-75585000D02*
X146572500Y-73045000D01*
X146572500Y-73045000D02*
X164352500Y-73045000D01*
X164352500Y-73045000D02*
X164352500Y-75585000D01*
X161812500Y-75585000D02*
X164352500Y-75585000D01*
D10*
X149728750Y-126880000D02*
G75*
G02*
X148053750Y-128555000I-1675000J0D01*
G01*
X146133750Y-122665000D02*
G75*
G02*
X144458750Y-124340000I-1675000J0D01*
G01*
X149728750Y-122665000D02*
X146133750Y-122665000D01*
X149728750Y-126880000D02*
X149728750Y-122665000D01*
X138728750Y-128550000D02*
X138728750Y-124340000D01*
X148053750Y-128555000D02*
X138728750Y-128555000D01*
X144458750Y-124340000D02*
X138728750Y-124340000D01*
X173541250Y-126880000D02*
G75*
G02*
X171866250Y-128555000I-1675000J0D01*
G01*
X169946250Y-122665000D02*
G75*
G02*
X168271250Y-124340000I-1675000J0D01*
G01*
X173541250Y-122665000D02*
X169946250Y-122665000D01*
X173541250Y-126880000D02*
X173541250Y-122665000D01*
X162541250Y-128550000D02*
X162541250Y-124340000D01*
X171866250Y-128555000D02*
X162541250Y-128555000D01*
X168271250Y-124340000D02*
X162541250Y-124340000D01*
X196140000Y-84565000D02*
G75*
G02*
X194465000Y-86240000I-1675000J0D01*
G01*
X199735000Y-88780000D02*
G75*
G02*
X198060000Y-90455000I-1675000J0D01*
G01*
X199735000Y-84565000D02*
X196140000Y-84565000D01*
X199735000Y-88780000D02*
X199735000Y-84565000D01*
X188735000Y-90450000D02*
X188735000Y-86240000D01*
X198060000Y-90455000D02*
X188735000Y-90455000D01*
X194465000Y-86240000D02*
X188735000Y-86240000D01*
X191377500Y-122665000D02*
G75*
G02*
X189702500Y-124340000I-1675000J0D01*
G01*
X194972500Y-126880000D02*
G75*
G02*
X193297500Y-128555000I-1675000J0D01*
G01*
X194972500Y-122665000D02*
X191377500Y-122665000D01*
X194972500Y-126880000D02*
X194972500Y-122665000D01*
X183972500Y-128550000D02*
X183972500Y-124340000D01*
X193297500Y-128555000D02*
X183972500Y-128555000D01*
X189702500Y-124340000D02*
X183972500Y-124340000D01*
X196140000Y-103615000D02*
G75*
G02*
X194465000Y-105290000I-1675000J0D01*
G01*
X199735000Y-107830000D02*
G75*
G02*
X198060000Y-109505000I-1675000J0D01*
G01*
X199735000Y-103615000D02*
X196140000Y-103615000D01*
X199735000Y-107830000D02*
X199735000Y-103615000D01*
X188735000Y-109500000D02*
X188735000Y-105290000D01*
X198060000Y-109505000D02*
X188735000Y-109505000D01*
X194465000Y-105290000D02*
X188735000Y-105290000D01*
X177090000Y-103615000D02*
G75*
G02*
X175415000Y-105290000I-1675000J0D01*
G01*
X180685000Y-107830000D02*
G75*
G02*
X179010000Y-109505000I-1675000J0D01*
G01*
X180685000Y-103615000D02*
X177090000Y-103615000D01*
X180685000Y-107830000D02*
X180685000Y-103615000D01*
X169685000Y-109500000D02*
X169685000Y-105290000D01*
X179010000Y-109505000D02*
X169685000Y-109505000D01*
X175415000Y-105290000D02*
X169685000Y-105290000D01*
X177090000Y-84565000D02*
G75*
G02*
X175415000Y-86240000I-1675000J0D01*
G01*
X180685000Y-88780000D02*
G75*
G02*
X179010000Y-90455000I-1675000J0D01*
G01*
X180685000Y-84565000D02*
X177090000Y-84565000D01*
X180685000Y-88780000D02*
X180685000Y-84565000D01*
X169685000Y-90450000D02*
X169685000Y-86240000D01*
X179010000Y-90455000D02*
X169685000Y-90455000D01*
X175415000Y-86240000D02*
X169685000Y-86240000D01*
X158040000Y-103615000D02*
G75*
G02*
X156365000Y-105290000I-1675000J0D01*
G01*
X161635000Y-107830000D02*
G75*
G02*
X159960000Y-109505000I-1675000J0D01*
G01*
X161635000Y-103615000D02*
X158040000Y-103615000D01*
X161635000Y-107830000D02*
X161635000Y-103615000D01*
X150635000Y-109500000D02*
X150635000Y-105290000D01*
X159960000Y-109505000D02*
X150635000Y-109505000D01*
X156365000Y-105290000D02*
X150635000Y-105290000D01*
X152960000Y-82835000D02*
G75*
G02*
X154635000Y-81160000I1675000J0D01*
G01*
X149365000Y-78620000D02*
G75*
G02*
X151040000Y-76945000I1675000J0D01*
G01*
X149365000Y-82835000D02*
X152960000Y-82835000D01*
X149365000Y-78620000D02*
X149365000Y-82835000D01*
X160365000Y-76950000D02*
X160365000Y-81160000D01*
X151040000Y-76945000D02*
X160365000Y-76945000D01*
X154635000Y-81160000D02*
X160365000Y-81160000D01*
X138990000Y-103615000D02*
G75*
G02*
X137315000Y-105290000I-1675000J0D01*
G01*
X142585000Y-107830000D02*
G75*
G02*
X140910000Y-109505000I-1675000J0D01*
G01*
X142585000Y-103615000D02*
X138990000Y-103615000D01*
X142585000Y-107830000D02*
X142585000Y-103615000D01*
X131585000Y-109500000D02*
X131585000Y-105290000D01*
X140910000Y-109505000D02*
X131585000Y-109505000D01*
X137315000Y-105290000D02*
X131585000Y-105290000D01*
X138990000Y-84565000D02*
G75*
G02*
X137315000Y-86240000I-1675000J0D01*
G01*
X142585000Y-88780000D02*
G75*
G02*
X140910000Y-90455000I-1675000J0D01*
G01*
X142585000Y-84565000D02*
X138990000Y-84565000D01*
X142585000Y-88780000D02*
X142585000Y-84565000D01*
X131585000Y-90450000D02*
X131585000Y-86240000D01*
X140910000Y-90455000D02*
X131585000Y-90455000D01*
X137315000Y-86240000D02*
X131585000Y-86240000D01*
X124702500Y-122665000D02*
G75*
G02*
X123027500Y-124340000I-1675000J0D01*
G01*
X128297500Y-126880000D02*
G75*
G02*
X126622500Y-128555000I-1675000J0D01*
G01*
X128297500Y-122665000D02*
X124702500Y-122665000D01*
X128297500Y-126880000D02*
X128297500Y-122665000D01*
X117297500Y-128550000D02*
X117297500Y-124340000D01*
X126622500Y-128555000D02*
X117297500Y-128555000D01*
X123027500Y-124340000D02*
X117297500Y-124340000D01*
X119940000Y-103615000D02*
G75*
G02*
X118265000Y-105290000I-1675000J0D01*
G01*
X123535000Y-107830000D02*
G75*
G02*
X121860000Y-109505000I-1675000J0D01*
G01*
X123535000Y-103615000D02*
X119940000Y-103615000D01*
X123535000Y-107830000D02*
X123535000Y-103615000D01*
X112535000Y-109500000D02*
X112535000Y-105290000D01*
X121860000Y-109505000D02*
X112535000Y-109505000D01*
X118265000Y-105290000D02*
X112535000Y-105290000D01*
X119940000Y-84565000D02*
G75*
G02*
X118265000Y-86240000I-1675000J0D01*
G01*
X123535000Y-88780000D02*
G75*
G02*
X121860000Y-90455000I-1675000J0D01*
G01*
X123535000Y-84565000D02*
X119940000Y-84565000D01*
X123535000Y-88780000D02*
X123535000Y-84565000D01*
X112535000Y-90450000D02*
X112535000Y-86240000D01*
X121860000Y-90455000D02*
X112535000Y-90455000D01*
X118265000Y-86240000D02*
X112535000Y-86240000D01*
D12*
X179344500Y-118276000D02*
X181630500Y-118276000D01*
X179344500Y-121324000D02*
X179344500Y-118276000D01*
X181630500Y-121324000D02*
X179344500Y-121324000D01*
X181630500Y-118276000D02*
X181630500Y-121324000D01*
D10*
X179387500Y-121100000D02*
X181487500Y-121100000D01*
X181587500Y-121100000D02*
X181487500Y-121100000D01*
X181487500Y-121100000D02*
X181587500Y-121100000D01*
X181587500Y-120900000D02*
X179387500Y-120900000D01*
X179387500Y-120700000D02*
X181587500Y-120700000D01*
D12*
X184107000Y-99226000D02*
X186393000Y-99226000D01*
X184107000Y-102274000D02*
X184107000Y-99226000D01*
X186393000Y-102274000D02*
X184107000Y-102274000D01*
X186393000Y-99226000D02*
X186393000Y-102274000D01*
D10*
X184150000Y-102050000D02*
X186250000Y-102050000D01*
X186350000Y-102050000D02*
X186250000Y-102050000D01*
X186250000Y-102050000D02*
X186350000Y-102050000D01*
X186350000Y-101850000D02*
X184150000Y-101850000D01*
X184150000Y-101650000D02*
X186350000Y-101650000D01*
D12*
X192076000Y-94368000D02*
X192076000Y-92082000D01*
X195124000Y-94368000D02*
X192076000Y-94368000D01*
X195124000Y-92082000D02*
X195124000Y-94368000D01*
X192076000Y-92082000D02*
X195124000Y-92082000D01*
D10*
X194900000Y-94325000D02*
X194900000Y-92225000D01*
X194900000Y-92125000D02*
X194900000Y-92225000D01*
X194900000Y-92225000D02*
X194900000Y-92125000D01*
X194700000Y-92125000D02*
X194700000Y-94325000D01*
X194500000Y-94325000D02*
X194500000Y-92125000D01*
D12*
X157913250Y-118276000D02*
X160199250Y-118276000D01*
X157913250Y-121324000D02*
X157913250Y-118276000D01*
X160199250Y-121324000D02*
X157913250Y-121324000D01*
X160199250Y-118276000D02*
X160199250Y-121324000D01*
D10*
X157956250Y-121100000D02*
X160056250Y-121100000D01*
X160156250Y-121100000D02*
X160056250Y-121100000D01*
X160056250Y-121100000D02*
X160156250Y-121100000D01*
X160156250Y-120900000D02*
X157956250Y-120900000D01*
X157956250Y-120700000D02*
X160156250Y-120700000D01*
D12*
X165057000Y-99226000D02*
X167343000Y-99226000D01*
X165057000Y-102274000D02*
X165057000Y-99226000D01*
X167343000Y-102274000D02*
X165057000Y-102274000D01*
X167343000Y-99226000D02*
X167343000Y-102274000D01*
D10*
X165100000Y-102050000D02*
X167200000Y-102050000D01*
X167300000Y-102050000D02*
X167200000Y-102050000D01*
X167200000Y-102050000D02*
X167300000Y-102050000D01*
X167300000Y-101850000D02*
X165100000Y-101850000D01*
X165100000Y-101650000D02*
X167300000Y-101650000D01*
D12*
X165057000Y-80176000D02*
X167343000Y-80176000D01*
X165057000Y-83224000D02*
X165057000Y-80176000D01*
X167343000Y-83224000D02*
X165057000Y-83224000D01*
X167343000Y-80176000D02*
X167343000Y-83224000D01*
D10*
X165100000Y-83000000D02*
X167200000Y-83000000D01*
X167300000Y-83000000D02*
X167200000Y-83000000D01*
X167200000Y-83000000D02*
X167300000Y-83000000D01*
X167300000Y-82800000D02*
X165100000Y-82800000D01*
X165100000Y-82600000D02*
X167300000Y-82600000D01*
D12*
X157024000Y-97082000D02*
X157024000Y-99368000D01*
X153976000Y-97082000D02*
X157024000Y-97082000D01*
X153976000Y-99368000D02*
X153976000Y-97082000D01*
X157024000Y-99368000D02*
X153976000Y-99368000D01*
D10*
X154200000Y-97125000D02*
X154200000Y-99225000D01*
X154200000Y-99325000D02*
X154200000Y-99225000D01*
X154200000Y-99225000D02*
X154200000Y-99325000D01*
X154400000Y-99325000D02*
X154400000Y-97125000D01*
X154600000Y-97125000D02*
X154600000Y-99325000D01*
D12*
X153976000Y-89368000D02*
X153976000Y-87082000D01*
X157024000Y-89368000D02*
X153976000Y-89368000D01*
X157024000Y-87082000D02*
X157024000Y-89368000D01*
X153976000Y-87082000D02*
X157024000Y-87082000D01*
D10*
X156800000Y-89325000D02*
X156800000Y-87225000D01*
X156800000Y-87125000D02*
X156800000Y-87225000D01*
X156800000Y-87225000D02*
X156800000Y-87125000D01*
X156600000Y-87125000D02*
X156600000Y-89325000D01*
X156400000Y-89325000D02*
X156400000Y-87125000D01*
D12*
X134100750Y-118276000D02*
X136386750Y-118276000D01*
X134100750Y-121324000D02*
X134100750Y-118276000D01*
X136386750Y-121324000D02*
X134100750Y-121324000D01*
X136386750Y-118276000D02*
X136386750Y-121324000D01*
D10*
X134143750Y-121100000D02*
X136243750Y-121100000D01*
X136343750Y-121100000D02*
X136243750Y-121100000D01*
X136243750Y-121100000D02*
X136343750Y-121100000D01*
X136343750Y-120900000D02*
X134143750Y-120900000D01*
X134143750Y-120700000D02*
X136343750Y-120700000D01*
D12*
X126957000Y-99226000D02*
X129243000Y-99226000D01*
X126957000Y-102274000D02*
X126957000Y-99226000D01*
X129243000Y-102274000D02*
X126957000Y-102274000D01*
X129243000Y-99226000D02*
X129243000Y-102274000D01*
D10*
X127000000Y-102050000D02*
X129100000Y-102050000D01*
X129200000Y-102050000D02*
X129100000Y-102050000D01*
X129100000Y-102050000D02*
X129200000Y-102050000D01*
X129200000Y-101850000D02*
X127000000Y-101850000D01*
X127000000Y-101650000D02*
X129200000Y-101650000D01*
D12*
X126957000Y-80176000D02*
X129243000Y-80176000D01*
X126957000Y-83224000D02*
X126957000Y-80176000D01*
X129243000Y-83224000D02*
X126957000Y-83224000D01*
X129243000Y-80176000D02*
X129243000Y-83224000D01*
D10*
X127000000Y-83000000D02*
X129100000Y-83000000D01*
X129200000Y-83000000D02*
X129100000Y-83000000D01*
X129100000Y-83000000D02*
X129200000Y-83000000D01*
X129200000Y-82800000D02*
X127000000Y-82800000D01*
X127000000Y-82600000D02*
X129200000Y-82600000D01*
D12*
X112669500Y-118276000D02*
X114955500Y-118276000D01*
X112669500Y-121324000D02*
X112669500Y-118276000D01*
X114955500Y-121324000D02*
X112669500Y-121324000D01*
X114955500Y-118276000D02*
X114955500Y-121324000D01*
D10*
X112712500Y-121100000D02*
X114812500Y-121100000D01*
X114912500Y-121100000D02*
X114812500Y-121100000D01*
X114812500Y-121100000D02*
X114912500Y-121100000D01*
X114912500Y-120900000D02*
X112712500Y-120900000D01*
X112712500Y-120700000D02*
X114912500Y-120700000D01*
D12*
X107907000Y-99226000D02*
X110193000Y-99226000D01*
X107907000Y-102274000D02*
X107907000Y-99226000D01*
X110193000Y-102274000D02*
X107907000Y-102274000D01*
X110193000Y-99226000D02*
X110193000Y-102274000D01*
D10*
X107950000Y-102050000D02*
X110050000Y-102050000D01*
X110150000Y-102050000D02*
X110050000Y-102050000D01*
X110050000Y-102050000D02*
X110150000Y-102050000D01*
X110150000Y-101850000D02*
X107950000Y-101850000D01*
X107950000Y-101650000D02*
X110150000Y-101650000D01*
D12*
X115876000Y-94368000D02*
X115876000Y-92082000D01*
X118924000Y-94368000D02*
X115876000Y-94368000D01*
X118924000Y-92082000D02*
X118924000Y-94368000D01*
X115876000Y-92082000D02*
X118924000Y-92082000D01*
D10*
X118700000Y-94325000D02*
X118700000Y-92225000D01*
X118700000Y-92125000D02*
X118700000Y-92225000D01*
X118700000Y-92225000D02*
X118700000Y-92125000D01*
X118500000Y-92125000D02*
X118500000Y-94325000D01*
X118300000Y-94325000D02*
X118300000Y-92125000D01*
X150325309Y-102197857D02*
X150211023Y-102235952D01*
X150172928Y-102274047D01*
X150134833Y-102350238D01*
X150134833Y-102464523D01*
X150172928Y-102540714D01*
X150211023Y-102578809D01*
X150287214Y-102616904D01*
X150591976Y-102616904D01*
X150591976Y-101816904D01*
X150325309Y-101816904D01*
X150249119Y-101855000D01*
X150211023Y-101893095D01*
X150172928Y-101969285D01*
X150172928Y-102045476D01*
X150211023Y-102121666D01*
X150249119Y-102159761D01*
X150325309Y-102197857D01*
X150591976Y-102197857D01*
X149830071Y-101893095D02*
X149791976Y-101855000D01*
X149715785Y-101816904D01*
X149525309Y-101816904D01*
X149449119Y-101855000D01*
X149411023Y-101893095D01*
X149372928Y-101969285D01*
X149372928Y-102045476D01*
X149411023Y-102159761D01*
X149868166Y-102616904D01*
X149372928Y-102616904D01*
X150268166Y-94577857D02*
X150534833Y-94577857D01*
X150534833Y-94996904D02*
X150534833Y-94196904D01*
X150153880Y-94196904D01*
X149925309Y-94196904D02*
X149391976Y-94196904D01*
X149734833Y-94996904D01*
X150268166Y-92037857D02*
X150534833Y-92037857D01*
X150534833Y-92456904D02*
X150534833Y-91656904D01*
X150153880Y-91656904D01*
X149506261Y-91656904D02*
X149658642Y-91656904D01*
X149734833Y-91695000D01*
X149772928Y-91733095D01*
X149849119Y-91847380D01*
X149887214Y-91999761D01*
X149887214Y-92304523D01*
X149849119Y-92380714D01*
X149811023Y-92418809D01*
X149734833Y-92456904D01*
X149582452Y-92456904D01*
X149506261Y-92418809D01*
X149468166Y-92380714D01*
X149430071Y-92304523D01*
X149430071Y-92114047D01*
X149468166Y-92037857D01*
X149506261Y-91999761D01*
X149582452Y-91961666D01*
X149734833Y-91961666D01*
X149811023Y-91999761D01*
X149849119Y-92037857D01*
X149887214Y-92114047D01*
X150268166Y-89497857D02*
X150534833Y-89497857D01*
X150534833Y-89916904D02*
X150534833Y-89116904D01*
X150153880Y-89116904D01*
X149468166Y-89116904D02*
X149849119Y-89116904D01*
X149887214Y-89497857D01*
X149849119Y-89459761D01*
X149772928Y-89421666D01*
X149582452Y-89421666D01*
X149506261Y-89459761D01*
X149468166Y-89497857D01*
X149430071Y-89574047D01*
X149430071Y-89764523D01*
X149468166Y-89840714D01*
X149506261Y-89878809D01*
X149582452Y-89916904D01*
X149772928Y-89916904D01*
X149849119Y-89878809D01*
X149887214Y-89840714D01*
X150553880Y-77216904D02*
X150820547Y-76835952D01*
X151011023Y-77216904D02*
X151011023Y-76416904D01*
X150706261Y-76416904D01*
X150630071Y-76455000D01*
X150591976Y-76493095D01*
X150553880Y-76569285D01*
X150553880Y-76683571D01*
X150591976Y-76759761D01*
X150630071Y-76797857D01*
X150706261Y-76835952D01*
X151011023Y-76835952D01*
X150249119Y-76988333D02*
X149868166Y-76988333D01*
X150325309Y-77216904D02*
X150058642Y-76416904D01*
X149791976Y-77216904D01*
X149601500Y-76416904D02*
X149411023Y-77216904D01*
X149258642Y-76645476D01*
X149106261Y-77216904D01*
X148915785Y-76416904D01*
X151068166Y-84036904D02*
X150801500Y-84836904D01*
X150534833Y-84036904D01*
X149811023Y-84760714D02*
X149849119Y-84798809D01*
X149963404Y-84836904D01*
X150039595Y-84836904D01*
X150153880Y-84798809D01*
X150230071Y-84722619D01*
X150268166Y-84646428D01*
X150306261Y-84494047D01*
X150306261Y-84379761D01*
X150268166Y-84227380D01*
X150230071Y-84151190D01*
X150153880Y-84075000D01*
X150039595Y-84036904D01*
X149963404Y-84036904D01*
X149849119Y-84075000D01*
X149811023Y-84113095D01*
X149011023Y-84760714D02*
X149049119Y-84798809D01*
X149163404Y-84836904D01*
X149239595Y-84836904D01*
X149353880Y-84798809D01*
X149430071Y-84722619D01*
X149468166Y-84646428D01*
X149506261Y-84494047D01*
X149506261Y-84379761D01*
X149468166Y-84227380D01*
X149430071Y-84151190D01*
X149353880Y-84075000D01*
X149239595Y-84036904D01*
X149163404Y-84036904D01*
X149049119Y-84075000D01*
X149011023Y-84113095D01*
X150268166Y-86957857D02*
X150534833Y-86957857D01*
X150534833Y-87376904D02*
X150534833Y-86576904D01*
X150153880Y-86576904D01*
X149506261Y-86843571D02*
X149506261Y-87376904D01*
X149696738Y-86538809D02*
X149887214Y-87110238D01*
X149391976Y-87110238D01*
X150325309Y-97117857D02*
X150211023Y-97155952D01*
X150172928Y-97194047D01*
X150134833Y-97270238D01*
X150134833Y-97384523D01*
X150172928Y-97460714D01*
X150211023Y-97498809D01*
X150287214Y-97536904D01*
X150591976Y-97536904D01*
X150591976Y-96736904D01*
X150325309Y-96736904D01*
X150249119Y-96775000D01*
X150211023Y-96813095D01*
X150172928Y-96889285D01*
X150172928Y-96965476D01*
X150211023Y-97041666D01*
X150249119Y-97079761D01*
X150325309Y-97117857D01*
X150591976Y-97117857D01*
X149372928Y-97536904D02*
X149830071Y-97536904D01*
X149601500Y-97536904D02*
X149601500Y-96736904D01*
X149677690Y-96851190D01*
X149753880Y-96927380D01*
X149830071Y-96965476D01*
X150325309Y-99657857D02*
X150211023Y-99695952D01*
X150172928Y-99734047D01*
X150134833Y-99810238D01*
X150134833Y-99924523D01*
X150172928Y-100000714D01*
X150211023Y-100038809D01*
X150287214Y-100076904D01*
X150591976Y-100076904D01*
X150591976Y-99276904D01*
X150325309Y-99276904D01*
X150249119Y-99315000D01*
X150211023Y-99353095D01*
X150172928Y-99429285D01*
X150172928Y-99505476D01*
X150211023Y-99581666D01*
X150249119Y-99619761D01*
X150325309Y-99657857D01*
X150591976Y-99657857D01*
X149868166Y-99276904D02*
X149372928Y-99276904D01*
X149639595Y-99581666D01*
X149525309Y-99581666D01*
X149449119Y-99619761D01*
X149411023Y-99657857D01*
X149372928Y-99734047D01*
X149372928Y-99924523D01*
X149411023Y-100000714D01*
X149449119Y-100038809D01*
X149525309Y-100076904D01*
X149753880Y-100076904D01*
X149830071Y-100038809D01*
X149868166Y-100000714D01*
X150325309Y-104737857D02*
X150211023Y-104775952D01*
X150172928Y-104814047D01*
X150134833Y-104890238D01*
X150134833Y-105004523D01*
X150172928Y-105080714D01*
X150211023Y-105118809D01*
X150287214Y-105156904D01*
X150591976Y-105156904D01*
X150591976Y-104356904D01*
X150325309Y-104356904D01*
X150249119Y-104395000D01*
X150211023Y-104433095D01*
X150172928Y-104509285D01*
X150172928Y-104585476D01*
X150211023Y-104661666D01*
X150249119Y-104699761D01*
X150325309Y-104737857D01*
X150591976Y-104737857D01*
X149449119Y-104356904D02*
X149601500Y-104356904D01*
X149677690Y-104395000D01*
X149715785Y-104433095D01*
X149791976Y-104547380D01*
X149830071Y-104699761D01*
X149830071Y-105004523D01*
X149791976Y-105080714D01*
X149753880Y-105118809D01*
X149677690Y-105156904D01*
X149525309Y-105156904D01*
X149449119Y-105118809D01*
X149411023Y-105080714D01*
X149372928Y-105004523D01*
X149372928Y-104814047D01*
X149411023Y-104737857D01*
X149449119Y-104699761D01*
X149525309Y-104661666D01*
X149677690Y-104661666D01*
X149753880Y-104699761D01*
X149791976Y-104737857D01*
X149830071Y-104814047D01*
X161247309Y-102197857D02*
X161133023Y-102235952D01*
X161094928Y-102274047D01*
X161056833Y-102350238D01*
X161056833Y-102464523D01*
X161094928Y-102540714D01*
X161133023Y-102578809D01*
X161209214Y-102616904D01*
X161513976Y-102616904D01*
X161513976Y-101816904D01*
X161247309Y-101816904D01*
X161171119Y-101855000D01*
X161133023Y-101893095D01*
X161094928Y-101969285D01*
X161094928Y-102045476D01*
X161133023Y-102121666D01*
X161171119Y-102159761D01*
X161247309Y-102197857D01*
X161513976Y-102197857D01*
X160371119Y-102083571D02*
X160371119Y-102616904D01*
X160561595Y-101778809D02*
X160752071Y-102350238D01*
X160256833Y-102350238D01*
X161475880Y-99657857D02*
X161209214Y-99657857D01*
X161094928Y-100076904D02*
X161475880Y-100076904D01*
X161475880Y-99276904D01*
X161094928Y-99276904D01*
X160409214Y-99276904D02*
X160561595Y-99276904D01*
X160637785Y-99315000D01*
X160675880Y-99353095D01*
X160752071Y-99467380D01*
X160790166Y-99619761D01*
X160790166Y-99924523D01*
X160752071Y-100000714D01*
X160713976Y-100038809D01*
X160637785Y-100076904D01*
X160485404Y-100076904D01*
X160409214Y-100038809D01*
X160371119Y-100000714D01*
X160333023Y-99924523D01*
X160333023Y-99734047D01*
X160371119Y-99657857D01*
X160409214Y-99619761D01*
X160485404Y-99581666D01*
X160637785Y-99581666D01*
X160713976Y-99619761D01*
X160752071Y-99657857D01*
X160790166Y-99734047D01*
X161513976Y-97536904D02*
X161513976Y-96736904D01*
X161323500Y-96736904D01*
X161209214Y-96775000D01*
X161133023Y-96851190D01*
X161094928Y-96927380D01*
X161056833Y-97079761D01*
X161056833Y-97194047D01*
X161094928Y-97346428D01*
X161133023Y-97422619D01*
X161209214Y-97498809D01*
X161323500Y-97536904D01*
X161513976Y-97536904D01*
X160790166Y-96736904D02*
X160256833Y-96736904D01*
X160599690Y-97536904D01*
X161056833Y-94920714D02*
X161094928Y-94958809D01*
X161209214Y-94996904D01*
X161285404Y-94996904D01*
X161399690Y-94958809D01*
X161475880Y-94882619D01*
X161513976Y-94806428D01*
X161552071Y-94654047D01*
X161552071Y-94539761D01*
X161513976Y-94387380D01*
X161475880Y-94311190D01*
X161399690Y-94235000D01*
X161285404Y-94196904D01*
X161209214Y-94196904D01*
X161094928Y-94235000D01*
X161056833Y-94273095D01*
X160371119Y-94196904D02*
X160523500Y-94196904D01*
X160599690Y-94235000D01*
X160637785Y-94273095D01*
X160713976Y-94387380D01*
X160752071Y-94539761D01*
X160752071Y-94844523D01*
X160713976Y-94920714D01*
X160675880Y-94958809D01*
X160599690Y-94996904D01*
X160447309Y-94996904D01*
X160371119Y-94958809D01*
X160333023Y-94920714D01*
X160294928Y-94844523D01*
X160294928Y-94654047D01*
X160333023Y-94577857D01*
X160371119Y-94539761D01*
X160447309Y-94501666D01*
X160599690Y-94501666D01*
X160675880Y-94539761D01*
X160713976Y-94577857D01*
X160752071Y-94654047D01*
X161513976Y-92456904D02*
X161513976Y-91656904D01*
X161323500Y-91656904D01*
X161209214Y-91695000D01*
X161133023Y-91771190D01*
X161094928Y-91847380D01*
X161056833Y-91999761D01*
X161056833Y-92114047D01*
X161094928Y-92266428D01*
X161133023Y-92342619D01*
X161209214Y-92418809D01*
X161323500Y-92456904D01*
X161513976Y-92456904D01*
X160371119Y-91923571D02*
X160371119Y-92456904D01*
X160561595Y-91618809D02*
X160752071Y-92190238D01*
X160256833Y-92190238D01*
X161533023Y-81535000D02*
X161609214Y-81496904D01*
X161723500Y-81496904D01*
X161837785Y-81535000D01*
X161913976Y-81611190D01*
X161952071Y-81687380D01*
X161990166Y-81839761D01*
X161990166Y-81954047D01*
X161952071Y-82106428D01*
X161913976Y-82182619D01*
X161837785Y-82258809D01*
X161723500Y-82296904D01*
X161647309Y-82296904D01*
X161533023Y-82258809D01*
X161494928Y-82220714D01*
X161494928Y-81954047D01*
X161647309Y-81954047D01*
X161152071Y-82296904D02*
X161152071Y-81496904D01*
X160694928Y-82296904D01*
X160694928Y-81496904D01*
X160313976Y-82296904D02*
X160313976Y-81496904D01*
X160123500Y-81496904D01*
X160009214Y-81535000D01*
X159933023Y-81611190D01*
X159894928Y-81687380D01*
X159856833Y-81839761D01*
X159856833Y-81954047D01*
X159894928Y-82106428D01*
X159933023Y-82182619D01*
X160009214Y-82258809D01*
X160123500Y-82296904D01*
X160313976Y-82296904D01*
X161533023Y-84075000D02*
X161609214Y-84036904D01*
X161723500Y-84036904D01*
X161837785Y-84075000D01*
X161913976Y-84151190D01*
X161952071Y-84227380D01*
X161990166Y-84379761D01*
X161990166Y-84494047D01*
X161952071Y-84646428D01*
X161913976Y-84722619D01*
X161837785Y-84798809D01*
X161723500Y-84836904D01*
X161647309Y-84836904D01*
X161533023Y-84798809D01*
X161494928Y-84760714D01*
X161494928Y-84494047D01*
X161647309Y-84494047D01*
X161152071Y-84836904D02*
X161152071Y-84036904D01*
X160694928Y-84836904D01*
X160694928Y-84036904D01*
X160313976Y-84836904D02*
X160313976Y-84036904D01*
X160123500Y-84036904D01*
X160009214Y-84075000D01*
X159933023Y-84151190D01*
X159894928Y-84227380D01*
X159856833Y-84379761D01*
X159856833Y-84494047D01*
X159894928Y-84646428D01*
X159933023Y-84722619D01*
X160009214Y-84798809D01*
X160123500Y-84836904D01*
X160313976Y-84836904D01*
X161513976Y-87376904D02*
X161513976Y-86576904D01*
X161323500Y-86576904D01*
X161209214Y-86615000D01*
X161133023Y-86691190D01*
X161094928Y-86767380D01*
X161056833Y-86919761D01*
X161056833Y-87034047D01*
X161094928Y-87186428D01*
X161133023Y-87262619D01*
X161209214Y-87338809D01*
X161323500Y-87376904D01*
X161513976Y-87376904D01*
X160294928Y-87376904D02*
X160752071Y-87376904D01*
X160523500Y-87376904D02*
X160523500Y-86576904D01*
X160599690Y-86691190D01*
X160675880Y-86767380D01*
X160752071Y-86805476D01*
X161513976Y-89916904D02*
X161513976Y-89116904D01*
X161323500Y-89116904D01*
X161209214Y-89155000D01*
X161133023Y-89231190D01*
X161094928Y-89307380D01*
X161056833Y-89459761D01*
X161056833Y-89574047D01*
X161094928Y-89726428D01*
X161133023Y-89802619D01*
X161209214Y-89878809D01*
X161323500Y-89916904D01*
X161513976Y-89916904D01*
X160561595Y-89116904D02*
X160485404Y-89116904D01*
X160409214Y-89155000D01*
X160371119Y-89193095D01*
X160333023Y-89269285D01*
X160294928Y-89421666D01*
X160294928Y-89612142D01*
X160333023Y-89764523D01*
X160371119Y-89840714D01*
X160409214Y-89878809D01*
X160485404Y-89916904D01*
X160561595Y-89916904D01*
X160637785Y-89878809D01*
X160675880Y-89840714D01*
X160713976Y-89764523D01*
X160752071Y-89612142D01*
X160752071Y-89421666D01*
X160713976Y-89269285D01*
X160675880Y-89193095D01*
X160637785Y-89155000D01*
X160561595Y-89116904D01*
%LPC*%
D13*
X163082500Y-81935000D03*
X163082500Y-84475000D03*
X163082500Y-87015000D03*
X163082500Y-89555000D03*
X163082500Y-92095000D03*
X163082500Y-94635000D03*
X163082500Y-97175000D03*
X163082500Y-99715000D03*
X163082500Y-102255000D03*
X147842500Y-104795000D03*
X147842500Y-102255000D03*
X147842500Y-99715000D03*
X147842500Y-97175000D03*
X147842500Y-94635000D03*
X147842500Y-92095000D03*
X147842500Y-89555000D03*
X147842500Y-87015000D03*
X147842500Y-84475000D03*
X147842500Y-76855000D03*
D14*
X119900000Y-76200000D03*
D15*
X117400000Y-76200000D03*
X114900000Y-76200000D03*
D16*
X123000000Y-83700000D03*
X111800000Y-83700000D03*
D15*
X119900000Y-90700000D03*
X114900000Y-90700000D03*
D17*
X148673750Y-121800000D03*
X138513750Y-121800000D03*
D18*
X137503750Y-126880000D03*
D19*
X147403750Y-124340000D03*
X141053750Y-126880000D03*
D20*
X143593750Y-121800000D03*
D18*
X150953750Y-124340000D03*
D17*
X172486250Y-121800000D03*
X162326250Y-121800000D03*
D18*
X161316250Y-126880000D03*
D19*
X171216250Y-124340000D03*
X164866250Y-126880000D03*
D20*
X167406250Y-121800000D03*
D18*
X174766250Y-124340000D03*
D14*
X196100000Y-76200000D03*
D15*
X193600000Y-76200000D03*
X191100000Y-76200000D03*
D16*
X199200000Y-83700000D03*
X188000000Y-83700000D03*
D15*
X196100000Y-90700000D03*
X191100000Y-90700000D03*
D18*
X200960000Y-86240000D03*
D20*
X193600000Y-83700000D03*
D19*
X191060000Y-88780000D03*
X197410000Y-86240000D03*
D18*
X187510000Y-88780000D03*
D17*
X188520000Y-83700000D03*
X198680000Y-83700000D03*
D18*
X196197500Y-124340000D03*
D20*
X188837500Y-121800000D03*
D19*
X186297500Y-126880000D03*
X192647500Y-124340000D03*
D18*
X182747500Y-126880000D03*
D17*
X183757500Y-121800000D03*
X193917500Y-121800000D03*
D18*
X200960000Y-105290000D03*
D20*
X193600000Y-102750000D03*
D19*
X191060000Y-107830000D03*
X197410000Y-105290000D03*
D18*
X187510000Y-107830000D03*
D17*
X188520000Y-102750000D03*
X198680000Y-102750000D03*
D18*
X181910000Y-105290000D03*
D20*
X174550000Y-102750000D03*
D19*
X172010000Y-107830000D03*
X178360000Y-105290000D03*
D18*
X168460000Y-107830000D03*
D17*
X169470000Y-102750000D03*
X179630000Y-102750000D03*
D18*
X181910000Y-86240000D03*
D20*
X174550000Y-83700000D03*
D19*
X172010000Y-88780000D03*
X178360000Y-86240000D03*
D18*
X168460000Y-88780000D03*
D17*
X169470000Y-83700000D03*
X179630000Y-83700000D03*
D18*
X162860000Y-105290000D03*
D20*
X155500000Y-102750000D03*
D19*
X152960000Y-107830000D03*
X159310000Y-105290000D03*
D18*
X149410000Y-107830000D03*
D17*
X150420000Y-102750000D03*
X160580000Y-102750000D03*
D18*
X148140000Y-81160000D03*
D20*
X155500000Y-83700000D03*
D19*
X158040000Y-78620000D03*
X151690000Y-81160000D03*
D18*
X161590000Y-78620000D03*
D17*
X160580000Y-83700000D03*
X150420000Y-83700000D03*
D18*
X143810000Y-105290000D03*
D20*
X136450000Y-102750000D03*
D19*
X133910000Y-107830000D03*
X140260000Y-105290000D03*
D18*
X130360000Y-107830000D03*
D17*
X131370000Y-102750000D03*
X141530000Y-102750000D03*
D18*
X143810000Y-86240000D03*
D20*
X136450000Y-83700000D03*
D19*
X133910000Y-88780000D03*
X140260000Y-86240000D03*
D18*
X130360000Y-88780000D03*
D17*
X131370000Y-83700000D03*
X141530000Y-83700000D03*
D18*
X129522500Y-124340000D03*
D20*
X122162500Y-121800000D03*
D19*
X119622500Y-126880000D03*
X125972500Y-124340000D03*
D18*
X116072500Y-126880000D03*
D17*
X117082500Y-121800000D03*
X127242500Y-121800000D03*
D18*
X124760000Y-105290000D03*
D20*
X117400000Y-102750000D03*
D19*
X114860000Y-107830000D03*
X121210000Y-105290000D03*
D18*
X111310000Y-107830000D03*
D17*
X112320000Y-102750000D03*
X122480000Y-102750000D03*
D18*
X124760000Y-86240000D03*
D20*
X117400000Y-83700000D03*
D19*
X114860000Y-88780000D03*
X121210000Y-86240000D03*
D18*
X111310000Y-88780000D03*
D17*
X112320000Y-83700000D03*
X122480000Y-83700000D03*
D21*
X126925000Y-93225000D03*
X155500000Y-121800000D03*
X184075000Y-93225000D03*
D22*
X180487500Y-123610000D03*
D23*
X180487500Y-115990000D03*
D22*
X185250000Y-104560000D03*
D23*
X185250000Y-96940000D03*
D22*
X197410000Y-93225000D03*
D23*
X189790000Y-93225000D03*
D22*
X159056250Y-123610000D03*
D23*
X159056250Y-115990000D03*
D22*
X166200000Y-104560000D03*
D23*
X166200000Y-96940000D03*
D22*
X166200000Y-85510000D03*
D23*
X166200000Y-77890000D03*
D22*
X151690000Y-98225000D03*
D23*
X159310000Y-98225000D03*
D22*
X159310000Y-88225000D03*
D23*
X151690000Y-88225000D03*
D22*
X135243750Y-123610000D03*
D23*
X135243750Y-115990000D03*
D22*
X128100000Y-104560000D03*
D23*
X128100000Y-96940000D03*
D22*
X128100000Y-85510000D03*
D23*
X128100000Y-77890000D03*
D22*
X113812500Y-123610000D03*
D23*
X113812500Y-115990000D03*
D22*
X109050000Y-104560000D03*
D23*
X109050000Y-96940000D03*
D22*
X121210000Y-93225000D03*
D23*
X113590000Y-93225000D03*
M02*
