%TF.GenerationSoftware,KiCad,Pcbnew,(5.1.10)-1*%
%TF.CreationDate,2021-10-22T01:43:44-05:00*%
%TF.ProjectId,qwahtrohio,71776168-7472-46f6-9869-6f2e6b696361,rev?*%
%TF.SameCoordinates,Original*%
%TF.FileFunction,Soldermask,Bot*%
%TF.FilePolarity,Negative*%
%FSLAX46Y46*%
G04 Gerber Fmt 4.6, Leading zero omitted, Abs format (unit mm)*
G04 Created by KiCad (PCBNEW (5.1.10)-1) date 2021-10-22 01:43:44*
%MOMM*%
%LPD*%
G01*
G04 APERTURE LIST*
%ADD10C,1.752600*%
%ADD11R,2.000000X2.000000*%
%ADD12C,2.000000*%
%ADD13R,2.000000X3.200000*%
%ADD14C,1.700000*%
%ADD15R,2.550000X2.500000*%
%ADD16C,2.950000*%
%ADD17C,3.980180*%
%ADD18C,4.000000*%
%ADD19R,1.651000X1.651000*%
%ADD20C,1.651000*%
G04 APERTURE END LIST*
D10*
X163082500Y-81935000D03*
X163082500Y-84475000D03*
X163082500Y-87015000D03*
X163082500Y-89555000D03*
X163082500Y-92095000D03*
X163082500Y-94635000D03*
X163082500Y-97175000D03*
X163082500Y-99715000D03*
X163082500Y-102255000D03*
X147842500Y-104795000D03*
X147842500Y-102255000D03*
X147842500Y-99715000D03*
X147842500Y-97175000D03*
X147842500Y-94635000D03*
X147842500Y-92095000D03*
X147842500Y-89555000D03*
X147842500Y-87015000D03*
X147842500Y-84475000D03*
X147842500Y-76855000D03*
D11*
X119900000Y-76200000D03*
D12*
X117400000Y-76200000D03*
X114900000Y-76200000D03*
D13*
X123000000Y-83700000D03*
X111800000Y-83700000D03*
D12*
X119900000Y-90700000D03*
X114900000Y-90700000D03*
D14*
X148673750Y-121800000D03*
X138513750Y-121800000D03*
D15*
X137503750Y-126880000D03*
D16*
X147403750Y-124340000D03*
X141053750Y-126880000D03*
D17*
X143593750Y-121800000D03*
D15*
X150953750Y-124340000D03*
D14*
X172486250Y-121800000D03*
X162326250Y-121800000D03*
D15*
X161316250Y-126880000D03*
D16*
X171216250Y-124340000D03*
X164866250Y-126880000D03*
D17*
X167406250Y-121800000D03*
D15*
X174766250Y-124340000D03*
D11*
X196100000Y-76200000D03*
D12*
X193600000Y-76200000D03*
X191100000Y-76200000D03*
D13*
X199200000Y-83700000D03*
X188000000Y-83700000D03*
D12*
X196100000Y-90700000D03*
X191100000Y-90700000D03*
D15*
X200960000Y-86240000D03*
D17*
X193600000Y-83700000D03*
D16*
X191060000Y-88780000D03*
X197410000Y-86240000D03*
D15*
X187510000Y-88780000D03*
D14*
X188520000Y-83700000D03*
X198680000Y-83700000D03*
D15*
X196197500Y-124340000D03*
D17*
X188837500Y-121800000D03*
D16*
X186297500Y-126880000D03*
X192647500Y-124340000D03*
D15*
X182747500Y-126880000D03*
D14*
X183757500Y-121800000D03*
X193917500Y-121800000D03*
D15*
X200960000Y-105290000D03*
D17*
X193600000Y-102750000D03*
D16*
X191060000Y-107830000D03*
X197410000Y-105290000D03*
D15*
X187510000Y-107830000D03*
D14*
X188520000Y-102750000D03*
X198680000Y-102750000D03*
D15*
X181910000Y-105290000D03*
D17*
X174550000Y-102750000D03*
D16*
X172010000Y-107830000D03*
X178360000Y-105290000D03*
D15*
X168460000Y-107830000D03*
D14*
X169470000Y-102750000D03*
X179630000Y-102750000D03*
D15*
X181910000Y-86240000D03*
D17*
X174550000Y-83700000D03*
D16*
X172010000Y-88780000D03*
X178360000Y-86240000D03*
D15*
X168460000Y-88780000D03*
D14*
X169470000Y-83700000D03*
X179630000Y-83700000D03*
D15*
X162860000Y-105290000D03*
D17*
X155500000Y-102750000D03*
D16*
X152960000Y-107830000D03*
X159310000Y-105290000D03*
D15*
X149410000Y-107830000D03*
D14*
X150420000Y-102750000D03*
X160580000Y-102750000D03*
D15*
X148140000Y-81160000D03*
D17*
X155500000Y-83700000D03*
D16*
X158040000Y-78620000D03*
X151690000Y-81160000D03*
D15*
X161590000Y-78620000D03*
D14*
X160580000Y-83700000D03*
X150420000Y-83700000D03*
D15*
X143810000Y-105290000D03*
D17*
X136450000Y-102750000D03*
D16*
X133910000Y-107830000D03*
X140260000Y-105290000D03*
D15*
X130360000Y-107830000D03*
D14*
X131370000Y-102750000D03*
X141530000Y-102750000D03*
D15*
X143810000Y-86240000D03*
D17*
X136450000Y-83700000D03*
D16*
X133910000Y-88780000D03*
X140260000Y-86240000D03*
D15*
X130360000Y-88780000D03*
D14*
X131370000Y-83700000D03*
X141530000Y-83700000D03*
D15*
X129522500Y-124340000D03*
D17*
X122162500Y-121800000D03*
D16*
X119622500Y-126880000D03*
X125972500Y-124340000D03*
D15*
X116072500Y-126880000D03*
D14*
X117082500Y-121800000D03*
X127242500Y-121800000D03*
D15*
X124760000Y-105290000D03*
D17*
X117400000Y-102750000D03*
D16*
X114860000Y-107830000D03*
X121210000Y-105290000D03*
D15*
X111310000Y-107830000D03*
D14*
X112320000Y-102750000D03*
X122480000Y-102750000D03*
D15*
X124760000Y-86240000D03*
D17*
X117400000Y-83700000D03*
D16*
X114860000Y-88780000D03*
X121210000Y-86240000D03*
D15*
X111310000Y-88780000D03*
D14*
X112320000Y-83700000D03*
X122480000Y-83700000D03*
D18*
X126925000Y-93225000D03*
X155500000Y-121800000D03*
X184075000Y-93225000D03*
D19*
X180487500Y-123610000D03*
D20*
X180487500Y-115990000D03*
D19*
X185250000Y-104560000D03*
D20*
X185250000Y-96940000D03*
D19*
X197410000Y-93225000D03*
D20*
X189790000Y-93225000D03*
D19*
X159056250Y-123610000D03*
D20*
X159056250Y-115990000D03*
D19*
X166200000Y-104560000D03*
D20*
X166200000Y-96940000D03*
D19*
X166200000Y-85510000D03*
D20*
X166200000Y-77890000D03*
D19*
X151690000Y-98225000D03*
D20*
X159310000Y-98225000D03*
D19*
X159310000Y-88225000D03*
D20*
X151690000Y-88225000D03*
D19*
X135243750Y-123610000D03*
D20*
X135243750Y-115990000D03*
D19*
X128100000Y-104560000D03*
D20*
X128100000Y-96940000D03*
D19*
X128100000Y-85510000D03*
D20*
X128100000Y-77890000D03*
D19*
X113812500Y-123610000D03*
D20*
X113812500Y-115990000D03*
D19*
X109050000Y-104560000D03*
D20*
X109050000Y-96940000D03*
D19*
X121210000Y-93225000D03*
D20*
X113590000Y-93225000D03*
M02*
