%TF.GenerationSoftware,KiCad,Pcbnew,(5.1.10)-1*%
%TF.CreationDate,2021-10-22T01:43:44-05:00*%
%TF.ProjectId,qwahtrohio,71776168-7472-46f6-9869-6f2e6b696361,rev?*%
%TF.SameCoordinates,Original*%
%TF.FileFunction,Legend,Top*%
%TF.FilePolarity,Positive*%
%FSLAX46Y46*%
G04 Gerber Fmt 4.6, Leading zero omitted, Abs format (unit mm)*
G04 Created by KiCad (PCBNEW (5.1.10)-1) date 2021-10-22 01:43:44*
%MOMM*%
%LPD*%
G01*
G04 APERTURE LIST*
%ADD10C,0.381000*%
%ADD11C,0.120000*%
%ADD12C,0.150000*%
%ADD13C,1.752600*%
%ADD14R,2.000000X2.000000*%
%ADD15C,2.000000*%
%ADD16R,2.000000X3.200000*%
%ADD17C,1.700000*%
%ADD18C,2.950000*%
%ADD19C,3.980180*%
%ADD20C,4.000000*%
%ADD21R,1.651000X1.651000*%
%ADD22C,1.651000*%
G04 APERTURE END LIST*
D10*
X161812500Y-78125000D02*
X164352500Y-78125000D01*
X161812500Y-75585000D02*
X161812500Y-78125000D01*
X146572500Y-106065000D02*
X146572500Y-73045000D01*
X164352500Y-106065000D02*
X146572500Y-106065000D01*
X164352500Y-73045000D02*
X164352500Y-106065000D01*
X146572500Y-73045000D02*
X164352500Y-73045000D01*
X161812500Y-75585000D02*
X164352500Y-75585000D01*
D11*
X120400000Y-83700000D02*
G75*
G03*
X120400000Y-83700000I-3000000J0D01*
G01*
X123300000Y-85700000D02*
X123300000Y-89800000D01*
X111500000Y-89800000D02*
X111500000Y-85700000D01*
X111500000Y-81700000D02*
X111500000Y-77600000D01*
X123300000Y-81700000D02*
X123300000Y-77600000D01*
X123300000Y-77600000D02*
X111500000Y-77600000D01*
X121200000Y-76200000D02*
X121500000Y-75900000D01*
X121500000Y-75900000D02*
X121500000Y-76500000D01*
X121500000Y-76500000D02*
X121200000Y-76200000D01*
X123300000Y-89800000D02*
X120900000Y-89800000D01*
X118700000Y-89800000D02*
X116100000Y-89800000D01*
X113900000Y-89800000D02*
X111500000Y-89800000D01*
X117900000Y-83700000D02*
X116900000Y-83700000D01*
X117400000Y-83200000D02*
X117400000Y-84200000D01*
X131687500Y-112275000D02*
X131687500Y-131325000D01*
X155500000Y-112275000D02*
X131687500Y-112275000D01*
X155500000Y-131325000D02*
X155500000Y-112275000D01*
X131687500Y-131325000D02*
X155500000Y-131325000D01*
D10*
X135973750Y-127420000D02*
X135973750Y-129420000D01*
X135973750Y-114180000D02*
X137973750Y-114180000D01*
X151213750Y-129420000D02*
X151213750Y-127420000D01*
X135973750Y-129420000D02*
X137973750Y-129420000D01*
X149213750Y-114180000D02*
X151213750Y-114180000D01*
X151213750Y-116180000D02*
X151213750Y-114180000D01*
X149213750Y-129420000D02*
X151213750Y-129420000D01*
X135973750Y-116180000D02*
X135973750Y-114180000D01*
D11*
X155500000Y-112275000D02*
X155500000Y-131325000D01*
X179312500Y-112275000D02*
X155500000Y-112275000D01*
X179312500Y-131325000D02*
X179312500Y-112275000D01*
X155500000Y-131325000D02*
X179312500Y-131325000D01*
D10*
X159786250Y-127420000D02*
X159786250Y-129420000D01*
X159786250Y-114180000D02*
X161786250Y-114180000D01*
X175026250Y-129420000D02*
X175026250Y-127420000D01*
X159786250Y-129420000D02*
X161786250Y-129420000D01*
X173026250Y-114180000D02*
X175026250Y-114180000D01*
X175026250Y-116180000D02*
X175026250Y-114180000D01*
X173026250Y-129420000D02*
X175026250Y-129420000D01*
X159786250Y-116180000D02*
X159786250Y-114180000D01*
D11*
X196600000Y-83700000D02*
G75*
G03*
X196600000Y-83700000I-3000000J0D01*
G01*
X199500000Y-85700000D02*
X199500000Y-89800000D01*
X187700000Y-89800000D02*
X187700000Y-85700000D01*
X187700000Y-81700000D02*
X187700000Y-77600000D01*
X199500000Y-81700000D02*
X199500000Y-77600000D01*
X199500000Y-77600000D02*
X187700000Y-77600000D01*
X197400000Y-76200000D02*
X197700000Y-75900000D01*
X197700000Y-75900000D02*
X197700000Y-76500000D01*
X197700000Y-76500000D02*
X197400000Y-76200000D01*
X199500000Y-89800000D02*
X197100000Y-89800000D01*
X194900000Y-89800000D02*
X192300000Y-89800000D01*
X190100000Y-89800000D02*
X187700000Y-89800000D01*
X194100000Y-83700000D02*
X193100000Y-83700000D01*
X193600000Y-83200000D02*
X193600000Y-84200000D01*
X184075000Y-74175000D02*
X184075000Y-93225000D01*
X203125000Y-74175000D02*
X184075000Y-74175000D01*
X203125000Y-93225000D02*
X203125000Y-74175000D01*
X184075000Y-93225000D02*
X203125000Y-93225000D01*
D10*
X185980000Y-89320000D02*
X185980000Y-91320000D01*
X185980000Y-76080000D02*
X187980000Y-76080000D01*
X201220000Y-91320000D02*
X201220000Y-89320000D01*
X185980000Y-91320000D02*
X187980000Y-91320000D01*
X199220000Y-76080000D02*
X201220000Y-76080000D01*
X201220000Y-78080000D02*
X201220000Y-76080000D01*
X199220000Y-91320000D02*
X201220000Y-91320000D01*
X185980000Y-78080000D02*
X185980000Y-76080000D01*
D11*
X179312500Y-112275000D02*
X179312500Y-131325000D01*
X198362500Y-112275000D02*
X179312500Y-112275000D01*
X198362500Y-131325000D02*
X198362500Y-112275000D01*
X179312500Y-131325000D02*
X198362500Y-131325000D01*
D10*
X181217500Y-127420000D02*
X181217500Y-129420000D01*
X181217500Y-114180000D02*
X183217500Y-114180000D01*
X196457500Y-129420000D02*
X196457500Y-127420000D01*
X181217500Y-129420000D02*
X183217500Y-129420000D01*
X194457500Y-114180000D02*
X196457500Y-114180000D01*
X196457500Y-116180000D02*
X196457500Y-114180000D01*
X194457500Y-129420000D02*
X196457500Y-129420000D01*
X181217500Y-116180000D02*
X181217500Y-114180000D01*
D11*
X184075000Y-93225000D02*
X184075000Y-112275000D01*
X203125000Y-93225000D02*
X184075000Y-93225000D01*
X203125000Y-112275000D02*
X203125000Y-93225000D01*
X184075000Y-112275000D02*
X203125000Y-112275000D01*
D10*
X185980000Y-108370000D02*
X185980000Y-110370000D01*
X185980000Y-95130000D02*
X187980000Y-95130000D01*
X201220000Y-110370000D02*
X201220000Y-108370000D01*
X185980000Y-110370000D02*
X187980000Y-110370000D01*
X199220000Y-95130000D02*
X201220000Y-95130000D01*
X201220000Y-97130000D02*
X201220000Y-95130000D01*
X199220000Y-110370000D02*
X201220000Y-110370000D01*
X185980000Y-97130000D02*
X185980000Y-95130000D01*
D11*
X165025000Y-93225000D02*
X165025000Y-112275000D01*
X184075000Y-93225000D02*
X165025000Y-93225000D01*
X184075000Y-112275000D02*
X184075000Y-93225000D01*
X165025000Y-112275000D02*
X184075000Y-112275000D01*
D10*
X166930000Y-108370000D02*
X166930000Y-110370000D01*
X166930000Y-95130000D02*
X168930000Y-95130000D01*
X182170000Y-110370000D02*
X182170000Y-108370000D01*
X166930000Y-110370000D02*
X168930000Y-110370000D01*
X180170000Y-95130000D02*
X182170000Y-95130000D01*
X182170000Y-97130000D02*
X182170000Y-95130000D01*
X180170000Y-110370000D02*
X182170000Y-110370000D01*
X166930000Y-97130000D02*
X166930000Y-95130000D01*
D11*
X165025000Y-74175000D02*
X165025000Y-93225000D01*
X184075000Y-74175000D02*
X165025000Y-74175000D01*
X184075000Y-93225000D02*
X184075000Y-74175000D01*
X165025000Y-93225000D02*
X184075000Y-93225000D01*
D10*
X166930000Y-89320000D02*
X166930000Y-91320000D01*
X166930000Y-76080000D02*
X168930000Y-76080000D01*
X182170000Y-91320000D02*
X182170000Y-89320000D01*
X166930000Y-91320000D02*
X168930000Y-91320000D01*
X180170000Y-76080000D02*
X182170000Y-76080000D01*
X182170000Y-78080000D02*
X182170000Y-76080000D01*
X180170000Y-91320000D02*
X182170000Y-91320000D01*
X166930000Y-78080000D02*
X166930000Y-76080000D01*
D11*
X145975000Y-93225000D02*
X145975000Y-112275000D01*
X165025000Y-93225000D02*
X145975000Y-93225000D01*
X165025000Y-112275000D02*
X165025000Y-93225000D01*
X145975000Y-112275000D02*
X165025000Y-112275000D01*
D10*
X147880000Y-108370000D02*
X147880000Y-110370000D01*
X147880000Y-95130000D02*
X149880000Y-95130000D01*
X163120000Y-110370000D02*
X163120000Y-108370000D01*
X147880000Y-110370000D02*
X149880000Y-110370000D01*
X161120000Y-95130000D02*
X163120000Y-95130000D01*
X163120000Y-97130000D02*
X163120000Y-95130000D01*
X161120000Y-110370000D02*
X163120000Y-110370000D01*
X147880000Y-97130000D02*
X147880000Y-95130000D01*
D11*
X165025000Y-93225000D02*
X165025000Y-74175000D01*
X145975000Y-93225000D02*
X165025000Y-93225000D01*
X145975000Y-74175000D02*
X145975000Y-93225000D01*
X165025000Y-74175000D02*
X145975000Y-74175000D01*
D10*
X163120000Y-78080000D02*
X163120000Y-76080000D01*
X163120000Y-91320000D02*
X161120000Y-91320000D01*
X147880000Y-76080000D02*
X147880000Y-78080000D01*
X163120000Y-76080000D02*
X161120000Y-76080000D01*
X149880000Y-91320000D02*
X147880000Y-91320000D01*
X147880000Y-89320000D02*
X147880000Y-91320000D01*
X149880000Y-76080000D02*
X147880000Y-76080000D01*
X163120000Y-89320000D02*
X163120000Y-91320000D01*
D11*
X126925000Y-93225000D02*
X126925000Y-112275000D01*
X145975000Y-93225000D02*
X126925000Y-93225000D01*
X145975000Y-112275000D02*
X145975000Y-93225000D01*
X126925000Y-112275000D02*
X145975000Y-112275000D01*
D10*
X128830000Y-108370000D02*
X128830000Y-110370000D01*
X128830000Y-95130000D02*
X130830000Y-95130000D01*
X144070000Y-110370000D02*
X144070000Y-108370000D01*
X128830000Y-110370000D02*
X130830000Y-110370000D01*
X142070000Y-95130000D02*
X144070000Y-95130000D01*
X144070000Y-97130000D02*
X144070000Y-95130000D01*
X142070000Y-110370000D02*
X144070000Y-110370000D01*
X128830000Y-97130000D02*
X128830000Y-95130000D01*
D11*
X126925000Y-74175000D02*
X126925000Y-93225000D01*
X145975000Y-74175000D02*
X126925000Y-74175000D01*
X145975000Y-93225000D02*
X145975000Y-74175000D01*
X126925000Y-93225000D02*
X145975000Y-93225000D01*
D10*
X128830000Y-89320000D02*
X128830000Y-91320000D01*
X128830000Y-76080000D02*
X130830000Y-76080000D01*
X144070000Y-91320000D02*
X144070000Y-89320000D01*
X128830000Y-91320000D02*
X130830000Y-91320000D01*
X142070000Y-76080000D02*
X144070000Y-76080000D01*
X144070000Y-78080000D02*
X144070000Y-76080000D01*
X142070000Y-91320000D02*
X144070000Y-91320000D01*
X128830000Y-78080000D02*
X128830000Y-76080000D01*
D11*
X112637500Y-112275000D02*
X112637500Y-131325000D01*
X131687500Y-112275000D02*
X112637500Y-112275000D01*
X131687500Y-131325000D02*
X131687500Y-112275000D01*
X112637500Y-131325000D02*
X131687500Y-131325000D01*
D10*
X114542500Y-127420000D02*
X114542500Y-129420000D01*
X114542500Y-114180000D02*
X116542500Y-114180000D01*
X129782500Y-129420000D02*
X129782500Y-127420000D01*
X114542500Y-129420000D02*
X116542500Y-129420000D01*
X127782500Y-114180000D02*
X129782500Y-114180000D01*
X129782500Y-116180000D02*
X129782500Y-114180000D01*
X127782500Y-129420000D02*
X129782500Y-129420000D01*
X114542500Y-116180000D02*
X114542500Y-114180000D01*
D11*
X107875000Y-93225000D02*
X107875000Y-112275000D01*
X126925000Y-93225000D02*
X107875000Y-93225000D01*
X126925000Y-112275000D02*
X126925000Y-93225000D01*
X107875000Y-112275000D02*
X126925000Y-112275000D01*
D10*
X109780000Y-108370000D02*
X109780000Y-110370000D01*
X109780000Y-95130000D02*
X111780000Y-95130000D01*
X125020000Y-110370000D02*
X125020000Y-108370000D01*
X109780000Y-110370000D02*
X111780000Y-110370000D01*
X123020000Y-95130000D02*
X125020000Y-95130000D01*
X125020000Y-97130000D02*
X125020000Y-95130000D01*
X123020000Y-110370000D02*
X125020000Y-110370000D01*
X109780000Y-97130000D02*
X109780000Y-95130000D01*
D11*
X107875000Y-74175000D02*
X107875000Y-93225000D01*
X126925000Y-74175000D02*
X107875000Y-74175000D01*
X126925000Y-93225000D02*
X126925000Y-74175000D01*
X107875000Y-93225000D02*
X126925000Y-93225000D01*
D10*
X109780000Y-89320000D02*
X109780000Y-91320000D01*
X109780000Y-76080000D02*
X111780000Y-76080000D01*
X125020000Y-91320000D02*
X125020000Y-89320000D01*
X109780000Y-91320000D02*
X111780000Y-91320000D01*
X123020000Y-76080000D02*
X125020000Y-76080000D01*
X125020000Y-78080000D02*
X125020000Y-76080000D01*
X123020000Y-91320000D02*
X125020000Y-91320000D01*
X109780000Y-78080000D02*
X109780000Y-76080000D01*
D12*
X160333023Y-89916904D02*
X160333023Y-89116904D01*
X160523500Y-89116904D01*
X160637785Y-89155000D01*
X160713976Y-89231190D01*
X160752071Y-89307380D01*
X160790166Y-89459761D01*
X160790166Y-89574047D01*
X160752071Y-89726428D01*
X160713976Y-89802619D01*
X160637785Y-89878809D01*
X160523500Y-89916904D01*
X160333023Y-89916904D01*
X161285404Y-89116904D02*
X161361595Y-89116904D01*
X161437785Y-89155000D01*
X161475880Y-89193095D01*
X161513976Y-89269285D01*
X161552071Y-89421666D01*
X161552071Y-89612142D01*
X161513976Y-89764523D01*
X161475880Y-89840714D01*
X161437785Y-89878809D01*
X161361595Y-89916904D01*
X161285404Y-89916904D01*
X161209214Y-89878809D01*
X161171119Y-89840714D01*
X161133023Y-89764523D01*
X161094928Y-89612142D01*
X161094928Y-89421666D01*
X161133023Y-89269285D01*
X161171119Y-89193095D01*
X161209214Y-89155000D01*
X161285404Y-89116904D01*
X160333023Y-87376904D02*
X160333023Y-86576904D01*
X160523500Y-86576904D01*
X160637785Y-86615000D01*
X160713976Y-86691190D01*
X160752071Y-86767380D01*
X160790166Y-86919761D01*
X160790166Y-87034047D01*
X160752071Y-87186428D01*
X160713976Y-87262619D01*
X160637785Y-87338809D01*
X160523500Y-87376904D01*
X160333023Y-87376904D01*
X161552071Y-87376904D02*
X161094928Y-87376904D01*
X161323500Y-87376904D02*
X161323500Y-86576904D01*
X161247309Y-86691190D01*
X161171119Y-86767380D01*
X161094928Y-86805476D01*
X160313976Y-84075000D02*
X160237785Y-84036904D01*
X160123500Y-84036904D01*
X160009214Y-84075000D01*
X159933023Y-84151190D01*
X159894928Y-84227380D01*
X159856833Y-84379761D01*
X159856833Y-84494047D01*
X159894928Y-84646428D01*
X159933023Y-84722619D01*
X160009214Y-84798809D01*
X160123500Y-84836904D01*
X160199690Y-84836904D01*
X160313976Y-84798809D01*
X160352071Y-84760714D01*
X160352071Y-84494047D01*
X160199690Y-84494047D01*
X160694928Y-84836904D02*
X160694928Y-84036904D01*
X161152071Y-84836904D01*
X161152071Y-84036904D01*
X161533023Y-84836904D02*
X161533023Y-84036904D01*
X161723500Y-84036904D01*
X161837785Y-84075000D01*
X161913976Y-84151190D01*
X161952071Y-84227380D01*
X161990166Y-84379761D01*
X161990166Y-84494047D01*
X161952071Y-84646428D01*
X161913976Y-84722619D01*
X161837785Y-84798809D01*
X161723500Y-84836904D01*
X161533023Y-84836904D01*
X160313976Y-81535000D02*
X160237785Y-81496904D01*
X160123500Y-81496904D01*
X160009214Y-81535000D01*
X159933023Y-81611190D01*
X159894928Y-81687380D01*
X159856833Y-81839761D01*
X159856833Y-81954047D01*
X159894928Y-82106428D01*
X159933023Y-82182619D01*
X160009214Y-82258809D01*
X160123500Y-82296904D01*
X160199690Y-82296904D01*
X160313976Y-82258809D01*
X160352071Y-82220714D01*
X160352071Y-81954047D01*
X160199690Y-81954047D01*
X160694928Y-82296904D02*
X160694928Y-81496904D01*
X161152071Y-82296904D01*
X161152071Y-81496904D01*
X161533023Y-82296904D02*
X161533023Y-81496904D01*
X161723500Y-81496904D01*
X161837785Y-81535000D01*
X161913976Y-81611190D01*
X161952071Y-81687380D01*
X161990166Y-81839761D01*
X161990166Y-81954047D01*
X161952071Y-82106428D01*
X161913976Y-82182619D01*
X161837785Y-82258809D01*
X161723500Y-82296904D01*
X161533023Y-82296904D01*
X160333023Y-92456904D02*
X160333023Y-91656904D01*
X160523500Y-91656904D01*
X160637785Y-91695000D01*
X160713976Y-91771190D01*
X160752071Y-91847380D01*
X160790166Y-91999761D01*
X160790166Y-92114047D01*
X160752071Y-92266428D01*
X160713976Y-92342619D01*
X160637785Y-92418809D01*
X160523500Y-92456904D01*
X160333023Y-92456904D01*
X161475880Y-91923571D02*
X161475880Y-92456904D01*
X161285404Y-91618809D02*
X161094928Y-92190238D01*
X161590166Y-92190238D01*
X160790166Y-94920714D02*
X160752071Y-94958809D01*
X160637785Y-94996904D01*
X160561595Y-94996904D01*
X160447309Y-94958809D01*
X160371119Y-94882619D01*
X160333023Y-94806428D01*
X160294928Y-94654047D01*
X160294928Y-94539761D01*
X160333023Y-94387380D01*
X160371119Y-94311190D01*
X160447309Y-94235000D01*
X160561595Y-94196904D01*
X160637785Y-94196904D01*
X160752071Y-94235000D01*
X160790166Y-94273095D01*
X161475880Y-94196904D02*
X161323500Y-94196904D01*
X161247309Y-94235000D01*
X161209214Y-94273095D01*
X161133023Y-94387380D01*
X161094928Y-94539761D01*
X161094928Y-94844523D01*
X161133023Y-94920714D01*
X161171119Y-94958809D01*
X161247309Y-94996904D01*
X161399690Y-94996904D01*
X161475880Y-94958809D01*
X161513976Y-94920714D01*
X161552071Y-94844523D01*
X161552071Y-94654047D01*
X161513976Y-94577857D01*
X161475880Y-94539761D01*
X161399690Y-94501666D01*
X161247309Y-94501666D01*
X161171119Y-94539761D01*
X161133023Y-94577857D01*
X161094928Y-94654047D01*
X160333023Y-97536904D02*
X160333023Y-96736904D01*
X160523500Y-96736904D01*
X160637785Y-96775000D01*
X160713976Y-96851190D01*
X160752071Y-96927380D01*
X160790166Y-97079761D01*
X160790166Y-97194047D01*
X160752071Y-97346428D01*
X160713976Y-97422619D01*
X160637785Y-97498809D01*
X160523500Y-97536904D01*
X160333023Y-97536904D01*
X161056833Y-96736904D02*
X161590166Y-96736904D01*
X161247309Y-97536904D01*
X160371119Y-99657857D02*
X160637785Y-99657857D01*
X160752071Y-100076904D02*
X160371119Y-100076904D01*
X160371119Y-99276904D01*
X160752071Y-99276904D01*
X161437785Y-99276904D02*
X161285404Y-99276904D01*
X161209214Y-99315000D01*
X161171119Y-99353095D01*
X161094928Y-99467380D01*
X161056833Y-99619761D01*
X161056833Y-99924523D01*
X161094928Y-100000714D01*
X161133023Y-100038809D01*
X161209214Y-100076904D01*
X161361595Y-100076904D01*
X161437785Y-100038809D01*
X161475880Y-100000714D01*
X161513976Y-99924523D01*
X161513976Y-99734047D01*
X161475880Y-99657857D01*
X161437785Y-99619761D01*
X161361595Y-99581666D01*
X161209214Y-99581666D01*
X161133023Y-99619761D01*
X161094928Y-99657857D01*
X161056833Y-99734047D01*
X160599690Y-102197857D02*
X160713976Y-102235952D01*
X160752071Y-102274047D01*
X160790166Y-102350238D01*
X160790166Y-102464523D01*
X160752071Y-102540714D01*
X160713976Y-102578809D01*
X160637785Y-102616904D01*
X160333023Y-102616904D01*
X160333023Y-101816904D01*
X160599690Y-101816904D01*
X160675880Y-101855000D01*
X160713976Y-101893095D01*
X160752071Y-101969285D01*
X160752071Y-102045476D01*
X160713976Y-102121666D01*
X160675880Y-102159761D01*
X160599690Y-102197857D01*
X160333023Y-102197857D01*
X161475880Y-102083571D02*
X161475880Y-102616904D01*
X161285404Y-101778809D02*
X161094928Y-102350238D01*
X161590166Y-102350238D01*
X149677690Y-104737857D02*
X149791976Y-104775952D01*
X149830071Y-104814047D01*
X149868166Y-104890238D01*
X149868166Y-105004523D01*
X149830071Y-105080714D01*
X149791976Y-105118809D01*
X149715785Y-105156904D01*
X149411023Y-105156904D01*
X149411023Y-104356904D01*
X149677690Y-104356904D01*
X149753880Y-104395000D01*
X149791976Y-104433095D01*
X149830071Y-104509285D01*
X149830071Y-104585476D01*
X149791976Y-104661666D01*
X149753880Y-104699761D01*
X149677690Y-104737857D01*
X149411023Y-104737857D01*
X150553880Y-104356904D02*
X150401500Y-104356904D01*
X150325309Y-104395000D01*
X150287214Y-104433095D01*
X150211023Y-104547380D01*
X150172928Y-104699761D01*
X150172928Y-105004523D01*
X150211023Y-105080714D01*
X150249119Y-105118809D01*
X150325309Y-105156904D01*
X150477690Y-105156904D01*
X150553880Y-105118809D01*
X150591976Y-105080714D01*
X150630071Y-105004523D01*
X150630071Y-104814047D01*
X150591976Y-104737857D01*
X150553880Y-104699761D01*
X150477690Y-104661666D01*
X150325309Y-104661666D01*
X150249119Y-104699761D01*
X150211023Y-104737857D01*
X150172928Y-104814047D01*
X149677690Y-99657857D02*
X149791976Y-99695952D01*
X149830071Y-99734047D01*
X149868166Y-99810238D01*
X149868166Y-99924523D01*
X149830071Y-100000714D01*
X149791976Y-100038809D01*
X149715785Y-100076904D01*
X149411023Y-100076904D01*
X149411023Y-99276904D01*
X149677690Y-99276904D01*
X149753880Y-99315000D01*
X149791976Y-99353095D01*
X149830071Y-99429285D01*
X149830071Y-99505476D01*
X149791976Y-99581666D01*
X149753880Y-99619761D01*
X149677690Y-99657857D01*
X149411023Y-99657857D01*
X150134833Y-99276904D02*
X150630071Y-99276904D01*
X150363404Y-99581666D01*
X150477690Y-99581666D01*
X150553880Y-99619761D01*
X150591976Y-99657857D01*
X150630071Y-99734047D01*
X150630071Y-99924523D01*
X150591976Y-100000714D01*
X150553880Y-100038809D01*
X150477690Y-100076904D01*
X150249119Y-100076904D01*
X150172928Y-100038809D01*
X150134833Y-100000714D01*
X149677690Y-97117857D02*
X149791976Y-97155952D01*
X149830071Y-97194047D01*
X149868166Y-97270238D01*
X149868166Y-97384523D01*
X149830071Y-97460714D01*
X149791976Y-97498809D01*
X149715785Y-97536904D01*
X149411023Y-97536904D01*
X149411023Y-96736904D01*
X149677690Y-96736904D01*
X149753880Y-96775000D01*
X149791976Y-96813095D01*
X149830071Y-96889285D01*
X149830071Y-96965476D01*
X149791976Y-97041666D01*
X149753880Y-97079761D01*
X149677690Y-97117857D01*
X149411023Y-97117857D01*
X150630071Y-97536904D02*
X150172928Y-97536904D01*
X150401500Y-97536904D02*
X150401500Y-96736904D01*
X150325309Y-96851190D01*
X150249119Y-96927380D01*
X150172928Y-96965476D01*
X149734833Y-86957857D02*
X149468166Y-86957857D01*
X149468166Y-87376904D02*
X149468166Y-86576904D01*
X149849119Y-86576904D01*
X150496738Y-86843571D02*
X150496738Y-87376904D01*
X150306261Y-86538809D02*
X150115785Y-87110238D01*
X150611023Y-87110238D01*
X148934833Y-84036904D02*
X149201500Y-84836904D01*
X149468166Y-84036904D01*
X150191976Y-84760714D02*
X150153880Y-84798809D01*
X150039595Y-84836904D01*
X149963404Y-84836904D01*
X149849119Y-84798809D01*
X149772928Y-84722619D01*
X149734833Y-84646428D01*
X149696738Y-84494047D01*
X149696738Y-84379761D01*
X149734833Y-84227380D01*
X149772928Y-84151190D01*
X149849119Y-84075000D01*
X149963404Y-84036904D01*
X150039595Y-84036904D01*
X150153880Y-84075000D01*
X150191976Y-84113095D01*
X150991976Y-84760714D02*
X150953880Y-84798809D01*
X150839595Y-84836904D01*
X150763404Y-84836904D01*
X150649119Y-84798809D01*
X150572928Y-84722619D01*
X150534833Y-84646428D01*
X150496738Y-84494047D01*
X150496738Y-84379761D01*
X150534833Y-84227380D01*
X150572928Y-84151190D01*
X150649119Y-84075000D01*
X150763404Y-84036904D01*
X150839595Y-84036904D01*
X150953880Y-84075000D01*
X150991976Y-84113095D01*
X149449119Y-77216904D02*
X149182452Y-76835952D01*
X148991976Y-77216904D02*
X148991976Y-76416904D01*
X149296738Y-76416904D01*
X149372928Y-76455000D01*
X149411023Y-76493095D01*
X149449119Y-76569285D01*
X149449119Y-76683571D01*
X149411023Y-76759761D01*
X149372928Y-76797857D01*
X149296738Y-76835952D01*
X148991976Y-76835952D01*
X149753880Y-76988333D02*
X150134833Y-76988333D01*
X149677690Y-77216904D02*
X149944357Y-76416904D01*
X150211023Y-77216904D01*
X150401500Y-76416904D02*
X150591976Y-77216904D01*
X150744357Y-76645476D01*
X150896738Y-77216904D01*
X151087214Y-76416904D01*
X149734833Y-89497857D02*
X149468166Y-89497857D01*
X149468166Y-89916904D02*
X149468166Y-89116904D01*
X149849119Y-89116904D01*
X150534833Y-89116904D02*
X150153880Y-89116904D01*
X150115785Y-89497857D01*
X150153880Y-89459761D01*
X150230071Y-89421666D01*
X150420547Y-89421666D01*
X150496738Y-89459761D01*
X150534833Y-89497857D01*
X150572928Y-89574047D01*
X150572928Y-89764523D01*
X150534833Y-89840714D01*
X150496738Y-89878809D01*
X150420547Y-89916904D01*
X150230071Y-89916904D01*
X150153880Y-89878809D01*
X150115785Y-89840714D01*
X149734833Y-92037857D02*
X149468166Y-92037857D01*
X149468166Y-92456904D02*
X149468166Y-91656904D01*
X149849119Y-91656904D01*
X150496738Y-91656904D02*
X150344357Y-91656904D01*
X150268166Y-91695000D01*
X150230071Y-91733095D01*
X150153880Y-91847380D01*
X150115785Y-91999761D01*
X150115785Y-92304523D01*
X150153880Y-92380714D01*
X150191976Y-92418809D01*
X150268166Y-92456904D01*
X150420547Y-92456904D01*
X150496738Y-92418809D01*
X150534833Y-92380714D01*
X150572928Y-92304523D01*
X150572928Y-92114047D01*
X150534833Y-92037857D01*
X150496738Y-91999761D01*
X150420547Y-91961666D01*
X150268166Y-91961666D01*
X150191976Y-91999761D01*
X150153880Y-92037857D01*
X150115785Y-92114047D01*
X149734833Y-94577857D02*
X149468166Y-94577857D01*
X149468166Y-94996904D02*
X149468166Y-94196904D01*
X149849119Y-94196904D01*
X150077690Y-94196904D02*
X150611023Y-94196904D01*
X150268166Y-94996904D01*
X149677690Y-102197857D02*
X149791976Y-102235952D01*
X149830071Y-102274047D01*
X149868166Y-102350238D01*
X149868166Y-102464523D01*
X149830071Y-102540714D01*
X149791976Y-102578809D01*
X149715785Y-102616904D01*
X149411023Y-102616904D01*
X149411023Y-101816904D01*
X149677690Y-101816904D01*
X149753880Y-101855000D01*
X149791976Y-101893095D01*
X149830071Y-101969285D01*
X149830071Y-102045476D01*
X149791976Y-102121666D01*
X149753880Y-102159761D01*
X149677690Y-102197857D01*
X149411023Y-102197857D01*
X150172928Y-101893095D02*
X150211023Y-101855000D01*
X150287214Y-101816904D01*
X150477690Y-101816904D01*
X150553880Y-101855000D01*
X150591976Y-101893095D01*
X150630071Y-101969285D01*
X150630071Y-102045476D01*
X150591976Y-102159761D01*
X150134833Y-102616904D01*
X150630071Y-102616904D01*
%LPC*%
D13*
X163082500Y-81935000D03*
X163082500Y-84475000D03*
X163082500Y-87015000D03*
X163082500Y-89555000D03*
X163082500Y-92095000D03*
X163082500Y-94635000D03*
X163082500Y-97175000D03*
X163082500Y-99715000D03*
X163082500Y-102255000D03*
X147842500Y-104795000D03*
X147842500Y-102255000D03*
X147842500Y-99715000D03*
X147842500Y-97175000D03*
X147842500Y-94635000D03*
X147842500Y-92095000D03*
X147842500Y-89555000D03*
X147842500Y-87015000D03*
X147842500Y-84475000D03*
X147842500Y-76855000D03*
D14*
X119900000Y-76200000D03*
D15*
X117400000Y-76200000D03*
X114900000Y-76200000D03*
D16*
X123000000Y-83700000D03*
X111800000Y-83700000D03*
D15*
X119900000Y-90700000D03*
X114900000Y-90700000D03*
D17*
X148673750Y-121800000D03*
X138513750Y-121800000D03*
D18*
X147403750Y-124340000D03*
X141053750Y-126880000D03*
D19*
X143593750Y-121800000D03*
D17*
X172486250Y-121800000D03*
X162326250Y-121800000D03*
D18*
X171216250Y-124340000D03*
X164866250Y-126880000D03*
D19*
X167406250Y-121800000D03*
D14*
X196100000Y-76200000D03*
D15*
X193600000Y-76200000D03*
X191100000Y-76200000D03*
D16*
X199200000Y-83700000D03*
X188000000Y-83700000D03*
D15*
X196100000Y-90700000D03*
X191100000Y-90700000D03*
D19*
X193600000Y-83700000D03*
D18*
X191060000Y-88780000D03*
X197410000Y-86240000D03*
D17*
X188520000Y-83700000D03*
X198680000Y-83700000D03*
D19*
X188837500Y-121800000D03*
D18*
X186297500Y-126880000D03*
X192647500Y-124340000D03*
D17*
X183757500Y-121800000D03*
X193917500Y-121800000D03*
D19*
X193600000Y-102750000D03*
D18*
X191060000Y-107830000D03*
X197410000Y-105290000D03*
D17*
X188520000Y-102750000D03*
X198680000Y-102750000D03*
D19*
X174550000Y-102750000D03*
D18*
X172010000Y-107830000D03*
X178360000Y-105290000D03*
D17*
X169470000Y-102750000D03*
X179630000Y-102750000D03*
D19*
X174550000Y-83700000D03*
D18*
X172010000Y-88780000D03*
X178360000Y-86240000D03*
D17*
X169470000Y-83700000D03*
X179630000Y-83700000D03*
D19*
X155500000Y-102750000D03*
D18*
X152960000Y-107830000D03*
X159310000Y-105290000D03*
D17*
X150420000Y-102750000D03*
X160580000Y-102750000D03*
D19*
X155500000Y-83700000D03*
D18*
X158040000Y-78620000D03*
X151690000Y-81160000D03*
D17*
X160580000Y-83700000D03*
X150420000Y-83700000D03*
D19*
X136450000Y-102750000D03*
D18*
X133910000Y-107830000D03*
X140260000Y-105290000D03*
D17*
X131370000Y-102750000D03*
X141530000Y-102750000D03*
D19*
X136450000Y-83700000D03*
D18*
X133910000Y-88780000D03*
X140260000Y-86240000D03*
D17*
X131370000Y-83700000D03*
X141530000Y-83700000D03*
D19*
X122162500Y-121800000D03*
D18*
X119622500Y-126880000D03*
X125972500Y-124340000D03*
D17*
X117082500Y-121800000D03*
X127242500Y-121800000D03*
D19*
X117400000Y-102750000D03*
D18*
X114860000Y-107830000D03*
X121210000Y-105290000D03*
D17*
X112320000Y-102750000D03*
X122480000Y-102750000D03*
D19*
X117400000Y-83700000D03*
D18*
X114860000Y-88780000D03*
X121210000Y-86240000D03*
D17*
X112320000Y-83700000D03*
X122480000Y-83700000D03*
D20*
X126925000Y-93225000D03*
X155500000Y-121800000D03*
X184075000Y-93225000D03*
D21*
X180487500Y-123610000D03*
D22*
X180487500Y-115990000D03*
D21*
X185250000Y-104560000D03*
D22*
X185250000Y-96940000D03*
D21*
X197410000Y-93225000D03*
D22*
X189790000Y-93225000D03*
D21*
X159056250Y-123610000D03*
D22*
X159056250Y-115990000D03*
D21*
X166200000Y-104560000D03*
D22*
X166200000Y-96940000D03*
D21*
X166200000Y-85510000D03*
D22*
X166200000Y-77890000D03*
D21*
X151690000Y-98225000D03*
D22*
X159310000Y-98225000D03*
D21*
X159310000Y-88225000D03*
D22*
X151690000Y-88225000D03*
D21*
X135243750Y-123610000D03*
D22*
X135243750Y-115990000D03*
D21*
X128100000Y-104560000D03*
D22*
X128100000Y-96940000D03*
D21*
X128100000Y-85510000D03*
D22*
X128100000Y-77890000D03*
D21*
X113812500Y-123610000D03*
D22*
X113812500Y-115990000D03*
D21*
X109050000Y-104560000D03*
D22*
X109050000Y-96940000D03*
D21*
X121210000Y-93225000D03*
D22*
X113590000Y-93225000D03*
M02*
