M48
; DRILL file {KiCad (5.1.10)-1} date 10/22/21 01:43:47
; FORMAT={-:-/ absolute / metric / decimal}
; #@! TF.CreationDate,2021-10-22T01:43:47-05:00
; #@! TF.GenerationSoftware,Kicad,Pcbnew,(5.1.10)-1
FMAT,2
METRIC
T1C0.400
T2C0.991
T3C1.000
T4C1.092
T5C3.200
T6C1.500
T7C1.700
T8C2.950
T9C3.980
%
G90
G05
T1
X124.6Y-98.245
X181.75Y-100.04
X200.96Y-98.285
T2
X109.05Y-96.94
X109.05Y-104.56
X113.59Y-93.225
X113.812Y-115.99
X113.812Y-123.61
X121.21Y-93.225
X128.1Y-77.89
X128.1Y-85.51
X128.1Y-96.94
X128.1Y-104.56
X135.244Y-115.99
X135.244Y-123.61
X151.69Y-88.225
X151.69Y-98.225
X159.056Y-115.99
X159.056Y-123.61
X159.31Y-88.225
X159.31Y-98.225
X166.2Y-77.89
X166.2Y-85.51
X166.2Y-96.94
X166.2Y-104.56
X180.487Y-115.99
X180.487Y-123.61
X185.25Y-96.94
X185.25Y-104.56
X189.79Y-93.225
X197.41Y-93.225
T3
X114.9Y-76.2
X114.9Y-90.7
X117.4Y-76.2
X119.9Y-76.2
X119.9Y-90.7
X191.1Y-76.2
X191.1Y-90.7
X193.6Y-76.2
X196.1Y-76.2
X196.1Y-90.7
T4
X147.843Y-76.855
X147.843Y-84.475
X147.843Y-87.015
X147.843Y-89.555
X147.843Y-92.095
X147.843Y-94.635
X147.843Y-97.175
X147.843Y-99.715
X147.843Y-102.255
X147.843Y-104.795
X163.082Y-81.935
X163.082Y-84.475
X163.082Y-87.015
X163.082Y-89.555
X163.082Y-92.095
X163.082Y-94.635
X163.082Y-97.175
X163.082Y-99.715
X163.082Y-102.255
T5
X126.925Y-93.225
X155.5Y-121.8
X184.075Y-93.225
T7
X112.32Y-83.7
X112.32Y-102.75
X117.082Y-121.8
X122.48Y-83.7
X122.48Y-102.75
X127.242Y-121.8
X131.37Y-83.7
X131.37Y-102.75
X138.514Y-121.8
X141.53Y-83.7
X141.53Y-102.75
X148.674Y-121.8
X150.42Y-83.7
X150.42Y-102.75
X160.58Y-83.7
X160.58Y-102.75
X162.326Y-121.8
X169.47Y-83.7
X169.47Y-102.75
X172.486Y-121.8
X179.63Y-83.7
X179.63Y-102.75
X183.757Y-121.8
X188.52Y-83.7
X188.52Y-102.75
X193.917Y-121.8
X198.68Y-83.7
X198.68Y-102.75
T8
X114.86Y-88.78
X114.86Y-107.83
X119.622Y-126.88
X121.21Y-86.24
X121.21Y-105.29
X125.972Y-124.34
X133.91Y-88.78
X133.91Y-107.83
X140.26Y-86.24
X140.26Y-105.29
X141.054Y-126.88
X147.404Y-124.34
X151.69Y-81.16
X152.96Y-107.83
X158.04Y-78.62
X159.31Y-105.29
X164.866Y-126.88
X171.216Y-124.34
X172.01Y-88.78
X172.01Y-107.83
X178.36Y-86.24
X178.36Y-105.29
X186.297Y-126.88
X191.06Y-88.78
X191.06Y-107.83
X192.647Y-124.34
X197.41Y-86.24
X197.41Y-105.29
T9
X117.4Y-83.7
X117.4Y-102.75
X122.162Y-121.8
X136.45Y-83.7
X136.45Y-102.75
X143.594Y-121.8
X155.5Y-83.7
X155.5Y-102.75
X167.406Y-121.8
X174.55Y-83.7
X174.55Y-102.75
X188.837Y-121.8
X193.6Y-83.7
X193.6Y-102.75
T6
X111.8Y-83.05G85X111.8Y-84.35
G05
X123.0Y-83.05G85X123.0Y-84.35
G05
X188.0Y-83.05G85X188.0Y-84.35
G05
X199.2Y-83.05G85X199.2Y-84.35
G05
T0
M30
