%FSLAX45Y45*%
G04 Gerber Fmt 4.5, Leading zero omitted, Abs format (unit mm)*
G04 Created by KiCad (PCBNEW (5.1.10)-1) date 2021-10-22 01:43:48*
%MOMM*%
%LPD*%
G01*
G04 APERTURE LIST*
%TA.AperFunction,Profile*%
%ADD10C,0.200000*%
%TD*%
%ADD11C,0.200000*%
%ADD12C,0.300000*%
G04 APERTURE END LIST*
D10*
X19993100Y-13029400D02*
X19993100Y-11600650D01*
X11363800Y-13267500D02*
G75*
G02*
X11125700Y-13029400I0J238100D01*
G01*
X19993100Y-11600650D02*
G75*
G02*
X20231250Y-11362500I238150J0D01*
G01*
X11125700Y-11600650D02*
X11125700Y-13029400D01*
X10649400Y-11124350D02*
X10649400Y-7495600D01*
X10887500Y-7257500D02*
X20231300Y-7257500D01*
X20231300Y-7257500D02*
G75*
G02*
X20469400Y-7495600I0J-238100D01*
G01*
X10649400Y-7495600D02*
G75*
G02*
X10887500Y-7257500I238100J0D01*
G01*
X19993100Y-13029400D02*
G75*
G02*
X19755000Y-13267500I-238100J0D01*
G01*
X10887550Y-11362500D02*
G75*
G02*
X11125700Y-11600650I0J-238150D01*
G01*
X20469400Y-11124350D02*
G75*
G02*
X20231250Y-11362500I-238150J0D01*
G01*
X10887550Y-11362500D02*
G75*
G02*
X10649400Y-11124350I0J238150D01*
G01*
X11363800Y-13267500D02*
X19755000Y-13267500D01*
X20469400Y-11124350D02*
X20469400Y-7495600D01*
D11*
X12440000Y-9804500D02*
X12480000Y-9844500D01*
X12480000Y-9804500D02*
X12440000Y-9844500D01*
X18155000Y-9984000D02*
X18195000Y-10024000D01*
X18195000Y-9984000D02*
X18155000Y-10024000D01*
X20076000Y-9808500D02*
X20116000Y-9848500D01*
X20116000Y-9808500D02*
X20076000Y-9848500D01*
X10954530Y-9694000D02*
G75*
G03*
X10954530Y-9694000I-49530J0D01*
G01*
X10954530Y-10456000D02*
G75*
G03*
X10954530Y-10456000I-49530J0D01*
G01*
X11408530Y-9322500D02*
G75*
G03*
X11408530Y-9322500I-49530J0D01*
G01*
X11430780Y-11599000D02*
G75*
G03*
X11430780Y-11599000I-49530J0D01*
G01*
X11430780Y-12361000D02*
G75*
G03*
X11430780Y-12361000I-49530J0D01*
G01*
X12170530Y-9322500D02*
G75*
G03*
X12170530Y-9322500I-49530J0D01*
G01*
X12859530Y-7789000D02*
G75*
G03*
X12859530Y-7789000I-49530J0D01*
G01*
X12859530Y-8551000D02*
G75*
G03*
X12859530Y-8551000I-49530J0D01*
G01*
X12859530Y-9694000D02*
G75*
G03*
X12859530Y-9694000I-49530J0D01*
G01*
X12859530Y-10456000D02*
G75*
G03*
X12859530Y-10456000I-49530J0D01*
G01*
X13573905Y-11599000D02*
G75*
G03*
X13573905Y-11599000I-49530J0D01*
G01*
X13573905Y-12361000D02*
G75*
G03*
X13573905Y-12361000I-49530J0D01*
G01*
X15218530Y-8822500D02*
G75*
G03*
X15218530Y-8822500I-49530J0D01*
G01*
X15218530Y-9822500D02*
G75*
G03*
X15218530Y-9822500I-49530J0D01*
G01*
X15955155Y-11599000D02*
G75*
G03*
X15955155Y-11599000I-49530J0D01*
G01*
X15955155Y-12361000D02*
G75*
G03*
X15955155Y-12361000I-49530J0D01*
G01*
X15980530Y-8822500D02*
G75*
G03*
X15980530Y-8822500I-49530J0D01*
G01*
X15980530Y-9822500D02*
G75*
G03*
X15980530Y-9822500I-49530J0D01*
G01*
X16669530Y-7789000D02*
G75*
G03*
X16669530Y-7789000I-49530J0D01*
G01*
X16669530Y-8551000D02*
G75*
G03*
X16669530Y-8551000I-49530J0D01*
G01*
X16669530Y-9694000D02*
G75*
G03*
X16669530Y-9694000I-49530J0D01*
G01*
X16669530Y-10456000D02*
G75*
G03*
X16669530Y-10456000I-49530J0D01*
G01*
X18098280Y-11599000D02*
G75*
G03*
X18098280Y-11599000I-49530J0D01*
G01*
X18098280Y-12361000D02*
G75*
G03*
X18098280Y-12361000I-49530J0D01*
G01*
X18574530Y-9694000D02*
G75*
G03*
X18574530Y-9694000I-49530J0D01*
G01*
X18574530Y-10456000D02*
G75*
G03*
X18574530Y-10456000I-49530J0D01*
G01*
X19028530Y-9322500D02*
G75*
G03*
X19028530Y-9322500I-49530J0D01*
G01*
X19790530Y-9322500D02*
G75*
G03*
X19790530Y-9322500I-49530J0D01*
G01*
X11490000Y-7570000D02*
X11490000Y-7670000D01*
X11440000Y-7620000D02*
X11540000Y-7620000D01*
X11490000Y-9020000D02*
X11490000Y-9120000D01*
X11440000Y-9070000D02*
X11540000Y-9070000D01*
X11740000Y-7570000D02*
X11740000Y-7670000D01*
X11690000Y-7620000D02*
X11790000Y-7620000D01*
X11990000Y-7570000D02*
X11990000Y-7670000D01*
X11940000Y-7620000D02*
X12040000Y-7620000D01*
X11990000Y-9020000D02*
X11990000Y-9120000D01*
X11940000Y-9070000D02*
X12040000Y-9070000D01*
X19110000Y-7570000D02*
X19110000Y-7670000D01*
X19060000Y-7620000D02*
X19160000Y-7620000D01*
X19110000Y-9020000D02*
X19110000Y-9120000D01*
X19060000Y-9070000D02*
X19160000Y-9070000D01*
X19360000Y-7570000D02*
X19360000Y-7670000D01*
X19310000Y-7620000D02*
X19410000Y-7620000D01*
X19610000Y-7570000D02*
X19610000Y-7670000D01*
X19560000Y-7620000D02*
X19660000Y-7620000D01*
X19610000Y-9020000D02*
X19610000Y-9120000D01*
X19560000Y-9070000D02*
X19660000Y-9070000D01*
X14822865Y-7724115D02*
X14822865Y-7646884D01*
X14745634Y-7646884D01*
X14745634Y-7724115D01*
X14822865Y-7724115D01*
X14822865Y-8486116D02*
X14822865Y-8408885D01*
X14745634Y-8408885D01*
X14745634Y-8486116D01*
X14822865Y-8486116D01*
X14822865Y-8740116D02*
X14822865Y-8662885D01*
X14745634Y-8662885D01*
X14745634Y-8740116D01*
X14822865Y-8740116D01*
X14822865Y-8994116D02*
X14822865Y-8916885D01*
X14745634Y-8916885D01*
X14745634Y-8994116D01*
X14822865Y-8994116D01*
X14822865Y-9248116D02*
X14822865Y-9170885D01*
X14745634Y-9170885D01*
X14745634Y-9248116D01*
X14822865Y-9248116D01*
X14822865Y-9502116D02*
X14822865Y-9424885D01*
X14745634Y-9424885D01*
X14745634Y-9502116D01*
X14822865Y-9502116D01*
X14822865Y-9756116D02*
X14822865Y-9678885D01*
X14745634Y-9678885D01*
X14745634Y-9756116D01*
X14822865Y-9756116D01*
X14822865Y-10010116D02*
X14822865Y-9932885D01*
X14745634Y-9932885D01*
X14745634Y-10010116D01*
X14822865Y-10010116D01*
X14822865Y-10264116D02*
X14822865Y-10186885D01*
X14745634Y-10186885D01*
X14745634Y-10264116D01*
X14822865Y-10264116D01*
X14822865Y-10518116D02*
X14822865Y-10440885D01*
X14745634Y-10440885D01*
X14745634Y-10518116D01*
X14822865Y-10518116D01*
X16346865Y-8232115D02*
X16346865Y-8154884D01*
X16269634Y-8154884D01*
X16269634Y-8232115D01*
X16346865Y-8232115D01*
X16346865Y-8486116D02*
X16346865Y-8408885D01*
X16269634Y-8408885D01*
X16269634Y-8486116D01*
X16346865Y-8486116D01*
X16346865Y-8740116D02*
X16346865Y-8662885D01*
X16269634Y-8662885D01*
X16269634Y-8740116D01*
X16346865Y-8740116D01*
X16346865Y-8994116D02*
X16346865Y-8916885D01*
X16269634Y-8916885D01*
X16269634Y-8994116D01*
X16346865Y-8994116D01*
X16346865Y-9248116D02*
X16346865Y-9170885D01*
X16269634Y-9170885D01*
X16269634Y-9248116D01*
X16346865Y-9248116D01*
X16346865Y-9502116D02*
X16346865Y-9424885D01*
X16269634Y-9424885D01*
X16269634Y-9502116D01*
X16346865Y-9502116D01*
X16346865Y-9756116D02*
X16346865Y-9678885D01*
X16269634Y-9678885D01*
X16269634Y-9756116D01*
X16346865Y-9756116D01*
X16346865Y-10010116D02*
X16346865Y-9932885D01*
X16269634Y-9932885D01*
X16269634Y-10010116D01*
X16346865Y-10010116D01*
X16346865Y-10264116D02*
X16346865Y-10186885D01*
X16269634Y-10186885D01*
X16269634Y-10264116D01*
X16346865Y-10264116D01*
X12692500Y-9482500D02*
X12852500Y-9322500D01*
X12692500Y-9162500D01*
X12532500Y-9322500D01*
X12692500Y-9482500D01*
X15550000Y-12340000D02*
X15710000Y-12180000D01*
X15550000Y-12020000D01*
X15390000Y-12180000D01*
X15550000Y-12340000D01*
X18407500Y-9482500D02*
X18567500Y-9322500D01*
X18407500Y-9162500D01*
X18247500Y-9322500D01*
X18407500Y-9482500D01*
X11105000Y-8295000D02*
X11255000Y-8445000D01*
X11255000Y-8295000D02*
X11105000Y-8445000D01*
X11255000Y-8370000D02*
G75*
G03*
X11255000Y-8370000I-75000J0D01*
G01*
X11115000Y-8305000D02*
X11115000Y-8435000D01*
X11245000Y-8305000D02*
X11245000Y-8435000D01*
X11115000Y-8435000D02*
G75*
G03*
X11245000Y-8435000I65000J0D01*
G01*
X11245000Y-8305000D02*
G75*
G03*
X11115000Y-8305000I-65000J0D01*
G01*
X12225000Y-8295000D02*
X12375000Y-8445000D01*
X12375000Y-8295000D02*
X12225000Y-8445000D01*
X12375000Y-8370000D02*
G75*
G03*
X12375000Y-8370000I-75000J0D01*
G01*
X12235000Y-8305000D02*
X12235000Y-8435000D01*
X12365000Y-8305000D02*
X12365000Y-8435000D01*
X12235000Y-8435000D02*
G75*
G03*
X12365000Y-8435000I65000J0D01*
G01*
X12365000Y-8305000D02*
G75*
G03*
X12235000Y-8305000I-65000J0D01*
G01*
X18725000Y-8295000D02*
X18875000Y-8445000D01*
X18875000Y-8295000D02*
X18725000Y-8445000D01*
X18875000Y-8370000D02*
G75*
G03*
X18875000Y-8370000I-75000J0D01*
G01*
X18735000Y-8305000D02*
X18735000Y-8435000D01*
X18865000Y-8305000D02*
X18865000Y-8435000D01*
X18735000Y-8435000D02*
G75*
G03*
X18865000Y-8435000I65000J0D01*
G01*
X18865000Y-8305000D02*
G75*
G03*
X18735000Y-8305000I-65000J0D01*
G01*
X19845000Y-8295000D02*
X19995000Y-8445000D01*
X19995000Y-8295000D02*
X19845000Y-8445000D01*
X19995000Y-8370000D02*
G75*
G03*
X19995000Y-8370000I-75000J0D01*
G01*
X19855000Y-8305000D02*
X19855000Y-8435000D01*
X19985000Y-8305000D02*
X19985000Y-8435000D01*
X19855000Y-8435000D02*
G75*
G03*
X19985000Y-8435000I65000J0D01*
G01*
X19985000Y-8305000D02*
G75*
G03*
X19855000Y-8305000I-65000J0D01*
G01*
X11147000Y-8285000D02*
X11317000Y-8455000D01*
X11317000Y-8285000D02*
X11147000Y-8455000D01*
X11232000Y-8285000D02*
X11232000Y-8455000D01*
X11147000Y-8370000D02*
X11317000Y-8370000D01*
X11147000Y-10190000D02*
X11317000Y-10360000D01*
X11317000Y-10190000D02*
X11147000Y-10360000D01*
X11232000Y-10190000D02*
X11232000Y-10360000D01*
X11147000Y-10275000D02*
X11317000Y-10275000D01*
X11623250Y-12095000D02*
X11793250Y-12265000D01*
X11793250Y-12095000D02*
X11623250Y-12265000D01*
X11708250Y-12095000D02*
X11708250Y-12265000D01*
X11623250Y-12180000D02*
X11793250Y-12180000D01*
X12163000Y-8285000D02*
X12333000Y-8455000D01*
X12333000Y-8285000D02*
X12163000Y-8455000D01*
X12248000Y-8285000D02*
X12248000Y-8455000D01*
X12163000Y-8370000D02*
X12333000Y-8370000D01*
X12163000Y-10190000D02*
X12333000Y-10360000D01*
X12333000Y-10190000D02*
X12163000Y-10360000D01*
X12248000Y-10190000D02*
X12248000Y-10360000D01*
X12163000Y-10275000D02*
X12333000Y-10275000D01*
X12639250Y-12095000D02*
X12809250Y-12265000D01*
X12809250Y-12095000D02*
X12639250Y-12265000D01*
X12724250Y-12095000D02*
X12724250Y-12265000D01*
X12639250Y-12180000D02*
X12809250Y-12180000D01*
X13052000Y-8285000D02*
X13222000Y-8455000D01*
X13222000Y-8285000D02*
X13052000Y-8455000D01*
X13137000Y-8285000D02*
X13137000Y-8455000D01*
X13052000Y-8370000D02*
X13222000Y-8370000D01*
X13052000Y-10190000D02*
X13222000Y-10360000D01*
X13222000Y-10190000D02*
X13052000Y-10360000D01*
X13137000Y-10190000D02*
X13137000Y-10360000D01*
X13052000Y-10275000D02*
X13222000Y-10275000D01*
X13766375Y-12095000D02*
X13936375Y-12265000D01*
X13936375Y-12095000D02*
X13766375Y-12265000D01*
X13851375Y-12095000D02*
X13851375Y-12265000D01*
X13766375Y-12180000D02*
X13936375Y-12180000D01*
X14068000Y-8285000D02*
X14238000Y-8455000D01*
X14238000Y-8285000D02*
X14068000Y-8455000D01*
X14153000Y-8285000D02*
X14153000Y-8455000D01*
X14068000Y-8370000D02*
X14238000Y-8370000D01*
X14068000Y-10190000D02*
X14238000Y-10360000D01*
X14238000Y-10190000D02*
X14068000Y-10360000D01*
X14153000Y-10190000D02*
X14153000Y-10360000D01*
X14068000Y-10275000D02*
X14238000Y-10275000D01*
X14782375Y-12095000D02*
X14952375Y-12265000D01*
X14952375Y-12095000D02*
X14782375Y-12265000D01*
X14867375Y-12095000D02*
X14867375Y-12265000D01*
X14782375Y-12180000D02*
X14952375Y-12180000D01*
X14957000Y-8285000D02*
X15127000Y-8455000D01*
X15127000Y-8285000D02*
X14957000Y-8455000D01*
X15042000Y-8285000D02*
X15042000Y-8455000D01*
X14957000Y-8370000D02*
X15127000Y-8370000D01*
X14957000Y-10190000D02*
X15127000Y-10360000D01*
X15127000Y-10190000D02*
X14957000Y-10360000D01*
X15042000Y-10190000D02*
X15042000Y-10360000D01*
X14957000Y-10275000D02*
X15127000Y-10275000D01*
X15973000Y-8285000D02*
X16143000Y-8455000D01*
X16143000Y-8285000D02*
X15973000Y-8455000D01*
X16058000Y-8285000D02*
X16058000Y-8455000D01*
X15973000Y-8370000D02*
X16143000Y-8370000D01*
X15973000Y-10190000D02*
X16143000Y-10360000D01*
X16143000Y-10190000D02*
X15973000Y-10360000D01*
X16058000Y-10190000D02*
X16058000Y-10360000D01*
X15973000Y-10275000D02*
X16143000Y-10275000D01*
X16147625Y-12095000D02*
X16317625Y-12265000D01*
X16317625Y-12095000D02*
X16147625Y-12265000D01*
X16232625Y-12095000D02*
X16232625Y-12265000D01*
X16147625Y-12180000D02*
X16317625Y-12180000D01*
X16862000Y-8285000D02*
X17032000Y-8455000D01*
X17032000Y-8285000D02*
X16862000Y-8455000D01*
X16947000Y-8285000D02*
X16947000Y-8455000D01*
X16862000Y-8370000D02*
X17032000Y-8370000D01*
X16862000Y-10190000D02*
X17032000Y-10360000D01*
X17032000Y-10190000D02*
X16862000Y-10360000D01*
X16947000Y-10190000D02*
X16947000Y-10360000D01*
X16862000Y-10275000D02*
X17032000Y-10275000D01*
X17163625Y-12095000D02*
X17333625Y-12265000D01*
X17333625Y-12095000D02*
X17163625Y-12265000D01*
X17248625Y-12095000D02*
X17248625Y-12265000D01*
X17163625Y-12180000D02*
X17333625Y-12180000D01*
X17878000Y-8285000D02*
X18048000Y-8455000D01*
X18048000Y-8285000D02*
X17878000Y-8455000D01*
X17963000Y-8285000D02*
X17963000Y-8455000D01*
X17878000Y-8370000D02*
X18048000Y-8370000D01*
X17878000Y-10190000D02*
X18048000Y-10360000D01*
X18048000Y-10190000D02*
X17878000Y-10360000D01*
X17963000Y-10190000D02*
X17963000Y-10360000D01*
X17878000Y-10275000D02*
X18048000Y-10275000D01*
X18290750Y-12095000D02*
X18460750Y-12265000D01*
X18460750Y-12095000D02*
X18290750Y-12265000D01*
X18375750Y-12095000D02*
X18375750Y-12265000D01*
X18290750Y-12180000D02*
X18460750Y-12180000D01*
X18767000Y-8285000D02*
X18937000Y-8455000D01*
X18937000Y-8285000D02*
X18767000Y-8455000D01*
X18852000Y-8285000D02*
X18852000Y-8455000D01*
X18767000Y-8370000D02*
X18937000Y-8370000D01*
X18767000Y-10190000D02*
X18937000Y-10360000D01*
X18937000Y-10190000D02*
X18767000Y-10360000D01*
X18852000Y-10190000D02*
X18852000Y-10360000D01*
X18767000Y-10275000D02*
X18937000Y-10275000D01*
X19306750Y-12095000D02*
X19476750Y-12265000D01*
X19476750Y-12095000D02*
X19306750Y-12265000D01*
X19391750Y-12095000D02*
X19391750Y-12265000D01*
X19306750Y-12180000D02*
X19476750Y-12180000D01*
X19783000Y-8285000D02*
X19953000Y-8455000D01*
X19953000Y-8285000D02*
X19783000Y-8455000D01*
X19868000Y-8285000D02*
X19868000Y-8455000D01*
X19783000Y-8370000D02*
X19953000Y-8370000D01*
X19783000Y-10190000D02*
X19953000Y-10360000D01*
X19953000Y-10190000D02*
X19783000Y-10360000D01*
X19868000Y-10190000D02*
X19868000Y-10360000D01*
X19783000Y-10275000D02*
X19953000Y-10275000D01*
X11338500Y-8730500D02*
X11633500Y-9025500D01*
X11633500Y-8730500D02*
X11338500Y-9025500D01*
X11590299Y-8982299D02*
X11590299Y-8773701D01*
X11381701Y-8773701D01*
X11381701Y-8982299D01*
X11590299Y-8982299D01*
X11338500Y-10635500D02*
X11633500Y-10930500D01*
X11633500Y-10635500D02*
X11338500Y-10930500D01*
X11590299Y-10887299D02*
X11590299Y-10678701D01*
X11381701Y-10678701D01*
X11381701Y-10887299D01*
X11590299Y-10887299D01*
X11814750Y-12540500D02*
X12109750Y-12835500D01*
X12109750Y-12540500D02*
X11814750Y-12835500D01*
X12066549Y-12792299D02*
X12066549Y-12583701D01*
X11857951Y-12583701D01*
X11857951Y-12792299D01*
X12066549Y-12792299D01*
X11973500Y-8476500D02*
X12268500Y-8771500D01*
X12268500Y-8476500D02*
X11973500Y-8771500D01*
X12225299Y-8728299D02*
X12225299Y-8519701D01*
X12016701Y-8519701D01*
X12016701Y-8728299D01*
X12225299Y-8728299D01*
X11973500Y-10381500D02*
X12268500Y-10676500D01*
X12268500Y-10381500D02*
X11973500Y-10676500D01*
X12225299Y-10633299D02*
X12225299Y-10424701D01*
X12016701Y-10424701D01*
X12016701Y-10633299D01*
X12225299Y-10633299D01*
X12449750Y-12286500D02*
X12744750Y-12581500D01*
X12744750Y-12286500D02*
X12449750Y-12581500D01*
X12701549Y-12538299D02*
X12701549Y-12329701D01*
X12492951Y-12329701D01*
X12492951Y-12538299D01*
X12701549Y-12538299D01*
X13243500Y-8730500D02*
X13538500Y-9025500D01*
X13538500Y-8730500D02*
X13243500Y-9025500D01*
X13495299Y-8982299D02*
X13495299Y-8773701D01*
X13286701Y-8773701D01*
X13286701Y-8982299D01*
X13495299Y-8982299D01*
X13243500Y-10635500D02*
X13538500Y-10930500D01*
X13538500Y-10635500D02*
X13243500Y-10930500D01*
X13495299Y-10887299D02*
X13495299Y-10678701D01*
X13286701Y-10678701D01*
X13286701Y-10887299D01*
X13495299Y-10887299D01*
X13878500Y-8476500D02*
X14173500Y-8771500D01*
X14173500Y-8476500D02*
X13878500Y-8771500D01*
X14130299Y-8728299D02*
X14130299Y-8519701D01*
X13921701Y-8519701D01*
X13921701Y-8728299D01*
X14130299Y-8728299D01*
X13878500Y-10381500D02*
X14173500Y-10676500D01*
X14173500Y-10381500D02*
X13878500Y-10676500D01*
X14130299Y-10633299D02*
X14130299Y-10424701D01*
X13921701Y-10424701D01*
X13921701Y-10633299D01*
X14130299Y-10633299D01*
X13957875Y-12540500D02*
X14252875Y-12835500D01*
X14252875Y-12540500D02*
X13957875Y-12835500D01*
X14209674Y-12792299D02*
X14209674Y-12583701D01*
X14001076Y-12583701D01*
X14001076Y-12792299D01*
X14209674Y-12792299D01*
X14592875Y-12286500D02*
X14887875Y-12581500D01*
X14887875Y-12286500D02*
X14592875Y-12581500D01*
X14844674Y-12538299D02*
X14844674Y-12329701D01*
X14636076Y-12329701D01*
X14636076Y-12538299D01*
X14844674Y-12538299D01*
X15021500Y-7968500D02*
X15316500Y-8263500D01*
X15316500Y-7968500D02*
X15021500Y-8263500D01*
X15273299Y-8220299D02*
X15273299Y-8011701D01*
X15064701Y-8011701D01*
X15064701Y-8220299D01*
X15273299Y-8220299D01*
X15148500Y-10635500D02*
X15443500Y-10930500D01*
X15443500Y-10635500D02*
X15148500Y-10930500D01*
X15400299Y-10887299D02*
X15400299Y-10678701D01*
X15191701Y-10678701D01*
X15191701Y-10887299D01*
X15400299Y-10887299D01*
X15656500Y-7714500D02*
X15951500Y-8009500D01*
X15951500Y-7714500D02*
X15656500Y-8009500D01*
X15908299Y-7966299D02*
X15908299Y-7757701D01*
X15699701Y-7757701D01*
X15699701Y-7966299D01*
X15908299Y-7966299D01*
X15783500Y-10381500D02*
X16078500Y-10676500D01*
X16078500Y-10381500D02*
X15783500Y-10676500D01*
X16035299Y-10633299D02*
X16035299Y-10424701D01*
X15826701Y-10424701D01*
X15826701Y-10633299D01*
X16035299Y-10633299D01*
X16339125Y-12540500D02*
X16634125Y-12835500D01*
X16634125Y-12540500D02*
X16339125Y-12835500D01*
X16590924Y-12792299D02*
X16590924Y-12583701D01*
X16382326Y-12583701D01*
X16382326Y-12792299D01*
X16590924Y-12792299D01*
X16974125Y-12286500D02*
X17269125Y-12581500D01*
X17269125Y-12286500D02*
X16974125Y-12581500D01*
X17225924Y-12538299D02*
X17225924Y-12329701D01*
X17017326Y-12329701D01*
X17017326Y-12538299D01*
X17225924Y-12538299D01*
X17053500Y-8730500D02*
X17348500Y-9025500D01*
X17348500Y-8730500D02*
X17053500Y-9025500D01*
X17305299Y-8982299D02*
X17305299Y-8773701D01*
X17096701Y-8773701D01*
X17096701Y-8982299D01*
X17305299Y-8982299D01*
X17053500Y-10635500D02*
X17348500Y-10930500D01*
X17348500Y-10635500D02*
X17053500Y-10930500D01*
X17305299Y-10887299D02*
X17305299Y-10678701D01*
X17096701Y-10678701D01*
X17096701Y-10887299D01*
X17305299Y-10887299D01*
X17688500Y-8476500D02*
X17983500Y-8771500D01*
X17983500Y-8476500D02*
X17688500Y-8771500D01*
X17940299Y-8728299D02*
X17940299Y-8519701D01*
X17731701Y-8519701D01*
X17731701Y-8728299D01*
X17940299Y-8728299D01*
X17688500Y-10381500D02*
X17983500Y-10676500D01*
X17983500Y-10381500D02*
X17688500Y-10676500D01*
X17940299Y-10633299D02*
X17940299Y-10424701D01*
X17731701Y-10424701D01*
X17731701Y-10633299D01*
X17940299Y-10633299D01*
X18482250Y-12540500D02*
X18777250Y-12835500D01*
X18777250Y-12540500D02*
X18482250Y-12835500D01*
X18734049Y-12792299D02*
X18734049Y-12583701D01*
X18525451Y-12583701D01*
X18525451Y-12792299D01*
X18734049Y-12792299D01*
X18958500Y-8730500D02*
X19253500Y-9025500D01*
X19253500Y-8730500D02*
X18958500Y-9025500D01*
X19210299Y-8982299D02*
X19210299Y-8773701D01*
X19001701Y-8773701D01*
X19001701Y-8982299D01*
X19210299Y-8982299D01*
X18958500Y-10635500D02*
X19253500Y-10930500D01*
X19253500Y-10635500D02*
X18958500Y-10930500D01*
X19210299Y-10887299D02*
X19210299Y-10678701D01*
X19001701Y-10678701D01*
X19001701Y-10887299D01*
X19210299Y-10887299D01*
X19117250Y-12286500D02*
X19412250Y-12581500D01*
X19412250Y-12286500D02*
X19117250Y-12581500D01*
X19369049Y-12538299D02*
X19369049Y-12329701D01*
X19160451Y-12329701D01*
X19160451Y-12538299D01*
X19369049Y-12538299D01*
X19593500Y-8476500D02*
X19888500Y-8771500D01*
X19888500Y-8476500D02*
X19593500Y-8771500D01*
X19845299Y-8728299D02*
X19845299Y-8519701D01*
X19636701Y-8519701D01*
X19636701Y-8728299D01*
X19845299Y-8728299D01*
X19593500Y-10381500D02*
X19888500Y-10676500D01*
X19888500Y-10381500D02*
X19593500Y-10676500D01*
X19845299Y-10633299D02*
X19845299Y-10424701D01*
X19636701Y-10424701D01*
X19636701Y-10633299D01*
X19845299Y-10633299D01*
X11540991Y-8170991D02*
X11939009Y-8569009D01*
X11939009Y-8170991D02*
X11540991Y-8569009D01*
X11740000Y-8569009D02*
X11939009Y-8370000D01*
X11740000Y-8170991D01*
X11540991Y-8370000D01*
X11740000Y-8569009D01*
X11540991Y-10075991D02*
X11939009Y-10474009D01*
X11939009Y-10075991D02*
X11540991Y-10474009D01*
X11740000Y-10474009D02*
X11939009Y-10275000D01*
X11740000Y-10075991D01*
X11540991Y-10275000D01*
X11740000Y-10474009D01*
X12017241Y-11980991D02*
X12415259Y-12379009D01*
X12415259Y-11980991D02*
X12017241Y-12379009D01*
X12216250Y-12379009D02*
X12415259Y-12180000D01*
X12216250Y-11980991D01*
X12017241Y-12180000D01*
X12216250Y-12379009D01*
X13445991Y-8170991D02*
X13844009Y-8569009D01*
X13844009Y-8170991D02*
X13445991Y-8569009D01*
X13645000Y-8569009D02*
X13844009Y-8370000D01*
X13645000Y-8170991D01*
X13445991Y-8370000D01*
X13645000Y-8569009D01*
X13445991Y-10075991D02*
X13844009Y-10474009D01*
X13844009Y-10075991D02*
X13445991Y-10474009D01*
X13645000Y-10474009D02*
X13844009Y-10275000D01*
X13645000Y-10075991D01*
X13445991Y-10275000D01*
X13645000Y-10474009D01*
X14160366Y-11980991D02*
X14558384Y-12379009D01*
X14558384Y-11980991D02*
X14160366Y-12379009D01*
X14359375Y-12379009D02*
X14558384Y-12180000D01*
X14359375Y-11980991D01*
X14160366Y-12180000D01*
X14359375Y-12379009D01*
X15350991Y-8170991D02*
X15749009Y-8569009D01*
X15749009Y-8170991D02*
X15350991Y-8569009D01*
X15550000Y-8569009D02*
X15749009Y-8370000D01*
X15550000Y-8170991D01*
X15350991Y-8370000D01*
X15550000Y-8569009D01*
X15350991Y-10075991D02*
X15749009Y-10474009D01*
X15749009Y-10075991D02*
X15350991Y-10474009D01*
X15550000Y-10474009D02*
X15749009Y-10275000D01*
X15550000Y-10075991D01*
X15350991Y-10275000D01*
X15550000Y-10474009D01*
X16541616Y-11980991D02*
X16939634Y-12379009D01*
X16939634Y-11980991D02*
X16541616Y-12379009D01*
X16740625Y-12379009D02*
X16939634Y-12180000D01*
X16740625Y-11980991D01*
X16541616Y-12180000D01*
X16740625Y-12379009D01*
X17255991Y-8170991D02*
X17654009Y-8569009D01*
X17654009Y-8170991D02*
X17255991Y-8569009D01*
X17455000Y-8569009D02*
X17654009Y-8370000D01*
X17455000Y-8170991D01*
X17255991Y-8370000D01*
X17455000Y-8569009D01*
X17255991Y-10075991D02*
X17654009Y-10474009D01*
X17654009Y-10075991D02*
X17255991Y-10474009D01*
X17455000Y-10474009D02*
X17654009Y-10275000D01*
X17455000Y-10075991D01*
X17255991Y-10275000D01*
X17455000Y-10474009D01*
X18684741Y-11980991D02*
X19082759Y-12379009D01*
X19082759Y-11980991D02*
X18684741Y-12379009D01*
X18883750Y-12379009D02*
X19082759Y-12180000D01*
X18883750Y-11980991D01*
X18684741Y-12180000D01*
X18883750Y-12379009D01*
X19160991Y-8170991D02*
X19559009Y-8569009D01*
X19559009Y-8170991D02*
X19160991Y-8569009D01*
X19360000Y-8569009D02*
X19559009Y-8370000D01*
X19360000Y-8170991D01*
X19160991Y-8370000D01*
X19360000Y-8569009D01*
X19160991Y-10075991D02*
X19559009Y-10474009D01*
X19559009Y-10075991D02*
X19160991Y-10474009D01*
X19360000Y-10474009D02*
X19559009Y-10275000D01*
X19360000Y-10075991D01*
X19160991Y-10275000D01*
X19360000Y-10474009D01*
D12*
X10925828Y-13743214D02*
X10925828Y-13443214D01*
X10997257Y-13443214D01*
X11040114Y-13457500D01*
X11068686Y-13486072D01*
X11082971Y-13514643D01*
X11097257Y-13571786D01*
X11097257Y-13614643D01*
X11082971Y-13671786D01*
X11068686Y-13700357D01*
X11040114Y-13728929D01*
X10997257Y-13743214D01*
X10925828Y-13743214D01*
X11225828Y-13743214D02*
X11225828Y-13543214D01*
X11225828Y-13600357D02*
X11240114Y-13571786D01*
X11254400Y-13557500D01*
X11282971Y-13543214D01*
X11311543Y-13543214D01*
X11411543Y-13743214D02*
X11411543Y-13543214D01*
X11411543Y-13443214D02*
X11397257Y-13457500D01*
X11411543Y-13471786D01*
X11425828Y-13457500D01*
X11411543Y-13443214D01*
X11411543Y-13471786D01*
X11597257Y-13743214D02*
X11568686Y-13728929D01*
X11554400Y-13700357D01*
X11554400Y-13443214D01*
X11754400Y-13743214D02*
X11725828Y-13728929D01*
X11711543Y-13700357D01*
X11711543Y-13443214D01*
X12097257Y-13743214D02*
X12097257Y-13443214D01*
X12197257Y-13657500D01*
X12297257Y-13443214D01*
X12297257Y-13743214D01*
X12568686Y-13743214D02*
X12568686Y-13586072D01*
X12554400Y-13557500D01*
X12525828Y-13543214D01*
X12468686Y-13543214D01*
X12440114Y-13557500D01*
X12568686Y-13728929D02*
X12540114Y-13743214D01*
X12468686Y-13743214D01*
X12440114Y-13728929D01*
X12425828Y-13700357D01*
X12425828Y-13671786D01*
X12440114Y-13643214D01*
X12468686Y-13628929D01*
X12540114Y-13628929D01*
X12568686Y-13614643D01*
X12711543Y-13543214D02*
X12711543Y-13843214D01*
X12711543Y-13557500D02*
X12740114Y-13543214D01*
X12797257Y-13543214D01*
X12825828Y-13557500D01*
X12840114Y-13571786D01*
X12854400Y-13600357D01*
X12854400Y-13686072D01*
X12840114Y-13714643D01*
X12825828Y-13728929D01*
X12797257Y-13743214D01*
X12740114Y-13743214D01*
X12711543Y-13728929D01*
X12982971Y-13714643D02*
X12997257Y-13728929D01*
X12982971Y-13743214D01*
X12968686Y-13728929D01*
X12982971Y-13714643D01*
X12982971Y-13743214D01*
X12982971Y-13557500D02*
X12997257Y-13571786D01*
X12982971Y-13586072D01*
X12968686Y-13571786D01*
X12982971Y-13557500D01*
X12982971Y-13586072D01*
X10599400Y-14217500D02*
X10639400Y-14257500D01*
X10639400Y-14217500D02*
X10599400Y-14257500D01*
X10982971Y-14073214D02*
X11011543Y-14073214D01*
X11040114Y-14087500D01*
X11054400Y-14101786D01*
X11068686Y-14130357D01*
X11082971Y-14187500D01*
X11082971Y-14258929D01*
X11068686Y-14316072D01*
X11054400Y-14344643D01*
X11040114Y-14358929D01*
X11011543Y-14373214D01*
X10982971Y-14373214D01*
X10954400Y-14358929D01*
X10940114Y-14344643D01*
X10925828Y-14316072D01*
X10911543Y-14258929D01*
X10911543Y-14187500D01*
X10925828Y-14130357D01*
X10940114Y-14101786D01*
X10954400Y-14087500D01*
X10982971Y-14073214D01*
X11211543Y-14344643D02*
X11225828Y-14358929D01*
X11211543Y-14373214D01*
X11197257Y-14358929D01*
X11211543Y-14344643D01*
X11211543Y-14373214D01*
X11482971Y-14173214D02*
X11482971Y-14373214D01*
X11411543Y-14058929D02*
X11340114Y-14273214D01*
X11525828Y-14273214D01*
X11697257Y-14073214D02*
X11725828Y-14073214D01*
X11754400Y-14087500D01*
X11768686Y-14101786D01*
X11782971Y-14130357D01*
X11797257Y-14187500D01*
X11797257Y-14258929D01*
X11782971Y-14316072D01*
X11768686Y-14344643D01*
X11754400Y-14358929D01*
X11725828Y-14373214D01*
X11697257Y-14373214D01*
X11668686Y-14358929D01*
X11654400Y-14344643D01*
X11640114Y-14316072D01*
X11625828Y-14258929D01*
X11625828Y-14187500D01*
X11640114Y-14130357D01*
X11654400Y-14101786D01*
X11668686Y-14087500D01*
X11697257Y-14073214D01*
X11982971Y-14073214D02*
X12011543Y-14073214D01*
X12040114Y-14087500D01*
X12054400Y-14101786D01*
X12068686Y-14130357D01*
X12082971Y-14187500D01*
X12082971Y-14258929D01*
X12068686Y-14316072D01*
X12054400Y-14344643D01*
X12040114Y-14358929D01*
X12011543Y-14373214D01*
X11982971Y-14373214D01*
X11954400Y-14358929D01*
X11940114Y-14344643D01*
X11925828Y-14316072D01*
X11911543Y-14258929D01*
X11911543Y-14187500D01*
X11925828Y-14130357D01*
X11940114Y-14101786D01*
X11954400Y-14087500D01*
X11982971Y-14073214D01*
X12211543Y-14373214D02*
X12211543Y-14173214D01*
X12211543Y-14201786D02*
X12225828Y-14187500D01*
X12254400Y-14173214D01*
X12297257Y-14173214D01*
X12325828Y-14187500D01*
X12340114Y-14216072D01*
X12340114Y-14373214D01*
X12340114Y-14216072D02*
X12354400Y-14187500D01*
X12382971Y-14173214D01*
X12425828Y-14173214D01*
X12454400Y-14187500D01*
X12468686Y-14216072D01*
X12468686Y-14373214D01*
X12611543Y-14373214D02*
X12611543Y-14173214D01*
X12611543Y-14201786D02*
X12625828Y-14187500D01*
X12654400Y-14173214D01*
X12697257Y-14173214D01*
X12725828Y-14187500D01*
X12740114Y-14216072D01*
X12740114Y-14373214D01*
X12740114Y-14216072D02*
X12754400Y-14187500D01*
X12782971Y-14173214D01*
X12825828Y-14173214D01*
X12854400Y-14187500D01*
X12868686Y-14216072D01*
X12868686Y-14373214D01*
X13454400Y-14058929D02*
X13197257Y-14444643D01*
X13840114Y-14073214D02*
X13868686Y-14073214D01*
X13897257Y-14087500D01*
X13911543Y-14101786D01*
X13925828Y-14130357D01*
X13940114Y-14187500D01*
X13940114Y-14258929D01*
X13925828Y-14316072D01*
X13911543Y-14344643D01*
X13897257Y-14358929D01*
X13868686Y-14373214D01*
X13840114Y-14373214D01*
X13811543Y-14358929D01*
X13797257Y-14344643D01*
X13782971Y-14316072D01*
X13768686Y-14258929D01*
X13768686Y-14187500D01*
X13782971Y-14130357D01*
X13797257Y-14101786D01*
X13811543Y-14087500D01*
X13840114Y-14073214D01*
X14068686Y-14344643D02*
X14082971Y-14358929D01*
X14068686Y-14373214D01*
X14054400Y-14358929D01*
X14068686Y-14344643D01*
X14068686Y-14373214D01*
X14268686Y-14073214D02*
X14297257Y-14073214D01*
X14325828Y-14087500D01*
X14340114Y-14101786D01*
X14354400Y-14130357D01*
X14368686Y-14187500D01*
X14368686Y-14258929D01*
X14354400Y-14316072D01*
X14340114Y-14344643D01*
X14325828Y-14358929D01*
X14297257Y-14373214D01*
X14268686Y-14373214D01*
X14240114Y-14358929D01*
X14225828Y-14344643D01*
X14211543Y-14316072D01*
X14197257Y-14258929D01*
X14197257Y-14187500D01*
X14211543Y-14130357D01*
X14225828Y-14101786D01*
X14240114Y-14087500D01*
X14268686Y-14073214D01*
X14654400Y-14373214D02*
X14482971Y-14373214D01*
X14568686Y-14373214D02*
X14568686Y-14073214D01*
X14540114Y-14116072D01*
X14511543Y-14144643D01*
X14482971Y-14158929D01*
X14925828Y-14073214D02*
X14782971Y-14073214D01*
X14768686Y-14216072D01*
X14782971Y-14201786D01*
X14811543Y-14187500D01*
X14882971Y-14187500D01*
X14911543Y-14201786D01*
X14925828Y-14216072D01*
X14940114Y-14244643D01*
X14940114Y-14316072D01*
X14925828Y-14344643D01*
X14911543Y-14358929D01*
X14882971Y-14373214D01*
X14811543Y-14373214D01*
X14782971Y-14358929D01*
X14768686Y-14344643D01*
X15040114Y-14073214D02*
X15240114Y-14073214D01*
X15111543Y-14373214D01*
X15340114Y-14073214D02*
X15340114Y-14130357D01*
X15454400Y-14073214D02*
X15454400Y-14130357D01*
X15897257Y-14487500D02*
X15882971Y-14473214D01*
X15854400Y-14430357D01*
X15840114Y-14401786D01*
X15825828Y-14358929D01*
X15811543Y-14287500D01*
X15811543Y-14230357D01*
X15825828Y-14158929D01*
X15840114Y-14116072D01*
X15854400Y-14087500D01*
X15882971Y-14044643D01*
X15897257Y-14030357D01*
X15982971Y-14073214D02*
X16168686Y-14073214D01*
X16068686Y-14187500D01*
X16111543Y-14187500D01*
X16140114Y-14201786D01*
X16154400Y-14216072D01*
X16168686Y-14244643D01*
X16168686Y-14316072D01*
X16154400Y-14344643D01*
X16140114Y-14358929D01*
X16111543Y-14373214D01*
X16025828Y-14373214D01*
X15997257Y-14358929D01*
X15982971Y-14344643D01*
X16525828Y-14373214D02*
X16525828Y-14073214D01*
X16654400Y-14373214D02*
X16654400Y-14216072D01*
X16640114Y-14187500D01*
X16611543Y-14173214D01*
X16568686Y-14173214D01*
X16540114Y-14187500D01*
X16525828Y-14201786D01*
X16840114Y-14373214D02*
X16811543Y-14358929D01*
X16797257Y-14344643D01*
X16782971Y-14316072D01*
X16782971Y-14230357D01*
X16797257Y-14201786D01*
X16811543Y-14187500D01*
X16840114Y-14173214D01*
X16882971Y-14173214D01*
X16911543Y-14187500D01*
X16925828Y-14201786D01*
X16940114Y-14230357D01*
X16940114Y-14316072D01*
X16925828Y-14344643D01*
X16911543Y-14358929D01*
X16882971Y-14373214D01*
X16840114Y-14373214D01*
X17111543Y-14373214D02*
X17082971Y-14358929D01*
X17068686Y-14330357D01*
X17068686Y-14073214D01*
X17340114Y-14358929D02*
X17311543Y-14373214D01*
X17254400Y-14373214D01*
X17225828Y-14358929D01*
X17211543Y-14330357D01*
X17211543Y-14216072D01*
X17225828Y-14187500D01*
X17254400Y-14173214D01*
X17311543Y-14173214D01*
X17340114Y-14187500D01*
X17354400Y-14216072D01*
X17354400Y-14244643D01*
X17211543Y-14273214D01*
X17468686Y-14358929D02*
X17497257Y-14373214D01*
X17554400Y-14373214D01*
X17582971Y-14358929D01*
X17597257Y-14330357D01*
X17597257Y-14316072D01*
X17582971Y-14287500D01*
X17554400Y-14273214D01*
X17511543Y-14273214D01*
X17482971Y-14258929D01*
X17468686Y-14230357D01*
X17468686Y-14216072D01*
X17482971Y-14187500D01*
X17511543Y-14173214D01*
X17554400Y-14173214D01*
X17582971Y-14187500D01*
X17697257Y-14487500D02*
X17711543Y-14473214D01*
X17740114Y-14430357D01*
X17754400Y-14401786D01*
X17768686Y-14358929D01*
X17782971Y-14287500D01*
X17782971Y-14230357D01*
X17768686Y-14158929D01*
X17754400Y-14116072D01*
X17740114Y-14087500D01*
X17711543Y-14044643D01*
X17697257Y-14030357D01*
X10639400Y-14633500D02*
G75*
G03*
X10639400Y-14633500I-49530J0D01*
G01*
X10982971Y-14469214D02*
X11011543Y-14469214D01*
X11040114Y-14483500D01*
X11054400Y-14497786D01*
X11068686Y-14526357D01*
X11082971Y-14583500D01*
X11082971Y-14654929D01*
X11068686Y-14712072D01*
X11054400Y-14740643D01*
X11040114Y-14754929D01*
X11011543Y-14769214D01*
X10982971Y-14769214D01*
X10954400Y-14754929D01*
X10940114Y-14740643D01*
X10925828Y-14712072D01*
X10911543Y-14654929D01*
X10911543Y-14583500D01*
X10925828Y-14526357D01*
X10940114Y-14497786D01*
X10954400Y-14483500D01*
X10982971Y-14469214D01*
X11211543Y-14740643D02*
X11225828Y-14754929D01*
X11211543Y-14769214D01*
X11197257Y-14754929D01*
X11211543Y-14740643D01*
X11211543Y-14769214D01*
X11368686Y-14769214D02*
X11425828Y-14769214D01*
X11454400Y-14754929D01*
X11468686Y-14740643D01*
X11497257Y-14697786D01*
X11511543Y-14640643D01*
X11511543Y-14526357D01*
X11497257Y-14497786D01*
X11482971Y-14483500D01*
X11454400Y-14469214D01*
X11397257Y-14469214D01*
X11368686Y-14483500D01*
X11354400Y-14497786D01*
X11340114Y-14526357D01*
X11340114Y-14597786D01*
X11354400Y-14626357D01*
X11368686Y-14640643D01*
X11397257Y-14654929D01*
X11454400Y-14654929D01*
X11482971Y-14640643D01*
X11497257Y-14626357D01*
X11511543Y-14597786D01*
X11654400Y-14769214D02*
X11711543Y-14769214D01*
X11740114Y-14754929D01*
X11754400Y-14740643D01*
X11782971Y-14697786D01*
X11797257Y-14640643D01*
X11797257Y-14526357D01*
X11782971Y-14497786D01*
X11768686Y-14483500D01*
X11740114Y-14469214D01*
X11682971Y-14469214D01*
X11654400Y-14483500D01*
X11640114Y-14497786D01*
X11625828Y-14526357D01*
X11625828Y-14597786D01*
X11640114Y-14626357D01*
X11654400Y-14640643D01*
X11682971Y-14654929D01*
X11740114Y-14654929D01*
X11768686Y-14640643D01*
X11782971Y-14626357D01*
X11797257Y-14597786D01*
X12082971Y-14769214D02*
X11911543Y-14769214D01*
X11997257Y-14769214D02*
X11997257Y-14469214D01*
X11968686Y-14512072D01*
X11940114Y-14540643D01*
X11911543Y-14554929D01*
X12211543Y-14769214D02*
X12211543Y-14569214D01*
X12211543Y-14597786D02*
X12225828Y-14583500D01*
X12254400Y-14569214D01*
X12297257Y-14569214D01*
X12325828Y-14583500D01*
X12340114Y-14612072D01*
X12340114Y-14769214D01*
X12340114Y-14612072D02*
X12354400Y-14583500D01*
X12382971Y-14569214D01*
X12425828Y-14569214D01*
X12454400Y-14583500D01*
X12468686Y-14612072D01*
X12468686Y-14769214D01*
X12611543Y-14769214D02*
X12611543Y-14569214D01*
X12611543Y-14597786D02*
X12625828Y-14583500D01*
X12654400Y-14569214D01*
X12697257Y-14569214D01*
X12725828Y-14583500D01*
X12740114Y-14612072D01*
X12740114Y-14769214D01*
X12740114Y-14612072D02*
X12754400Y-14583500D01*
X12782971Y-14569214D01*
X12825828Y-14569214D01*
X12854400Y-14583500D01*
X12868686Y-14612072D01*
X12868686Y-14769214D01*
X13454400Y-14454929D02*
X13197257Y-14840643D01*
X13840114Y-14469214D02*
X13868686Y-14469214D01*
X13897257Y-14483500D01*
X13911543Y-14497786D01*
X13925828Y-14526357D01*
X13940114Y-14583500D01*
X13940114Y-14654929D01*
X13925828Y-14712072D01*
X13911543Y-14740643D01*
X13897257Y-14754929D01*
X13868686Y-14769214D01*
X13840114Y-14769214D01*
X13811543Y-14754929D01*
X13797257Y-14740643D01*
X13782971Y-14712072D01*
X13768686Y-14654929D01*
X13768686Y-14583500D01*
X13782971Y-14526357D01*
X13797257Y-14497786D01*
X13811543Y-14483500D01*
X13840114Y-14469214D01*
X14068686Y-14740643D02*
X14082971Y-14754929D01*
X14068686Y-14769214D01*
X14054400Y-14754929D01*
X14068686Y-14740643D01*
X14068686Y-14769214D01*
X14268686Y-14469214D02*
X14297257Y-14469214D01*
X14325828Y-14483500D01*
X14340114Y-14497786D01*
X14354400Y-14526357D01*
X14368686Y-14583500D01*
X14368686Y-14654929D01*
X14354400Y-14712072D01*
X14340114Y-14740643D01*
X14325828Y-14754929D01*
X14297257Y-14769214D01*
X14268686Y-14769214D01*
X14240114Y-14754929D01*
X14225828Y-14740643D01*
X14211543Y-14712072D01*
X14197257Y-14654929D01*
X14197257Y-14583500D01*
X14211543Y-14526357D01*
X14225828Y-14497786D01*
X14240114Y-14483500D01*
X14268686Y-14469214D01*
X14468686Y-14469214D02*
X14654400Y-14469214D01*
X14554400Y-14583500D01*
X14597257Y-14583500D01*
X14625828Y-14597786D01*
X14640114Y-14612072D01*
X14654400Y-14640643D01*
X14654400Y-14712072D01*
X14640114Y-14740643D01*
X14625828Y-14754929D01*
X14597257Y-14769214D01*
X14511543Y-14769214D01*
X14482971Y-14754929D01*
X14468686Y-14740643D01*
X14797257Y-14769214D02*
X14854400Y-14769214D01*
X14882971Y-14754929D01*
X14897257Y-14740643D01*
X14925828Y-14697786D01*
X14940114Y-14640643D01*
X14940114Y-14526357D01*
X14925828Y-14497786D01*
X14911543Y-14483500D01*
X14882971Y-14469214D01*
X14825828Y-14469214D01*
X14797257Y-14483500D01*
X14782971Y-14497786D01*
X14768686Y-14526357D01*
X14768686Y-14597786D01*
X14782971Y-14626357D01*
X14797257Y-14640643D01*
X14825828Y-14654929D01*
X14882971Y-14654929D01*
X14911543Y-14640643D01*
X14925828Y-14626357D01*
X14940114Y-14597786D01*
X15125828Y-14469214D02*
X15154400Y-14469214D01*
X15182971Y-14483500D01*
X15197257Y-14497786D01*
X15211543Y-14526357D01*
X15225828Y-14583500D01*
X15225828Y-14654929D01*
X15211543Y-14712072D01*
X15197257Y-14740643D01*
X15182971Y-14754929D01*
X15154400Y-14769214D01*
X15125828Y-14769214D01*
X15097257Y-14754929D01*
X15082971Y-14740643D01*
X15068686Y-14712072D01*
X15054400Y-14654929D01*
X15054400Y-14583500D01*
X15068686Y-14526357D01*
X15082971Y-14497786D01*
X15097257Y-14483500D01*
X15125828Y-14469214D01*
X15340114Y-14469214D02*
X15340114Y-14526357D01*
X15454400Y-14469214D02*
X15454400Y-14526357D01*
X15897257Y-14883500D02*
X15882971Y-14869214D01*
X15854400Y-14826357D01*
X15840114Y-14797786D01*
X15825828Y-14754929D01*
X15811543Y-14683500D01*
X15811543Y-14626357D01*
X15825828Y-14554929D01*
X15840114Y-14512072D01*
X15854400Y-14483500D01*
X15882971Y-14440643D01*
X15897257Y-14426357D01*
X15997257Y-14497786D02*
X16011543Y-14483500D01*
X16040114Y-14469214D01*
X16111543Y-14469214D01*
X16140114Y-14483500D01*
X16154400Y-14497786D01*
X16168686Y-14526357D01*
X16168686Y-14554929D01*
X16154400Y-14597786D01*
X15982971Y-14769214D01*
X16168686Y-14769214D01*
X16340114Y-14597786D02*
X16311543Y-14583500D01*
X16297257Y-14569214D01*
X16282971Y-14540643D01*
X16282971Y-14526357D01*
X16297257Y-14497786D01*
X16311543Y-14483500D01*
X16340114Y-14469214D01*
X16397257Y-14469214D01*
X16425828Y-14483500D01*
X16440114Y-14497786D01*
X16454400Y-14526357D01*
X16454400Y-14540643D01*
X16440114Y-14569214D01*
X16425828Y-14583500D01*
X16397257Y-14597786D01*
X16340114Y-14597786D01*
X16311543Y-14612072D01*
X16297257Y-14626357D01*
X16282971Y-14654929D01*
X16282971Y-14712072D01*
X16297257Y-14740643D01*
X16311543Y-14754929D01*
X16340114Y-14769214D01*
X16397257Y-14769214D01*
X16425828Y-14754929D01*
X16440114Y-14740643D01*
X16454400Y-14712072D01*
X16454400Y-14654929D01*
X16440114Y-14626357D01*
X16425828Y-14612072D01*
X16397257Y-14597786D01*
X16811543Y-14769214D02*
X16811543Y-14469214D01*
X16940114Y-14769214D02*
X16940114Y-14612072D01*
X16925828Y-14583500D01*
X16897257Y-14569214D01*
X16854400Y-14569214D01*
X16825828Y-14583500D01*
X16811543Y-14597786D01*
X17125828Y-14769214D02*
X17097257Y-14754929D01*
X17082971Y-14740643D01*
X17068686Y-14712072D01*
X17068686Y-14626357D01*
X17082971Y-14597786D01*
X17097257Y-14583500D01*
X17125828Y-14569214D01*
X17168686Y-14569214D01*
X17197257Y-14583500D01*
X17211543Y-14597786D01*
X17225828Y-14626357D01*
X17225828Y-14712072D01*
X17211543Y-14740643D01*
X17197257Y-14754929D01*
X17168686Y-14769214D01*
X17125828Y-14769214D01*
X17397257Y-14769214D02*
X17368686Y-14754929D01*
X17354400Y-14726357D01*
X17354400Y-14469214D01*
X17625828Y-14754929D02*
X17597257Y-14769214D01*
X17540114Y-14769214D01*
X17511543Y-14754929D01*
X17497257Y-14726357D01*
X17497257Y-14612072D01*
X17511543Y-14583500D01*
X17540114Y-14569214D01*
X17597257Y-14569214D01*
X17625828Y-14583500D01*
X17640114Y-14612072D01*
X17640114Y-14640643D01*
X17497257Y-14669214D01*
X17754400Y-14754929D02*
X17782971Y-14769214D01*
X17840114Y-14769214D01*
X17868686Y-14754929D01*
X17882971Y-14726357D01*
X17882971Y-14712072D01*
X17868686Y-14683500D01*
X17840114Y-14669214D01*
X17797257Y-14669214D01*
X17768686Y-14654929D01*
X17754400Y-14626357D01*
X17754400Y-14612072D01*
X17768686Y-14583500D01*
X17797257Y-14569214D01*
X17840114Y-14569214D01*
X17868686Y-14583500D01*
X17982971Y-14883500D02*
X17997257Y-14869214D01*
X18025828Y-14826357D01*
X18040114Y-14797786D01*
X18054400Y-14754929D01*
X18068686Y-14683500D01*
X18068686Y-14626357D01*
X18054400Y-14554929D01*
X18040114Y-14512072D01*
X18025828Y-14483500D01*
X17997257Y-14440643D01*
X17982971Y-14426357D01*
X10589400Y-14979500D02*
X10589400Y-15079500D01*
X10539400Y-15029500D02*
X10639400Y-15029500D01*
X11082971Y-15165214D02*
X10911543Y-15165214D01*
X10997257Y-15165214D02*
X10997257Y-14865214D01*
X10968686Y-14908072D01*
X10940114Y-14936643D01*
X10911543Y-14950929D01*
X11211543Y-15136643D02*
X11225828Y-15150929D01*
X11211543Y-15165214D01*
X11197257Y-15150929D01*
X11211543Y-15136643D01*
X11211543Y-15165214D01*
X11411543Y-14865214D02*
X11440114Y-14865214D01*
X11468686Y-14879500D01*
X11482971Y-14893786D01*
X11497257Y-14922357D01*
X11511543Y-14979500D01*
X11511543Y-15050929D01*
X11497257Y-15108072D01*
X11482971Y-15136643D01*
X11468686Y-15150929D01*
X11440114Y-15165214D01*
X11411543Y-15165214D01*
X11382971Y-15150929D01*
X11368686Y-15136643D01*
X11354400Y-15108072D01*
X11340114Y-15050929D01*
X11340114Y-14979500D01*
X11354400Y-14922357D01*
X11368686Y-14893786D01*
X11382971Y-14879500D01*
X11411543Y-14865214D01*
X11697257Y-14865214D02*
X11725828Y-14865214D01*
X11754400Y-14879500D01*
X11768686Y-14893786D01*
X11782971Y-14922357D01*
X11797257Y-14979500D01*
X11797257Y-15050929D01*
X11782971Y-15108072D01*
X11768686Y-15136643D01*
X11754400Y-15150929D01*
X11725828Y-15165214D01*
X11697257Y-15165214D01*
X11668686Y-15150929D01*
X11654400Y-15136643D01*
X11640114Y-15108072D01*
X11625828Y-15050929D01*
X11625828Y-14979500D01*
X11640114Y-14922357D01*
X11654400Y-14893786D01*
X11668686Y-14879500D01*
X11697257Y-14865214D01*
X11982971Y-14865214D02*
X12011543Y-14865214D01*
X12040114Y-14879500D01*
X12054400Y-14893786D01*
X12068686Y-14922357D01*
X12082971Y-14979500D01*
X12082971Y-15050929D01*
X12068686Y-15108072D01*
X12054400Y-15136643D01*
X12040114Y-15150929D01*
X12011543Y-15165214D01*
X11982971Y-15165214D01*
X11954400Y-15150929D01*
X11940114Y-15136643D01*
X11925828Y-15108072D01*
X11911543Y-15050929D01*
X11911543Y-14979500D01*
X11925828Y-14922357D01*
X11940114Y-14893786D01*
X11954400Y-14879500D01*
X11982971Y-14865214D01*
X12211543Y-15165214D02*
X12211543Y-14965214D01*
X12211543Y-14993786D02*
X12225828Y-14979500D01*
X12254400Y-14965214D01*
X12297257Y-14965214D01*
X12325828Y-14979500D01*
X12340114Y-15008072D01*
X12340114Y-15165214D01*
X12340114Y-15008072D02*
X12354400Y-14979500D01*
X12382971Y-14965214D01*
X12425828Y-14965214D01*
X12454400Y-14979500D01*
X12468686Y-15008072D01*
X12468686Y-15165214D01*
X12611543Y-15165214D02*
X12611543Y-14965214D01*
X12611543Y-14993786D02*
X12625828Y-14979500D01*
X12654400Y-14965214D01*
X12697257Y-14965214D01*
X12725828Y-14979500D01*
X12740114Y-15008072D01*
X12740114Y-15165214D01*
X12740114Y-15008072D02*
X12754400Y-14979500D01*
X12782971Y-14965214D01*
X12825828Y-14965214D01*
X12854400Y-14979500D01*
X12868686Y-15008072D01*
X12868686Y-15165214D01*
X13454400Y-14850929D02*
X13197257Y-15236643D01*
X13840114Y-14865214D02*
X13868686Y-14865214D01*
X13897257Y-14879500D01*
X13911543Y-14893786D01*
X13925828Y-14922357D01*
X13940114Y-14979500D01*
X13940114Y-15050929D01*
X13925828Y-15108072D01*
X13911543Y-15136643D01*
X13897257Y-15150929D01*
X13868686Y-15165214D01*
X13840114Y-15165214D01*
X13811543Y-15150929D01*
X13797257Y-15136643D01*
X13782971Y-15108072D01*
X13768686Y-15050929D01*
X13768686Y-14979500D01*
X13782971Y-14922357D01*
X13797257Y-14893786D01*
X13811543Y-14879500D01*
X13840114Y-14865214D01*
X14068686Y-15136643D02*
X14082971Y-15150929D01*
X14068686Y-15165214D01*
X14054400Y-15150929D01*
X14068686Y-15136643D01*
X14068686Y-15165214D01*
X14268686Y-14865214D02*
X14297257Y-14865214D01*
X14325828Y-14879500D01*
X14340114Y-14893786D01*
X14354400Y-14922357D01*
X14368686Y-14979500D01*
X14368686Y-15050929D01*
X14354400Y-15108072D01*
X14340114Y-15136643D01*
X14325828Y-15150929D01*
X14297257Y-15165214D01*
X14268686Y-15165214D01*
X14240114Y-15150929D01*
X14225828Y-15136643D01*
X14211543Y-15108072D01*
X14197257Y-15050929D01*
X14197257Y-14979500D01*
X14211543Y-14922357D01*
X14225828Y-14893786D01*
X14240114Y-14879500D01*
X14268686Y-14865214D01*
X14468686Y-14865214D02*
X14654400Y-14865214D01*
X14554400Y-14979500D01*
X14597257Y-14979500D01*
X14625828Y-14993786D01*
X14640114Y-15008072D01*
X14654400Y-15036643D01*
X14654400Y-15108072D01*
X14640114Y-15136643D01*
X14625828Y-15150929D01*
X14597257Y-15165214D01*
X14511543Y-15165214D01*
X14482971Y-15150929D01*
X14468686Y-15136643D01*
X14797257Y-15165214D02*
X14854400Y-15165214D01*
X14882971Y-15150929D01*
X14897257Y-15136643D01*
X14925828Y-15093786D01*
X14940114Y-15036643D01*
X14940114Y-14922357D01*
X14925828Y-14893786D01*
X14911543Y-14879500D01*
X14882971Y-14865214D01*
X14825828Y-14865214D01*
X14797257Y-14879500D01*
X14782971Y-14893786D01*
X14768686Y-14922357D01*
X14768686Y-14993786D01*
X14782971Y-15022357D01*
X14797257Y-15036643D01*
X14825828Y-15050929D01*
X14882971Y-15050929D01*
X14911543Y-15036643D01*
X14925828Y-15022357D01*
X14940114Y-14993786D01*
X15197257Y-14965214D02*
X15197257Y-15165214D01*
X15125828Y-14850929D02*
X15054400Y-15065214D01*
X15240114Y-15065214D01*
X15340114Y-14865214D02*
X15340114Y-14922357D01*
X15454400Y-14865214D02*
X15454400Y-14922357D01*
X15897257Y-15279500D02*
X15882971Y-15265214D01*
X15854400Y-15222357D01*
X15840114Y-15193786D01*
X15825828Y-15150929D01*
X15811543Y-15079500D01*
X15811543Y-15022357D01*
X15825828Y-14950929D01*
X15840114Y-14908072D01*
X15854400Y-14879500D01*
X15882971Y-14836643D01*
X15897257Y-14822357D01*
X16168686Y-15165214D02*
X15997257Y-15165214D01*
X16082971Y-15165214D02*
X16082971Y-14865214D01*
X16054400Y-14908072D01*
X16025828Y-14936643D01*
X15997257Y-14950929D01*
X16354400Y-14865214D02*
X16382971Y-14865214D01*
X16411543Y-14879500D01*
X16425828Y-14893786D01*
X16440114Y-14922357D01*
X16454400Y-14979500D01*
X16454400Y-15050929D01*
X16440114Y-15108072D01*
X16425828Y-15136643D01*
X16411543Y-15150929D01*
X16382971Y-15165214D01*
X16354400Y-15165214D01*
X16325828Y-15150929D01*
X16311543Y-15136643D01*
X16297257Y-15108072D01*
X16282971Y-15050929D01*
X16282971Y-14979500D01*
X16297257Y-14922357D01*
X16311543Y-14893786D01*
X16325828Y-14879500D01*
X16354400Y-14865214D01*
X16811543Y-15165214D02*
X16811543Y-14865214D01*
X16940114Y-15165214D02*
X16940114Y-15008072D01*
X16925828Y-14979500D01*
X16897257Y-14965214D01*
X16854400Y-14965214D01*
X16825828Y-14979500D01*
X16811543Y-14993786D01*
X17125828Y-15165214D02*
X17097257Y-15150929D01*
X17082971Y-15136643D01*
X17068686Y-15108072D01*
X17068686Y-15022357D01*
X17082971Y-14993786D01*
X17097257Y-14979500D01*
X17125828Y-14965214D01*
X17168686Y-14965214D01*
X17197257Y-14979500D01*
X17211543Y-14993786D01*
X17225828Y-15022357D01*
X17225828Y-15108072D01*
X17211543Y-15136643D01*
X17197257Y-15150929D01*
X17168686Y-15165214D01*
X17125828Y-15165214D01*
X17397257Y-15165214D02*
X17368686Y-15150929D01*
X17354400Y-15122357D01*
X17354400Y-14865214D01*
X17625828Y-15150929D02*
X17597257Y-15165214D01*
X17540114Y-15165214D01*
X17511543Y-15150929D01*
X17497257Y-15122357D01*
X17497257Y-15008072D01*
X17511543Y-14979500D01*
X17540114Y-14965214D01*
X17597257Y-14965214D01*
X17625828Y-14979500D01*
X17640114Y-15008072D01*
X17640114Y-15036643D01*
X17497257Y-15065214D01*
X17754400Y-15150929D02*
X17782971Y-15165214D01*
X17840114Y-15165214D01*
X17868686Y-15150929D01*
X17882971Y-15122357D01*
X17882971Y-15108072D01*
X17868686Y-15079500D01*
X17840114Y-15065214D01*
X17797257Y-15065214D01*
X17768686Y-15050929D01*
X17754400Y-15022357D01*
X17754400Y-15008072D01*
X17768686Y-14979500D01*
X17797257Y-14965214D01*
X17840114Y-14965214D01*
X17868686Y-14979500D01*
X17982971Y-15279500D02*
X17997257Y-15265214D01*
X18025828Y-15222357D01*
X18040114Y-15193786D01*
X18054400Y-15150929D01*
X18068686Y-15079500D01*
X18068686Y-15022357D01*
X18054400Y-14950929D01*
X18040114Y-14908072D01*
X18025828Y-14879500D01*
X17997257Y-14836643D01*
X17982971Y-14822357D01*
X10623405Y-15464116D02*
X10623405Y-15386885D01*
X10546174Y-15386885D01*
X10546174Y-15464116D01*
X10623405Y-15464116D01*
X11082971Y-15561214D02*
X10911543Y-15561214D01*
X10997257Y-15561214D02*
X10997257Y-15261214D01*
X10968686Y-15304072D01*
X10940114Y-15332643D01*
X10911543Y-15346929D01*
X11211543Y-15532643D02*
X11225828Y-15546929D01*
X11211543Y-15561214D01*
X11197257Y-15546929D01*
X11211543Y-15532643D01*
X11211543Y-15561214D01*
X11411543Y-15261214D02*
X11440114Y-15261214D01*
X11468686Y-15275500D01*
X11482971Y-15289786D01*
X11497257Y-15318357D01*
X11511543Y-15375500D01*
X11511543Y-15446929D01*
X11497257Y-15504072D01*
X11482971Y-15532643D01*
X11468686Y-15546929D01*
X11440114Y-15561214D01*
X11411543Y-15561214D01*
X11382971Y-15546929D01*
X11368686Y-15532643D01*
X11354400Y-15504072D01*
X11340114Y-15446929D01*
X11340114Y-15375500D01*
X11354400Y-15318357D01*
X11368686Y-15289786D01*
X11382971Y-15275500D01*
X11411543Y-15261214D01*
X11654400Y-15561214D02*
X11711543Y-15561214D01*
X11740114Y-15546929D01*
X11754400Y-15532643D01*
X11782971Y-15489786D01*
X11797257Y-15432643D01*
X11797257Y-15318357D01*
X11782971Y-15289786D01*
X11768686Y-15275500D01*
X11740114Y-15261214D01*
X11682971Y-15261214D01*
X11654400Y-15275500D01*
X11640114Y-15289786D01*
X11625828Y-15318357D01*
X11625828Y-15389786D01*
X11640114Y-15418357D01*
X11654400Y-15432643D01*
X11682971Y-15446929D01*
X11740114Y-15446929D01*
X11768686Y-15432643D01*
X11782971Y-15418357D01*
X11797257Y-15389786D01*
X11911543Y-15289786D02*
X11925828Y-15275500D01*
X11954400Y-15261214D01*
X12025828Y-15261214D01*
X12054400Y-15275500D01*
X12068686Y-15289786D01*
X12082971Y-15318357D01*
X12082971Y-15346929D01*
X12068686Y-15389786D01*
X11897257Y-15561214D01*
X12082971Y-15561214D01*
X12211543Y-15561214D02*
X12211543Y-15361214D01*
X12211543Y-15389786D02*
X12225828Y-15375500D01*
X12254400Y-15361214D01*
X12297257Y-15361214D01*
X12325828Y-15375500D01*
X12340114Y-15404072D01*
X12340114Y-15561214D01*
X12340114Y-15404072D02*
X12354400Y-15375500D01*
X12382971Y-15361214D01*
X12425828Y-15361214D01*
X12454400Y-15375500D01*
X12468686Y-15404072D01*
X12468686Y-15561214D01*
X12611543Y-15561214D02*
X12611543Y-15361214D01*
X12611543Y-15389786D02*
X12625828Y-15375500D01*
X12654400Y-15361214D01*
X12697257Y-15361214D01*
X12725828Y-15375500D01*
X12740114Y-15404072D01*
X12740114Y-15561214D01*
X12740114Y-15404072D02*
X12754400Y-15375500D01*
X12782971Y-15361214D01*
X12825828Y-15361214D01*
X12854400Y-15375500D01*
X12868686Y-15404072D01*
X12868686Y-15561214D01*
X13454400Y-15246929D02*
X13197257Y-15632643D01*
X13840114Y-15261214D02*
X13868686Y-15261214D01*
X13897257Y-15275500D01*
X13911543Y-15289786D01*
X13925828Y-15318357D01*
X13940114Y-15375500D01*
X13940114Y-15446929D01*
X13925828Y-15504072D01*
X13911543Y-15532643D01*
X13897257Y-15546929D01*
X13868686Y-15561214D01*
X13840114Y-15561214D01*
X13811543Y-15546929D01*
X13797257Y-15532643D01*
X13782971Y-15504072D01*
X13768686Y-15446929D01*
X13768686Y-15375500D01*
X13782971Y-15318357D01*
X13797257Y-15289786D01*
X13811543Y-15275500D01*
X13840114Y-15261214D01*
X14068686Y-15532643D02*
X14082971Y-15546929D01*
X14068686Y-15561214D01*
X14054400Y-15546929D01*
X14068686Y-15532643D01*
X14068686Y-15561214D01*
X14268686Y-15261214D02*
X14297257Y-15261214D01*
X14325828Y-15275500D01*
X14340114Y-15289786D01*
X14354400Y-15318357D01*
X14368686Y-15375500D01*
X14368686Y-15446929D01*
X14354400Y-15504072D01*
X14340114Y-15532643D01*
X14325828Y-15546929D01*
X14297257Y-15561214D01*
X14268686Y-15561214D01*
X14240114Y-15546929D01*
X14225828Y-15532643D01*
X14211543Y-15504072D01*
X14197257Y-15446929D01*
X14197257Y-15375500D01*
X14211543Y-15318357D01*
X14225828Y-15289786D01*
X14240114Y-15275500D01*
X14268686Y-15261214D01*
X14625828Y-15361214D02*
X14625828Y-15561214D01*
X14554400Y-15246929D02*
X14482971Y-15461214D01*
X14668686Y-15461214D01*
X14754400Y-15261214D02*
X14940114Y-15261214D01*
X14840114Y-15375500D01*
X14882971Y-15375500D01*
X14911543Y-15389786D01*
X14925828Y-15404072D01*
X14940114Y-15432643D01*
X14940114Y-15504072D01*
X14925828Y-15532643D01*
X14911543Y-15546929D01*
X14882971Y-15561214D01*
X14797257Y-15561214D01*
X14768686Y-15546929D01*
X14754400Y-15532643D01*
X15125828Y-15261214D02*
X15154400Y-15261214D01*
X15182971Y-15275500D01*
X15197257Y-15289786D01*
X15211543Y-15318357D01*
X15225828Y-15375500D01*
X15225828Y-15446929D01*
X15211543Y-15504072D01*
X15197257Y-15532643D01*
X15182971Y-15546929D01*
X15154400Y-15561214D01*
X15125828Y-15561214D01*
X15097257Y-15546929D01*
X15082971Y-15532643D01*
X15068686Y-15504072D01*
X15054400Y-15446929D01*
X15054400Y-15375500D01*
X15068686Y-15318357D01*
X15082971Y-15289786D01*
X15097257Y-15275500D01*
X15125828Y-15261214D01*
X15340114Y-15261214D02*
X15340114Y-15318357D01*
X15454400Y-15261214D02*
X15454400Y-15318357D01*
X15897257Y-15675500D02*
X15882971Y-15661214D01*
X15854400Y-15618357D01*
X15840114Y-15589786D01*
X15825828Y-15546929D01*
X15811543Y-15475500D01*
X15811543Y-15418357D01*
X15825828Y-15346929D01*
X15840114Y-15304072D01*
X15854400Y-15275500D01*
X15882971Y-15232643D01*
X15897257Y-15218357D01*
X16168686Y-15561214D02*
X15997257Y-15561214D01*
X16082971Y-15561214D02*
X16082971Y-15261214D01*
X16054400Y-15304072D01*
X16025828Y-15332643D01*
X15997257Y-15346929D01*
X16311543Y-15561214D02*
X16368686Y-15561214D01*
X16397257Y-15546929D01*
X16411543Y-15532643D01*
X16440114Y-15489786D01*
X16454400Y-15432643D01*
X16454400Y-15318357D01*
X16440114Y-15289786D01*
X16425828Y-15275500D01*
X16397257Y-15261214D01*
X16340114Y-15261214D01*
X16311543Y-15275500D01*
X16297257Y-15289786D01*
X16282971Y-15318357D01*
X16282971Y-15389786D01*
X16297257Y-15418357D01*
X16311543Y-15432643D01*
X16340114Y-15446929D01*
X16397257Y-15446929D01*
X16425828Y-15432643D01*
X16440114Y-15418357D01*
X16454400Y-15389786D01*
X16811543Y-15561214D02*
X16811543Y-15261214D01*
X16940114Y-15561214D02*
X16940114Y-15404072D01*
X16925828Y-15375500D01*
X16897257Y-15361214D01*
X16854400Y-15361214D01*
X16825828Y-15375500D01*
X16811543Y-15389786D01*
X17125828Y-15561214D02*
X17097257Y-15546929D01*
X17082971Y-15532643D01*
X17068686Y-15504072D01*
X17068686Y-15418357D01*
X17082971Y-15389786D01*
X17097257Y-15375500D01*
X17125828Y-15361214D01*
X17168686Y-15361214D01*
X17197257Y-15375500D01*
X17211543Y-15389786D01*
X17225828Y-15418357D01*
X17225828Y-15504072D01*
X17211543Y-15532643D01*
X17197257Y-15546929D01*
X17168686Y-15561214D01*
X17125828Y-15561214D01*
X17397257Y-15561214D02*
X17368686Y-15546929D01*
X17354400Y-15518357D01*
X17354400Y-15261214D01*
X17625828Y-15546929D02*
X17597257Y-15561214D01*
X17540114Y-15561214D01*
X17511543Y-15546929D01*
X17497257Y-15518357D01*
X17497257Y-15404072D01*
X17511543Y-15375500D01*
X17540114Y-15361214D01*
X17597257Y-15361214D01*
X17625828Y-15375500D01*
X17640114Y-15404072D01*
X17640114Y-15432643D01*
X17497257Y-15461214D01*
X17754400Y-15546929D02*
X17782971Y-15561214D01*
X17840114Y-15561214D01*
X17868686Y-15546929D01*
X17882971Y-15518357D01*
X17882971Y-15504072D01*
X17868686Y-15475500D01*
X17840114Y-15461214D01*
X17797257Y-15461214D01*
X17768686Y-15446929D01*
X17754400Y-15418357D01*
X17754400Y-15404072D01*
X17768686Y-15375500D01*
X17797257Y-15361214D01*
X17840114Y-15361214D01*
X17868686Y-15375500D01*
X17982971Y-15675500D02*
X17997257Y-15661214D01*
X18025828Y-15618357D01*
X18040114Y-15589786D01*
X18054400Y-15546929D01*
X18068686Y-15475500D01*
X18068686Y-15418357D01*
X18054400Y-15346929D01*
X18040114Y-15304072D01*
X18025828Y-15275500D01*
X17997257Y-15232643D01*
X17982971Y-15218357D01*
X10479400Y-15981500D02*
X10639400Y-15821500D01*
X10479400Y-15661500D01*
X10319400Y-15821500D01*
X10479400Y-15981500D01*
X10897257Y-15657214D02*
X11082971Y-15657214D01*
X10982971Y-15771500D01*
X11025828Y-15771500D01*
X11054400Y-15785786D01*
X11068686Y-15800072D01*
X11082971Y-15828643D01*
X11082971Y-15900072D01*
X11068686Y-15928643D01*
X11054400Y-15942929D01*
X11025828Y-15957214D01*
X10940114Y-15957214D01*
X10911543Y-15942929D01*
X10897257Y-15928643D01*
X11211543Y-15928643D02*
X11225828Y-15942929D01*
X11211543Y-15957214D01*
X11197257Y-15942929D01*
X11211543Y-15928643D01*
X11211543Y-15957214D01*
X11340114Y-15685786D02*
X11354400Y-15671500D01*
X11382971Y-15657214D01*
X11454400Y-15657214D01*
X11482971Y-15671500D01*
X11497257Y-15685786D01*
X11511543Y-15714357D01*
X11511543Y-15742929D01*
X11497257Y-15785786D01*
X11325828Y-15957214D01*
X11511543Y-15957214D01*
X11697257Y-15657214D02*
X11725828Y-15657214D01*
X11754400Y-15671500D01*
X11768686Y-15685786D01*
X11782971Y-15714357D01*
X11797257Y-15771500D01*
X11797257Y-15842929D01*
X11782971Y-15900072D01*
X11768686Y-15928643D01*
X11754400Y-15942929D01*
X11725828Y-15957214D01*
X11697257Y-15957214D01*
X11668686Y-15942929D01*
X11654400Y-15928643D01*
X11640114Y-15900072D01*
X11625828Y-15842929D01*
X11625828Y-15771500D01*
X11640114Y-15714357D01*
X11654400Y-15685786D01*
X11668686Y-15671500D01*
X11697257Y-15657214D01*
X11982971Y-15657214D02*
X12011543Y-15657214D01*
X12040114Y-15671500D01*
X12054400Y-15685786D01*
X12068686Y-15714357D01*
X12082971Y-15771500D01*
X12082971Y-15842929D01*
X12068686Y-15900072D01*
X12054400Y-15928643D01*
X12040114Y-15942929D01*
X12011543Y-15957214D01*
X11982971Y-15957214D01*
X11954400Y-15942929D01*
X11940114Y-15928643D01*
X11925828Y-15900072D01*
X11911543Y-15842929D01*
X11911543Y-15771500D01*
X11925828Y-15714357D01*
X11940114Y-15685786D01*
X11954400Y-15671500D01*
X11982971Y-15657214D01*
X12211543Y-15957214D02*
X12211543Y-15757214D01*
X12211543Y-15785786D02*
X12225828Y-15771500D01*
X12254400Y-15757214D01*
X12297257Y-15757214D01*
X12325828Y-15771500D01*
X12340114Y-15800072D01*
X12340114Y-15957214D01*
X12340114Y-15800072D02*
X12354400Y-15771500D01*
X12382971Y-15757214D01*
X12425828Y-15757214D01*
X12454400Y-15771500D01*
X12468686Y-15800072D01*
X12468686Y-15957214D01*
X12611543Y-15957214D02*
X12611543Y-15757214D01*
X12611543Y-15785786D02*
X12625828Y-15771500D01*
X12654400Y-15757214D01*
X12697257Y-15757214D01*
X12725828Y-15771500D01*
X12740114Y-15800072D01*
X12740114Y-15957214D01*
X12740114Y-15800072D02*
X12754400Y-15771500D01*
X12782971Y-15757214D01*
X12825828Y-15757214D01*
X12854400Y-15771500D01*
X12868686Y-15800072D01*
X12868686Y-15957214D01*
X13454400Y-15642929D02*
X13197257Y-16028643D01*
X13840114Y-15657214D02*
X13868686Y-15657214D01*
X13897257Y-15671500D01*
X13911543Y-15685786D01*
X13925828Y-15714357D01*
X13940114Y-15771500D01*
X13940114Y-15842929D01*
X13925828Y-15900072D01*
X13911543Y-15928643D01*
X13897257Y-15942929D01*
X13868686Y-15957214D01*
X13840114Y-15957214D01*
X13811543Y-15942929D01*
X13797257Y-15928643D01*
X13782971Y-15900072D01*
X13768686Y-15842929D01*
X13768686Y-15771500D01*
X13782971Y-15714357D01*
X13797257Y-15685786D01*
X13811543Y-15671500D01*
X13840114Y-15657214D01*
X14068686Y-15928643D02*
X14082971Y-15942929D01*
X14068686Y-15957214D01*
X14054400Y-15942929D01*
X14068686Y-15928643D01*
X14068686Y-15957214D01*
X14368686Y-15957214D02*
X14197257Y-15957214D01*
X14282971Y-15957214D02*
X14282971Y-15657214D01*
X14254400Y-15700072D01*
X14225828Y-15728643D01*
X14197257Y-15742929D01*
X14482971Y-15685786D02*
X14497257Y-15671500D01*
X14525828Y-15657214D01*
X14597257Y-15657214D01*
X14625828Y-15671500D01*
X14640114Y-15685786D01*
X14654400Y-15714357D01*
X14654400Y-15742929D01*
X14640114Y-15785786D01*
X14468686Y-15957214D01*
X14654400Y-15957214D01*
X14911543Y-15657214D02*
X14854400Y-15657214D01*
X14825828Y-15671500D01*
X14811543Y-15685786D01*
X14782971Y-15728643D01*
X14768686Y-15785786D01*
X14768686Y-15900072D01*
X14782971Y-15928643D01*
X14797257Y-15942929D01*
X14825828Y-15957214D01*
X14882971Y-15957214D01*
X14911543Y-15942929D01*
X14925828Y-15928643D01*
X14940114Y-15900072D01*
X14940114Y-15828643D01*
X14925828Y-15800072D01*
X14911543Y-15785786D01*
X14882971Y-15771500D01*
X14825828Y-15771500D01*
X14797257Y-15785786D01*
X14782971Y-15800072D01*
X14768686Y-15828643D01*
X15125828Y-15657214D02*
X15154400Y-15657214D01*
X15182971Y-15671500D01*
X15197257Y-15685786D01*
X15211543Y-15714357D01*
X15225828Y-15771500D01*
X15225828Y-15842929D01*
X15211543Y-15900072D01*
X15197257Y-15928643D01*
X15182971Y-15942929D01*
X15154400Y-15957214D01*
X15125828Y-15957214D01*
X15097257Y-15942929D01*
X15082971Y-15928643D01*
X15068686Y-15900072D01*
X15054400Y-15842929D01*
X15054400Y-15771500D01*
X15068686Y-15714357D01*
X15082971Y-15685786D01*
X15097257Y-15671500D01*
X15125828Y-15657214D01*
X15340114Y-15657214D02*
X15340114Y-15714357D01*
X15454400Y-15657214D02*
X15454400Y-15714357D01*
X15897257Y-16071500D02*
X15882971Y-16057214D01*
X15854400Y-16014357D01*
X15840114Y-15985786D01*
X15825828Y-15942929D01*
X15811543Y-15871500D01*
X15811543Y-15814357D01*
X15825828Y-15742929D01*
X15840114Y-15700072D01*
X15854400Y-15671500D01*
X15882971Y-15628643D01*
X15897257Y-15614357D01*
X15982971Y-15657214D02*
X16168686Y-15657214D01*
X16068686Y-15771500D01*
X16111543Y-15771500D01*
X16140114Y-15785786D01*
X16154400Y-15800072D01*
X16168686Y-15828643D01*
X16168686Y-15900072D01*
X16154400Y-15928643D01*
X16140114Y-15942929D01*
X16111543Y-15957214D01*
X16025828Y-15957214D01*
X15997257Y-15942929D01*
X15982971Y-15928643D01*
X16525828Y-15957214D02*
X16525828Y-15657214D01*
X16654400Y-15957214D02*
X16654400Y-15800072D01*
X16640114Y-15771500D01*
X16611543Y-15757214D01*
X16568686Y-15757214D01*
X16540114Y-15771500D01*
X16525828Y-15785786D01*
X16840114Y-15957214D02*
X16811543Y-15942929D01*
X16797257Y-15928643D01*
X16782971Y-15900072D01*
X16782971Y-15814357D01*
X16797257Y-15785786D01*
X16811543Y-15771500D01*
X16840114Y-15757214D01*
X16882971Y-15757214D01*
X16911543Y-15771500D01*
X16925828Y-15785786D01*
X16940114Y-15814357D01*
X16940114Y-15900072D01*
X16925828Y-15928643D01*
X16911543Y-15942929D01*
X16882971Y-15957214D01*
X16840114Y-15957214D01*
X17111543Y-15957214D02*
X17082971Y-15942929D01*
X17068686Y-15914357D01*
X17068686Y-15657214D01*
X17340114Y-15942929D02*
X17311543Y-15957214D01*
X17254400Y-15957214D01*
X17225828Y-15942929D01*
X17211543Y-15914357D01*
X17211543Y-15800072D01*
X17225828Y-15771500D01*
X17254400Y-15757214D01*
X17311543Y-15757214D01*
X17340114Y-15771500D01*
X17354400Y-15800072D01*
X17354400Y-15828643D01*
X17211543Y-15857214D01*
X17468686Y-15942929D02*
X17497257Y-15957214D01*
X17554400Y-15957214D01*
X17582971Y-15942929D01*
X17597257Y-15914357D01*
X17597257Y-15900072D01*
X17582971Y-15871500D01*
X17554400Y-15857214D01*
X17511543Y-15857214D01*
X17482971Y-15842929D01*
X17468686Y-15814357D01*
X17468686Y-15800072D01*
X17482971Y-15771500D01*
X17511543Y-15757214D01*
X17554400Y-15757214D01*
X17582971Y-15771500D01*
X17697257Y-16071500D02*
X17711543Y-16057214D01*
X17740114Y-16014357D01*
X17754400Y-15985786D01*
X17768686Y-15942929D01*
X17782971Y-15871500D01*
X17782971Y-15814357D01*
X17768686Y-15742929D01*
X17754400Y-15700072D01*
X17740114Y-15671500D01*
X17711543Y-15628643D01*
X17697257Y-15614357D01*
X10489400Y-16196500D02*
X10639400Y-16346500D01*
X10639400Y-16196500D02*
X10489400Y-16346500D01*
X10639400Y-16271500D02*
G75*
G03*
X10639400Y-16271500I-75000J0D01*
G01*
X11082971Y-16407214D02*
X10911543Y-16407214D01*
X10997257Y-16407214D02*
X10997257Y-16107214D01*
X10968686Y-16150072D01*
X10940114Y-16178643D01*
X10911543Y-16192929D01*
X11211543Y-16378643D02*
X11225828Y-16392929D01*
X11211543Y-16407214D01*
X11197257Y-16392929D01*
X11211543Y-16378643D01*
X11211543Y-16407214D01*
X11497257Y-16107214D02*
X11354400Y-16107214D01*
X11340114Y-16250072D01*
X11354400Y-16235786D01*
X11382971Y-16221500D01*
X11454400Y-16221500D01*
X11482971Y-16235786D01*
X11497257Y-16250072D01*
X11511543Y-16278643D01*
X11511543Y-16350072D01*
X11497257Y-16378643D01*
X11482971Y-16392929D01*
X11454400Y-16407214D01*
X11382971Y-16407214D01*
X11354400Y-16392929D01*
X11340114Y-16378643D01*
X11697257Y-16107214D02*
X11725828Y-16107214D01*
X11754400Y-16121500D01*
X11768686Y-16135786D01*
X11782971Y-16164357D01*
X11797257Y-16221500D01*
X11797257Y-16292929D01*
X11782971Y-16350072D01*
X11768686Y-16378643D01*
X11754400Y-16392929D01*
X11725828Y-16407214D01*
X11697257Y-16407214D01*
X11668686Y-16392929D01*
X11654400Y-16378643D01*
X11640114Y-16350072D01*
X11625828Y-16292929D01*
X11625828Y-16221500D01*
X11640114Y-16164357D01*
X11654400Y-16135786D01*
X11668686Y-16121500D01*
X11697257Y-16107214D01*
X11982971Y-16107214D02*
X12011543Y-16107214D01*
X12040114Y-16121500D01*
X12054400Y-16135786D01*
X12068686Y-16164357D01*
X12082971Y-16221500D01*
X12082971Y-16292929D01*
X12068686Y-16350072D01*
X12054400Y-16378643D01*
X12040114Y-16392929D01*
X12011543Y-16407214D01*
X11982971Y-16407214D01*
X11954400Y-16392929D01*
X11940114Y-16378643D01*
X11925828Y-16350072D01*
X11911543Y-16292929D01*
X11911543Y-16221500D01*
X11925828Y-16164357D01*
X11940114Y-16135786D01*
X11954400Y-16121500D01*
X11982971Y-16107214D01*
X12211543Y-16407214D02*
X12211543Y-16207214D01*
X12211543Y-16235786D02*
X12225828Y-16221500D01*
X12254400Y-16207214D01*
X12297257Y-16207214D01*
X12325828Y-16221500D01*
X12340114Y-16250072D01*
X12340114Y-16407214D01*
X12340114Y-16250072D02*
X12354400Y-16221500D01*
X12382971Y-16207214D01*
X12425828Y-16207214D01*
X12454400Y-16221500D01*
X12468686Y-16250072D01*
X12468686Y-16407214D01*
X12611543Y-16407214D02*
X12611543Y-16207214D01*
X12611543Y-16235786D02*
X12625828Y-16221500D01*
X12654400Y-16207214D01*
X12697257Y-16207214D01*
X12725828Y-16221500D01*
X12740114Y-16250072D01*
X12740114Y-16407214D01*
X12740114Y-16250072D02*
X12754400Y-16221500D01*
X12782971Y-16207214D01*
X12825828Y-16207214D01*
X12854400Y-16221500D01*
X12868686Y-16250072D01*
X12868686Y-16407214D01*
X13454400Y-16092929D02*
X13197257Y-16478643D01*
X13840114Y-16107214D02*
X13868686Y-16107214D01*
X13897257Y-16121500D01*
X13911543Y-16135786D01*
X13925828Y-16164357D01*
X13940114Y-16221500D01*
X13940114Y-16292929D01*
X13925828Y-16350072D01*
X13911543Y-16378643D01*
X13897257Y-16392929D01*
X13868686Y-16407214D01*
X13840114Y-16407214D01*
X13811543Y-16392929D01*
X13797257Y-16378643D01*
X13782971Y-16350072D01*
X13768686Y-16292929D01*
X13768686Y-16221500D01*
X13782971Y-16164357D01*
X13797257Y-16135786D01*
X13811543Y-16121500D01*
X13840114Y-16107214D01*
X14068686Y-16378643D02*
X14082971Y-16392929D01*
X14068686Y-16407214D01*
X14054400Y-16392929D01*
X14068686Y-16378643D01*
X14068686Y-16407214D01*
X14268686Y-16107214D02*
X14297257Y-16107214D01*
X14325828Y-16121500D01*
X14340114Y-16135786D01*
X14354400Y-16164357D01*
X14368686Y-16221500D01*
X14368686Y-16292929D01*
X14354400Y-16350072D01*
X14340114Y-16378643D01*
X14325828Y-16392929D01*
X14297257Y-16407214D01*
X14268686Y-16407214D01*
X14240114Y-16392929D01*
X14225828Y-16378643D01*
X14211543Y-16350072D01*
X14197257Y-16292929D01*
X14197257Y-16221500D01*
X14211543Y-16164357D01*
X14225828Y-16135786D01*
X14240114Y-16121500D01*
X14268686Y-16107214D01*
X14640114Y-16107214D02*
X14497257Y-16107214D01*
X14482971Y-16250072D01*
X14497257Y-16235786D01*
X14525828Y-16221500D01*
X14597257Y-16221500D01*
X14625828Y-16235786D01*
X14640114Y-16250072D01*
X14654400Y-16278643D01*
X14654400Y-16350072D01*
X14640114Y-16378643D01*
X14625828Y-16392929D01*
X14597257Y-16407214D01*
X14525828Y-16407214D01*
X14497257Y-16392929D01*
X14482971Y-16378643D01*
X14797257Y-16407214D02*
X14854400Y-16407214D01*
X14882971Y-16392929D01*
X14897257Y-16378643D01*
X14925828Y-16335786D01*
X14940114Y-16278643D01*
X14940114Y-16164357D01*
X14925828Y-16135786D01*
X14911543Y-16121500D01*
X14882971Y-16107214D01*
X14825828Y-16107214D01*
X14797257Y-16121500D01*
X14782971Y-16135786D01*
X14768686Y-16164357D01*
X14768686Y-16235786D01*
X14782971Y-16264357D01*
X14797257Y-16278643D01*
X14825828Y-16292929D01*
X14882971Y-16292929D01*
X14911543Y-16278643D01*
X14925828Y-16264357D01*
X14940114Y-16235786D01*
X15225828Y-16407214D02*
X15054400Y-16407214D01*
X15140114Y-16407214D02*
X15140114Y-16107214D01*
X15111543Y-16150072D01*
X15082971Y-16178643D01*
X15054400Y-16192929D01*
X15340114Y-16107214D02*
X15340114Y-16164357D01*
X15454400Y-16107214D02*
X15454400Y-16164357D01*
X15897257Y-16521500D02*
X15882971Y-16507214D01*
X15854400Y-16464357D01*
X15840114Y-16435786D01*
X15825828Y-16392929D01*
X15811543Y-16321500D01*
X15811543Y-16264357D01*
X15825828Y-16192929D01*
X15840114Y-16150072D01*
X15854400Y-16121500D01*
X15882971Y-16078643D01*
X15897257Y-16064357D01*
X16068686Y-16107214D02*
X16097257Y-16107214D01*
X16125828Y-16121500D01*
X16140114Y-16135786D01*
X16154400Y-16164357D01*
X16168686Y-16221500D01*
X16168686Y-16292929D01*
X16154400Y-16350072D01*
X16140114Y-16378643D01*
X16125828Y-16392929D01*
X16097257Y-16407214D01*
X16068686Y-16407214D01*
X16040114Y-16392929D01*
X16025828Y-16378643D01*
X16011543Y-16350072D01*
X15997257Y-16292929D01*
X15997257Y-16221500D01*
X16011543Y-16164357D01*
X16025828Y-16135786D01*
X16040114Y-16121500D01*
X16068686Y-16107214D01*
X16525828Y-16407214D02*
X16525828Y-16107214D01*
X16654400Y-16407214D02*
X16654400Y-16250072D01*
X16640114Y-16221500D01*
X16611543Y-16207214D01*
X16568686Y-16207214D01*
X16540114Y-16221500D01*
X16525828Y-16235786D01*
X16840114Y-16407214D02*
X16811543Y-16392929D01*
X16797257Y-16378643D01*
X16782971Y-16350072D01*
X16782971Y-16264357D01*
X16797257Y-16235786D01*
X16811543Y-16221500D01*
X16840114Y-16207214D01*
X16882971Y-16207214D01*
X16911543Y-16221500D01*
X16925828Y-16235786D01*
X16940114Y-16264357D01*
X16940114Y-16350072D01*
X16925828Y-16378643D01*
X16911543Y-16392929D01*
X16882971Y-16407214D01*
X16840114Y-16407214D01*
X17111543Y-16407214D02*
X17082971Y-16392929D01*
X17068686Y-16364357D01*
X17068686Y-16107214D01*
X17340114Y-16392929D02*
X17311543Y-16407214D01*
X17254400Y-16407214D01*
X17225828Y-16392929D01*
X17211543Y-16364357D01*
X17211543Y-16250072D01*
X17225828Y-16221500D01*
X17254400Y-16207214D01*
X17311543Y-16207214D01*
X17340114Y-16221500D01*
X17354400Y-16250072D01*
X17354400Y-16278643D01*
X17211543Y-16307214D01*
X17468686Y-16392929D02*
X17497257Y-16407214D01*
X17554400Y-16407214D01*
X17582971Y-16392929D01*
X17597257Y-16364357D01*
X17597257Y-16350072D01*
X17582971Y-16321500D01*
X17554400Y-16307214D01*
X17511543Y-16307214D01*
X17482971Y-16292929D01*
X17468686Y-16264357D01*
X17468686Y-16250072D01*
X17482971Y-16221500D01*
X17511543Y-16207214D01*
X17554400Y-16207214D01*
X17582971Y-16221500D01*
X17954400Y-16292929D02*
X18182971Y-16292929D01*
X18068686Y-16407214D02*
X18068686Y-16178643D01*
X18682971Y-16207214D02*
X18682971Y-16407214D01*
X18611543Y-16092929D02*
X18540114Y-16307214D01*
X18725828Y-16307214D01*
X19054400Y-16392929D02*
X19082971Y-16407214D01*
X19140114Y-16407214D01*
X19168686Y-16392929D01*
X19182971Y-16364357D01*
X19182971Y-16350072D01*
X19168686Y-16321500D01*
X19140114Y-16307214D01*
X19097257Y-16307214D01*
X19068686Y-16292929D01*
X19054400Y-16264357D01*
X19054400Y-16250072D01*
X19068686Y-16221500D01*
X19097257Y-16207214D01*
X19140114Y-16207214D01*
X19168686Y-16221500D01*
X19354400Y-16407214D02*
X19325828Y-16392929D01*
X19311543Y-16364357D01*
X19311543Y-16107214D01*
X19511543Y-16407214D02*
X19482971Y-16392929D01*
X19468686Y-16378643D01*
X19454400Y-16350072D01*
X19454400Y-16264357D01*
X19468686Y-16235786D01*
X19482971Y-16221500D01*
X19511543Y-16207214D01*
X19554400Y-16207214D01*
X19582971Y-16221500D01*
X19597257Y-16235786D01*
X19611543Y-16264357D01*
X19611543Y-16350072D01*
X19597257Y-16378643D01*
X19582971Y-16392929D01*
X19554400Y-16407214D01*
X19511543Y-16407214D01*
X19697257Y-16207214D02*
X19811543Y-16207214D01*
X19740114Y-16107214D02*
X19740114Y-16364357D01*
X19754400Y-16392929D01*
X19782971Y-16407214D01*
X19811543Y-16407214D01*
X19897257Y-16392929D02*
X19925828Y-16407214D01*
X19982971Y-16407214D01*
X20011543Y-16392929D01*
X20025828Y-16364357D01*
X20025828Y-16350072D01*
X20011543Y-16321500D01*
X19982971Y-16307214D01*
X19940114Y-16307214D01*
X19911543Y-16292929D01*
X19897257Y-16264357D01*
X19897257Y-16250072D01*
X19911543Y-16221500D01*
X19940114Y-16207214D01*
X19982971Y-16207214D01*
X20011543Y-16221500D01*
X20125828Y-16521500D02*
X20140114Y-16507214D01*
X20168686Y-16464357D01*
X20182971Y-16435786D01*
X20197257Y-16392929D01*
X20211543Y-16321500D01*
X20211543Y-16264357D01*
X20197257Y-16192929D01*
X20182971Y-16150072D01*
X20168686Y-16121500D01*
X20140114Y-16078643D01*
X20125828Y-16064357D01*
X20668686Y-16521500D02*
X20654400Y-16507214D01*
X20625828Y-16464357D01*
X20611543Y-16435786D01*
X20597257Y-16392929D01*
X20582971Y-16321500D01*
X20582971Y-16264357D01*
X20597257Y-16192929D01*
X20611543Y-16150072D01*
X20625828Y-16121500D01*
X20654400Y-16078643D01*
X20668686Y-16064357D01*
X20782971Y-16207214D02*
X20782971Y-16407214D01*
X20782971Y-16235786D02*
X20797257Y-16221500D01*
X20825828Y-16207214D01*
X20868686Y-16207214D01*
X20897257Y-16221500D01*
X20911543Y-16250072D01*
X20911543Y-16407214D01*
X21097257Y-16407214D02*
X21068686Y-16392929D01*
X21054400Y-16378643D01*
X21040114Y-16350072D01*
X21040114Y-16264357D01*
X21054400Y-16235786D01*
X21068686Y-16221500D01*
X21097257Y-16207214D01*
X21140114Y-16207214D01*
X21168686Y-16221500D01*
X21182971Y-16235786D01*
X21197257Y-16264357D01*
X21197257Y-16350072D01*
X21182971Y-16378643D01*
X21168686Y-16392929D01*
X21140114Y-16407214D01*
X21097257Y-16407214D01*
X21282971Y-16207214D02*
X21397257Y-16207214D01*
X21325828Y-16107214D02*
X21325828Y-16364357D01*
X21340114Y-16392929D01*
X21368686Y-16407214D01*
X21397257Y-16407214D01*
X21725828Y-16207214D02*
X21725828Y-16507214D01*
X21725828Y-16221500D02*
X21754400Y-16207214D01*
X21811543Y-16207214D01*
X21840114Y-16221500D01*
X21854400Y-16235786D01*
X21868686Y-16264357D01*
X21868686Y-16350072D01*
X21854400Y-16378643D01*
X21840114Y-16392929D01*
X21811543Y-16407214D01*
X21754400Y-16407214D01*
X21725828Y-16392929D01*
X22040114Y-16407214D02*
X22011543Y-16392929D01*
X21997257Y-16364357D01*
X21997257Y-16107214D01*
X22282971Y-16407214D02*
X22282971Y-16250072D01*
X22268686Y-16221500D01*
X22240114Y-16207214D01*
X22182971Y-16207214D01*
X22154400Y-16221500D01*
X22282971Y-16392929D02*
X22254400Y-16407214D01*
X22182971Y-16407214D01*
X22154400Y-16392929D01*
X22140114Y-16364357D01*
X22140114Y-16335786D01*
X22154400Y-16307214D01*
X22182971Y-16292929D01*
X22254400Y-16292929D01*
X22282971Y-16278643D01*
X22382971Y-16207214D02*
X22497257Y-16207214D01*
X22425828Y-16107214D02*
X22425828Y-16364357D01*
X22440114Y-16392929D01*
X22468686Y-16407214D01*
X22497257Y-16407214D01*
X22711543Y-16392929D02*
X22682971Y-16407214D01*
X22625828Y-16407214D01*
X22597257Y-16392929D01*
X22582971Y-16364357D01*
X22582971Y-16250072D01*
X22597257Y-16221500D01*
X22625828Y-16207214D01*
X22682971Y-16207214D01*
X22711543Y-16221500D01*
X22725828Y-16250072D01*
X22725828Y-16278643D01*
X22582971Y-16307214D01*
X22982971Y-16407214D02*
X22982971Y-16107214D01*
X22982971Y-16392929D02*
X22954400Y-16407214D01*
X22897257Y-16407214D01*
X22868686Y-16392929D01*
X22854400Y-16378643D01*
X22840114Y-16350072D01*
X22840114Y-16264357D01*
X22854400Y-16235786D01*
X22868686Y-16221500D01*
X22897257Y-16207214D01*
X22954400Y-16207214D01*
X22982971Y-16221500D01*
X23097257Y-16521500D02*
X23111543Y-16507214D01*
X23140114Y-16464357D01*
X23154400Y-16435786D01*
X23168686Y-16392929D01*
X23182971Y-16321500D01*
X23182971Y-16264357D01*
X23168686Y-16192929D01*
X23154400Y-16150072D01*
X23140114Y-16121500D01*
X23111543Y-16078643D01*
X23097257Y-16064357D01*
X10469400Y-16582500D02*
X10639400Y-16752500D01*
X10639400Y-16582500D02*
X10469400Y-16752500D01*
X10554400Y-16582500D02*
X10554400Y-16752500D01*
X10469400Y-16667500D02*
X10639400Y-16667500D01*
X11082971Y-16803214D02*
X10911543Y-16803214D01*
X10997257Y-16803214D02*
X10997257Y-16503214D01*
X10968686Y-16546072D01*
X10940114Y-16574643D01*
X10911543Y-16588929D01*
X11211543Y-16774643D02*
X11225828Y-16788929D01*
X11211543Y-16803214D01*
X11197257Y-16788929D01*
X11211543Y-16774643D01*
X11211543Y-16803214D01*
X11325828Y-16503214D02*
X11525828Y-16503214D01*
X11397257Y-16803214D01*
X11697257Y-16503214D02*
X11725828Y-16503214D01*
X11754400Y-16517500D01*
X11768686Y-16531786D01*
X11782971Y-16560357D01*
X11797257Y-16617500D01*
X11797257Y-16688929D01*
X11782971Y-16746072D01*
X11768686Y-16774643D01*
X11754400Y-16788929D01*
X11725828Y-16803214D01*
X11697257Y-16803214D01*
X11668686Y-16788929D01*
X11654400Y-16774643D01*
X11640114Y-16746072D01*
X11625828Y-16688929D01*
X11625828Y-16617500D01*
X11640114Y-16560357D01*
X11654400Y-16531786D01*
X11668686Y-16517500D01*
X11697257Y-16503214D01*
X11982971Y-16503214D02*
X12011543Y-16503214D01*
X12040114Y-16517500D01*
X12054400Y-16531786D01*
X12068686Y-16560357D01*
X12082971Y-16617500D01*
X12082971Y-16688929D01*
X12068686Y-16746072D01*
X12054400Y-16774643D01*
X12040114Y-16788929D01*
X12011543Y-16803214D01*
X11982971Y-16803214D01*
X11954400Y-16788929D01*
X11940114Y-16774643D01*
X11925828Y-16746072D01*
X11911543Y-16688929D01*
X11911543Y-16617500D01*
X11925828Y-16560357D01*
X11940114Y-16531786D01*
X11954400Y-16517500D01*
X11982971Y-16503214D01*
X12211543Y-16803214D02*
X12211543Y-16603214D01*
X12211543Y-16631786D02*
X12225828Y-16617500D01*
X12254400Y-16603214D01*
X12297257Y-16603214D01*
X12325828Y-16617500D01*
X12340114Y-16646072D01*
X12340114Y-16803214D01*
X12340114Y-16646072D02*
X12354400Y-16617500D01*
X12382971Y-16603214D01*
X12425828Y-16603214D01*
X12454400Y-16617500D01*
X12468686Y-16646072D01*
X12468686Y-16803214D01*
X12611543Y-16803214D02*
X12611543Y-16603214D01*
X12611543Y-16631786D02*
X12625828Y-16617500D01*
X12654400Y-16603214D01*
X12697257Y-16603214D01*
X12725828Y-16617500D01*
X12740114Y-16646072D01*
X12740114Y-16803214D01*
X12740114Y-16646072D02*
X12754400Y-16617500D01*
X12782971Y-16603214D01*
X12825828Y-16603214D01*
X12854400Y-16617500D01*
X12868686Y-16646072D01*
X12868686Y-16803214D01*
X13454400Y-16488929D02*
X13197257Y-16874643D01*
X13840114Y-16503214D02*
X13868686Y-16503214D01*
X13897257Y-16517500D01*
X13911543Y-16531786D01*
X13925828Y-16560357D01*
X13940114Y-16617500D01*
X13940114Y-16688929D01*
X13925828Y-16746072D01*
X13911543Y-16774643D01*
X13897257Y-16788929D01*
X13868686Y-16803214D01*
X13840114Y-16803214D01*
X13811543Y-16788929D01*
X13797257Y-16774643D01*
X13782971Y-16746072D01*
X13768686Y-16688929D01*
X13768686Y-16617500D01*
X13782971Y-16560357D01*
X13797257Y-16531786D01*
X13811543Y-16517500D01*
X13840114Y-16503214D01*
X14068686Y-16774643D02*
X14082971Y-16788929D01*
X14068686Y-16803214D01*
X14054400Y-16788929D01*
X14068686Y-16774643D01*
X14068686Y-16803214D01*
X14268686Y-16503214D02*
X14297257Y-16503214D01*
X14325828Y-16517500D01*
X14340114Y-16531786D01*
X14354400Y-16560357D01*
X14368686Y-16617500D01*
X14368686Y-16688929D01*
X14354400Y-16746072D01*
X14340114Y-16774643D01*
X14325828Y-16788929D01*
X14297257Y-16803214D01*
X14268686Y-16803214D01*
X14240114Y-16788929D01*
X14225828Y-16774643D01*
X14211543Y-16746072D01*
X14197257Y-16688929D01*
X14197257Y-16617500D01*
X14211543Y-16560357D01*
X14225828Y-16531786D01*
X14240114Y-16517500D01*
X14268686Y-16503214D01*
X14625828Y-16503214D02*
X14568686Y-16503214D01*
X14540114Y-16517500D01*
X14525828Y-16531786D01*
X14497257Y-16574643D01*
X14482971Y-16631786D01*
X14482971Y-16746072D01*
X14497257Y-16774643D01*
X14511543Y-16788929D01*
X14540114Y-16803214D01*
X14597257Y-16803214D01*
X14625828Y-16788929D01*
X14640114Y-16774643D01*
X14654400Y-16746072D01*
X14654400Y-16674643D01*
X14640114Y-16646072D01*
X14625828Y-16631786D01*
X14597257Y-16617500D01*
X14540114Y-16617500D01*
X14511543Y-16631786D01*
X14497257Y-16646072D01*
X14482971Y-16674643D01*
X14911543Y-16503214D02*
X14854400Y-16503214D01*
X14825828Y-16517500D01*
X14811543Y-16531786D01*
X14782971Y-16574643D01*
X14768686Y-16631786D01*
X14768686Y-16746072D01*
X14782971Y-16774643D01*
X14797257Y-16788929D01*
X14825828Y-16803214D01*
X14882971Y-16803214D01*
X14911543Y-16788929D01*
X14925828Y-16774643D01*
X14940114Y-16746072D01*
X14940114Y-16674643D01*
X14925828Y-16646072D01*
X14911543Y-16631786D01*
X14882971Y-16617500D01*
X14825828Y-16617500D01*
X14797257Y-16631786D01*
X14782971Y-16646072D01*
X14768686Y-16674643D01*
X15082971Y-16803214D02*
X15140114Y-16803214D01*
X15168686Y-16788929D01*
X15182971Y-16774643D01*
X15211543Y-16731786D01*
X15225828Y-16674643D01*
X15225828Y-16560357D01*
X15211543Y-16531786D01*
X15197257Y-16517500D01*
X15168686Y-16503214D01*
X15111543Y-16503214D01*
X15082971Y-16517500D01*
X15068686Y-16531786D01*
X15054400Y-16560357D01*
X15054400Y-16631786D01*
X15068686Y-16660357D01*
X15082971Y-16674643D01*
X15111543Y-16688929D01*
X15168686Y-16688929D01*
X15197257Y-16674643D01*
X15211543Y-16660357D01*
X15225828Y-16631786D01*
X15340114Y-16503214D02*
X15340114Y-16560357D01*
X15454400Y-16503214D02*
X15454400Y-16560357D01*
X15897257Y-16917500D02*
X15882971Y-16903214D01*
X15854400Y-16860357D01*
X15840114Y-16831786D01*
X15825828Y-16788929D01*
X15811543Y-16717500D01*
X15811543Y-16660357D01*
X15825828Y-16588929D01*
X15840114Y-16546072D01*
X15854400Y-16517500D01*
X15882971Y-16474643D01*
X15897257Y-16460357D01*
X15997257Y-16531786D02*
X16011543Y-16517500D01*
X16040114Y-16503214D01*
X16111543Y-16503214D01*
X16140114Y-16517500D01*
X16154400Y-16531786D01*
X16168686Y-16560357D01*
X16168686Y-16588929D01*
X16154400Y-16631786D01*
X15982971Y-16803214D01*
X16168686Y-16803214D01*
X16340114Y-16631786D02*
X16311543Y-16617500D01*
X16297257Y-16603214D01*
X16282971Y-16574643D01*
X16282971Y-16560357D01*
X16297257Y-16531786D01*
X16311543Y-16517500D01*
X16340114Y-16503214D01*
X16397257Y-16503214D01*
X16425828Y-16517500D01*
X16440114Y-16531786D01*
X16454400Y-16560357D01*
X16454400Y-16574643D01*
X16440114Y-16603214D01*
X16425828Y-16617500D01*
X16397257Y-16631786D01*
X16340114Y-16631786D01*
X16311543Y-16646072D01*
X16297257Y-16660357D01*
X16282971Y-16688929D01*
X16282971Y-16746072D01*
X16297257Y-16774643D01*
X16311543Y-16788929D01*
X16340114Y-16803214D01*
X16397257Y-16803214D01*
X16425828Y-16788929D01*
X16440114Y-16774643D01*
X16454400Y-16746072D01*
X16454400Y-16688929D01*
X16440114Y-16660357D01*
X16425828Y-16646072D01*
X16397257Y-16631786D01*
X16811543Y-16803214D02*
X16811543Y-16503214D01*
X16940114Y-16803214D02*
X16940114Y-16646072D01*
X16925828Y-16617500D01*
X16897257Y-16603214D01*
X16854400Y-16603214D01*
X16825828Y-16617500D01*
X16811543Y-16631786D01*
X17125828Y-16803214D02*
X17097257Y-16788929D01*
X17082971Y-16774643D01*
X17068686Y-16746072D01*
X17068686Y-16660357D01*
X17082971Y-16631786D01*
X17097257Y-16617500D01*
X17125828Y-16603214D01*
X17168686Y-16603214D01*
X17197257Y-16617500D01*
X17211543Y-16631786D01*
X17225828Y-16660357D01*
X17225828Y-16746072D01*
X17211543Y-16774643D01*
X17197257Y-16788929D01*
X17168686Y-16803214D01*
X17125828Y-16803214D01*
X17397257Y-16803214D02*
X17368686Y-16788929D01*
X17354400Y-16760357D01*
X17354400Y-16503214D01*
X17625828Y-16788929D02*
X17597257Y-16803214D01*
X17540114Y-16803214D01*
X17511543Y-16788929D01*
X17497257Y-16760357D01*
X17497257Y-16646072D01*
X17511543Y-16617500D01*
X17540114Y-16603214D01*
X17597257Y-16603214D01*
X17625828Y-16617500D01*
X17640114Y-16646072D01*
X17640114Y-16674643D01*
X17497257Y-16703214D01*
X17754400Y-16788929D02*
X17782971Y-16803214D01*
X17840114Y-16803214D01*
X17868686Y-16788929D01*
X17882971Y-16760357D01*
X17882971Y-16746072D01*
X17868686Y-16717500D01*
X17840114Y-16703214D01*
X17797257Y-16703214D01*
X17768686Y-16688929D01*
X17754400Y-16660357D01*
X17754400Y-16646072D01*
X17768686Y-16617500D01*
X17797257Y-16603214D01*
X17840114Y-16603214D01*
X17868686Y-16617500D01*
X17982971Y-16917500D02*
X17997257Y-16903214D01*
X18025828Y-16860357D01*
X18040114Y-16831786D01*
X18054400Y-16788929D01*
X18068686Y-16717500D01*
X18068686Y-16660357D01*
X18054400Y-16588929D01*
X18040114Y-16546072D01*
X18025828Y-16517500D01*
X17997257Y-16474643D01*
X17982971Y-16460357D01*
X18525828Y-16917500D02*
X18511543Y-16903214D01*
X18482971Y-16860357D01*
X18468686Y-16831786D01*
X18454400Y-16788929D01*
X18440114Y-16717500D01*
X18440114Y-16660357D01*
X18454400Y-16588929D01*
X18468686Y-16546072D01*
X18482971Y-16517500D01*
X18511543Y-16474643D01*
X18525828Y-16460357D01*
X18640114Y-16603214D02*
X18640114Y-16803214D01*
X18640114Y-16631786D02*
X18654400Y-16617500D01*
X18682971Y-16603214D01*
X18725828Y-16603214D01*
X18754400Y-16617500D01*
X18768686Y-16646072D01*
X18768686Y-16803214D01*
X18954400Y-16803214D02*
X18925828Y-16788929D01*
X18911543Y-16774643D01*
X18897257Y-16746072D01*
X18897257Y-16660357D01*
X18911543Y-16631786D01*
X18925828Y-16617500D01*
X18954400Y-16603214D01*
X18997257Y-16603214D01*
X19025828Y-16617500D01*
X19040114Y-16631786D01*
X19054400Y-16660357D01*
X19054400Y-16746072D01*
X19040114Y-16774643D01*
X19025828Y-16788929D01*
X18997257Y-16803214D01*
X18954400Y-16803214D01*
X19140114Y-16603214D02*
X19254400Y-16603214D01*
X19182971Y-16503214D02*
X19182971Y-16760357D01*
X19197257Y-16788929D01*
X19225828Y-16803214D01*
X19254400Y-16803214D01*
X19582971Y-16603214D02*
X19582971Y-16903214D01*
X19582971Y-16617500D02*
X19611543Y-16603214D01*
X19668686Y-16603214D01*
X19697257Y-16617500D01*
X19711543Y-16631786D01*
X19725828Y-16660357D01*
X19725828Y-16746072D01*
X19711543Y-16774643D01*
X19697257Y-16788929D01*
X19668686Y-16803214D01*
X19611543Y-16803214D01*
X19582971Y-16788929D01*
X19897257Y-16803214D02*
X19868686Y-16788929D01*
X19854400Y-16760357D01*
X19854400Y-16503214D01*
X20140114Y-16803214D02*
X20140114Y-16646072D01*
X20125828Y-16617500D01*
X20097257Y-16603214D01*
X20040114Y-16603214D01*
X20011543Y-16617500D01*
X20140114Y-16788929D02*
X20111543Y-16803214D01*
X20040114Y-16803214D01*
X20011543Y-16788929D01*
X19997257Y-16760357D01*
X19997257Y-16731786D01*
X20011543Y-16703214D01*
X20040114Y-16688929D01*
X20111543Y-16688929D01*
X20140114Y-16674643D01*
X20240114Y-16603214D02*
X20354400Y-16603214D01*
X20282971Y-16503214D02*
X20282971Y-16760357D01*
X20297257Y-16788929D01*
X20325828Y-16803214D01*
X20354400Y-16803214D01*
X20568686Y-16788929D02*
X20540114Y-16803214D01*
X20482971Y-16803214D01*
X20454400Y-16788929D01*
X20440114Y-16760357D01*
X20440114Y-16646072D01*
X20454400Y-16617500D01*
X20482971Y-16603214D01*
X20540114Y-16603214D01*
X20568686Y-16617500D01*
X20582971Y-16646072D01*
X20582971Y-16674643D01*
X20440114Y-16703214D01*
X20840114Y-16803214D02*
X20840114Y-16503214D01*
X20840114Y-16788929D02*
X20811543Y-16803214D01*
X20754400Y-16803214D01*
X20725828Y-16788929D01*
X20711543Y-16774643D01*
X20697257Y-16746072D01*
X20697257Y-16660357D01*
X20711543Y-16631786D01*
X20725828Y-16617500D01*
X20754400Y-16603214D01*
X20811543Y-16603214D01*
X20840114Y-16617500D01*
X20954400Y-16917500D02*
X20968686Y-16903214D01*
X20997257Y-16860357D01*
X21011543Y-16831786D01*
X21025828Y-16788929D01*
X21040114Y-16717500D01*
X21040114Y-16660357D01*
X21025828Y-16588929D01*
X21011543Y-16546072D01*
X20997257Y-16517500D01*
X20968686Y-16474643D01*
X20954400Y-16460357D01*
X10344400Y-16916000D02*
X10639400Y-17211000D01*
X10639400Y-16916000D02*
X10344400Y-17211000D01*
X10596199Y-17167800D02*
X10596199Y-16959201D01*
X10387601Y-16959201D01*
X10387601Y-17167800D01*
X10596199Y-17167800D01*
X10911543Y-16927786D02*
X10925828Y-16913500D01*
X10954400Y-16899214D01*
X11025828Y-16899214D01*
X11054400Y-16913500D01*
X11068686Y-16927786D01*
X11082971Y-16956357D01*
X11082971Y-16984929D01*
X11068686Y-17027786D01*
X10897257Y-17199214D01*
X11082971Y-17199214D01*
X11211543Y-17170643D02*
X11225828Y-17184929D01*
X11211543Y-17199214D01*
X11197257Y-17184929D01*
X11211543Y-17170643D01*
X11211543Y-17199214D01*
X11368686Y-17199214D02*
X11425828Y-17199214D01*
X11454400Y-17184929D01*
X11468686Y-17170643D01*
X11497257Y-17127786D01*
X11511543Y-17070643D01*
X11511543Y-16956357D01*
X11497257Y-16927786D01*
X11482971Y-16913500D01*
X11454400Y-16899214D01*
X11397257Y-16899214D01*
X11368686Y-16913500D01*
X11354400Y-16927786D01*
X11340114Y-16956357D01*
X11340114Y-17027786D01*
X11354400Y-17056357D01*
X11368686Y-17070643D01*
X11397257Y-17084929D01*
X11454400Y-17084929D01*
X11482971Y-17070643D01*
X11497257Y-17056357D01*
X11511543Y-17027786D01*
X11782971Y-16899214D02*
X11640114Y-16899214D01*
X11625828Y-17042072D01*
X11640114Y-17027786D01*
X11668686Y-17013500D01*
X11740114Y-17013500D01*
X11768686Y-17027786D01*
X11782971Y-17042072D01*
X11797257Y-17070643D01*
X11797257Y-17142072D01*
X11782971Y-17170643D01*
X11768686Y-17184929D01*
X11740114Y-17199214D01*
X11668686Y-17199214D01*
X11640114Y-17184929D01*
X11625828Y-17170643D01*
X11982971Y-16899214D02*
X12011543Y-16899214D01*
X12040114Y-16913500D01*
X12054400Y-16927786D01*
X12068686Y-16956357D01*
X12082971Y-17013500D01*
X12082971Y-17084929D01*
X12068686Y-17142072D01*
X12054400Y-17170643D01*
X12040114Y-17184929D01*
X12011543Y-17199214D01*
X11982971Y-17199214D01*
X11954400Y-17184929D01*
X11940114Y-17170643D01*
X11925828Y-17142072D01*
X11911543Y-17084929D01*
X11911543Y-17013500D01*
X11925828Y-16956357D01*
X11940114Y-16927786D01*
X11954400Y-16913500D01*
X11982971Y-16899214D01*
X12211543Y-17199214D02*
X12211543Y-16999214D01*
X12211543Y-17027786D02*
X12225828Y-17013500D01*
X12254400Y-16999214D01*
X12297257Y-16999214D01*
X12325828Y-17013500D01*
X12340114Y-17042072D01*
X12340114Y-17199214D01*
X12340114Y-17042072D02*
X12354400Y-17013500D01*
X12382971Y-16999214D01*
X12425828Y-16999214D01*
X12454400Y-17013500D01*
X12468686Y-17042072D01*
X12468686Y-17199214D01*
X12611543Y-17199214D02*
X12611543Y-16999214D01*
X12611543Y-17027786D02*
X12625828Y-17013500D01*
X12654400Y-16999214D01*
X12697257Y-16999214D01*
X12725828Y-17013500D01*
X12740114Y-17042072D01*
X12740114Y-17199214D01*
X12740114Y-17042072D02*
X12754400Y-17013500D01*
X12782971Y-16999214D01*
X12825828Y-16999214D01*
X12854400Y-17013500D01*
X12868686Y-17042072D01*
X12868686Y-17199214D01*
X13454400Y-16884929D02*
X13197257Y-17270643D01*
X13840114Y-16899214D02*
X13868686Y-16899214D01*
X13897257Y-16913500D01*
X13911543Y-16927786D01*
X13925828Y-16956357D01*
X13940114Y-17013500D01*
X13940114Y-17084929D01*
X13925828Y-17142072D01*
X13911543Y-17170643D01*
X13897257Y-17184929D01*
X13868686Y-17199214D01*
X13840114Y-17199214D01*
X13811543Y-17184929D01*
X13797257Y-17170643D01*
X13782971Y-17142072D01*
X13768686Y-17084929D01*
X13768686Y-17013500D01*
X13782971Y-16956357D01*
X13797257Y-16927786D01*
X13811543Y-16913500D01*
X13840114Y-16899214D01*
X14068686Y-17170643D02*
X14082971Y-17184929D01*
X14068686Y-17199214D01*
X14054400Y-17184929D01*
X14068686Y-17170643D01*
X14068686Y-17199214D01*
X14368686Y-17199214D02*
X14197257Y-17199214D01*
X14282971Y-17199214D02*
X14282971Y-16899214D01*
X14254400Y-16942072D01*
X14225828Y-16970643D01*
X14197257Y-16984929D01*
X14654400Y-17199214D02*
X14482971Y-17199214D01*
X14568686Y-17199214D02*
X14568686Y-16899214D01*
X14540114Y-16942072D01*
X14511543Y-16970643D01*
X14482971Y-16984929D01*
X14911543Y-16899214D02*
X14854400Y-16899214D01*
X14825828Y-16913500D01*
X14811543Y-16927786D01*
X14782971Y-16970643D01*
X14768686Y-17027786D01*
X14768686Y-17142072D01*
X14782971Y-17170643D01*
X14797257Y-17184929D01*
X14825828Y-17199214D01*
X14882971Y-17199214D01*
X14911543Y-17184929D01*
X14925828Y-17170643D01*
X14940114Y-17142072D01*
X14940114Y-17070643D01*
X14925828Y-17042072D01*
X14911543Y-17027786D01*
X14882971Y-17013500D01*
X14825828Y-17013500D01*
X14797257Y-17027786D01*
X14782971Y-17042072D01*
X14768686Y-17070643D01*
X15225828Y-17199214D02*
X15054400Y-17199214D01*
X15140114Y-17199214D02*
X15140114Y-16899214D01*
X15111543Y-16942072D01*
X15082971Y-16970643D01*
X15054400Y-16984929D01*
X15340114Y-16899214D02*
X15340114Y-16956357D01*
X15454400Y-16899214D02*
X15454400Y-16956357D01*
X15897257Y-17313500D02*
X15882971Y-17299214D01*
X15854400Y-17256357D01*
X15840114Y-17227786D01*
X15825828Y-17184929D01*
X15811543Y-17113500D01*
X15811543Y-17056357D01*
X15825828Y-16984929D01*
X15840114Y-16942072D01*
X15854400Y-16913500D01*
X15882971Y-16870643D01*
X15897257Y-16856357D01*
X15997257Y-16927786D02*
X16011543Y-16913500D01*
X16040114Y-16899214D01*
X16111543Y-16899214D01*
X16140114Y-16913500D01*
X16154400Y-16927786D01*
X16168686Y-16956357D01*
X16168686Y-16984929D01*
X16154400Y-17027786D01*
X15982971Y-17199214D01*
X16168686Y-17199214D01*
X16340114Y-17027786D02*
X16311543Y-17013500D01*
X16297257Y-16999214D01*
X16282971Y-16970643D01*
X16282971Y-16956357D01*
X16297257Y-16927786D01*
X16311543Y-16913500D01*
X16340114Y-16899214D01*
X16397257Y-16899214D01*
X16425828Y-16913500D01*
X16440114Y-16927786D01*
X16454400Y-16956357D01*
X16454400Y-16970643D01*
X16440114Y-16999214D01*
X16425828Y-17013500D01*
X16397257Y-17027786D01*
X16340114Y-17027786D01*
X16311543Y-17042072D01*
X16297257Y-17056357D01*
X16282971Y-17084929D01*
X16282971Y-17142072D01*
X16297257Y-17170643D01*
X16311543Y-17184929D01*
X16340114Y-17199214D01*
X16397257Y-17199214D01*
X16425828Y-17184929D01*
X16440114Y-17170643D01*
X16454400Y-17142072D01*
X16454400Y-17084929D01*
X16440114Y-17056357D01*
X16425828Y-17042072D01*
X16397257Y-17027786D01*
X16811543Y-17199214D02*
X16811543Y-16899214D01*
X16940114Y-17199214D02*
X16940114Y-17042072D01*
X16925828Y-17013500D01*
X16897257Y-16999214D01*
X16854400Y-16999214D01*
X16825828Y-17013500D01*
X16811543Y-17027786D01*
X17125828Y-17199214D02*
X17097257Y-17184929D01*
X17082971Y-17170643D01*
X17068686Y-17142072D01*
X17068686Y-17056357D01*
X17082971Y-17027786D01*
X17097257Y-17013500D01*
X17125828Y-16999214D01*
X17168686Y-16999214D01*
X17197257Y-17013500D01*
X17211543Y-17027786D01*
X17225828Y-17056357D01*
X17225828Y-17142072D01*
X17211543Y-17170643D01*
X17197257Y-17184929D01*
X17168686Y-17199214D01*
X17125828Y-17199214D01*
X17397257Y-17199214D02*
X17368686Y-17184929D01*
X17354400Y-17156357D01*
X17354400Y-16899214D01*
X17625828Y-17184929D02*
X17597257Y-17199214D01*
X17540114Y-17199214D01*
X17511543Y-17184929D01*
X17497257Y-17156357D01*
X17497257Y-17042072D01*
X17511543Y-17013500D01*
X17540114Y-16999214D01*
X17597257Y-16999214D01*
X17625828Y-17013500D01*
X17640114Y-17042072D01*
X17640114Y-17070643D01*
X17497257Y-17099214D01*
X17754400Y-17184929D02*
X17782971Y-17199214D01*
X17840114Y-17199214D01*
X17868686Y-17184929D01*
X17882971Y-17156357D01*
X17882971Y-17142072D01*
X17868686Y-17113500D01*
X17840114Y-17099214D01*
X17797257Y-17099214D01*
X17768686Y-17084929D01*
X17754400Y-17056357D01*
X17754400Y-17042072D01*
X17768686Y-17013500D01*
X17797257Y-16999214D01*
X17840114Y-16999214D01*
X17868686Y-17013500D01*
X17982971Y-17313500D02*
X17997257Y-17299214D01*
X18025828Y-17256357D01*
X18040114Y-17227786D01*
X18054400Y-17184929D01*
X18068686Y-17113500D01*
X18068686Y-17056357D01*
X18054400Y-16984929D01*
X18040114Y-16942072D01*
X18025828Y-16913500D01*
X17997257Y-16870643D01*
X17982971Y-16856357D01*
X18525828Y-17313500D02*
X18511543Y-17299214D01*
X18482971Y-17256357D01*
X18468686Y-17227786D01*
X18454400Y-17184929D01*
X18440114Y-17113500D01*
X18440114Y-17056357D01*
X18454400Y-16984929D01*
X18468686Y-16942072D01*
X18482971Y-16913500D01*
X18511543Y-16870643D01*
X18525828Y-16856357D01*
X18640114Y-16999214D02*
X18640114Y-17199214D01*
X18640114Y-17027786D02*
X18654400Y-17013500D01*
X18682971Y-16999214D01*
X18725828Y-16999214D01*
X18754400Y-17013500D01*
X18768686Y-17042072D01*
X18768686Y-17199214D01*
X18954400Y-17199214D02*
X18925828Y-17184929D01*
X18911543Y-17170643D01*
X18897257Y-17142072D01*
X18897257Y-17056357D01*
X18911543Y-17027786D01*
X18925828Y-17013500D01*
X18954400Y-16999214D01*
X18997257Y-16999214D01*
X19025828Y-17013500D01*
X19040114Y-17027786D01*
X19054400Y-17056357D01*
X19054400Y-17142072D01*
X19040114Y-17170643D01*
X19025828Y-17184929D01*
X18997257Y-17199214D01*
X18954400Y-17199214D01*
X19140114Y-16999214D02*
X19254400Y-16999214D01*
X19182971Y-16899214D02*
X19182971Y-17156357D01*
X19197257Y-17184929D01*
X19225828Y-17199214D01*
X19254400Y-17199214D01*
X19582971Y-16999214D02*
X19582971Y-17299214D01*
X19582971Y-17013500D02*
X19611543Y-16999214D01*
X19668686Y-16999214D01*
X19697257Y-17013500D01*
X19711543Y-17027786D01*
X19725828Y-17056357D01*
X19725828Y-17142072D01*
X19711543Y-17170643D01*
X19697257Y-17184929D01*
X19668686Y-17199214D01*
X19611543Y-17199214D01*
X19582971Y-17184929D01*
X19897257Y-17199214D02*
X19868686Y-17184929D01*
X19854400Y-17156357D01*
X19854400Y-16899214D01*
X20140114Y-17199214D02*
X20140114Y-17042072D01*
X20125828Y-17013500D01*
X20097257Y-16999214D01*
X20040114Y-16999214D01*
X20011543Y-17013500D01*
X20140114Y-17184929D02*
X20111543Y-17199214D01*
X20040114Y-17199214D01*
X20011543Y-17184929D01*
X19997257Y-17156357D01*
X19997257Y-17127786D01*
X20011543Y-17099214D01*
X20040114Y-17084929D01*
X20111543Y-17084929D01*
X20140114Y-17070643D01*
X20240114Y-16999214D02*
X20354400Y-16999214D01*
X20282971Y-16899214D02*
X20282971Y-17156357D01*
X20297257Y-17184929D01*
X20325828Y-17199214D01*
X20354400Y-17199214D01*
X20568686Y-17184929D02*
X20540114Y-17199214D01*
X20482971Y-17199214D01*
X20454400Y-17184929D01*
X20440114Y-17156357D01*
X20440114Y-17042072D01*
X20454400Y-17013500D01*
X20482971Y-16999214D01*
X20540114Y-16999214D01*
X20568686Y-17013500D01*
X20582971Y-17042072D01*
X20582971Y-17070643D01*
X20440114Y-17099214D01*
X20840114Y-17199214D02*
X20840114Y-16899214D01*
X20840114Y-17184929D02*
X20811543Y-17199214D01*
X20754400Y-17199214D01*
X20725828Y-17184929D01*
X20711543Y-17170643D01*
X20697257Y-17142072D01*
X20697257Y-17056357D01*
X20711543Y-17027786D01*
X20725828Y-17013500D01*
X20754400Y-16999214D01*
X20811543Y-16999214D01*
X20840114Y-17013500D01*
X20954400Y-17313500D02*
X20968686Y-17299214D01*
X20997257Y-17256357D01*
X21011543Y-17227786D01*
X21025828Y-17184929D01*
X21040114Y-17113500D01*
X21040114Y-17056357D01*
X21025828Y-16984929D01*
X21011543Y-16942072D01*
X20997257Y-16913500D01*
X20968686Y-16870643D01*
X20954400Y-16856357D01*
X10241382Y-17289491D02*
X10639400Y-17687509D01*
X10639400Y-17289491D02*
X10241382Y-17687509D01*
X10440391Y-17687509D02*
X10639400Y-17488500D01*
X10440391Y-17289491D01*
X10241382Y-17488500D01*
X10440391Y-17687509D01*
X10897257Y-17324214D02*
X11082971Y-17324214D01*
X10982971Y-17438500D01*
X11025828Y-17438500D01*
X11054400Y-17452786D01*
X11068686Y-17467072D01*
X11082971Y-17495643D01*
X11082971Y-17567072D01*
X11068686Y-17595643D01*
X11054400Y-17609929D01*
X11025828Y-17624214D01*
X10940114Y-17624214D01*
X10911543Y-17609929D01*
X10897257Y-17595643D01*
X11211543Y-17595643D02*
X11225828Y-17609929D01*
X11211543Y-17624214D01*
X11197257Y-17609929D01*
X11211543Y-17595643D01*
X11211543Y-17624214D01*
X11368686Y-17624214D02*
X11425828Y-17624214D01*
X11454400Y-17609929D01*
X11468686Y-17595643D01*
X11497257Y-17552786D01*
X11511543Y-17495643D01*
X11511543Y-17381357D01*
X11497257Y-17352786D01*
X11482971Y-17338500D01*
X11454400Y-17324214D01*
X11397257Y-17324214D01*
X11368686Y-17338500D01*
X11354400Y-17352786D01*
X11340114Y-17381357D01*
X11340114Y-17452786D01*
X11354400Y-17481357D01*
X11368686Y-17495643D01*
X11397257Y-17509929D01*
X11454400Y-17509929D01*
X11482971Y-17495643D01*
X11497257Y-17481357D01*
X11511543Y-17452786D01*
X11682971Y-17452786D02*
X11654400Y-17438500D01*
X11640114Y-17424214D01*
X11625828Y-17395643D01*
X11625828Y-17381357D01*
X11640114Y-17352786D01*
X11654400Y-17338500D01*
X11682971Y-17324214D01*
X11740114Y-17324214D01*
X11768686Y-17338500D01*
X11782971Y-17352786D01*
X11797257Y-17381357D01*
X11797257Y-17395643D01*
X11782971Y-17424214D01*
X11768686Y-17438500D01*
X11740114Y-17452786D01*
X11682971Y-17452786D01*
X11654400Y-17467072D01*
X11640114Y-17481357D01*
X11625828Y-17509929D01*
X11625828Y-17567072D01*
X11640114Y-17595643D01*
X11654400Y-17609929D01*
X11682971Y-17624214D01*
X11740114Y-17624214D01*
X11768686Y-17609929D01*
X11782971Y-17595643D01*
X11797257Y-17567072D01*
X11797257Y-17509929D01*
X11782971Y-17481357D01*
X11768686Y-17467072D01*
X11740114Y-17452786D01*
X11982971Y-17324214D02*
X12011543Y-17324214D01*
X12040114Y-17338500D01*
X12054400Y-17352786D01*
X12068686Y-17381357D01*
X12082971Y-17438500D01*
X12082971Y-17509929D01*
X12068686Y-17567072D01*
X12054400Y-17595643D01*
X12040114Y-17609929D01*
X12011543Y-17624214D01*
X11982971Y-17624214D01*
X11954400Y-17609929D01*
X11940114Y-17595643D01*
X11925828Y-17567072D01*
X11911543Y-17509929D01*
X11911543Y-17438500D01*
X11925828Y-17381357D01*
X11940114Y-17352786D01*
X11954400Y-17338500D01*
X11982971Y-17324214D01*
X12211543Y-17624214D02*
X12211543Y-17424214D01*
X12211543Y-17452786D02*
X12225828Y-17438500D01*
X12254400Y-17424214D01*
X12297257Y-17424214D01*
X12325828Y-17438500D01*
X12340114Y-17467072D01*
X12340114Y-17624214D01*
X12340114Y-17467072D02*
X12354400Y-17438500D01*
X12382971Y-17424214D01*
X12425828Y-17424214D01*
X12454400Y-17438500D01*
X12468686Y-17467072D01*
X12468686Y-17624214D01*
X12611543Y-17624214D02*
X12611543Y-17424214D01*
X12611543Y-17452786D02*
X12625828Y-17438500D01*
X12654400Y-17424214D01*
X12697257Y-17424214D01*
X12725828Y-17438500D01*
X12740114Y-17467072D01*
X12740114Y-17624214D01*
X12740114Y-17467072D02*
X12754400Y-17438500D01*
X12782971Y-17424214D01*
X12825828Y-17424214D01*
X12854400Y-17438500D01*
X12868686Y-17467072D01*
X12868686Y-17624214D01*
X13454400Y-17309929D02*
X13197257Y-17695643D01*
X13840114Y-17324214D02*
X13868686Y-17324214D01*
X13897257Y-17338500D01*
X13911543Y-17352786D01*
X13925828Y-17381357D01*
X13940114Y-17438500D01*
X13940114Y-17509929D01*
X13925828Y-17567072D01*
X13911543Y-17595643D01*
X13897257Y-17609929D01*
X13868686Y-17624214D01*
X13840114Y-17624214D01*
X13811543Y-17609929D01*
X13797257Y-17595643D01*
X13782971Y-17567072D01*
X13768686Y-17509929D01*
X13768686Y-17438500D01*
X13782971Y-17381357D01*
X13797257Y-17352786D01*
X13811543Y-17338500D01*
X13840114Y-17324214D01*
X14068686Y-17595643D02*
X14082971Y-17609929D01*
X14068686Y-17624214D01*
X14054400Y-17609929D01*
X14068686Y-17595643D01*
X14068686Y-17624214D01*
X14368686Y-17624214D02*
X14197257Y-17624214D01*
X14282971Y-17624214D02*
X14282971Y-17324214D01*
X14254400Y-17367072D01*
X14225828Y-17395643D01*
X14197257Y-17409929D01*
X14640114Y-17324214D02*
X14497257Y-17324214D01*
X14482971Y-17467072D01*
X14497257Y-17452786D01*
X14525828Y-17438500D01*
X14597257Y-17438500D01*
X14625828Y-17452786D01*
X14640114Y-17467072D01*
X14654400Y-17495643D01*
X14654400Y-17567072D01*
X14640114Y-17595643D01*
X14625828Y-17609929D01*
X14597257Y-17624214D01*
X14525828Y-17624214D01*
X14497257Y-17609929D01*
X14482971Y-17595643D01*
X14911543Y-17324214D02*
X14854400Y-17324214D01*
X14825828Y-17338500D01*
X14811543Y-17352786D01*
X14782971Y-17395643D01*
X14768686Y-17452786D01*
X14768686Y-17567072D01*
X14782971Y-17595643D01*
X14797257Y-17609929D01*
X14825828Y-17624214D01*
X14882971Y-17624214D01*
X14911543Y-17609929D01*
X14925828Y-17595643D01*
X14940114Y-17567072D01*
X14940114Y-17495643D01*
X14925828Y-17467072D01*
X14911543Y-17452786D01*
X14882971Y-17438500D01*
X14825828Y-17438500D01*
X14797257Y-17452786D01*
X14782971Y-17467072D01*
X14768686Y-17495643D01*
X15040114Y-17324214D02*
X15240114Y-17324214D01*
X15111543Y-17624214D01*
X15340114Y-17324214D02*
X15340114Y-17381357D01*
X15454400Y-17324214D02*
X15454400Y-17381357D01*
X15897257Y-17738500D02*
X15882971Y-17724214D01*
X15854400Y-17681357D01*
X15840114Y-17652786D01*
X15825828Y-17609929D01*
X15811543Y-17538500D01*
X15811543Y-17481357D01*
X15825828Y-17409929D01*
X15840114Y-17367072D01*
X15854400Y-17338500D01*
X15882971Y-17295643D01*
X15897257Y-17281357D01*
X16168686Y-17624214D02*
X15997257Y-17624214D01*
X16082971Y-17624214D02*
X16082971Y-17324214D01*
X16054400Y-17367072D01*
X16025828Y-17395643D01*
X15997257Y-17409929D01*
X16425828Y-17424214D02*
X16425828Y-17624214D01*
X16354400Y-17309929D02*
X16282971Y-17524214D01*
X16468686Y-17524214D01*
X16811543Y-17624214D02*
X16811543Y-17324214D01*
X16940114Y-17624214D02*
X16940114Y-17467072D01*
X16925828Y-17438500D01*
X16897257Y-17424214D01*
X16854400Y-17424214D01*
X16825828Y-17438500D01*
X16811543Y-17452786D01*
X17125828Y-17624214D02*
X17097257Y-17609929D01*
X17082971Y-17595643D01*
X17068686Y-17567072D01*
X17068686Y-17481357D01*
X17082971Y-17452786D01*
X17097257Y-17438500D01*
X17125828Y-17424214D01*
X17168686Y-17424214D01*
X17197257Y-17438500D01*
X17211543Y-17452786D01*
X17225828Y-17481357D01*
X17225828Y-17567072D01*
X17211543Y-17595643D01*
X17197257Y-17609929D01*
X17168686Y-17624214D01*
X17125828Y-17624214D01*
X17397257Y-17624214D02*
X17368686Y-17609929D01*
X17354400Y-17581357D01*
X17354400Y-17324214D01*
X17625828Y-17609929D02*
X17597257Y-17624214D01*
X17540114Y-17624214D01*
X17511543Y-17609929D01*
X17497257Y-17581357D01*
X17497257Y-17467072D01*
X17511543Y-17438500D01*
X17540114Y-17424214D01*
X17597257Y-17424214D01*
X17625828Y-17438500D01*
X17640114Y-17467072D01*
X17640114Y-17495643D01*
X17497257Y-17524214D01*
X17754400Y-17609929D02*
X17782971Y-17624214D01*
X17840114Y-17624214D01*
X17868686Y-17609929D01*
X17882971Y-17581357D01*
X17882971Y-17567072D01*
X17868686Y-17538500D01*
X17840114Y-17524214D01*
X17797257Y-17524214D01*
X17768686Y-17509929D01*
X17754400Y-17481357D01*
X17754400Y-17467072D01*
X17768686Y-17438500D01*
X17797257Y-17424214D01*
X17840114Y-17424214D01*
X17868686Y-17438500D01*
X17982971Y-17738500D02*
X17997257Y-17724214D01*
X18025828Y-17681357D01*
X18040114Y-17652786D01*
X18054400Y-17609929D01*
X18068686Y-17538500D01*
X18068686Y-17481357D01*
X18054400Y-17409929D01*
X18040114Y-17367072D01*
X18025828Y-17338500D01*
X17997257Y-17295643D01*
X17982971Y-17281357D01*
X18525828Y-17738500D02*
X18511543Y-17724214D01*
X18482971Y-17681357D01*
X18468686Y-17652786D01*
X18454400Y-17609929D01*
X18440114Y-17538500D01*
X18440114Y-17481357D01*
X18454400Y-17409929D01*
X18468686Y-17367072D01*
X18482971Y-17338500D01*
X18511543Y-17295643D01*
X18525828Y-17281357D01*
X18640114Y-17424214D02*
X18640114Y-17624214D01*
X18640114Y-17452786D02*
X18654400Y-17438500D01*
X18682971Y-17424214D01*
X18725828Y-17424214D01*
X18754400Y-17438500D01*
X18768686Y-17467072D01*
X18768686Y-17624214D01*
X18954400Y-17624214D02*
X18925828Y-17609929D01*
X18911543Y-17595643D01*
X18897257Y-17567072D01*
X18897257Y-17481357D01*
X18911543Y-17452786D01*
X18925828Y-17438500D01*
X18954400Y-17424214D01*
X18997257Y-17424214D01*
X19025828Y-17438500D01*
X19040114Y-17452786D01*
X19054400Y-17481357D01*
X19054400Y-17567072D01*
X19040114Y-17595643D01*
X19025828Y-17609929D01*
X18997257Y-17624214D01*
X18954400Y-17624214D01*
X19140114Y-17424214D02*
X19254400Y-17424214D01*
X19182971Y-17324214D02*
X19182971Y-17581357D01*
X19197257Y-17609929D01*
X19225828Y-17624214D01*
X19254400Y-17624214D01*
X19582971Y-17424214D02*
X19582971Y-17724214D01*
X19582971Y-17438500D02*
X19611543Y-17424214D01*
X19668686Y-17424214D01*
X19697257Y-17438500D01*
X19711543Y-17452786D01*
X19725828Y-17481357D01*
X19725828Y-17567072D01*
X19711543Y-17595643D01*
X19697257Y-17609929D01*
X19668686Y-17624214D01*
X19611543Y-17624214D01*
X19582971Y-17609929D01*
X19897257Y-17624214D02*
X19868686Y-17609929D01*
X19854400Y-17581357D01*
X19854400Y-17324214D01*
X20140114Y-17624214D02*
X20140114Y-17467072D01*
X20125828Y-17438500D01*
X20097257Y-17424214D01*
X20040114Y-17424214D01*
X20011543Y-17438500D01*
X20140114Y-17609929D02*
X20111543Y-17624214D01*
X20040114Y-17624214D01*
X20011543Y-17609929D01*
X19997257Y-17581357D01*
X19997257Y-17552786D01*
X20011543Y-17524214D01*
X20040114Y-17509929D01*
X20111543Y-17509929D01*
X20140114Y-17495643D01*
X20240114Y-17424214D02*
X20354400Y-17424214D01*
X20282971Y-17324214D02*
X20282971Y-17581357D01*
X20297257Y-17609929D01*
X20325828Y-17624214D01*
X20354400Y-17624214D01*
X20568686Y-17609929D02*
X20540114Y-17624214D01*
X20482971Y-17624214D01*
X20454400Y-17609929D01*
X20440114Y-17581357D01*
X20440114Y-17467072D01*
X20454400Y-17438500D01*
X20482971Y-17424214D01*
X20540114Y-17424214D01*
X20568686Y-17438500D01*
X20582971Y-17467072D01*
X20582971Y-17495643D01*
X20440114Y-17524214D01*
X20840114Y-17624214D02*
X20840114Y-17324214D01*
X20840114Y-17609929D02*
X20811543Y-17624214D01*
X20754400Y-17624214D01*
X20725828Y-17609929D01*
X20711543Y-17595643D01*
X20697257Y-17567072D01*
X20697257Y-17481357D01*
X20711543Y-17452786D01*
X20725828Y-17438500D01*
X20754400Y-17424214D01*
X20811543Y-17424214D01*
X20840114Y-17438500D01*
X20954400Y-17738500D02*
X20968686Y-17724214D01*
X20997257Y-17681357D01*
X21011543Y-17652786D01*
X21025828Y-17609929D01*
X21040114Y-17538500D01*
X21040114Y-17481357D01*
X21025828Y-17409929D01*
X21011543Y-17367072D01*
X20997257Y-17338500D01*
X20968686Y-17295643D01*
X20954400Y-17281357D01*
M02*
