G04 #@! TF.GenerationSoftware,KiCad,Pcbnew,(5.1.10)-1*
G04 #@! TF.CreationDate,2021-12-21T01:23:29-06:00*
G04 #@! TF.ProjectId,arrow,6172726f-772e-46b6-9963-61645f706362,rev?*
G04 #@! TF.SameCoordinates,Original*
G04 #@! TF.FileFunction,Copper,L2,Bot*
G04 #@! TF.FilePolarity,Positive*
%FSLAX46Y46*%
G04 Gerber Fmt 4.6, Leading zero omitted, Abs format (unit mm)*
G04 Created by KiCad (PCBNEW (5.1.10)-1) date 2021-12-21 01:23:29*
%MOMM*%
%LPD*%
G01*
G04 APERTURE LIST*
G04 #@! TA.AperFunction,ComponentPad*
%ADD10C,1.752600*%
G04 #@! TD*
G04 #@! TA.AperFunction,SMDPad,CuDef*
%ADD11R,2.550000X2.500000*%
G04 #@! TD*
G04 #@! TA.AperFunction,ComponentPad*
%ADD12O,1.700000X1.700000*%
G04 #@! TD*
G04 #@! TA.AperFunction,ComponentPad*
%ADD13R,1.700000X1.700000*%
G04 #@! TD*
G04 #@! TA.AperFunction,SMDPad,CuDef*
%ADD14R,1.400000X1.200000*%
G04 #@! TD*
G04 #@! TA.AperFunction,SMDPad,CuDef*
%ADD15R,1.200000X1.400000*%
G04 #@! TD*
G04 #@! TA.AperFunction,Conductor*
%ADD16C,0.250000*%
G04 #@! TD*
G04 APERTURE END LIST*
D10*
X227040000Y-128641250D03*
X227040000Y-131181250D03*
X227040000Y-133721250D03*
X227040000Y-136261250D03*
X227040000Y-138801250D03*
X227040000Y-141341250D03*
X227040000Y-143881250D03*
X227040000Y-146421250D03*
X227040000Y-148961250D03*
X211800000Y-151501250D03*
X211800000Y-148961250D03*
X211800000Y-146421250D03*
X211800000Y-143881250D03*
X211800000Y-141341250D03*
X211800000Y-138801250D03*
X211800000Y-136261250D03*
X211800000Y-133721250D03*
X211800000Y-131181250D03*
X211800000Y-123561250D03*
D11*
X245830000Y-152060000D03*
X232380000Y-154600000D03*
X226780000Y-152060000D03*
X213330000Y-154600000D03*
X212060000Y-127930000D03*
X225510000Y-125390000D03*
X207730000Y-152060000D03*
X194280000Y-154600000D03*
D12*
X246520000Y-149430000D03*
X246520000Y-146890000D03*
D13*
X246520000Y-144350000D03*
D14*
X233500000Y-143800000D03*
X233500000Y-147200000D03*
X224500000Y-143800000D03*
X224500000Y-147200000D03*
D15*
X217700000Y-122500000D03*
X214300000Y-122500000D03*
D14*
X207750000Y-143800000D03*
X207750000Y-147200000D03*
D16*
X207831250Y-143881250D02*
X207750000Y-143800000D01*
X209341250Y-143800000D02*
X211800000Y-141341250D01*
X207750000Y-143800000D02*
X209341250Y-143800000D01*
X213500000Y-133049002D02*
X217700000Y-128849002D01*
X213500000Y-139641250D02*
X213500000Y-133049002D01*
X217700000Y-128849002D02*
X217700000Y-122500000D01*
X211800000Y-141341250D02*
X213500000Y-139641250D01*
X207750000Y-152040000D02*
X207730000Y-152060000D01*
X207750000Y-147200000D02*
X207750000Y-152040000D01*
X214300000Y-125690000D02*
X212060000Y-127930000D01*
X214300000Y-122500000D02*
X214300000Y-125690000D01*
X227040000Y-141341250D02*
X227690625Y-141341250D01*
X226958750Y-143800000D02*
X227040000Y-143881250D01*
X224500000Y-143800000D02*
X226958750Y-143800000D01*
X233418750Y-143881250D02*
X233500000Y-143800000D01*
X227040000Y-143881250D02*
X233418750Y-143881250D01*
X225675001Y-150955001D02*
X226780000Y-152060000D01*
X225675001Y-148375001D02*
X225675001Y-150955001D01*
X224500000Y-147200000D02*
X225675001Y-148375001D01*
X245000000Y-151230000D02*
X245830000Y-152060000D01*
X245000000Y-149000000D02*
X245000000Y-151230000D01*
X243200000Y-147200000D02*
X245000000Y-149000000D01*
X233500000Y-147200000D02*
X243200000Y-147200000D01*
X228198750Y-142500000D02*
X242130000Y-142500000D01*
X242130000Y-142500000D02*
X246520000Y-146890000D01*
X227040000Y-141341250D02*
X228198750Y-142500000D01*
X227040000Y-128641250D02*
X227040000Y-131181250D01*
X227181250Y-131181250D02*
X227040000Y-131181250D01*
X244170000Y-142000000D02*
X246520000Y-144350000D01*
X230875160Y-142000000D02*
X244170000Y-142000000D01*
X228500000Y-139624840D02*
X230875160Y-142000000D01*
X228500000Y-132641250D02*
X228500000Y-139624840D01*
X227040000Y-131181250D02*
X228500000Y-132641250D01*
X211529999Y-156400001D02*
X213330000Y-154600000D01*
X196080001Y-156400001D02*
X211529999Y-156400001D01*
X194280000Y-154600000D02*
X196080001Y-156400001D01*
X211800000Y-153070000D02*
X213330000Y-154600000D01*
X211800000Y-151501250D02*
X211800000Y-153070000D01*
X232380000Y-154500000D02*
X232380000Y-154600000D01*
X225500000Y-125400000D02*
X225510000Y-125390000D01*
X225500000Y-125500000D02*
X225500000Y-125400000D01*
X225675001Y-125675001D02*
X225500000Y-125500000D01*
X225675001Y-140324999D02*
X225675001Y-125675001D01*
X223000000Y-143000000D02*
X225675001Y-140324999D01*
X223000000Y-144921250D02*
X223000000Y-143000000D01*
X224078750Y-146000000D02*
X223000000Y-144921250D01*
X226618750Y-146000000D02*
X224078750Y-146000000D01*
X227040000Y-146421250D02*
X226618750Y-146000000D01*
X232380000Y-151761250D02*
X232380000Y-154600000D01*
X227040000Y-146421250D02*
X232380000Y-151761250D01*
M02*
