%TF.GenerationSoftware,KiCad,Pcbnew,(5.1.10)-1*%
%TF.CreationDate,2022-04-05T14:22:13-05:00*%
%TF.ProjectId,graham cracker,67726168-616d-4206-9372-61636b65722e,rev?*%
%TF.SameCoordinates,Original*%
%TF.FileFunction,Profile,NP*%
%FSLAX46Y46*%
G04 Gerber Fmt 4.6, Leading zero omitted, Abs format (unit mm)*
G04 Created by KiCad (PCBNEW (5.1.10)-1) date 2022-04-05 14:22:13*
%MOMM*%
%LPD*%
G01*
G04 APERTURE LIST*
%TA.AperFunction,Profile*%
%ADD10C,0.050000*%
%TD*%
G04 APERTURE END LIST*
D10*
X180950000Y-137800000D02*
X87200000Y-137800000D01*
X109900000Y-119200000D02*
X125900000Y-119200000D01*
X125900000Y-118200000D02*
X109900000Y-118200000D01*
X109900000Y-100200000D02*
X125900000Y-100200000D01*
X128900000Y-119200000D02*
G75*
G02*
X128900000Y-118200000I0J500000D01*
G01*
X128900000Y-119200000D02*
X144200000Y-119200000D01*
X144900000Y-99200000D02*
G75*
G02*
X144900000Y-100200000I0J-500000D01*
G01*
X144900000Y-118200000D02*
X144200000Y-118200000D01*
X144200000Y-118200000D02*
X128900000Y-118200000D01*
X144200000Y-119200000D02*
X144900000Y-119200000D01*
X128900000Y-100200000D02*
X144900000Y-100200000D01*
X147900000Y-119200000D02*
X163900000Y-119200000D01*
X163900000Y-118200000D02*
X147900000Y-118200000D01*
X147900000Y-100200000D02*
G75*
G02*
X147900000Y-99200000I0J500000D01*
G01*
X147900000Y-100200000D02*
X163900000Y-100200000D01*
X90900000Y-119200000D02*
X106900000Y-119200000D01*
X106900000Y-118200000D02*
X90900000Y-118200000D01*
X90900000Y-100200000D02*
X106900000Y-100200000D01*
X85700000Y-46000000D02*
G75*
G02*
X86700000Y-46000000I500000J0D01*
G01*
X86700000Y-43000000D02*
G75*
G02*
X85700000Y-43000000I-500000J0D01*
G01*
X177000000Y-99200000D02*
G75*
G02*
X177000000Y-100200000I0J-500000D01*
G01*
X177000000Y-118200000D02*
G75*
G02*
X177000000Y-119200000I0J-500000D01*
G01*
X180950000Y-100200000D02*
G75*
G02*
X180950000Y-99200000I0J500000D01*
G01*
X180950000Y-119200000D02*
G75*
G02*
X180950000Y-118200000I0J500000D01*
G01*
X86700000Y-134300000D02*
G75*
G02*
X85700000Y-134300000I-500000J0D01*
G01*
X85700000Y-137300000D02*
G75*
G02*
X86700000Y-137300000I500000J0D01*
G01*
X85700000Y-81850000D02*
X85700000Y-85250000D01*
X86700000Y-85250000D02*
X86700000Y-81850000D01*
X86700000Y-78150000D02*
G75*
G02*
X85700000Y-78150000I-500000J0D01*
G01*
X85700000Y-81850000D02*
G75*
G02*
X86700000Y-81850000I500000J0D01*
G01*
X67100000Y-98700000D02*
X67100000Y-43000000D01*
X67100000Y-117700000D02*
X67100000Y-100700000D01*
X67100000Y-137300000D02*
X67100000Y-119700000D01*
X181450000Y-119700000D02*
X181450000Y-137300000D01*
X181450000Y-100700000D02*
X181450000Y-117700000D01*
X181450000Y-43000000D02*
X181450000Y-98700000D01*
X180950000Y-99200000D02*
G75*
G03*
X181450000Y-98700000I0J500000D01*
G01*
X181450000Y-100700000D02*
G75*
G03*
X180950000Y-100200000I-500000J0D01*
G01*
X180950000Y-118200000D02*
G75*
G03*
X181450000Y-117700000I0J500000D01*
G01*
X181450000Y-119700000D02*
G75*
G03*
X180950000Y-119200000I-500000J0D01*
G01*
X106900000Y-99200000D02*
G75*
G02*
X106900000Y-100200000I0J-500000D01*
G01*
X106900000Y-99200000D02*
X90900000Y-99200000D01*
X90900000Y-100200000D02*
G75*
G02*
X90900000Y-99200000I0J500000D01*
G01*
X85700000Y-88250000D02*
G75*
G02*
X86700000Y-88250000I500000J0D01*
G01*
X86700000Y-104250000D02*
G75*
G02*
X85700000Y-104250000I-500000J0D01*
G01*
X85200000Y-99200000D02*
X71900000Y-99200000D01*
X87200000Y-100200000D02*
X87900000Y-100200000D01*
X86700000Y-88250000D02*
X86700000Y-98700000D01*
X71900000Y-100200000D02*
X85200000Y-100200000D01*
X87900000Y-99200000D02*
X87200000Y-99200000D01*
X86700000Y-100700000D02*
X86700000Y-104250000D01*
X87200000Y-99200000D02*
G75*
G02*
X86700000Y-98700000I0J500000D01*
G01*
X86700000Y-100700000D02*
G75*
G02*
X87200000Y-100200000I500000J0D01*
G01*
X85700000Y-104250000D02*
X85700000Y-100700000D01*
X85700000Y-98700000D02*
X85700000Y-88250000D01*
X85700000Y-98700000D02*
G75*
G02*
X85200000Y-99200000I-500000J0D01*
G01*
X85200000Y-100200000D02*
G75*
G02*
X85700000Y-100700000I0J-500000D01*
G01*
X163900000Y-99200000D02*
X147900000Y-99200000D01*
X166900000Y-100200000D02*
G75*
G02*
X166900000Y-99200000I0J500000D01*
G01*
X67600000Y-99200000D02*
G75*
G02*
X67600000Y-100200000I0J-500000D01*
G01*
X71900000Y-100200000D02*
G75*
G02*
X71900000Y-99200000I0J500000D01*
G01*
X144900000Y-99200000D02*
X128900000Y-99200000D01*
X125900000Y-99200000D02*
G75*
G02*
X125900000Y-100200000I0J-500000D01*
G01*
X67600000Y-99200000D02*
G75*
G02*
X67100000Y-98700000I0J500000D01*
G01*
X166900000Y-100200000D02*
X177000000Y-100200000D01*
X177000000Y-99200000D02*
X166900000Y-99200000D01*
X67100000Y-100700000D02*
G75*
G02*
X67600000Y-100200000I500000J0D01*
G01*
X163900000Y-99200000D02*
G75*
G02*
X163900000Y-100200000I0J-500000D01*
G01*
X128900000Y-100200000D02*
G75*
G02*
X128900000Y-99200000I0J500000D01*
G01*
X109900000Y-100200000D02*
G75*
G02*
X109900000Y-99200000I0J500000D01*
G01*
X87900000Y-99200000D02*
G75*
G02*
X87900000Y-100200000I0J-500000D01*
G01*
X125900000Y-99200000D02*
X109900000Y-99200000D01*
X90900000Y-119200000D02*
G75*
G02*
X90900000Y-118200000I0J500000D01*
G01*
X106900000Y-118200000D02*
G75*
G02*
X106900000Y-119200000I0J-500000D01*
G01*
X86700000Y-107250000D02*
X86700000Y-117700000D01*
X85700000Y-117700000D02*
X85700000Y-107250000D01*
X71900000Y-119200000D02*
X85200000Y-119200000D01*
X85200000Y-118200000D02*
X71900000Y-118200000D01*
X87900000Y-118200000D02*
X87200000Y-118200000D01*
X87200000Y-119200000D02*
X87900000Y-119200000D01*
X86700000Y-119700000D02*
X86700000Y-123250000D01*
X85700000Y-123250000D02*
X85700000Y-119700000D01*
X85700000Y-117700000D02*
G75*
G02*
X85200000Y-118200000I-500000J0D01*
G01*
X87200000Y-118200000D02*
G75*
G02*
X86700000Y-117700000I0J500000D01*
G01*
X86700000Y-119700000D02*
G75*
G02*
X87200000Y-119200000I500000J0D01*
G01*
X85200000Y-119200000D02*
G75*
G02*
X85700000Y-119700000I0J-500000D01*
G01*
X166900000Y-119200000D02*
G75*
G02*
X166900000Y-118200000I0J500000D01*
G01*
X147900000Y-119200000D02*
G75*
G02*
X147900000Y-118200000I0J500000D01*
G01*
X166900000Y-119200000D02*
X177000000Y-119200000D01*
X177000000Y-118200000D02*
X166900000Y-118200000D01*
X163900000Y-118200000D02*
G75*
G02*
X163900000Y-119200000I0J-500000D01*
G01*
X67600000Y-118200000D02*
G75*
G02*
X67100000Y-117700000I0J500000D01*
G01*
X67600000Y-118200000D02*
G75*
G02*
X67600000Y-119200000I0J-500000D01*
G01*
X67100000Y-119700000D02*
G75*
G02*
X67600000Y-119200000I500000J0D01*
G01*
X125900000Y-118200000D02*
G75*
G02*
X125900000Y-119200000I0J-500000D01*
G01*
X109900000Y-119200000D02*
G75*
G02*
X109900000Y-118200000I0J500000D01*
G01*
X71900000Y-119200000D02*
G75*
G02*
X71900000Y-118200000I0J500000D01*
G01*
X144900000Y-118200000D02*
G75*
G02*
X144900000Y-119200000I0J-500000D01*
G01*
X87900000Y-118200000D02*
G75*
G02*
X87900000Y-119200000I0J-500000D01*
G01*
X181450000Y-43000000D02*
G75*
G03*
X180950000Y-42500000I-500000J0D01*
G01*
X181450000Y-137300000D02*
G75*
G02*
X180950000Y-137800000I-500000J0D01*
G01*
X67100000Y-43000000D02*
G75*
G02*
X67600000Y-42500000I500000J0D01*
G01*
X67100000Y-137300000D02*
G75*
G03*
X67600000Y-137800000I500000J0D01*
G01*
X87200000Y-42500000D02*
X180950000Y-42500000D01*
X86700000Y-46000000D02*
X86700000Y-53950000D01*
X86700000Y-53950000D02*
G75*
G02*
X85700000Y-53950000I-500000J0D01*
G01*
X86700000Y-43000000D02*
G75*
G02*
X87200000Y-42500000I500000J0D01*
G01*
X85700000Y-56950000D02*
X85700000Y-66250000D01*
X86700000Y-66250000D02*
X86700000Y-56950000D01*
X85700000Y-53950000D02*
X85700000Y-46000000D01*
X85200000Y-42500000D02*
G75*
G02*
X85700000Y-43000000I0J-500000D01*
G01*
X85700000Y-56950000D02*
G75*
G02*
X86700000Y-56950000I500000J0D01*
G01*
X85200000Y-42500000D02*
X67600000Y-42500000D01*
X86700000Y-85250000D02*
G75*
G02*
X85700000Y-85250000I-500000J0D01*
G01*
X86700000Y-123250000D02*
G75*
G02*
X85700000Y-123250000I-500000J0D01*
G01*
X85700000Y-126250000D02*
G75*
G02*
X86700000Y-126250000I500000J0D01*
G01*
X87200000Y-137800000D02*
G75*
G02*
X86700000Y-137300000I0J500000D01*
G01*
X85700000Y-107250000D02*
G75*
G02*
X86700000Y-107250000I500000J0D01*
G01*
X85700000Y-137300000D02*
G75*
G02*
X85200000Y-137800000I-500000J0D01*
G01*
X67600000Y-137800000D02*
X85200000Y-137800000D01*
X85700000Y-126250000D02*
X85700000Y-134300000D01*
X85700000Y-69725000D02*
X85700000Y-78150000D01*
X86700000Y-78150000D02*
X86700000Y-69725000D01*
X86700000Y-126250000D02*
X86700000Y-134300000D01*
X85700000Y-69725000D02*
G75*
G02*
X86700000Y-69725000I500000J0D01*
G01*
X86700000Y-66250000D02*
G75*
G02*
X85700000Y-66250000I-500000J0D01*
G01*
M02*
