M48
; DRILL file {KiCad (5.1.10)-1} date 04/05/22 14:22:21
; FORMAT={-:-/ absolute / metric / decimal}
; #@! TF.CreationDate,2022-04-05T14:22:21-05:00
; #@! TF.GenerationSoftware,Kicad,Pcbnew,(5.1.10)-1
; #@! TF.FileFunction,Plated,1,2,PTH
FMAT,2
METRIC
T1C0.400
T2C0.800
T3C0.900
T4C1.092
T5C3.200
%
G90
G05
T1
X70.0Y-76.0
X70.0Y-95.05
X70.0Y-114.1
X70.0Y-133.15
X82.2Y-47.1
X89.05Y-76.0
X89.05Y-95.05
X89.05Y-114.1
X89.05Y-133.15
X94.245Y-56.845
X101.09Y-47.26
X108.1Y-76.0
X108.1Y-95.05
X108.1Y-114.1
X108.1Y-133.15
X118.342Y-56.125
X120.3Y-47.1
X125.15Y-86.95
X126.375Y-84.125
X126.4Y-82.3
X127.15Y-76.0
X127.15Y-95.05
X127.15Y-114.1
X127.15Y-133.15
X128.0Y-83.1
X140.5Y-84.925
X144.9Y-105.8
X145.0Y-124.8
X145.119Y-84.0
X146.2Y-76.0
X146.2Y-95.05
X146.2Y-133.15
X146.8Y-114.075
X158.4Y-47.1
X165.25Y-76.0
X165.25Y-95.05
X165.25Y-114.1
X165.25Y-133.15
X166.1Y-57.9
X177.45Y-47.1
T2
X128.875Y-63.55
X128.885Y-60.3
X139.035Y-63.55
X139.045Y-60.3
T4
X126.155Y-45.18
X126.155Y-52.8
X126.155Y-55.34
X126.155Y-57.88
X126.155Y-60.42
X126.155Y-62.96
X126.155Y-65.5
X126.155Y-68.04
X126.155Y-70.58
X126.155Y-73.12
X141.395Y-50.26
X141.395Y-52.8
X141.395Y-55.34
X141.395Y-57.88
X141.395Y-60.42
X141.395Y-62.96
X141.395Y-65.5
X141.395Y-68.04
X141.395Y-70.58
T5
X86.175Y-61.575
X86.175Y-99.675
X86.175Y-118.725
X105.225Y-61.575
X105.225Y-80.625
X105.225Y-99.675
X105.225Y-118.725
X162.375Y-61.575
X162.375Y-80.625
X162.375Y-99.675
X162.375Y-118.725
T3
X70.55Y-83.5G85X70.15Y-83.5
G05
X73.55Y-83.5G85X73.15Y-83.5
G05
X77.55Y-83.5G85X77.15Y-83.5
G05
X78.65Y-78.9G85X78.25Y-78.9
G05
X89.55Y-83.5G85X89.15Y-83.5
G05
X92.55Y-83.5G85X92.15Y-83.5
G05
X96.55Y-83.5G85X96.15Y-83.5
G05
X97.65Y-78.9G85X97.25Y-78.9
G05
X169.9Y-83.5G85X170.3Y-83.5
G05
X171.0Y-78.9G85X171.4Y-78.9
G05
X175.0Y-78.9G85X175.4Y-78.9
G05
X178.0Y-78.9G85X178.4Y-78.9
G05
T0
M30
