%TF.GenerationSoftware,KiCad,Pcbnew,(5.1.10)-1*%
%TF.CreationDate,2022-04-05T14:22:13-05:00*%
%TF.ProjectId,graham cracker,67726168-616d-4206-9372-61636b65722e,rev?*%
%TF.SameCoordinates,Original*%
%TF.FileFunction,Legend,Bot*%
%TF.FilePolarity,Positive*%
%FSLAX46Y46*%
G04 Gerber Fmt 4.6, Leading zero omitted, Abs format (unit mm)*
G04 Created by KiCad (PCBNEW (5.1.10)-1) date 2022-04-05 14:22:13*
%MOMM*%
%LPD*%
G01*
G04 APERTURE LIST*
%ADD10C,0.150000*%
%ADD11C,0.120000*%
%ADD12C,0.300000*%
%ADD13C,0.200000*%
%ADD14C,0.381000*%
%ADD15R,1.200000X1.200000*%
%ADD16R,2.550000X2.500000*%
%ADD17C,3.980180*%
%ADD18C,2.950000*%
%ADD19C,1.700000*%
%ADD20O,2.000000X1.600000*%
%ADD21C,0.800000*%
%ADD22C,4.000000*%
%ADD23C,1.752600*%
%ADD24O,1.600000X1.600000*%
%ADD25C,1.600000*%
G04 APERTURE END LIST*
D10*
X73555952Y-64202380D02*
X73651190Y-64392857D01*
X73175000Y-64297619D02*
X73127380Y-64250000D01*
X73032142Y-64202380D01*
X72794047Y-64202380D01*
X72698809Y-64250000D01*
X72651190Y-64297619D01*
X72603571Y-64392857D01*
X72603571Y-64488095D01*
X72651190Y-64630952D01*
X73222619Y-65202380D01*
X72603571Y-65202380D01*
X72222619Y-64297619D02*
X72175000Y-64250000D01*
X72079761Y-64202380D01*
X71841666Y-64202380D01*
X71746428Y-64250000D01*
X71698809Y-64297619D01*
X71651190Y-64392857D01*
X71651190Y-64488095D01*
X71698809Y-64630952D01*
X72270238Y-65202380D01*
X71651190Y-65202380D01*
X70555952Y-64535714D02*
X70317857Y-65202380D01*
X70079761Y-64535714D01*
X69698809Y-65107142D02*
X69651190Y-65154761D01*
X69698809Y-65202380D01*
X69746428Y-65154761D01*
X69698809Y-65107142D01*
X69698809Y-65202380D01*
X68698809Y-65202380D02*
X69270238Y-65202380D01*
X68984523Y-65202380D02*
X68984523Y-64202380D01*
X69079761Y-64345238D01*
X69175000Y-64440476D01*
X69270238Y-64488095D01*
X73964285Y-60260714D02*
X73964285Y-61260714D01*
X73964285Y-60879761D02*
X74059523Y-60927380D01*
X74250000Y-60927380D01*
X74345238Y-60879761D01*
X74392857Y-60832142D01*
X74440476Y-60736904D01*
X74440476Y-60451190D01*
X74392857Y-60355952D01*
X74345238Y-60308333D01*
X74250000Y-60260714D01*
X74059523Y-60260714D01*
X73964285Y-60308333D01*
X73583333Y-60260714D02*
X73392857Y-60927380D01*
X73202380Y-60451190D01*
X73011904Y-60927380D01*
X72821428Y-60260714D01*
X72011904Y-60927380D02*
X72011904Y-60403571D01*
X72059523Y-60308333D01*
X72154761Y-60260714D01*
X72345238Y-60260714D01*
X72440476Y-60308333D01*
X72011904Y-60879761D02*
X72107142Y-60927380D01*
X72345238Y-60927380D01*
X72440476Y-60879761D01*
X72488095Y-60784523D01*
X72488095Y-60689285D01*
X72440476Y-60594047D01*
X72345238Y-60546428D01*
X72107142Y-60546428D01*
X72011904Y-60498809D01*
X71535714Y-60927380D02*
X71535714Y-59927380D01*
X71107142Y-60927380D02*
X71107142Y-60403571D01*
X71154761Y-60308333D01*
X71250000Y-60260714D01*
X71392857Y-60260714D01*
X71488095Y-60308333D01*
X71535714Y-60355952D01*
X70773809Y-60260714D02*
X70392857Y-60260714D01*
X70630952Y-59927380D02*
X70630952Y-60784523D01*
X70583333Y-60879761D01*
X70488095Y-60927380D01*
X70392857Y-60927380D01*
X70059523Y-60927380D02*
X70059523Y-60260714D01*
X70059523Y-60451190D02*
X70011904Y-60355952D01*
X69964285Y-60308333D01*
X69869047Y-60260714D01*
X69773809Y-60260714D01*
X69297619Y-60927380D02*
X69392857Y-60879761D01*
X69440476Y-60832142D01*
X69488095Y-60736904D01*
X69488095Y-60451190D01*
X69440476Y-60355952D01*
X69392857Y-60308333D01*
X69297619Y-60260714D01*
X69154761Y-60260714D01*
X69059523Y-60308333D01*
X69011904Y-60355952D01*
X68964285Y-60451190D01*
X68964285Y-60736904D01*
X69011904Y-60832142D01*
X69059523Y-60879761D01*
X69154761Y-60927380D01*
X69297619Y-60927380D01*
X68535714Y-60927380D02*
X68535714Y-59927380D01*
X68107142Y-60927380D02*
X68107142Y-60403571D01*
X68154761Y-60308333D01*
X68250000Y-60260714D01*
X68392857Y-60260714D01*
X68488095Y-60308333D01*
X68535714Y-60355952D01*
X179805952Y-64302380D02*
X179901190Y-64492857D01*
X179425000Y-64397619D02*
X179377380Y-64350000D01*
X179282142Y-64302380D01*
X179044047Y-64302380D01*
X178948809Y-64350000D01*
X178901190Y-64397619D01*
X178853571Y-64492857D01*
X178853571Y-64588095D01*
X178901190Y-64730952D01*
X179472619Y-65302380D01*
X178853571Y-65302380D01*
X178472619Y-64397619D02*
X178425000Y-64350000D01*
X178329761Y-64302380D01*
X178091666Y-64302380D01*
X177996428Y-64350000D01*
X177948809Y-64397619D01*
X177901190Y-64492857D01*
X177901190Y-64588095D01*
X177948809Y-64730952D01*
X178520238Y-65302380D01*
X177901190Y-65302380D01*
X176805952Y-64635714D02*
X176567857Y-65302380D01*
X176329761Y-64635714D01*
X175948809Y-65207142D02*
X175901190Y-65254761D01*
X175948809Y-65302380D01*
X175996428Y-65254761D01*
X175948809Y-65207142D01*
X175948809Y-65302380D01*
X174948809Y-65302380D02*
X175520238Y-65302380D01*
X175234523Y-65302380D02*
X175234523Y-64302380D01*
X175329761Y-64445238D01*
X175425000Y-64540476D01*
X175520238Y-64588095D01*
X180214285Y-60360714D02*
X180214285Y-61360714D01*
X180214285Y-60979761D02*
X180309523Y-61027380D01*
X180500000Y-61027380D01*
X180595238Y-60979761D01*
X180642857Y-60932142D01*
X180690476Y-60836904D01*
X180690476Y-60551190D01*
X180642857Y-60455952D01*
X180595238Y-60408333D01*
X180500000Y-60360714D01*
X180309523Y-60360714D01*
X180214285Y-60408333D01*
X179833333Y-60360714D02*
X179642857Y-61027380D01*
X179452380Y-60551190D01*
X179261904Y-61027380D01*
X179071428Y-60360714D01*
X178261904Y-61027380D02*
X178261904Y-60503571D01*
X178309523Y-60408333D01*
X178404761Y-60360714D01*
X178595238Y-60360714D01*
X178690476Y-60408333D01*
X178261904Y-60979761D02*
X178357142Y-61027380D01*
X178595238Y-61027380D01*
X178690476Y-60979761D01*
X178738095Y-60884523D01*
X178738095Y-60789285D01*
X178690476Y-60694047D01*
X178595238Y-60646428D01*
X178357142Y-60646428D01*
X178261904Y-60598809D01*
X177785714Y-61027380D02*
X177785714Y-60027380D01*
X177357142Y-61027380D02*
X177357142Y-60503571D01*
X177404761Y-60408333D01*
X177500000Y-60360714D01*
X177642857Y-60360714D01*
X177738095Y-60408333D01*
X177785714Y-60455952D01*
X177023809Y-60360714D02*
X176642857Y-60360714D01*
X176880952Y-60027380D02*
X176880952Y-60884523D01*
X176833333Y-60979761D01*
X176738095Y-61027380D01*
X176642857Y-61027380D01*
X176309523Y-61027380D02*
X176309523Y-60360714D01*
X176309523Y-60551190D02*
X176261904Y-60455952D01*
X176214285Y-60408333D01*
X176119047Y-60360714D01*
X176023809Y-60360714D01*
X175547619Y-61027380D02*
X175642857Y-60979761D01*
X175690476Y-60932142D01*
X175738095Y-60836904D01*
X175738095Y-60551190D01*
X175690476Y-60455952D01*
X175642857Y-60408333D01*
X175547619Y-60360714D01*
X175404761Y-60360714D01*
X175309523Y-60408333D01*
X175261904Y-60455952D01*
X175214285Y-60551190D01*
X175214285Y-60836904D01*
X175261904Y-60932142D01*
X175309523Y-60979761D01*
X175404761Y-61027380D01*
X175547619Y-61027380D01*
X174785714Y-61027380D02*
X174785714Y-60027380D01*
X174357142Y-61027380D02*
X174357142Y-60503571D01*
X174404761Y-60408333D01*
X174500000Y-60360714D01*
X174642857Y-60360714D01*
X174738095Y-60408333D01*
X174785714Y-60455952D01*
D11*
X79393750Y-61581250D02*
X88393750Y-61581250D01*
X88393750Y-61581250D02*
X88393750Y-63681250D01*
D12*
X78179464Y-61931250D02*
X78322321Y-61859821D01*
X78536607Y-61859821D01*
X78750892Y-61931250D01*
X78893750Y-62074107D01*
X78965178Y-62216964D01*
X79036607Y-62502678D01*
X79036607Y-62716964D01*
X78965178Y-63002678D01*
X78893750Y-63145535D01*
X78750892Y-63288392D01*
X78536607Y-63359821D01*
X78393750Y-63359821D01*
X78179464Y-63288392D01*
X78108035Y-63216964D01*
X78108035Y-62716964D01*
X78393750Y-62716964D01*
X76608035Y-63359821D02*
X77108035Y-62645535D01*
X77465178Y-63359821D02*
X77465178Y-61859821D01*
X76893750Y-61859821D01*
X76750892Y-61931250D01*
X76679464Y-62002678D01*
X76608035Y-62145535D01*
X76608035Y-62359821D01*
X76679464Y-62502678D01*
X76750892Y-62574107D01*
X76893750Y-62645535D01*
X77465178Y-62645535D01*
X76036607Y-62931250D02*
X75322321Y-62931250D01*
X76179464Y-63359821D02*
X75679464Y-61859821D01*
X75179464Y-63359821D01*
X74679464Y-63359821D02*
X74679464Y-61859821D01*
X74679464Y-62574107D02*
X73822321Y-62574107D01*
X73822321Y-63359821D02*
X73822321Y-61859821D01*
X73179464Y-62931250D02*
X72465178Y-62931250D01*
X73322321Y-63359821D02*
X72822321Y-61859821D01*
X72322321Y-63359821D01*
X71822321Y-63359821D02*
X71822321Y-61859821D01*
X71322321Y-62931250D01*
X70822321Y-61859821D01*
X70822321Y-63359821D01*
X82679464Y-64031250D02*
X82822321Y-63959821D01*
X83036607Y-63959821D01*
X83250892Y-64031250D01*
X83393750Y-64174107D01*
X83465178Y-64316964D01*
X83536607Y-64602678D01*
X83536607Y-64816964D01*
X83465178Y-65102678D01*
X83393750Y-65245535D01*
X83250892Y-65388392D01*
X83036607Y-65459821D01*
X82893750Y-65459821D01*
X82679464Y-65388392D01*
X82608035Y-65316964D01*
X82608035Y-64816964D01*
X82893750Y-64816964D01*
X81108035Y-65459821D02*
X81608035Y-64745535D01*
X81965178Y-65459821D02*
X81965178Y-63959821D01*
X81393750Y-63959821D01*
X81250892Y-64031250D01*
X81179464Y-64102678D01*
X81108035Y-64245535D01*
X81108035Y-64459821D01*
X81179464Y-64602678D01*
X81250892Y-64674107D01*
X81393750Y-64745535D01*
X81965178Y-64745535D01*
X80536607Y-65031250D02*
X79822321Y-65031250D01*
X80679464Y-65459821D02*
X80179464Y-63959821D01*
X79679464Y-65459821D01*
X79179464Y-65459821D02*
X79179464Y-63959821D01*
X79179464Y-64674107D02*
X78322321Y-64674107D01*
X78322321Y-65459821D02*
X78322321Y-63959821D01*
X77679464Y-65031250D02*
X76965178Y-65031250D01*
X77822321Y-65459821D02*
X77322321Y-63959821D01*
X76822321Y-65459821D01*
X76322321Y-65459821D02*
X76322321Y-63959821D01*
X75822321Y-65031250D01*
X75322321Y-63959821D01*
X75322321Y-65459821D01*
D11*
X70393750Y-61581250D02*
X70393750Y-63681250D01*
X79393750Y-57381250D02*
X79393750Y-59481250D01*
X79393750Y-63681250D02*
X70393750Y-63681250D01*
X83893750Y-61581250D02*
X74893750Y-61581250D01*
X83893750Y-59481250D02*
X83893750Y-61581250D01*
X74893750Y-61581250D02*
X74893750Y-59481250D01*
X70393750Y-63681250D02*
X70393750Y-61581250D01*
X70393750Y-57381250D02*
X70393750Y-59481250D01*
X83893750Y-65781250D02*
X74893750Y-65781250D01*
X74893750Y-63681250D02*
X83893750Y-63681250D01*
X79393750Y-63681250D02*
X79393750Y-61581250D01*
X70393750Y-59481250D02*
X70393750Y-57381250D01*
X83893750Y-65781250D02*
X83893750Y-63681250D01*
X74893750Y-65781250D02*
X74893750Y-63681250D01*
X74893750Y-59481250D02*
X74893750Y-61581250D01*
X74893750Y-65781250D02*
X79393750Y-65781250D01*
X70393750Y-57381250D02*
X79393750Y-57381250D01*
X79393750Y-59481250D02*
X70393750Y-59481250D01*
X92893750Y-65781250D02*
X83893750Y-65781250D01*
X70393750Y-63681250D02*
X74893750Y-63681250D01*
X74893750Y-61581250D02*
X79393750Y-61581250D01*
X83893750Y-63681250D02*
X83893750Y-65781250D01*
X79393750Y-63681250D02*
X83893750Y-63681250D01*
X74893750Y-59481250D02*
X83893750Y-59481250D01*
X88393750Y-63681250D02*
X79393750Y-63681250D01*
X70393750Y-59481250D02*
X74893750Y-59481250D01*
X70393750Y-61581250D02*
X79393750Y-61581250D01*
X79393750Y-61581250D02*
X79393750Y-63681250D01*
X74893750Y-63681250D02*
X74893750Y-65781250D01*
X92893750Y-63681250D02*
X92893750Y-65781250D01*
X83893750Y-63681250D02*
X92893750Y-63681250D01*
X83893750Y-65781250D02*
X88393750Y-65781250D01*
D12*
X82679464Y-59831250D02*
X82822321Y-59759821D01*
X83036607Y-59759821D01*
X83250892Y-59831250D01*
X83393750Y-59974107D01*
X83465178Y-60116964D01*
X83536607Y-60402678D01*
X83536607Y-60616964D01*
X83465178Y-60902678D01*
X83393750Y-61045535D01*
X83250892Y-61188392D01*
X83036607Y-61259821D01*
X82893750Y-61259821D01*
X82679464Y-61188392D01*
X82608035Y-61116964D01*
X82608035Y-60616964D01*
X82893750Y-60616964D01*
X81108035Y-61259821D02*
X81608035Y-60545535D01*
X81965178Y-61259821D02*
X81965178Y-59759821D01*
X81393750Y-59759821D01*
X81250892Y-59831250D01*
X81179464Y-59902678D01*
X81108035Y-60045535D01*
X81108035Y-60259821D01*
X81179464Y-60402678D01*
X81250892Y-60474107D01*
X81393750Y-60545535D01*
X81965178Y-60545535D01*
X80536607Y-60831250D02*
X79822321Y-60831250D01*
X80679464Y-61259821D02*
X80179464Y-59759821D01*
X79679464Y-61259821D01*
X79179464Y-61259821D02*
X79179464Y-59759821D01*
X79179464Y-60474107D02*
X78322321Y-60474107D01*
X78322321Y-61259821D02*
X78322321Y-59759821D01*
X77679464Y-60831250D02*
X76965178Y-60831250D01*
X77822321Y-61259821D02*
X77322321Y-59759821D01*
X76822321Y-61259821D01*
X76322321Y-61259821D02*
X76322321Y-59759821D01*
X75822321Y-60831250D01*
X75322321Y-59759821D01*
X75322321Y-61259821D01*
X87179464Y-61931250D02*
X87322321Y-61859821D01*
X87536607Y-61859821D01*
X87750892Y-61931250D01*
X87893750Y-62074107D01*
X87965178Y-62216964D01*
X88036607Y-62502678D01*
X88036607Y-62716964D01*
X87965178Y-63002678D01*
X87893750Y-63145535D01*
X87750892Y-63288392D01*
X87536607Y-63359821D01*
X87393750Y-63359821D01*
X87179464Y-63288392D01*
X87108035Y-63216964D01*
X87108035Y-62716964D01*
X87393750Y-62716964D01*
X85608035Y-63359821D02*
X86108035Y-62645535D01*
X86465178Y-63359821D02*
X86465178Y-61859821D01*
X85893750Y-61859821D01*
X85750892Y-61931250D01*
X85679464Y-62002678D01*
X85608035Y-62145535D01*
X85608035Y-62359821D01*
X85679464Y-62502678D01*
X85750892Y-62574107D01*
X85893750Y-62645535D01*
X86465178Y-62645535D01*
X85036607Y-62931250D02*
X84322321Y-62931250D01*
X85179464Y-63359821D02*
X84679464Y-61859821D01*
X84179464Y-63359821D01*
X83679464Y-63359821D02*
X83679464Y-61859821D01*
X83679464Y-62574107D02*
X82822321Y-62574107D01*
X82822321Y-63359821D02*
X82822321Y-61859821D01*
X82179464Y-62931250D02*
X81465178Y-62931250D01*
X82322321Y-63359821D02*
X81822321Y-61859821D01*
X81322321Y-63359821D01*
X80822321Y-63359821D02*
X80822321Y-61859821D01*
X80322321Y-62931250D01*
X79822321Y-61859821D01*
X79822321Y-63359821D01*
X91679464Y-64031250D02*
X91822321Y-63959821D01*
X92036607Y-63959821D01*
X92250892Y-64031250D01*
X92393750Y-64174107D01*
X92465178Y-64316964D01*
X92536607Y-64602678D01*
X92536607Y-64816964D01*
X92465178Y-65102678D01*
X92393750Y-65245535D01*
X92250892Y-65388392D01*
X92036607Y-65459821D01*
X91893750Y-65459821D01*
X91679464Y-65388392D01*
X91608035Y-65316964D01*
X91608035Y-64816964D01*
X91893750Y-64816964D01*
X90108035Y-65459821D02*
X90608035Y-64745535D01*
X90965178Y-65459821D02*
X90965178Y-63959821D01*
X90393750Y-63959821D01*
X90250892Y-64031250D01*
X90179464Y-64102678D01*
X90108035Y-64245535D01*
X90108035Y-64459821D01*
X90179464Y-64602678D01*
X90250892Y-64674107D01*
X90393750Y-64745535D01*
X90965178Y-64745535D01*
X89536607Y-65031250D02*
X88822321Y-65031250D01*
X89679464Y-65459821D02*
X89179464Y-63959821D01*
X88679464Y-65459821D01*
X88179464Y-65459821D02*
X88179464Y-63959821D01*
X88179464Y-64674107D02*
X87322321Y-64674107D01*
X87322321Y-65459821D02*
X87322321Y-63959821D01*
X86679464Y-65031250D02*
X85965178Y-65031250D01*
X86822321Y-65459821D02*
X86322321Y-63959821D01*
X85822321Y-65459821D01*
X85322321Y-65459821D02*
X85322321Y-63959821D01*
X84822321Y-65031250D01*
X84322321Y-63959821D01*
X84322321Y-65459821D01*
X78179464Y-57731250D02*
X78322321Y-57659821D01*
X78536607Y-57659821D01*
X78750892Y-57731250D01*
X78893750Y-57874107D01*
X78965178Y-58016964D01*
X79036607Y-58302678D01*
X79036607Y-58516964D01*
X78965178Y-58802678D01*
X78893750Y-58945535D01*
X78750892Y-59088392D01*
X78536607Y-59159821D01*
X78393750Y-59159821D01*
X78179464Y-59088392D01*
X78108035Y-59016964D01*
X78108035Y-58516964D01*
X78393750Y-58516964D01*
X76608035Y-59159821D02*
X77108035Y-58445535D01*
X77465178Y-59159821D02*
X77465178Y-57659821D01*
X76893750Y-57659821D01*
X76750892Y-57731250D01*
X76679464Y-57802678D01*
X76608035Y-57945535D01*
X76608035Y-58159821D01*
X76679464Y-58302678D01*
X76750892Y-58374107D01*
X76893750Y-58445535D01*
X77465178Y-58445535D01*
X76036607Y-58731250D02*
X75322321Y-58731250D01*
X76179464Y-59159821D02*
X75679464Y-57659821D01*
X75179464Y-59159821D01*
X74679464Y-59159821D02*
X74679464Y-57659821D01*
X74679464Y-58374107D02*
X73822321Y-58374107D01*
X73822321Y-59159821D02*
X73822321Y-57659821D01*
X73179464Y-58731250D02*
X72465178Y-58731250D01*
X73322321Y-59159821D02*
X72822321Y-57659821D01*
X72322321Y-59159821D01*
X71822321Y-59159821D02*
X71822321Y-57659821D01*
X71322321Y-58731250D01*
X70822321Y-57659821D01*
X70822321Y-59159821D01*
D11*
X106393750Y-61581250D02*
X115393750Y-61581250D01*
X115393750Y-61581250D02*
X115393750Y-63681250D01*
D12*
X100679464Y-64031250D02*
X100822321Y-63959821D01*
X101036607Y-63959821D01*
X101250892Y-64031250D01*
X101393750Y-64174107D01*
X101465178Y-64316964D01*
X101536607Y-64602678D01*
X101536607Y-64816964D01*
X101465178Y-65102678D01*
X101393750Y-65245535D01*
X101250892Y-65388392D01*
X101036607Y-65459821D01*
X100893750Y-65459821D01*
X100679464Y-65388392D01*
X100608035Y-65316964D01*
X100608035Y-64816964D01*
X100893750Y-64816964D01*
X99108035Y-65459821D02*
X99608035Y-64745535D01*
X99965178Y-65459821D02*
X99965178Y-63959821D01*
X99393750Y-63959821D01*
X99250892Y-64031250D01*
X99179464Y-64102678D01*
X99108035Y-64245535D01*
X99108035Y-64459821D01*
X99179464Y-64602678D01*
X99250892Y-64674107D01*
X99393750Y-64745535D01*
X99965178Y-64745535D01*
X98536607Y-65031250D02*
X97822321Y-65031250D01*
X98679464Y-65459821D02*
X98179464Y-63959821D01*
X97679464Y-65459821D01*
X97179464Y-65459821D02*
X97179464Y-63959821D01*
X97179464Y-64674107D02*
X96322321Y-64674107D01*
X96322321Y-65459821D02*
X96322321Y-63959821D01*
X95679464Y-65031250D02*
X94965178Y-65031250D01*
X95822321Y-65459821D02*
X95322321Y-63959821D01*
X94822321Y-65459821D01*
X94322321Y-65459821D02*
X94322321Y-63959821D01*
X93822321Y-65031250D01*
X93322321Y-63959821D01*
X93322321Y-65459821D01*
X96179464Y-61931250D02*
X96322321Y-61859821D01*
X96536607Y-61859821D01*
X96750892Y-61931250D01*
X96893750Y-62074107D01*
X96965178Y-62216964D01*
X97036607Y-62502678D01*
X97036607Y-62716964D01*
X96965178Y-63002678D01*
X96893750Y-63145535D01*
X96750892Y-63288392D01*
X96536607Y-63359821D01*
X96393750Y-63359821D01*
X96179464Y-63288392D01*
X96108035Y-63216964D01*
X96108035Y-62716964D01*
X96393750Y-62716964D01*
X94608035Y-63359821D02*
X95108035Y-62645535D01*
X95465178Y-63359821D02*
X95465178Y-61859821D01*
X94893750Y-61859821D01*
X94750892Y-61931250D01*
X94679464Y-62002678D01*
X94608035Y-62145535D01*
X94608035Y-62359821D01*
X94679464Y-62502678D01*
X94750892Y-62574107D01*
X94893750Y-62645535D01*
X95465178Y-62645535D01*
X94036607Y-62931250D02*
X93322321Y-62931250D01*
X94179464Y-63359821D02*
X93679464Y-61859821D01*
X93179464Y-63359821D01*
X92679464Y-63359821D02*
X92679464Y-61859821D01*
X92679464Y-62574107D02*
X91822321Y-62574107D01*
X91822321Y-63359821D02*
X91822321Y-61859821D01*
X91179464Y-62931250D02*
X90465178Y-62931250D01*
X91322321Y-63359821D02*
X90822321Y-61859821D01*
X90322321Y-63359821D01*
X89822321Y-63359821D02*
X89822321Y-61859821D01*
X89322321Y-62931250D01*
X88822321Y-61859821D01*
X88822321Y-63359821D01*
X87179464Y-57731250D02*
X87322321Y-57659821D01*
X87536607Y-57659821D01*
X87750892Y-57731250D01*
X87893750Y-57874107D01*
X87965178Y-58016964D01*
X88036607Y-58302678D01*
X88036607Y-58516964D01*
X87965178Y-58802678D01*
X87893750Y-58945535D01*
X87750892Y-59088392D01*
X87536607Y-59159821D01*
X87393750Y-59159821D01*
X87179464Y-59088392D01*
X87108035Y-59016964D01*
X87108035Y-58516964D01*
X87393750Y-58516964D01*
X85608035Y-59159821D02*
X86108035Y-58445535D01*
X86465178Y-59159821D02*
X86465178Y-57659821D01*
X85893750Y-57659821D01*
X85750892Y-57731250D01*
X85679464Y-57802678D01*
X85608035Y-57945535D01*
X85608035Y-58159821D01*
X85679464Y-58302678D01*
X85750892Y-58374107D01*
X85893750Y-58445535D01*
X86465178Y-58445535D01*
X85036607Y-58731250D02*
X84322321Y-58731250D01*
X85179464Y-59159821D02*
X84679464Y-57659821D01*
X84179464Y-59159821D01*
X83679464Y-59159821D02*
X83679464Y-57659821D01*
X83679464Y-58374107D02*
X82822321Y-58374107D01*
X82822321Y-59159821D02*
X82822321Y-57659821D01*
X82179464Y-58731250D02*
X81465178Y-58731250D01*
X82322321Y-59159821D02*
X81822321Y-57659821D01*
X81322321Y-59159821D01*
X80822321Y-59159821D02*
X80822321Y-57659821D01*
X80322321Y-58731250D01*
X79822321Y-57659821D01*
X79822321Y-59159821D01*
X105179464Y-61931250D02*
X105322321Y-61859821D01*
X105536607Y-61859821D01*
X105750892Y-61931250D01*
X105893750Y-62074107D01*
X105965178Y-62216964D01*
X106036607Y-62502678D01*
X106036607Y-62716964D01*
X105965178Y-63002678D01*
X105893750Y-63145535D01*
X105750892Y-63288392D01*
X105536607Y-63359821D01*
X105393750Y-63359821D01*
X105179464Y-63288392D01*
X105108035Y-63216964D01*
X105108035Y-62716964D01*
X105393750Y-62716964D01*
X103608035Y-63359821D02*
X104108035Y-62645535D01*
X104465178Y-63359821D02*
X104465178Y-61859821D01*
X103893750Y-61859821D01*
X103750892Y-61931250D01*
X103679464Y-62002678D01*
X103608035Y-62145535D01*
X103608035Y-62359821D01*
X103679464Y-62502678D01*
X103750892Y-62574107D01*
X103893750Y-62645535D01*
X104465178Y-62645535D01*
X103036607Y-62931250D02*
X102322321Y-62931250D01*
X103179464Y-63359821D02*
X102679464Y-61859821D01*
X102179464Y-63359821D01*
X101679464Y-63359821D02*
X101679464Y-61859821D01*
X101679464Y-62574107D02*
X100822321Y-62574107D01*
X100822321Y-63359821D02*
X100822321Y-61859821D01*
X100179464Y-62931250D02*
X99465178Y-62931250D01*
X100322321Y-63359821D02*
X99822321Y-61859821D01*
X99322321Y-63359821D01*
X98822321Y-63359821D02*
X98822321Y-61859821D01*
X98322321Y-62931250D01*
X97822321Y-61859821D01*
X97822321Y-63359821D01*
X96179464Y-57731250D02*
X96322321Y-57659821D01*
X96536607Y-57659821D01*
X96750892Y-57731250D01*
X96893750Y-57874107D01*
X96965178Y-58016964D01*
X97036607Y-58302678D01*
X97036607Y-58516964D01*
X96965178Y-58802678D01*
X96893750Y-58945535D01*
X96750892Y-59088392D01*
X96536607Y-59159821D01*
X96393750Y-59159821D01*
X96179464Y-59088392D01*
X96108035Y-59016964D01*
X96108035Y-58516964D01*
X96393750Y-58516964D01*
X94608035Y-59159821D02*
X95108035Y-58445535D01*
X95465178Y-59159821D02*
X95465178Y-57659821D01*
X94893750Y-57659821D01*
X94750892Y-57731250D01*
X94679464Y-57802678D01*
X94608035Y-57945535D01*
X94608035Y-58159821D01*
X94679464Y-58302678D01*
X94750892Y-58374107D01*
X94893750Y-58445535D01*
X95465178Y-58445535D01*
X94036607Y-58731250D02*
X93322321Y-58731250D01*
X94179464Y-59159821D02*
X93679464Y-57659821D01*
X93179464Y-59159821D01*
X92679464Y-59159821D02*
X92679464Y-57659821D01*
X92679464Y-58374107D02*
X91822321Y-58374107D01*
X91822321Y-59159821D02*
X91822321Y-57659821D01*
X91179464Y-58731250D02*
X90465178Y-58731250D01*
X91322321Y-59159821D02*
X90822321Y-57659821D01*
X90322321Y-59159821D01*
X89822321Y-59159821D02*
X89822321Y-57659821D01*
X89322321Y-58731250D01*
X88822321Y-57659821D01*
X88822321Y-59159821D01*
X100679464Y-59831250D02*
X100822321Y-59759821D01*
X101036607Y-59759821D01*
X101250892Y-59831250D01*
X101393750Y-59974107D01*
X101465178Y-60116964D01*
X101536607Y-60402678D01*
X101536607Y-60616964D01*
X101465178Y-60902678D01*
X101393750Y-61045535D01*
X101250892Y-61188392D01*
X101036607Y-61259821D01*
X100893750Y-61259821D01*
X100679464Y-61188392D01*
X100608035Y-61116964D01*
X100608035Y-60616964D01*
X100893750Y-60616964D01*
X99108035Y-61259821D02*
X99608035Y-60545535D01*
X99965178Y-61259821D02*
X99965178Y-59759821D01*
X99393750Y-59759821D01*
X99250892Y-59831250D01*
X99179464Y-59902678D01*
X99108035Y-60045535D01*
X99108035Y-60259821D01*
X99179464Y-60402678D01*
X99250892Y-60474107D01*
X99393750Y-60545535D01*
X99965178Y-60545535D01*
X98536607Y-60831250D02*
X97822321Y-60831250D01*
X98679464Y-61259821D02*
X98179464Y-59759821D01*
X97679464Y-61259821D01*
X97179464Y-61259821D02*
X97179464Y-59759821D01*
X97179464Y-60474107D02*
X96322321Y-60474107D01*
X96322321Y-61259821D02*
X96322321Y-59759821D01*
X95679464Y-60831250D02*
X94965178Y-60831250D01*
X95822321Y-61259821D02*
X95322321Y-59759821D01*
X94822321Y-61259821D01*
X94322321Y-61259821D02*
X94322321Y-59759821D01*
X93822321Y-60831250D01*
X93322321Y-59759821D01*
X93322321Y-61259821D01*
X91679464Y-59831250D02*
X91822321Y-59759821D01*
X92036607Y-59759821D01*
X92250892Y-59831250D01*
X92393750Y-59974107D01*
X92465178Y-60116964D01*
X92536607Y-60402678D01*
X92536607Y-60616964D01*
X92465178Y-60902678D01*
X92393750Y-61045535D01*
X92250892Y-61188392D01*
X92036607Y-61259821D01*
X91893750Y-61259821D01*
X91679464Y-61188392D01*
X91608035Y-61116964D01*
X91608035Y-60616964D01*
X91893750Y-60616964D01*
X90108035Y-61259821D02*
X90608035Y-60545535D01*
X90965178Y-61259821D02*
X90965178Y-59759821D01*
X90393750Y-59759821D01*
X90250892Y-59831250D01*
X90179464Y-59902678D01*
X90108035Y-60045535D01*
X90108035Y-60259821D01*
X90179464Y-60402678D01*
X90250892Y-60474107D01*
X90393750Y-60545535D01*
X90965178Y-60545535D01*
X89536607Y-60831250D02*
X88822321Y-60831250D01*
X89679464Y-61259821D02*
X89179464Y-59759821D01*
X88679464Y-61259821D01*
X88179464Y-61259821D02*
X88179464Y-59759821D01*
X88179464Y-60474107D02*
X87322321Y-60474107D01*
X87322321Y-61259821D02*
X87322321Y-59759821D01*
X86679464Y-60831250D02*
X85965178Y-60831250D01*
X86822321Y-61259821D02*
X86322321Y-59759821D01*
X85822321Y-61259821D01*
X85322321Y-61259821D02*
X85322321Y-59759821D01*
X84822321Y-60831250D01*
X84322321Y-59759821D01*
X84322321Y-61259821D01*
X109679464Y-64031250D02*
X109822321Y-63959821D01*
X110036607Y-63959821D01*
X110250892Y-64031250D01*
X110393750Y-64174107D01*
X110465178Y-64316964D01*
X110536607Y-64602678D01*
X110536607Y-64816964D01*
X110465178Y-65102678D01*
X110393750Y-65245535D01*
X110250892Y-65388392D01*
X110036607Y-65459821D01*
X109893750Y-65459821D01*
X109679464Y-65388392D01*
X109608035Y-65316964D01*
X109608035Y-64816964D01*
X109893750Y-64816964D01*
X108108035Y-65459821D02*
X108608035Y-64745535D01*
X108965178Y-65459821D02*
X108965178Y-63959821D01*
X108393750Y-63959821D01*
X108250892Y-64031250D01*
X108179464Y-64102678D01*
X108108035Y-64245535D01*
X108108035Y-64459821D01*
X108179464Y-64602678D01*
X108250892Y-64674107D01*
X108393750Y-64745535D01*
X108965178Y-64745535D01*
X107536607Y-65031250D02*
X106822321Y-65031250D01*
X107679464Y-65459821D02*
X107179464Y-63959821D01*
X106679464Y-65459821D01*
X106179464Y-65459821D02*
X106179464Y-63959821D01*
X106179464Y-64674107D02*
X105322321Y-64674107D01*
X105322321Y-65459821D02*
X105322321Y-63959821D01*
X104679464Y-65031250D02*
X103965178Y-65031250D01*
X104822321Y-65459821D02*
X104322321Y-63959821D01*
X103822321Y-65459821D01*
X103322321Y-65459821D02*
X103322321Y-63959821D01*
X102822321Y-65031250D01*
X102322321Y-63959821D01*
X102322321Y-65459821D01*
D11*
X88393750Y-61581250D02*
X97393750Y-61581250D01*
X97393750Y-61581250D02*
X97393750Y-63681250D01*
X88393750Y-63681250D02*
X88393750Y-61581250D01*
X83893750Y-61581250D02*
X88393750Y-61581250D01*
X88393750Y-63681250D02*
X92893750Y-63681250D01*
X83893750Y-59481250D02*
X92893750Y-59481250D01*
X88393750Y-57381250D02*
X88393750Y-59481250D01*
X79393750Y-57381250D02*
X88393750Y-57381250D01*
X92893750Y-61581250D02*
X83893750Y-61581250D01*
X97393750Y-63681250D02*
X88393750Y-63681250D01*
X92893750Y-59481250D02*
X92893750Y-61581250D01*
X83893750Y-61581250D02*
X83893750Y-59481250D01*
X79393750Y-59481250D02*
X79393750Y-57381250D01*
X88393750Y-59481250D02*
X79393750Y-59481250D01*
X106393750Y-57381250D02*
X106393750Y-59481250D01*
X106393750Y-63681250D02*
X97393750Y-63681250D01*
X110893750Y-61581250D02*
X101893750Y-61581250D01*
X79393750Y-59481250D02*
X83893750Y-59481250D01*
X110893750Y-59481250D02*
X110893750Y-61581250D01*
X92893750Y-61581250D02*
X92893750Y-59481250D01*
X101893750Y-61581250D02*
X101893750Y-59481250D01*
X97393750Y-63681250D02*
X97393750Y-61581250D01*
X92893750Y-61581250D02*
X97393750Y-61581250D01*
X92893750Y-59481250D02*
X101893750Y-59481250D01*
X101893750Y-65781250D02*
X92893750Y-65781250D01*
X97393750Y-57381250D02*
X97393750Y-59481250D01*
X88393750Y-59481250D02*
X88393750Y-57381250D01*
X88393750Y-57381250D02*
X97393750Y-57381250D01*
X110893750Y-65781250D02*
X101893750Y-65781250D01*
X101893750Y-63681250D02*
X110893750Y-63681250D01*
X92893750Y-65781250D02*
X92893750Y-63681250D01*
X106393750Y-63681250D02*
X106393750Y-61581250D01*
X97393750Y-59481250D02*
X97393750Y-57381250D01*
X110893750Y-65781250D02*
X110893750Y-63681250D01*
X101893750Y-65781250D02*
X101893750Y-63681250D01*
X101893750Y-59481250D02*
X101893750Y-61581250D01*
X101893750Y-65781250D02*
X106393750Y-65781250D01*
X97393750Y-57381250D02*
X106393750Y-57381250D01*
X106393750Y-59481250D02*
X97393750Y-59481250D01*
X119893750Y-65781250D02*
X110893750Y-65781250D01*
X97393750Y-63681250D02*
X101893750Y-63681250D01*
X101893750Y-61581250D02*
X92893750Y-61581250D01*
X101893750Y-61581250D02*
X106393750Y-61581250D01*
X110893750Y-63681250D02*
X110893750Y-65781250D01*
X92893750Y-65781250D02*
X97393750Y-65781250D01*
X106393750Y-63681250D02*
X110893750Y-63681250D01*
X101893750Y-59481250D02*
X110893750Y-59481250D01*
X115393750Y-63681250D02*
X106393750Y-63681250D01*
X97393750Y-59481250D02*
X101893750Y-59481250D01*
X97393750Y-59481250D02*
X88393750Y-59481250D01*
X97393750Y-61581250D02*
X106393750Y-61581250D01*
X106393750Y-61581250D02*
X106393750Y-63681250D01*
X88393750Y-59481250D02*
X92893750Y-59481250D01*
X101893750Y-63681250D02*
X101893750Y-65781250D01*
X119893750Y-63681250D02*
X119893750Y-65781250D01*
X92893750Y-63681250D02*
X101893750Y-63681250D01*
X110893750Y-63681250D02*
X119893750Y-63681250D01*
X110893750Y-65781250D02*
X115393750Y-65781250D01*
D12*
X109679464Y-59831250D02*
X109822321Y-59759821D01*
X110036607Y-59759821D01*
X110250892Y-59831250D01*
X110393750Y-59974107D01*
X110465178Y-60116964D01*
X110536607Y-60402678D01*
X110536607Y-60616964D01*
X110465178Y-60902678D01*
X110393750Y-61045535D01*
X110250892Y-61188392D01*
X110036607Y-61259821D01*
X109893750Y-61259821D01*
X109679464Y-61188392D01*
X109608035Y-61116964D01*
X109608035Y-60616964D01*
X109893750Y-60616964D01*
X108108035Y-61259821D02*
X108608035Y-60545535D01*
X108965178Y-61259821D02*
X108965178Y-59759821D01*
X108393750Y-59759821D01*
X108250892Y-59831250D01*
X108179464Y-59902678D01*
X108108035Y-60045535D01*
X108108035Y-60259821D01*
X108179464Y-60402678D01*
X108250892Y-60474107D01*
X108393750Y-60545535D01*
X108965178Y-60545535D01*
X107536607Y-60831250D02*
X106822321Y-60831250D01*
X107679464Y-61259821D02*
X107179464Y-59759821D01*
X106679464Y-61259821D01*
X106179464Y-61259821D02*
X106179464Y-59759821D01*
X106179464Y-60474107D02*
X105322321Y-60474107D01*
X105322321Y-61259821D02*
X105322321Y-59759821D01*
X104679464Y-60831250D02*
X103965178Y-60831250D01*
X104822321Y-61259821D02*
X104322321Y-59759821D01*
X103822321Y-61259821D01*
X103322321Y-61259821D02*
X103322321Y-59759821D01*
X102822321Y-60831250D01*
X102322321Y-59759821D01*
X102322321Y-61259821D01*
X114179464Y-61931250D02*
X114322321Y-61859821D01*
X114536607Y-61859821D01*
X114750892Y-61931250D01*
X114893750Y-62074107D01*
X114965178Y-62216964D01*
X115036607Y-62502678D01*
X115036607Y-62716964D01*
X114965178Y-63002678D01*
X114893750Y-63145535D01*
X114750892Y-63288392D01*
X114536607Y-63359821D01*
X114393750Y-63359821D01*
X114179464Y-63288392D01*
X114108035Y-63216964D01*
X114108035Y-62716964D01*
X114393750Y-62716964D01*
X112608035Y-63359821D02*
X113108035Y-62645535D01*
X113465178Y-63359821D02*
X113465178Y-61859821D01*
X112893750Y-61859821D01*
X112750892Y-61931250D01*
X112679464Y-62002678D01*
X112608035Y-62145535D01*
X112608035Y-62359821D01*
X112679464Y-62502678D01*
X112750892Y-62574107D01*
X112893750Y-62645535D01*
X113465178Y-62645535D01*
X112036607Y-62931250D02*
X111322321Y-62931250D01*
X112179464Y-63359821D02*
X111679464Y-61859821D01*
X111179464Y-63359821D01*
X110679464Y-63359821D02*
X110679464Y-61859821D01*
X110679464Y-62574107D02*
X109822321Y-62574107D01*
X109822321Y-63359821D02*
X109822321Y-61859821D01*
X109179464Y-62931250D02*
X108465178Y-62931250D01*
X109322321Y-63359821D02*
X108822321Y-61859821D01*
X108322321Y-63359821D01*
X107822321Y-63359821D02*
X107822321Y-61859821D01*
X107322321Y-62931250D01*
X106822321Y-61859821D01*
X106822321Y-63359821D01*
X118679464Y-64031250D02*
X118822321Y-63959821D01*
X119036607Y-63959821D01*
X119250892Y-64031250D01*
X119393750Y-64174107D01*
X119465178Y-64316964D01*
X119536607Y-64602678D01*
X119536607Y-64816964D01*
X119465178Y-65102678D01*
X119393750Y-65245535D01*
X119250892Y-65388392D01*
X119036607Y-65459821D01*
X118893750Y-65459821D01*
X118679464Y-65388392D01*
X118608035Y-65316964D01*
X118608035Y-64816964D01*
X118893750Y-64816964D01*
X117108035Y-65459821D02*
X117608035Y-64745535D01*
X117965178Y-65459821D02*
X117965178Y-63959821D01*
X117393750Y-63959821D01*
X117250892Y-64031250D01*
X117179464Y-64102678D01*
X117108035Y-64245535D01*
X117108035Y-64459821D01*
X117179464Y-64602678D01*
X117250892Y-64674107D01*
X117393750Y-64745535D01*
X117965178Y-64745535D01*
X116536607Y-65031250D02*
X115822321Y-65031250D01*
X116679464Y-65459821D02*
X116179464Y-63959821D01*
X115679464Y-65459821D01*
X115179464Y-65459821D02*
X115179464Y-63959821D01*
X115179464Y-64674107D02*
X114322321Y-64674107D01*
X114322321Y-65459821D02*
X114322321Y-63959821D01*
X113679464Y-65031250D02*
X112965178Y-65031250D01*
X113822321Y-65459821D02*
X113322321Y-63959821D01*
X112822321Y-65459821D01*
X112322321Y-65459821D02*
X112322321Y-63959821D01*
X111822321Y-65031250D01*
X111322321Y-63959821D01*
X111322321Y-65459821D01*
X105179464Y-57731250D02*
X105322321Y-57659821D01*
X105536607Y-57659821D01*
X105750892Y-57731250D01*
X105893750Y-57874107D01*
X105965178Y-58016964D01*
X106036607Y-58302678D01*
X106036607Y-58516964D01*
X105965178Y-58802678D01*
X105893750Y-58945535D01*
X105750892Y-59088392D01*
X105536607Y-59159821D01*
X105393750Y-59159821D01*
X105179464Y-59088392D01*
X105108035Y-59016964D01*
X105108035Y-58516964D01*
X105393750Y-58516964D01*
X103608035Y-59159821D02*
X104108035Y-58445535D01*
X104465178Y-59159821D02*
X104465178Y-57659821D01*
X103893750Y-57659821D01*
X103750892Y-57731250D01*
X103679464Y-57802678D01*
X103608035Y-57945535D01*
X103608035Y-58159821D01*
X103679464Y-58302678D01*
X103750892Y-58374107D01*
X103893750Y-58445535D01*
X104465178Y-58445535D01*
X103036607Y-58731250D02*
X102322321Y-58731250D01*
X103179464Y-59159821D02*
X102679464Y-57659821D01*
X102179464Y-59159821D01*
X101679464Y-59159821D02*
X101679464Y-57659821D01*
X101679464Y-58374107D02*
X100822321Y-58374107D01*
X100822321Y-59159821D02*
X100822321Y-57659821D01*
X100179464Y-58731250D02*
X99465178Y-58731250D01*
X100322321Y-59159821D02*
X99822321Y-57659821D01*
X99322321Y-59159821D01*
X98822321Y-59159821D02*
X98822321Y-57659821D01*
X98322321Y-58731250D01*
X97822321Y-57659821D01*
X97822321Y-59159821D01*
D11*
X133393750Y-61581250D02*
X142393750Y-61581250D01*
X142393750Y-61581250D02*
X142393750Y-63681250D01*
D12*
X127679464Y-64031250D02*
X127822321Y-63959821D01*
X128036607Y-63959821D01*
X128250892Y-64031250D01*
X128393750Y-64174107D01*
X128465178Y-64316964D01*
X128536607Y-64602678D01*
X128536607Y-64816964D01*
X128465178Y-65102678D01*
X128393750Y-65245535D01*
X128250892Y-65388392D01*
X128036607Y-65459821D01*
X127893750Y-65459821D01*
X127679464Y-65388392D01*
X127608035Y-65316964D01*
X127608035Y-64816964D01*
X127893750Y-64816964D01*
X126108035Y-65459821D02*
X126608035Y-64745535D01*
X126965178Y-65459821D02*
X126965178Y-63959821D01*
X126393750Y-63959821D01*
X126250892Y-64031250D01*
X126179464Y-64102678D01*
X126108035Y-64245535D01*
X126108035Y-64459821D01*
X126179464Y-64602678D01*
X126250892Y-64674107D01*
X126393750Y-64745535D01*
X126965178Y-64745535D01*
X125536607Y-65031250D02*
X124822321Y-65031250D01*
X125679464Y-65459821D02*
X125179464Y-63959821D01*
X124679464Y-65459821D01*
X124179464Y-65459821D02*
X124179464Y-63959821D01*
X124179464Y-64674107D02*
X123322321Y-64674107D01*
X123322321Y-65459821D02*
X123322321Y-63959821D01*
X122679464Y-65031250D02*
X121965178Y-65031250D01*
X122822321Y-65459821D02*
X122322321Y-63959821D01*
X121822321Y-65459821D01*
X121322321Y-65459821D02*
X121322321Y-63959821D01*
X120822321Y-65031250D01*
X120322321Y-63959821D01*
X120322321Y-65459821D01*
X123179464Y-61931250D02*
X123322321Y-61859821D01*
X123536607Y-61859821D01*
X123750892Y-61931250D01*
X123893750Y-62074107D01*
X123965178Y-62216964D01*
X124036607Y-62502678D01*
X124036607Y-62716964D01*
X123965178Y-63002678D01*
X123893750Y-63145535D01*
X123750892Y-63288392D01*
X123536607Y-63359821D01*
X123393750Y-63359821D01*
X123179464Y-63288392D01*
X123108035Y-63216964D01*
X123108035Y-62716964D01*
X123393750Y-62716964D01*
X121608035Y-63359821D02*
X122108035Y-62645535D01*
X122465178Y-63359821D02*
X122465178Y-61859821D01*
X121893750Y-61859821D01*
X121750892Y-61931250D01*
X121679464Y-62002678D01*
X121608035Y-62145535D01*
X121608035Y-62359821D01*
X121679464Y-62502678D01*
X121750892Y-62574107D01*
X121893750Y-62645535D01*
X122465178Y-62645535D01*
X121036607Y-62931250D02*
X120322321Y-62931250D01*
X121179464Y-63359821D02*
X120679464Y-61859821D01*
X120179464Y-63359821D01*
X119679464Y-63359821D02*
X119679464Y-61859821D01*
X119679464Y-62574107D02*
X118822321Y-62574107D01*
X118822321Y-63359821D02*
X118822321Y-61859821D01*
X118179464Y-62931250D02*
X117465178Y-62931250D01*
X118322321Y-63359821D02*
X117822321Y-61859821D01*
X117322321Y-63359821D01*
X116822321Y-63359821D02*
X116822321Y-61859821D01*
X116322321Y-62931250D01*
X115822321Y-61859821D01*
X115822321Y-63359821D01*
X114179464Y-57731250D02*
X114322321Y-57659821D01*
X114536607Y-57659821D01*
X114750892Y-57731250D01*
X114893750Y-57874107D01*
X114965178Y-58016964D01*
X115036607Y-58302678D01*
X115036607Y-58516964D01*
X114965178Y-58802678D01*
X114893750Y-58945535D01*
X114750892Y-59088392D01*
X114536607Y-59159821D01*
X114393750Y-59159821D01*
X114179464Y-59088392D01*
X114108035Y-59016964D01*
X114108035Y-58516964D01*
X114393750Y-58516964D01*
X112608035Y-59159821D02*
X113108035Y-58445535D01*
X113465178Y-59159821D02*
X113465178Y-57659821D01*
X112893750Y-57659821D01*
X112750892Y-57731250D01*
X112679464Y-57802678D01*
X112608035Y-57945535D01*
X112608035Y-58159821D01*
X112679464Y-58302678D01*
X112750892Y-58374107D01*
X112893750Y-58445535D01*
X113465178Y-58445535D01*
X112036607Y-58731250D02*
X111322321Y-58731250D01*
X112179464Y-59159821D02*
X111679464Y-57659821D01*
X111179464Y-59159821D01*
X110679464Y-59159821D02*
X110679464Y-57659821D01*
X110679464Y-58374107D02*
X109822321Y-58374107D01*
X109822321Y-59159821D02*
X109822321Y-57659821D01*
X109179464Y-58731250D02*
X108465178Y-58731250D01*
X109322321Y-59159821D02*
X108822321Y-57659821D01*
X108322321Y-59159821D01*
X107822321Y-59159821D02*
X107822321Y-57659821D01*
X107322321Y-58731250D01*
X106822321Y-57659821D01*
X106822321Y-59159821D01*
X132179464Y-61931250D02*
X132322321Y-61859821D01*
X132536607Y-61859821D01*
X132750892Y-61931250D01*
X132893750Y-62074107D01*
X132965178Y-62216964D01*
X133036607Y-62502678D01*
X133036607Y-62716964D01*
X132965178Y-63002678D01*
X132893750Y-63145535D01*
X132750892Y-63288392D01*
X132536607Y-63359821D01*
X132393750Y-63359821D01*
X132179464Y-63288392D01*
X132108035Y-63216964D01*
X132108035Y-62716964D01*
X132393750Y-62716964D01*
X130608035Y-63359821D02*
X131108035Y-62645535D01*
X131465178Y-63359821D02*
X131465178Y-61859821D01*
X130893750Y-61859821D01*
X130750892Y-61931250D01*
X130679464Y-62002678D01*
X130608035Y-62145535D01*
X130608035Y-62359821D01*
X130679464Y-62502678D01*
X130750892Y-62574107D01*
X130893750Y-62645535D01*
X131465178Y-62645535D01*
X130036607Y-62931250D02*
X129322321Y-62931250D01*
X130179464Y-63359821D02*
X129679464Y-61859821D01*
X129179464Y-63359821D01*
X128679464Y-63359821D02*
X128679464Y-61859821D01*
X128679464Y-62574107D02*
X127822321Y-62574107D01*
X127822321Y-63359821D02*
X127822321Y-61859821D01*
X127179464Y-62931250D02*
X126465178Y-62931250D01*
X127322321Y-63359821D02*
X126822321Y-61859821D01*
X126322321Y-63359821D01*
X125822321Y-63359821D02*
X125822321Y-61859821D01*
X125322321Y-62931250D01*
X124822321Y-61859821D01*
X124822321Y-63359821D01*
X123179464Y-57731250D02*
X123322321Y-57659821D01*
X123536607Y-57659821D01*
X123750892Y-57731250D01*
X123893750Y-57874107D01*
X123965178Y-58016964D01*
X124036607Y-58302678D01*
X124036607Y-58516964D01*
X123965178Y-58802678D01*
X123893750Y-58945535D01*
X123750892Y-59088392D01*
X123536607Y-59159821D01*
X123393750Y-59159821D01*
X123179464Y-59088392D01*
X123108035Y-59016964D01*
X123108035Y-58516964D01*
X123393750Y-58516964D01*
X121608035Y-59159821D02*
X122108035Y-58445535D01*
X122465178Y-59159821D02*
X122465178Y-57659821D01*
X121893750Y-57659821D01*
X121750892Y-57731250D01*
X121679464Y-57802678D01*
X121608035Y-57945535D01*
X121608035Y-58159821D01*
X121679464Y-58302678D01*
X121750892Y-58374107D01*
X121893750Y-58445535D01*
X122465178Y-58445535D01*
X121036607Y-58731250D02*
X120322321Y-58731250D01*
X121179464Y-59159821D02*
X120679464Y-57659821D01*
X120179464Y-59159821D01*
X119679464Y-59159821D02*
X119679464Y-57659821D01*
X119679464Y-58374107D02*
X118822321Y-58374107D01*
X118822321Y-59159821D02*
X118822321Y-57659821D01*
X118179464Y-58731250D02*
X117465178Y-58731250D01*
X118322321Y-59159821D02*
X117822321Y-57659821D01*
X117322321Y-59159821D01*
X116822321Y-59159821D02*
X116822321Y-57659821D01*
X116322321Y-58731250D01*
X115822321Y-57659821D01*
X115822321Y-59159821D01*
X127679464Y-59831250D02*
X127822321Y-59759821D01*
X128036607Y-59759821D01*
X128250892Y-59831250D01*
X128393750Y-59974107D01*
X128465178Y-60116964D01*
X128536607Y-60402678D01*
X128536607Y-60616964D01*
X128465178Y-60902678D01*
X128393750Y-61045535D01*
X128250892Y-61188392D01*
X128036607Y-61259821D01*
X127893750Y-61259821D01*
X127679464Y-61188392D01*
X127608035Y-61116964D01*
X127608035Y-60616964D01*
X127893750Y-60616964D01*
X126108035Y-61259821D02*
X126608035Y-60545535D01*
X126965178Y-61259821D02*
X126965178Y-59759821D01*
X126393750Y-59759821D01*
X126250892Y-59831250D01*
X126179464Y-59902678D01*
X126108035Y-60045535D01*
X126108035Y-60259821D01*
X126179464Y-60402678D01*
X126250892Y-60474107D01*
X126393750Y-60545535D01*
X126965178Y-60545535D01*
X125536607Y-60831250D02*
X124822321Y-60831250D01*
X125679464Y-61259821D02*
X125179464Y-59759821D01*
X124679464Y-61259821D01*
X124179464Y-61259821D02*
X124179464Y-59759821D01*
X124179464Y-60474107D02*
X123322321Y-60474107D01*
X123322321Y-61259821D02*
X123322321Y-59759821D01*
X122679464Y-60831250D02*
X121965178Y-60831250D01*
X122822321Y-61259821D02*
X122322321Y-59759821D01*
X121822321Y-61259821D01*
X121322321Y-61259821D02*
X121322321Y-59759821D01*
X120822321Y-60831250D01*
X120322321Y-59759821D01*
X120322321Y-61259821D01*
X118679464Y-59831250D02*
X118822321Y-59759821D01*
X119036607Y-59759821D01*
X119250892Y-59831250D01*
X119393750Y-59974107D01*
X119465178Y-60116964D01*
X119536607Y-60402678D01*
X119536607Y-60616964D01*
X119465178Y-60902678D01*
X119393750Y-61045535D01*
X119250892Y-61188392D01*
X119036607Y-61259821D01*
X118893750Y-61259821D01*
X118679464Y-61188392D01*
X118608035Y-61116964D01*
X118608035Y-60616964D01*
X118893750Y-60616964D01*
X117108035Y-61259821D02*
X117608035Y-60545535D01*
X117965178Y-61259821D02*
X117965178Y-59759821D01*
X117393750Y-59759821D01*
X117250892Y-59831250D01*
X117179464Y-59902678D01*
X117108035Y-60045535D01*
X117108035Y-60259821D01*
X117179464Y-60402678D01*
X117250892Y-60474107D01*
X117393750Y-60545535D01*
X117965178Y-60545535D01*
X116536607Y-60831250D02*
X115822321Y-60831250D01*
X116679464Y-61259821D02*
X116179464Y-59759821D01*
X115679464Y-61259821D01*
X115179464Y-61259821D02*
X115179464Y-59759821D01*
X115179464Y-60474107D02*
X114322321Y-60474107D01*
X114322321Y-61259821D02*
X114322321Y-59759821D01*
X113679464Y-60831250D02*
X112965178Y-60831250D01*
X113822321Y-61259821D02*
X113322321Y-59759821D01*
X112822321Y-61259821D01*
X112322321Y-61259821D02*
X112322321Y-59759821D01*
X111822321Y-60831250D01*
X111322321Y-59759821D01*
X111322321Y-61259821D01*
X136679464Y-64031250D02*
X136822321Y-63959821D01*
X137036607Y-63959821D01*
X137250892Y-64031250D01*
X137393750Y-64174107D01*
X137465178Y-64316964D01*
X137536607Y-64602678D01*
X137536607Y-64816964D01*
X137465178Y-65102678D01*
X137393750Y-65245535D01*
X137250892Y-65388392D01*
X137036607Y-65459821D01*
X136893750Y-65459821D01*
X136679464Y-65388392D01*
X136608035Y-65316964D01*
X136608035Y-64816964D01*
X136893750Y-64816964D01*
X135108035Y-65459821D02*
X135608035Y-64745535D01*
X135965178Y-65459821D02*
X135965178Y-63959821D01*
X135393750Y-63959821D01*
X135250892Y-64031250D01*
X135179464Y-64102678D01*
X135108035Y-64245535D01*
X135108035Y-64459821D01*
X135179464Y-64602678D01*
X135250892Y-64674107D01*
X135393750Y-64745535D01*
X135965178Y-64745535D01*
X134536607Y-65031250D02*
X133822321Y-65031250D01*
X134679464Y-65459821D02*
X134179464Y-63959821D01*
X133679464Y-65459821D01*
X133179464Y-65459821D02*
X133179464Y-63959821D01*
X133179464Y-64674107D02*
X132322321Y-64674107D01*
X132322321Y-65459821D02*
X132322321Y-63959821D01*
X131679464Y-65031250D02*
X130965178Y-65031250D01*
X131822321Y-65459821D02*
X131322321Y-63959821D01*
X130822321Y-65459821D01*
X130322321Y-65459821D02*
X130322321Y-63959821D01*
X129822321Y-65031250D01*
X129322321Y-63959821D01*
X129322321Y-65459821D01*
D11*
X115393750Y-61581250D02*
X124393750Y-61581250D01*
X124393750Y-61581250D02*
X124393750Y-63681250D01*
X115393750Y-63681250D02*
X115393750Y-61581250D01*
X110893750Y-61581250D02*
X115393750Y-61581250D01*
X115393750Y-63681250D02*
X119893750Y-63681250D01*
X110893750Y-59481250D02*
X119893750Y-59481250D01*
X115393750Y-57381250D02*
X115393750Y-59481250D01*
X106393750Y-57381250D02*
X115393750Y-57381250D01*
X119893750Y-61581250D02*
X110893750Y-61581250D01*
X124393750Y-63681250D02*
X115393750Y-63681250D01*
X119893750Y-59481250D02*
X119893750Y-61581250D01*
X110893750Y-61581250D02*
X110893750Y-59481250D01*
X106393750Y-59481250D02*
X106393750Y-57381250D01*
X115393750Y-59481250D02*
X106393750Y-59481250D01*
X133393750Y-57381250D02*
X133393750Y-59481250D01*
X133393750Y-63681250D02*
X124393750Y-63681250D01*
X137893750Y-61581250D02*
X128893750Y-61581250D01*
X106393750Y-59481250D02*
X110893750Y-59481250D01*
X137893750Y-59481250D02*
X137893750Y-61581250D01*
X119893750Y-61581250D02*
X119893750Y-59481250D01*
X128893750Y-61581250D02*
X128893750Y-59481250D01*
X124393750Y-63681250D02*
X124393750Y-61581250D01*
X119893750Y-61581250D02*
X124393750Y-61581250D01*
X119893750Y-59481250D02*
X128893750Y-59481250D01*
X128893750Y-65781250D02*
X119893750Y-65781250D01*
X124393750Y-57381250D02*
X124393750Y-59481250D01*
X115393750Y-59481250D02*
X115393750Y-57381250D01*
X115393750Y-57381250D02*
X124393750Y-57381250D01*
X137893750Y-65781250D02*
X128893750Y-65781250D01*
X128893750Y-63681250D02*
X137893750Y-63681250D01*
X119893750Y-65781250D02*
X119893750Y-63681250D01*
X133393750Y-63681250D02*
X133393750Y-61581250D01*
X124393750Y-59481250D02*
X124393750Y-57381250D01*
X137893750Y-65781250D02*
X137893750Y-63681250D01*
X128893750Y-65781250D02*
X128893750Y-63681250D01*
X128893750Y-59481250D02*
X128893750Y-61581250D01*
X128893750Y-65781250D02*
X133393750Y-65781250D01*
X124393750Y-57381250D02*
X133393750Y-57381250D01*
X133393750Y-59481250D02*
X124393750Y-59481250D01*
X146893750Y-65781250D02*
X137893750Y-65781250D01*
X124393750Y-63681250D02*
X128893750Y-63681250D01*
X128893750Y-61581250D02*
X119893750Y-61581250D01*
X128893750Y-61581250D02*
X133393750Y-61581250D01*
X137893750Y-63681250D02*
X137893750Y-65781250D01*
X119893750Y-65781250D02*
X124393750Y-65781250D01*
X133393750Y-63681250D02*
X137893750Y-63681250D01*
X128893750Y-59481250D02*
X137893750Y-59481250D01*
X142393750Y-63681250D02*
X133393750Y-63681250D01*
X124393750Y-59481250D02*
X128893750Y-59481250D01*
X124393750Y-59481250D02*
X115393750Y-59481250D01*
X124393750Y-61581250D02*
X133393750Y-61581250D01*
X133393750Y-61581250D02*
X133393750Y-63681250D01*
X115393750Y-59481250D02*
X119893750Y-59481250D01*
X128893750Y-63681250D02*
X128893750Y-65781250D01*
X146893750Y-63681250D02*
X146893750Y-65781250D01*
X119893750Y-63681250D02*
X128893750Y-63681250D01*
X137893750Y-63681250D02*
X146893750Y-63681250D01*
X137893750Y-65781250D02*
X142393750Y-65781250D01*
D12*
X136679464Y-59831250D02*
X136822321Y-59759821D01*
X137036607Y-59759821D01*
X137250892Y-59831250D01*
X137393750Y-59974107D01*
X137465178Y-60116964D01*
X137536607Y-60402678D01*
X137536607Y-60616964D01*
X137465178Y-60902678D01*
X137393750Y-61045535D01*
X137250892Y-61188392D01*
X137036607Y-61259821D01*
X136893750Y-61259821D01*
X136679464Y-61188392D01*
X136608035Y-61116964D01*
X136608035Y-60616964D01*
X136893750Y-60616964D01*
X135108035Y-61259821D02*
X135608035Y-60545535D01*
X135965178Y-61259821D02*
X135965178Y-59759821D01*
X135393750Y-59759821D01*
X135250892Y-59831250D01*
X135179464Y-59902678D01*
X135108035Y-60045535D01*
X135108035Y-60259821D01*
X135179464Y-60402678D01*
X135250892Y-60474107D01*
X135393750Y-60545535D01*
X135965178Y-60545535D01*
X134536607Y-60831250D02*
X133822321Y-60831250D01*
X134679464Y-61259821D02*
X134179464Y-59759821D01*
X133679464Y-61259821D01*
X133179464Y-61259821D02*
X133179464Y-59759821D01*
X133179464Y-60474107D02*
X132322321Y-60474107D01*
X132322321Y-61259821D02*
X132322321Y-59759821D01*
X131679464Y-60831250D02*
X130965178Y-60831250D01*
X131822321Y-61259821D02*
X131322321Y-59759821D01*
X130822321Y-61259821D01*
X130322321Y-61259821D02*
X130322321Y-59759821D01*
X129822321Y-60831250D01*
X129322321Y-59759821D01*
X129322321Y-61259821D01*
X141179464Y-61931250D02*
X141322321Y-61859821D01*
X141536607Y-61859821D01*
X141750892Y-61931250D01*
X141893750Y-62074107D01*
X141965178Y-62216964D01*
X142036607Y-62502678D01*
X142036607Y-62716964D01*
X141965178Y-63002678D01*
X141893750Y-63145535D01*
X141750892Y-63288392D01*
X141536607Y-63359821D01*
X141393750Y-63359821D01*
X141179464Y-63288392D01*
X141108035Y-63216964D01*
X141108035Y-62716964D01*
X141393750Y-62716964D01*
X139608035Y-63359821D02*
X140108035Y-62645535D01*
X140465178Y-63359821D02*
X140465178Y-61859821D01*
X139893750Y-61859821D01*
X139750892Y-61931250D01*
X139679464Y-62002678D01*
X139608035Y-62145535D01*
X139608035Y-62359821D01*
X139679464Y-62502678D01*
X139750892Y-62574107D01*
X139893750Y-62645535D01*
X140465178Y-62645535D01*
X139036607Y-62931250D02*
X138322321Y-62931250D01*
X139179464Y-63359821D02*
X138679464Y-61859821D01*
X138179464Y-63359821D01*
X137679464Y-63359821D02*
X137679464Y-61859821D01*
X137679464Y-62574107D02*
X136822321Y-62574107D01*
X136822321Y-63359821D02*
X136822321Y-61859821D01*
X136179464Y-62931250D02*
X135465178Y-62931250D01*
X136322321Y-63359821D02*
X135822321Y-61859821D01*
X135322321Y-63359821D01*
X134822321Y-63359821D02*
X134822321Y-61859821D01*
X134322321Y-62931250D01*
X133822321Y-61859821D01*
X133822321Y-63359821D01*
X145679464Y-64031250D02*
X145822321Y-63959821D01*
X146036607Y-63959821D01*
X146250892Y-64031250D01*
X146393750Y-64174107D01*
X146465178Y-64316964D01*
X146536607Y-64602678D01*
X146536607Y-64816964D01*
X146465178Y-65102678D01*
X146393750Y-65245535D01*
X146250892Y-65388392D01*
X146036607Y-65459821D01*
X145893750Y-65459821D01*
X145679464Y-65388392D01*
X145608035Y-65316964D01*
X145608035Y-64816964D01*
X145893750Y-64816964D01*
X144108035Y-65459821D02*
X144608035Y-64745535D01*
X144965178Y-65459821D02*
X144965178Y-63959821D01*
X144393750Y-63959821D01*
X144250892Y-64031250D01*
X144179464Y-64102678D01*
X144108035Y-64245535D01*
X144108035Y-64459821D01*
X144179464Y-64602678D01*
X144250892Y-64674107D01*
X144393750Y-64745535D01*
X144965178Y-64745535D01*
X143536607Y-65031250D02*
X142822321Y-65031250D01*
X143679464Y-65459821D02*
X143179464Y-63959821D01*
X142679464Y-65459821D01*
X142179464Y-65459821D02*
X142179464Y-63959821D01*
X142179464Y-64674107D02*
X141322321Y-64674107D01*
X141322321Y-65459821D02*
X141322321Y-63959821D01*
X140679464Y-65031250D02*
X139965178Y-65031250D01*
X140822321Y-65459821D02*
X140322321Y-63959821D01*
X139822321Y-65459821D01*
X139322321Y-65459821D02*
X139322321Y-63959821D01*
X138822321Y-65031250D01*
X138322321Y-63959821D01*
X138322321Y-65459821D01*
X132179464Y-57731250D02*
X132322321Y-57659821D01*
X132536607Y-57659821D01*
X132750892Y-57731250D01*
X132893750Y-57874107D01*
X132965178Y-58016964D01*
X133036607Y-58302678D01*
X133036607Y-58516964D01*
X132965178Y-58802678D01*
X132893750Y-58945535D01*
X132750892Y-59088392D01*
X132536607Y-59159821D01*
X132393750Y-59159821D01*
X132179464Y-59088392D01*
X132108035Y-59016964D01*
X132108035Y-58516964D01*
X132393750Y-58516964D01*
X130608035Y-59159821D02*
X131108035Y-58445535D01*
X131465178Y-59159821D02*
X131465178Y-57659821D01*
X130893750Y-57659821D01*
X130750892Y-57731250D01*
X130679464Y-57802678D01*
X130608035Y-57945535D01*
X130608035Y-58159821D01*
X130679464Y-58302678D01*
X130750892Y-58374107D01*
X130893750Y-58445535D01*
X131465178Y-58445535D01*
X130036607Y-58731250D02*
X129322321Y-58731250D01*
X130179464Y-59159821D02*
X129679464Y-57659821D01*
X129179464Y-59159821D01*
X128679464Y-59159821D02*
X128679464Y-57659821D01*
X128679464Y-58374107D02*
X127822321Y-58374107D01*
X127822321Y-59159821D02*
X127822321Y-57659821D01*
X127179464Y-58731250D02*
X126465178Y-58731250D01*
X127322321Y-59159821D02*
X126822321Y-57659821D01*
X126322321Y-59159821D01*
X125822321Y-59159821D02*
X125822321Y-57659821D01*
X125322321Y-58731250D01*
X124822321Y-57659821D01*
X124822321Y-59159821D01*
D11*
X160393750Y-61581250D02*
X169393750Y-61581250D01*
X169393750Y-61581250D02*
X169393750Y-63681250D01*
D12*
X154679464Y-64031250D02*
X154822321Y-63959821D01*
X155036607Y-63959821D01*
X155250892Y-64031250D01*
X155393750Y-64174107D01*
X155465178Y-64316964D01*
X155536607Y-64602678D01*
X155536607Y-64816964D01*
X155465178Y-65102678D01*
X155393750Y-65245535D01*
X155250892Y-65388392D01*
X155036607Y-65459821D01*
X154893750Y-65459821D01*
X154679464Y-65388392D01*
X154608035Y-65316964D01*
X154608035Y-64816964D01*
X154893750Y-64816964D01*
X153108035Y-65459821D02*
X153608035Y-64745535D01*
X153965178Y-65459821D02*
X153965178Y-63959821D01*
X153393750Y-63959821D01*
X153250892Y-64031250D01*
X153179464Y-64102678D01*
X153108035Y-64245535D01*
X153108035Y-64459821D01*
X153179464Y-64602678D01*
X153250892Y-64674107D01*
X153393750Y-64745535D01*
X153965178Y-64745535D01*
X152536607Y-65031250D02*
X151822321Y-65031250D01*
X152679464Y-65459821D02*
X152179464Y-63959821D01*
X151679464Y-65459821D01*
X151179464Y-65459821D02*
X151179464Y-63959821D01*
X151179464Y-64674107D02*
X150322321Y-64674107D01*
X150322321Y-65459821D02*
X150322321Y-63959821D01*
X149679464Y-65031250D02*
X148965178Y-65031250D01*
X149822321Y-65459821D02*
X149322321Y-63959821D01*
X148822321Y-65459821D01*
X148322321Y-65459821D02*
X148322321Y-63959821D01*
X147822321Y-65031250D01*
X147322321Y-63959821D01*
X147322321Y-65459821D01*
X150179464Y-61931250D02*
X150322321Y-61859821D01*
X150536607Y-61859821D01*
X150750892Y-61931250D01*
X150893750Y-62074107D01*
X150965178Y-62216964D01*
X151036607Y-62502678D01*
X151036607Y-62716964D01*
X150965178Y-63002678D01*
X150893750Y-63145535D01*
X150750892Y-63288392D01*
X150536607Y-63359821D01*
X150393750Y-63359821D01*
X150179464Y-63288392D01*
X150108035Y-63216964D01*
X150108035Y-62716964D01*
X150393750Y-62716964D01*
X148608035Y-63359821D02*
X149108035Y-62645535D01*
X149465178Y-63359821D02*
X149465178Y-61859821D01*
X148893750Y-61859821D01*
X148750892Y-61931250D01*
X148679464Y-62002678D01*
X148608035Y-62145535D01*
X148608035Y-62359821D01*
X148679464Y-62502678D01*
X148750892Y-62574107D01*
X148893750Y-62645535D01*
X149465178Y-62645535D01*
X148036607Y-62931250D02*
X147322321Y-62931250D01*
X148179464Y-63359821D02*
X147679464Y-61859821D01*
X147179464Y-63359821D01*
X146679464Y-63359821D02*
X146679464Y-61859821D01*
X146679464Y-62574107D02*
X145822321Y-62574107D01*
X145822321Y-63359821D02*
X145822321Y-61859821D01*
X145179464Y-62931250D02*
X144465178Y-62931250D01*
X145322321Y-63359821D02*
X144822321Y-61859821D01*
X144322321Y-63359821D01*
X143822321Y-63359821D02*
X143822321Y-61859821D01*
X143322321Y-62931250D01*
X142822321Y-61859821D01*
X142822321Y-63359821D01*
X141179464Y-57731250D02*
X141322321Y-57659821D01*
X141536607Y-57659821D01*
X141750892Y-57731250D01*
X141893750Y-57874107D01*
X141965178Y-58016964D01*
X142036607Y-58302678D01*
X142036607Y-58516964D01*
X141965178Y-58802678D01*
X141893750Y-58945535D01*
X141750892Y-59088392D01*
X141536607Y-59159821D01*
X141393750Y-59159821D01*
X141179464Y-59088392D01*
X141108035Y-59016964D01*
X141108035Y-58516964D01*
X141393750Y-58516964D01*
X139608035Y-59159821D02*
X140108035Y-58445535D01*
X140465178Y-59159821D02*
X140465178Y-57659821D01*
X139893750Y-57659821D01*
X139750892Y-57731250D01*
X139679464Y-57802678D01*
X139608035Y-57945535D01*
X139608035Y-58159821D01*
X139679464Y-58302678D01*
X139750892Y-58374107D01*
X139893750Y-58445535D01*
X140465178Y-58445535D01*
X139036607Y-58731250D02*
X138322321Y-58731250D01*
X139179464Y-59159821D02*
X138679464Y-57659821D01*
X138179464Y-59159821D01*
X137679464Y-59159821D02*
X137679464Y-57659821D01*
X137679464Y-58374107D02*
X136822321Y-58374107D01*
X136822321Y-59159821D02*
X136822321Y-57659821D01*
X136179464Y-58731250D02*
X135465178Y-58731250D01*
X136322321Y-59159821D02*
X135822321Y-57659821D01*
X135322321Y-59159821D01*
X134822321Y-59159821D02*
X134822321Y-57659821D01*
X134322321Y-58731250D01*
X133822321Y-57659821D01*
X133822321Y-59159821D01*
X159179464Y-61931250D02*
X159322321Y-61859821D01*
X159536607Y-61859821D01*
X159750892Y-61931250D01*
X159893750Y-62074107D01*
X159965178Y-62216964D01*
X160036607Y-62502678D01*
X160036607Y-62716964D01*
X159965178Y-63002678D01*
X159893750Y-63145535D01*
X159750892Y-63288392D01*
X159536607Y-63359821D01*
X159393750Y-63359821D01*
X159179464Y-63288392D01*
X159108035Y-63216964D01*
X159108035Y-62716964D01*
X159393750Y-62716964D01*
X157608035Y-63359821D02*
X158108035Y-62645535D01*
X158465178Y-63359821D02*
X158465178Y-61859821D01*
X157893750Y-61859821D01*
X157750892Y-61931250D01*
X157679464Y-62002678D01*
X157608035Y-62145535D01*
X157608035Y-62359821D01*
X157679464Y-62502678D01*
X157750892Y-62574107D01*
X157893750Y-62645535D01*
X158465178Y-62645535D01*
X157036607Y-62931250D02*
X156322321Y-62931250D01*
X157179464Y-63359821D02*
X156679464Y-61859821D01*
X156179464Y-63359821D01*
X155679464Y-63359821D02*
X155679464Y-61859821D01*
X155679464Y-62574107D02*
X154822321Y-62574107D01*
X154822321Y-63359821D02*
X154822321Y-61859821D01*
X154179464Y-62931250D02*
X153465178Y-62931250D01*
X154322321Y-63359821D02*
X153822321Y-61859821D01*
X153322321Y-63359821D01*
X152822321Y-63359821D02*
X152822321Y-61859821D01*
X152322321Y-62931250D01*
X151822321Y-61859821D01*
X151822321Y-63359821D01*
X150179464Y-57731250D02*
X150322321Y-57659821D01*
X150536607Y-57659821D01*
X150750892Y-57731250D01*
X150893750Y-57874107D01*
X150965178Y-58016964D01*
X151036607Y-58302678D01*
X151036607Y-58516964D01*
X150965178Y-58802678D01*
X150893750Y-58945535D01*
X150750892Y-59088392D01*
X150536607Y-59159821D01*
X150393750Y-59159821D01*
X150179464Y-59088392D01*
X150108035Y-59016964D01*
X150108035Y-58516964D01*
X150393750Y-58516964D01*
X148608035Y-59159821D02*
X149108035Y-58445535D01*
X149465178Y-59159821D02*
X149465178Y-57659821D01*
X148893750Y-57659821D01*
X148750892Y-57731250D01*
X148679464Y-57802678D01*
X148608035Y-57945535D01*
X148608035Y-58159821D01*
X148679464Y-58302678D01*
X148750892Y-58374107D01*
X148893750Y-58445535D01*
X149465178Y-58445535D01*
X148036607Y-58731250D02*
X147322321Y-58731250D01*
X148179464Y-59159821D02*
X147679464Y-57659821D01*
X147179464Y-59159821D01*
X146679464Y-59159821D02*
X146679464Y-57659821D01*
X146679464Y-58374107D02*
X145822321Y-58374107D01*
X145822321Y-59159821D02*
X145822321Y-57659821D01*
X145179464Y-58731250D02*
X144465178Y-58731250D01*
X145322321Y-59159821D02*
X144822321Y-57659821D01*
X144322321Y-59159821D01*
X143822321Y-59159821D02*
X143822321Y-57659821D01*
X143322321Y-58731250D01*
X142822321Y-57659821D01*
X142822321Y-59159821D01*
X154679464Y-59831250D02*
X154822321Y-59759821D01*
X155036607Y-59759821D01*
X155250892Y-59831250D01*
X155393750Y-59974107D01*
X155465178Y-60116964D01*
X155536607Y-60402678D01*
X155536607Y-60616964D01*
X155465178Y-60902678D01*
X155393750Y-61045535D01*
X155250892Y-61188392D01*
X155036607Y-61259821D01*
X154893750Y-61259821D01*
X154679464Y-61188392D01*
X154608035Y-61116964D01*
X154608035Y-60616964D01*
X154893750Y-60616964D01*
X153108035Y-61259821D02*
X153608035Y-60545535D01*
X153965178Y-61259821D02*
X153965178Y-59759821D01*
X153393750Y-59759821D01*
X153250892Y-59831250D01*
X153179464Y-59902678D01*
X153108035Y-60045535D01*
X153108035Y-60259821D01*
X153179464Y-60402678D01*
X153250892Y-60474107D01*
X153393750Y-60545535D01*
X153965178Y-60545535D01*
X152536607Y-60831250D02*
X151822321Y-60831250D01*
X152679464Y-61259821D02*
X152179464Y-59759821D01*
X151679464Y-61259821D01*
X151179464Y-61259821D02*
X151179464Y-59759821D01*
X151179464Y-60474107D02*
X150322321Y-60474107D01*
X150322321Y-61259821D02*
X150322321Y-59759821D01*
X149679464Y-60831250D02*
X148965178Y-60831250D01*
X149822321Y-61259821D02*
X149322321Y-59759821D01*
X148822321Y-61259821D01*
X148322321Y-61259821D02*
X148322321Y-59759821D01*
X147822321Y-60831250D01*
X147322321Y-59759821D01*
X147322321Y-61259821D01*
X145679464Y-59831250D02*
X145822321Y-59759821D01*
X146036607Y-59759821D01*
X146250892Y-59831250D01*
X146393750Y-59974107D01*
X146465178Y-60116964D01*
X146536607Y-60402678D01*
X146536607Y-60616964D01*
X146465178Y-60902678D01*
X146393750Y-61045535D01*
X146250892Y-61188392D01*
X146036607Y-61259821D01*
X145893750Y-61259821D01*
X145679464Y-61188392D01*
X145608035Y-61116964D01*
X145608035Y-60616964D01*
X145893750Y-60616964D01*
X144108035Y-61259821D02*
X144608035Y-60545535D01*
X144965178Y-61259821D02*
X144965178Y-59759821D01*
X144393750Y-59759821D01*
X144250892Y-59831250D01*
X144179464Y-59902678D01*
X144108035Y-60045535D01*
X144108035Y-60259821D01*
X144179464Y-60402678D01*
X144250892Y-60474107D01*
X144393750Y-60545535D01*
X144965178Y-60545535D01*
X143536607Y-60831250D02*
X142822321Y-60831250D01*
X143679464Y-61259821D02*
X143179464Y-59759821D01*
X142679464Y-61259821D01*
X142179464Y-61259821D02*
X142179464Y-59759821D01*
X142179464Y-60474107D02*
X141322321Y-60474107D01*
X141322321Y-61259821D02*
X141322321Y-59759821D01*
X140679464Y-60831250D02*
X139965178Y-60831250D01*
X140822321Y-61259821D02*
X140322321Y-59759821D01*
X139822321Y-61259821D01*
X139322321Y-61259821D02*
X139322321Y-59759821D01*
X138822321Y-60831250D01*
X138322321Y-59759821D01*
X138322321Y-61259821D01*
X163679464Y-64031250D02*
X163822321Y-63959821D01*
X164036607Y-63959821D01*
X164250892Y-64031250D01*
X164393750Y-64174107D01*
X164465178Y-64316964D01*
X164536607Y-64602678D01*
X164536607Y-64816964D01*
X164465178Y-65102678D01*
X164393750Y-65245535D01*
X164250892Y-65388392D01*
X164036607Y-65459821D01*
X163893750Y-65459821D01*
X163679464Y-65388392D01*
X163608035Y-65316964D01*
X163608035Y-64816964D01*
X163893750Y-64816964D01*
X162108035Y-65459821D02*
X162608035Y-64745535D01*
X162965178Y-65459821D02*
X162965178Y-63959821D01*
X162393750Y-63959821D01*
X162250892Y-64031250D01*
X162179464Y-64102678D01*
X162108035Y-64245535D01*
X162108035Y-64459821D01*
X162179464Y-64602678D01*
X162250892Y-64674107D01*
X162393750Y-64745535D01*
X162965178Y-64745535D01*
X161536607Y-65031250D02*
X160822321Y-65031250D01*
X161679464Y-65459821D02*
X161179464Y-63959821D01*
X160679464Y-65459821D01*
X160179464Y-65459821D02*
X160179464Y-63959821D01*
X160179464Y-64674107D02*
X159322321Y-64674107D01*
X159322321Y-65459821D02*
X159322321Y-63959821D01*
X158679464Y-65031250D02*
X157965178Y-65031250D01*
X158822321Y-65459821D02*
X158322321Y-63959821D01*
X157822321Y-65459821D01*
X157322321Y-65459821D02*
X157322321Y-63959821D01*
X156822321Y-65031250D01*
X156322321Y-63959821D01*
X156322321Y-65459821D01*
D11*
X142393750Y-61581250D02*
X151393750Y-61581250D01*
X151393750Y-61581250D02*
X151393750Y-63681250D01*
X142393750Y-63681250D02*
X142393750Y-61581250D01*
X137893750Y-61581250D02*
X142393750Y-61581250D01*
X142393750Y-63681250D02*
X146893750Y-63681250D01*
X137893750Y-59481250D02*
X146893750Y-59481250D01*
X142393750Y-57381250D02*
X142393750Y-59481250D01*
X133393750Y-57381250D02*
X142393750Y-57381250D01*
X146893750Y-61581250D02*
X137893750Y-61581250D01*
X151393750Y-63681250D02*
X142393750Y-63681250D01*
X146893750Y-59481250D02*
X146893750Y-61581250D01*
X137893750Y-61581250D02*
X137893750Y-59481250D01*
X133393750Y-59481250D02*
X133393750Y-57381250D01*
X142393750Y-59481250D02*
X133393750Y-59481250D01*
X160393750Y-57381250D02*
X160393750Y-59481250D01*
X160393750Y-63681250D02*
X151393750Y-63681250D01*
X164893750Y-61581250D02*
X155893750Y-61581250D01*
X133393750Y-59481250D02*
X137893750Y-59481250D01*
X164893750Y-59481250D02*
X164893750Y-61581250D01*
X146893750Y-61581250D02*
X146893750Y-59481250D01*
X155893750Y-61581250D02*
X155893750Y-59481250D01*
X151393750Y-63681250D02*
X151393750Y-61581250D01*
X146893750Y-61581250D02*
X151393750Y-61581250D01*
X146893750Y-59481250D02*
X155893750Y-59481250D01*
X155893750Y-65781250D02*
X146893750Y-65781250D01*
X151393750Y-57381250D02*
X151393750Y-59481250D01*
X142393750Y-59481250D02*
X142393750Y-57381250D01*
X142393750Y-57381250D02*
X151393750Y-57381250D01*
X164893750Y-65781250D02*
X155893750Y-65781250D01*
X155893750Y-63681250D02*
X164893750Y-63681250D01*
X146893750Y-65781250D02*
X146893750Y-63681250D01*
X160393750Y-63681250D02*
X160393750Y-61581250D01*
X151393750Y-59481250D02*
X151393750Y-57381250D01*
X164893750Y-65781250D02*
X164893750Y-63681250D01*
X155893750Y-65781250D02*
X155893750Y-63681250D01*
X155893750Y-59481250D02*
X155893750Y-61581250D01*
X155893750Y-65781250D02*
X160393750Y-65781250D01*
X151393750Y-57381250D02*
X160393750Y-57381250D01*
X160393750Y-59481250D02*
X151393750Y-59481250D01*
X173893750Y-65781250D02*
X164893750Y-65781250D01*
X151393750Y-63681250D02*
X155893750Y-63681250D01*
X155893750Y-61581250D02*
X146893750Y-61581250D01*
X155893750Y-61581250D02*
X160393750Y-61581250D01*
X164893750Y-63681250D02*
X164893750Y-65781250D01*
X146893750Y-65781250D02*
X151393750Y-65781250D01*
X160393750Y-63681250D02*
X164893750Y-63681250D01*
X155893750Y-59481250D02*
X164893750Y-59481250D01*
X169393750Y-63681250D02*
X160393750Y-63681250D01*
X151393750Y-59481250D02*
X155893750Y-59481250D01*
X151393750Y-59481250D02*
X142393750Y-59481250D01*
X151393750Y-61581250D02*
X160393750Y-61581250D01*
X160393750Y-61581250D02*
X160393750Y-63681250D01*
X142393750Y-59481250D02*
X146893750Y-59481250D01*
X155893750Y-63681250D02*
X155893750Y-65781250D01*
X173893750Y-63681250D02*
X173893750Y-65781250D01*
X146893750Y-63681250D02*
X155893750Y-63681250D01*
X164893750Y-63681250D02*
X173893750Y-63681250D01*
X164893750Y-65781250D02*
X169393750Y-65781250D01*
D12*
X163679464Y-59831250D02*
X163822321Y-59759821D01*
X164036607Y-59759821D01*
X164250892Y-59831250D01*
X164393750Y-59974107D01*
X164465178Y-60116964D01*
X164536607Y-60402678D01*
X164536607Y-60616964D01*
X164465178Y-60902678D01*
X164393750Y-61045535D01*
X164250892Y-61188392D01*
X164036607Y-61259821D01*
X163893750Y-61259821D01*
X163679464Y-61188392D01*
X163608035Y-61116964D01*
X163608035Y-60616964D01*
X163893750Y-60616964D01*
X162108035Y-61259821D02*
X162608035Y-60545535D01*
X162965178Y-61259821D02*
X162965178Y-59759821D01*
X162393750Y-59759821D01*
X162250892Y-59831250D01*
X162179464Y-59902678D01*
X162108035Y-60045535D01*
X162108035Y-60259821D01*
X162179464Y-60402678D01*
X162250892Y-60474107D01*
X162393750Y-60545535D01*
X162965178Y-60545535D01*
X161536607Y-60831250D02*
X160822321Y-60831250D01*
X161679464Y-61259821D02*
X161179464Y-59759821D01*
X160679464Y-61259821D01*
X160179464Y-61259821D02*
X160179464Y-59759821D01*
X160179464Y-60474107D02*
X159322321Y-60474107D01*
X159322321Y-61259821D02*
X159322321Y-59759821D01*
X158679464Y-60831250D02*
X157965178Y-60831250D01*
X158822321Y-61259821D02*
X158322321Y-59759821D01*
X157822321Y-61259821D01*
X157322321Y-61259821D02*
X157322321Y-59759821D01*
X156822321Y-60831250D01*
X156322321Y-59759821D01*
X156322321Y-61259821D01*
X168179464Y-61931250D02*
X168322321Y-61859821D01*
X168536607Y-61859821D01*
X168750892Y-61931250D01*
X168893750Y-62074107D01*
X168965178Y-62216964D01*
X169036607Y-62502678D01*
X169036607Y-62716964D01*
X168965178Y-63002678D01*
X168893750Y-63145535D01*
X168750892Y-63288392D01*
X168536607Y-63359821D01*
X168393750Y-63359821D01*
X168179464Y-63288392D01*
X168108035Y-63216964D01*
X168108035Y-62716964D01*
X168393750Y-62716964D01*
X166608035Y-63359821D02*
X167108035Y-62645535D01*
X167465178Y-63359821D02*
X167465178Y-61859821D01*
X166893750Y-61859821D01*
X166750892Y-61931250D01*
X166679464Y-62002678D01*
X166608035Y-62145535D01*
X166608035Y-62359821D01*
X166679464Y-62502678D01*
X166750892Y-62574107D01*
X166893750Y-62645535D01*
X167465178Y-62645535D01*
X166036607Y-62931250D02*
X165322321Y-62931250D01*
X166179464Y-63359821D02*
X165679464Y-61859821D01*
X165179464Y-63359821D01*
X164679464Y-63359821D02*
X164679464Y-61859821D01*
X164679464Y-62574107D02*
X163822321Y-62574107D01*
X163822321Y-63359821D02*
X163822321Y-61859821D01*
X163179464Y-62931250D02*
X162465178Y-62931250D01*
X163322321Y-63359821D02*
X162822321Y-61859821D01*
X162322321Y-63359821D01*
X161822321Y-63359821D02*
X161822321Y-61859821D01*
X161322321Y-62931250D01*
X160822321Y-61859821D01*
X160822321Y-63359821D01*
X172679464Y-64031250D02*
X172822321Y-63959821D01*
X173036607Y-63959821D01*
X173250892Y-64031250D01*
X173393750Y-64174107D01*
X173465178Y-64316964D01*
X173536607Y-64602678D01*
X173536607Y-64816964D01*
X173465178Y-65102678D01*
X173393750Y-65245535D01*
X173250892Y-65388392D01*
X173036607Y-65459821D01*
X172893750Y-65459821D01*
X172679464Y-65388392D01*
X172608035Y-65316964D01*
X172608035Y-64816964D01*
X172893750Y-64816964D01*
X171108035Y-65459821D02*
X171608035Y-64745535D01*
X171965178Y-65459821D02*
X171965178Y-63959821D01*
X171393750Y-63959821D01*
X171250892Y-64031250D01*
X171179464Y-64102678D01*
X171108035Y-64245535D01*
X171108035Y-64459821D01*
X171179464Y-64602678D01*
X171250892Y-64674107D01*
X171393750Y-64745535D01*
X171965178Y-64745535D01*
X170536607Y-65031250D02*
X169822321Y-65031250D01*
X170679464Y-65459821D02*
X170179464Y-63959821D01*
X169679464Y-65459821D01*
X169179464Y-65459821D02*
X169179464Y-63959821D01*
X169179464Y-64674107D02*
X168322321Y-64674107D01*
X168322321Y-65459821D02*
X168322321Y-63959821D01*
X167679464Y-65031250D02*
X166965178Y-65031250D01*
X167822321Y-65459821D02*
X167322321Y-63959821D01*
X166822321Y-65459821D01*
X166322321Y-65459821D02*
X166322321Y-63959821D01*
X165822321Y-65031250D01*
X165322321Y-63959821D01*
X165322321Y-65459821D01*
X159179464Y-57731250D02*
X159322321Y-57659821D01*
X159536607Y-57659821D01*
X159750892Y-57731250D01*
X159893750Y-57874107D01*
X159965178Y-58016964D01*
X160036607Y-58302678D01*
X160036607Y-58516964D01*
X159965178Y-58802678D01*
X159893750Y-58945535D01*
X159750892Y-59088392D01*
X159536607Y-59159821D01*
X159393750Y-59159821D01*
X159179464Y-59088392D01*
X159108035Y-59016964D01*
X159108035Y-58516964D01*
X159393750Y-58516964D01*
X157608035Y-59159821D02*
X158108035Y-58445535D01*
X158465178Y-59159821D02*
X158465178Y-57659821D01*
X157893750Y-57659821D01*
X157750892Y-57731250D01*
X157679464Y-57802678D01*
X157608035Y-57945535D01*
X157608035Y-58159821D01*
X157679464Y-58302678D01*
X157750892Y-58374107D01*
X157893750Y-58445535D01*
X158465178Y-58445535D01*
X157036607Y-58731250D02*
X156322321Y-58731250D01*
X157179464Y-59159821D02*
X156679464Y-57659821D01*
X156179464Y-59159821D01*
X155679464Y-59159821D02*
X155679464Y-57659821D01*
X155679464Y-58374107D02*
X154822321Y-58374107D01*
X154822321Y-59159821D02*
X154822321Y-57659821D01*
X154179464Y-58731250D02*
X153465178Y-58731250D01*
X154322321Y-59159821D02*
X153822321Y-57659821D01*
X153322321Y-59159821D01*
X152822321Y-59159821D02*
X152822321Y-57659821D01*
X152322321Y-58731250D01*
X151822321Y-57659821D01*
X151822321Y-59159821D01*
D11*
X178393750Y-59481250D02*
X178393750Y-57381250D01*
D12*
X177179464Y-57731250D02*
X177322321Y-57659821D01*
X177536607Y-57659821D01*
X177750892Y-57731250D01*
X177893750Y-57874107D01*
X177965178Y-58016964D01*
X178036607Y-58302678D01*
X178036607Y-58516964D01*
X177965178Y-58802678D01*
X177893750Y-58945535D01*
X177750892Y-59088392D01*
X177536607Y-59159821D01*
X177393750Y-59159821D01*
X177179464Y-59088392D01*
X177108035Y-59016964D01*
X177108035Y-58516964D01*
X177393750Y-58516964D01*
X175608035Y-59159821D02*
X176108035Y-58445535D01*
X176465178Y-59159821D02*
X176465178Y-57659821D01*
X175893750Y-57659821D01*
X175750892Y-57731250D01*
X175679464Y-57802678D01*
X175608035Y-57945535D01*
X175608035Y-58159821D01*
X175679464Y-58302678D01*
X175750892Y-58374107D01*
X175893750Y-58445535D01*
X176465178Y-58445535D01*
X175036607Y-58731250D02*
X174322321Y-58731250D01*
X175179464Y-59159821D02*
X174679464Y-57659821D01*
X174179464Y-59159821D01*
X173679464Y-59159821D02*
X173679464Y-57659821D01*
X173679464Y-58374107D02*
X172822321Y-58374107D01*
X172822321Y-59159821D02*
X172822321Y-57659821D01*
X172179464Y-58731250D02*
X171465178Y-58731250D01*
X172322321Y-59159821D02*
X171822321Y-57659821D01*
X171322321Y-59159821D01*
X170822321Y-59159821D02*
X170822321Y-57659821D01*
X170322321Y-58731250D01*
X169822321Y-57659821D01*
X169822321Y-59159821D01*
D11*
X178393750Y-63681250D02*
X178393750Y-61581250D01*
X173893750Y-61581250D02*
X178393750Y-61581250D01*
X178393750Y-57381250D02*
X178393750Y-59481250D01*
X169393750Y-57381250D02*
X178393750Y-57381250D01*
X173893750Y-61581250D02*
X173893750Y-59481250D01*
X169393750Y-59481250D02*
X169393750Y-57381250D01*
X178393750Y-59481250D02*
X169393750Y-59481250D01*
X169393750Y-59481250D02*
X173893750Y-59481250D01*
X173893750Y-65781250D02*
X173893750Y-63681250D01*
D12*
X177179464Y-61931250D02*
X177322321Y-61859821D01*
X177536607Y-61859821D01*
X177750892Y-61931250D01*
X177893750Y-62074107D01*
X177965178Y-62216964D01*
X178036607Y-62502678D01*
X178036607Y-62716964D01*
X177965178Y-63002678D01*
X177893750Y-63145535D01*
X177750892Y-63288392D01*
X177536607Y-63359821D01*
X177393750Y-63359821D01*
X177179464Y-63288392D01*
X177108035Y-63216964D01*
X177108035Y-62716964D01*
X177393750Y-62716964D01*
X175608035Y-63359821D02*
X176108035Y-62645535D01*
X176465178Y-63359821D02*
X176465178Y-61859821D01*
X175893750Y-61859821D01*
X175750892Y-61931250D01*
X175679464Y-62002678D01*
X175608035Y-62145535D01*
X175608035Y-62359821D01*
X175679464Y-62502678D01*
X175750892Y-62574107D01*
X175893750Y-62645535D01*
X176465178Y-62645535D01*
X175036607Y-62931250D02*
X174322321Y-62931250D01*
X175179464Y-63359821D02*
X174679464Y-61859821D01*
X174179464Y-63359821D01*
X173679464Y-63359821D02*
X173679464Y-61859821D01*
X173679464Y-62574107D02*
X172822321Y-62574107D01*
X172822321Y-63359821D02*
X172822321Y-61859821D01*
X172179464Y-62931250D02*
X171465178Y-62931250D01*
X172322321Y-63359821D02*
X171822321Y-61859821D01*
X171322321Y-63359821D01*
X170822321Y-63359821D02*
X170822321Y-61859821D01*
X170322321Y-62931250D01*
X169822321Y-61859821D01*
X169822321Y-63359821D01*
D11*
X178393750Y-61581250D02*
X178393750Y-63681250D01*
X169393750Y-61581250D02*
X178393750Y-61581250D01*
X169393750Y-63681250D02*
X169393750Y-61581250D01*
X178393750Y-63681250D02*
X169393750Y-63681250D01*
X169393750Y-63681250D02*
X173893750Y-63681250D01*
D12*
X172679464Y-59831250D02*
X172822321Y-59759821D01*
X173036607Y-59759821D01*
X173250892Y-59831250D01*
X173393750Y-59974107D01*
X173465178Y-60116964D01*
X173536607Y-60402678D01*
X173536607Y-60616964D01*
X173465178Y-60902678D01*
X173393750Y-61045535D01*
X173250892Y-61188392D01*
X173036607Y-61259821D01*
X172893750Y-61259821D01*
X172679464Y-61188392D01*
X172608035Y-61116964D01*
X172608035Y-60616964D01*
X172893750Y-60616964D01*
X171108035Y-61259821D02*
X171608035Y-60545535D01*
X171965178Y-61259821D02*
X171965178Y-59759821D01*
X171393750Y-59759821D01*
X171250892Y-59831250D01*
X171179464Y-59902678D01*
X171108035Y-60045535D01*
X171108035Y-60259821D01*
X171179464Y-60402678D01*
X171250892Y-60474107D01*
X171393750Y-60545535D01*
X171965178Y-60545535D01*
X170536607Y-60831250D02*
X169822321Y-60831250D01*
X170679464Y-61259821D02*
X170179464Y-59759821D01*
X169679464Y-61259821D01*
X169179464Y-61259821D02*
X169179464Y-59759821D01*
X169179464Y-60474107D02*
X168322321Y-60474107D01*
X168322321Y-61259821D02*
X168322321Y-59759821D01*
X167679464Y-60831250D02*
X166965178Y-60831250D01*
X167822321Y-61259821D02*
X167322321Y-59759821D01*
X166822321Y-61259821D01*
X166322321Y-61259821D02*
X166322321Y-59759821D01*
X165822321Y-60831250D01*
X165322321Y-59759821D01*
X165322321Y-61259821D01*
D11*
X173893750Y-59481250D02*
X173893750Y-61581250D01*
X164893750Y-59481250D02*
X173893750Y-59481250D01*
X164893750Y-61581250D02*
X164893750Y-59481250D01*
X173893750Y-61581250D02*
X164893750Y-61581250D01*
X164893750Y-61581250D02*
X169393750Y-61581250D01*
X160393750Y-59481250D02*
X164893750Y-59481250D01*
X160393750Y-59481250D02*
X160393750Y-57381250D01*
X169393750Y-59481250D02*
X160393750Y-59481250D01*
X169393750Y-57381250D02*
X169393750Y-59481250D01*
X160393750Y-57381250D02*
X169393750Y-57381250D01*
D12*
X168179464Y-57731250D02*
X168322321Y-57659821D01*
X168536607Y-57659821D01*
X168750892Y-57731250D01*
X168893750Y-57874107D01*
X168965178Y-58016964D01*
X169036607Y-58302678D01*
X169036607Y-58516964D01*
X168965178Y-58802678D01*
X168893750Y-58945535D01*
X168750892Y-59088392D01*
X168536607Y-59159821D01*
X168393750Y-59159821D01*
X168179464Y-59088392D01*
X168108035Y-59016964D01*
X168108035Y-58516964D01*
X168393750Y-58516964D01*
X166608035Y-59159821D02*
X167108035Y-58445535D01*
X167465178Y-59159821D02*
X167465178Y-57659821D01*
X166893750Y-57659821D01*
X166750892Y-57731250D01*
X166679464Y-57802678D01*
X166608035Y-57945535D01*
X166608035Y-58159821D01*
X166679464Y-58302678D01*
X166750892Y-58374107D01*
X166893750Y-58445535D01*
X167465178Y-58445535D01*
X166036607Y-58731250D02*
X165322321Y-58731250D01*
X166179464Y-59159821D02*
X165679464Y-57659821D01*
X165179464Y-59159821D01*
X164679464Y-59159821D02*
X164679464Y-57659821D01*
X164679464Y-58374107D02*
X163822321Y-58374107D01*
X163822321Y-59159821D02*
X163822321Y-57659821D01*
X163179464Y-58731250D02*
X162465178Y-58731250D01*
X163322321Y-59159821D02*
X162822321Y-57659821D01*
X162322321Y-59159821D01*
X161822321Y-59159821D02*
X161822321Y-57659821D01*
X161322321Y-58731250D01*
X160822321Y-57659821D01*
X160822321Y-59159821D01*
D13*
X145350000Y-53750000D02*
X145350000Y-53450000D01*
X145350000Y-54350000D02*
X145350000Y-54650000D01*
X145700000Y-54350000D02*
X144950000Y-54350000D01*
X144950000Y-53750000D02*
X145350000Y-54350000D01*
X145700000Y-53750000D02*
X144950000Y-53750000D01*
X145350000Y-54350000D02*
X145700000Y-53750000D01*
X146050000Y-56750000D02*
X144650000Y-56750000D01*
X146050000Y-56550000D02*
X144650000Y-56550000D01*
X146050000Y-56350000D02*
X144650000Y-56350000D01*
X146050000Y-56150000D02*
X144650000Y-56150000D01*
X144650000Y-56750000D02*
X144650000Y-51950000D01*
X146050000Y-51950000D02*
X144650000Y-51950000D01*
X146050000Y-56750000D02*
X146050000Y-51950000D01*
X164400000Y-53750000D02*
X164400000Y-53450000D01*
X164400000Y-54350000D02*
X164400000Y-54650000D01*
X164750000Y-54350000D02*
X164000000Y-54350000D01*
X164000000Y-53750000D02*
X164400000Y-54350000D01*
X164750000Y-53750000D02*
X164000000Y-53750000D01*
X164400000Y-54350000D02*
X164750000Y-53750000D01*
X165100000Y-56750000D02*
X163700000Y-56750000D01*
X165100000Y-56550000D02*
X163700000Y-56550000D01*
X165100000Y-56350000D02*
X163700000Y-56350000D01*
X165100000Y-56150000D02*
X163700000Y-56150000D01*
X163700000Y-56750000D02*
X163700000Y-51950000D01*
X165100000Y-51950000D02*
X163700000Y-51950000D01*
X165100000Y-56750000D02*
X165100000Y-51950000D01*
X179250000Y-126550000D02*
X179250000Y-126850000D01*
X179250000Y-125950000D02*
X179250000Y-125650000D01*
X178900000Y-125950000D02*
X179650000Y-125950000D01*
X179650000Y-126550000D02*
X179250000Y-125950000D01*
X178900000Y-126550000D02*
X179650000Y-126550000D01*
X179250000Y-125950000D02*
X178900000Y-126550000D01*
X178550000Y-123550000D02*
X179950000Y-123550000D01*
X178550000Y-123750000D02*
X179950000Y-123750000D01*
X178550000Y-123950000D02*
X179950000Y-123950000D01*
X178550000Y-124150000D02*
X179950000Y-124150000D01*
X179950000Y-123550000D02*
X179950000Y-128350000D01*
X178550000Y-128350000D02*
X179950000Y-128350000D01*
X178550000Y-123550000D02*
X178550000Y-128350000D01*
X160200000Y-126550000D02*
X160200000Y-126850000D01*
X160200000Y-125950000D02*
X160200000Y-125650000D01*
X159850000Y-125950000D02*
X160600000Y-125950000D01*
X160600000Y-126550000D02*
X160200000Y-125950000D01*
X159850000Y-126550000D02*
X160600000Y-126550000D01*
X160200000Y-125950000D02*
X159850000Y-126550000D01*
X159500000Y-123550000D02*
X160900000Y-123550000D01*
X159500000Y-123750000D02*
X160900000Y-123750000D01*
X159500000Y-123950000D02*
X160900000Y-123950000D01*
X159500000Y-124150000D02*
X160900000Y-124150000D01*
X160900000Y-123550000D02*
X160900000Y-128350000D01*
X159500000Y-128350000D02*
X160900000Y-128350000D01*
X159500000Y-123550000D02*
X159500000Y-128350000D01*
X141150000Y-126550000D02*
X141150000Y-126850000D01*
X141150000Y-125950000D02*
X141150000Y-125650000D01*
X140800000Y-125950000D02*
X141550000Y-125950000D01*
X141550000Y-126550000D02*
X141150000Y-125950000D01*
X140800000Y-126550000D02*
X141550000Y-126550000D01*
X141150000Y-125950000D02*
X140800000Y-126550000D01*
X140450000Y-123550000D02*
X141850000Y-123550000D01*
X140450000Y-123750000D02*
X141850000Y-123750000D01*
X140450000Y-123950000D02*
X141850000Y-123950000D01*
X140450000Y-124150000D02*
X141850000Y-124150000D01*
X141850000Y-123550000D02*
X141850000Y-128350000D01*
X140450000Y-128350000D02*
X141850000Y-128350000D01*
X140450000Y-123550000D02*
X140450000Y-128350000D01*
X122100000Y-126550000D02*
X122100000Y-126850000D01*
X122100000Y-125950000D02*
X122100000Y-125650000D01*
X121750000Y-125950000D02*
X122500000Y-125950000D01*
X122500000Y-126550000D02*
X122100000Y-125950000D01*
X121750000Y-126550000D02*
X122500000Y-126550000D01*
X122100000Y-125950000D02*
X121750000Y-126550000D01*
X121400000Y-123550000D02*
X122800000Y-123550000D01*
X121400000Y-123750000D02*
X122800000Y-123750000D01*
X121400000Y-123950000D02*
X122800000Y-123950000D01*
X121400000Y-124150000D02*
X122800000Y-124150000D01*
X122800000Y-123550000D02*
X122800000Y-128350000D01*
X121400000Y-128350000D02*
X122800000Y-128350000D01*
X121400000Y-123550000D02*
X121400000Y-128350000D01*
X103050000Y-126550000D02*
X103050000Y-126850000D01*
X103050000Y-125950000D02*
X103050000Y-125650000D01*
X102700000Y-125950000D02*
X103450000Y-125950000D01*
X103450000Y-126550000D02*
X103050000Y-125950000D01*
X102700000Y-126550000D02*
X103450000Y-126550000D01*
X103050000Y-125950000D02*
X102700000Y-126550000D01*
X102350000Y-123550000D02*
X103750000Y-123550000D01*
X102350000Y-123750000D02*
X103750000Y-123750000D01*
X102350000Y-123950000D02*
X103750000Y-123950000D01*
X102350000Y-124150000D02*
X103750000Y-124150000D01*
X103750000Y-123550000D02*
X103750000Y-128350000D01*
X102350000Y-128350000D02*
X103750000Y-128350000D01*
X102350000Y-123550000D02*
X102350000Y-128350000D01*
X84000000Y-126550000D02*
X84000000Y-126850000D01*
X84000000Y-125950000D02*
X84000000Y-125650000D01*
X83650000Y-125950000D02*
X84400000Y-125950000D01*
X84400000Y-126550000D02*
X84000000Y-125950000D01*
X83650000Y-126550000D02*
X84400000Y-126550000D01*
X84000000Y-125950000D02*
X83650000Y-126550000D01*
X83300000Y-123550000D02*
X84700000Y-123550000D01*
X83300000Y-123750000D02*
X84700000Y-123750000D01*
X83300000Y-123950000D02*
X84700000Y-123950000D01*
X83300000Y-124150000D02*
X84700000Y-124150000D01*
X84700000Y-123550000D02*
X84700000Y-128350000D01*
X83300000Y-128350000D02*
X84700000Y-128350000D01*
X83300000Y-123550000D02*
X83300000Y-128350000D01*
X179275000Y-107425000D02*
X179275000Y-107725000D01*
X179275000Y-106825000D02*
X179275000Y-106525000D01*
X178925000Y-106825000D02*
X179675000Y-106825000D01*
X179675000Y-107425000D02*
X179275000Y-106825000D01*
X178925000Y-107425000D02*
X179675000Y-107425000D01*
X179275000Y-106825000D02*
X178925000Y-107425000D01*
X178575000Y-104425000D02*
X179975000Y-104425000D01*
X178575000Y-104625000D02*
X179975000Y-104625000D01*
X178575000Y-104825000D02*
X179975000Y-104825000D01*
X178575000Y-105025000D02*
X179975000Y-105025000D01*
X179975000Y-104425000D02*
X179975000Y-109225000D01*
X178575000Y-109225000D02*
X179975000Y-109225000D01*
X178575000Y-104425000D02*
X178575000Y-109225000D01*
X160200000Y-107500000D02*
X160200000Y-107800000D01*
X160200000Y-106900000D02*
X160200000Y-106600000D01*
X159850000Y-106900000D02*
X160600000Y-106900000D01*
X160600000Y-107500000D02*
X160200000Y-106900000D01*
X159850000Y-107500000D02*
X160600000Y-107500000D01*
X160200000Y-106900000D02*
X159850000Y-107500000D01*
X159500000Y-104500000D02*
X160900000Y-104500000D01*
X159500000Y-104700000D02*
X160900000Y-104700000D01*
X159500000Y-104900000D02*
X160900000Y-104900000D01*
X159500000Y-105100000D02*
X160900000Y-105100000D01*
X160900000Y-104500000D02*
X160900000Y-109300000D01*
X159500000Y-109300000D02*
X160900000Y-109300000D01*
X159500000Y-104500000D02*
X159500000Y-109300000D01*
X141150000Y-107500000D02*
X141150000Y-107800000D01*
X141150000Y-106900000D02*
X141150000Y-106600000D01*
X140800000Y-106900000D02*
X141550000Y-106900000D01*
X141550000Y-107500000D02*
X141150000Y-106900000D01*
X140800000Y-107500000D02*
X141550000Y-107500000D01*
X141150000Y-106900000D02*
X140800000Y-107500000D01*
X140450000Y-104500000D02*
X141850000Y-104500000D01*
X140450000Y-104700000D02*
X141850000Y-104700000D01*
X140450000Y-104900000D02*
X141850000Y-104900000D01*
X140450000Y-105100000D02*
X141850000Y-105100000D01*
X141850000Y-104500000D02*
X141850000Y-109300000D01*
X140450000Y-109300000D02*
X141850000Y-109300000D01*
X140450000Y-104500000D02*
X140450000Y-109300000D01*
X122100000Y-107500000D02*
X122100000Y-107800000D01*
X122100000Y-106900000D02*
X122100000Y-106600000D01*
X121750000Y-106900000D02*
X122500000Y-106900000D01*
X122500000Y-107500000D02*
X122100000Y-106900000D01*
X121750000Y-107500000D02*
X122500000Y-107500000D01*
X122100000Y-106900000D02*
X121750000Y-107500000D01*
X121400000Y-104500000D02*
X122800000Y-104500000D01*
X121400000Y-104700000D02*
X122800000Y-104700000D01*
X121400000Y-104900000D02*
X122800000Y-104900000D01*
X121400000Y-105100000D02*
X122800000Y-105100000D01*
X122800000Y-104500000D02*
X122800000Y-109300000D01*
X121400000Y-109300000D02*
X122800000Y-109300000D01*
X121400000Y-104500000D02*
X121400000Y-109300000D01*
X103050000Y-107500000D02*
X103050000Y-107800000D01*
X103050000Y-106900000D02*
X103050000Y-106600000D01*
X102700000Y-106900000D02*
X103450000Y-106900000D01*
X103450000Y-107500000D02*
X103050000Y-106900000D01*
X102700000Y-107500000D02*
X103450000Y-107500000D01*
X103050000Y-106900000D02*
X102700000Y-107500000D01*
X102350000Y-104500000D02*
X103750000Y-104500000D01*
X102350000Y-104700000D02*
X103750000Y-104700000D01*
X102350000Y-104900000D02*
X103750000Y-104900000D01*
X102350000Y-105100000D02*
X103750000Y-105100000D01*
X103750000Y-104500000D02*
X103750000Y-109300000D01*
X102350000Y-109300000D02*
X103750000Y-109300000D01*
X102350000Y-104500000D02*
X102350000Y-109300000D01*
X84000000Y-107500000D02*
X84000000Y-107800000D01*
X84000000Y-106900000D02*
X84000000Y-106600000D01*
X83650000Y-106900000D02*
X84400000Y-106900000D01*
X84400000Y-107500000D02*
X84000000Y-106900000D01*
X83650000Y-107500000D02*
X84400000Y-107500000D01*
X84000000Y-106900000D02*
X83650000Y-107500000D01*
X83300000Y-104500000D02*
X84700000Y-104500000D01*
X83300000Y-104700000D02*
X84700000Y-104700000D01*
X83300000Y-104900000D02*
X84700000Y-104900000D01*
X83300000Y-105100000D02*
X84700000Y-105100000D01*
X84700000Y-104500000D02*
X84700000Y-109300000D01*
X83300000Y-109300000D02*
X84700000Y-109300000D01*
X83300000Y-104500000D02*
X83300000Y-109300000D01*
X179250000Y-88450000D02*
X179250000Y-88750000D01*
X179250000Y-87850000D02*
X179250000Y-87550000D01*
X178900000Y-87850000D02*
X179650000Y-87850000D01*
X179650000Y-88450000D02*
X179250000Y-87850000D01*
X178900000Y-88450000D02*
X179650000Y-88450000D01*
X179250000Y-87850000D02*
X178900000Y-88450000D01*
X178550000Y-85450000D02*
X179950000Y-85450000D01*
X178550000Y-85650000D02*
X179950000Y-85650000D01*
X178550000Y-85850000D02*
X179950000Y-85850000D01*
X178550000Y-86050000D02*
X179950000Y-86050000D01*
X179950000Y-85450000D02*
X179950000Y-90250000D01*
X178550000Y-90250000D02*
X179950000Y-90250000D01*
X178550000Y-85450000D02*
X178550000Y-90250000D01*
X160200000Y-88450000D02*
X160200000Y-88750000D01*
X160200000Y-87850000D02*
X160200000Y-87550000D01*
X159850000Y-87850000D02*
X160600000Y-87850000D01*
X160600000Y-88450000D02*
X160200000Y-87850000D01*
X159850000Y-88450000D02*
X160600000Y-88450000D01*
X160200000Y-87850000D02*
X159850000Y-88450000D01*
X159500000Y-85450000D02*
X160900000Y-85450000D01*
X159500000Y-85650000D02*
X160900000Y-85650000D01*
X159500000Y-85850000D02*
X160900000Y-85850000D01*
X159500000Y-86050000D02*
X160900000Y-86050000D01*
X160900000Y-85450000D02*
X160900000Y-90250000D01*
X159500000Y-90250000D02*
X160900000Y-90250000D01*
X159500000Y-85450000D02*
X159500000Y-90250000D01*
X141150000Y-88450000D02*
X141150000Y-88750000D01*
X141150000Y-87850000D02*
X141150000Y-87550000D01*
X140800000Y-87850000D02*
X141550000Y-87850000D01*
X141550000Y-88450000D02*
X141150000Y-87850000D01*
X140800000Y-88450000D02*
X141550000Y-88450000D01*
X141150000Y-87850000D02*
X140800000Y-88450000D01*
X140450000Y-85450000D02*
X141850000Y-85450000D01*
X140450000Y-85650000D02*
X141850000Y-85650000D01*
X140450000Y-85850000D02*
X141850000Y-85850000D01*
X140450000Y-86050000D02*
X141850000Y-86050000D01*
X141850000Y-85450000D02*
X141850000Y-90250000D01*
X140450000Y-90250000D02*
X141850000Y-90250000D01*
X140450000Y-85450000D02*
X140450000Y-90250000D01*
X122100000Y-88450000D02*
X122100000Y-88750000D01*
X122100000Y-87850000D02*
X122100000Y-87550000D01*
X121750000Y-87850000D02*
X122500000Y-87850000D01*
X122500000Y-88450000D02*
X122100000Y-87850000D01*
X121750000Y-88450000D02*
X122500000Y-88450000D01*
X122100000Y-87850000D02*
X121750000Y-88450000D01*
X121400000Y-85450000D02*
X122800000Y-85450000D01*
X121400000Y-85650000D02*
X122800000Y-85650000D01*
X121400000Y-85850000D02*
X122800000Y-85850000D01*
X121400000Y-86050000D02*
X122800000Y-86050000D01*
X122800000Y-85450000D02*
X122800000Y-90250000D01*
X121400000Y-90250000D02*
X122800000Y-90250000D01*
X121400000Y-85450000D02*
X121400000Y-90250000D01*
X103050000Y-88450000D02*
X103050000Y-88750000D01*
X103050000Y-87850000D02*
X103050000Y-87550000D01*
X102700000Y-87850000D02*
X103450000Y-87850000D01*
X103450000Y-88450000D02*
X103050000Y-87850000D01*
X102700000Y-88450000D02*
X103450000Y-88450000D01*
X103050000Y-87850000D02*
X102700000Y-88450000D01*
X102350000Y-85450000D02*
X103750000Y-85450000D01*
X102350000Y-85650000D02*
X103750000Y-85650000D01*
X102350000Y-85850000D02*
X103750000Y-85850000D01*
X102350000Y-86050000D02*
X103750000Y-86050000D01*
X103750000Y-85450000D02*
X103750000Y-90250000D01*
X102350000Y-90250000D02*
X103750000Y-90250000D01*
X102350000Y-85450000D02*
X102350000Y-90250000D01*
X84000000Y-88450000D02*
X84000000Y-88750000D01*
X84000000Y-87850000D02*
X84000000Y-87550000D01*
X83650000Y-87850000D02*
X84400000Y-87850000D01*
X84400000Y-88450000D02*
X84000000Y-87850000D01*
X83650000Y-88450000D02*
X84400000Y-88450000D01*
X84000000Y-87850000D02*
X83650000Y-88450000D01*
X83300000Y-85450000D02*
X84700000Y-85450000D01*
X83300000Y-85650000D02*
X84700000Y-85650000D01*
X83300000Y-85850000D02*
X84700000Y-85850000D01*
X83300000Y-86050000D02*
X84700000Y-86050000D01*
X84700000Y-85450000D02*
X84700000Y-90250000D01*
X83300000Y-90250000D02*
X84700000Y-90250000D01*
X83300000Y-85450000D02*
X83300000Y-90250000D01*
X179250000Y-69400000D02*
X179250000Y-69700000D01*
X179250000Y-68800000D02*
X179250000Y-68500000D01*
X178900000Y-68800000D02*
X179650000Y-68800000D01*
X179650000Y-69400000D02*
X179250000Y-68800000D01*
X178900000Y-69400000D02*
X179650000Y-69400000D01*
X179250000Y-68800000D02*
X178900000Y-69400000D01*
X178550000Y-66400000D02*
X179950000Y-66400000D01*
X178550000Y-66600000D02*
X179950000Y-66600000D01*
X178550000Y-66800000D02*
X179950000Y-66800000D01*
X178550000Y-67000000D02*
X179950000Y-67000000D01*
X179950000Y-66400000D02*
X179950000Y-71200000D01*
X178550000Y-71200000D02*
X179950000Y-71200000D01*
X178550000Y-66400000D02*
X178550000Y-71200000D01*
X160200000Y-69400000D02*
X160200000Y-69700000D01*
X160200000Y-68800000D02*
X160200000Y-68500000D01*
X159850000Y-68800000D02*
X160600000Y-68800000D01*
X160600000Y-69400000D02*
X160200000Y-68800000D01*
X159850000Y-69400000D02*
X160600000Y-69400000D01*
X160200000Y-68800000D02*
X159850000Y-69400000D01*
X159500000Y-66400000D02*
X160900000Y-66400000D01*
X159500000Y-66600000D02*
X160900000Y-66600000D01*
X159500000Y-66800000D02*
X160900000Y-66800000D01*
X159500000Y-67000000D02*
X160900000Y-67000000D01*
X160900000Y-66400000D02*
X160900000Y-71200000D01*
X159500000Y-71200000D02*
X160900000Y-71200000D01*
X159500000Y-66400000D02*
X159500000Y-71200000D01*
X143975000Y-69400000D02*
X143975000Y-69700000D01*
X143975000Y-68800000D02*
X143975000Y-68500000D01*
X143625000Y-68800000D02*
X144375000Y-68800000D01*
X144375000Y-69400000D02*
X143975000Y-68800000D01*
X143625000Y-69400000D02*
X144375000Y-69400000D01*
X143975000Y-68800000D02*
X143625000Y-69400000D01*
X143275000Y-66400000D02*
X144675000Y-66400000D01*
X143275000Y-66600000D02*
X144675000Y-66600000D01*
X143275000Y-66800000D02*
X144675000Y-66800000D01*
X143275000Y-67000000D02*
X144675000Y-67000000D01*
X144675000Y-66400000D02*
X144675000Y-71200000D01*
X143275000Y-71200000D02*
X144675000Y-71200000D01*
X143275000Y-66400000D02*
X143275000Y-71200000D01*
X122100000Y-69400000D02*
X122100000Y-69700000D01*
X122100000Y-68800000D02*
X122100000Y-68500000D01*
X121750000Y-68800000D02*
X122500000Y-68800000D01*
X122500000Y-69400000D02*
X122100000Y-68800000D01*
X121750000Y-69400000D02*
X122500000Y-69400000D01*
X122100000Y-68800000D02*
X121750000Y-69400000D01*
X121400000Y-66400000D02*
X122800000Y-66400000D01*
X121400000Y-66600000D02*
X122800000Y-66600000D01*
X121400000Y-66800000D02*
X122800000Y-66800000D01*
X121400000Y-67000000D02*
X122800000Y-67000000D01*
X122800000Y-66400000D02*
X122800000Y-71200000D01*
X121400000Y-71200000D02*
X122800000Y-71200000D01*
X121400000Y-66400000D02*
X121400000Y-71200000D01*
X103050000Y-69400000D02*
X103050000Y-69700000D01*
X103050000Y-68800000D02*
X103050000Y-68500000D01*
X102700000Y-68800000D02*
X103450000Y-68800000D01*
X103450000Y-69400000D02*
X103050000Y-68800000D01*
X102700000Y-69400000D02*
X103450000Y-69400000D01*
X103050000Y-68800000D02*
X102700000Y-69400000D01*
X102350000Y-66400000D02*
X103750000Y-66400000D01*
X102350000Y-66600000D02*
X103750000Y-66600000D01*
X102350000Y-66800000D02*
X103750000Y-66800000D01*
X102350000Y-67000000D02*
X103750000Y-67000000D01*
X103750000Y-66400000D02*
X103750000Y-71200000D01*
X102350000Y-71200000D02*
X103750000Y-71200000D01*
X102350000Y-66400000D02*
X102350000Y-71200000D01*
X84000000Y-69400000D02*
X84000000Y-69700000D01*
X84000000Y-68800000D02*
X84000000Y-68500000D01*
X83650000Y-68800000D02*
X84400000Y-68800000D01*
X84400000Y-69400000D02*
X84000000Y-68800000D01*
X83650000Y-69400000D02*
X84400000Y-69400000D01*
X84000000Y-68800000D02*
X83650000Y-69400000D01*
X83300000Y-66400000D02*
X84700000Y-66400000D01*
X83300000Y-66600000D02*
X84700000Y-66600000D01*
X83300000Y-66800000D02*
X84700000Y-66800000D01*
X83300000Y-67000000D02*
X84700000Y-67000000D01*
X84700000Y-66400000D02*
X84700000Y-71200000D01*
X83300000Y-71200000D02*
X84700000Y-71200000D01*
X83300000Y-66400000D02*
X83300000Y-71200000D01*
X123775000Y-49775000D02*
X123775000Y-49475000D01*
X123775000Y-50375000D02*
X123775000Y-50675000D01*
X124125000Y-50375000D02*
X123375000Y-50375000D01*
X123375000Y-49775000D02*
X123775000Y-50375000D01*
X124125000Y-49775000D02*
X123375000Y-49775000D01*
X123775000Y-50375000D02*
X124125000Y-49775000D01*
X124475000Y-52775000D02*
X123075000Y-52775000D01*
X124475000Y-52575000D02*
X123075000Y-52575000D01*
X124475000Y-52375000D02*
X123075000Y-52375000D01*
X124475000Y-52175000D02*
X123075000Y-52175000D01*
X123075000Y-52775000D02*
X123075000Y-47975000D01*
X124475000Y-47975000D02*
X123075000Y-47975000D01*
X124475000Y-52775000D02*
X124475000Y-47975000D01*
X107250000Y-53750000D02*
X107250000Y-53450000D01*
X107250000Y-54350000D02*
X107250000Y-54650000D01*
X107600000Y-54350000D02*
X106850000Y-54350000D01*
X106850000Y-53750000D02*
X107250000Y-54350000D01*
X107600000Y-53750000D02*
X106850000Y-53750000D01*
X107250000Y-54350000D02*
X107600000Y-53750000D01*
X107950000Y-56750000D02*
X106550000Y-56750000D01*
X107950000Y-56550000D02*
X106550000Y-56550000D01*
X107950000Y-56350000D02*
X106550000Y-56350000D01*
X107950000Y-56150000D02*
X106550000Y-56150000D01*
X106550000Y-56750000D02*
X106550000Y-51950000D01*
X107950000Y-51950000D02*
X106550000Y-51950000D01*
X107950000Y-56750000D02*
X107950000Y-51950000D01*
X88200000Y-53750000D02*
X88200000Y-53450000D01*
X88200000Y-54350000D02*
X88200000Y-54650000D01*
X88550000Y-54350000D02*
X87800000Y-54350000D01*
X87800000Y-53750000D02*
X88200000Y-54350000D01*
X88550000Y-53750000D02*
X87800000Y-53750000D01*
X88200000Y-54350000D02*
X88550000Y-53750000D01*
X88900000Y-56750000D02*
X87500000Y-56750000D01*
X88900000Y-56550000D02*
X87500000Y-56550000D01*
X88900000Y-56350000D02*
X87500000Y-56350000D01*
X88900000Y-56150000D02*
X87500000Y-56150000D01*
X87500000Y-56750000D02*
X87500000Y-51950000D01*
X88900000Y-51950000D02*
X87500000Y-51950000D01*
X88900000Y-56750000D02*
X88900000Y-51950000D01*
X69150000Y-53750000D02*
X69150000Y-53450000D01*
X69150000Y-54350000D02*
X69150000Y-54650000D01*
X69500000Y-54350000D02*
X68750000Y-54350000D01*
X68750000Y-53750000D02*
X69150000Y-54350000D01*
X69500000Y-53750000D02*
X68750000Y-53750000D01*
X69150000Y-54350000D02*
X69500000Y-53750000D01*
X69850000Y-56750000D02*
X68450000Y-56750000D01*
X69850000Y-56550000D02*
X68450000Y-56550000D01*
X69850000Y-56350000D02*
X68450000Y-56350000D01*
X69850000Y-56150000D02*
X68450000Y-56150000D01*
X68450000Y-56750000D02*
X68450000Y-51950000D01*
X69850000Y-51950000D02*
X68450000Y-51950000D01*
X69850000Y-56750000D02*
X69850000Y-51950000D01*
D10*
X82785000Y-71965000D02*
X79190000Y-71965000D01*
X82785000Y-76180000D02*
X82785000Y-71965000D01*
X71785000Y-77850000D02*
X71785000Y-73640000D01*
X81110000Y-77855000D02*
X71785000Y-77855000D01*
X77515000Y-73640000D02*
X71785000Y-73640000D01*
X79190000Y-71965000D02*
G75*
G02*
X77515000Y-73640000I-1675000J0D01*
G01*
X82785000Y-76180000D02*
G75*
G02*
X81110000Y-77855000I-1675000J0D01*
G01*
X86150000Y-84250000D02*
X86150000Y-78150000D01*
X98250000Y-84250000D02*
X98250000Y-78150000D01*
X86150000Y-84250000D02*
X98250000Y-84250000D01*
X86150000Y-78150000D02*
X98250000Y-78150000D01*
X86150000Y-84000000D02*
X84150000Y-84000000D01*
X86150000Y-78400000D02*
X84150000Y-78400000D01*
X84150000Y-84000000D02*
X84150000Y-78400000D01*
X67150000Y-84250000D02*
X67150000Y-78150000D01*
X79250000Y-84250000D02*
X79250000Y-78150000D01*
X67150000Y-84250000D02*
X79250000Y-84250000D01*
X67150000Y-78150000D02*
X79250000Y-78150000D01*
X67150000Y-84000000D02*
X65150000Y-84000000D01*
X67150000Y-78400000D02*
X65150000Y-78400000D01*
X65150000Y-84000000D02*
X65150000Y-78400000D01*
X146715000Y-51185000D02*
X150310000Y-51185000D01*
X146715000Y-46970000D02*
X146715000Y-51185000D01*
X157715000Y-45300000D02*
X157715000Y-49510000D01*
X148390000Y-45295000D02*
X157715000Y-45295000D01*
X151985000Y-49510000D02*
X157715000Y-49510000D01*
X150310000Y-51185000D02*
G75*
G02*
X151985000Y-49510000I1675000J0D01*
G01*
X146715000Y-46970000D02*
G75*
G02*
X148390000Y-45295000I1675000J0D01*
G01*
X171035000Y-49510000D02*
X176765000Y-49510000D01*
X167440000Y-45295000D02*
X176765000Y-45295000D01*
X176765000Y-45300000D02*
X176765000Y-49510000D01*
X165765000Y-46970000D02*
X165765000Y-51185000D01*
X165765000Y-51185000D02*
X169360000Y-51185000D01*
X165765000Y-46970000D02*
G75*
G02*
X167440000Y-45295000I1675000J0D01*
G01*
X169360000Y-51185000D02*
G75*
G02*
X171035000Y-49510000I1675000J0D01*
G01*
D14*
X142665000Y-43910000D02*
X142665000Y-74390000D01*
X142665000Y-74390000D02*
X124885000Y-74390000D01*
X124885000Y-74390000D02*
X124885000Y-43910000D01*
X140125000Y-43910000D02*
X140125000Y-46450000D01*
X140125000Y-46450000D02*
X142665000Y-46450000D01*
X124885000Y-43910000D02*
X124885000Y-41370000D01*
X124885000Y-41370000D02*
X142665000Y-41370000D01*
X142665000Y-41370000D02*
X142665000Y-43910000D01*
X140125000Y-43910000D02*
X142665000Y-43910000D01*
D11*
X130695000Y-61670000D02*
X130695000Y-58930000D01*
X130695000Y-58930000D02*
X137235000Y-58930000D01*
X137235000Y-58930000D02*
X137235000Y-61670000D01*
X137235000Y-61670000D02*
X130695000Y-61670000D01*
X129925000Y-60300000D02*
X130695000Y-60300000D01*
X138005000Y-60300000D02*
X137235000Y-60300000D01*
X130685000Y-64920000D02*
X130685000Y-62180000D01*
X130685000Y-62180000D02*
X137225000Y-62180000D01*
X137225000Y-62180000D02*
X137225000Y-64920000D01*
X137225000Y-64920000D02*
X130685000Y-64920000D01*
X129915000Y-63550000D02*
X130685000Y-63550000D01*
X137995000Y-63550000D02*
X137225000Y-63550000D01*
D10*
X181400000Y-78150000D02*
X181400000Y-84250000D01*
X169300000Y-78150000D02*
X169300000Y-84250000D01*
X181400000Y-78150000D02*
X169300000Y-78150000D01*
X181400000Y-84250000D02*
X169300000Y-84250000D01*
X181400000Y-78400000D02*
X183400000Y-78400000D01*
X181400000Y-84000000D02*
X183400000Y-84000000D01*
X183400000Y-78400000D02*
X183400000Y-84000000D01*
X178035000Y-110065000D02*
X174440000Y-110065000D01*
X178035000Y-114280000D02*
X178035000Y-110065000D01*
X167035000Y-115950000D02*
X167035000Y-111740000D01*
X176360000Y-115955000D02*
X167035000Y-115955000D01*
X172765000Y-111740000D02*
X167035000Y-111740000D01*
X174440000Y-110065000D02*
G75*
G02*
X172765000Y-111740000I-1675000J0D01*
G01*
X178035000Y-114280000D02*
G75*
G02*
X176360000Y-115955000I-1675000J0D01*
G01*
X82785000Y-110065000D02*
X79190000Y-110065000D01*
X82785000Y-114280000D02*
X82785000Y-110065000D01*
X71785000Y-115950000D02*
X71785000Y-111740000D01*
X81110000Y-115955000D02*
X71785000Y-115955000D01*
X77515000Y-111740000D02*
X71785000Y-111740000D01*
X79190000Y-110065000D02*
G75*
G02*
X77515000Y-111740000I-1675000J0D01*
G01*
X82785000Y-114280000D02*
G75*
G02*
X81110000Y-115955000I-1675000J0D01*
G01*
X178035000Y-129115000D02*
X174440000Y-129115000D01*
X178035000Y-133330000D02*
X178035000Y-129115000D01*
X167035000Y-135000000D02*
X167035000Y-130790000D01*
X176360000Y-135005000D02*
X167035000Y-135005000D01*
X172765000Y-130790000D02*
X167035000Y-130790000D01*
X174440000Y-129115000D02*
G75*
G02*
X172765000Y-130790000I-1675000J0D01*
G01*
X178035000Y-133330000D02*
G75*
G02*
X176360000Y-135005000I-1675000J0D01*
G01*
X158985000Y-129115000D02*
X155390000Y-129115000D01*
X158985000Y-133330000D02*
X158985000Y-129115000D01*
X147985000Y-135000000D02*
X147985000Y-130790000D01*
X157310000Y-135005000D02*
X147985000Y-135005000D01*
X153715000Y-130790000D02*
X147985000Y-130790000D01*
X155390000Y-129115000D02*
G75*
G02*
X153715000Y-130790000I-1675000J0D01*
G01*
X158985000Y-133330000D02*
G75*
G02*
X157310000Y-135005000I-1675000J0D01*
G01*
X139935000Y-129115000D02*
X136340000Y-129115000D01*
X139935000Y-133330000D02*
X139935000Y-129115000D01*
X128935000Y-135000000D02*
X128935000Y-130790000D01*
X138260000Y-135005000D02*
X128935000Y-135005000D01*
X134665000Y-130790000D02*
X128935000Y-130790000D01*
X136340000Y-129115000D02*
G75*
G02*
X134665000Y-130790000I-1675000J0D01*
G01*
X139935000Y-133330000D02*
G75*
G02*
X138260000Y-135005000I-1675000J0D01*
G01*
X120885000Y-129115000D02*
X117290000Y-129115000D01*
X120885000Y-133330000D02*
X120885000Y-129115000D01*
X109885000Y-135000000D02*
X109885000Y-130790000D01*
X119210000Y-135005000D02*
X109885000Y-135005000D01*
X115615000Y-130790000D02*
X109885000Y-130790000D01*
X117290000Y-129115000D02*
G75*
G02*
X115615000Y-130790000I-1675000J0D01*
G01*
X120885000Y-133330000D02*
G75*
G02*
X119210000Y-135005000I-1675000J0D01*
G01*
X101835000Y-129115000D02*
X98240000Y-129115000D01*
X101835000Y-133330000D02*
X101835000Y-129115000D01*
X90835000Y-135000000D02*
X90835000Y-130790000D01*
X100160000Y-135005000D02*
X90835000Y-135005000D01*
X96565000Y-130790000D02*
X90835000Y-130790000D01*
X98240000Y-129115000D02*
G75*
G02*
X96565000Y-130790000I-1675000J0D01*
G01*
X101835000Y-133330000D02*
G75*
G02*
X100160000Y-135005000I-1675000J0D01*
G01*
X82785000Y-129115000D02*
X79190000Y-129115000D01*
X82785000Y-133330000D02*
X82785000Y-129115000D01*
X71785000Y-135000000D02*
X71785000Y-130790000D01*
X81110000Y-135005000D02*
X71785000Y-135005000D01*
X77515000Y-130790000D02*
X71785000Y-130790000D01*
X79190000Y-129115000D02*
G75*
G02*
X77515000Y-130790000I-1675000J0D01*
G01*
X82785000Y-133330000D02*
G75*
G02*
X81110000Y-135005000I-1675000J0D01*
G01*
X158985000Y-110065000D02*
X155390000Y-110065000D01*
X158985000Y-114280000D02*
X158985000Y-110065000D01*
X147985000Y-115950000D02*
X147985000Y-111740000D01*
X157310000Y-115955000D02*
X147985000Y-115955000D01*
X153715000Y-111740000D02*
X147985000Y-111740000D01*
X155390000Y-110065000D02*
G75*
G02*
X153715000Y-111740000I-1675000J0D01*
G01*
X158985000Y-114280000D02*
G75*
G02*
X157310000Y-115955000I-1675000J0D01*
G01*
X139935000Y-110065000D02*
X136340000Y-110065000D01*
X139935000Y-114280000D02*
X139935000Y-110065000D01*
X128935000Y-115950000D02*
X128935000Y-111740000D01*
X138260000Y-115955000D02*
X128935000Y-115955000D01*
X134665000Y-111740000D02*
X128935000Y-111740000D01*
X136340000Y-110065000D02*
G75*
G02*
X134665000Y-111740000I-1675000J0D01*
G01*
X139935000Y-114280000D02*
G75*
G02*
X138260000Y-115955000I-1675000J0D01*
G01*
X120885000Y-110065000D02*
X117290000Y-110065000D01*
X120885000Y-114280000D02*
X120885000Y-110065000D01*
X109885000Y-115950000D02*
X109885000Y-111740000D01*
X119210000Y-115955000D02*
X109885000Y-115955000D01*
X115615000Y-111740000D02*
X109885000Y-111740000D01*
X117290000Y-110065000D02*
G75*
G02*
X115615000Y-111740000I-1675000J0D01*
G01*
X120885000Y-114280000D02*
G75*
G02*
X119210000Y-115955000I-1675000J0D01*
G01*
X101835000Y-110065000D02*
X98240000Y-110065000D01*
X101835000Y-114280000D02*
X101835000Y-110065000D01*
X90835000Y-115950000D02*
X90835000Y-111740000D01*
X100160000Y-115955000D02*
X90835000Y-115955000D01*
X96565000Y-111740000D02*
X90835000Y-111740000D01*
X98240000Y-110065000D02*
G75*
G02*
X96565000Y-111740000I-1675000J0D01*
G01*
X101835000Y-114280000D02*
G75*
G02*
X100160000Y-115955000I-1675000J0D01*
G01*
X178035000Y-91015000D02*
X174440000Y-91015000D01*
X178035000Y-95230000D02*
X178035000Y-91015000D01*
X167035000Y-96900000D02*
X167035000Y-92690000D01*
X176360000Y-96905000D02*
X167035000Y-96905000D01*
X172765000Y-92690000D02*
X167035000Y-92690000D01*
X174440000Y-91015000D02*
G75*
G02*
X172765000Y-92690000I-1675000J0D01*
G01*
X178035000Y-95230000D02*
G75*
G02*
X176360000Y-96905000I-1675000J0D01*
G01*
X158985000Y-91015000D02*
X155390000Y-91015000D01*
X158985000Y-95230000D02*
X158985000Y-91015000D01*
X147985000Y-96900000D02*
X147985000Y-92690000D01*
X157310000Y-96905000D02*
X147985000Y-96905000D01*
X153715000Y-92690000D02*
X147985000Y-92690000D01*
X155390000Y-91015000D02*
G75*
G02*
X153715000Y-92690000I-1675000J0D01*
G01*
X158985000Y-95230000D02*
G75*
G02*
X157310000Y-96905000I-1675000J0D01*
G01*
X139935000Y-91015000D02*
X136340000Y-91015000D01*
X139935000Y-95230000D02*
X139935000Y-91015000D01*
X128935000Y-96900000D02*
X128935000Y-92690000D01*
X138260000Y-96905000D02*
X128935000Y-96905000D01*
X134665000Y-92690000D02*
X128935000Y-92690000D01*
X136340000Y-91015000D02*
G75*
G02*
X134665000Y-92690000I-1675000J0D01*
G01*
X139935000Y-95230000D02*
G75*
G02*
X138260000Y-96905000I-1675000J0D01*
G01*
X120885000Y-91015000D02*
X117290000Y-91015000D01*
X120885000Y-95230000D02*
X120885000Y-91015000D01*
X109885000Y-96900000D02*
X109885000Y-92690000D01*
X119210000Y-96905000D02*
X109885000Y-96905000D01*
X115615000Y-92690000D02*
X109885000Y-92690000D01*
X117290000Y-91015000D02*
G75*
G02*
X115615000Y-92690000I-1675000J0D01*
G01*
X120885000Y-95230000D02*
G75*
G02*
X119210000Y-96905000I-1675000J0D01*
G01*
X101835000Y-91015000D02*
X98240000Y-91015000D01*
X101835000Y-95230000D02*
X101835000Y-91015000D01*
X90835000Y-96900000D02*
X90835000Y-92690000D01*
X100160000Y-96905000D02*
X90835000Y-96905000D01*
X96565000Y-92690000D02*
X90835000Y-92690000D01*
X98240000Y-91015000D02*
G75*
G02*
X96565000Y-92690000I-1675000J0D01*
G01*
X101835000Y-95230000D02*
G75*
G02*
X100160000Y-96905000I-1675000J0D01*
G01*
X82785000Y-91015000D02*
X79190000Y-91015000D01*
X82785000Y-95230000D02*
X82785000Y-91015000D01*
X71785000Y-96900000D02*
X71785000Y-92690000D01*
X81110000Y-96905000D02*
X71785000Y-96905000D01*
X77515000Y-92690000D02*
X71785000Y-92690000D01*
X79190000Y-91015000D02*
G75*
G02*
X77515000Y-92690000I-1675000J0D01*
G01*
X82785000Y-95230000D02*
G75*
G02*
X81110000Y-96905000I-1675000J0D01*
G01*
X172765000Y-73640000D02*
X167035000Y-73640000D01*
X176360000Y-77855000D02*
X167035000Y-77855000D01*
X167035000Y-77850000D02*
X167035000Y-73640000D01*
X178035000Y-76180000D02*
X178035000Y-71965000D01*
X178035000Y-71965000D02*
X174440000Y-71965000D01*
X178035000Y-76180000D02*
G75*
G02*
X176360000Y-77855000I-1675000J0D01*
G01*
X174440000Y-71965000D02*
G75*
G02*
X172765000Y-73640000I-1675000J0D01*
G01*
X158985000Y-71965000D02*
X155390000Y-71965000D01*
X158985000Y-76180000D02*
X158985000Y-71965000D01*
X147985000Y-77850000D02*
X147985000Y-73640000D01*
X157310000Y-77855000D02*
X147985000Y-77855000D01*
X153715000Y-73640000D02*
X147985000Y-73640000D01*
X155390000Y-71965000D02*
G75*
G02*
X153715000Y-73640000I-1675000J0D01*
G01*
X158985000Y-76180000D02*
G75*
G02*
X157310000Y-77855000I-1675000J0D01*
G01*
X139935000Y-71965000D02*
X136340000Y-71965000D01*
X139935000Y-76180000D02*
X139935000Y-71965000D01*
X128935000Y-77850000D02*
X128935000Y-73640000D01*
X138260000Y-77855000D02*
X128935000Y-77855000D01*
X134665000Y-73640000D02*
X128935000Y-73640000D01*
X136340000Y-71965000D02*
G75*
G02*
X134665000Y-73640000I-1675000J0D01*
G01*
X139935000Y-76180000D02*
G75*
G02*
X138260000Y-77855000I-1675000J0D01*
G01*
X120885000Y-71965000D02*
X117290000Y-71965000D01*
X120885000Y-76180000D02*
X120885000Y-71965000D01*
X109885000Y-77850000D02*
X109885000Y-73640000D01*
X119210000Y-77855000D02*
X109885000Y-77855000D01*
X115615000Y-73640000D02*
X109885000Y-73640000D01*
X117290000Y-71965000D02*
G75*
G02*
X115615000Y-73640000I-1675000J0D01*
G01*
X120885000Y-76180000D02*
G75*
G02*
X119210000Y-77855000I-1675000J0D01*
G01*
X101835000Y-71965000D02*
X98240000Y-71965000D01*
X101835000Y-76180000D02*
X101835000Y-71965000D01*
X90835000Y-77850000D02*
X90835000Y-73640000D01*
X100160000Y-77855000D02*
X90835000Y-77855000D01*
X96565000Y-73640000D02*
X90835000Y-73640000D01*
X98240000Y-71965000D02*
G75*
G02*
X96565000Y-73640000I-1675000J0D01*
G01*
X101835000Y-76180000D02*
G75*
G02*
X100160000Y-77855000I-1675000J0D01*
G01*
X127665000Y-51185000D02*
X131260000Y-51185000D01*
X127665000Y-46970000D02*
X127665000Y-51185000D01*
X138665000Y-45300000D02*
X138665000Y-49510000D01*
X129340000Y-45295000D02*
X138665000Y-45295000D01*
X132935000Y-49510000D02*
X138665000Y-49510000D01*
X131260000Y-51185000D02*
G75*
G02*
X132935000Y-49510000I1675000J0D01*
G01*
X127665000Y-46970000D02*
G75*
G02*
X129340000Y-45295000I1675000J0D01*
G01*
X108615000Y-51185000D02*
X112210000Y-51185000D01*
X108615000Y-46970000D02*
X108615000Y-51185000D01*
X119615000Y-45300000D02*
X119615000Y-49510000D01*
X110290000Y-45295000D02*
X119615000Y-45295000D01*
X113885000Y-49510000D02*
X119615000Y-49510000D01*
X112210000Y-51185000D02*
G75*
G02*
X113885000Y-49510000I1675000J0D01*
G01*
X108615000Y-46970000D02*
G75*
G02*
X110290000Y-45295000I1675000J0D01*
G01*
X89565000Y-51185000D02*
X93160000Y-51185000D01*
X89565000Y-46970000D02*
X89565000Y-51185000D01*
X100565000Y-45300000D02*
X100565000Y-49510000D01*
X91240000Y-45295000D02*
X100565000Y-45295000D01*
X94835000Y-49510000D02*
X100565000Y-49510000D01*
X93160000Y-51185000D02*
G75*
G02*
X94835000Y-49510000I1675000J0D01*
G01*
X89565000Y-46970000D02*
G75*
G02*
X91240000Y-45295000I1675000J0D01*
G01*
X70515000Y-51185000D02*
X74110000Y-51185000D01*
X70515000Y-46970000D02*
X70515000Y-51185000D01*
X81515000Y-45300000D02*
X81515000Y-49510000D01*
X72190000Y-45295000D02*
X81515000Y-45295000D01*
X75785000Y-49510000D02*
X81515000Y-49510000D01*
X74110000Y-51185000D02*
G75*
G02*
X75785000Y-49510000I1675000J0D01*
G01*
X70515000Y-46970000D02*
G75*
G02*
X72190000Y-45295000I1675000J0D01*
G01*
X128637809Y-70522857D02*
X128523523Y-70560952D01*
X128485428Y-70599047D01*
X128447333Y-70675238D01*
X128447333Y-70789523D01*
X128485428Y-70865714D01*
X128523523Y-70903809D01*
X128599714Y-70941904D01*
X128904476Y-70941904D01*
X128904476Y-70141904D01*
X128637809Y-70141904D01*
X128561619Y-70180000D01*
X128523523Y-70218095D01*
X128485428Y-70294285D01*
X128485428Y-70370476D01*
X128523523Y-70446666D01*
X128561619Y-70484761D01*
X128637809Y-70522857D01*
X128904476Y-70522857D01*
X128142571Y-70218095D02*
X128104476Y-70180000D01*
X128028285Y-70141904D01*
X127837809Y-70141904D01*
X127761619Y-70180000D01*
X127723523Y-70218095D01*
X127685428Y-70294285D01*
X127685428Y-70370476D01*
X127723523Y-70484761D01*
X128180666Y-70941904D01*
X127685428Y-70941904D01*
X128580666Y-62902857D02*
X128847333Y-62902857D01*
X128847333Y-63321904D02*
X128847333Y-62521904D01*
X128466380Y-62521904D01*
X128237809Y-62521904D02*
X127704476Y-62521904D01*
X128047333Y-63321904D01*
X128580666Y-60362857D02*
X128847333Y-60362857D01*
X128847333Y-60781904D02*
X128847333Y-59981904D01*
X128466380Y-59981904D01*
X127818761Y-59981904D02*
X127971142Y-59981904D01*
X128047333Y-60020000D01*
X128085428Y-60058095D01*
X128161619Y-60172380D01*
X128199714Y-60324761D01*
X128199714Y-60629523D01*
X128161619Y-60705714D01*
X128123523Y-60743809D01*
X128047333Y-60781904D01*
X127894952Y-60781904D01*
X127818761Y-60743809D01*
X127780666Y-60705714D01*
X127742571Y-60629523D01*
X127742571Y-60439047D01*
X127780666Y-60362857D01*
X127818761Y-60324761D01*
X127894952Y-60286666D01*
X128047333Y-60286666D01*
X128123523Y-60324761D01*
X128161619Y-60362857D01*
X128199714Y-60439047D01*
X128580666Y-57822857D02*
X128847333Y-57822857D01*
X128847333Y-58241904D02*
X128847333Y-57441904D01*
X128466380Y-57441904D01*
X127780666Y-57441904D02*
X128161619Y-57441904D01*
X128199714Y-57822857D01*
X128161619Y-57784761D01*
X128085428Y-57746666D01*
X127894952Y-57746666D01*
X127818761Y-57784761D01*
X127780666Y-57822857D01*
X127742571Y-57899047D01*
X127742571Y-58089523D01*
X127780666Y-58165714D01*
X127818761Y-58203809D01*
X127894952Y-58241904D01*
X128085428Y-58241904D01*
X128161619Y-58203809D01*
X128199714Y-58165714D01*
X128866380Y-45541904D02*
X129133047Y-45160952D01*
X129323523Y-45541904D02*
X129323523Y-44741904D01*
X129018761Y-44741904D01*
X128942571Y-44780000D01*
X128904476Y-44818095D01*
X128866380Y-44894285D01*
X128866380Y-45008571D01*
X128904476Y-45084761D01*
X128942571Y-45122857D01*
X129018761Y-45160952D01*
X129323523Y-45160952D01*
X128561619Y-45313333D02*
X128180666Y-45313333D01*
X128637809Y-45541904D02*
X128371142Y-44741904D01*
X128104476Y-45541904D01*
X127914000Y-44741904D02*
X127723523Y-45541904D01*
X127571142Y-44970476D01*
X127418761Y-45541904D01*
X127228285Y-44741904D01*
X129380666Y-52361904D02*
X129114000Y-53161904D01*
X128847333Y-52361904D01*
X128123523Y-53085714D02*
X128161619Y-53123809D01*
X128275904Y-53161904D01*
X128352095Y-53161904D01*
X128466380Y-53123809D01*
X128542571Y-53047619D01*
X128580666Y-52971428D01*
X128618761Y-52819047D01*
X128618761Y-52704761D01*
X128580666Y-52552380D01*
X128542571Y-52476190D01*
X128466380Y-52400000D01*
X128352095Y-52361904D01*
X128275904Y-52361904D01*
X128161619Y-52400000D01*
X128123523Y-52438095D01*
X127323523Y-53085714D02*
X127361619Y-53123809D01*
X127475904Y-53161904D01*
X127552095Y-53161904D01*
X127666380Y-53123809D01*
X127742571Y-53047619D01*
X127780666Y-52971428D01*
X127818761Y-52819047D01*
X127818761Y-52704761D01*
X127780666Y-52552380D01*
X127742571Y-52476190D01*
X127666380Y-52400000D01*
X127552095Y-52361904D01*
X127475904Y-52361904D01*
X127361619Y-52400000D01*
X127323523Y-52438095D01*
X128580666Y-55282857D02*
X128847333Y-55282857D01*
X128847333Y-55701904D02*
X128847333Y-54901904D01*
X128466380Y-54901904D01*
X127818761Y-55168571D02*
X127818761Y-55701904D01*
X128009238Y-54863809D02*
X128199714Y-55435238D01*
X127704476Y-55435238D01*
X128637809Y-65442857D02*
X128523523Y-65480952D01*
X128485428Y-65519047D01*
X128447333Y-65595238D01*
X128447333Y-65709523D01*
X128485428Y-65785714D01*
X128523523Y-65823809D01*
X128599714Y-65861904D01*
X128904476Y-65861904D01*
X128904476Y-65061904D01*
X128637809Y-65061904D01*
X128561619Y-65100000D01*
X128523523Y-65138095D01*
X128485428Y-65214285D01*
X128485428Y-65290476D01*
X128523523Y-65366666D01*
X128561619Y-65404761D01*
X128637809Y-65442857D01*
X128904476Y-65442857D01*
X127685428Y-65861904D02*
X128142571Y-65861904D01*
X127914000Y-65861904D02*
X127914000Y-65061904D01*
X127990190Y-65176190D01*
X128066380Y-65252380D01*
X128142571Y-65290476D01*
X128637809Y-67982857D02*
X128523523Y-68020952D01*
X128485428Y-68059047D01*
X128447333Y-68135238D01*
X128447333Y-68249523D01*
X128485428Y-68325714D01*
X128523523Y-68363809D01*
X128599714Y-68401904D01*
X128904476Y-68401904D01*
X128904476Y-67601904D01*
X128637809Y-67601904D01*
X128561619Y-67640000D01*
X128523523Y-67678095D01*
X128485428Y-67754285D01*
X128485428Y-67830476D01*
X128523523Y-67906666D01*
X128561619Y-67944761D01*
X128637809Y-67982857D01*
X128904476Y-67982857D01*
X128180666Y-67601904D02*
X127685428Y-67601904D01*
X127952095Y-67906666D01*
X127837809Y-67906666D01*
X127761619Y-67944761D01*
X127723523Y-67982857D01*
X127685428Y-68059047D01*
X127685428Y-68249523D01*
X127723523Y-68325714D01*
X127761619Y-68363809D01*
X127837809Y-68401904D01*
X128066380Y-68401904D01*
X128142571Y-68363809D01*
X128180666Y-68325714D01*
X128637809Y-73062857D02*
X128523523Y-73100952D01*
X128485428Y-73139047D01*
X128447333Y-73215238D01*
X128447333Y-73329523D01*
X128485428Y-73405714D01*
X128523523Y-73443809D01*
X128599714Y-73481904D01*
X128904476Y-73481904D01*
X128904476Y-72681904D01*
X128637809Y-72681904D01*
X128561619Y-72720000D01*
X128523523Y-72758095D01*
X128485428Y-72834285D01*
X128485428Y-72910476D01*
X128523523Y-72986666D01*
X128561619Y-73024761D01*
X128637809Y-73062857D01*
X128904476Y-73062857D01*
X127761619Y-72681904D02*
X127914000Y-72681904D01*
X127990190Y-72720000D01*
X128028285Y-72758095D01*
X128104476Y-72872380D01*
X128142571Y-73024761D01*
X128142571Y-73329523D01*
X128104476Y-73405714D01*
X128066380Y-73443809D01*
X127990190Y-73481904D01*
X127837809Y-73481904D01*
X127761619Y-73443809D01*
X127723523Y-73405714D01*
X127685428Y-73329523D01*
X127685428Y-73139047D01*
X127723523Y-73062857D01*
X127761619Y-73024761D01*
X127837809Y-72986666D01*
X127990190Y-72986666D01*
X128066380Y-73024761D01*
X128104476Y-73062857D01*
X128142571Y-73139047D01*
X139559809Y-70522857D02*
X139445523Y-70560952D01*
X139407428Y-70599047D01*
X139369333Y-70675238D01*
X139369333Y-70789523D01*
X139407428Y-70865714D01*
X139445523Y-70903809D01*
X139521714Y-70941904D01*
X139826476Y-70941904D01*
X139826476Y-70141904D01*
X139559809Y-70141904D01*
X139483619Y-70180000D01*
X139445523Y-70218095D01*
X139407428Y-70294285D01*
X139407428Y-70370476D01*
X139445523Y-70446666D01*
X139483619Y-70484761D01*
X139559809Y-70522857D01*
X139826476Y-70522857D01*
X138683619Y-70408571D02*
X138683619Y-70941904D01*
X138874095Y-70103809D02*
X139064571Y-70675238D01*
X138569333Y-70675238D01*
X139788380Y-67982857D02*
X139521714Y-67982857D01*
X139407428Y-68401904D02*
X139788380Y-68401904D01*
X139788380Y-67601904D01*
X139407428Y-67601904D01*
X138721714Y-67601904D02*
X138874095Y-67601904D01*
X138950285Y-67640000D01*
X138988380Y-67678095D01*
X139064571Y-67792380D01*
X139102666Y-67944761D01*
X139102666Y-68249523D01*
X139064571Y-68325714D01*
X139026476Y-68363809D01*
X138950285Y-68401904D01*
X138797904Y-68401904D01*
X138721714Y-68363809D01*
X138683619Y-68325714D01*
X138645523Y-68249523D01*
X138645523Y-68059047D01*
X138683619Y-67982857D01*
X138721714Y-67944761D01*
X138797904Y-67906666D01*
X138950285Y-67906666D01*
X139026476Y-67944761D01*
X139064571Y-67982857D01*
X139102666Y-68059047D01*
X139826476Y-65861904D02*
X139826476Y-65061904D01*
X139636000Y-65061904D01*
X139521714Y-65100000D01*
X139445523Y-65176190D01*
X139407428Y-65252380D01*
X139369333Y-65404761D01*
X139369333Y-65519047D01*
X139407428Y-65671428D01*
X139445523Y-65747619D01*
X139521714Y-65823809D01*
X139636000Y-65861904D01*
X139826476Y-65861904D01*
X139102666Y-65061904D02*
X138569333Y-65061904D01*
X138912190Y-65861904D01*
X139369333Y-63245714D02*
X139407428Y-63283809D01*
X139521714Y-63321904D01*
X139597904Y-63321904D01*
X139712190Y-63283809D01*
X139788380Y-63207619D01*
X139826476Y-63131428D01*
X139864571Y-62979047D01*
X139864571Y-62864761D01*
X139826476Y-62712380D01*
X139788380Y-62636190D01*
X139712190Y-62560000D01*
X139597904Y-62521904D01*
X139521714Y-62521904D01*
X139407428Y-62560000D01*
X139369333Y-62598095D01*
X138683619Y-62521904D02*
X138836000Y-62521904D01*
X138912190Y-62560000D01*
X138950285Y-62598095D01*
X139026476Y-62712380D01*
X139064571Y-62864761D01*
X139064571Y-63169523D01*
X139026476Y-63245714D01*
X138988380Y-63283809D01*
X138912190Y-63321904D01*
X138759809Y-63321904D01*
X138683619Y-63283809D01*
X138645523Y-63245714D01*
X138607428Y-63169523D01*
X138607428Y-62979047D01*
X138645523Y-62902857D01*
X138683619Y-62864761D01*
X138759809Y-62826666D01*
X138912190Y-62826666D01*
X138988380Y-62864761D01*
X139026476Y-62902857D01*
X139064571Y-62979047D01*
X139826476Y-60781904D02*
X139826476Y-59981904D01*
X139636000Y-59981904D01*
X139521714Y-60020000D01*
X139445523Y-60096190D01*
X139407428Y-60172380D01*
X139369333Y-60324761D01*
X139369333Y-60439047D01*
X139407428Y-60591428D01*
X139445523Y-60667619D01*
X139521714Y-60743809D01*
X139636000Y-60781904D01*
X139826476Y-60781904D01*
X138683619Y-60248571D02*
X138683619Y-60781904D01*
X138874095Y-59943809D02*
X139064571Y-60515238D01*
X138569333Y-60515238D01*
X139845523Y-49860000D02*
X139921714Y-49821904D01*
X140036000Y-49821904D01*
X140150285Y-49860000D01*
X140226476Y-49936190D01*
X140264571Y-50012380D01*
X140302666Y-50164761D01*
X140302666Y-50279047D01*
X140264571Y-50431428D01*
X140226476Y-50507619D01*
X140150285Y-50583809D01*
X140036000Y-50621904D01*
X139959809Y-50621904D01*
X139845523Y-50583809D01*
X139807428Y-50545714D01*
X139807428Y-50279047D01*
X139959809Y-50279047D01*
X139464571Y-50621904D02*
X139464571Y-49821904D01*
X139007428Y-50621904D01*
X139007428Y-49821904D01*
X138626476Y-50621904D02*
X138626476Y-49821904D01*
X138436000Y-49821904D01*
X138321714Y-49860000D01*
X138245523Y-49936190D01*
X138207428Y-50012380D01*
X138169333Y-50164761D01*
X138169333Y-50279047D01*
X138207428Y-50431428D01*
X138245523Y-50507619D01*
X138321714Y-50583809D01*
X138436000Y-50621904D01*
X138626476Y-50621904D01*
X139845523Y-52400000D02*
X139921714Y-52361904D01*
X140036000Y-52361904D01*
X140150285Y-52400000D01*
X140226476Y-52476190D01*
X140264571Y-52552380D01*
X140302666Y-52704761D01*
X140302666Y-52819047D01*
X140264571Y-52971428D01*
X140226476Y-53047619D01*
X140150285Y-53123809D01*
X140036000Y-53161904D01*
X139959809Y-53161904D01*
X139845523Y-53123809D01*
X139807428Y-53085714D01*
X139807428Y-52819047D01*
X139959809Y-52819047D01*
X139464571Y-53161904D02*
X139464571Y-52361904D01*
X139007428Y-53161904D01*
X139007428Y-52361904D01*
X138626476Y-53161904D02*
X138626476Y-52361904D01*
X138436000Y-52361904D01*
X138321714Y-52400000D01*
X138245523Y-52476190D01*
X138207428Y-52552380D01*
X138169333Y-52704761D01*
X138169333Y-52819047D01*
X138207428Y-52971428D01*
X138245523Y-53047619D01*
X138321714Y-53123809D01*
X138436000Y-53161904D01*
X138626476Y-53161904D01*
X139826476Y-55701904D02*
X139826476Y-54901904D01*
X139636000Y-54901904D01*
X139521714Y-54940000D01*
X139445523Y-55016190D01*
X139407428Y-55092380D01*
X139369333Y-55244761D01*
X139369333Y-55359047D01*
X139407428Y-55511428D01*
X139445523Y-55587619D01*
X139521714Y-55663809D01*
X139636000Y-55701904D01*
X139826476Y-55701904D01*
X138607428Y-55701904D02*
X139064571Y-55701904D01*
X138836000Y-55701904D02*
X138836000Y-54901904D01*
X138912190Y-55016190D01*
X138988380Y-55092380D01*
X139064571Y-55130476D01*
X139826476Y-58241904D02*
X139826476Y-57441904D01*
X139636000Y-57441904D01*
X139521714Y-57480000D01*
X139445523Y-57556190D01*
X139407428Y-57632380D01*
X139369333Y-57784761D01*
X139369333Y-57899047D01*
X139407428Y-58051428D01*
X139445523Y-58127619D01*
X139521714Y-58203809D01*
X139636000Y-58241904D01*
X139826476Y-58241904D01*
X138874095Y-57441904D02*
X138797904Y-57441904D01*
X138721714Y-57480000D01*
X138683619Y-57518095D01*
X138645523Y-57594285D01*
X138607428Y-57746666D01*
X138607428Y-57937142D01*
X138645523Y-58089523D01*
X138683619Y-58165714D01*
X138721714Y-58203809D01*
X138797904Y-58241904D01*
X138874095Y-58241904D01*
X138950285Y-58203809D01*
X138988380Y-58165714D01*
X139026476Y-58089523D01*
X139064571Y-57937142D01*
X139064571Y-57746666D01*
X139026476Y-57594285D01*
X138988380Y-57518095D01*
X138950285Y-57480000D01*
X138874095Y-57441904D01*
X134131666Y-63122380D02*
X134465000Y-62646190D01*
X134703095Y-63122380D02*
X134703095Y-62122380D01*
X134322142Y-62122380D01*
X134226904Y-62170000D01*
X134179285Y-62217619D01*
X134131666Y-62312857D01*
X134131666Y-62455714D01*
X134179285Y-62550952D01*
X134226904Y-62598571D01*
X134322142Y-62646190D01*
X134703095Y-62646190D01*
X133750714Y-62217619D02*
X133703095Y-62170000D01*
X133607857Y-62122380D01*
X133369761Y-62122380D01*
X133274523Y-62170000D01*
X133226904Y-62217619D01*
X133179285Y-62312857D01*
X133179285Y-62408095D01*
X133226904Y-62550952D01*
X133798333Y-63122380D01*
X133179285Y-63122380D01*
X134121666Y-66372380D02*
X134455000Y-65896190D01*
X134693095Y-66372380D02*
X134693095Y-65372380D01*
X134312142Y-65372380D01*
X134216904Y-65420000D01*
X134169285Y-65467619D01*
X134121666Y-65562857D01*
X134121666Y-65705714D01*
X134169285Y-65800952D01*
X134216904Y-65848571D01*
X134312142Y-65896190D01*
X134693095Y-65896190D01*
X133169285Y-66372380D02*
X133740714Y-66372380D01*
X133455000Y-66372380D02*
X133455000Y-65372380D01*
X133550238Y-65515238D01*
X133645476Y-65610476D01*
X133740714Y-65658095D01*
%LPC*%
D15*
X145350000Y-55450000D03*
X145350000Y-52650000D03*
X164400000Y-55450000D03*
X164400000Y-52650000D03*
X179250000Y-124850000D03*
X179250000Y-127650000D03*
X160200000Y-124850000D03*
X160200000Y-127650000D03*
X141150000Y-124850000D03*
X141150000Y-127650000D03*
X122100000Y-124850000D03*
X122100000Y-127650000D03*
X103050000Y-124850000D03*
X103050000Y-127650000D03*
X84000000Y-124850000D03*
X84000000Y-127650000D03*
X179275000Y-105725000D03*
X179275000Y-108525000D03*
X160200000Y-105800000D03*
X160200000Y-108600000D03*
X141150000Y-105800000D03*
X141150000Y-108600000D03*
X122100000Y-105800000D03*
X122100000Y-108600000D03*
X103050000Y-105800000D03*
X103050000Y-108600000D03*
X84000000Y-105800000D03*
X84000000Y-108600000D03*
X179250000Y-86750000D03*
X179250000Y-89550000D03*
X160200000Y-86750000D03*
X160200000Y-89550000D03*
X141150000Y-86750000D03*
X141150000Y-89550000D03*
X122100000Y-86750000D03*
X122100000Y-89550000D03*
X103050000Y-86750000D03*
X103050000Y-89550000D03*
X84000000Y-86750000D03*
X84000000Y-89550000D03*
X179250000Y-67700000D03*
X179250000Y-70500000D03*
X160200000Y-67700000D03*
X160200000Y-70500000D03*
X143975000Y-67700000D03*
X143975000Y-70500000D03*
X122100000Y-67700000D03*
X122100000Y-70500000D03*
X103050000Y-67700000D03*
X103050000Y-70500000D03*
X84000000Y-67700000D03*
X84000000Y-70500000D03*
X123775000Y-51475000D03*
X123775000Y-48675000D03*
X107250000Y-55450000D03*
X107250000Y-52650000D03*
X88200000Y-55450000D03*
X88200000Y-52650000D03*
X69150000Y-55450000D03*
X69150000Y-52650000D03*
D16*
X84010000Y-73640000D03*
D17*
X76650000Y-71100000D03*
D18*
X74110000Y-76180000D03*
X80460000Y-73640000D03*
D16*
X70560000Y-76180000D03*
D19*
X71570000Y-71100000D03*
X81730000Y-71100000D03*
D20*
X92350000Y-83500000D03*
D21*
X87750000Y-81200000D03*
X94750000Y-81200000D03*
D20*
X89350000Y-83500000D03*
X96350000Y-83500000D03*
X97450000Y-78900000D03*
D22*
X86175000Y-61575000D03*
X86175000Y-118725000D03*
X105225000Y-61575000D03*
X86175000Y-99675000D03*
X162375000Y-118725000D03*
X162375000Y-99675000D03*
X105225000Y-118725000D03*
X105225000Y-99675000D03*
X162375000Y-61575000D03*
X105225000Y-80625000D03*
X162375000Y-80625000D03*
D20*
X73350000Y-83500000D03*
D21*
X68750000Y-81200000D03*
X75750000Y-81200000D03*
D20*
X70350000Y-83500000D03*
X77350000Y-83500000D03*
X78450000Y-78900000D03*
D16*
X145490000Y-49510000D03*
D17*
X152850000Y-52050000D03*
D18*
X155390000Y-46970000D03*
X149040000Y-49510000D03*
D16*
X158940000Y-46970000D03*
D19*
X157930000Y-52050000D03*
X147770000Y-52050000D03*
X166820000Y-52050000D03*
X176980000Y-52050000D03*
D16*
X177990000Y-46970000D03*
D18*
X168090000Y-49510000D03*
X174440000Y-46970000D03*
D17*
X171900000Y-52050000D03*
D16*
X164540000Y-49510000D03*
D23*
X141395000Y-50260000D03*
X141395000Y-52800000D03*
X141395000Y-55340000D03*
X141395000Y-57880000D03*
X141395000Y-60420000D03*
X141395000Y-62960000D03*
X141395000Y-65500000D03*
X141395000Y-68040000D03*
X141395000Y-70580000D03*
X126155000Y-73120000D03*
X126155000Y-70580000D03*
X126155000Y-68040000D03*
X126155000Y-65500000D03*
X126155000Y-62960000D03*
X126155000Y-60420000D03*
X126155000Y-57880000D03*
X126155000Y-55340000D03*
X126155000Y-52800000D03*
X126155000Y-45180000D03*
D24*
X139045000Y-60300000D03*
D25*
X128885000Y-60300000D03*
D24*
X139035000Y-63550000D03*
D25*
X128875000Y-63550000D03*
D20*
X175200000Y-78900000D03*
D21*
X179800000Y-81200000D03*
X172800000Y-81200000D03*
D20*
X178200000Y-78900000D03*
X171200000Y-78900000D03*
X170100000Y-83500000D03*
D16*
X179260000Y-111740000D03*
D17*
X171900000Y-109200000D03*
D18*
X169360000Y-114280000D03*
X175710000Y-111740000D03*
D16*
X165810000Y-114280000D03*
D19*
X166820000Y-109200000D03*
X176980000Y-109200000D03*
D16*
X84010000Y-111740000D03*
D17*
X76650000Y-109200000D03*
D18*
X74110000Y-114280000D03*
X80460000Y-111740000D03*
D16*
X70560000Y-114280000D03*
D19*
X71570000Y-109200000D03*
X81730000Y-109200000D03*
D16*
X179260000Y-130790000D03*
D17*
X171900000Y-128250000D03*
D18*
X169360000Y-133330000D03*
X175710000Y-130790000D03*
D16*
X165810000Y-133330000D03*
D19*
X166820000Y-128250000D03*
X176980000Y-128250000D03*
D16*
X160210000Y-130790000D03*
D17*
X152850000Y-128250000D03*
D18*
X150310000Y-133330000D03*
X156660000Y-130790000D03*
D16*
X146760000Y-133330000D03*
D19*
X147770000Y-128250000D03*
X157930000Y-128250000D03*
D16*
X141160000Y-130790000D03*
D17*
X133800000Y-128250000D03*
D18*
X131260000Y-133330000D03*
X137610000Y-130790000D03*
D16*
X127710000Y-133330000D03*
D19*
X128720000Y-128250000D03*
X138880000Y-128250000D03*
D16*
X122110000Y-130790000D03*
D17*
X114750000Y-128250000D03*
D18*
X112210000Y-133330000D03*
X118560000Y-130790000D03*
D16*
X108660000Y-133330000D03*
D19*
X109670000Y-128250000D03*
X119830000Y-128250000D03*
D16*
X103060000Y-130790000D03*
D17*
X95700000Y-128250000D03*
D18*
X93160000Y-133330000D03*
X99510000Y-130790000D03*
D16*
X89610000Y-133330000D03*
D19*
X90620000Y-128250000D03*
X100780000Y-128250000D03*
D16*
X84010000Y-130790000D03*
D17*
X76650000Y-128250000D03*
D18*
X74110000Y-133330000D03*
X80460000Y-130790000D03*
D16*
X70560000Y-133330000D03*
D19*
X71570000Y-128250000D03*
X81730000Y-128250000D03*
D16*
X160210000Y-111740000D03*
D17*
X152850000Y-109200000D03*
D18*
X150310000Y-114280000D03*
X156660000Y-111740000D03*
D16*
X146760000Y-114280000D03*
D19*
X147770000Y-109200000D03*
X157930000Y-109200000D03*
D16*
X141160000Y-111740000D03*
D17*
X133800000Y-109200000D03*
D18*
X131260000Y-114280000D03*
X137610000Y-111740000D03*
D16*
X127710000Y-114280000D03*
D19*
X128720000Y-109200000D03*
X138880000Y-109200000D03*
D16*
X122110000Y-111740000D03*
D17*
X114750000Y-109200000D03*
D18*
X112210000Y-114280000D03*
X118560000Y-111740000D03*
D16*
X108660000Y-114280000D03*
D19*
X109670000Y-109200000D03*
X119830000Y-109200000D03*
D16*
X103060000Y-111740000D03*
D17*
X95700000Y-109200000D03*
D18*
X93160000Y-114280000D03*
X99510000Y-111740000D03*
D16*
X89610000Y-114280000D03*
D19*
X90620000Y-109200000D03*
X100780000Y-109200000D03*
D16*
X179260000Y-92690000D03*
D17*
X171900000Y-90150000D03*
D18*
X169360000Y-95230000D03*
X175710000Y-92690000D03*
D16*
X165810000Y-95230000D03*
D19*
X166820000Y-90150000D03*
X176980000Y-90150000D03*
D16*
X160210000Y-92690000D03*
D17*
X152850000Y-90150000D03*
D18*
X150310000Y-95230000D03*
X156660000Y-92690000D03*
D16*
X146760000Y-95230000D03*
D19*
X147770000Y-90150000D03*
X157930000Y-90150000D03*
D16*
X141160000Y-92690000D03*
D17*
X133800000Y-90150000D03*
D18*
X131260000Y-95230000D03*
X137610000Y-92690000D03*
D16*
X127710000Y-95230000D03*
D19*
X128720000Y-90150000D03*
X138880000Y-90150000D03*
D16*
X122110000Y-92690000D03*
D17*
X114750000Y-90150000D03*
D18*
X112210000Y-95230000D03*
X118560000Y-92690000D03*
D16*
X108660000Y-95230000D03*
D19*
X109670000Y-90150000D03*
X119830000Y-90150000D03*
D16*
X103060000Y-92690000D03*
D17*
X95700000Y-90150000D03*
D18*
X93160000Y-95230000D03*
X99510000Y-92690000D03*
D16*
X89610000Y-95230000D03*
D19*
X90620000Y-90150000D03*
X100780000Y-90150000D03*
D16*
X84010000Y-92690000D03*
D17*
X76650000Y-90150000D03*
D18*
X74110000Y-95230000D03*
X80460000Y-92690000D03*
D16*
X70560000Y-95230000D03*
D19*
X71570000Y-90150000D03*
X81730000Y-90150000D03*
X176980000Y-71100000D03*
X166820000Y-71100000D03*
D16*
X165810000Y-76180000D03*
D18*
X175710000Y-73640000D03*
X169360000Y-76180000D03*
D17*
X171900000Y-71100000D03*
D16*
X179260000Y-73640000D03*
X160210000Y-73640000D03*
D17*
X152850000Y-71100000D03*
D18*
X150310000Y-76180000D03*
X156660000Y-73640000D03*
D16*
X146760000Y-76180000D03*
D19*
X147770000Y-71100000D03*
X157930000Y-71100000D03*
D16*
X141160000Y-73640000D03*
D17*
X133800000Y-71100000D03*
D18*
X131260000Y-76180000D03*
X137610000Y-73640000D03*
D16*
X127710000Y-76180000D03*
D19*
X128720000Y-71100000D03*
X138880000Y-71100000D03*
D16*
X122110000Y-73640000D03*
D17*
X114750000Y-71100000D03*
D18*
X112210000Y-76180000D03*
X118560000Y-73640000D03*
D16*
X108660000Y-76180000D03*
D19*
X109670000Y-71100000D03*
X119830000Y-71100000D03*
D16*
X103060000Y-73640000D03*
D17*
X95700000Y-71100000D03*
D18*
X93160000Y-76180000D03*
X99510000Y-73640000D03*
D16*
X89610000Y-76180000D03*
D19*
X90620000Y-71100000D03*
X100780000Y-71100000D03*
D16*
X126440000Y-49510000D03*
D17*
X133800000Y-52050000D03*
D18*
X136340000Y-46970000D03*
X129990000Y-49510000D03*
D16*
X139890000Y-46970000D03*
D19*
X138880000Y-52050000D03*
X128720000Y-52050000D03*
D16*
X107390000Y-49510000D03*
D17*
X114750000Y-52050000D03*
D18*
X117290000Y-46970000D03*
X110940000Y-49510000D03*
D16*
X120840000Y-46970000D03*
D19*
X119830000Y-52050000D03*
X109670000Y-52050000D03*
D16*
X88340000Y-49510000D03*
D17*
X95700000Y-52050000D03*
D18*
X98240000Y-46970000D03*
X91890000Y-49510000D03*
D16*
X101790000Y-46970000D03*
D19*
X100780000Y-52050000D03*
X90620000Y-52050000D03*
D16*
X69290000Y-49510000D03*
D17*
X76650000Y-52050000D03*
D18*
X79190000Y-46970000D03*
X72840000Y-49510000D03*
D16*
X82740000Y-46970000D03*
D19*
X81730000Y-52050000D03*
X71570000Y-52050000D03*
M02*
