%TF.GenerationSoftware,KiCad,Pcbnew,(5.1.10)-1*%
%TF.CreationDate,2022-04-05T14:22:13-05:00*%
%TF.ProjectId,graham cracker,67726168-616d-4206-9372-61636b65722e,rev?*%
%TF.SameCoordinates,Original*%
%TF.FileFunction,Paste,Bot*%
%TF.FilePolarity,Positive*%
%FSLAX46Y46*%
G04 Gerber Fmt 4.6, Leading zero omitted, Abs format (unit mm)*
G04 Created by KiCad (PCBNEW (5.1.10)-1) date 2022-04-05 14:22:13*
%MOMM*%
%LPD*%
G01*
G04 APERTURE LIST*
%ADD10R,1.200000X1.200000*%
%ADD11R,2.550000X2.500000*%
G04 APERTURE END LIST*
D10*
X145350000Y-55450000D03*
X145350000Y-52650000D03*
X164400000Y-55450000D03*
X164400000Y-52650000D03*
X179250000Y-124850000D03*
X179250000Y-127650000D03*
X160200000Y-124850000D03*
X160200000Y-127650000D03*
X141150000Y-124850000D03*
X141150000Y-127650000D03*
X122100000Y-124850000D03*
X122100000Y-127650000D03*
X103050000Y-124850000D03*
X103050000Y-127650000D03*
X84000000Y-124850000D03*
X84000000Y-127650000D03*
X179275000Y-105725000D03*
X179275000Y-108525000D03*
X160200000Y-105800000D03*
X160200000Y-108600000D03*
X141150000Y-105800000D03*
X141150000Y-108600000D03*
X122100000Y-105800000D03*
X122100000Y-108600000D03*
X103050000Y-105800000D03*
X103050000Y-108600000D03*
X84000000Y-105800000D03*
X84000000Y-108600000D03*
X179250000Y-86750000D03*
X179250000Y-89550000D03*
X160200000Y-86750000D03*
X160200000Y-89550000D03*
X141150000Y-86750000D03*
X141150000Y-89550000D03*
X122100000Y-86750000D03*
X122100000Y-89550000D03*
X103050000Y-86750000D03*
X103050000Y-89550000D03*
X84000000Y-86750000D03*
X84000000Y-89550000D03*
X179250000Y-67700000D03*
X179250000Y-70500000D03*
X160200000Y-67700000D03*
X160200000Y-70500000D03*
X143975000Y-67700000D03*
X143975000Y-70500000D03*
X122100000Y-67700000D03*
X122100000Y-70500000D03*
X103050000Y-67700000D03*
X103050000Y-70500000D03*
X84000000Y-67700000D03*
X84000000Y-70500000D03*
X123775000Y-51475000D03*
X123775000Y-48675000D03*
X107250000Y-55450000D03*
X107250000Y-52650000D03*
X88200000Y-55450000D03*
X88200000Y-52650000D03*
X69150000Y-55450000D03*
X69150000Y-52650000D03*
D11*
X84010000Y-73640000D03*
X70560000Y-76180000D03*
X145490000Y-49510000D03*
X158940000Y-46970000D03*
X177990000Y-46970000D03*
X164540000Y-49510000D03*
X179260000Y-111740000D03*
X165810000Y-114280000D03*
X84010000Y-111740000D03*
X70560000Y-114280000D03*
X179260000Y-130790000D03*
X165810000Y-133330000D03*
X160210000Y-130790000D03*
X146760000Y-133330000D03*
X141160000Y-130790000D03*
X127710000Y-133330000D03*
X122110000Y-130790000D03*
X108660000Y-133330000D03*
X103060000Y-130790000D03*
X89610000Y-133330000D03*
X84010000Y-130790000D03*
X70560000Y-133330000D03*
X160210000Y-111740000D03*
X146760000Y-114280000D03*
X141160000Y-111740000D03*
X127710000Y-114280000D03*
X122110000Y-111740000D03*
X108660000Y-114280000D03*
X103060000Y-111740000D03*
X89610000Y-114280000D03*
X179260000Y-92690000D03*
X165810000Y-95230000D03*
X160210000Y-92690000D03*
X146760000Y-95230000D03*
X141160000Y-92690000D03*
X127710000Y-95230000D03*
X122110000Y-92690000D03*
X108660000Y-95230000D03*
X103060000Y-92690000D03*
X89610000Y-95230000D03*
X84010000Y-92690000D03*
X70560000Y-95230000D03*
X165810000Y-76180000D03*
X179260000Y-73640000D03*
X160210000Y-73640000D03*
X146760000Y-76180000D03*
X141160000Y-73640000D03*
X127710000Y-76180000D03*
X122110000Y-73640000D03*
X108660000Y-76180000D03*
X103060000Y-73640000D03*
X89610000Y-76180000D03*
X126440000Y-49510000D03*
X139890000Y-46970000D03*
X107390000Y-49510000D03*
X120840000Y-46970000D03*
X88340000Y-49510000D03*
X101790000Y-46970000D03*
X69290000Y-49510000D03*
X82740000Y-46970000D03*
M02*
