%TF.GenerationSoftware,KiCad,Pcbnew,(5.1.10)-1*%
%TF.CreationDate,2022-04-05T14:22:13-05:00*%
%TF.ProjectId,graham cracker,67726168-616d-4206-9372-61636b65722e,rev?*%
%TF.SameCoordinates,Original*%
%TF.FileFunction,Copper,L1,Top*%
%TF.FilePolarity,Positive*%
%FSLAX46Y46*%
G04 Gerber Fmt 4.6, Leading zero omitted, Abs format (unit mm)*
G04 Created by KiCad (PCBNEW (5.1.10)-1) date 2022-04-05 14:22:13*
%MOMM*%
%LPD*%
G01*
G04 APERTURE LIST*
%TA.AperFunction,ComponentPad*%
%ADD10O,2.000000X1.600000*%
%TD*%
%TA.AperFunction,ComponentPad*%
%ADD11C,4.000000*%
%TD*%
%TA.AperFunction,ComponentPad*%
%ADD12C,1.752600*%
%TD*%
%TA.AperFunction,ComponentPad*%
%ADD13O,1.600000X1.600000*%
%TD*%
%TA.AperFunction,ComponentPad*%
%ADD14C,1.600000*%
%TD*%
%TA.AperFunction,ViaPad*%
%ADD15C,0.800000*%
%TD*%
%TA.AperFunction,Conductor*%
%ADD16C,0.250000*%
%TD*%
%TA.AperFunction,Conductor*%
%ADD17C,0.400000*%
%TD*%
G04 APERTURE END LIST*
D10*
X92350000Y-83500000D03*
X89350000Y-83500000D03*
X96350000Y-83500000D03*
X97450000Y-78900000D03*
D11*
X86175000Y-61575000D03*
X86175000Y-118725000D03*
X105225000Y-61575000D03*
X86175000Y-99675000D03*
X162375000Y-118725000D03*
X162375000Y-99675000D03*
X105225000Y-118725000D03*
X105225000Y-99675000D03*
X162375000Y-61575000D03*
X105225000Y-80625000D03*
X162375000Y-80625000D03*
D10*
X73350000Y-83500000D03*
X70350000Y-83500000D03*
X77350000Y-83500000D03*
X78450000Y-78900000D03*
D12*
X141395000Y-50260000D03*
X141395000Y-52800000D03*
X141395000Y-55340000D03*
X141395000Y-57880000D03*
X141395000Y-60420000D03*
X141395000Y-62960000D03*
X141395000Y-65500000D03*
X141395000Y-68040000D03*
X141395000Y-70580000D03*
X126155000Y-73120000D03*
X126155000Y-70580000D03*
X126155000Y-68040000D03*
X126155000Y-65500000D03*
X126155000Y-62960000D03*
X126155000Y-60420000D03*
X126155000Y-57880000D03*
X126155000Y-55340000D03*
X126155000Y-52800000D03*
X126155000Y-45180000D03*
D13*
X139045000Y-60300000D03*
D14*
X128885000Y-60300000D03*
D13*
X139035000Y-63550000D03*
D14*
X128875000Y-63550000D03*
D10*
X175200000Y-78900000D03*
X178200000Y-78900000D03*
X171200000Y-78900000D03*
X170100000Y-83500000D03*
D15*
X125149989Y-86950011D03*
X144899997Y-105799997D03*
X145000000Y-124800000D03*
X82200000Y-47100000D03*
X70000000Y-76000000D03*
X70000000Y-95050000D03*
X70000000Y-114100000D03*
X70000000Y-133150000D03*
X89050000Y-76000000D03*
X89050000Y-95050000D03*
X89050000Y-114100000D03*
X89050000Y-133150000D03*
X94245500Y-56845498D03*
X101089516Y-47260484D03*
X108100000Y-76000000D03*
X108100000Y-95050000D03*
X108100000Y-114100000D03*
X120300000Y-47100000D03*
X108100000Y-133150000D03*
X118342285Y-56124979D03*
X127150000Y-76000000D03*
X127150000Y-95050000D03*
X127150000Y-114100000D03*
X127150000Y-133150000D03*
X146200000Y-76000000D03*
X146200000Y-95050000D03*
X158400000Y-47100000D03*
X146200000Y-133150000D03*
X146800010Y-114074998D03*
X165250000Y-76000000D03*
X165250000Y-95050000D03*
X165250000Y-114100000D03*
X177450000Y-47100000D03*
X165250000Y-133150000D03*
X140500000Y-84924989D03*
X127999996Y-83100000D03*
X166100010Y-57900000D03*
X126374990Y-84124979D03*
X126400014Y-82299990D03*
X145118785Y-84000010D03*
D16*
X125149989Y-74125011D02*
X126155000Y-73120000D01*
X125149989Y-86950011D02*
X125149989Y-74125011D01*
X143302528Y-96402528D02*
X143302528Y-64867528D01*
X145950000Y-99050000D02*
X143302528Y-96402528D01*
X145950000Y-104749994D02*
X145950000Y-99050000D01*
X143302528Y-64867528D02*
X141395000Y-62960000D01*
X144899997Y-105799997D02*
X145950000Y-104749994D01*
X145000000Y-124800000D02*
X145000000Y-124800000D01*
X144200000Y-63225000D02*
X141395000Y-60420000D01*
X144200000Y-96200000D02*
X144200000Y-63225000D01*
X146450011Y-98450011D02*
X144200000Y-96200000D01*
X146075000Y-123725000D02*
X146075000Y-105261404D01*
X145000000Y-124800000D02*
X146075000Y-123725000D01*
X146075000Y-105261404D02*
X146450011Y-104886393D01*
X146450011Y-104886393D02*
X146450011Y-98450011D01*
X70000000Y-76000000D02*
X70000000Y-76000000D01*
X70000000Y-95050000D02*
X70000000Y-114100000D01*
X70000000Y-114100000D02*
X70000000Y-133150000D01*
X82200000Y-49840998D02*
X82200000Y-47100000D01*
X70000000Y-62040998D02*
X82200000Y-49840998D01*
X70000000Y-76000000D02*
X70000000Y-62040998D01*
X68900000Y-82600000D02*
X68900000Y-93950000D01*
X70000000Y-81500000D02*
X68900000Y-82600000D01*
X68900000Y-93950000D02*
X70000000Y-95050000D01*
X70000000Y-76000000D02*
X70000000Y-81500000D01*
X89050000Y-81450000D02*
X89050000Y-76000000D01*
X87800000Y-82700000D02*
X89050000Y-81450000D01*
X87800000Y-93800000D02*
X87800000Y-82700000D01*
X89050000Y-95050000D02*
X87800000Y-93800000D01*
X89050000Y-76000000D02*
X89050000Y-62040998D01*
X89050000Y-62040998D02*
X94245500Y-56845498D01*
X94245500Y-56845498D02*
X101089516Y-50001482D01*
X101089516Y-50001482D02*
X101089516Y-47260484D01*
X89050000Y-133150000D02*
X89050000Y-114100000D01*
X89050000Y-114100000D02*
X89050000Y-95050000D01*
X108100000Y-76000000D02*
X108100000Y-95050000D01*
X108100000Y-95050000D02*
X108100000Y-114100000D01*
X108100000Y-114100000D02*
X108100000Y-133150000D01*
X118342285Y-49057715D02*
X118342285Y-56124979D01*
X120300000Y-47100000D02*
X118342285Y-49057715D01*
X108100000Y-66367264D02*
X118342285Y-56124979D01*
X108100000Y-76000000D02*
X108100000Y-66367264D01*
X127150000Y-133150000D02*
X127150000Y-114100000D01*
X127150000Y-114100000D02*
X127150000Y-95050000D01*
X127150000Y-82876998D02*
X127150000Y-76000000D01*
X127150000Y-95050000D02*
X127150000Y-82876998D01*
X127600000Y-56785000D02*
X126155000Y-55340000D01*
X127600000Y-64200000D02*
X127600000Y-56785000D01*
X130074989Y-66674989D02*
X127600000Y-64200000D01*
X130074989Y-73075011D02*
X130074989Y-66674989D01*
X127150000Y-76000000D02*
X130074989Y-73075011D01*
X146200000Y-76000000D02*
X146200000Y-95050000D01*
X156200000Y-44900000D02*
X158400000Y-47100000D01*
X148500000Y-44900000D02*
X156200000Y-44900000D01*
X146200000Y-47200000D02*
X148500000Y-44900000D01*
X146200000Y-76000000D02*
X146200000Y-47200000D01*
X146525011Y-113799999D02*
X146800010Y-114074998D01*
X146525011Y-105447804D02*
X146525011Y-113799999D01*
X146575000Y-132775000D02*
X146575000Y-114300008D01*
X146200000Y-95050000D02*
X146900022Y-95750022D01*
X146200000Y-133150000D02*
X146575000Y-132775000D01*
X146900022Y-95750022D02*
X146900022Y-105072793D01*
X146900022Y-105072793D02*
X146525011Y-105447804D01*
X146575000Y-114300008D02*
X146800010Y-114074998D01*
X165250000Y-133150000D02*
X165250000Y-114100000D01*
X165250000Y-114100000D02*
X165250000Y-95050000D01*
X165250000Y-95050000D02*
X165250000Y-76000000D01*
X165100000Y-75850000D02*
X165250000Y-76000000D01*
X165100000Y-47500000D02*
X165100000Y-75850000D01*
X167700000Y-44900000D02*
X165100000Y-47500000D01*
X175250000Y-44900000D02*
X167700000Y-44900000D01*
X177450000Y-47100000D02*
X175250000Y-44900000D01*
X139035000Y-63550000D02*
X140100000Y-64615000D01*
X140100000Y-64615000D02*
X140100001Y-84524990D01*
X140100001Y-84524990D02*
X140500000Y-84924989D01*
X128875000Y-60310000D02*
X128885000Y-60300000D01*
D17*
X128875000Y-63550000D02*
X128875000Y-60310000D01*
X128885000Y-55530000D02*
X126155000Y-52800000D01*
X128885000Y-60300000D02*
X128885000Y-55530000D01*
X127999996Y-76200004D02*
X127999996Y-83100000D01*
X130600000Y-65275000D02*
X130600000Y-73600000D01*
X130600000Y-73600000D02*
X127999996Y-76200004D01*
X128875000Y-63550000D02*
X130600000Y-65275000D01*
D16*
X178400000Y-70199990D02*
X166100010Y-57900000D01*
X178400000Y-78700000D02*
X178400000Y-70199990D01*
X178200000Y-78900000D02*
X178400000Y-78700000D01*
D17*
X126374990Y-84124979D02*
X126374990Y-82325014D01*
D16*
X126374990Y-82325014D02*
X126400014Y-82299990D01*
D17*
X144800000Y-83681225D02*
X145118785Y-84000010D01*
X144800000Y-56205000D02*
X144800000Y-83681225D01*
X141395000Y-52800000D02*
X144800000Y-56205000D01*
M02*
