M48
; DRILL file {KiCad (5.1.10)-1} date 04/05/22 14:22:21
; FORMAT={-:-/ absolute / metric / decimal}
; #@! TF.CreationDate,2022-04-05T14:22:21-05:00
; #@! TF.GenerationSoftware,Kicad,Pcbnew,(5.1.10)-1
; #@! TF.FileFunction,NonPlated,1,2,NPTH
FMAT,2
METRIC
T1C0.800
T2C1.700
T3C2.950
T4C3.980
%
G90
G05
T1
X68.75Y-81.2
X75.75Y-81.2
X87.75Y-81.2
X94.75Y-81.2
X172.8Y-81.2
X179.8Y-81.2
T2
X71.57Y-52.05
X71.57Y-71.1
X71.57Y-90.15
X71.57Y-109.2
X71.57Y-128.25
X81.73Y-52.05
X81.73Y-71.1
X81.73Y-90.15
X81.73Y-109.2
X81.73Y-128.25
X90.62Y-52.05
X90.62Y-71.1
X90.62Y-90.15
X90.62Y-109.2
X90.62Y-128.25
X100.78Y-52.05
X100.78Y-71.1
X100.78Y-90.15
X100.78Y-109.2
X100.78Y-128.25
X109.67Y-52.05
X109.67Y-71.1
X109.67Y-90.15
X109.67Y-109.2
X109.67Y-128.25
X119.83Y-52.05
X119.83Y-71.1
X119.83Y-90.15
X119.83Y-109.2
X119.83Y-128.25
X128.72Y-52.05
X128.72Y-71.1
X128.72Y-90.15
X128.72Y-109.2
X128.72Y-128.25
X138.88Y-52.05
X138.88Y-71.1
X138.88Y-90.15
X138.88Y-109.2
X138.88Y-128.25
X147.77Y-52.05
X147.77Y-71.1
X147.77Y-90.15
X147.77Y-109.2
X147.77Y-128.25
X157.93Y-52.05
X157.93Y-71.1
X157.93Y-90.15
X157.93Y-109.2
X157.93Y-128.25
X166.82Y-52.05
X166.82Y-71.1
X166.82Y-90.15
X166.82Y-109.2
X166.82Y-128.25
X176.98Y-52.05
X176.98Y-71.1
X176.98Y-90.15
X176.98Y-109.2
X176.98Y-128.25
T3
X72.84Y-49.51
X74.11Y-76.18
X74.11Y-95.23
X74.11Y-114.28
X74.11Y-133.33
X79.19Y-46.97
X80.46Y-73.64
X80.46Y-92.69
X80.46Y-111.74
X80.46Y-130.79
X91.89Y-49.51
X93.16Y-76.18
X93.16Y-95.23
X93.16Y-114.28
X93.16Y-133.33
X98.24Y-46.97
X99.51Y-73.64
X99.51Y-92.69
X99.51Y-111.74
X99.51Y-130.79
X110.94Y-49.51
X112.21Y-76.18
X112.21Y-95.23
X112.21Y-114.28
X112.21Y-133.33
X117.29Y-46.97
X118.56Y-73.64
X118.56Y-92.69
X118.56Y-111.74
X118.56Y-130.79
X129.99Y-49.51
X131.26Y-76.18
X131.26Y-95.23
X131.26Y-114.28
X131.26Y-133.33
X136.34Y-46.97
X137.61Y-73.64
X137.61Y-92.69
X137.61Y-111.74
X137.61Y-130.79
X149.04Y-49.51
X150.31Y-76.18
X150.31Y-95.23
X150.31Y-114.28
X150.31Y-133.33
X155.39Y-46.97
X156.66Y-73.64
X156.66Y-92.69
X156.66Y-111.74
X156.66Y-130.79
X168.09Y-49.51
X169.36Y-76.18
X169.36Y-95.23
X169.36Y-114.28
X169.36Y-133.33
X174.44Y-46.97
X175.71Y-73.64
X175.71Y-92.69
X175.71Y-111.74
X175.71Y-130.79
T4
X76.65Y-52.05
X76.65Y-71.1
X76.65Y-90.15
X76.65Y-109.2
X76.65Y-128.25
X95.7Y-52.05
X95.7Y-71.1
X95.7Y-90.15
X95.7Y-109.2
X95.7Y-128.25
X114.75Y-52.05
X114.75Y-71.1
X114.75Y-90.15
X114.75Y-109.2
X114.75Y-128.25
X133.8Y-52.05
X133.8Y-71.1
X133.8Y-90.15
X133.8Y-109.2
X133.8Y-128.25
X152.85Y-52.05
X152.85Y-71.1
X152.85Y-90.15
X152.85Y-109.2
X152.85Y-128.25
X171.9Y-52.05
X171.9Y-71.1
X171.9Y-90.15
X171.9Y-109.2
X171.9Y-128.25
T0
M30
