%TF.GenerationSoftware,KiCad,Pcbnew,(5.1.10)-1*%
%TF.CreationDate,2022-04-05T14:22:13-05:00*%
%TF.ProjectId,graham cracker,67726168-616d-4206-9372-61636b65722e,rev?*%
%TF.SameCoordinates,Original*%
%TF.FileFunction,Soldermask,Bot*%
%TF.FilePolarity,Negative*%
%FSLAX46Y46*%
G04 Gerber Fmt 4.6, Leading zero omitted, Abs format (unit mm)*
G04 Created by KiCad (PCBNEW (5.1.10)-1) date 2022-04-05 14:22:13*
%MOMM*%
%LPD*%
G01*
G04 APERTURE LIST*
%ADD10R,1.200000X1.200000*%
%ADD11R,2.550000X2.500000*%
%ADD12C,3.980180*%
%ADD13C,2.950000*%
%ADD14C,1.700000*%
%ADD15O,2.000000X1.600000*%
%ADD16C,0.800000*%
%ADD17C,4.000000*%
%ADD18C,1.752600*%
%ADD19O,1.600000X1.600000*%
%ADD20C,1.600000*%
G04 APERTURE END LIST*
D10*
X145350000Y-55450000D03*
X145350000Y-52650000D03*
X164400000Y-55450000D03*
X164400000Y-52650000D03*
X179250000Y-124850000D03*
X179250000Y-127650000D03*
X160200000Y-124850000D03*
X160200000Y-127650000D03*
X141150000Y-124850000D03*
X141150000Y-127650000D03*
X122100000Y-124850000D03*
X122100000Y-127650000D03*
X103050000Y-124850000D03*
X103050000Y-127650000D03*
X84000000Y-124850000D03*
X84000000Y-127650000D03*
X179275000Y-105725000D03*
X179275000Y-108525000D03*
X160200000Y-105800000D03*
X160200000Y-108600000D03*
X141150000Y-105800000D03*
X141150000Y-108600000D03*
X122100000Y-105800000D03*
X122100000Y-108600000D03*
X103050000Y-105800000D03*
X103050000Y-108600000D03*
X84000000Y-105800000D03*
X84000000Y-108600000D03*
X179250000Y-86750000D03*
X179250000Y-89550000D03*
X160200000Y-86750000D03*
X160200000Y-89550000D03*
X141150000Y-86750000D03*
X141150000Y-89550000D03*
X122100000Y-86750000D03*
X122100000Y-89550000D03*
X103050000Y-86750000D03*
X103050000Y-89550000D03*
X84000000Y-86750000D03*
X84000000Y-89550000D03*
X179250000Y-67700000D03*
X179250000Y-70500000D03*
X160200000Y-67700000D03*
X160200000Y-70500000D03*
X143975000Y-67700000D03*
X143975000Y-70500000D03*
X122100000Y-67700000D03*
X122100000Y-70500000D03*
X103050000Y-67700000D03*
X103050000Y-70500000D03*
X84000000Y-67700000D03*
X84000000Y-70500000D03*
X123775000Y-51475000D03*
X123775000Y-48675000D03*
X107250000Y-55450000D03*
X107250000Y-52650000D03*
X88200000Y-55450000D03*
X88200000Y-52650000D03*
X69150000Y-55450000D03*
X69150000Y-52650000D03*
D11*
X84010000Y-73640000D03*
D12*
X76650000Y-71100000D03*
D13*
X74110000Y-76180000D03*
X80460000Y-73640000D03*
D11*
X70560000Y-76180000D03*
D14*
X71570000Y-71100000D03*
X81730000Y-71100000D03*
D15*
X92350000Y-83500000D03*
D16*
X87750000Y-81200000D03*
X94750000Y-81200000D03*
D15*
X89350000Y-83500000D03*
X96350000Y-83500000D03*
X97450000Y-78900000D03*
D17*
X86175000Y-61575000D03*
X86175000Y-118725000D03*
X105225000Y-61575000D03*
X86175000Y-99675000D03*
X162375000Y-118725000D03*
X162375000Y-99675000D03*
X105225000Y-118725000D03*
X105225000Y-99675000D03*
X162375000Y-61575000D03*
X105225000Y-80625000D03*
X162375000Y-80625000D03*
D15*
X73350000Y-83500000D03*
D16*
X68750000Y-81200000D03*
X75750000Y-81200000D03*
D15*
X70350000Y-83500000D03*
X77350000Y-83500000D03*
X78450000Y-78900000D03*
D11*
X145490000Y-49510000D03*
D12*
X152850000Y-52050000D03*
D13*
X155390000Y-46970000D03*
X149040000Y-49510000D03*
D11*
X158940000Y-46970000D03*
D14*
X157930000Y-52050000D03*
X147770000Y-52050000D03*
X166820000Y-52050000D03*
X176980000Y-52050000D03*
D11*
X177990000Y-46970000D03*
D13*
X168090000Y-49510000D03*
X174440000Y-46970000D03*
D12*
X171900000Y-52050000D03*
D11*
X164540000Y-49510000D03*
D18*
X141395000Y-50260000D03*
X141395000Y-52800000D03*
X141395000Y-55340000D03*
X141395000Y-57880000D03*
X141395000Y-60420000D03*
X141395000Y-62960000D03*
X141395000Y-65500000D03*
X141395000Y-68040000D03*
X141395000Y-70580000D03*
X126155000Y-73120000D03*
X126155000Y-70580000D03*
X126155000Y-68040000D03*
X126155000Y-65500000D03*
X126155000Y-62960000D03*
X126155000Y-60420000D03*
X126155000Y-57880000D03*
X126155000Y-55340000D03*
X126155000Y-52800000D03*
X126155000Y-45180000D03*
D19*
X139045000Y-60300000D03*
D20*
X128885000Y-60300000D03*
D19*
X139035000Y-63550000D03*
D20*
X128875000Y-63550000D03*
D15*
X175200000Y-78900000D03*
D16*
X179800000Y-81200000D03*
X172800000Y-81200000D03*
D15*
X178200000Y-78900000D03*
X171200000Y-78900000D03*
X170100000Y-83500000D03*
D11*
X179260000Y-111740000D03*
D12*
X171900000Y-109200000D03*
D13*
X169360000Y-114280000D03*
X175710000Y-111740000D03*
D11*
X165810000Y-114280000D03*
D14*
X166820000Y-109200000D03*
X176980000Y-109200000D03*
D11*
X84010000Y-111740000D03*
D12*
X76650000Y-109200000D03*
D13*
X74110000Y-114280000D03*
X80460000Y-111740000D03*
D11*
X70560000Y-114280000D03*
D14*
X71570000Y-109200000D03*
X81730000Y-109200000D03*
D11*
X179260000Y-130790000D03*
D12*
X171900000Y-128250000D03*
D13*
X169360000Y-133330000D03*
X175710000Y-130790000D03*
D11*
X165810000Y-133330000D03*
D14*
X166820000Y-128250000D03*
X176980000Y-128250000D03*
D11*
X160210000Y-130790000D03*
D12*
X152850000Y-128250000D03*
D13*
X150310000Y-133330000D03*
X156660000Y-130790000D03*
D11*
X146760000Y-133330000D03*
D14*
X147770000Y-128250000D03*
X157930000Y-128250000D03*
D11*
X141160000Y-130790000D03*
D12*
X133800000Y-128250000D03*
D13*
X131260000Y-133330000D03*
X137610000Y-130790000D03*
D11*
X127710000Y-133330000D03*
D14*
X128720000Y-128250000D03*
X138880000Y-128250000D03*
D11*
X122110000Y-130790000D03*
D12*
X114750000Y-128250000D03*
D13*
X112210000Y-133330000D03*
X118560000Y-130790000D03*
D11*
X108660000Y-133330000D03*
D14*
X109670000Y-128250000D03*
X119830000Y-128250000D03*
D11*
X103060000Y-130790000D03*
D12*
X95700000Y-128250000D03*
D13*
X93160000Y-133330000D03*
X99510000Y-130790000D03*
D11*
X89610000Y-133330000D03*
D14*
X90620000Y-128250000D03*
X100780000Y-128250000D03*
D11*
X84010000Y-130790000D03*
D12*
X76650000Y-128250000D03*
D13*
X74110000Y-133330000D03*
X80460000Y-130790000D03*
D11*
X70560000Y-133330000D03*
D14*
X71570000Y-128250000D03*
X81730000Y-128250000D03*
D11*
X160210000Y-111740000D03*
D12*
X152850000Y-109200000D03*
D13*
X150310000Y-114280000D03*
X156660000Y-111740000D03*
D11*
X146760000Y-114280000D03*
D14*
X147770000Y-109200000D03*
X157930000Y-109200000D03*
D11*
X141160000Y-111740000D03*
D12*
X133800000Y-109200000D03*
D13*
X131260000Y-114280000D03*
X137610000Y-111740000D03*
D11*
X127710000Y-114280000D03*
D14*
X128720000Y-109200000D03*
X138880000Y-109200000D03*
D11*
X122110000Y-111740000D03*
D12*
X114750000Y-109200000D03*
D13*
X112210000Y-114280000D03*
X118560000Y-111740000D03*
D11*
X108660000Y-114280000D03*
D14*
X109670000Y-109200000D03*
X119830000Y-109200000D03*
D11*
X103060000Y-111740000D03*
D12*
X95700000Y-109200000D03*
D13*
X93160000Y-114280000D03*
X99510000Y-111740000D03*
D11*
X89610000Y-114280000D03*
D14*
X90620000Y-109200000D03*
X100780000Y-109200000D03*
D11*
X179260000Y-92690000D03*
D12*
X171900000Y-90150000D03*
D13*
X169360000Y-95230000D03*
X175710000Y-92690000D03*
D11*
X165810000Y-95230000D03*
D14*
X166820000Y-90150000D03*
X176980000Y-90150000D03*
D11*
X160210000Y-92690000D03*
D12*
X152850000Y-90150000D03*
D13*
X150310000Y-95230000D03*
X156660000Y-92690000D03*
D11*
X146760000Y-95230000D03*
D14*
X147770000Y-90150000D03*
X157930000Y-90150000D03*
D11*
X141160000Y-92690000D03*
D12*
X133800000Y-90150000D03*
D13*
X131260000Y-95230000D03*
X137610000Y-92690000D03*
D11*
X127710000Y-95230000D03*
D14*
X128720000Y-90150000D03*
X138880000Y-90150000D03*
D11*
X122110000Y-92690000D03*
D12*
X114750000Y-90150000D03*
D13*
X112210000Y-95230000D03*
X118560000Y-92690000D03*
D11*
X108660000Y-95230000D03*
D14*
X109670000Y-90150000D03*
X119830000Y-90150000D03*
D11*
X103060000Y-92690000D03*
D12*
X95700000Y-90150000D03*
D13*
X93160000Y-95230000D03*
X99510000Y-92690000D03*
D11*
X89610000Y-95230000D03*
D14*
X90620000Y-90150000D03*
X100780000Y-90150000D03*
D11*
X84010000Y-92690000D03*
D12*
X76650000Y-90150000D03*
D13*
X74110000Y-95230000D03*
X80460000Y-92690000D03*
D11*
X70560000Y-95230000D03*
D14*
X71570000Y-90150000D03*
X81730000Y-90150000D03*
X176980000Y-71100000D03*
X166820000Y-71100000D03*
D11*
X165810000Y-76180000D03*
D13*
X175710000Y-73640000D03*
X169360000Y-76180000D03*
D12*
X171900000Y-71100000D03*
D11*
X179260000Y-73640000D03*
X160210000Y-73640000D03*
D12*
X152850000Y-71100000D03*
D13*
X150310000Y-76180000D03*
X156660000Y-73640000D03*
D11*
X146760000Y-76180000D03*
D14*
X147770000Y-71100000D03*
X157930000Y-71100000D03*
D11*
X141160000Y-73640000D03*
D12*
X133800000Y-71100000D03*
D13*
X131260000Y-76180000D03*
X137610000Y-73640000D03*
D11*
X127710000Y-76180000D03*
D14*
X128720000Y-71100000D03*
X138880000Y-71100000D03*
D11*
X122110000Y-73640000D03*
D12*
X114750000Y-71100000D03*
D13*
X112210000Y-76180000D03*
X118560000Y-73640000D03*
D11*
X108660000Y-76180000D03*
D14*
X109670000Y-71100000D03*
X119830000Y-71100000D03*
D11*
X103060000Y-73640000D03*
D12*
X95700000Y-71100000D03*
D13*
X93160000Y-76180000D03*
X99510000Y-73640000D03*
D11*
X89610000Y-76180000D03*
D14*
X90620000Y-71100000D03*
X100780000Y-71100000D03*
D11*
X126440000Y-49510000D03*
D12*
X133800000Y-52050000D03*
D13*
X136340000Y-46970000D03*
X129990000Y-49510000D03*
D11*
X139890000Y-46970000D03*
D14*
X138880000Y-52050000D03*
X128720000Y-52050000D03*
D11*
X107390000Y-49510000D03*
D12*
X114750000Y-52050000D03*
D13*
X117290000Y-46970000D03*
X110940000Y-49510000D03*
D11*
X120840000Y-46970000D03*
D14*
X119830000Y-52050000D03*
X109670000Y-52050000D03*
D11*
X88340000Y-49510000D03*
D12*
X95700000Y-52050000D03*
D13*
X98240000Y-46970000D03*
X91890000Y-49510000D03*
D11*
X101790000Y-46970000D03*
D14*
X100780000Y-52050000D03*
X90620000Y-52050000D03*
D11*
X69290000Y-49510000D03*
D12*
X76650000Y-52050000D03*
D13*
X79190000Y-46970000D03*
X72840000Y-49510000D03*
D11*
X82740000Y-46970000D03*
D14*
X81730000Y-52050000D03*
X71570000Y-52050000D03*
M02*
