%TF.GenerationSoftware,KiCad,Pcbnew,(5.1.6)-1*%
%TF.CreationDate,2020-06-27T17:36:21-05:00*%
%TF.ProjectId,DTM,44544d2e-6b69-4636-9164-5f7063625858,rev?*%
%TF.SameCoordinates,Original*%
%TF.FileFunction,Soldermask,Top*%
%TF.FilePolarity,Negative*%
%FSLAX46Y46*%
G04 Gerber Fmt 4.6, Leading zero omitted, Abs format (unit mm)*
G04 Created by KiCad (PCBNEW (5.1.6)-1) date 2020-06-27 17:36:21*
%MOMM*%
%LPD*%
G01*
G04 APERTURE LIST*
%ADD10C,1.800000*%
%ADD11C,2.100000*%
%ADD12C,1.850000*%
%ADD13C,2.350000*%
%ADD14C,4.087800*%
%ADD15C,4.100000*%
%ADD16O,1.800000X1.800000*%
%ADD17R,1.800000X1.800000*%
%ADD18R,1.700000X1.700000*%
%ADD19C,1.700000*%
%ADD20R,2.100000X2.100000*%
%ADD21R,2.100000X3.300000*%
G04 APERTURE END LIST*
D10*
%TO.C,K34*%
X112656250Y-85725000D03*
X101656250Y-85725000D03*
D11*
X107156250Y-79825000D03*
X112156250Y-81925000D03*
D12*
X112236250Y-85725000D03*
X102076250Y-85725000D03*
D13*
X104656250Y-81725000D03*
D14*
X107156250Y-85725000D03*
G36*
G01*
X102561546Y-84059566D02*
X102561547Y-84059566D01*
G75*
G02*
X102471684Y-82400297I784703J874566D01*
G01*
X103781674Y-80940289D01*
G75*
G02*
X105440943Y-80850426I874566J-784703D01*
G01*
X105440943Y-80850426D01*
G75*
G02*
X105530806Y-82509695I-784703J-874566D01*
G01*
X104220816Y-83969703D01*
G75*
G02*
X102561547Y-84059566I-874566J784703D01*
G01*
G37*
D13*
X109696250Y-80645000D03*
G36*
G01*
X109576332Y-82397279D02*
X109576332Y-82397279D01*
G75*
G02*
X108483971Y-81145082I79918J1172279D01*
G01*
X108523513Y-80565050D01*
G75*
G02*
X109775710Y-79472689I1172279J-79918D01*
G01*
X109775710Y-79472689D01*
G75*
G02*
X110868071Y-80724886I-79918J-1172279D01*
G01*
X110828529Y-81304918D01*
G75*
G02*
X109576332Y-82397279I-1172279J79918D01*
G01*
G37*
%TD*%
D10*
%TO.C,K14*%
X150756250Y-47625000D03*
X139756250Y-47625000D03*
D11*
X145256250Y-41725000D03*
X150256250Y-43825000D03*
D12*
X150336250Y-47625000D03*
X140176250Y-47625000D03*
D13*
X142756250Y-43625000D03*
D14*
X145256250Y-47625000D03*
G36*
G01*
X140661546Y-45959566D02*
X140661547Y-45959566D01*
G75*
G02*
X140571684Y-44300297I784703J874566D01*
G01*
X141881674Y-42840289D01*
G75*
G02*
X143540943Y-42750426I874566J-784703D01*
G01*
X143540943Y-42750426D01*
G75*
G02*
X143630806Y-44409695I-784703J-874566D01*
G01*
X142320816Y-45869703D01*
G75*
G02*
X140661547Y-45959566I-874566J784703D01*
G01*
G37*
D13*
X147796250Y-42545000D03*
G36*
G01*
X147676332Y-44297279D02*
X147676332Y-44297279D01*
G75*
G02*
X146583971Y-43045082I79918J1172279D01*
G01*
X146623513Y-42465050D01*
G75*
G02*
X147875710Y-41372689I1172279J-79918D01*
G01*
X147875710Y-41372689D01*
G75*
G02*
X148968071Y-42624886I-79918J-1172279D01*
G01*
X148928529Y-43204918D01*
G75*
G02*
X147676332Y-44297279I-1172279J79918D01*
G01*
G37*
%TD*%
D15*
%TO.C,H8*%
X173990000Y-95250000D03*
%TD*%
%TO.C,H7*%
X173990000Y-57150000D03*
%TD*%
%TO.C,H6*%
X116840000Y-95250000D03*
%TD*%
%TO.C,H5*%
X116840000Y-57150000D03*
%TD*%
%TO.C,H4*%
X231140000Y-57150000D03*
%TD*%
%TO.C,H3*%
X231140000Y-95250000D03*
%TD*%
%TO.C,H2*%
X59436000Y-38100000D03*
%TD*%
%TO.C,H1*%
X59436000Y-95250000D03*
%TD*%
D10*
%TO.C,K18*%
X226956250Y-47625000D03*
X215956250Y-47625000D03*
D11*
X221456250Y-41725000D03*
X226456250Y-43825000D03*
D12*
X226536250Y-47625000D03*
X216376250Y-47625000D03*
D13*
X218956250Y-43625000D03*
D14*
X221456250Y-47625000D03*
G36*
G01*
X216861546Y-45959566D02*
X216861547Y-45959566D01*
G75*
G02*
X216771684Y-44300297I784703J874566D01*
G01*
X218081674Y-42840289D01*
G75*
G02*
X219740943Y-42750426I874566J-784703D01*
G01*
X219740943Y-42750426D01*
G75*
G02*
X219830806Y-44409695I-784703J-874566D01*
G01*
X218520816Y-45869703D01*
G75*
G02*
X216861547Y-45959566I-874566J784703D01*
G01*
G37*
D13*
X223996250Y-42545000D03*
G36*
G01*
X223876332Y-44297279D02*
X223876332Y-44297279D01*
G75*
G02*
X222783971Y-43045082I79918J1172279D01*
G01*
X222823513Y-42465050D01*
G75*
G02*
X224075710Y-41372689I1172279J-79918D01*
G01*
X224075710Y-41372689D01*
G75*
G02*
X225168071Y-42624886I-79918J-1172279D01*
G01*
X225128529Y-43204918D01*
G75*
G02*
X223876332Y-44297279I-1172279J79918D01*
G01*
G37*
%TD*%
D10*
%TO.C,U1*%
X246231250Y-20960000D03*
X243691250Y-36175000D03*
X246231250Y-36175000D03*
X241151250Y-33635000D03*
X241151250Y-36175000D03*
X238611250Y-36175000D03*
X236071250Y-36175000D03*
X233531250Y-36175000D03*
X241151250Y-31095000D03*
X241151250Y-28555000D03*
X230991250Y-36175000D03*
X228451250Y-36175000D03*
X225911250Y-36175000D03*
X223371250Y-36175000D03*
X220831250Y-36175000D03*
X218291250Y-36175000D03*
X210671250Y-36175000D03*
X205591250Y-36175000D03*
X203051250Y-36175000D03*
X208131250Y-36175000D03*
X200511250Y-36175000D03*
X213211250Y-36175000D03*
X243691250Y-20960000D03*
X241151250Y-20960000D03*
X236071250Y-20960000D03*
X241151250Y-23500000D03*
X238611250Y-20960000D03*
X233531250Y-20960000D03*
X230991250Y-20960000D03*
X228451250Y-20960000D03*
X223371250Y-20960000D03*
X220831250Y-20960000D03*
X225911250Y-20960000D03*
X218291250Y-20960000D03*
X210671250Y-20960000D03*
X213211250Y-20960000D03*
X205591250Y-20960000D03*
X208131250Y-20960000D03*
X203051250Y-20960000D03*
X200511250Y-20960000D03*
%TD*%
D16*
%TO.C,RGB1*%
X196342000Y-20828000D03*
X193802000Y-20828000D03*
D17*
X191262000Y-20828000D03*
%TD*%
D10*
%TO.C,K52*%
X246006250Y-104775000D03*
X235006250Y-104775000D03*
D11*
X240506250Y-98875000D03*
X245506250Y-100975000D03*
D12*
X245586250Y-104775000D03*
X235426250Y-104775000D03*
D13*
X238006250Y-100775000D03*
D14*
X240506250Y-104775000D03*
G36*
G01*
X235911546Y-103109566D02*
X235911547Y-103109566D01*
G75*
G02*
X235821684Y-101450297I784703J874566D01*
G01*
X237131674Y-99990289D01*
G75*
G02*
X238790943Y-99900426I874566J-784703D01*
G01*
X238790943Y-99900426D01*
G75*
G02*
X238880806Y-101559695I-784703J-874566D01*
G01*
X237570816Y-103019703D01*
G75*
G02*
X235911547Y-103109566I-874566J784703D01*
G01*
G37*
D13*
X243046250Y-99695000D03*
G36*
G01*
X242926332Y-101447279D02*
X242926332Y-101447279D01*
G75*
G02*
X241833971Y-100195082I79918J1172279D01*
G01*
X241873513Y-99615050D01*
G75*
G02*
X243125710Y-98522689I1172279J-79918D01*
G01*
X243125710Y-98522689D01*
G75*
G02*
X244218071Y-99774886I-79918J-1172279D01*
G01*
X244178529Y-100354918D01*
G75*
G02*
X242926332Y-101447279I-1172279J79918D01*
G01*
G37*
%TD*%
D10*
%TO.C,K51*%
X226956250Y-104775000D03*
X215956250Y-104775000D03*
D11*
X221456250Y-98875000D03*
X226456250Y-100975000D03*
D12*
X226536250Y-104775000D03*
X216376250Y-104775000D03*
D13*
X218956250Y-100775000D03*
D14*
X221456250Y-104775000D03*
G36*
G01*
X216861546Y-103109566D02*
X216861547Y-103109566D01*
G75*
G02*
X216771684Y-101450297I784703J874566D01*
G01*
X218081674Y-99990289D01*
G75*
G02*
X219740943Y-99900426I874566J-784703D01*
G01*
X219740943Y-99900426D01*
G75*
G02*
X219830806Y-101559695I-784703J-874566D01*
G01*
X218520816Y-103019703D01*
G75*
G02*
X216861547Y-103109566I-874566J784703D01*
G01*
G37*
D13*
X223996250Y-99695000D03*
G36*
G01*
X223876332Y-101447279D02*
X223876332Y-101447279D01*
G75*
G02*
X222783971Y-100195082I79918J1172279D01*
G01*
X222823513Y-99615050D01*
G75*
G02*
X224075710Y-98522689I1172279J-79918D01*
G01*
X224075710Y-98522689D01*
G75*
G02*
X225168071Y-99774886I-79918J-1172279D01*
G01*
X225128529Y-100354918D01*
G75*
G02*
X223876332Y-101447279I-1172279J79918D01*
G01*
G37*
%TD*%
D10*
%TO.C,K50*%
X207906250Y-104768751D03*
X196906250Y-104768751D03*
D11*
X202406250Y-98868751D03*
X207406250Y-100968751D03*
D12*
X207486250Y-104768751D03*
X197326250Y-104768751D03*
D13*
X199906250Y-100768751D03*
D14*
X202406250Y-104768751D03*
G36*
G01*
X197811546Y-103103317D02*
X197811547Y-103103317D01*
G75*
G02*
X197721684Y-101444048I784703J874566D01*
G01*
X199031674Y-99984040D01*
G75*
G02*
X200690943Y-99894177I874566J-784703D01*
G01*
X200690943Y-99894177D01*
G75*
G02*
X200780806Y-101553446I-784703J-874566D01*
G01*
X199470816Y-103013454D01*
G75*
G02*
X197811547Y-103103317I-874566J784703D01*
G01*
G37*
D13*
X204946250Y-99688751D03*
G36*
G01*
X204826332Y-101441030D02*
X204826332Y-101441030D01*
G75*
G02*
X203733971Y-100188833I79918J1172279D01*
G01*
X203773513Y-99608801D01*
G75*
G02*
X205025710Y-98516440I1172279J-79918D01*
G01*
X205025710Y-98516440D01*
G75*
G02*
X206118071Y-99768637I-79918J-1172279D01*
G01*
X206078529Y-100348669D01*
G75*
G02*
X204826332Y-101441030I-1172279J79918D01*
G01*
G37*
%TD*%
D10*
%TO.C,K49*%
X188856250Y-104775000D03*
X177856250Y-104775000D03*
D11*
X183356250Y-98875000D03*
X188356250Y-100975000D03*
D12*
X188436250Y-104775000D03*
X178276250Y-104775000D03*
D13*
X180856250Y-100775000D03*
D14*
X183356250Y-104775000D03*
G36*
G01*
X178761546Y-103109566D02*
X178761547Y-103109566D01*
G75*
G02*
X178671684Y-101450297I784703J874566D01*
G01*
X179981674Y-99990289D01*
G75*
G02*
X181640943Y-99900426I874566J-784703D01*
G01*
X181640943Y-99900426D01*
G75*
G02*
X181730806Y-101559695I-784703J-874566D01*
G01*
X180420816Y-103019703D01*
G75*
G02*
X178761547Y-103109566I-874566J784703D01*
G01*
G37*
D13*
X185896250Y-99695000D03*
G36*
G01*
X185776332Y-101447279D02*
X185776332Y-101447279D01*
G75*
G02*
X184683971Y-100195082I79918J1172279D01*
G01*
X184723513Y-99615050D01*
G75*
G02*
X185975710Y-98522689I1172279J-79918D01*
G01*
X185975710Y-98522689D01*
G75*
G02*
X187068071Y-99774886I-79918J-1172279D01*
G01*
X187028529Y-100354918D01*
G75*
G02*
X185776332Y-101447279I-1172279J79918D01*
G01*
G37*
%TD*%
D10*
%TO.C,K48*%
X169806250Y-104775000D03*
X158806250Y-104775000D03*
D11*
X164306250Y-98875000D03*
X169306250Y-100975000D03*
D12*
X169386250Y-104775000D03*
X159226250Y-104775000D03*
D13*
X161806250Y-100775000D03*
D14*
X164306250Y-104775000D03*
G36*
G01*
X159711546Y-103109566D02*
X159711547Y-103109566D01*
G75*
G02*
X159621684Y-101450297I784703J874566D01*
G01*
X160931674Y-99990289D01*
G75*
G02*
X162590943Y-99900426I874566J-784703D01*
G01*
X162590943Y-99900426D01*
G75*
G02*
X162680806Y-101559695I-784703J-874566D01*
G01*
X161370816Y-103019703D01*
G75*
G02*
X159711547Y-103109566I-874566J784703D01*
G01*
G37*
D13*
X166846250Y-99695000D03*
G36*
G01*
X166726332Y-101447279D02*
X166726332Y-101447279D01*
G75*
G02*
X165633971Y-100195082I79918J1172279D01*
G01*
X165673513Y-99615050D01*
G75*
G02*
X166925710Y-98522689I1172279J-79918D01*
G01*
X166925710Y-98522689D01*
G75*
G02*
X168018071Y-99774886I-79918J-1172279D01*
G01*
X167978529Y-100354918D01*
G75*
G02*
X166726332Y-101447279I-1172279J79918D01*
G01*
G37*
%TD*%
D10*
%TO.C,K47*%
X150756250Y-104775000D03*
X139756250Y-104775000D03*
D11*
X145256250Y-98875000D03*
X150256250Y-100975000D03*
D12*
X150336250Y-104775000D03*
X140176250Y-104775000D03*
D13*
X142756250Y-100775000D03*
D14*
X145256250Y-104775000D03*
G36*
G01*
X140661546Y-103109566D02*
X140661547Y-103109566D01*
G75*
G02*
X140571684Y-101450297I784703J874566D01*
G01*
X141881674Y-99990289D01*
G75*
G02*
X143540943Y-99900426I874566J-784703D01*
G01*
X143540943Y-99900426D01*
G75*
G02*
X143630806Y-101559695I-784703J-874566D01*
G01*
X142320816Y-103019703D01*
G75*
G02*
X140661547Y-103109566I-874566J784703D01*
G01*
G37*
D13*
X147796250Y-99695000D03*
G36*
G01*
X147676332Y-101447279D02*
X147676332Y-101447279D01*
G75*
G02*
X146583971Y-100195082I79918J1172279D01*
G01*
X146623513Y-99615050D01*
G75*
G02*
X147875710Y-98522689I1172279J-79918D01*
G01*
X147875710Y-98522689D01*
G75*
G02*
X148968071Y-99774886I-79918J-1172279D01*
G01*
X148928529Y-100354918D01*
G75*
G02*
X147676332Y-101447279I-1172279J79918D01*
G01*
G37*
%TD*%
D10*
%TO.C,K46*%
X131706250Y-104775000D03*
X120706250Y-104775000D03*
D11*
X126206250Y-98875000D03*
X131206250Y-100975000D03*
D12*
X131286250Y-104775000D03*
X121126250Y-104775000D03*
D13*
X123706250Y-100775000D03*
D14*
X126206250Y-104775000D03*
G36*
G01*
X121611546Y-103109566D02*
X121611547Y-103109566D01*
G75*
G02*
X121521684Y-101450297I784703J874566D01*
G01*
X122831674Y-99990289D01*
G75*
G02*
X124490943Y-99900426I874566J-784703D01*
G01*
X124490943Y-99900426D01*
G75*
G02*
X124580806Y-101559695I-784703J-874566D01*
G01*
X123270816Y-103019703D01*
G75*
G02*
X121611547Y-103109566I-874566J784703D01*
G01*
G37*
D13*
X128746250Y-99695000D03*
G36*
G01*
X128626332Y-101447279D02*
X128626332Y-101447279D01*
G75*
G02*
X127533971Y-100195082I79918J1172279D01*
G01*
X127573513Y-99615050D01*
G75*
G02*
X128825710Y-98522689I1172279J-79918D01*
G01*
X128825710Y-98522689D01*
G75*
G02*
X129918071Y-99774886I-79918J-1172279D01*
G01*
X129878529Y-100354918D01*
G75*
G02*
X128626332Y-101447279I-1172279J79918D01*
G01*
G37*
%TD*%
D10*
%TO.C,K45*%
X112656250Y-104775000D03*
X101656250Y-104775000D03*
D11*
X107156250Y-98875000D03*
X112156250Y-100975000D03*
D12*
X112236250Y-104775000D03*
X102076250Y-104775000D03*
D13*
X104656250Y-100775000D03*
D14*
X107156250Y-104775000D03*
G36*
G01*
X102561546Y-103109566D02*
X102561547Y-103109566D01*
G75*
G02*
X102471684Y-101450297I784703J874566D01*
G01*
X103781674Y-99990289D01*
G75*
G02*
X105440943Y-99900426I874566J-784703D01*
G01*
X105440943Y-99900426D01*
G75*
G02*
X105530806Y-101559695I-784703J-874566D01*
G01*
X104220816Y-103019703D01*
G75*
G02*
X102561547Y-103109566I-874566J784703D01*
G01*
G37*
D13*
X109696250Y-99695000D03*
G36*
G01*
X109576332Y-101447279D02*
X109576332Y-101447279D01*
G75*
G02*
X108483971Y-100195082I79918J1172279D01*
G01*
X108523513Y-99615050D01*
G75*
G02*
X109775710Y-98522689I1172279J-79918D01*
G01*
X109775710Y-98522689D01*
G75*
G02*
X110868071Y-99774886I-79918J-1172279D01*
G01*
X110828529Y-100354918D01*
G75*
G02*
X109576332Y-101447279I-1172279J79918D01*
G01*
G37*
%TD*%
D10*
%TO.C,K44*%
X93606250Y-104775000D03*
X82606250Y-104775000D03*
D11*
X88106250Y-98875000D03*
X93106250Y-100975000D03*
D12*
X93186250Y-104775000D03*
X83026250Y-104775000D03*
D13*
X85606250Y-100775000D03*
D14*
X88106250Y-104775000D03*
G36*
G01*
X83511546Y-103109566D02*
X83511547Y-103109566D01*
G75*
G02*
X83421684Y-101450297I784703J874566D01*
G01*
X84731674Y-99990289D01*
G75*
G02*
X86390943Y-99900426I874566J-784703D01*
G01*
X86390943Y-99900426D01*
G75*
G02*
X86480806Y-101559695I-784703J-874566D01*
G01*
X85170816Y-103019703D01*
G75*
G02*
X83511547Y-103109566I-874566J784703D01*
G01*
G37*
D13*
X90646250Y-99695000D03*
G36*
G01*
X90526332Y-101447279D02*
X90526332Y-101447279D01*
G75*
G02*
X89433971Y-100195082I79918J1172279D01*
G01*
X89473513Y-99615050D01*
G75*
G02*
X90725710Y-98522689I1172279J-79918D01*
G01*
X90725710Y-98522689D01*
G75*
G02*
X91818071Y-99774886I-79918J-1172279D01*
G01*
X91778529Y-100354918D01*
G75*
G02*
X90526332Y-101447279I-1172279J79918D01*
G01*
G37*
%TD*%
D10*
%TO.C,K43*%
X74556250Y-104775000D03*
X63556250Y-104775000D03*
D11*
X69056250Y-98875000D03*
X74056250Y-100975000D03*
D12*
X74136250Y-104775000D03*
X63976250Y-104775000D03*
D13*
X66556250Y-100775000D03*
D14*
X69056250Y-104775000D03*
G36*
G01*
X64461546Y-103109566D02*
X64461547Y-103109566D01*
G75*
G02*
X64371684Y-101450297I784703J874566D01*
G01*
X65681674Y-99990289D01*
G75*
G02*
X67340943Y-99900426I874566J-784703D01*
G01*
X67340943Y-99900426D01*
G75*
G02*
X67430806Y-101559695I-784703J-874566D01*
G01*
X66120816Y-103019703D01*
G75*
G02*
X64461547Y-103109566I-874566J784703D01*
G01*
G37*
D13*
X71596250Y-99695000D03*
G36*
G01*
X71476332Y-101447279D02*
X71476332Y-101447279D01*
G75*
G02*
X70383971Y-100195082I79918J1172279D01*
G01*
X70423513Y-99615050D01*
G75*
G02*
X71675710Y-98522689I1172279J-79918D01*
G01*
X71675710Y-98522689D01*
G75*
G02*
X72768071Y-99774886I-79918J-1172279D01*
G01*
X72728529Y-100354918D01*
G75*
G02*
X71476332Y-101447279I-1172279J79918D01*
G01*
G37*
%TD*%
D10*
%TO.C,K42*%
X55506250Y-104775000D03*
X44506250Y-104775000D03*
D11*
X50006250Y-98875000D03*
X55006250Y-100975000D03*
D12*
X55086250Y-104775000D03*
X44926250Y-104775000D03*
D13*
X47506250Y-100775000D03*
D14*
X50006250Y-104775000D03*
G36*
G01*
X45411546Y-103109566D02*
X45411547Y-103109566D01*
G75*
G02*
X45321684Y-101450297I784703J874566D01*
G01*
X46631674Y-99990289D01*
G75*
G02*
X48290943Y-99900426I874566J-784703D01*
G01*
X48290943Y-99900426D01*
G75*
G02*
X48380806Y-101559695I-784703J-874566D01*
G01*
X47070816Y-103019703D01*
G75*
G02*
X45411547Y-103109566I-874566J784703D01*
G01*
G37*
D13*
X52546250Y-99695000D03*
G36*
G01*
X52426332Y-101447279D02*
X52426332Y-101447279D01*
G75*
G02*
X51333971Y-100195082I79918J1172279D01*
G01*
X51373513Y-99615050D01*
G75*
G02*
X52625710Y-98522689I1172279J-79918D01*
G01*
X52625710Y-98522689D01*
G75*
G02*
X53718071Y-99774886I-79918J-1172279D01*
G01*
X53678529Y-100354918D01*
G75*
G02*
X52426332Y-101447279I-1172279J79918D01*
G01*
G37*
%TD*%
D10*
%TO.C,K41*%
X246006250Y-85725000D03*
X235006250Y-85725000D03*
D11*
X240506250Y-79825000D03*
X245506250Y-81925000D03*
D12*
X245586250Y-85725000D03*
X235426250Y-85725000D03*
D13*
X238006250Y-81725000D03*
D14*
X240506250Y-85725000D03*
G36*
G01*
X235911546Y-84059566D02*
X235911547Y-84059566D01*
G75*
G02*
X235821684Y-82400297I784703J874566D01*
G01*
X237131674Y-80940289D01*
G75*
G02*
X238790943Y-80850426I874566J-784703D01*
G01*
X238790943Y-80850426D01*
G75*
G02*
X238880806Y-82509695I-784703J-874566D01*
G01*
X237570816Y-83969703D01*
G75*
G02*
X235911547Y-84059566I-874566J784703D01*
G01*
G37*
D13*
X243046250Y-80645000D03*
G36*
G01*
X242926332Y-82397279D02*
X242926332Y-82397279D01*
G75*
G02*
X241833971Y-81145082I79918J1172279D01*
G01*
X241873513Y-80565050D01*
G75*
G02*
X243125710Y-79472689I1172279J-79918D01*
G01*
X243125710Y-79472689D01*
G75*
G02*
X244218071Y-80724886I-79918J-1172279D01*
G01*
X244178529Y-81304918D01*
G75*
G02*
X242926332Y-82397279I-1172279J79918D01*
G01*
G37*
%TD*%
D10*
%TO.C,K40*%
X226956250Y-85725000D03*
X215956250Y-85725000D03*
D11*
X221456250Y-79825000D03*
X226456250Y-81925000D03*
D12*
X226536250Y-85725000D03*
X216376250Y-85725000D03*
D13*
X218956250Y-81725000D03*
D14*
X221456250Y-85725000D03*
G36*
G01*
X216861546Y-84059566D02*
X216861547Y-84059566D01*
G75*
G02*
X216771684Y-82400297I784703J874566D01*
G01*
X218081674Y-80940289D01*
G75*
G02*
X219740943Y-80850426I874566J-784703D01*
G01*
X219740943Y-80850426D01*
G75*
G02*
X219830806Y-82509695I-784703J-874566D01*
G01*
X218520816Y-83969703D01*
G75*
G02*
X216861547Y-84059566I-874566J784703D01*
G01*
G37*
D13*
X223996250Y-80645000D03*
G36*
G01*
X223876332Y-82397279D02*
X223876332Y-82397279D01*
G75*
G02*
X222783971Y-81145082I79918J1172279D01*
G01*
X222823513Y-80565050D01*
G75*
G02*
X224075710Y-79472689I1172279J-79918D01*
G01*
X224075710Y-79472689D01*
G75*
G02*
X225168071Y-80724886I-79918J-1172279D01*
G01*
X225128529Y-81304918D01*
G75*
G02*
X223876332Y-82397279I-1172279J79918D01*
G01*
G37*
%TD*%
D10*
%TO.C,K39*%
X207906250Y-85725000D03*
X196906250Y-85725000D03*
D11*
X202406250Y-79825000D03*
X207406250Y-81925000D03*
D12*
X207486250Y-85725000D03*
X197326250Y-85725000D03*
D13*
X199906250Y-81725000D03*
D14*
X202406250Y-85725000D03*
G36*
G01*
X197811546Y-84059566D02*
X197811547Y-84059566D01*
G75*
G02*
X197721684Y-82400297I784703J874566D01*
G01*
X199031674Y-80940289D01*
G75*
G02*
X200690943Y-80850426I874566J-784703D01*
G01*
X200690943Y-80850426D01*
G75*
G02*
X200780806Y-82509695I-784703J-874566D01*
G01*
X199470816Y-83969703D01*
G75*
G02*
X197811547Y-84059566I-874566J784703D01*
G01*
G37*
D13*
X204946250Y-80645000D03*
G36*
G01*
X204826332Y-82397279D02*
X204826332Y-82397279D01*
G75*
G02*
X203733971Y-81145082I79918J1172279D01*
G01*
X203773513Y-80565050D01*
G75*
G02*
X205025710Y-79472689I1172279J-79918D01*
G01*
X205025710Y-79472689D01*
G75*
G02*
X206118071Y-80724886I-79918J-1172279D01*
G01*
X206078529Y-81304918D01*
G75*
G02*
X204826332Y-82397279I-1172279J79918D01*
G01*
G37*
%TD*%
D10*
%TO.C,K38*%
X188856250Y-85725000D03*
X177856250Y-85725000D03*
D11*
X183356250Y-79825000D03*
X188356250Y-81925000D03*
D12*
X188436250Y-85725000D03*
X178276250Y-85725000D03*
D13*
X180856250Y-81725000D03*
D14*
X183356250Y-85725000D03*
G36*
G01*
X178761546Y-84059566D02*
X178761547Y-84059566D01*
G75*
G02*
X178671684Y-82400297I784703J874566D01*
G01*
X179981674Y-80940289D01*
G75*
G02*
X181640943Y-80850426I874566J-784703D01*
G01*
X181640943Y-80850426D01*
G75*
G02*
X181730806Y-82509695I-784703J-874566D01*
G01*
X180420816Y-83969703D01*
G75*
G02*
X178761547Y-84059566I-874566J784703D01*
G01*
G37*
D13*
X185896250Y-80645000D03*
G36*
G01*
X185776332Y-82397279D02*
X185776332Y-82397279D01*
G75*
G02*
X184683971Y-81145082I79918J1172279D01*
G01*
X184723513Y-80565050D01*
G75*
G02*
X185975710Y-79472689I1172279J-79918D01*
G01*
X185975710Y-79472689D01*
G75*
G02*
X187068071Y-80724886I-79918J-1172279D01*
G01*
X187028529Y-81304918D01*
G75*
G02*
X185776332Y-82397279I-1172279J79918D01*
G01*
G37*
%TD*%
D10*
%TO.C,K37*%
X169806250Y-85725000D03*
X158806250Y-85725000D03*
D11*
X164306250Y-79825000D03*
X169306250Y-81925000D03*
D12*
X169386250Y-85725000D03*
X159226250Y-85725000D03*
D13*
X161806250Y-81725000D03*
D14*
X164306250Y-85725000D03*
G36*
G01*
X159711546Y-84059566D02*
X159711547Y-84059566D01*
G75*
G02*
X159621684Y-82400297I784703J874566D01*
G01*
X160931674Y-80940289D01*
G75*
G02*
X162590943Y-80850426I874566J-784703D01*
G01*
X162590943Y-80850426D01*
G75*
G02*
X162680806Y-82509695I-784703J-874566D01*
G01*
X161370816Y-83969703D01*
G75*
G02*
X159711547Y-84059566I-874566J784703D01*
G01*
G37*
D13*
X166846250Y-80645000D03*
G36*
G01*
X166726332Y-82397279D02*
X166726332Y-82397279D01*
G75*
G02*
X165633971Y-81145082I79918J1172279D01*
G01*
X165673513Y-80565050D01*
G75*
G02*
X166925710Y-79472689I1172279J-79918D01*
G01*
X166925710Y-79472689D01*
G75*
G02*
X168018071Y-80724886I-79918J-1172279D01*
G01*
X167978529Y-81304918D01*
G75*
G02*
X166726332Y-82397279I-1172279J79918D01*
G01*
G37*
%TD*%
D10*
%TO.C,K36*%
X150756250Y-85725000D03*
X139756250Y-85725000D03*
D11*
X145256250Y-79825000D03*
X150256250Y-81925000D03*
D12*
X150336250Y-85725000D03*
X140176250Y-85725000D03*
D13*
X142756250Y-81725000D03*
D14*
X145256250Y-85725000D03*
G36*
G01*
X140661546Y-84059566D02*
X140661547Y-84059566D01*
G75*
G02*
X140571684Y-82400297I784703J874566D01*
G01*
X141881674Y-80940289D01*
G75*
G02*
X143540943Y-80850426I874566J-784703D01*
G01*
X143540943Y-80850426D01*
G75*
G02*
X143630806Y-82509695I-784703J-874566D01*
G01*
X142320816Y-83969703D01*
G75*
G02*
X140661547Y-84059566I-874566J784703D01*
G01*
G37*
D13*
X147796250Y-80645000D03*
G36*
G01*
X147676332Y-82397279D02*
X147676332Y-82397279D01*
G75*
G02*
X146583971Y-81145082I79918J1172279D01*
G01*
X146623513Y-80565050D01*
G75*
G02*
X147875710Y-79472689I1172279J-79918D01*
G01*
X147875710Y-79472689D01*
G75*
G02*
X148968071Y-80724886I-79918J-1172279D01*
G01*
X148928529Y-81304918D01*
G75*
G02*
X147676332Y-82397279I-1172279J79918D01*
G01*
G37*
%TD*%
D10*
%TO.C,K35*%
X131706250Y-85725000D03*
X120706250Y-85725000D03*
D11*
X126206250Y-79825000D03*
X131206250Y-81925000D03*
D12*
X131286250Y-85725000D03*
X121126250Y-85725000D03*
D13*
X123706250Y-81725000D03*
D14*
X126206250Y-85725000D03*
G36*
G01*
X121611546Y-84059566D02*
X121611547Y-84059566D01*
G75*
G02*
X121521684Y-82400297I784703J874566D01*
G01*
X122831674Y-80940289D01*
G75*
G02*
X124490943Y-80850426I874566J-784703D01*
G01*
X124490943Y-80850426D01*
G75*
G02*
X124580806Y-82509695I-784703J-874566D01*
G01*
X123270816Y-83969703D01*
G75*
G02*
X121611547Y-84059566I-874566J784703D01*
G01*
G37*
D13*
X128746250Y-80645000D03*
G36*
G01*
X128626332Y-82397279D02*
X128626332Y-82397279D01*
G75*
G02*
X127533971Y-81145082I79918J1172279D01*
G01*
X127573513Y-80565050D01*
G75*
G02*
X128825710Y-79472689I1172279J-79918D01*
G01*
X128825710Y-79472689D01*
G75*
G02*
X129918071Y-80724886I-79918J-1172279D01*
G01*
X129878529Y-81304918D01*
G75*
G02*
X128626332Y-82397279I-1172279J79918D01*
G01*
G37*
%TD*%
D10*
%TO.C,K33*%
X93606250Y-85725000D03*
X82606250Y-85725000D03*
D11*
X88106250Y-79825000D03*
X93106250Y-81925000D03*
D12*
X93186250Y-85725000D03*
X83026250Y-85725000D03*
D13*
X85606250Y-81725000D03*
D14*
X88106250Y-85725000D03*
G36*
G01*
X83511546Y-84059566D02*
X83511547Y-84059566D01*
G75*
G02*
X83421684Y-82400297I784703J874566D01*
G01*
X84731674Y-80940289D01*
G75*
G02*
X86390943Y-80850426I874566J-784703D01*
G01*
X86390943Y-80850426D01*
G75*
G02*
X86480806Y-82509695I-784703J-874566D01*
G01*
X85170816Y-83969703D01*
G75*
G02*
X83511547Y-84059566I-874566J784703D01*
G01*
G37*
D13*
X90646250Y-80645000D03*
G36*
G01*
X90526332Y-82397279D02*
X90526332Y-82397279D01*
G75*
G02*
X89433971Y-81145082I79918J1172279D01*
G01*
X89473513Y-80565050D01*
G75*
G02*
X90725710Y-79472689I1172279J-79918D01*
G01*
X90725710Y-79472689D01*
G75*
G02*
X91818071Y-80724886I-79918J-1172279D01*
G01*
X91778529Y-81304918D01*
G75*
G02*
X90526332Y-82397279I-1172279J79918D01*
G01*
G37*
%TD*%
D10*
%TO.C,K32*%
X74556250Y-85725000D03*
X63556250Y-85725000D03*
D11*
X69056250Y-79825000D03*
X74056250Y-81925000D03*
D12*
X74136250Y-85725000D03*
X63976250Y-85725000D03*
D13*
X66556250Y-81725000D03*
D14*
X69056250Y-85725000D03*
G36*
G01*
X64461546Y-84059566D02*
X64461547Y-84059566D01*
G75*
G02*
X64371684Y-82400297I784703J874566D01*
G01*
X65681674Y-80940289D01*
G75*
G02*
X67340943Y-80850426I874566J-784703D01*
G01*
X67340943Y-80850426D01*
G75*
G02*
X67430806Y-82509695I-784703J-874566D01*
G01*
X66120816Y-83969703D01*
G75*
G02*
X64461547Y-84059566I-874566J784703D01*
G01*
G37*
D13*
X71596250Y-80645000D03*
G36*
G01*
X71476332Y-82397279D02*
X71476332Y-82397279D01*
G75*
G02*
X70383971Y-81145082I79918J1172279D01*
G01*
X70423513Y-80565050D01*
G75*
G02*
X71675710Y-79472689I1172279J-79918D01*
G01*
X71675710Y-79472689D01*
G75*
G02*
X72768071Y-80724886I-79918J-1172279D01*
G01*
X72728529Y-81304918D01*
G75*
G02*
X71476332Y-82397279I-1172279J79918D01*
G01*
G37*
%TD*%
D10*
%TO.C,K31*%
X55506250Y-85725000D03*
X44506250Y-85725000D03*
D11*
X50006250Y-79825000D03*
X55006250Y-81925000D03*
D12*
X55086250Y-85725000D03*
X44926250Y-85725000D03*
D13*
X47506250Y-81725000D03*
D14*
X50006250Y-85725000D03*
G36*
G01*
X45411546Y-84059566D02*
X45411547Y-84059566D01*
G75*
G02*
X45321684Y-82400297I784703J874566D01*
G01*
X46631674Y-80940289D01*
G75*
G02*
X48290943Y-80850426I874566J-784703D01*
G01*
X48290943Y-80850426D01*
G75*
G02*
X48380806Y-82509695I-784703J-874566D01*
G01*
X47070816Y-83969703D01*
G75*
G02*
X45411547Y-84059566I-874566J784703D01*
G01*
G37*
D13*
X52546250Y-80645000D03*
G36*
G01*
X52426332Y-82397279D02*
X52426332Y-82397279D01*
G75*
G02*
X51333971Y-81145082I79918J1172279D01*
G01*
X51373513Y-80565050D01*
G75*
G02*
X52625710Y-79472689I1172279J-79918D01*
G01*
X52625710Y-79472689D01*
G75*
G02*
X53718071Y-80724886I-79918J-1172279D01*
G01*
X53678529Y-81304918D01*
G75*
G02*
X52426332Y-82397279I-1172279J79918D01*
G01*
G37*
%TD*%
D10*
%TO.C,K30*%
X246006250Y-66675000D03*
X235006250Y-66675000D03*
D11*
X240506250Y-60775000D03*
X245506250Y-62875000D03*
D12*
X245586250Y-66675000D03*
X235426250Y-66675000D03*
D13*
X238006250Y-62675000D03*
D14*
X240506250Y-66675000D03*
G36*
G01*
X235911546Y-65009566D02*
X235911547Y-65009566D01*
G75*
G02*
X235821684Y-63350297I784703J874566D01*
G01*
X237131674Y-61890289D01*
G75*
G02*
X238790943Y-61800426I874566J-784703D01*
G01*
X238790943Y-61800426D01*
G75*
G02*
X238880806Y-63459695I-784703J-874566D01*
G01*
X237570816Y-64919703D01*
G75*
G02*
X235911547Y-65009566I-874566J784703D01*
G01*
G37*
D13*
X243046250Y-61595000D03*
G36*
G01*
X242926332Y-63347279D02*
X242926332Y-63347279D01*
G75*
G02*
X241833971Y-62095082I79918J1172279D01*
G01*
X241873513Y-61515050D01*
G75*
G02*
X243125710Y-60422689I1172279J-79918D01*
G01*
X243125710Y-60422689D01*
G75*
G02*
X244218071Y-61674886I-79918J-1172279D01*
G01*
X244178529Y-62254918D01*
G75*
G02*
X242926332Y-63347279I-1172279J79918D01*
G01*
G37*
%TD*%
D10*
%TO.C,K29*%
X226956250Y-66675000D03*
X215956250Y-66675000D03*
D11*
X221456250Y-60775000D03*
X226456250Y-62875000D03*
D12*
X226536250Y-66675000D03*
X216376250Y-66675000D03*
D13*
X218956250Y-62675000D03*
D14*
X221456250Y-66675000D03*
G36*
G01*
X216861546Y-65009566D02*
X216861547Y-65009566D01*
G75*
G02*
X216771684Y-63350297I784703J874566D01*
G01*
X218081674Y-61890289D01*
G75*
G02*
X219740943Y-61800426I874566J-784703D01*
G01*
X219740943Y-61800426D01*
G75*
G02*
X219830806Y-63459695I-784703J-874566D01*
G01*
X218520816Y-64919703D01*
G75*
G02*
X216861547Y-65009566I-874566J784703D01*
G01*
G37*
D13*
X223996250Y-61595000D03*
G36*
G01*
X223876332Y-63347279D02*
X223876332Y-63347279D01*
G75*
G02*
X222783971Y-62095082I79918J1172279D01*
G01*
X222823513Y-61515050D01*
G75*
G02*
X224075710Y-60422689I1172279J-79918D01*
G01*
X224075710Y-60422689D01*
G75*
G02*
X225168071Y-61674886I-79918J-1172279D01*
G01*
X225128529Y-62254918D01*
G75*
G02*
X223876332Y-63347279I-1172279J79918D01*
G01*
G37*
%TD*%
D10*
%TO.C,K28*%
X207906250Y-66675000D03*
X196906250Y-66675000D03*
D11*
X202406250Y-60775000D03*
X207406250Y-62875000D03*
D12*
X207486250Y-66675000D03*
X197326250Y-66675000D03*
D13*
X199906250Y-62675000D03*
D14*
X202406250Y-66675000D03*
G36*
G01*
X197811546Y-65009566D02*
X197811547Y-65009566D01*
G75*
G02*
X197721684Y-63350297I784703J874566D01*
G01*
X199031674Y-61890289D01*
G75*
G02*
X200690943Y-61800426I874566J-784703D01*
G01*
X200690943Y-61800426D01*
G75*
G02*
X200780806Y-63459695I-784703J-874566D01*
G01*
X199470816Y-64919703D01*
G75*
G02*
X197811547Y-65009566I-874566J784703D01*
G01*
G37*
D13*
X204946250Y-61595000D03*
G36*
G01*
X204826332Y-63347279D02*
X204826332Y-63347279D01*
G75*
G02*
X203733971Y-62095082I79918J1172279D01*
G01*
X203773513Y-61515050D01*
G75*
G02*
X205025710Y-60422689I1172279J-79918D01*
G01*
X205025710Y-60422689D01*
G75*
G02*
X206118071Y-61674886I-79918J-1172279D01*
G01*
X206078529Y-62254918D01*
G75*
G02*
X204826332Y-63347279I-1172279J79918D01*
G01*
G37*
%TD*%
D10*
%TO.C,K27*%
X188856250Y-66675000D03*
X177856250Y-66675000D03*
D11*
X183356250Y-60775000D03*
X188356250Y-62875000D03*
D12*
X188436250Y-66675000D03*
X178276250Y-66675000D03*
D13*
X180856250Y-62675000D03*
D14*
X183356250Y-66675000D03*
G36*
G01*
X178761546Y-65009566D02*
X178761547Y-65009566D01*
G75*
G02*
X178671684Y-63350297I784703J874566D01*
G01*
X179981674Y-61890289D01*
G75*
G02*
X181640943Y-61800426I874566J-784703D01*
G01*
X181640943Y-61800426D01*
G75*
G02*
X181730806Y-63459695I-784703J-874566D01*
G01*
X180420816Y-64919703D01*
G75*
G02*
X178761547Y-65009566I-874566J784703D01*
G01*
G37*
D13*
X185896250Y-61595000D03*
G36*
G01*
X185776332Y-63347279D02*
X185776332Y-63347279D01*
G75*
G02*
X184683971Y-62095082I79918J1172279D01*
G01*
X184723513Y-61515050D01*
G75*
G02*
X185975710Y-60422689I1172279J-79918D01*
G01*
X185975710Y-60422689D01*
G75*
G02*
X187068071Y-61674886I-79918J-1172279D01*
G01*
X187028529Y-62254918D01*
G75*
G02*
X185776332Y-63347279I-1172279J79918D01*
G01*
G37*
%TD*%
D10*
%TO.C,K26*%
X169806250Y-66675000D03*
X158806250Y-66675000D03*
D11*
X164306250Y-60775000D03*
X169306250Y-62875000D03*
D12*
X169386250Y-66675000D03*
X159226250Y-66675000D03*
D13*
X161806250Y-62675000D03*
D14*
X164306250Y-66675000D03*
G36*
G01*
X159711546Y-65009566D02*
X159711547Y-65009566D01*
G75*
G02*
X159621684Y-63350297I784703J874566D01*
G01*
X160931674Y-61890289D01*
G75*
G02*
X162590943Y-61800426I874566J-784703D01*
G01*
X162590943Y-61800426D01*
G75*
G02*
X162680806Y-63459695I-784703J-874566D01*
G01*
X161370816Y-64919703D01*
G75*
G02*
X159711547Y-65009566I-874566J784703D01*
G01*
G37*
D13*
X166846250Y-61595000D03*
G36*
G01*
X166726332Y-63347279D02*
X166726332Y-63347279D01*
G75*
G02*
X165633971Y-62095082I79918J1172279D01*
G01*
X165673513Y-61515050D01*
G75*
G02*
X166925710Y-60422689I1172279J-79918D01*
G01*
X166925710Y-60422689D01*
G75*
G02*
X168018071Y-61674886I-79918J-1172279D01*
G01*
X167978529Y-62254918D01*
G75*
G02*
X166726332Y-63347279I-1172279J79918D01*
G01*
G37*
%TD*%
D10*
%TO.C,K25*%
X150756250Y-66675000D03*
X139756250Y-66675000D03*
D11*
X145256250Y-60775000D03*
X150256250Y-62875000D03*
D12*
X150336250Y-66675000D03*
X140176250Y-66675000D03*
D13*
X142756250Y-62675000D03*
D14*
X145256250Y-66675000D03*
G36*
G01*
X140661546Y-65009566D02*
X140661547Y-65009566D01*
G75*
G02*
X140571684Y-63350297I784703J874566D01*
G01*
X141881674Y-61890289D01*
G75*
G02*
X143540943Y-61800426I874566J-784703D01*
G01*
X143540943Y-61800426D01*
G75*
G02*
X143630806Y-63459695I-784703J-874566D01*
G01*
X142320816Y-64919703D01*
G75*
G02*
X140661547Y-65009566I-874566J784703D01*
G01*
G37*
D13*
X147796250Y-61595000D03*
G36*
G01*
X147676332Y-63347279D02*
X147676332Y-63347279D01*
G75*
G02*
X146583971Y-62095082I79918J1172279D01*
G01*
X146623513Y-61515050D01*
G75*
G02*
X147875710Y-60422689I1172279J-79918D01*
G01*
X147875710Y-60422689D01*
G75*
G02*
X148968071Y-61674886I-79918J-1172279D01*
G01*
X148928529Y-62254918D01*
G75*
G02*
X147676332Y-63347279I-1172279J79918D01*
G01*
G37*
%TD*%
D10*
%TO.C,K24*%
X131706250Y-66675000D03*
X120706250Y-66675000D03*
D11*
X126206250Y-60775000D03*
X131206250Y-62875000D03*
D12*
X131286250Y-66675000D03*
X121126250Y-66675000D03*
D13*
X123706250Y-62675000D03*
D14*
X126206250Y-66675000D03*
G36*
G01*
X121611546Y-65009566D02*
X121611547Y-65009566D01*
G75*
G02*
X121521684Y-63350297I784703J874566D01*
G01*
X122831674Y-61890289D01*
G75*
G02*
X124490943Y-61800426I874566J-784703D01*
G01*
X124490943Y-61800426D01*
G75*
G02*
X124580806Y-63459695I-784703J-874566D01*
G01*
X123270816Y-64919703D01*
G75*
G02*
X121611547Y-65009566I-874566J784703D01*
G01*
G37*
D13*
X128746250Y-61595000D03*
G36*
G01*
X128626332Y-63347279D02*
X128626332Y-63347279D01*
G75*
G02*
X127533971Y-62095082I79918J1172279D01*
G01*
X127573513Y-61515050D01*
G75*
G02*
X128825710Y-60422689I1172279J-79918D01*
G01*
X128825710Y-60422689D01*
G75*
G02*
X129918071Y-61674886I-79918J-1172279D01*
G01*
X129878529Y-62254918D01*
G75*
G02*
X128626332Y-63347279I-1172279J79918D01*
G01*
G37*
%TD*%
D10*
%TO.C,K23*%
X112656250Y-66675000D03*
X101656250Y-66675000D03*
D11*
X107156250Y-60775000D03*
X112156250Y-62875000D03*
D12*
X112236250Y-66675000D03*
X102076250Y-66675000D03*
D13*
X104656250Y-62675000D03*
D14*
X107156250Y-66675000D03*
G36*
G01*
X102561546Y-65009566D02*
X102561547Y-65009566D01*
G75*
G02*
X102471684Y-63350297I784703J874566D01*
G01*
X103781674Y-61890289D01*
G75*
G02*
X105440943Y-61800426I874566J-784703D01*
G01*
X105440943Y-61800426D01*
G75*
G02*
X105530806Y-63459695I-784703J-874566D01*
G01*
X104220816Y-64919703D01*
G75*
G02*
X102561547Y-65009566I-874566J784703D01*
G01*
G37*
D13*
X109696250Y-61595000D03*
G36*
G01*
X109576332Y-63347279D02*
X109576332Y-63347279D01*
G75*
G02*
X108483971Y-62095082I79918J1172279D01*
G01*
X108523513Y-61515050D01*
G75*
G02*
X109775710Y-60422689I1172279J-79918D01*
G01*
X109775710Y-60422689D01*
G75*
G02*
X110868071Y-61674886I-79918J-1172279D01*
G01*
X110828529Y-62254918D01*
G75*
G02*
X109576332Y-63347279I-1172279J79918D01*
G01*
G37*
%TD*%
D10*
%TO.C,K22*%
X93606250Y-66675000D03*
X82606250Y-66675000D03*
D11*
X88106250Y-60775000D03*
X93106250Y-62875000D03*
D12*
X93186250Y-66675000D03*
X83026250Y-66675000D03*
D13*
X85606250Y-62675000D03*
D14*
X88106250Y-66675000D03*
G36*
G01*
X83511546Y-65009566D02*
X83511547Y-65009566D01*
G75*
G02*
X83421684Y-63350297I784703J874566D01*
G01*
X84731674Y-61890289D01*
G75*
G02*
X86390943Y-61800426I874566J-784703D01*
G01*
X86390943Y-61800426D01*
G75*
G02*
X86480806Y-63459695I-784703J-874566D01*
G01*
X85170816Y-64919703D01*
G75*
G02*
X83511547Y-65009566I-874566J784703D01*
G01*
G37*
D13*
X90646250Y-61595000D03*
G36*
G01*
X90526332Y-63347279D02*
X90526332Y-63347279D01*
G75*
G02*
X89433971Y-62095082I79918J1172279D01*
G01*
X89473513Y-61515050D01*
G75*
G02*
X90725710Y-60422689I1172279J-79918D01*
G01*
X90725710Y-60422689D01*
G75*
G02*
X91818071Y-61674886I-79918J-1172279D01*
G01*
X91778529Y-62254918D01*
G75*
G02*
X90526332Y-63347279I-1172279J79918D01*
G01*
G37*
%TD*%
D10*
%TO.C,K21*%
X74556250Y-66675000D03*
X63556250Y-66675000D03*
D11*
X69056250Y-60775000D03*
X74056250Y-62875000D03*
D12*
X74136250Y-66675000D03*
X63976250Y-66675000D03*
D13*
X66556250Y-62675000D03*
D14*
X69056250Y-66675000D03*
G36*
G01*
X64461546Y-65009566D02*
X64461547Y-65009566D01*
G75*
G02*
X64371684Y-63350297I784703J874566D01*
G01*
X65681674Y-61890289D01*
G75*
G02*
X67340943Y-61800426I874566J-784703D01*
G01*
X67340943Y-61800426D01*
G75*
G02*
X67430806Y-63459695I-784703J-874566D01*
G01*
X66120816Y-64919703D01*
G75*
G02*
X64461547Y-65009566I-874566J784703D01*
G01*
G37*
D13*
X71596250Y-61595000D03*
G36*
G01*
X71476332Y-63347279D02*
X71476332Y-63347279D01*
G75*
G02*
X70383971Y-62095082I79918J1172279D01*
G01*
X70423513Y-61515050D01*
G75*
G02*
X71675710Y-60422689I1172279J-79918D01*
G01*
X71675710Y-60422689D01*
G75*
G02*
X72768071Y-61674886I-79918J-1172279D01*
G01*
X72728529Y-62254918D01*
G75*
G02*
X71476332Y-63347279I-1172279J79918D01*
G01*
G37*
%TD*%
D10*
%TO.C,K20*%
X55506250Y-66675000D03*
X44506250Y-66675000D03*
D11*
X50006250Y-60775000D03*
X55006250Y-62875000D03*
D12*
X55086250Y-66675000D03*
X44926250Y-66675000D03*
D13*
X47506250Y-62675000D03*
D14*
X50006250Y-66675000D03*
G36*
G01*
X45411546Y-65009566D02*
X45411547Y-65009566D01*
G75*
G02*
X45321684Y-63350297I784703J874566D01*
G01*
X46631674Y-61890289D01*
G75*
G02*
X48290943Y-61800426I874566J-784703D01*
G01*
X48290943Y-61800426D01*
G75*
G02*
X48380806Y-63459695I-784703J-874566D01*
G01*
X47070816Y-64919703D01*
G75*
G02*
X45411547Y-65009566I-874566J784703D01*
G01*
G37*
D13*
X52546250Y-61595000D03*
G36*
G01*
X52426332Y-63347279D02*
X52426332Y-63347279D01*
G75*
G02*
X51333971Y-62095082I79918J1172279D01*
G01*
X51373513Y-61515050D01*
G75*
G02*
X52625710Y-60422689I1172279J-79918D01*
G01*
X52625710Y-60422689D01*
G75*
G02*
X53718071Y-61674886I-79918J-1172279D01*
G01*
X53678529Y-62254918D01*
G75*
G02*
X52426332Y-63347279I-1172279J79918D01*
G01*
G37*
%TD*%
D10*
%TO.C,K19*%
X246006250Y-47625000D03*
X235006250Y-47625000D03*
D11*
X240506250Y-41725000D03*
X245506250Y-43825000D03*
D12*
X245586250Y-47625000D03*
X235426250Y-47625000D03*
D13*
X238006250Y-43625000D03*
D14*
X240506250Y-47625000D03*
G36*
G01*
X235911546Y-45959566D02*
X235911547Y-45959566D01*
G75*
G02*
X235821684Y-44300297I784703J874566D01*
G01*
X237131674Y-42840289D01*
G75*
G02*
X238790943Y-42750426I874566J-784703D01*
G01*
X238790943Y-42750426D01*
G75*
G02*
X238880806Y-44409695I-784703J-874566D01*
G01*
X237570816Y-45869703D01*
G75*
G02*
X235911547Y-45959566I-874566J784703D01*
G01*
G37*
D13*
X243046250Y-42545000D03*
G36*
G01*
X242926332Y-44297279D02*
X242926332Y-44297279D01*
G75*
G02*
X241833971Y-43045082I79918J1172279D01*
G01*
X241873513Y-42465050D01*
G75*
G02*
X243125710Y-41372689I1172279J-79918D01*
G01*
X243125710Y-41372689D01*
G75*
G02*
X244218071Y-42624886I-79918J-1172279D01*
G01*
X244178529Y-43204918D01*
G75*
G02*
X242926332Y-44297279I-1172279J79918D01*
G01*
G37*
%TD*%
D10*
%TO.C,K17*%
X207906250Y-47625000D03*
X196906250Y-47625000D03*
D11*
X202406250Y-41725000D03*
X207406250Y-43825000D03*
D12*
X207486250Y-47625000D03*
X197326250Y-47625000D03*
D13*
X199906250Y-43625000D03*
D14*
X202406250Y-47625000D03*
G36*
G01*
X197811546Y-45959566D02*
X197811547Y-45959566D01*
G75*
G02*
X197721684Y-44300297I784703J874566D01*
G01*
X199031674Y-42840289D01*
G75*
G02*
X200690943Y-42750426I874566J-784703D01*
G01*
X200690943Y-42750426D01*
G75*
G02*
X200780806Y-44409695I-784703J-874566D01*
G01*
X199470816Y-45869703D01*
G75*
G02*
X197811547Y-45959566I-874566J784703D01*
G01*
G37*
D13*
X204946250Y-42545000D03*
G36*
G01*
X204826332Y-44297279D02*
X204826332Y-44297279D01*
G75*
G02*
X203733971Y-43045082I79918J1172279D01*
G01*
X203773513Y-42465050D01*
G75*
G02*
X205025710Y-41372689I1172279J-79918D01*
G01*
X205025710Y-41372689D01*
G75*
G02*
X206118071Y-42624886I-79918J-1172279D01*
G01*
X206078529Y-43204918D01*
G75*
G02*
X204826332Y-44297279I-1172279J79918D01*
G01*
G37*
%TD*%
D10*
%TO.C,K16*%
X188856250Y-47625000D03*
X177856250Y-47625000D03*
D11*
X183356250Y-41725000D03*
X188356250Y-43825000D03*
D12*
X188436250Y-47625000D03*
X178276250Y-47625000D03*
D13*
X180856250Y-43625000D03*
D14*
X183356250Y-47625000D03*
G36*
G01*
X178761546Y-45959566D02*
X178761547Y-45959566D01*
G75*
G02*
X178671684Y-44300297I784703J874566D01*
G01*
X179981674Y-42840289D01*
G75*
G02*
X181640943Y-42750426I874566J-784703D01*
G01*
X181640943Y-42750426D01*
G75*
G02*
X181730806Y-44409695I-784703J-874566D01*
G01*
X180420816Y-45869703D01*
G75*
G02*
X178761547Y-45959566I-874566J784703D01*
G01*
G37*
D13*
X185896250Y-42545000D03*
G36*
G01*
X185776332Y-44297279D02*
X185776332Y-44297279D01*
G75*
G02*
X184683971Y-43045082I79918J1172279D01*
G01*
X184723513Y-42465050D01*
G75*
G02*
X185975710Y-41372689I1172279J-79918D01*
G01*
X185975710Y-41372689D01*
G75*
G02*
X187068071Y-42624886I-79918J-1172279D01*
G01*
X187028529Y-43204918D01*
G75*
G02*
X185776332Y-44297279I-1172279J79918D01*
G01*
G37*
%TD*%
D10*
%TO.C,K15*%
X169806250Y-47625000D03*
X158806250Y-47625000D03*
D11*
X164306250Y-41725000D03*
X169306250Y-43825000D03*
D12*
X169386250Y-47625000D03*
X159226250Y-47625000D03*
D13*
X161806250Y-43625000D03*
D14*
X164306250Y-47625000D03*
G36*
G01*
X159711546Y-45959566D02*
X159711547Y-45959566D01*
G75*
G02*
X159621684Y-44300297I784703J874566D01*
G01*
X160931674Y-42840289D01*
G75*
G02*
X162590943Y-42750426I874566J-784703D01*
G01*
X162590943Y-42750426D01*
G75*
G02*
X162680806Y-44409695I-784703J-874566D01*
G01*
X161370816Y-45869703D01*
G75*
G02*
X159711547Y-45959566I-874566J784703D01*
G01*
G37*
D13*
X166846250Y-42545000D03*
G36*
G01*
X166726332Y-44297279D02*
X166726332Y-44297279D01*
G75*
G02*
X165633971Y-43045082I79918J1172279D01*
G01*
X165673513Y-42465050D01*
G75*
G02*
X166925710Y-41372689I1172279J-79918D01*
G01*
X166925710Y-41372689D01*
G75*
G02*
X168018071Y-42624886I-79918J-1172279D01*
G01*
X167978529Y-43204918D01*
G75*
G02*
X166726332Y-44297279I-1172279J79918D01*
G01*
G37*
%TD*%
D10*
%TO.C,K13*%
X131706250Y-47625000D03*
X120706250Y-47625000D03*
D11*
X126206250Y-41725000D03*
X131206250Y-43825000D03*
D12*
X131286250Y-47625000D03*
X121126250Y-47625000D03*
D13*
X123706250Y-43625000D03*
D14*
X126206250Y-47625000D03*
G36*
G01*
X121611546Y-45959566D02*
X121611547Y-45959566D01*
G75*
G02*
X121521684Y-44300297I784703J874566D01*
G01*
X122831674Y-42840289D01*
G75*
G02*
X124490943Y-42750426I874566J-784703D01*
G01*
X124490943Y-42750426D01*
G75*
G02*
X124580806Y-44409695I-784703J-874566D01*
G01*
X123270816Y-45869703D01*
G75*
G02*
X121611547Y-45959566I-874566J784703D01*
G01*
G37*
D13*
X128746250Y-42545000D03*
G36*
G01*
X128626332Y-44297279D02*
X128626332Y-44297279D01*
G75*
G02*
X127533971Y-43045082I79918J1172279D01*
G01*
X127573513Y-42465050D01*
G75*
G02*
X128825710Y-41372689I1172279J-79918D01*
G01*
X128825710Y-41372689D01*
G75*
G02*
X129918071Y-42624886I-79918J-1172279D01*
G01*
X129878529Y-43204918D01*
G75*
G02*
X128626332Y-44297279I-1172279J79918D01*
G01*
G37*
%TD*%
D10*
%TO.C,K12*%
X112656250Y-47625000D03*
X101656250Y-47625000D03*
D11*
X107156250Y-41725000D03*
X112156250Y-43825000D03*
D12*
X112236250Y-47625000D03*
X102076250Y-47625000D03*
D13*
X104656250Y-43625000D03*
D14*
X107156250Y-47625000D03*
G36*
G01*
X102561546Y-45959566D02*
X102561547Y-45959566D01*
G75*
G02*
X102471684Y-44300297I784703J874566D01*
G01*
X103781674Y-42840289D01*
G75*
G02*
X105440943Y-42750426I874566J-784703D01*
G01*
X105440943Y-42750426D01*
G75*
G02*
X105530806Y-44409695I-784703J-874566D01*
G01*
X104220816Y-45869703D01*
G75*
G02*
X102561547Y-45959566I-874566J784703D01*
G01*
G37*
D13*
X109696250Y-42545000D03*
G36*
G01*
X109576332Y-44297279D02*
X109576332Y-44297279D01*
G75*
G02*
X108483971Y-43045082I79918J1172279D01*
G01*
X108523513Y-42465050D01*
G75*
G02*
X109775710Y-41372689I1172279J-79918D01*
G01*
X109775710Y-41372689D01*
G75*
G02*
X110868071Y-42624886I-79918J-1172279D01*
G01*
X110828529Y-43204918D01*
G75*
G02*
X109576332Y-44297279I-1172279J79918D01*
G01*
G37*
%TD*%
D10*
%TO.C,K11*%
X93606250Y-47625000D03*
X82606250Y-47625000D03*
D11*
X88106250Y-41725000D03*
X93106250Y-43825000D03*
D12*
X93186250Y-47625000D03*
X83026250Y-47625000D03*
D13*
X85606250Y-43625000D03*
D14*
X88106250Y-47625000D03*
G36*
G01*
X83511546Y-45959566D02*
X83511547Y-45959566D01*
G75*
G02*
X83421684Y-44300297I784703J874566D01*
G01*
X84731674Y-42840289D01*
G75*
G02*
X86390943Y-42750426I874566J-784703D01*
G01*
X86390943Y-42750426D01*
G75*
G02*
X86480806Y-44409695I-784703J-874566D01*
G01*
X85170816Y-45869703D01*
G75*
G02*
X83511547Y-45959566I-874566J784703D01*
G01*
G37*
D13*
X90646250Y-42545000D03*
G36*
G01*
X90526332Y-44297279D02*
X90526332Y-44297279D01*
G75*
G02*
X89433971Y-43045082I79918J1172279D01*
G01*
X89473513Y-42465050D01*
G75*
G02*
X90725710Y-41372689I1172279J-79918D01*
G01*
X90725710Y-41372689D01*
G75*
G02*
X91818071Y-42624886I-79918J-1172279D01*
G01*
X91778529Y-43204918D01*
G75*
G02*
X90526332Y-44297279I-1172279J79918D01*
G01*
G37*
%TD*%
D10*
%TO.C,K10*%
X74556250Y-47625000D03*
X63556250Y-47625000D03*
D11*
X69056250Y-41725000D03*
X74056250Y-43825000D03*
D12*
X74136250Y-47625000D03*
X63976250Y-47625000D03*
D13*
X66556250Y-43625000D03*
D14*
X69056250Y-47625000D03*
G36*
G01*
X64461546Y-45959566D02*
X64461547Y-45959566D01*
G75*
G02*
X64371684Y-44300297I784703J874566D01*
G01*
X65681674Y-42840289D01*
G75*
G02*
X67340943Y-42750426I874566J-784703D01*
G01*
X67340943Y-42750426D01*
G75*
G02*
X67430806Y-44409695I-784703J-874566D01*
G01*
X66120816Y-45869703D01*
G75*
G02*
X64461547Y-45959566I-874566J784703D01*
G01*
G37*
D13*
X71596250Y-42545000D03*
G36*
G01*
X71476332Y-44297279D02*
X71476332Y-44297279D01*
G75*
G02*
X70383971Y-43045082I79918J1172279D01*
G01*
X70423513Y-42465050D01*
G75*
G02*
X71675710Y-41372689I1172279J-79918D01*
G01*
X71675710Y-41372689D01*
G75*
G02*
X72768071Y-42624886I-79918J-1172279D01*
G01*
X72728529Y-43204918D01*
G75*
G02*
X71476332Y-44297279I-1172279J79918D01*
G01*
G37*
%TD*%
D10*
%TO.C,K9*%
X55506250Y-47625000D03*
X44506250Y-47625000D03*
D11*
X50006250Y-41725000D03*
X55006250Y-43825000D03*
D12*
X55086250Y-47625000D03*
X44926250Y-47625000D03*
D13*
X47506250Y-43625000D03*
D14*
X50006250Y-47625000D03*
G36*
G01*
X45411546Y-45959566D02*
X45411547Y-45959566D01*
G75*
G02*
X45321684Y-44300297I784703J874566D01*
G01*
X46631674Y-42840289D01*
G75*
G02*
X48290943Y-42750426I874566J-784703D01*
G01*
X48290943Y-42750426D01*
G75*
G02*
X48380806Y-44409695I-784703J-874566D01*
G01*
X47070816Y-45869703D01*
G75*
G02*
X45411547Y-45959566I-874566J784703D01*
G01*
G37*
D13*
X52546250Y-42545000D03*
G36*
G01*
X52426332Y-44297279D02*
X52426332Y-44297279D01*
G75*
G02*
X51333971Y-43045082I79918J1172279D01*
G01*
X51373513Y-42465050D01*
G75*
G02*
X52625710Y-41372689I1172279J-79918D01*
G01*
X52625710Y-41372689D01*
G75*
G02*
X53718071Y-42624886I-79918J-1172279D01*
G01*
X53678529Y-43204918D01*
G75*
G02*
X52426332Y-44297279I-1172279J79918D01*
G01*
G37*
%TD*%
D10*
%TO.C,K6*%
X150756250Y-28575000D03*
X139756250Y-28575000D03*
D11*
X145256250Y-22675000D03*
X150256250Y-24775000D03*
D12*
X150336250Y-28575000D03*
X140176250Y-28575000D03*
D13*
X142756250Y-24575000D03*
D14*
X145256250Y-28575000D03*
G36*
G01*
X140661546Y-26909566D02*
X140661547Y-26909566D01*
G75*
G02*
X140571684Y-25250297I784703J874566D01*
G01*
X141881674Y-23790289D01*
G75*
G02*
X143540943Y-23700426I874566J-784703D01*
G01*
X143540943Y-23700426D01*
G75*
G02*
X143630806Y-25359695I-784703J-874566D01*
G01*
X142320816Y-26819703D01*
G75*
G02*
X140661547Y-26909566I-874566J784703D01*
G01*
G37*
D13*
X147796250Y-23495000D03*
G36*
G01*
X147676332Y-25247279D02*
X147676332Y-25247279D01*
G75*
G02*
X146583971Y-23995082I79918J1172279D01*
G01*
X146623513Y-23415050D01*
G75*
G02*
X147875710Y-22322689I1172279J-79918D01*
G01*
X147875710Y-22322689D01*
G75*
G02*
X148968071Y-23574886I-79918J-1172279D01*
G01*
X148928529Y-24154918D01*
G75*
G02*
X147676332Y-25247279I-1172279J79918D01*
G01*
G37*
%TD*%
D10*
%TO.C,K5*%
X131706250Y-28575000D03*
X120706250Y-28575000D03*
D11*
X126206250Y-22675000D03*
X131206250Y-24775000D03*
D12*
X131286250Y-28575000D03*
X121126250Y-28575000D03*
D13*
X123706250Y-24575000D03*
D14*
X126206250Y-28575000D03*
G36*
G01*
X121611546Y-26909566D02*
X121611547Y-26909566D01*
G75*
G02*
X121521684Y-25250297I784703J874566D01*
G01*
X122831674Y-23790289D01*
G75*
G02*
X124490943Y-23700426I874566J-784703D01*
G01*
X124490943Y-23700426D01*
G75*
G02*
X124580806Y-25359695I-784703J-874566D01*
G01*
X123270816Y-26819703D01*
G75*
G02*
X121611547Y-26909566I-874566J784703D01*
G01*
G37*
D13*
X128746250Y-23495000D03*
G36*
G01*
X128626332Y-25247279D02*
X128626332Y-25247279D01*
G75*
G02*
X127533971Y-23995082I79918J1172279D01*
G01*
X127573513Y-23415050D01*
G75*
G02*
X128825710Y-22322689I1172279J-79918D01*
G01*
X128825710Y-22322689D01*
G75*
G02*
X129918071Y-23574886I-79918J-1172279D01*
G01*
X129878529Y-24154918D01*
G75*
G02*
X128626332Y-25247279I-1172279J79918D01*
G01*
G37*
%TD*%
D10*
%TO.C,K4*%
X112656250Y-28575000D03*
X101656250Y-28575000D03*
D11*
X107156250Y-22675000D03*
X112156250Y-24775000D03*
D12*
X112236250Y-28575000D03*
X102076250Y-28575000D03*
D13*
X104656250Y-24575000D03*
D14*
X107156250Y-28575000D03*
G36*
G01*
X102561546Y-26909566D02*
X102561547Y-26909566D01*
G75*
G02*
X102471684Y-25250297I784703J874566D01*
G01*
X103781674Y-23790289D01*
G75*
G02*
X105440943Y-23700426I874566J-784703D01*
G01*
X105440943Y-23700426D01*
G75*
G02*
X105530806Y-25359695I-784703J-874566D01*
G01*
X104220816Y-26819703D01*
G75*
G02*
X102561547Y-26909566I-874566J784703D01*
G01*
G37*
D13*
X109696250Y-23495000D03*
G36*
G01*
X109576332Y-25247279D02*
X109576332Y-25247279D01*
G75*
G02*
X108483971Y-23995082I79918J1172279D01*
G01*
X108523513Y-23415050D01*
G75*
G02*
X109775710Y-22322689I1172279J-79918D01*
G01*
X109775710Y-22322689D01*
G75*
G02*
X110868071Y-23574886I-79918J-1172279D01*
G01*
X110828529Y-24154918D01*
G75*
G02*
X109576332Y-25247279I-1172279J79918D01*
G01*
G37*
%TD*%
D10*
%TO.C,K3*%
X93606250Y-28575000D03*
X82606250Y-28575000D03*
D11*
X88106250Y-22675000D03*
X93106250Y-24775000D03*
D12*
X93186250Y-28575000D03*
X83026250Y-28575000D03*
D13*
X85606250Y-24575000D03*
D14*
X88106250Y-28575000D03*
G36*
G01*
X83511546Y-26909566D02*
X83511547Y-26909566D01*
G75*
G02*
X83421684Y-25250297I784703J874566D01*
G01*
X84731674Y-23790289D01*
G75*
G02*
X86390943Y-23700426I874566J-784703D01*
G01*
X86390943Y-23700426D01*
G75*
G02*
X86480806Y-25359695I-784703J-874566D01*
G01*
X85170816Y-26819703D01*
G75*
G02*
X83511547Y-26909566I-874566J784703D01*
G01*
G37*
D13*
X90646250Y-23495000D03*
G36*
G01*
X90526332Y-25247279D02*
X90526332Y-25247279D01*
G75*
G02*
X89433971Y-23995082I79918J1172279D01*
G01*
X89473513Y-23415050D01*
G75*
G02*
X90725710Y-22322689I1172279J-79918D01*
G01*
X90725710Y-22322689D01*
G75*
G02*
X91818071Y-23574886I-79918J-1172279D01*
G01*
X91778529Y-24154918D01*
G75*
G02*
X90526332Y-25247279I-1172279J79918D01*
G01*
G37*
%TD*%
D10*
%TO.C,K2*%
X74556250Y-28575000D03*
X63556250Y-28575000D03*
D11*
X69056250Y-22675000D03*
X74056250Y-24775000D03*
D12*
X74136250Y-28575000D03*
X63976250Y-28575000D03*
D13*
X66556250Y-24575000D03*
D14*
X69056250Y-28575000D03*
G36*
G01*
X64461546Y-26909566D02*
X64461547Y-26909566D01*
G75*
G02*
X64371684Y-25250297I784703J874566D01*
G01*
X65681674Y-23790289D01*
G75*
G02*
X67340943Y-23700426I874566J-784703D01*
G01*
X67340943Y-23700426D01*
G75*
G02*
X67430806Y-25359695I-784703J-874566D01*
G01*
X66120816Y-26819703D01*
G75*
G02*
X64461547Y-26909566I-874566J784703D01*
G01*
G37*
D13*
X71596250Y-23495000D03*
G36*
G01*
X71476332Y-25247279D02*
X71476332Y-25247279D01*
G75*
G02*
X70383971Y-23995082I79918J1172279D01*
G01*
X70423513Y-23415050D01*
G75*
G02*
X71675710Y-22322689I1172279J-79918D01*
G01*
X71675710Y-22322689D01*
G75*
G02*
X72768071Y-23574886I-79918J-1172279D01*
G01*
X72728529Y-24154918D01*
G75*
G02*
X71476332Y-25247279I-1172279J79918D01*
G01*
G37*
%TD*%
D10*
%TO.C,K1*%
X55506250Y-28575000D03*
X44506250Y-28575000D03*
D11*
X50006250Y-22675000D03*
X55006250Y-24775000D03*
D12*
X55086250Y-28575000D03*
X44926250Y-28575000D03*
D13*
X47506250Y-24575000D03*
D14*
X50006250Y-28575000D03*
G36*
G01*
X45411546Y-26909566D02*
X45411547Y-26909566D01*
G75*
G02*
X45321684Y-25250297I784703J874566D01*
G01*
X46631674Y-23790289D01*
G75*
G02*
X48290943Y-23700426I874566J-784703D01*
G01*
X48290943Y-23700426D01*
G75*
G02*
X48380806Y-25359695I-784703J-874566D01*
G01*
X47070816Y-26819703D01*
G75*
G02*
X45411547Y-26909566I-874566J784703D01*
G01*
G37*
D13*
X52546250Y-23495000D03*
G36*
G01*
X52426332Y-25247279D02*
X52426332Y-25247279D01*
G75*
G02*
X51333971Y-23995082I79918J1172279D01*
G01*
X51373513Y-23415050D01*
G75*
G02*
X52625710Y-22322689I1172279J-79918D01*
G01*
X52625710Y-22322689D01*
G75*
G02*
X53718071Y-23574886I-79918J-1172279D01*
G01*
X53678529Y-24154918D01*
G75*
G02*
X52426332Y-25247279I-1172279J79918D01*
G01*
G37*
%TD*%
D16*
%TO.C,O1*%
X237490000Y-32512000D03*
X237490000Y-29972000D03*
X237490000Y-27432000D03*
D17*
X237490000Y-24892000D03*
%TD*%
D18*
%TO.C,D18*%
X212090000Y-51525000D03*
D19*
X212090000Y-43725000D03*
%TD*%
D18*
%TO.C,D1*%
X40481250Y-32475000D03*
D19*
X40481250Y-24675000D03*
%TD*%
D18*
%TO.C,D2*%
X59531250Y-32475000D03*
D19*
X59531250Y-24675000D03*
%TD*%
D18*
%TO.C,D3*%
X78581250Y-32475000D03*
D19*
X78581250Y-24675000D03*
%TD*%
D18*
%TO.C,D4*%
X97631250Y-32475000D03*
D19*
X97631250Y-24675000D03*
%TD*%
D18*
%TO.C,D5*%
X116681250Y-32475000D03*
D19*
X116681250Y-24675000D03*
%TD*%
D18*
%TO.C,D6*%
X135731250Y-32475000D03*
D19*
X135731250Y-24675000D03*
%TD*%
D18*
%TO.C,D7*%
X154781250Y-32475000D03*
D19*
X154781250Y-24675000D03*
%TD*%
D18*
%TO.C,D8*%
X173831250Y-32475000D03*
D19*
X173831250Y-24675000D03*
%TD*%
D18*
%TO.C,D9*%
X40481250Y-51525000D03*
D19*
X40481250Y-43725000D03*
%TD*%
D18*
%TO.C,D10*%
X59531250Y-51525000D03*
D19*
X59531250Y-43725000D03*
%TD*%
D18*
%TO.C,D11*%
X78581250Y-51525000D03*
D19*
X78581250Y-43725000D03*
%TD*%
D18*
%TO.C,D12*%
X97631250Y-51525000D03*
D19*
X97631250Y-43725000D03*
%TD*%
D18*
%TO.C,D13*%
X116681250Y-51525000D03*
D19*
X116681250Y-43725000D03*
%TD*%
D18*
%TO.C,D14*%
X135731250Y-51525000D03*
D19*
X135731250Y-43725000D03*
%TD*%
D18*
%TO.C,D15*%
X154781250Y-51525000D03*
D19*
X154781250Y-43725000D03*
%TD*%
D18*
%TO.C,D16*%
X173831250Y-51525000D03*
D19*
X173831250Y-43725000D03*
%TD*%
D18*
%TO.C,D17*%
X192881250Y-51525000D03*
D19*
X192881250Y-43725000D03*
%TD*%
D18*
%TO.C,D19*%
X230981250Y-51525000D03*
D19*
X230981250Y-43725000D03*
%TD*%
D18*
%TO.C,D20*%
X40481250Y-70575000D03*
D19*
X40481250Y-62775000D03*
%TD*%
D18*
%TO.C,D21*%
X59531250Y-70575000D03*
D19*
X59531250Y-62775000D03*
%TD*%
D18*
%TO.C,D22*%
X78581250Y-70575000D03*
D19*
X78581250Y-62775000D03*
%TD*%
D18*
%TO.C,D23*%
X97631250Y-70575000D03*
D19*
X97631250Y-62775000D03*
%TD*%
D18*
%TO.C,D24*%
X116681250Y-70575000D03*
D19*
X116681250Y-62775000D03*
%TD*%
D18*
%TO.C,D25*%
X135731250Y-70575000D03*
D19*
X135731250Y-62775000D03*
%TD*%
D18*
%TO.C,D26*%
X154781250Y-70575000D03*
D19*
X154781250Y-62775000D03*
%TD*%
D18*
%TO.C,D27*%
X173831250Y-70575000D03*
D19*
X173831250Y-62775000D03*
%TD*%
D18*
%TO.C,D28*%
X192881250Y-70575000D03*
D19*
X192881250Y-62775000D03*
%TD*%
D18*
%TO.C,D29*%
X211931250Y-70575000D03*
D19*
X211931250Y-62775000D03*
%TD*%
D18*
%TO.C,D30*%
X230981250Y-70575000D03*
D19*
X230981250Y-62775000D03*
%TD*%
D18*
%TO.C,D31*%
X40481250Y-89625000D03*
D19*
X40481250Y-81825000D03*
%TD*%
D18*
%TO.C,D32*%
X59531250Y-89625000D03*
D19*
X59531250Y-81825000D03*
%TD*%
D18*
%TO.C,D33*%
X78581250Y-89506250D03*
D19*
X78581250Y-81706250D03*
%TD*%
D18*
%TO.C,D34*%
X97631250Y-89506250D03*
D19*
X97631250Y-81706250D03*
%TD*%
D18*
%TO.C,D35*%
X116681250Y-89625000D03*
D19*
X116681250Y-81825000D03*
%TD*%
D18*
%TO.C,D36*%
X135731250Y-89625000D03*
D19*
X135731250Y-81825000D03*
%TD*%
D18*
%TO.C,D37*%
X154781250Y-89625000D03*
D19*
X154781250Y-81825000D03*
%TD*%
D18*
%TO.C,D38*%
X173831250Y-89506250D03*
D19*
X173831250Y-81706250D03*
%TD*%
D18*
%TO.C,D39*%
X192881250Y-89625000D03*
D19*
X192881250Y-81825000D03*
%TD*%
D18*
%TO.C,D40*%
X211931250Y-89625000D03*
D19*
X211931250Y-81825000D03*
%TD*%
D18*
%TO.C,D41*%
X230981250Y-89625000D03*
D19*
X230981250Y-81825000D03*
%TD*%
D18*
%TO.C,D42*%
X40481250Y-108675000D03*
D19*
X40481250Y-100875000D03*
%TD*%
D18*
%TO.C,D43*%
X59531250Y-108675000D03*
D19*
X59531250Y-100875000D03*
%TD*%
D18*
%TO.C,D44*%
X78581250Y-108675000D03*
D19*
X78581250Y-100875000D03*
%TD*%
D18*
%TO.C,D45*%
X97631250Y-108675000D03*
D19*
X97631250Y-100875000D03*
%TD*%
D18*
%TO.C,D46*%
X116681250Y-108675000D03*
D19*
X116681250Y-100875000D03*
%TD*%
D18*
%TO.C,D47*%
X135731250Y-108675000D03*
D19*
X135731250Y-100875000D03*
%TD*%
D18*
%TO.C,D48*%
X154781250Y-108675000D03*
D19*
X154781250Y-100875000D03*
%TD*%
D18*
%TO.C,D49*%
X173831250Y-108675000D03*
D19*
X173831250Y-100875000D03*
%TD*%
D18*
%TO.C,D50*%
X192881250Y-108675000D03*
D19*
X192881250Y-100875000D03*
%TD*%
D18*
%TO.C,D51*%
X211931250Y-108675000D03*
D19*
X211931250Y-100875000D03*
%TD*%
D18*
%TO.C,D52*%
X230981250Y-108675000D03*
D19*
X230981250Y-100875000D03*
%TD*%
D20*
%TO.C,K7/SW1*%
X161806250Y-35694000D03*
D11*
X164306250Y-35694000D03*
X166806250Y-35694000D03*
D21*
X158706250Y-28194000D03*
X169906250Y-28194000D03*
D11*
X161806250Y-21194000D03*
X166806250Y-21194000D03*
%TD*%
D20*
%TO.C,K8/SW2*%
X180856250Y-35694000D03*
D11*
X183356250Y-35694000D03*
X185856250Y-35694000D03*
D21*
X177756250Y-28194000D03*
X188956250Y-28194000D03*
D11*
X180856250Y-21194000D03*
X185856250Y-21194000D03*
%TD*%
M02*
