%TF.GenerationSoftware,KiCad,Pcbnew,(5.1.6)-1*%
%TF.CreationDate,2020-06-27T17:36:21-05:00*%
%TF.ProjectId,DTM,44544d2e-6b69-4636-9164-5f7063625858,rev?*%
%TF.SameCoordinates,Original*%
%TF.FileFunction,Paste,Bot*%
%TF.FilePolarity,Positive*%
%FSLAX46Y46*%
G04 Gerber Fmt 4.6, Leading zero omitted, Abs format (unit mm)*
G04 Created by KiCad (PCBNEW (5.1.6)-1) date 2020-06-27 17:36:21*
%MOMM*%
%LPD*%
G01*
G04 APERTURE LIST*
%ADD10R,1.200000X1.600000*%
G04 APERTURE END LIST*
D10*
%TO.C,D18*%
X212090000Y-49025000D03*
X212090000Y-46225000D03*
%TD*%
%TO.C,D1*%
X40481250Y-29975000D03*
X40481250Y-27175000D03*
%TD*%
%TO.C,D2*%
X59531250Y-29975000D03*
X59531250Y-27175000D03*
%TD*%
%TO.C,D3*%
X78581250Y-29975000D03*
X78581250Y-27175000D03*
%TD*%
%TO.C,D4*%
X97631250Y-29975000D03*
X97631250Y-27175000D03*
%TD*%
%TO.C,D5*%
X116681250Y-29975000D03*
X116681250Y-27175000D03*
%TD*%
%TO.C,D6*%
X135731250Y-29975000D03*
X135731250Y-27175000D03*
%TD*%
%TO.C,D7*%
X154781250Y-29975000D03*
X154781250Y-27175000D03*
%TD*%
%TO.C,D8*%
X173831250Y-29975000D03*
X173831250Y-27175000D03*
%TD*%
%TO.C,D9*%
X40481250Y-49025000D03*
X40481250Y-46225000D03*
%TD*%
%TO.C,D10*%
X59531250Y-49025000D03*
X59531250Y-46225000D03*
%TD*%
%TO.C,D11*%
X78581250Y-49025000D03*
X78581250Y-46225000D03*
%TD*%
%TO.C,D12*%
X97631250Y-49025000D03*
X97631250Y-46225000D03*
%TD*%
%TO.C,D13*%
X116681250Y-49025000D03*
X116681250Y-46225000D03*
%TD*%
%TO.C,D14*%
X135731250Y-49025000D03*
X135731250Y-46225000D03*
%TD*%
%TO.C,D15*%
X154781250Y-49025000D03*
X154781250Y-46225000D03*
%TD*%
%TO.C,D16*%
X173831250Y-49025000D03*
X173831250Y-46225000D03*
%TD*%
%TO.C,D17*%
X192881250Y-49025000D03*
X192881250Y-46225000D03*
%TD*%
%TO.C,D19*%
X230981250Y-49025000D03*
X230981250Y-46225000D03*
%TD*%
%TO.C,D20*%
X40481250Y-68075000D03*
X40481250Y-65275000D03*
%TD*%
%TO.C,D21*%
X59531250Y-68075000D03*
X59531250Y-65275000D03*
%TD*%
%TO.C,D22*%
X78581250Y-68075000D03*
X78581250Y-65275000D03*
%TD*%
%TO.C,D23*%
X97631250Y-68075000D03*
X97631250Y-65275000D03*
%TD*%
%TO.C,D24*%
X116681250Y-68075000D03*
X116681250Y-65275000D03*
%TD*%
%TO.C,D25*%
X135731250Y-68075000D03*
X135731250Y-65275000D03*
%TD*%
%TO.C,D26*%
X154781250Y-68075000D03*
X154781250Y-65275000D03*
%TD*%
%TO.C,D27*%
X173831250Y-68075000D03*
X173831250Y-65275000D03*
%TD*%
%TO.C,D28*%
X192881250Y-68075000D03*
X192881250Y-65275000D03*
%TD*%
%TO.C,D29*%
X211931250Y-68075000D03*
X211931250Y-65275000D03*
%TD*%
%TO.C,D30*%
X230981250Y-68075000D03*
X230981250Y-65275000D03*
%TD*%
%TO.C,D31*%
X40481250Y-87125000D03*
X40481250Y-84325000D03*
%TD*%
%TO.C,D32*%
X59531250Y-87125000D03*
X59531250Y-84325000D03*
%TD*%
%TO.C,D33*%
X78581250Y-87006250D03*
X78581250Y-84206250D03*
%TD*%
%TO.C,D34*%
X97631250Y-87006250D03*
X97631250Y-84206250D03*
%TD*%
%TO.C,D35*%
X116681250Y-87125000D03*
X116681250Y-84325000D03*
%TD*%
%TO.C,D36*%
X135731250Y-87125000D03*
X135731250Y-84325000D03*
%TD*%
%TO.C,D37*%
X154781250Y-87125000D03*
X154781250Y-84325000D03*
%TD*%
%TO.C,D38*%
X173831250Y-87006250D03*
X173831250Y-84206250D03*
%TD*%
%TO.C,D39*%
X192881250Y-87125000D03*
X192881250Y-84325000D03*
%TD*%
%TO.C,D40*%
X211931250Y-87125000D03*
X211931250Y-84325000D03*
%TD*%
%TO.C,D41*%
X230981250Y-87125000D03*
X230981250Y-84325000D03*
%TD*%
%TO.C,D42*%
X40481250Y-106175000D03*
X40481250Y-103375000D03*
%TD*%
%TO.C,D43*%
X59531250Y-106175000D03*
X59531250Y-103375000D03*
%TD*%
%TO.C,D44*%
X78581250Y-106175000D03*
X78581250Y-103375000D03*
%TD*%
%TO.C,D45*%
X97631250Y-106175000D03*
X97631250Y-103375000D03*
%TD*%
%TO.C,D46*%
X116681250Y-106175000D03*
X116681250Y-103375000D03*
%TD*%
%TO.C,D47*%
X135731250Y-106175000D03*
X135731250Y-103375000D03*
%TD*%
%TO.C,D48*%
X154781250Y-106175000D03*
X154781250Y-103375000D03*
%TD*%
%TO.C,D49*%
X173831250Y-106175000D03*
X173831250Y-103375000D03*
%TD*%
%TO.C,D50*%
X192881250Y-106175000D03*
X192881250Y-103375000D03*
%TD*%
%TO.C,D51*%
X211931250Y-106175000D03*
X211931250Y-103375000D03*
%TD*%
%TO.C,D52*%
X230981250Y-106175000D03*
X230981250Y-103375000D03*
%TD*%
M02*
